<?xml version="1.0" encoding="utf-8" standalone="no"?>
<!DOCTYPE svg PUBLIC "-//W3C//DTD SVG 1.1//EN"
  "http://www.w3.org/Graphics/SVG/1.1/DTD/svg11.dtd">
<!-- Created with matplotlib (http://matplotlib.org/) -->
<svg height="432pt" version="1.1" viewBox="0 0 576 432" width="576pt" xmlns="http://www.w3.org/2000/svg" xmlns:xlink="http://www.w3.org/1999/xlink">
 <defs>
  <style type="text/css">
*{stroke-linecap:butt;stroke-linejoin:round;}
  </style>
 </defs>
 <g id="figure_1">
  <g id="patch_1">
   <path d="M 0 432 
L 576 432 
L 576 0 
L 0 0 
z
" style="fill:#ffffff;"/>
  </g>
  <g id="axes_1">
   <g id="patch_2">
    <path d="M 72 384.48 
L 518.4 384.48 
L 518.4 51.84 
L 72 51.84 
z
" style="fill:#ffffff;"/>
   </g>
   <g id="matplotlib.axis_1">
    <g id="xtick_1">
     <g id="line2d_1">
      <path clip-path="url(#p677ce7e90f)" d="M 146.269979 384.48 
L 146.269979 51.84 
" style="fill:none;stroke:#b0b0b0;stroke-linecap:square;stroke-width:0.8;"/>
     </g>
     <g id="line2d_2">
      <defs>
       <path d="M 0 0 
L 0 3.5 
" id="md413369b03" style="stroke:#000000;stroke-width:0.8;"/>
      </defs>
      <g>
       <use style="stroke:#000000;stroke-width:0.8;" x="146.269979" xlink:href="#md413369b03" y="384.48"/>
      </g>
     </g>
     <g id="text_1">
      <!-- 1.5 -->
      <defs>
       <path d="M 12.40625 8.296875 
L 28.515625 8.296875 
L 28.515625 63.921875 
L 10.984375 60.40625 
L 10.984375 69.390625 
L 28.421875 72.90625 
L 38.28125 72.90625 
L 38.28125 8.296875 
L 54.390625 8.296875 
L 54.390625 0 
L 12.40625 0 
z
" id="DejaVuSans-31"/>
       <path d="M 10.6875 12.40625 
L 21 12.40625 
L 21 0 
L 10.6875 0 
z
" id="DejaVuSans-2e"/>
       <path d="M 10.796875 72.90625 
L 49.515625 72.90625 
L 49.515625 64.59375 
L 19.828125 64.59375 
L 19.828125 46.734375 
Q 21.96875 47.46875 24.109375 47.828125 
Q 26.265625 48.1875 28.421875 48.1875 
Q 40.625 48.1875 47.75 41.5 
Q 54.890625 34.8125 54.890625 23.390625 
Q 54.890625 11.625 47.5625 5.09375 
Q 40.234375 -1.421875 26.90625 -1.421875 
Q 22.3125 -1.421875 17.546875 -0.640625 
Q 12.796875 0.140625 7.71875 1.703125 
L 7.71875 11.625 
Q 12.109375 9.234375 16.796875 8.0625 
Q 21.484375 6.890625 26.703125 6.890625 
Q 35.15625 6.890625 40.078125 11.328125 
Q 45.015625 15.765625 45.015625 23.390625 
Q 45.015625 31 40.078125 35.4375 
Q 35.15625 39.890625 26.703125 39.890625 
Q 22.75 39.890625 18.8125 39.015625 
Q 14.890625 38.140625 10.796875 36.28125 
z
" id="DejaVuSans-35"/>
      </defs>
      <g transform="translate(131.957167 405.157188)scale(0.18 -0.18)">
       <use xlink:href="#DejaVuSans-31"/>
       <use x="63.623047" xlink:href="#DejaVuSans-2e"/>
       <use x="95.410156" xlink:href="#DejaVuSans-35"/>
      </g>
     </g>
    </g>
    <g id="xtick_2">
     <g id="line2d_3">
      <path clip-path="url(#p677ce7e90f)" d="M 253.174092 384.48 
L 253.174092 51.84 
" style="fill:none;stroke:#b0b0b0;stroke-linecap:square;stroke-width:0.8;"/>
     </g>
     <g id="line2d_4">
      <g>
       <use style="stroke:#000000;stroke-width:0.8;" x="253.174092" xlink:href="#md413369b03" y="384.48"/>
      </g>
     </g>
     <g id="text_2">
      <!-- 2.0 -->
      <defs>
       <path d="M 19.1875 8.296875 
L 53.609375 8.296875 
L 53.609375 0 
L 7.328125 0 
L 7.328125 8.296875 
Q 12.9375 14.109375 22.625 23.890625 
Q 32.328125 33.6875 34.8125 36.53125 
Q 39.546875 41.84375 41.421875 45.53125 
Q 43.3125 49.21875 43.3125 52.78125 
Q 43.3125 58.59375 39.234375 62.25 
Q 35.15625 65.921875 28.609375 65.921875 
Q 23.96875 65.921875 18.8125 64.3125 
Q 13.671875 62.703125 7.8125 59.421875 
L 7.8125 69.390625 
Q 13.765625 71.78125 18.9375 73 
Q 24.125 74.21875 28.421875 74.21875 
Q 39.75 74.21875 46.484375 68.546875 
Q 53.21875 62.890625 53.21875 53.421875 
Q 53.21875 48.921875 51.53125 44.890625 
Q 49.859375 40.875 45.40625 35.40625 
Q 44.1875 33.984375 37.640625 27.21875 
Q 31.109375 20.453125 19.1875 8.296875 
z
" id="DejaVuSans-32"/>
       <path d="M 31.78125 66.40625 
Q 24.171875 66.40625 20.328125 58.90625 
Q 16.5 51.421875 16.5 36.375 
Q 16.5 21.390625 20.328125 13.890625 
Q 24.171875 6.390625 31.78125 6.390625 
Q 39.453125 6.390625 43.28125 13.890625 
Q 47.125 21.390625 47.125 36.375 
Q 47.125 51.421875 43.28125 58.90625 
Q 39.453125 66.40625 31.78125 66.40625 
z
M 31.78125 74.21875 
Q 44.046875 74.21875 50.515625 64.515625 
Q 56.984375 54.828125 56.984375 36.375 
Q 56.984375 17.96875 50.515625 8.265625 
Q 44.046875 -1.421875 31.78125 -1.421875 
Q 19.53125 -1.421875 13.0625 8.265625 
Q 6.59375 17.96875 6.59375 36.375 
Q 6.59375 54.828125 13.0625 64.515625 
Q 19.53125 74.21875 31.78125 74.21875 
z
" id="DejaVuSans-30"/>
      </defs>
      <g transform="translate(238.861279 405.157188)scale(0.18 -0.18)">
       <use xlink:href="#DejaVuSans-32"/>
       <use x="63.623047" xlink:href="#DejaVuSans-2e"/>
       <use x="95.410156" xlink:href="#DejaVuSans-30"/>
      </g>
     </g>
    </g>
    <g id="xtick_3">
     <g id="line2d_5">
      <path clip-path="url(#p677ce7e90f)" d="M 360.078205 384.48 
L 360.078205 51.84 
" style="fill:none;stroke:#b0b0b0;stroke-linecap:square;stroke-width:0.8;"/>
     </g>
     <g id="line2d_6">
      <g>
       <use style="stroke:#000000;stroke-width:0.8;" x="360.078205" xlink:href="#md413369b03" y="384.48"/>
      </g>
     </g>
     <g id="text_3">
      <!-- 2.5 -->
      <g transform="translate(345.765392 405.157188)scale(0.18 -0.18)">
       <use xlink:href="#DejaVuSans-32"/>
       <use x="63.623047" xlink:href="#DejaVuSans-2e"/>
       <use x="95.410156" xlink:href="#DejaVuSans-35"/>
      </g>
     </g>
    </g>
    <g id="xtick_4">
     <g id="line2d_7">
      <path clip-path="url(#p677ce7e90f)" d="M 466.982317 384.48 
L 466.982317 51.84 
" style="fill:none;stroke:#b0b0b0;stroke-linecap:square;stroke-width:0.8;"/>
     </g>
     <g id="line2d_8">
      <g>
       <use style="stroke:#000000;stroke-width:0.8;" x="466.982317" xlink:href="#md413369b03" y="384.48"/>
      </g>
     </g>
     <g id="text_4">
      <!-- 3.0 -->
      <defs>
       <path d="M 40.578125 39.3125 
Q 47.65625 37.796875 51.625 33 
Q 55.609375 28.21875 55.609375 21.1875 
Q 55.609375 10.40625 48.1875 4.484375 
Q 40.765625 -1.421875 27.09375 -1.421875 
Q 22.515625 -1.421875 17.65625 -0.515625 
Q 12.796875 0.390625 7.625 2.203125 
L 7.625 11.71875 
Q 11.71875 9.328125 16.59375 8.109375 
Q 21.484375 6.890625 26.8125 6.890625 
Q 36.078125 6.890625 40.9375 10.546875 
Q 45.796875 14.203125 45.796875 21.1875 
Q 45.796875 27.640625 41.28125 31.265625 
Q 36.765625 34.90625 28.71875 34.90625 
L 20.21875 34.90625 
L 20.21875 43.015625 
L 29.109375 43.015625 
Q 36.375 43.015625 40.234375 45.921875 
Q 44.09375 48.828125 44.09375 54.296875 
Q 44.09375 59.90625 40.109375 62.90625 
Q 36.140625 65.921875 28.71875 65.921875 
Q 24.65625 65.921875 20.015625 65.03125 
Q 15.375 64.15625 9.8125 62.3125 
L 9.8125 71.09375 
Q 15.4375 72.65625 20.34375 73.4375 
Q 25.25 74.21875 29.59375 74.21875 
Q 40.828125 74.21875 47.359375 69.109375 
Q 53.90625 64.015625 53.90625 55.328125 
Q 53.90625 49.265625 50.4375 45.09375 
Q 46.96875 40.921875 40.578125 39.3125 
z
" id="DejaVuSans-33"/>
      </defs>
      <g transform="translate(452.669505 405.157188)scale(0.18 -0.18)">
       <use xlink:href="#DejaVuSans-33"/>
       <use x="63.623047" xlink:href="#DejaVuSans-2e"/>
       <use x="95.410156" xlink:href="#DejaVuSans-30"/>
      </g>
     </g>
    </g>
    <g id="text_5">
     <!-- True Energy -->
     <defs>
      <path d="M -0.296875 72.90625 
L 61.375 72.90625 
L 61.375 64.59375 
L 35.5 64.59375 
L 35.5 0 
L 25.59375 0 
L 25.59375 64.59375 
L -0.296875 64.59375 
z
" id="DejaVuSans-54"/>
      <path d="M 41.109375 46.296875 
Q 39.59375 47.171875 37.8125 47.578125 
Q 36.03125 48 33.890625 48 
Q 26.265625 48 22.1875 43.046875 
Q 18.109375 38.09375 18.109375 28.8125 
L 18.109375 0 
L 9.078125 0 
L 9.078125 54.6875 
L 18.109375 54.6875 
L 18.109375 46.1875 
Q 20.953125 51.171875 25.484375 53.578125 
Q 30.03125 56 36.53125 56 
Q 37.453125 56 38.578125 55.875 
Q 39.703125 55.765625 41.0625 55.515625 
z
" id="DejaVuSans-72"/>
      <path d="M 8.5 21.578125 
L 8.5 54.6875 
L 17.484375 54.6875 
L 17.484375 21.921875 
Q 17.484375 14.15625 20.5 10.265625 
Q 23.53125 6.390625 29.59375 6.390625 
Q 36.859375 6.390625 41.078125 11.03125 
Q 45.3125 15.671875 45.3125 23.6875 
L 45.3125 54.6875 
L 54.296875 54.6875 
L 54.296875 0 
L 45.3125 0 
L 45.3125 8.40625 
Q 42.046875 3.421875 37.71875 1 
Q 33.40625 -1.421875 27.6875 -1.421875 
Q 18.265625 -1.421875 13.375 4.4375 
Q 8.5 10.296875 8.5 21.578125 
z
M 31.109375 56 
z
" id="DejaVuSans-75"/>
      <path d="M 56.203125 29.59375 
L 56.203125 25.203125 
L 14.890625 25.203125 
Q 15.484375 15.921875 20.484375 11.0625 
Q 25.484375 6.203125 34.421875 6.203125 
Q 39.59375 6.203125 44.453125 7.46875 
Q 49.3125 8.734375 54.109375 11.28125 
L 54.109375 2.78125 
Q 49.265625 0.734375 44.1875 -0.34375 
Q 39.109375 -1.421875 33.890625 -1.421875 
Q 20.796875 -1.421875 13.15625 6.1875 
Q 5.515625 13.8125 5.515625 26.8125 
Q 5.515625 40.234375 12.765625 48.109375 
Q 20.015625 56 32.328125 56 
Q 43.359375 56 49.78125 48.890625 
Q 56.203125 41.796875 56.203125 29.59375 
z
M 47.21875 32.234375 
Q 47.125 39.59375 43.09375 43.984375 
Q 39.0625 48.390625 32.421875 48.390625 
Q 24.90625 48.390625 20.390625 44.140625 
Q 15.875 39.890625 15.1875 32.171875 
z
" id="DejaVuSans-65"/>
      <path id="DejaVuSans-20"/>
      <path d="M 9.8125 72.90625 
L 55.90625 72.90625 
L 55.90625 64.59375 
L 19.671875 64.59375 
L 19.671875 43.015625 
L 54.390625 43.015625 
L 54.390625 34.71875 
L 19.671875 34.71875 
L 19.671875 8.296875 
L 56.78125 8.296875 
L 56.78125 0 
L 9.8125 0 
z
" id="DejaVuSans-45"/>
      <path d="M 54.890625 33.015625 
L 54.890625 0 
L 45.90625 0 
L 45.90625 32.71875 
Q 45.90625 40.484375 42.875 44.328125 
Q 39.84375 48.1875 33.796875 48.1875 
Q 26.515625 48.1875 22.3125 43.546875 
Q 18.109375 38.921875 18.109375 30.90625 
L 18.109375 0 
L 9.078125 0 
L 9.078125 54.6875 
L 18.109375 54.6875 
L 18.109375 46.1875 
Q 21.34375 51.125 25.703125 53.5625 
Q 30.078125 56 35.796875 56 
Q 45.21875 56 50.046875 50.171875 
Q 54.890625 44.34375 54.890625 33.015625 
z
" id="DejaVuSans-6e"/>
      <path d="M 45.40625 27.984375 
Q 45.40625 37.75 41.375 43.109375 
Q 37.359375 48.484375 30.078125 48.484375 
Q 22.859375 48.484375 18.828125 43.109375 
Q 14.796875 37.75 14.796875 27.984375 
Q 14.796875 18.265625 18.828125 12.890625 
Q 22.859375 7.515625 30.078125 7.515625 
Q 37.359375 7.515625 41.375 12.890625 
Q 45.40625 18.265625 45.40625 27.984375 
z
M 54.390625 6.78125 
Q 54.390625 -7.171875 48.1875 -13.984375 
Q 42 -20.796875 29.203125 -20.796875 
Q 24.46875 -20.796875 20.265625 -20.09375 
Q 16.0625 -19.390625 12.109375 -17.921875 
L 12.109375 -9.1875 
Q 16.0625 -11.328125 19.921875 -12.34375 
Q 23.78125 -13.375 27.78125 -13.375 
Q 36.625 -13.375 41.015625 -8.765625 
Q 45.40625 -4.15625 45.40625 5.171875 
L 45.40625 9.625 
Q 42.625 4.78125 38.28125 2.390625 
Q 33.9375 0 27.875 0 
Q 17.828125 0 11.671875 7.65625 
Q 5.515625 15.328125 5.515625 27.984375 
Q 5.515625 40.671875 11.671875 48.328125 
Q 17.828125 56 27.875 56 
Q 33.9375 56 38.28125 53.609375 
Q 42.625 51.21875 45.40625 46.390625 
L 45.40625 54.6875 
L 54.390625 54.6875 
z
" id="DejaVuSans-67"/>
      <path d="M 32.171875 -5.078125 
Q 28.375 -14.84375 24.75 -17.8125 
Q 21.140625 -20.796875 15.09375 -20.796875 
L 7.90625 -20.796875 
L 7.90625 -13.28125 
L 13.1875 -13.28125 
Q 16.890625 -13.28125 18.9375 -11.515625 
Q 21 -9.765625 23.484375 -3.21875 
L 25.09375 0.875 
L 2.984375 54.6875 
L 12.5 54.6875 
L 29.59375 11.921875 
L 46.6875 54.6875 
L 56.203125 54.6875 
z
" id="DejaVuSans-79"/>
     </defs>
     <g transform="translate(234.148438 428.0975)scale(0.2 -0.2)">
      <use xlink:href="#DejaVuSans-54"/>
      <use x="60.865234" xlink:href="#DejaVuSans-72"/>
      <use x="101.978516" xlink:href="#DejaVuSans-75"/>
      <use x="165.357422" xlink:href="#DejaVuSans-65"/>
      <use x="226.880859" xlink:href="#DejaVuSans-20"/>
      <use x="258.667969" xlink:href="#DejaVuSans-45"/>
      <use x="321.851562" xlink:href="#DejaVuSans-6e"/>
      <use x="385.230469" xlink:href="#DejaVuSans-65"/>
      <use x="446.753906" xlink:href="#DejaVuSans-72"/>
      <use x="487.851562" xlink:href="#DejaVuSans-67"/>
      <use x="551.328125" xlink:href="#DejaVuSans-79"/>
     </g>
    </g>
   </g>
   <g id="matplotlib.axis_2">
    <g id="ytick_1">
     <g id="line2d_9">
      <path clip-path="url(#p677ce7e90f)" d="M 72 332.144303 
L 518.4 332.144303 
" style="fill:none;stroke:#b0b0b0;stroke-linecap:square;stroke-width:0.8;"/>
     </g>
     <g id="line2d_10">
      <defs>
       <path d="M 0 0 
L -3.5 0 
" id="m272c4cea9a" style="stroke:#000000;stroke-width:0.8;"/>
      </defs>
      <g>
       <use style="stroke:#000000;stroke-width:0.8;" x="72" xlink:href="#m272c4cea9a" y="332.144303"/>
      </g>
     </g>
     <g id="text_6">
      <!-- 1.5 -->
      <g transform="translate(36.374375 338.982897)scale(0.18 -0.18)">
       <use xlink:href="#DejaVuSans-31"/>
       <use x="63.623047" xlink:href="#DejaVuSans-2e"/>
       <use x="95.410156" xlink:href="#DejaVuSans-35"/>
      </g>
     </g>
    </g>
    <g id="ytick_2">
     <g id="line2d_11">
      <path clip-path="url(#p677ce7e90f)" d="M 72 258.439606 
L 518.4 258.439606 
" style="fill:none;stroke:#b0b0b0;stroke-linecap:square;stroke-width:0.8;"/>
     </g>
     <g id="line2d_12">
      <g>
       <use style="stroke:#000000;stroke-width:0.8;" x="72" xlink:href="#m272c4cea9a" y="258.439606"/>
      </g>
     </g>
     <g id="text_7">
      <!-- 2.0 -->
      <g transform="translate(36.374375 265.2782)scale(0.18 -0.18)">
       <use xlink:href="#DejaVuSans-32"/>
       <use x="63.623047" xlink:href="#DejaVuSans-2e"/>
       <use x="95.410156" xlink:href="#DejaVuSans-30"/>
      </g>
     </g>
    </g>
    <g id="ytick_3">
     <g id="line2d_13">
      <path clip-path="url(#p677ce7e90f)" d="M 72 184.734909 
L 518.4 184.734909 
" style="fill:none;stroke:#b0b0b0;stroke-linecap:square;stroke-width:0.8;"/>
     </g>
     <g id="line2d_14">
      <g>
       <use style="stroke:#000000;stroke-width:0.8;" x="72" xlink:href="#m272c4cea9a" y="184.734909"/>
      </g>
     </g>
     <g id="text_8">
      <!-- 2.5 -->
      <g transform="translate(36.374375 191.573502)scale(0.18 -0.18)">
       <use xlink:href="#DejaVuSans-32"/>
       <use x="63.623047" xlink:href="#DejaVuSans-2e"/>
       <use x="95.410156" xlink:href="#DejaVuSans-35"/>
      </g>
     </g>
    </g>
    <g id="ytick_4">
     <g id="line2d_15">
      <path clip-path="url(#p677ce7e90f)" d="M 72 111.030211 
L 518.4 111.030211 
" style="fill:none;stroke:#b0b0b0;stroke-linecap:square;stroke-width:0.8;"/>
     </g>
     <g id="line2d_16">
      <g>
       <use style="stroke:#000000;stroke-width:0.8;" x="72" xlink:href="#m272c4cea9a" y="111.030211"/>
      </g>
     </g>
     <g id="text_9">
      <!-- 3.0 -->
      <g transform="translate(36.374375 117.868805)scale(0.18 -0.18)">
       <use xlink:href="#DejaVuSans-33"/>
       <use x="63.623047" xlink:href="#DejaVuSans-2e"/>
       <use x="95.410156" xlink:href="#DejaVuSans-30"/>
      </g>
     </g>
    </g>
    <g id="text_10">
     <!-- Predicted Energy -->
     <defs>
      <path d="M 19.671875 64.796875 
L 19.671875 37.40625 
L 32.078125 37.40625 
Q 38.96875 37.40625 42.71875 40.96875 
Q 46.484375 44.53125 46.484375 51.125 
Q 46.484375 57.671875 42.71875 61.234375 
Q 38.96875 64.796875 32.078125 64.796875 
z
M 9.8125 72.90625 
L 32.078125 72.90625 
Q 44.34375 72.90625 50.609375 67.359375 
Q 56.890625 61.8125 56.890625 51.125 
Q 56.890625 40.328125 50.609375 34.8125 
Q 44.34375 29.296875 32.078125 29.296875 
L 19.671875 29.296875 
L 19.671875 0 
L 9.8125 0 
z
" id="DejaVuSans-50"/>
      <path d="M 45.40625 46.390625 
L 45.40625 75.984375 
L 54.390625 75.984375 
L 54.390625 0 
L 45.40625 0 
L 45.40625 8.203125 
Q 42.578125 3.328125 38.25 0.953125 
Q 33.9375 -1.421875 27.875 -1.421875 
Q 17.96875 -1.421875 11.734375 6.484375 
Q 5.515625 14.40625 5.515625 27.296875 
Q 5.515625 40.1875 11.734375 48.09375 
Q 17.96875 56 27.875 56 
Q 33.9375 56 38.25 53.625 
Q 42.578125 51.265625 45.40625 46.390625 
z
M 14.796875 27.296875 
Q 14.796875 17.390625 18.875 11.75 
Q 22.953125 6.109375 30.078125 6.109375 
Q 37.203125 6.109375 41.296875 11.75 
Q 45.40625 17.390625 45.40625 27.296875 
Q 45.40625 37.203125 41.296875 42.84375 
Q 37.203125 48.484375 30.078125 48.484375 
Q 22.953125 48.484375 18.875 42.84375 
Q 14.796875 37.203125 14.796875 27.296875 
z
" id="DejaVuSans-64"/>
      <path d="M 9.421875 54.6875 
L 18.40625 54.6875 
L 18.40625 0 
L 9.421875 0 
z
M 9.421875 75.984375 
L 18.40625 75.984375 
L 18.40625 64.59375 
L 9.421875 64.59375 
z
" id="DejaVuSans-69"/>
      <path d="M 48.78125 52.59375 
L 48.78125 44.1875 
Q 44.96875 46.296875 41.140625 47.34375 
Q 37.3125 48.390625 33.40625 48.390625 
Q 24.65625 48.390625 19.8125 42.84375 
Q 14.984375 37.3125 14.984375 27.296875 
Q 14.984375 17.28125 19.8125 11.734375 
Q 24.65625 6.203125 33.40625 6.203125 
Q 37.3125 6.203125 41.140625 7.25 
Q 44.96875 8.296875 48.78125 10.40625 
L 48.78125 2.09375 
Q 45.015625 0.34375 40.984375 -0.53125 
Q 36.96875 -1.421875 32.421875 -1.421875 
Q 20.0625 -1.421875 12.78125 6.34375 
Q 5.515625 14.109375 5.515625 27.296875 
Q 5.515625 40.671875 12.859375 48.328125 
Q 20.21875 56 33.015625 56 
Q 37.15625 56 41.109375 55.140625 
Q 45.0625 54.296875 48.78125 52.59375 
z
" id="DejaVuSans-63"/>
      <path d="M 18.3125 70.21875 
L 18.3125 54.6875 
L 36.8125 54.6875 
L 36.8125 47.703125 
L 18.3125 47.703125 
L 18.3125 18.015625 
Q 18.3125 11.328125 20.140625 9.421875 
Q 21.96875 7.515625 27.59375 7.515625 
L 36.8125 7.515625 
L 36.8125 0 
L 27.59375 0 
Q 17.1875 0 13.234375 3.875 
Q 9.28125 7.765625 9.28125 18.015625 
L 9.28125 47.703125 
L 2.6875 47.703125 
L 2.6875 54.6875 
L 9.28125 54.6875 
L 9.28125 70.21875 
z
" id="DejaVuSans-74"/>
     </defs>
     <g transform="translate(28.215 303.86)rotate(-90)scale(0.2 -0.2)">
      <use xlink:href="#DejaVuSans-50"/>
      <use x="60.287109" xlink:href="#DejaVuSans-72"/>
      <use x="101.369141" xlink:href="#DejaVuSans-65"/>
      <use x="162.892578" xlink:href="#DejaVuSans-64"/>
      <use x="226.369141" xlink:href="#DejaVuSans-69"/>
      <use x="254.152344" xlink:href="#DejaVuSans-63"/>
      <use x="309.132812" xlink:href="#DejaVuSans-74"/>
      <use x="348.341797" xlink:href="#DejaVuSans-65"/>
      <use x="409.865234" xlink:href="#DejaVuSans-64"/>
      <use x="473.341797" xlink:href="#DejaVuSans-20"/>
      <use x="505.128906" xlink:href="#DejaVuSans-45"/>
      <use x="568.3125" xlink:href="#DejaVuSans-6e"/>
      <use x="631.691406" xlink:href="#DejaVuSans-65"/>
      <use x="693.214844" xlink:href="#DejaVuSans-72"/>
      <use x="734.3125" xlink:href="#DejaVuSans-67"/>
      <use x="797.789062" xlink:href="#DejaVuSans-79"/>
     </g>
    </g>
   </g>
   <g id="line2d_17">
    <path clip-path="url(#p677ce7e90f)" d="M 346.161695 194.329602 
L 386.20282 166.723377 
L 386.20282 166.723377 
L 386.20282 166.723377 
L 138.534394 337.477578 
L 262.859402 251.7621 
L 262.859402 251.7621 
L 478.267454 103.24971 
L 478.267454 103.24971 
L 478.267454 103.24971 
L 105.98677 359.917433 
L 446.09491 125.430967 
L 446.09491 125.430967 
L 481.556212 100.982286 
L 447.182735 124.68097 
L 447.182735 124.68097 
L 145.02571 333.002161 
L 241.284255 266.637016 
L 241.284255 266.637016 
L 487.769302 96.698692 
L 274.027804 244.062081 
L 274.027804 244.062081 
L 138.870222 337.246042 
L 138.870222 337.246042 
L 138.870222 337.246042 
L 400.77804 156.674538 
L 192.974719 299.943871 
L 192.974719 299.943871 
L 99.7316 364.23004 
L 99.7316 364.23004 
L 99.7316 364.23004 
L 498.109091 89.569957 
L 122.813619 348.316216 
L 122.813619 348.316216 
L 97.425834 365.819742 
L 97.425834 365.819742 
L 97.425834 365.819742 
L 400.014013 157.201293 
L 187.793533 303.516022 
L 187.793533 303.516022 
L 92.290909 369.36 
L 92.290909 369.36 
L 92.290909 369.36 
L 426.081281 139.2293 
L 238.532909 268.533922 
" style="fill:none;opacity:0.5;stroke:#ff0000;stroke-dasharray:3.7,1.6;stroke-dashoffset:0;"/>
   </g>
   <g id="line2d_18">
    <defs>
     <path d="M 0 1 
C 0.265203 1 0.51958 0.894634 0.707107 0.707107 
C 0.894634 0.51958 1 0.265203 1 0 
C 1 -0.265203 0.894634 -0.51958 0.707107 -0.707107 
C 0.51958 -0.894634 0.265203 -1 0 -1 
C -0.265203 -1 -0.51958 -0.894634 -0.707107 -0.707107 
C -0.894634 -0.51958 -1 -0.265203 -1 0 
C -1 0.265203 -0.894634 0.51958 -0.707107 0.707107 
C -0.51958 0.894634 -0.265203 1 0 1 
z
" id="md43823d72e" style="stroke:#1f77b4;"/>
    </defs>
    <g clip-path="url(#p677ce7e90f)">
     <use style="fill:#1f77b4;stroke:#1f77b4;" x="346.161695" xlink:href="#md43823d72e" y="207.539851"/>
     <use style="fill:#1f77b4;stroke:#1f77b4;" x="386.20282" xlink:href="#md43823d72e" y="176.453203"/>
     <use style="fill:#1f77b4;stroke:#1f77b4;" x="138.534394" xlink:href="#md43823d72e" y="324.141439"/>
     <use style="fill:#1f77b4;stroke:#1f77b4;" x="262.859402" xlink:href="#md43823d72e" y="262.101729"/>
     <use style="fill:#1f77b4;stroke:#1f77b4;" x="424.650338" xlink:href="#md43823d72e" y="143.123522"/>
     <use style="fill:#1f77b4;stroke:#1f77b4;" x="343.433263" xlink:href="#md43823d72e" y="209.786644"/>
     <use style="fill:#1f77b4;stroke:#1f77b4;" x="435.96086" xlink:href="#md43823d72e" y="133.782682"/>
     <use style="fill:#1f77b4;stroke:#1f77b4;" x="443.199023" xlink:href="#md43823d72e" y="125.522098"/>
     <use style="fill:#1f77b4;stroke:#1f77b4;" x="478.267454" xlink:href="#md43823d72e" y="90.23051"/>
     <use style="fill:#1f77b4;stroke:#1f77b4;" x="192.160329" xlink:href="#md43823d72e" y="298.577955"/>
     <use style="fill:#1f77b4;stroke:#1f77b4;" x="194.076129" xlink:href="#md43823d72e" y="299.867254"/>
     <use style="fill:#1f77b4;stroke:#1f77b4;" x="146.075099" xlink:href="#md43823d72e" y="321.009691"/>
     <use style="fill:#1f77b4;stroke:#1f77b4;" x="336.650875" xlink:href="#md43823d72e" y="214.54498"/>
     <use style="fill:#1f77b4;stroke:#1f77b4;" x="229.95166" xlink:href="#md43823d72e" y="277.297152"/>
     <use style="fill:#1f77b4;stroke:#1f77b4;" x="444.170776" xlink:href="#md43823d72e" y="127.027821"/>
     <use style="fill:#1f77b4;stroke:#1f77b4;" x="361.017792" xlink:href="#md43823d72e" y="196.615266"/>
     <use style="fill:#1f77b4;stroke:#1f77b4;" x="470.203278" xlink:href="#md43823d72e" y="98.429449"/>
     <use style="fill:#1f77b4;stroke:#1f77b4;" x="236.483374" xlink:href="#md43823d72e" y="277.577083"/>
     <use style="fill:#1f77b4;stroke:#1f77b4;" x="401.596355" xlink:href="#md43823d72e" y="164.320117"/>
     <use style="fill:#1f77b4;stroke:#1f77b4;" x="168.727952" xlink:href="#md43823d72e" y="312.188437"/>
     <use style="fill:#1f77b4;stroke:#1f77b4;" x="265.672301" xlink:href="#md43823d72e" y="261.0873"/>
     <use style="fill:#1f77b4;stroke:#1f77b4;" x="289.869315" xlink:href="#md43823d72e" y="247.021407"/>
     <use style="fill:#1f77b4;stroke:#1f77b4;" x="382.431167" xlink:href="#md43823d72e" y="179.578379"/>
     <use style="fill:#1f77b4;stroke:#1f77b4;" x="310.015278" xlink:href="#md43823d72e" y="235.357017"/>
     <use style="fill:#1f77b4;stroke:#1f77b4;" x="348.291925" xlink:href="#md43823d72e" y="206.214985"/>
     <use style="fill:#1f77b4;stroke:#1f77b4;" x="139.021264" xlink:href="#md43823d72e" y="322.087206"/>
     <use style="fill:#1f77b4;stroke:#1f77b4;" x="165.047649" xlink:href="#md43823d72e" y="313.28008"/>
     <use style="fill:#1f77b4;stroke:#1f77b4;" x="453.994027" xlink:href="#md43823d72e" y="116.626512"/>
     <use style="fill:#1f77b4;stroke:#1f77b4;" x="366.980488" xlink:href="#md43823d72e" y="192.506834"/>
     <use style="fill:#1f77b4;stroke:#1f77b4;" x="367.17231" xlink:href="#md43823d72e" y="192.521455"/>
     <use style="fill:#1f77b4;stroke:#1f77b4;" x="341.269542" xlink:href="#md43823d72e" y="212.805331"/>
     <use style="fill:#1f77b4;stroke:#1f77b4;" x="275.797431" xlink:href="#md43823d72e" y="252.760327"/>
     <use style="fill:#1f77b4;stroke:#1f77b4;" x="105.98677" xlink:href="#md43823d72e" y="333.536719"/>
     <use style="fill:#1f77b4;stroke:#1f77b4;" x="110.127564" xlink:href="#md43823d72e" y="333.765654"/>
     <use style="fill:#1f77b4;stroke:#1f77b4;" x="387.193332" xlink:href="#md43823d72e" y="178.740308"/>
     <use style="fill:#1f77b4;stroke:#1f77b4;" x="268.464095" xlink:href="#md43823d72e" y="258.085062"/>
     <use style="fill:#1f77b4;stroke:#1f77b4;" x="381.910092" xlink:href="#md43823d72e" y="181.122269"/>
     <use style="fill:#1f77b4;stroke:#1f77b4;" x="144.765682" xlink:href="#md43823d72e" y="321.311904"/>
     <use style="fill:#1f77b4;stroke:#1f77b4;" x="326.826197" xlink:href="#md43823d72e" y="221.636531"/>
     <use style="fill:#1f77b4;stroke:#1f77b4;" x="226.17598" xlink:href="#md43823d72e" y="282.345189"/>
     <use style="fill:#1f77b4;stroke:#1f77b4;" x="124.515065" xlink:href="#md43823d72e" y="327.012024"/>
     <use style="fill:#1f77b4;stroke:#1f77b4;" x="175.299708" xlink:href="#md43823d72e" y="308.799989"/>
     <use style="fill:#1f77b4;stroke:#1f77b4;" x="277.7939" xlink:href="#md43823d72e" y="252.552655"/>
     <use style="fill:#1f77b4;stroke:#1f77b4;" x="311.795406" xlink:href="#md43823d72e" y="231.866578"/>
     <use style="fill:#1f77b4;stroke:#1f77b4;" x="472.774551" xlink:href="#md43823d72e" y="100.161858"/>
     <use style="fill:#1f77b4;stroke:#1f77b4;" x="154.408504" xlink:href="#md43823d72e" y="315.811092"/>
     <use style="fill:#1f77b4;stroke:#1f77b4;" x="354.219397" xlink:href="#md43823d72e" y="201.658277"/>
     <use style="fill:#1f77b4;stroke:#1f77b4;" x="222.590033" xlink:href="#md43823d72e" y="283.990965"/>
     <use style="fill:#1f77b4;stroke:#1f77b4;" x="161.710514" xlink:href="#md43823d72e" y="314.665607"/>
     <use style="fill:#1f77b4;stroke:#1f77b4;" x="235.342127" xlink:href="#md43823d72e" y="275.145847"/>
     <use style="fill:#1f77b4;stroke:#1f77b4;" x="284.178218" xlink:href="#md43823d72e" y="248.087184"/>
     <use style="fill:#1f77b4;stroke:#1f77b4;" x="353.826832" xlink:href="#md43823d72e" y="206.195444"/>
     <use style="fill:#1f77b4;stroke:#1f77b4;" x="259.845557" xlink:href="#md43823d72e" y="263.66987"/>
     <use style="fill:#1f77b4;stroke:#1f77b4;" x="446.09491" xlink:href="#md43823d72e" y="122.180674"/>
     <use style="fill:#1f77b4;stroke:#1f77b4;" x="481.556212" xlink:href="#md43823d72e" y="85.897958"/>
     <use style="fill:#1f77b4;stroke:#1f77b4;" x="447.182735" xlink:href="#md43823d72e" y="126.307838"/>
     <use style="fill:#1f77b4;stroke:#1f77b4;" x="145.02571" xlink:href="#md43823d72e" y="321.427584"/>
     <use style="fill:#1f77b4;stroke:#1f77b4;" x="271.057696" xlink:href="#md43823d72e" y="256.443186"/>
     <use style="fill:#1f77b4;stroke:#1f77b4;" x="323.272976" xlink:href="#md43823d72e" y="226.330059"/>
     <use style="fill:#1f77b4;stroke:#1f77b4;" x="244.780459" xlink:href="#md43823d72e" y="272.253332"/>
     <use style="fill:#1f77b4;stroke:#1f77b4;" x="198.732339" xlink:href="#md43823d72e" y="297.34313"/>
     <use style="fill:#1f77b4;stroke:#1f77b4;" x="446.505113" xlink:href="#md43823d72e" y="122.506083"/>
     <use style="fill:#1f77b4;stroke:#1f77b4;" x="305.440297" xlink:href="#md43823d72e" y="236.2574"/>
     <use style="fill:#1f77b4;stroke:#1f77b4;" x="241.284255" xlink:href="#md43823d72e" y="271.888596"/>
     <use style="fill:#1f77b4;stroke:#1f77b4;" x="487.769302" xlink:href="#md43823d72e" y="79.653159"/>
     <use style="fill:#1f77b4;stroke:#1f77b4;" x="349.781898" xlink:href="#md43823d72e" y="205.414449"/>
     <use style="fill:#1f77b4;stroke:#1f77b4;" x="274.027804" xlink:href="#md43823d72e" y="254.541764"/>
     <use style="fill:#1f77b4;stroke:#1f77b4;" x="138.870222" xlink:href="#md43823d72e" y="322.53557"/>
     <use style="fill:#1f77b4;stroke:#1f77b4;" x="397.621819" xlink:href="#md43823d72e" y="169.364147"/>
     <use style="fill:#1f77b4;stroke:#1f77b4;" x="319.119871" xlink:href="#md43823d72e" y="226.274424"/>
     <use style="fill:#1f77b4;stroke:#1f77b4;" x="400.77804" xlink:href="#md43823d72e" y="164.153564"/>
     <use style="fill:#1f77b4;stroke:#1f77b4;" x="255.784412" xlink:href="#md43823d72e" y="265.892695"/>
     <use style="fill:#1f77b4;stroke:#1f77b4;" x="211.81231" xlink:href="#md43823d72e" y="290.067981"/>
     <use style="fill:#1f77b4;stroke:#1f77b4;" x="173.883752" xlink:href="#md43823d72e" y="309.156993"/>
     <use style="fill:#1f77b4;stroke:#1f77b4;" x="280.065741" xlink:href="#md43823d72e" y="253.34451"/>
     <use style="fill:#1f77b4;stroke:#1f77b4;" x="192.974719" xlink:href="#md43823d72e" y="300.362519"/>
     <use style="fill:#1f77b4;stroke:#1f77b4;" x="99.7316" xlink:href="#md43823d72e" y="334.698195"/>
     <use style="fill:#1f77b4;stroke:#1f77b4;" x="292.524545" xlink:href="#md43823d72e" y="242.989909"/>
     <use style="fill:#1f77b4;stroke:#1f77b4;" x="484.446543" xlink:href="#md43823d72e" y="83.645154"/>
     <use style="fill:#1f77b4;stroke:#1f77b4;" x="386.126305" xlink:href="#md43823d72e" y="177.500668"/>
     <use style="fill:#1f77b4;stroke:#1f77b4;" x="396.42929" xlink:href="#md43823d72e" y="168.862099"/>
     <use style="fill:#1f77b4;stroke:#1f77b4;" x="275.808594" xlink:href="#md43823d72e" y="255.195288"/>
     <use style="fill:#1f77b4;stroke:#1f77b4;" x="232.313345" xlink:href="#md43823d72e" y="279.208169"/>
     <use style="fill:#1f77b4;stroke:#1f77b4;" x="349.461311" xlink:href="#md43823d72e" y="209.291836"/>
     <use style="fill:#1f77b4;stroke:#1f77b4;" x="252.736847" xlink:href="#md43823d72e" y="265.671913"/>
     <use style="fill:#1f77b4;stroke:#1f77b4;" x="395.751515" xlink:href="#md43823d72e" y="174.47411"/>
     <use style="fill:#1f77b4;stroke:#1f77b4;" x="307.620534" xlink:href="#md43823d72e" y="234.052957"/>
     <use style="fill:#1f77b4;stroke:#1f77b4;" x="377.391694" xlink:href="#md43823d72e" y="184.357485"/>
     <use style="fill:#1f77b4;stroke:#1f77b4;" x="497.240157" xlink:href="#md43823d72e" y="77.776619"/>
     <use style="fill:#1f77b4;stroke:#1f77b4;" x="280.284784" xlink:href="#md43823d72e" y="252.683008"/>
     <use style="fill:#1f77b4;stroke:#1f77b4;" x="280.884311" xlink:href="#md43823d72e" y="253.069288"/>
     <use style="fill:#1f77b4;stroke:#1f77b4;" x="379.612407" xlink:href="#md43823d72e" y="183.653141"/>
     <use style="fill:#1f77b4;stroke:#1f77b4;" x="498.109091" xlink:href="#md43823d72e" y="66.96"/>
     <use style="fill:#1f77b4;stroke:#1f77b4;" x="264.845421" xlink:href="#md43823d72e" y="260.600821"/>
     <use style="fill:#1f77b4;stroke:#1f77b4;" x="298.484081" xlink:href="#md43823d72e" y="240.531576"/>
     <use style="fill:#1f77b4;stroke:#1f77b4;" x="114.044651" xlink:href="#md43823d72e" y="331.91224"/>
     <use style="fill:#1f77b4;stroke:#1f77b4;" x="141.498512" xlink:href="#md43823d72e" y="322.327141"/>
     <use style="fill:#1f77b4;stroke:#1f77b4;" x="256.645497" xlink:href="#md43823d72e" y="264.487381"/>
     <use style="fill:#1f77b4;stroke:#1f77b4;" x="135.93019" xlink:href="#md43823d72e" y="324.877238"/>
     <use style="fill:#1f77b4;stroke:#1f77b4;" x="229.390772" xlink:href="#md43823d72e" y="277.539864"/>
     <use style="fill:#1f77b4;stroke:#1f77b4;" x="420.891021" xlink:href="#md43823d72e" y="148.692234"/>
     <use style="fill:#1f77b4;stroke:#1f77b4;" x="375.198611" xlink:href="#md43823d72e" y="186.295669"/>
     <use style="fill:#1f77b4;stroke:#1f77b4;" x="392.644281" xlink:href="#md43823d72e" y="171.951813"/>
     <use style="fill:#1f77b4;stroke:#1f77b4;" x="257.870191" xlink:href="#md43823d72e" y="264.775853"/>
     <use style="fill:#1f77b4;stroke:#1f77b4;" x="185.351892" xlink:href="#md43823d72e" y="300.478042"/>
     <use style="fill:#1f77b4;stroke:#1f77b4;" x="457.668876" xlink:href="#md43823d72e" y="110.806618"/>
     <use style="fill:#1f77b4;stroke:#1f77b4;" x="367.616667" xlink:href="#md43823d72e" y="195.244359"/>
     <use style="fill:#1f77b4;stroke:#1f77b4;" x="407.450881" xlink:href="#md43823d72e" y="159.215567"/>
     <use style="fill:#1f77b4;stroke:#1f77b4;" x="177.822936" xlink:href="#md43823d72e" y="302.987404"/>
     <use style="fill:#1f77b4;stroke:#1f77b4;" x="250.048304" xlink:href="#md43823d72e" y="267.094905"/>
     <use style="fill:#1f77b4;stroke:#1f77b4;" x="271.705752" xlink:href="#md43823d72e" y="256.94158"/>
     <use style="fill:#1f77b4;stroke:#1f77b4;" x="491.801849" xlink:href="#md43823d72e" y="79.114489"/>
     <use style="fill:#1f77b4;stroke:#1f77b4;" x="238.958201" xlink:href="#md43823d72e" y="276.547963"/>
     <use style="fill:#1f77b4;stroke:#1f77b4;" x="496.142952" xlink:href="#md43823d72e" y="68.872809"/>
     <use style="fill:#1f77b4;stroke:#1f77b4;" x="345.579958" xlink:href="#md43823d72e" y="208.520084"/>
     <use style="fill:#1f77b4;stroke:#1f77b4;" x="419.780105" xlink:href="#md43823d72e" y="147.490094"/>
     <use style="fill:#1f77b4;stroke:#1f77b4;" x="334.180636" xlink:href="#md43823d72e" y="217.573261"/>
     <use style="fill:#1f77b4;stroke:#1f77b4;" x="369.45195" xlink:href="#md43823d72e" y="189.959901"/>
     <use style="fill:#1f77b4;stroke:#1f77b4;" x="225.33758" xlink:href="#md43823d72e" y="281.942179"/>
     <use style="fill:#1f77b4;stroke:#1f77b4;" x="108.630735" xlink:href="#md43823d72e" y="333.930379"/>
     <use style="fill:#1f77b4;stroke:#1f77b4;" x="367.076476" xlink:href="#md43823d72e" y="192.127829"/>
     <use style="fill:#1f77b4;stroke:#1f77b4;" x="166.186296" xlink:href="#md43823d72e" y="310.82115"/>
     <use style="fill:#1f77b4;stroke:#1f77b4;" x="175.559354" xlink:href="#md43823d72e" y="304.503741"/>
     <use style="fill:#1f77b4;stroke:#1f77b4;" x="283.950814" xlink:href="#md43823d72e" y="249.574596"/>
     <use style="fill:#1f77b4;stroke:#1f77b4;" x="235.10333" xlink:href="#md43823d72e" y="275.540422"/>
     <use style="fill:#1f77b4;stroke:#1f77b4;" x="375.751597" xlink:href="#md43823d72e" y="185.847498"/>
     <use style="fill:#1f77b4;stroke:#1f77b4;" x="285.533258" xlink:href="#md43823d72e" y="247.434257"/>
     <use style="fill:#1f77b4;stroke:#1f77b4;" x="283.074132" xlink:href="#md43823d72e" y="248.784041"/>
     <use style="fill:#1f77b4;stroke:#1f77b4;" x="363.884419" xlink:href="#md43823d72e" y="195.057036"/>
     <use style="fill:#1f77b4;stroke:#1f77b4;" x="284.426164" xlink:href="#md43823d72e" y="248.088379"/>
     <use style="fill:#1f77b4;stroke:#1f77b4;" x="408.010545" xlink:href="#md43823d72e" y="158.721988"/>
     <use style="fill:#1f77b4;stroke:#1f77b4;" x="150.06559" xlink:href="#md43823d72e" y="319.345446"/>
     <use style="fill:#1f77b4;stroke:#1f77b4;" x="473.045232" xlink:href="#md43823d72e" y="101.097773"/>
     <use style="fill:#1f77b4;stroke:#1f77b4;" x="423.370895" xlink:href="#md43823d72e" y="144.865174"/>
     <use style="fill:#1f77b4;stroke:#1f77b4;" x="360.246374" xlink:href="#md43823d72e" y="197.886993"/>
     <use style="fill:#1f77b4;stroke:#1f77b4;" x="344.320294" xlink:href="#md43823d72e" y="211.877815"/>
     <use style="fill:#1f77b4;stroke:#1f77b4;" x="135.801119" xlink:href="#md43823d72e" y="324.498443"/>
     <use style="fill:#1f77b4;stroke:#1f77b4;" x="323.092063" xlink:href="#md43823d72e" y="224.17278"/>
     <use style="fill:#1f77b4;stroke:#1f77b4;" x="197.105802" xlink:href="#md43823d72e" y="298.512585"/>
     <use style="fill:#1f77b4;stroke:#1f77b4;" x="211.855843" xlink:href="#md43823d72e" y="288.092403"/>
     <use style="fill:#1f77b4;stroke:#1f77b4;" x="277.509811" xlink:href="#md43823d72e" y="251.895511"/>
     <use style="fill:#1f77b4;stroke:#1f77b4;" x="416.174531" xlink:href="#md43823d72e" y="150.473846"/>
     <use style="fill:#1f77b4;stroke:#1f77b4;" x="312.766241" xlink:href="#md43823d72e" y="231.84289"/>
     <use style="fill:#1f77b4;stroke:#1f77b4;" x="274.231758" xlink:href="#md43823d72e" y="254.684313"/>
     <use style="fill:#1f77b4;stroke:#1f77b4;" x="427.612595" xlink:href="#md43823d72e" y="140.925755"/>
     <use style="fill:#1f77b4;stroke:#1f77b4;" x="227.581639" xlink:href="#md43823d72e" y="280.761127"/>
     <use style="fill:#1f77b4;stroke:#1f77b4;" x="139.545933" xlink:href="#md43823d72e" y="319.956286"/>
     <use style="fill:#1f77b4;stroke:#1f77b4;" x="403.622492" xlink:href="#md43823d72e" y="161.626593"/>
     <use style="fill:#1f77b4;stroke:#1f77b4;" x="372.485676" xlink:href="#md43823d72e" y="193.296791"/>
     <use style="fill:#1f77b4;stroke:#1f77b4;" x="438.014524" xlink:href="#md43823d72e" y="131.483592"/>
     <use style="fill:#1f77b4;stroke:#1f77b4;" x="359.911412" xlink:href="#md43823d72e" y="197.533608"/>
     <use style="fill:#1f77b4;stroke:#1f77b4;" x="270.724416" xlink:href="#md43823d72e" y="257.236658"/>
     <use style="fill:#1f77b4;stroke:#1f77b4;" x="111.484465" xlink:href="#md43823d72e" y="332.878591"/>
     <use style="fill:#1f77b4;stroke:#1f77b4;" x="354.769019" xlink:href="#md43823d72e" y="202.418396"/>
     <use style="fill:#1f77b4;stroke:#1f77b4;" x="220.896131" xlink:href="#md43823d72e" y="286.207428"/>
     <use style="fill:#1f77b4;stroke:#1f77b4;" x="485.167596" xlink:href="#md43823d72e" y="82.51573"/>
     <use style="fill:#1f77b4;stroke:#1f77b4;" x="494.494342" xlink:href="#md43823d72e" y="72.159723"/>
     <use style="fill:#1f77b4;stroke:#1f77b4;" x="470.228715" xlink:href="#md43823d72e" y="97.616472"/>
     <use style="fill:#1f77b4;stroke:#1f77b4;" x="349.849594" xlink:href="#md43823d72e" y="204.984764"/>
     <use style="fill:#1f77b4;stroke:#1f77b4;" x="150.979638" xlink:href="#md43823d72e" y="319.39312"/>
     <use style="fill:#1f77b4;stroke:#1f77b4;" x="120.817761" xlink:href="#md43823d72e" y="329.902852"/>
     <use style="fill:#1f77b4;stroke:#1f77b4;" x="180.442764" xlink:href="#md43823d72e" y="303.90297"/>
     <use style="fill:#1f77b4;stroke:#1f77b4;" x="190.488473" xlink:href="#md43823d72e" y="300.819652"/>
     <use style="fill:#1f77b4;stroke:#1f77b4;" x="226.239292" xlink:href="#md43823d72e" y="279.718335"/>
     <use style="fill:#1f77b4;stroke:#1f77b4;" x="398.154465" xlink:href="#md43823d72e" y="167.758225"/>
     <use style="fill:#1f77b4;stroke:#1f77b4;" x="238.896826" xlink:href="#md43823d72e" y="274.087838"/>
     <use style="fill:#1f77b4;stroke:#1f77b4;" x="206.440143" xlink:href="#md43823d72e" y="292.116943"/>
     <use style="fill:#1f77b4;stroke:#1f77b4;" x="493.436389" xlink:href="#md43823d72e" y="74.431083"/>
     <use style="fill:#1f77b4;stroke:#1f77b4;" x="300.424069" xlink:href="#md43823d72e" y="238.899296"/>
     <use style="fill:#1f77b4;stroke:#1f77b4;" x="337.853089" xlink:href="#md43823d72e" y="214.829234"/>
     <use style="fill:#1f77b4;stroke:#1f77b4;" x="415.66095" xlink:href="#md43823d72e" y="151.709057"/>
     <use style="fill:#1f77b4;stroke:#1f77b4;" x="217.460333" xlink:href="#md43823d72e" y="287.561817"/>
     <use style="fill:#1f77b4;stroke:#1f77b4;" x="378.703201" xlink:href="#md43823d72e" y="183.047977"/>
     <use style="fill:#1f77b4;stroke:#1f77b4;" x="394.262969" xlink:href="#md43823d72e" y="175.334709"/>
     <use style="fill:#1f77b4;stroke:#1f77b4;" x="399.331345" xlink:href="#md43823d72e" y="165.989054"/>
     <use style="fill:#1f77b4;stroke:#1f77b4;" x="402.701104" xlink:href="#md43823d72e" y="162.49865"/>
     <use style="fill:#1f77b4;stroke:#1f77b4;" x="297.889805" xlink:href="#md43823d72e" y="240.568584"/>
     <use style="fill:#1f77b4;stroke:#1f77b4;" x="346.020288" xlink:href="#md43823d72e" y="209.26502"/>
     <use style="fill:#1f77b4;stroke:#1f77b4;" x="150.547057" xlink:href="#md43823d72e" y="318.116227"/>
     <use style="fill:#1f77b4;stroke:#1f77b4;" x="122.813619" xlink:href="#md43823d72e" y="329.357101"/>
     <use style="fill:#1f77b4;stroke:#1f77b4;" x="97.425834" xlink:href="#md43823d72e" y="336.986495"/>
     <use style="fill:#1f77b4;stroke:#1f77b4;" x="400.014013" xlink:href="#md43823d72e" y="165.019927"/>
     <use style="fill:#1f77b4;stroke:#1f77b4;" x="187.793533" xlink:href="#md43823d72e" y="302.884464"/>
     <use style="fill:#1f77b4;stroke:#1f77b4;" x="92.290909" xlink:href="#md43823d72e" y="338.649774"/>
     <use style="fill:#1f77b4;stroke:#1f77b4;" x="426.081281" xlink:href="#md43823d72e" y="143.942263"/>
     <use style="fill:#1f77b4;stroke:#1f77b4;" x="418.653181" xlink:href="#md43823d72e" y="148.181961"/>
     <use style="fill:#1f77b4;stroke:#1f77b4;" x="366.51151" xlink:href="#md43823d72e" y="193.736527"/>
     <use style="fill:#1f77b4;stroke:#1f77b4;" x="237.322921" xlink:href="#md43823d72e" y="277.062769"/>
     <use style="fill:#1f77b4;stroke:#1f77b4;" x="256.373948" xlink:href="#md43823d72e" y="263.357325"/>
     <use style="fill:#1f77b4;stroke:#1f77b4;" x="411.03535" xlink:href="#md43823d72e" y="155.069214"/>
     <use style="fill:#1f77b4;stroke:#1f77b4;" x="323.749192" xlink:href="#md43823d72e" y="223.783793"/>
     <use style="fill:#1f77b4;stroke:#1f77b4;" x="176.741382" xlink:href="#md43823d72e" y="308.073293"/>
     <use style="fill:#1f77b4;stroke:#1f77b4;" x="394.982901" xlink:href="#md43823d72e" y="174.921859"/>
     <use style="fill:#1f77b4;stroke:#1f77b4;" x="104.015126" xlink:href="#md43823d72e" y="335.04079"/>
     <use style="fill:#1f77b4;stroke:#1f77b4;" x="122.482429" xlink:href="#md43823d72e" y="329.509191"/>
     <use style="fill:#1f77b4;stroke:#1f77b4;" x="319.578093" xlink:href="#md43823d72e" y="226.466387"/>
     <use style="fill:#1f77b4;stroke:#1f77b4;" x="158.234241" xlink:href="#md43823d72e" y="315.382849"/>
     <use style="fill:#1f77b4;stroke:#1f77b4;" x="359.440701" xlink:href="#md43823d72e" y="201.174961"/>
     <use style="fill:#1f77b4;stroke:#1f77b4;" x="248.326339" xlink:href="#md43823d72e" y="271.317312"/>
     <use style="fill:#1f77b4;stroke:#1f77b4;" x="238.532909" xlink:href="#md43823d72e" y="275.239755"/>
    </g>
   </g>
   <g id="patch_3">
    <path d="M 72 384.48 
L 72 51.84 
" style="fill:none;stroke:#000000;stroke-linecap:square;stroke-linejoin:miter;stroke-width:0.8;"/>
   </g>
   <g id="patch_4">
    <path d="M 518.4 384.48 
L 518.4 51.84 
" style="fill:none;stroke:#000000;stroke-linecap:square;stroke-linejoin:miter;stroke-width:0.8;"/>
   </g>
   <g id="patch_5">
    <path d="M 72 384.48 
L 518.4 384.48 
" style="fill:none;stroke:#000000;stroke-linecap:square;stroke-linejoin:miter;stroke-width:0.8;"/>
   </g>
   <g id="patch_6">
    <path d="M 72 51.84 
L 518.4 51.84 
" style="fill:none;stroke:#000000;stroke-linecap:square;stroke-linejoin:miter;stroke-width:0.8;"/>
   </g>
  </g>
  <g id="axes_2">
   <g id="patch_7">
    <path d="M 374.4 345.6 
L 489.6 345.6 
L 489.6 259.2 
L 374.4 259.2 
z
" style="fill:#ffffff;"/>
   </g>
   <g id="patch_8">
    <path clip-path="url(#p8d3b2d5347)" d="M 379.636364 345.6 
L 384.872727 345.6 
L 384.872727 339.859136 
L 379.636364 339.859136 
z
" style="fill:#1f77b4;"/>
   </g>
   <g id="patch_9">
    <path clip-path="url(#p8d3b2d5347)" d="M 384.872727 345.6 
L 390.109091 345.6 
L 390.109091 341.772757 
L 384.872727 341.772757 
z
" style="fill:#1f77b4;"/>
   </g>
   <g id="patch_10">
    <path clip-path="url(#p8d3b2d5347)" d="M 390.109091 345.6 
L 395.345455 345.6 
L 395.345455 334.118272 
L 390.109091 334.118272 
z
" style="fill:#1f77b4;"/>
   </g>
   <g id="patch_11">
    <path clip-path="url(#p8d3b2d5347)" d="M 395.345455 345.6 
L 400.581818 345.6 
L 400.581818 336.031894 
L 395.345455 336.031894 
z
" style="fill:#1f77b4;"/>
   </g>
   <g id="patch_12">
    <path clip-path="url(#p8d3b2d5347)" d="M 400.581818 345.6 
L 405.818182 345.6 
L 405.818182 337.945515 
L 400.581818 337.945515 
z
" style="fill:#1f77b4;"/>
   </g>
   <g id="patch_13">
    <path clip-path="url(#p8d3b2d5347)" d="M 405.818182 345.6 
L 411.054545 345.6 
L 411.054545 324.550166 
L 405.818182 324.550166 
z
" style="fill:#1f77b4;"/>
   </g>
   <g id="patch_14">
    <path clip-path="url(#p8d3b2d5347)" d="M 411.054545 345.6 
L 416.290909 345.6 
L 416.290909 328.377409 
L 411.054545 328.377409 
z
" style="fill:#1f77b4;"/>
   </g>
   <g id="patch_15">
    <path clip-path="url(#p8d3b2d5347)" d="M 416.290909 345.6 
L 421.527273 345.6 
L 421.527273 332.204651 
L 416.290909 332.204651 
z
" style="fill:#1f77b4;"/>
   </g>
   <g id="patch_16">
    <path clip-path="url(#p8d3b2d5347)" d="M 421.527273 345.6 
L 426.763636 345.6 
L 426.763636 328.377409 
L 421.527273 328.377409 
z
" style="fill:#1f77b4;"/>
   </g>
   <g id="patch_17">
    <path clip-path="url(#p8d3b2d5347)" d="M 426.763636 345.6 
L 432 345.6 
L 432 334.118272 
L 426.763636 334.118272 
z
" style="fill:#1f77b4;"/>
   </g>
   <g id="patch_18">
    <path clip-path="url(#p8d3b2d5347)" d="M 432 345.6 
L 437.236364 345.6 
L 437.236364 316.895681 
L 432 316.895681 
z
" style="fill:#1f77b4;"/>
   </g>
   <g id="patch_19">
    <path clip-path="url(#p8d3b2d5347)" d="M 437.236364 345.6 
L 442.472727 345.6 
L 442.472727 309.241196 
L 437.236364 309.241196 
z
" style="fill:#1f77b4;"/>
   </g>
   <g id="patch_20">
    <path clip-path="url(#p8d3b2d5347)" d="M 442.472727 345.6 
L 447.709091 345.6 
L 447.709091 309.241196 
L 442.472727 309.241196 
z
" style="fill:#1f77b4;"/>
   </g>
   <g id="patch_21">
    <path clip-path="url(#p8d3b2d5347)" d="M 447.709091 345.6 
L 452.945455 345.6 
L 452.945455 280.536877 
L 447.709091 280.536877 
z
" style="fill:#1f77b4;"/>
   </g>
   <g id="patch_22">
    <path clip-path="url(#p8d3b2d5347)" d="M 452.945455 345.6 
L 458.181818 345.6 
L 458.181818 263.314286 
L 452.945455 263.314286 
z
" style="fill:#1f77b4;"/>
   </g>
   <g id="patch_23">
    <path clip-path="url(#p8d3b2d5347)" d="M 458.181818 345.6 
L 463.418182 345.6 
L 463.418182 330.29103 
L 458.181818 330.29103 
z
" style="fill:#1f77b4;"/>
   </g>
   <g id="patch_24">
    <path clip-path="url(#p8d3b2d5347)" d="M 463.418182 345.6 
L 468.654545 345.6 
L 468.654545 345.6 
L 463.418182 345.6 
z
" style="fill:#1f77b4;"/>
   </g>
   <g id="patch_25">
    <path clip-path="url(#p8d3b2d5347)" d="M 468.654545 345.6 
L 473.890909 345.6 
L 473.890909 345.6 
L 468.654545 345.6 
z
" style="fill:#1f77b4;"/>
   </g>
   <g id="patch_26">
    <path clip-path="url(#p8d3b2d5347)" d="M 473.890909 345.6 
L 479.127273 345.6 
L 479.127273 345.6 
L 473.890909 345.6 
z
" style="fill:#1f77b4;"/>
   </g>
   <g id="patch_27">
    <path clip-path="url(#p8d3b2d5347)" d="M 479.127273 345.6 
L 484.363636 345.6 
L 484.363636 345.6 
L 479.127273 345.6 
z
" style="fill:#1f77b4;"/>
   </g>
   <g id="matplotlib.axis_3">
    <g id="xtick_5">
     <g id="line2d_19">
      <g>
       <use style="stroke:#000000;stroke-width:0.8;" x="381.730804" xlink:href="#md413369b03" y="345.6"/>
      </g>
     </g>
     <g id="text_11">
      <!-- −0.2 -->
      <defs>
       <path d="M 10.59375 35.5 
L 73.1875 35.5 
L 73.1875 27.203125 
L 10.59375 27.203125 
z
" id="DejaVuSans-2212"/>
      </defs>
      <g transform="translate(367.161116 361.718125)scale(0.12 -0.12)">
       <use xlink:href="#DejaVuSans-2212"/>
       <use x="83.789062" xlink:href="#DejaVuSans-30"/>
       <use x="147.412109" xlink:href="#DejaVuSans-2e"/>
       <use x="179.199219" xlink:href="#DejaVuSans-32"/>
      </g>
     </g>
    </g>
    <g id="xtick_6">
     <g id="line2d_20">
      <g>
       <use style="stroke:#000000;stroke-width:0.8;" x="432" xlink:href="#md413369b03" y="345.6"/>
      </g>
     </g>
     <g id="text_12">
      <!-- 0.0 -->
      <g transform="translate(422.458125 361.718125)scale(0.12 -0.12)">
       <use xlink:href="#DejaVuSans-30"/>
       <use x="63.623047" xlink:href="#DejaVuSans-2e"/>
       <use x="95.410156" xlink:href="#DejaVuSans-30"/>
      </g>
     </g>
    </g>
    <g id="xtick_7">
     <g id="line2d_21">
      <g>
       <use style="stroke:#000000;stroke-width:0.8;" x="482.269196" xlink:href="#md413369b03" y="345.6"/>
      </g>
     </g>
     <g id="text_13">
      <!-- 0.2 -->
      <g transform="translate(472.727321 361.718125)scale(0.12 -0.12)">
       <use xlink:href="#DejaVuSans-30"/>
       <use x="63.623047" xlink:href="#DejaVuSans-2e"/>
       <use x="95.410156" xlink:href="#DejaVuSans-32"/>
      </g>
     </g>
    </g>
   </g>
   <g id="matplotlib.axis_4">
    <g id="ytick_5">
     <g id="line2d_22">
      <g>
       <use style="stroke:#000000;stroke-width:0.8;" x="374.4" xlink:href="#m272c4cea9a" y="345.6"/>
      </g>
     </g>
     <g id="text_14">
      <!-- 0 -->
      <g transform="translate(359.765 350.159063)scale(0.12 -0.12)">
       <use xlink:href="#DejaVuSans-30"/>
      </g>
     </g>
    </g>
    <g id="ytick_6">
     <g id="line2d_23">
      <g>
       <use style="stroke:#000000;stroke-width:0.8;" x="374.4" xlink:href="#m272c4cea9a" y="307.327575"/>
      </g>
     </g>
     <g id="text_15">
      <!-- 20 -->
      <g transform="translate(352.13 311.886637)scale(0.12 -0.12)">
       <use xlink:href="#DejaVuSans-32"/>
       <use x="63.623047" xlink:href="#DejaVuSans-30"/>
      </g>
     </g>
    </g>
    <g id="ytick_7">
     <g id="line2d_24">
      <g>
       <use style="stroke:#000000;stroke-width:0.8;" x="374.4" xlink:href="#m272c4cea9a" y="269.05515"/>
      </g>
     </g>
     <g id="text_16">
      <!-- 40 -->
      <defs>
       <path d="M 37.796875 64.3125 
L 12.890625 25.390625 
L 37.796875 25.390625 
z
M 35.203125 72.90625 
L 47.609375 72.90625 
L 47.609375 25.390625 
L 58.015625 25.390625 
L 58.015625 17.1875 
L 47.609375 17.1875 
L 47.609375 0 
L 37.796875 0 
L 37.796875 17.1875 
L 4.890625 17.1875 
L 4.890625 26.703125 
z
" id="DejaVuSans-34"/>
      </defs>
      <g transform="translate(352.13 273.614212)scale(0.12 -0.12)">
       <use xlink:href="#DejaVuSans-34"/>
       <use x="63.623047" xlink:href="#DejaVuSans-30"/>
      </g>
     </g>
    </g>
   </g>
   <g id="patch_28">
    <path d="M 374.4 345.6 
L 374.4 259.2 
" style="fill:none;stroke:#000000;stroke-linecap:square;stroke-linejoin:miter;stroke-width:0.8;"/>
   </g>
   <g id="patch_29">
    <path d="M 489.6 345.6 
L 489.6 259.2 
" style="fill:none;stroke:#000000;stroke-linecap:square;stroke-linejoin:miter;stroke-width:0.8;"/>
   </g>
   <g id="patch_30">
    <path d="M 374.4 345.6 
L 489.6 345.6 
" style="fill:none;stroke:#000000;stroke-linecap:square;stroke-linejoin:miter;stroke-width:0.8;"/>
   </g>
   <g id="patch_31">
    <path d="M 374.4 259.2 
L 489.6 259.2 
" style="fill:none;stroke:#000000;stroke-linecap:square;stroke-linejoin:miter;stroke-width:0.8;"/>
   </g>
   <g id="text_17">
    <!-- Error -->
    <defs>
     <path d="M 30.609375 48.390625 
Q 23.390625 48.390625 19.1875 42.75 
Q 14.984375 37.109375 14.984375 27.296875 
Q 14.984375 17.484375 19.15625 11.84375 
Q 23.34375 6.203125 30.609375 6.203125 
Q 37.796875 6.203125 41.984375 11.859375 
Q 46.1875 17.53125 46.1875 27.296875 
Q 46.1875 37.015625 41.984375 42.703125 
Q 37.796875 48.390625 30.609375 48.390625 
z
M 30.609375 56 
Q 42.328125 56 49.015625 48.375 
Q 55.71875 40.765625 55.71875 27.296875 
Q 55.71875 13.875 49.015625 6.21875 
Q 42.328125 -1.421875 30.609375 -1.421875 
Q 18.84375 -1.421875 12.171875 6.21875 
Q 5.515625 13.875 5.515625 27.296875 
Q 5.515625 40.765625 12.171875 48.375 
Q 18.84375 56 30.609375 56 
z
" id="DejaVuSans-6f"/>
    </defs>
    <g transform="translate(409.710938 253.2)scale(0.18 -0.18)">
     <use xlink:href="#DejaVuSans-45"/>
     <use x="63.183594" xlink:href="#DejaVuSans-72"/>
     <use x="104.28125" xlink:href="#DejaVuSans-72"/>
     <use x="145.363281" xlink:href="#DejaVuSans-6f"/>
     <use x="206.544922" xlink:href="#DejaVuSans-72"/>
    </g>
   </g>
  </g>
  <g id="axes_3">
   <g id="patch_32">
    <path d="M 109.44 172.8 
L 224.64 172.8 
L 224.64 86.4 
L 109.44 86.4 
z
" style="fill:#ffffff;"/>
   </g>
   <g id="patch_33">
    <path clip-path="url(#pa7a0ef6af7)" d="M 114.676364 172.8 
L 119.912727 172.8 
L 119.912727 168.881633 
L 114.676364 168.881633 
z
" style="fill:#1f77b4;"/>
   </g>
   <g id="patch_34">
    <path clip-path="url(#pa7a0ef6af7)" d="M 119.912727 172.8 
L 125.149091 172.8 
L 125.149091 170.187755 
L 119.912727 170.187755 
z
" style="fill:#1f77b4;"/>
   </g>
   <g id="patch_35">
    <path clip-path="url(#pa7a0ef6af7)" d="M 125.149091 172.8 
L 130.385455 172.8 
L 130.385455 168.881633 
L 125.149091 168.881633 
z
" style="fill:#1f77b4;"/>
   </g>
   <g id="patch_36">
    <path clip-path="url(#pa7a0ef6af7)" d="M 130.385455 172.8 
L 135.621818 172.8 
L 135.621818 171.493878 
L 130.385455 171.493878 
z
" style="fill:#1f77b4;"/>
   </g>
   <g id="patch_37">
    <path clip-path="url(#pa7a0ef6af7)" d="M 135.621818 172.8 
L 140.858182 172.8 
L 140.858182 167.57551 
L 135.621818 167.57551 
z
" style="fill:#1f77b4;"/>
   </g>
   <g id="patch_38">
    <path clip-path="url(#pa7a0ef6af7)" d="M 140.858182 172.8 
L 146.094545 172.8 
L 146.094545 166.269388 
L 140.858182 166.269388 
z
" style="fill:#1f77b4;"/>
   </g>
   <g id="patch_39">
    <path clip-path="url(#pa7a0ef6af7)" d="M 146.094545 172.8 
L 151.330909 172.8 
L 151.330909 166.269388 
L 146.094545 166.269388 
z
" style="fill:#1f77b4;"/>
   </g>
   <g id="patch_40">
    <path clip-path="url(#pa7a0ef6af7)" d="M 151.330909 172.8 
L 156.567273 172.8 
L 156.567273 157.126531 
L 151.330909 157.126531 
z
" style="fill:#1f77b4;"/>
   </g>
   <g id="patch_41">
    <path clip-path="url(#pa7a0ef6af7)" d="M 156.567273 172.8 
L 161.803636 172.8 
L 161.803636 154.514286 
L 156.567273 154.514286 
z
" style="fill:#1f77b4;"/>
   </g>
   <g id="patch_42">
    <path clip-path="url(#pa7a0ef6af7)" d="M 161.803636 172.8 
L 167.04 172.8 
L 167.04 155.820408 
L 161.803636 155.820408 
z
" style="fill:#1f77b4;"/>
   </g>
   <g id="patch_43">
    <path clip-path="url(#pa7a0ef6af7)" d="M 167.04 172.8 
L 172.276364 172.8 
L 172.276364 134.922449 
L 167.04 134.922449 
z
" style="fill:#1f77b4;"/>
   </g>
   <g id="patch_44">
    <path clip-path="url(#pa7a0ef6af7)" d="M 172.276364 172.8 
L 177.512727 172.8 
L 177.512727 112.718367 
L 172.276364 112.718367 
z
" style="fill:#1f77b4;"/>
   </g>
   <g id="patch_45">
    <path clip-path="url(#pa7a0ef6af7)" d="M 177.512727 172.8 
L 182.749091 172.8 
L 182.749091 90.514286 
L 177.512727 90.514286 
z
" style="fill:#1f77b4;"/>
   </g>
   <g id="patch_46">
    <path clip-path="url(#pa7a0ef6af7)" d="M 182.749091 172.8 
L 187.985455 172.8 
L 187.985455 172.8 
L 182.749091 172.8 
z
" style="fill:#1f77b4;"/>
   </g>
   <g id="patch_47">
    <path clip-path="url(#pa7a0ef6af7)" d="M 187.985455 172.8 
L 193.221818 172.8 
L 193.221818 172.8 
L 187.985455 172.8 
z
" style="fill:#1f77b4;"/>
   </g>
   <g id="patch_48">
    <path clip-path="url(#pa7a0ef6af7)" d="M 193.221818 172.8 
L 198.458182 172.8 
L 198.458182 172.8 
L 193.221818 172.8 
z
" style="fill:#1f77b4;"/>
   </g>
   <g id="patch_49">
    <path clip-path="url(#pa7a0ef6af7)" d="M 198.458182 172.8 
L 203.694545 172.8 
L 203.694545 172.8 
L 198.458182 172.8 
z
" style="fill:#1f77b4;"/>
   </g>
   <g id="patch_50">
    <path clip-path="url(#pa7a0ef6af7)" d="M 203.694545 172.8 
L 208.930909 172.8 
L 208.930909 172.8 
L 203.694545 172.8 
z
" style="fill:#1f77b4;"/>
   </g>
   <g id="patch_51">
    <path clip-path="url(#pa7a0ef6af7)" d="M 208.930909 172.8 
L 214.167273 172.8 
L 214.167273 172.8 
L 208.930909 172.8 
z
" style="fill:#1f77b4;"/>
   </g>
   <g id="patch_52">
    <path clip-path="url(#pa7a0ef6af7)" d="M 214.167273 172.8 
L 219.403636 172.8 
L 219.403636 172.8 
L 214.167273 172.8 
z
" style="fill:#1f77b4;"/>
   </g>
   <g id="matplotlib.axis_5">
    <g id="xtick_8">
     <g id="line2d_25">
      <g>
       <use style="stroke:#000000;stroke-width:0.8;" x="135.683707" xlink:href="#md413369b03" y="172.8"/>
      </g>
     </g>
     <g id="text_18">
      <!-- −10 -->
      <g transform="translate(123.020894 188.918125)scale(0.12 -0.12)">
       <use xlink:href="#DejaVuSans-2212"/>
       <use x="83.789062" xlink:href="#DejaVuSans-31"/>
       <use x="147.412109" xlink:href="#DejaVuSans-30"/>
      </g>
     </g>
    </g>
    <g id="xtick_9">
     <g id="line2d_26">
      <g>
       <use style="stroke:#000000;stroke-width:0.8;" x="167.04" xlink:href="#md413369b03" y="172.8"/>
      </g>
     </g>
     <g id="text_19">
      <!-- 0 -->
      <g transform="translate(163.2225 188.918125)scale(0.12 -0.12)">
       <use xlink:href="#DejaVuSans-30"/>
      </g>
     </g>
    </g>
    <g id="xtick_10">
     <g id="line2d_27">
      <g>
       <use style="stroke:#000000;stroke-width:0.8;" x="198.396293" xlink:href="#md413369b03" y="172.8"/>
      </g>
     </g>
     <g id="text_20">
      <!-- 10 -->
      <g transform="translate(190.761293 188.918125)scale(0.12 -0.12)">
       <use xlink:href="#DejaVuSans-31"/>
       <use x="63.623047" xlink:href="#DejaVuSans-30"/>
      </g>
     </g>
    </g>
   </g>
   <g id="matplotlib.axis_6">
    <g id="ytick_8">
     <g id="line2d_28">
      <g>
       <use style="stroke:#000000;stroke-width:0.8;" x="109.44" xlink:href="#m272c4cea9a" y="172.8"/>
      </g>
     </g>
     <g id="text_21">
      <!-- 0 -->
      <g transform="translate(94.805 177.359063)scale(0.12 -0.12)">
       <use xlink:href="#DejaVuSans-30"/>
      </g>
     </g>
    </g>
    <g id="ytick_9">
     <g id="line2d_29">
      <g>
       <use style="stroke:#000000;stroke-width:0.8;" x="109.44" xlink:href="#m272c4cea9a" y="140.146939"/>
      </g>
     </g>
     <g id="text_22">
      <!-- 25 -->
      <g transform="translate(87.17 144.706001)scale(0.12 -0.12)">
       <use xlink:href="#DejaVuSans-32"/>
       <use x="63.623047" xlink:href="#DejaVuSans-35"/>
      </g>
     </g>
    </g>
    <g id="ytick_10">
     <g id="line2d_30">
      <g>
       <use style="stroke:#000000;stroke-width:0.8;" x="109.44" xlink:href="#m272c4cea9a" y="107.493878"/>
      </g>
     </g>
     <g id="text_23">
      <!-- 50 -->
      <g transform="translate(87.17 112.05294)scale(0.12 -0.12)">
       <use xlink:href="#DejaVuSans-35"/>
       <use x="63.623047" xlink:href="#DejaVuSans-30"/>
      </g>
     </g>
    </g>
   </g>
   <g id="patch_53">
    <path d="M 109.44 172.8 
L 109.44 86.4 
" style="fill:none;stroke:#000000;stroke-linecap:square;stroke-linejoin:miter;stroke-width:0.8;"/>
   </g>
   <g id="patch_54">
    <path d="M 224.64 172.8 
L 224.64 86.4 
" style="fill:none;stroke:#000000;stroke-linecap:square;stroke-linejoin:miter;stroke-width:0.8;"/>
   </g>
   <g id="patch_55">
    <path d="M 109.44 172.8 
L 224.64 172.8 
" style="fill:none;stroke:#000000;stroke-linecap:square;stroke-linejoin:miter;stroke-width:0.8;"/>
   </g>
   <g id="patch_56">
    <path d="M 109.44 86.4 
L 224.64 86.4 
" style="fill:none;stroke:#000000;stroke-linecap:square;stroke-linejoin:miter;stroke-width:0.8;"/>
   </g>
   <g id="text_24">
    <!-- Rel.Error (%) -->
    <defs>
     <path d="M 44.390625 34.1875 
Q 47.5625 33.109375 50.5625 29.59375 
Q 53.5625 26.078125 56.59375 19.921875 
L 66.609375 0 
L 56 0 
L 46.6875 18.703125 
Q 43.0625 26.03125 39.671875 28.421875 
Q 36.28125 30.8125 30.421875 30.8125 
L 19.671875 30.8125 
L 19.671875 0 
L 9.8125 0 
L 9.8125 72.90625 
L 32.078125 72.90625 
Q 44.578125 72.90625 50.734375 67.671875 
Q 56.890625 62.453125 56.890625 51.90625 
Q 56.890625 45.015625 53.6875 40.46875 
Q 50.484375 35.9375 44.390625 34.1875 
z
M 19.671875 64.796875 
L 19.671875 38.921875 
L 32.078125 38.921875 
Q 39.203125 38.921875 42.84375 42.21875 
Q 46.484375 45.515625 46.484375 51.90625 
Q 46.484375 58.296875 42.84375 61.546875 
Q 39.203125 64.796875 32.078125 64.796875 
z
" id="DejaVuSans-52"/>
     <path d="M 9.421875 75.984375 
L 18.40625 75.984375 
L 18.40625 0 
L 9.421875 0 
z
" id="DejaVuSans-6c"/>
     <path d="M 31 75.875 
Q 24.46875 64.65625 21.28125 53.65625 
Q 18.109375 42.671875 18.109375 31.390625 
Q 18.109375 20.125 21.3125 9.0625 
Q 24.515625 -2 31 -13.1875 
L 23.1875 -13.1875 
Q 15.875 -1.703125 12.234375 9.375 
Q 8.59375 20.453125 8.59375 31.390625 
Q 8.59375 42.28125 12.203125 53.3125 
Q 15.828125 64.359375 23.1875 75.875 
z
" id="DejaVuSans-28"/>
     <path d="M 72.703125 32.078125 
Q 68.453125 32.078125 66.03125 28.46875 
Q 63.625 24.859375 63.625 18.40625 
Q 63.625 12.0625 66.03125 8.421875 
Q 68.453125 4.78125 72.703125 4.78125 
Q 76.859375 4.78125 79.265625 8.421875 
Q 81.6875 12.0625 81.6875 18.40625 
Q 81.6875 24.8125 79.265625 28.4375 
Q 76.859375 32.078125 72.703125 32.078125 
z
M 72.703125 38.28125 
Q 80.421875 38.28125 84.953125 32.90625 
Q 89.5 27.546875 89.5 18.40625 
Q 89.5 9.28125 84.9375 3.921875 
Q 80.375 -1.421875 72.703125 -1.421875 
Q 64.890625 -1.421875 60.34375 3.921875 
Q 55.8125 9.28125 55.8125 18.40625 
Q 55.8125 27.59375 60.375 32.9375 
Q 64.9375 38.28125 72.703125 38.28125 
z
M 22.3125 68.015625 
Q 18.109375 68.015625 15.6875 64.375 
Q 13.28125 60.75 13.28125 54.390625 
Q 13.28125 47.953125 15.671875 44.328125 
Q 18.0625 40.71875 22.3125 40.71875 
Q 26.5625 40.71875 28.96875 44.328125 
Q 31.390625 47.953125 31.390625 54.390625 
Q 31.390625 60.6875 28.953125 64.34375 
Q 26.515625 68.015625 22.3125 68.015625 
z
M 66.40625 74.21875 
L 74.21875 74.21875 
L 28.609375 -1.421875 
L 20.796875 -1.421875 
z
M 22.3125 74.21875 
Q 30.03125 74.21875 34.609375 68.875 
Q 39.203125 63.53125 39.203125 54.390625 
Q 39.203125 45.171875 34.640625 39.84375 
Q 30.078125 34.515625 22.3125 34.515625 
Q 14.546875 34.515625 10.03125 39.859375 
Q 5.515625 45.21875 5.515625 54.390625 
Q 5.515625 63.484375 10.046875 68.84375 
Q 14.59375 74.21875 22.3125 74.21875 
z
" id="DejaVuSans-25"/>
     <path d="M 8.015625 75.875 
L 15.828125 75.875 
Q 23.140625 64.359375 26.78125 53.3125 
Q 30.421875 42.28125 30.421875 31.390625 
Q 30.421875 20.453125 26.78125 9.375 
Q 23.140625 -1.703125 15.828125 -13.1875 
L 8.015625 -13.1875 
Q 14.5 -2 17.703125 9.0625 
Q 20.90625 20.125 20.90625 31.390625 
Q 20.90625 42.671875 17.703125 53.65625 
Q 14.5 64.65625 8.015625 75.875 
z
" id="DejaVuSans-29"/>
    </defs>
    <g transform="translate(109.17 80.4)scale(0.18 -0.18)">
     <use xlink:href="#DejaVuSans-52"/>
     <use x="69.419922" xlink:href="#DejaVuSans-65"/>
     <use x="130.943359" xlink:href="#DejaVuSans-6c"/>
     <use x="158.726562" xlink:href="#DejaVuSans-2e"/>
     <use x="190.513672" xlink:href="#DejaVuSans-45"/>
     <use x="253.697266" xlink:href="#DejaVuSans-72"/>
     <use x="294.794922" xlink:href="#DejaVuSans-72"/>
     <use x="335.876953" xlink:href="#DejaVuSans-6f"/>
     <use x="397.058594" xlink:href="#DejaVuSans-72"/>
     <use x="438.171875" xlink:href="#DejaVuSans-20"/>
     <use x="469.958984" xlink:href="#DejaVuSans-28"/>
     <use x="508.972656" xlink:href="#DejaVuSans-25"/>
     <use x="603.992188" xlink:href="#DejaVuSans-29"/>
    </g>
   </g>
  </g>
 </g>
 <defs>
  <clipPath id="p677ce7e90f">
   <rect height="332.64" width="446.4" x="72" y="51.84"/>
  </clipPath>
  <clipPath id="p8d3b2d5347">
   <rect height="86.4" width="115.2" x="374.4" y="259.2"/>
  </clipPath>
  <clipPath id="pa7a0ef6af7">
   <rect height="86.4" width="115.2" x="109.44" y="86.4"/>
  </clipPath>
 </defs>
</svg>
