<?xml version="1.0" encoding="utf-8" standalone="no"?>
<!DOCTYPE svg PUBLIC "-//W3C//DTD SVG 1.1//EN"
  "http://www.w3.org/Graphics/SVG/1.1/DTD/svg11.dtd">
<!-- Created with matplotlib (http://matplotlib.org/) -->
<svg height="432pt" version="1.1" viewBox="0 0 576 432" width="576pt" xmlns="http://www.w3.org/2000/svg" xmlns:xlink="http://www.w3.org/1999/xlink">
 <defs>
  <style type="text/css">
*{stroke-linecap:butt;stroke-linejoin:round;}
  </style>
 </defs>
 <g id="figure_1">
  <g id="patch_1">
   <path d="M 0 432 
L 576 432 
L 576 0 
L 0 0 
z
" style="fill:#ffffff;"/>
  </g>
  <g id="axes_1">
   <g id="patch_2">
    <path d="M 72 384.48 
L 518.4 384.48 
L 518.4 51.84 
L 72 51.84 
z
" style="fill:#ffffff;"/>
   </g>
   <g id="matplotlib.axis_1">
    <g id="xtick_1">
     <g id="line2d_1">
      <path clip-path="url(#pba83222dd9)" d="M 146.269979 384.48 
L 146.269979 51.84 
" style="fill:none;stroke:#b0b0b0;stroke-linecap:square;stroke-width:0.8;"/>
     </g>
     <g id="line2d_2">
      <defs>
       <path d="M 0 0 
L 0 3.5 
" id="mfea7ea7ec6" style="stroke:#000000;stroke-width:0.8;"/>
      </defs>
      <g>
       <use style="stroke:#000000;stroke-width:0.8;" x="146.269979" xlink:href="#mfea7ea7ec6" y="384.48"/>
      </g>
     </g>
     <g id="text_1">
      <!-- 1.5 -->
      <defs>
       <path d="M 12.40625 8.296875 
L 28.515625 8.296875 
L 28.515625 63.921875 
L 10.984375 60.40625 
L 10.984375 69.390625 
L 28.421875 72.90625 
L 38.28125 72.90625 
L 38.28125 8.296875 
L 54.390625 8.296875 
L 54.390625 0 
L 12.40625 0 
z
" id="DejaVuSans-31"/>
       <path d="M 10.6875 12.40625 
L 21 12.40625 
L 21 0 
L 10.6875 0 
z
" id="DejaVuSans-2e"/>
       <path d="M 10.796875 72.90625 
L 49.515625 72.90625 
L 49.515625 64.59375 
L 19.828125 64.59375 
L 19.828125 46.734375 
Q 21.96875 47.46875 24.109375 47.828125 
Q 26.265625 48.1875 28.421875 48.1875 
Q 40.625 48.1875 47.75 41.5 
Q 54.890625 34.8125 54.890625 23.390625 
Q 54.890625 11.625 47.5625 5.09375 
Q 40.234375 -1.421875 26.90625 -1.421875 
Q 22.3125 -1.421875 17.546875 -0.640625 
Q 12.796875 0.140625 7.71875 1.703125 
L 7.71875 11.625 
Q 12.109375 9.234375 16.796875 8.0625 
Q 21.484375 6.890625 26.703125 6.890625 
Q 35.15625 6.890625 40.078125 11.328125 
Q 45.015625 15.765625 45.015625 23.390625 
Q 45.015625 31 40.078125 35.4375 
Q 35.15625 39.890625 26.703125 39.890625 
Q 22.75 39.890625 18.8125 39.015625 
Q 14.890625 38.140625 10.796875 36.28125 
z
" id="DejaVuSans-35"/>
      </defs>
      <g transform="translate(131.957167 405.157188)scale(0.18 -0.18)">
       <use xlink:href="#DejaVuSans-31"/>
       <use x="63.623047" xlink:href="#DejaVuSans-2e"/>
       <use x="95.410156" xlink:href="#DejaVuSans-35"/>
      </g>
     </g>
    </g>
    <g id="xtick_2">
     <g id="line2d_3">
      <path clip-path="url(#pba83222dd9)" d="M 253.174092 384.48 
L 253.174092 51.84 
" style="fill:none;stroke:#b0b0b0;stroke-linecap:square;stroke-width:0.8;"/>
     </g>
     <g id="line2d_4">
      <g>
       <use style="stroke:#000000;stroke-width:0.8;" x="253.174092" xlink:href="#mfea7ea7ec6" y="384.48"/>
      </g>
     </g>
     <g id="text_2">
      <!-- 2.0 -->
      <defs>
       <path d="M 19.1875 8.296875 
L 53.609375 8.296875 
L 53.609375 0 
L 7.328125 0 
L 7.328125 8.296875 
Q 12.9375 14.109375 22.625 23.890625 
Q 32.328125 33.6875 34.8125 36.53125 
Q 39.546875 41.84375 41.421875 45.53125 
Q 43.3125 49.21875 43.3125 52.78125 
Q 43.3125 58.59375 39.234375 62.25 
Q 35.15625 65.921875 28.609375 65.921875 
Q 23.96875 65.921875 18.8125 64.3125 
Q 13.671875 62.703125 7.8125 59.421875 
L 7.8125 69.390625 
Q 13.765625 71.78125 18.9375 73 
Q 24.125 74.21875 28.421875 74.21875 
Q 39.75 74.21875 46.484375 68.546875 
Q 53.21875 62.890625 53.21875 53.421875 
Q 53.21875 48.921875 51.53125 44.890625 
Q 49.859375 40.875 45.40625 35.40625 
Q 44.1875 33.984375 37.640625 27.21875 
Q 31.109375 20.453125 19.1875 8.296875 
z
" id="DejaVuSans-32"/>
       <path d="M 31.78125 66.40625 
Q 24.171875 66.40625 20.328125 58.90625 
Q 16.5 51.421875 16.5 36.375 
Q 16.5 21.390625 20.328125 13.890625 
Q 24.171875 6.390625 31.78125 6.390625 
Q 39.453125 6.390625 43.28125 13.890625 
Q 47.125 21.390625 47.125 36.375 
Q 47.125 51.421875 43.28125 58.90625 
Q 39.453125 66.40625 31.78125 66.40625 
z
M 31.78125 74.21875 
Q 44.046875 74.21875 50.515625 64.515625 
Q 56.984375 54.828125 56.984375 36.375 
Q 56.984375 17.96875 50.515625 8.265625 
Q 44.046875 -1.421875 31.78125 -1.421875 
Q 19.53125 -1.421875 13.0625 8.265625 
Q 6.59375 17.96875 6.59375 36.375 
Q 6.59375 54.828125 13.0625 64.515625 
Q 19.53125 74.21875 31.78125 74.21875 
z
" id="DejaVuSans-30"/>
      </defs>
      <g transform="translate(238.861279 405.157188)scale(0.18 -0.18)">
       <use xlink:href="#DejaVuSans-32"/>
       <use x="63.623047" xlink:href="#DejaVuSans-2e"/>
       <use x="95.410156" xlink:href="#DejaVuSans-30"/>
      </g>
     </g>
    </g>
    <g id="xtick_3">
     <g id="line2d_5">
      <path clip-path="url(#pba83222dd9)" d="M 360.078205 384.48 
L 360.078205 51.84 
" style="fill:none;stroke:#b0b0b0;stroke-linecap:square;stroke-width:0.8;"/>
     </g>
     <g id="line2d_6">
      <g>
       <use style="stroke:#000000;stroke-width:0.8;" x="360.078205" xlink:href="#mfea7ea7ec6" y="384.48"/>
      </g>
     </g>
     <g id="text_3">
      <!-- 2.5 -->
      <g transform="translate(345.765392 405.157188)scale(0.18 -0.18)">
       <use xlink:href="#DejaVuSans-32"/>
       <use x="63.623047" xlink:href="#DejaVuSans-2e"/>
       <use x="95.410156" xlink:href="#DejaVuSans-35"/>
      </g>
     </g>
    </g>
    <g id="xtick_4">
     <g id="line2d_7">
      <path clip-path="url(#pba83222dd9)" d="M 466.982317 384.48 
L 466.982317 51.84 
" style="fill:none;stroke:#b0b0b0;stroke-linecap:square;stroke-width:0.8;"/>
     </g>
     <g id="line2d_8">
      <g>
       <use style="stroke:#000000;stroke-width:0.8;" x="466.982317" xlink:href="#mfea7ea7ec6" y="384.48"/>
      </g>
     </g>
     <g id="text_4">
      <!-- 3.0 -->
      <defs>
       <path d="M 40.578125 39.3125 
Q 47.65625 37.796875 51.625 33 
Q 55.609375 28.21875 55.609375 21.1875 
Q 55.609375 10.40625 48.1875 4.484375 
Q 40.765625 -1.421875 27.09375 -1.421875 
Q 22.515625 -1.421875 17.65625 -0.515625 
Q 12.796875 0.390625 7.625 2.203125 
L 7.625 11.71875 
Q 11.71875 9.328125 16.59375 8.109375 
Q 21.484375 6.890625 26.8125 6.890625 
Q 36.078125 6.890625 40.9375 10.546875 
Q 45.796875 14.203125 45.796875 21.1875 
Q 45.796875 27.640625 41.28125 31.265625 
Q 36.765625 34.90625 28.71875 34.90625 
L 20.21875 34.90625 
L 20.21875 43.015625 
L 29.109375 43.015625 
Q 36.375 43.015625 40.234375 45.921875 
Q 44.09375 48.828125 44.09375 54.296875 
Q 44.09375 59.90625 40.109375 62.90625 
Q 36.140625 65.921875 28.71875 65.921875 
Q 24.65625 65.921875 20.015625 65.03125 
Q 15.375 64.15625 9.8125 62.3125 
L 9.8125 71.09375 
Q 15.4375 72.65625 20.34375 73.4375 
Q 25.25 74.21875 29.59375 74.21875 
Q 40.828125 74.21875 47.359375 69.109375 
Q 53.90625 64.015625 53.90625 55.328125 
Q 53.90625 49.265625 50.4375 45.09375 
Q 46.96875 40.921875 40.578125 39.3125 
z
" id="DejaVuSans-33"/>
      </defs>
      <g transform="translate(452.669505 405.157188)scale(0.18 -0.18)">
       <use xlink:href="#DejaVuSans-33"/>
       <use x="63.623047" xlink:href="#DejaVuSans-2e"/>
       <use x="95.410156" xlink:href="#DejaVuSans-30"/>
      </g>
     </g>
    </g>
    <g id="text_5">
     <!-- True Energy -->
     <defs>
      <path d="M -0.296875 72.90625 
L 61.375 72.90625 
L 61.375 64.59375 
L 35.5 64.59375 
L 35.5 0 
L 25.59375 0 
L 25.59375 64.59375 
L -0.296875 64.59375 
z
" id="DejaVuSans-54"/>
      <path d="M 41.109375 46.296875 
Q 39.59375 47.171875 37.8125 47.578125 
Q 36.03125 48 33.890625 48 
Q 26.265625 48 22.1875 43.046875 
Q 18.109375 38.09375 18.109375 28.8125 
L 18.109375 0 
L 9.078125 0 
L 9.078125 54.6875 
L 18.109375 54.6875 
L 18.109375 46.1875 
Q 20.953125 51.171875 25.484375 53.578125 
Q 30.03125 56 36.53125 56 
Q 37.453125 56 38.578125 55.875 
Q 39.703125 55.765625 41.0625 55.515625 
z
" id="DejaVuSans-72"/>
      <path d="M 8.5 21.578125 
L 8.5 54.6875 
L 17.484375 54.6875 
L 17.484375 21.921875 
Q 17.484375 14.15625 20.5 10.265625 
Q 23.53125 6.390625 29.59375 6.390625 
Q 36.859375 6.390625 41.078125 11.03125 
Q 45.3125 15.671875 45.3125 23.6875 
L 45.3125 54.6875 
L 54.296875 54.6875 
L 54.296875 0 
L 45.3125 0 
L 45.3125 8.40625 
Q 42.046875 3.421875 37.71875 1 
Q 33.40625 -1.421875 27.6875 -1.421875 
Q 18.265625 -1.421875 13.375 4.4375 
Q 8.5 10.296875 8.5 21.578125 
z
M 31.109375 56 
z
" id="DejaVuSans-75"/>
      <path d="M 56.203125 29.59375 
L 56.203125 25.203125 
L 14.890625 25.203125 
Q 15.484375 15.921875 20.484375 11.0625 
Q 25.484375 6.203125 34.421875 6.203125 
Q 39.59375 6.203125 44.453125 7.46875 
Q 49.3125 8.734375 54.109375 11.28125 
L 54.109375 2.78125 
Q 49.265625 0.734375 44.1875 -0.34375 
Q 39.109375 -1.421875 33.890625 -1.421875 
Q 20.796875 -1.421875 13.15625 6.1875 
Q 5.515625 13.8125 5.515625 26.8125 
Q 5.515625 40.234375 12.765625 48.109375 
Q 20.015625 56 32.328125 56 
Q 43.359375 56 49.78125 48.890625 
Q 56.203125 41.796875 56.203125 29.59375 
z
M 47.21875 32.234375 
Q 47.125 39.59375 43.09375 43.984375 
Q 39.0625 48.390625 32.421875 48.390625 
Q 24.90625 48.390625 20.390625 44.140625 
Q 15.875 39.890625 15.1875 32.171875 
z
" id="DejaVuSans-65"/>
      <path id="DejaVuSans-20"/>
      <path d="M 9.8125 72.90625 
L 55.90625 72.90625 
L 55.90625 64.59375 
L 19.671875 64.59375 
L 19.671875 43.015625 
L 54.390625 43.015625 
L 54.390625 34.71875 
L 19.671875 34.71875 
L 19.671875 8.296875 
L 56.78125 8.296875 
L 56.78125 0 
L 9.8125 0 
z
" id="DejaVuSans-45"/>
      <path d="M 54.890625 33.015625 
L 54.890625 0 
L 45.90625 0 
L 45.90625 32.71875 
Q 45.90625 40.484375 42.875 44.328125 
Q 39.84375 48.1875 33.796875 48.1875 
Q 26.515625 48.1875 22.3125 43.546875 
Q 18.109375 38.921875 18.109375 30.90625 
L 18.109375 0 
L 9.078125 0 
L 9.078125 54.6875 
L 18.109375 54.6875 
L 18.109375 46.1875 
Q 21.34375 51.125 25.703125 53.5625 
Q 30.078125 56 35.796875 56 
Q 45.21875 56 50.046875 50.171875 
Q 54.890625 44.34375 54.890625 33.015625 
z
" id="DejaVuSans-6e"/>
      <path d="M 45.40625 27.984375 
Q 45.40625 37.75 41.375 43.109375 
Q 37.359375 48.484375 30.078125 48.484375 
Q 22.859375 48.484375 18.828125 43.109375 
Q 14.796875 37.75 14.796875 27.984375 
Q 14.796875 18.265625 18.828125 12.890625 
Q 22.859375 7.515625 30.078125 7.515625 
Q 37.359375 7.515625 41.375 12.890625 
Q 45.40625 18.265625 45.40625 27.984375 
z
M 54.390625 6.78125 
Q 54.390625 -7.171875 48.1875 -13.984375 
Q 42 -20.796875 29.203125 -20.796875 
Q 24.46875 -20.796875 20.265625 -20.09375 
Q 16.0625 -19.390625 12.109375 -17.921875 
L 12.109375 -9.1875 
Q 16.0625 -11.328125 19.921875 -12.34375 
Q 23.78125 -13.375 27.78125 -13.375 
Q 36.625 -13.375 41.015625 -8.765625 
Q 45.40625 -4.15625 45.40625 5.171875 
L 45.40625 9.625 
Q 42.625 4.78125 38.28125 2.390625 
Q 33.9375 0 27.875 0 
Q 17.828125 0 11.671875 7.65625 
Q 5.515625 15.328125 5.515625 27.984375 
Q 5.515625 40.671875 11.671875 48.328125 
Q 17.828125 56 27.875 56 
Q 33.9375 56 38.28125 53.609375 
Q 42.625 51.21875 45.40625 46.390625 
L 45.40625 54.6875 
L 54.390625 54.6875 
z
" id="DejaVuSans-67"/>
      <path d="M 32.171875 -5.078125 
Q 28.375 -14.84375 24.75 -17.8125 
Q 21.140625 -20.796875 15.09375 -20.796875 
L 7.90625 -20.796875 
L 7.90625 -13.28125 
L 13.1875 -13.28125 
Q 16.890625 -13.28125 18.9375 -11.515625 
Q 21 -9.765625 23.484375 -3.21875 
L 25.09375 0.875 
L 2.984375 54.6875 
L 12.5 54.6875 
L 29.59375 11.921875 
L 46.6875 54.6875 
L 56.203125 54.6875 
z
" id="DejaVuSans-79"/>
     </defs>
     <g transform="translate(234.148438 428.0975)scale(0.2 -0.2)">
      <use xlink:href="#DejaVuSans-54"/>
      <use x="60.865234" xlink:href="#DejaVuSans-72"/>
      <use x="101.978516" xlink:href="#DejaVuSans-75"/>
      <use x="165.357422" xlink:href="#DejaVuSans-65"/>
      <use x="226.880859" xlink:href="#DejaVuSans-20"/>
      <use x="258.667969" xlink:href="#DejaVuSans-45"/>
      <use x="321.851562" xlink:href="#DejaVuSans-6e"/>
      <use x="385.230469" xlink:href="#DejaVuSans-65"/>
      <use x="446.753906" xlink:href="#DejaVuSans-72"/>
      <use x="487.851562" xlink:href="#DejaVuSans-67"/>
      <use x="551.328125" xlink:href="#DejaVuSans-79"/>
     </g>
    </g>
   </g>
   <g id="matplotlib.axis_2">
    <g id="ytick_1">
     <g id="line2d_9">
      <path clip-path="url(#pba83222dd9)" d="M 72 368.983284 
L 518.4 368.983284 
" style="fill:none;stroke:#b0b0b0;stroke-linecap:square;stroke-width:0.8;"/>
     </g>
     <g id="line2d_10">
      <defs>
       <path d="M 0 0 
L -3.5 0 
" id="m721cb96bc5" style="stroke:#000000;stroke-width:0.8;"/>
      </defs>
      <g>
       <use style="stroke:#000000;stroke-width:0.8;" x="72" xlink:href="#m721cb96bc5" y="368.983284"/>
      </g>
     </g>
     <g id="text_6">
      <!-- 1.25 -->
      <g transform="translate(24.921875 375.821878)scale(0.18 -0.18)">
       <use xlink:href="#DejaVuSans-31"/>
       <use x="63.623047" xlink:href="#DejaVuSans-2e"/>
       <use x="95.410156" xlink:href="#DejaVuSans-32"/>
       <use x="159.033203" xlink:href="#DejaVuSans-35"/>
      </g>
     </g>
    </g>
    <g id="ytick_2">
     <g id="line2d_11">
      <path clip-path="url(#pba83222dd9)" d="M 72 330.775139 
L 518.4 330.775139 
" style="fill:none;stroke:#b0b0b0;stroke-linecap:square;stroke-width:0.8;"/>
     </g>
     <g id="line2d_12">
      <g>
       <use style="stroke:#000000;stroke-width:0.8;" x="72" xlink:href="#m721cb96bc5" y="330.775139"/>
      </g>
     </g>
     <g id="text_7">
      <!-- 1.50 -->
      <g transform="translate(24.921875 337.613732)scale(0.18 -0.18)">
       <use xlink:href="#DejaVuSans-31"/>
       <use x="63.623047" xlink:href="#DejaVuSans-2e"/>
       <use x="95.410156" xlink:href="#DejaVuSans-35"/>
       <use x="159.033203" xlink:href="#DejaVuSans-30"/>
      </g>
     </g>
    </g>
    <g id="ytick_3">
     <g id="line2d_13">
      <path clip-path="url(#pba83222dd9)" d="M 72 292.566993 
L 518.4 292.566993 
" style="fill:none;stroke:#b0b0b0;stroke-linecap:square;stroke-width:0.8;"/>
     </g>
     <g id="line2d_14">
      <g>
       <use style="stroke:#000000;stroke-width:0.8;" x="72" xlink:href="#m721cb96bc5" y="292.566993"/>
      </g>
     </g>
     <g id="text_8">
      <!-- 1.75 -->
      <defs>
       <path d="M 8.203125 72.90625 
L 55.078125 72.90625 
L 55.078125 68.703125 
L 28.609375 0 
L 18.3125 0 
L 43.21875 64.59375 
L 8.203125 64.59375 
z
" id="DejaVuSans-37"/>
      </defs>
      <g transform="translate(24.921875 299.405587)scale(0.18 -0.18)">
       <use xlink:href="#DejaVuSans-31"/>
       <use x="63.623047" xlink:href="#DejaVuSans-2e"/>
       <use x="95.410156" xlink:href="#DejaVuSans-37"/>
       <use x="159.033203" xlink:href="#DejaVuSans-35"/>
      </g>
     </g>
    </g>
    <g id="ytick_4">
     <g id="line2d_15">
      <path clip-path="url(#pba83222dd9)" d="M 72 254.358847 
L 518.4 254.358847 
" style="fill:none;stroke:#b0b0b0;stroke-linecap:square;stroke-width:0.8;"/>
     </g>
     <g id="line2d_16">
      <g>
       <use style="stroke:#000000;stroke-width:0.8;" x="72" xlink:href="#m721cb96bc5" y="254.358847"/>
      </g>
     </g>
     <g id="text_9">
      <!-- 2.00 -->
      <g transform="translate(24.921875 261.197441)scale(0.18 -0.18)">
       <use xlink:href="#DejaVuSans-32"/>
       <use x="63.623047" xlink:href="#DejaVuSans-2e"/>
       <use x="95.410156" xlink:href="#DejaVuSans-30"/>
       <use x="159.033203" xlink:href="#DejaVuSans-30"/>
      </g>
     </g>
    </g>
    <g id="ytick_5">
     <g id="line2d_17">
      <path clip-path="url(#pba83222dd9)" d="M 72 216.150701 
L 518.4 216.150701 
" style="fill:none;stroke:#b0b0b0;stroke-linecap:square;stroke-width:0.8;"/>
     </g>
     <g id="line2d_18">
      <g>
       <use style="stroke:#000000;stroke-width:0.8;" x="72" xlink:href="#m721cb96bc5" y="216.150701"/>
      </g>
     </g>
     <g id="text_10">
      <!-- 2.25 -->
      <g transform="translate(24.921875 222.989295)scale(0.18 -0.18)">
       <use xlink:href="#DejaVuSans-32"/>
       <use x="63.623047" xlink:href="#DejaVuSans-2e"/>
       <use x="95.410156" xlink:href="#DejaVuSans-32"/>
       <use x="159.033203" xlink:href="#DejaVuSans-35"/>
      </g>
     </g>
    </g>
    <g id="ytick_6">
     <g id="line2d_19">
      <path clip-path="url(#pba83222dd9)" d="M 72 177.942556 
L 518.4 177.942556 
" style="fill:none;stroke:#b0b0b0;stroke-linecap:square;stroke-width:0.8;"/>
     </g>
     <g id="line2d_20">
      <g>
       <use style="stroke:#000000;stroke-width:0.8;" x="72" xlink:href="#m721cb96bc5" y="177.942556"/>
      </g>
     </g>
     <g id="text_11">
      <!-- 2.50 -->
      <g transform="translate(24.921875 184.781149)scale(0.18 -0.18)">
       <use xlink:href="#DejaVuSans-32"/>
       <use x="63.623047" xlink:href="#DejaVuSans-2e"/>
       <use x="95.410156" xlink:href="#DejaVuSans-35"/>
       <use x="159.033203" xlink:href="#DejaVuSans-30"/>
      </g>
     </g>
    </g>
    <g id="ytick_7">
     <g id="line2d_21">
      <path clip-path="url(#pba83222dd9)" d="M 72 139.73441 
L 518.4 139.73441 
" style="fill:none;stroke:#b0b0b0;stroke-linecap:square;stroke-width:0.8;"/>
     </g>
     <g id="line2d_22">
      <g>
       <use style="stroke:#000000;stroke-width:0.8;" x="72" xlink:href="#m721cb96bc5" y="139.73441"/>
      </g>
     </g>
     <g id="text_12">
      <!-- 2.75 -->
      <g transform="translate(24.921875 146.573004)scale(0.18 -0.18)">
       <use xlink:href="#DejaVuSans-32"/>
       <use x="63.623047" xlink:href="#DejaVuSans-2e"/>
       <use x="95.410156" xlink:href="#DejaVuSans-37"/>
       <use x="159.033203" xlink:href="#DejaVuSans-35"/>
      </g>
     </g>
    </g>
    <g id="ytick_8">
     <g id="line2d_23">
      <path clip-path="url(#pba83222dd9)" d="M 72 101.526264 
L 518.4 101.526264 
" style="fill:none;stroke:#b0b0b0;stroke-linecap:square;stroke-width:0.8;"/>
     </g>
     <g id="line2d_24">
      <g>
       <use style="stroke:#000000;stroke-width:0.8;" x="72" xlink:href="#m721cb96bc5" y="101.526264"/>
      </g>
     </g>
     <g id="text_13">
      <!-- 3.00 -->
      <g transform="translate(24.921875 108.364858)scale(0.18 -0.18)">
       <use xlink:href="#DejaVuSans-33"/>
       <use x="63.623047" xlink:href="#DejaVuSans-2e"/>
       <use x="95.410156" xlink:href="#DejaVuSans-30"/>
       <use x="159.033203" xlink:href="#DejaVuSans-30"/>
      </g>
     </g>
    </g>
    <g id="ytick_9">
     <g id="line2d_25">
      <path clip-path="url(#pba83222dd9)" d="M 72 63.318118 
L 518.4 63.318118 
" style="fill:none;stroke:#b0b0b0;stroke-linecap:square;stroke-width:0.8;"/>
     </g>
     <g id="line2d_26">
      <g>
       <use style="stroke:#000000;stroke-width:0.8;" x="72" xlink:href="#m721cb96bc5" y="63.318118"/>
      </g>
     </g>
     <g id="text_14">
      <!-- 3.25 -->
      <g transform="translate(24.921875 70.156712)scale(0.18 -0.18)">
       <use xlink:href="#DejaVuSans-33"/>
       <use x="63.623047" xlink:href="#DejaVuSans-2e"/>
       <use x="95.410156" xlink:href="#DejaVuSans-32"/>
       <use x="159.033203" xlink:href="#DejaVuSans-35"/>
      </g>
     </g>
    </g>
    <g id="text_15">
     <!-- Predicted Energy -->
     <defs>
      <path d="M 19.671875 64.796875 
L 19.671875 37.40625 
L 32.078125 37.40625 
Q 38.96875 37.40625 42.71875 40.96875 
Q 46.484375 44.53125 46.484375 51.125 
Q 46.484375 57.671875 42.71875 61.234375 
Q 38.96875 64.796875 32.078125 64.796875 
z
M 9.8125 72.90625 
L 32.078125 72.90625 
Q 44.34375 72.90625 50.609375 67.359375 
Q 56.890625 61.8125 56.890625 51.125 
Q 56.890625 40.328125 50.609375 34.8125 
Q 44.34375 29.296875 32.078125 29.296875 
L 19.671875 29.296875 
L 19.671875 0 
L 9.8125 0 
z
" id="DejaVuSans-50"/>
      <path d="M 45.40625 46.390625 
L 45.40625 75.984375 
L 54.390625 75.984375 
L 54.390625 0 
L 45.40625 0 
L 45.40625 8.203125 
Q 42.578125 3.328125 38.25 0.953125 
Q 33.9375 -1.421875 27.875 -1.421875 
Q 17.96875 -1.421875 11.734375 6.484375 
Q 5.515625 14.40625 5.515625 27.296875 
Q 5.515625 40.1875 11.734375 48.09375 
Q 17.96875 56 27.875 56 
Q 33.9375 56 38.25 53.625 
Q 42.578125 51.265625 45.40625 46.390625 
z
M 14.796875 27.296875 
Q 14.796875 17.390625 18.875 11.75 
Q 22.953125 6.109375 30.078125 6.109375 
Q 37.203125 6.109375 41.296875 11.75 
Q 45.40625 17.390625 45.40625 27.296875 
Q 45.40625 37.203125 41.296875 42.84375 
Q 37.203125 48.484375 30.078125 48.484375 
Q 22.953125 48.484375 18.875 42.84375 
Q 14.796875 37.203125 14.796875 27.296875 
z
" id="DejaVuSans-64"/>
      <path d="M 9.421875 54.6875 
L 18.40625 54.6875 
L 18.40625 0 
L 9.421875 0 
z
M 9.421875 75.984375 
L 18.40625 75.984375 
L 18.40625 64.59375 
L 9.421875 64.59375 
z
" id="DejaVuSans-69"/>
      <path d="M 48.78125 52.59375 
L 48.78125 44.1875 
Q 44.96875 46.296875 41.140625 47.34375 
Q 37.3125 48.390625 33.40625 48.390625 
Q 24.65625 48.390625 19.8125 42.84375 
Q 14.984375 37.3125 14.984375 27.296875 
Q 14.984375 17.28125 19.8125 11.734375 
Q 24.65625 6.203125 33.40625 6.203125 
Q 37.3125 6.203125 41.140625 7.25 
Q 44.96875 8.296875 48.78125 10.40625 
L 48.78125 2.09375 
Q 45.015625 0.34375 40.984375 -0.53125 
Q 36.96875 -1.421875 32.421875 -1.421875 
Q 20.0625 -1.421875 12.78125 6.34375 
Q 5.515625 14.109375 5.515625 27.296875 
Q 5.515625 40.671875 12.859375 48.328125 
Q 20.21875 56 33.015625 56 
Q 37.15625 56 41.109375 55.140625 
Q 45.0625 54.296875 48.78125 52.59375 
z
" id="DejaVuSans-63"/>
      <path d="M 18.3125 70.21875 
L 18.3125 54.6875 
L 36.8125 54.6875 
L 36.8125 47.703125 
L 18.3125 47.703125 
L 18.3125 18.015625 
Q 18.3125 11.328125 20.140625 9.421875 
Q 21.96875 7.515625 27.59375 7.515625 
L 36.8125 7.515625 
L 36.8125 0 
L 27.59375 0 
Q 17.1875 0 13.234375 3.875 
Q 9.28125 7.765625 9.28125 18.015625 
L 9.28125 47.703125 
L 2.6875 47.703125 
L 2.6875 54.6875 
L 9.28125 54.6875 
L 9.28125 70.21875 
z
" id="DejaVuSans-74"/>
     </defs>
     <g transform="translate(16.7625 303.86)rotate(-90)scale(0.2 -0.2)">
      <use xlink:href="#DejaVuSans-50"/>
      <use x="60.287109" xlink:href="#DejaVuSans-72"/>
      <use x="101.369141" xlink:href="#DejaVuSans-65"/>
      <use x="162.892578" xlink:href="#DejaVuSans-64"/>
      <use x="226.369141" xlink:href="#DejaVuSans-69"/>
      <use x="254.152344" xlink:href="#DejaVuSans-63"/>
      <use x="309.132812" xlink:href="#DejaVuSans-74"/>
      <use x="348.341797" xlink:href="#DejaVuSans-65"/>
      <use x="409.865234" xlink:href="#DejaVuSans-64"/>
      <use x="473.341797" xlink:href="#DejaVuSans-20"/>
      <use x="505.128906" xlink:href="#DejaVuSans-45"/>
      <use x="568.3125" xlink:href="#DejaVuSans-6e"/>
      <use x="631.691406" xlink:href="#DejaVuSans-65"/>
      <use x="693.214844" xlink:href="#DejaVuSans-72"/>
      <use x="734.3125" xlink:href="#DejaVuSans-67"/>
      <use x="797.789062" xlink:href="#DejaVuSans-79"/>
     </g>
    </g>
   </g>
   <g id="line2d_27">
    <path clip-path="url(#pba83222dd9)" d="M 346.161695 187.890237 
L 386.20282 159.26838 
L 386.20282 159.26838 
L 386.20282 159.26838 
L 138.534394 336.304624 
L 262.859402 247.435676 
L 262.859402 247.435676 
L 478.267454 93.459519 
L 478.267454 93.459519 
L 478.267454 93.459519 
L 105.98677 359.570041 
L 446.09491 116.456823 
L 446.09491 116.456823 
L 481.556212 91.108677 
L 447.182735 115.679234 
L 447.182735 115.679234 
L 145.02571 331.664557 
L 241.284255 262.85784 
L 241.284255 262.85784 
L 487.769302 86.667488 
L 274.027804 239.452374 
L 274.027804 239.452374 
L 138.870222 336.06457 
L 138.870222 336.06457 
L 138.870222 336.06457 
L 400.77804 148.849845 
L 192.974719 297.390053 
L 192.974719 297.390053 
L 99.7316 364.041309 
L 99.7316 364.041309 
L 99.7316 364.041309 
L 498.109091 79.276488 
L 122.813619 347.542015 
L 122.813619 347.542015 
L 97.425834 365.689496 
L 97.425834 365.689496 
L 97.425834 365.689496 
L 400.014013 149.395979 
L 187.793533 301.093624 
L 187.793533 301.093624 
L 92.290909 369.36 
L 92.290909 369.36 
L 92.290909 369.36 
L 426.081281 130.762796 
L 238.532909 264.824533 
" style="fill:none;opacity:0.5;stroke:#ff0000;stroke-dasharray:3.7,1.6;stroke-dashoffset:0;"/>
   </g>
   <g id="line2d_28">
    <defs>
     <path d="M 0 1 
C 0.265203 1 0.51958 0.894634 0.707107 0.707107 
C 0.894634 0.51958 1 0.265203 1 0 
C 1 -0.265203 0.894634 -0.51958 0.707107 -0.707107 
C 0.51958 -0.894634 0.265203 -1 0 -1 
C -0.265203 -1 -0.51958 -0.894634 -0.707107 -0.707107 
C -0.894634 -0.51958 -1 -0.265203 -1 0 
C -1 0.265203 -0.894634 0.51958 -0.707107 0.707107 
C -0.51958 0.894634 -0.265203 1 0 1 
z
" id="m617b897cd8" style="stroke:#1f77b4;"/>
    </defs>
    <g clip-path="url(#pba83222dd9)">
     <use style="fill:#1f77b4;stroke:#1f77b4;" x="346.161695" xlink:href="#m617b897cd8" y="199.08086"/>
     <use style="fill:#1f77b4;stroke:#1f77b4;" x="386.20282" xlink:href="#m617b897cd8" y="173.698206"/>
     <use style="fill:#1f77b4;stroke:#1f77b4;" x="138.534394" xlink:href="#m617b897cd8" y="335.558991"/>
     <use style="fill:#1f77b4;stroke:#1f77b4;" x="262.859402" xlink:href="#m617b897cd8" y="248.733128"/>
     <use style="fill:#1f77b4;stroke:#1f77b4;" x="424.650338" xlink:href="#m617b897cd8" y="138.790116"/>
     <use style="fill:#1f77b4;stroke:#1f77b4;" x="343.433263" xlink:href="#m617b897cd8" y="195.982562"/>
     <use style="fill:#1f77b4;stroke:#1f77b4;" x="435.96086" xlink:href="#m617b897cd8" y="129.20339"/>
     <use style="fill:#1f77b4;stroke:#1f77b4;" x="443.199023" xlink:href="#m617b897cd8" y="130.714334"/>
     <use style="fill:#1f77b4;stroke:#1f77b4;" x="478.267454" xlink:href="#m617b897cd8" y="92.935939"/>
     <use style="fill:#1f77b4;stroke:#1f77b4;" x="192.160329" xlink:href="#m617b897cd8" y="301.808066"/>
     <use style="fill:#1f77b4;stroke:#1f77b4;" x="194.076129" xlink:href="#m617b897cd8" y="302.403283"/>
     <use style="fill:#1f77b4;stroke:#1f77b4;" x="146.075099" xlink:href="#m617b897cd8" y="332.610418"/>
     <use style="fill:#1f77b4;stroke:#1f77b4;" x="336.650875" xlink:href="#m617b897cd8" y="208.162152"/>
     <use style="fill:#1f77b4;stroke:#1f77b4;" x="229.95166" xlink:href="#m617b897cd8" y="269.820984"/>
     <use style="fill:#1f77b4;stroke:#1f77b4;" x="444.170776" xlink:href="#m617b897cd8" y="119.849723"/>
     <use style="fill:#1f77b4;stroke:#1f77b4;" x="361.017792" xlink:href="#m617b897cd8" y="193.078699"/>
     <use style="fill:#1f77b4;stroke:#1f77b4;" x="470.203278" xlink:href="#m617b897cd8" y="100.46832"/>
     <use style="fill:#1f77b4;stroke:#1f77b4;" x="236.483374" xlink:href="#m617b897cd8" y="270.155814"/>
     <use style="fill:#1f77b4;stroke:#1f77b4;" x="401.596355" xlink:href="#m617b897cd8" y="156.932295"/>
     <use style="fill:#1f77b4;stroke:#1f77b4;" x="168.727952" xlink:href="#m617b897cd8" y="317.102642"/>
     <use style="fill:#1f77b4;stroke:#1f77b4;" x="265.672301" xlink:href="#m617b897cd8" y="246.674083"/>
     <use style="fill:#1f77b4;stroke:#1f77b4;" x="289.869315" xlink:href="#m617b897cd8" y="229.110978"/>
     <use style="fill:#1f77b4;stroke:#1f77b4;" x="382.431167" xlink:href="#m617b897cd8" y="167.976764"/>
     <use style="fill:#1f77b4;stroke:#1f77b4;" x="310.015278" xlink:href="#m617b897cd8" y="215.539306"/>
     <use style="fill:#1f77b4;stroke:#1f77b4;" x="348.291925" xlink:href="#m617b897cd8" y="200.778148"/>
     <use style="fill:#1f77b4;stroke:#1f77b4;" x="139.021264" xlink:href="#m617b897cd8" y="331.717101"/>
     <use style="fill:#1f77b4;stroke:#1f77b4;" x="165.047649" xlink:href="#m617b897cd8" y="319.983514"/>
     <use style="fill:#1f77b4;stroke:#1f77b4;" x="453.994027" xlink:href="#m617b897cd8" y="112.946921"/>
     <use style="fill:#1f77b4;stroke:#1f77b4;" x="366.980488" xlink:href="#m617b897cd8" y="181.30605"/>
     <use style="fill:#1f77b4;stroke:#1f77b4;" x="367.17231" xlink:href="#m617b897cd8" y="181.1748"/>
     <use style="fill:#1f77b4;stroke:#1f77b4;" x="341.269542" xlink:href="#m617b897cd8" y="195.932861"/>
     <use style="fill:#1f77b4;stroke:#1f77b4;" x="275.797431" xlink:href="#m617b897cd8" y="238.117354"/>
     <use style="fill:#1f77b4;stroke:#1f77b4;" x="105.98677" xlink:href="#m617b897cd8" y="345.088764"/>
     <use style="fill:#1f77b4;stroke:#1f77b4;" x="110.127564" xlink:href="#m617b897cd8" y="351.278326"/>
     <use style="fill:#1f77b4;stroke:#1f77b4;" x="387.193332" xlink:href="#m617b897cd8" y="164.000636"/>
     <use style="fill:#1f77b4;stroke:#1f77b4;" x="268.464095" xlink:href="#m617b897cd8" y="245.37182"/>
     <use style="fill:#1f77b4;stroke:#1f77b4;" x="381.910092" xlink:href="#m617b897cd8" y="170.885401"/>
     <use style="fill:#1f77b4;stroke:#1f77b4;" x="144.765682" xlink:href="#m617b897cd8" y="329.521011"/>
     <use style="fill:#1f77b4;stroke:#1f77b4;" x="326.826197" xlink:href="#m617b897cd8" y="206.307743"/>
     <use style="fill:#1f77b4;stroke:#1f77b4;" x="226.17598" xlink:href="#m617b897cd8" y="279.011718"/>
     <use style="fill:#1f77b4;stroke:#1f77b4;" x="124.515065" xlink:href="#m617b897cd8" y="336.949397"/>
     <use style="fill:#1f77b4;stroke:#1f77b4;" x="175.299708" xlink:href="#m617b897cd8" y="314.432675"/>
     <use style="fill:#1f77b4;stroke:#1f77b4;" x="277.7939" xlink:href="#m617b897cd8" y="238.054024"/>
     <use style="fill:#1f77b4;stroke:#1f77b4;" x="311.795406" xlink:href="#m617b897cd8" y="214.57989"/>
     <use style="fill:#1f77b4;stroke:#1f77b4;" x="472.774551" xlink:href="#m617b897cd8" y="91.089"/>
     <use style="fill:#1f77b4;stroke:#1f77b4;" x="154.408504" xlink:href="#m617b897cd8" y="323.177097"/>
     <use style="fill:#1f77b4;stroke:#1f77b4;" x="354.219397" xlink:href="#m617b897cd8" y="187.785441"/>
     <use style="fill:#1f77b4;stroke:#1f77b4;" x="222.590033" xlink:href="#m617b897cd8" y="280.809102"/>
     <use style="fill:#1f77b4;stroke:#1f77b4;" x="161.710514" xlink:href="#m617b897cd8" y="321.542009"/>
     <use style="fill:#1f77b4;stroke:#1f77b4;" x="235.342127" xlink:href="#m617b897cd8" y="271.869754"/>
     <use style="fill:#1f77b4;stroke:#1f77b4;" x="284.178218" xlink:href="#m617b897cd8" y="238.144136"/>
     <use style="fill:#1f77b4;stroke:#1f77b4;" x="353.826832" xlink:href="#m617b897cd8" y="188.042221"/>
     <use style="fill:#1f77b4;stroke:#1f77b4;" x="259.845557" xlink:href="#m617b897cd8" y="252.256732"/>
     <use style="fill:#1f77b4;stroke:#1f77b4;" x="446.09491" xlink:href="#m617b897cd8" y="129.275647"/>
     <use style="fill:#1f77b4;stroke:#1f77b4;" x="481.556212" xlink:href="#m617b897cd8" y="89.773547"/>
     <use style="fill:#1f77b4;stroke:#1f77b4;" x="447.182735" xlink:href="#m617b897cd8" y="113.749762"/>
     <use style="fill:#1f77b4;stroke:#1f77b4;" x="145.02571" xlink:href="#m617b897cd8" y="332.96886"/>
     <use style="fill:#1f77b4;stroke:#1f77b4;" x="271.057696" xlink:href="#m617b897cd8" y="243.112329"/>
     <use style="fill:#1f77b4;stroke:#1f77b4;" x="323.272976" xlink:href="#m617b897cd8" y="207.241725"/>
     <use style="fill:#1f77b4;stroke:#1f77b4;" x="244.780459" xlink:href="#m617b897cd8" y="264.954945"/>
     <use style="fill:#1f77b4;stroke:#1f77b4;" x="198.732339" xlink:href="#m617b897cd8" y="297.626846"/>
     <use style="fill:#1f77b4;stroke:#1f77b4;" x="446.505113" xlink:href="#m617b897cd8" y="121.214622"/>
     <use style="fill:#1f77b4;stroke:#1f77b4;" x="305.440297" xlink:href="#m617b897cd8" y="217.560602"/>
     <use style="fill:#1f77b4;stroke:#1f77b4;" x="241.284255" xlink:href="#m617b897cd8" y="267.986452"/>
     <use style="fill:#1f77b4;stroke:#1f77b4;" x="487.769302" xlink:href="#m617b897cd8" y="84.150525"/>
     <use style="fill:#1f77b4;stroke:#1f77b4;" x="349.781898" xlink:href="#m617b897cd8" y="192.407873"/>
     <use style="fill:#1f77b4;stroke:#1f77b4;" x="274.027804" xlink:href="#m617b897cd8" y="240.876704"/>
     <use style="fill:#1f77b4;stroke:#1f77b4;" x="138.870222" xlink:href="#m617b897cd8" y="330.716072"/>
     <use style="fill:#1f77b4;stroke:#1f77b4;" x="397.621819" xlink:href="#m617b897cd8" y="157.05582"/>
     <use style="fill:#1f77b4;stroke:#1f77b4;" x="319.119871" xlink:href="#m617b897cd8" y="215.028881"/>
     <use style="fill:#1f77b4;stroke:#1f77b4;" x="400.77804" xlink:href="#m617b897cd8" y="166.060848"/>
     <use style="fill:#1f77b4;stroke:#1f77b4;" x="255.784412" xlink:href="#m617b897cd8" y="256.046552"/>
     <use style="fill:#1f77b4;stroke:#1f77b4;" x="211.81231" xlink:href="#m617b897cd8" y="288.416034"/>
     <use style="fill:#1f77b4;stroke:#1f77b4;" x="173.883752" xlink:href="#m617b897cd8" y="312.619769"/>
     <use style="fill:#1f77b4;stroke:#1f77b4;" x="280.065741" xlink:href="#m617b897cd8" y="234.859238"/>
     <use style="fill:#1f77b4;stroke:#1f77b4;" x="192.974719" xlink:href="#m617b897cd8" y="301.666942"/>
     <use style="fill:#1f77b4;stroke:#1f77b4;" x="99.7316" xlink:href="#m617b897cd8" y="346.335622"/>
     <use style="fill:#1f77b4;stroke:#1f77b4;" x="292.524545" xlink:href="#m617b897cd8" y="231.624189"/>
     <use style="fill:#1f77b4;stroke:#1f77b4;" x="484.446543" xlink:href="#m617b897cd8" y="96.422777"/>
     <use style="fill:#1f77b4;stroke:#1f77b4;" x="386.126305" xlink:href="#m617b897cd8" y="168.085241"/>
     <use style="fill:#1f77b4;stroke:#1f77b4;" x="396.42929" xlink:href="#m617b897cd8" y="160.682361"/>
     <use style="fill:#1f77b4;stroke:#1f77b4;" x="275.808594" xlink:href="#m617b897cd8" y="240.067486"/>
     <use style="fill:#1f77b4;stroke:#1f77b4;" x="232.313345" xlink:href="#m617b897cd8" y="274.439644"/>
     <use style="fill:#1f77b4;stroke:#1f77b4;" x="349.461311" xlink:href="#m617b897cd8" y="190.942331"/>
     <use style="fill:#1f77b4;stroke:#1f77b4;" x="252.736847" xlink:href="#m617b897cd8" y="260.358093"/>
     <use style="fill:#1f77b4;stroke:#1f77b4;" x="395.751515" xlink:href="#m617b897cd8" y="157.811073"/>
     <use style="fill:#1f77b4;stroke:#1f77b4;" x="307.620534" xlink:href="#m617b897cd8" y="216.99009"/>
     <use style="fill:#1f77b4;stroke:#1f77b4;" x="377.391694" xlink:href="#m617b897cd8" y="174.269775"/>
     <use style="fill:#1f77b4;stroke:#1f77b4;" x="497.240157" xlink:href="#m617b897cd8" y="66.96"/>
     <use style="fill:#1f77b4;stroke:#1f77b4;" x="280.284784" xlink:href="#m617b897cd8" y="236.664383"/>
     <use style="fill:#1f77b4;stroke:#1f77b4;" x="280.884311" xlink:href="#m617b897cd8" y="234.315472"/>
     <use style="fill:#1f77b4;stroke:#1f77b4;" x="379.612407" xlink:href="#m617b897cd8" y="171.319525"/>
     <use style="fill:#1f77b4;stroke:#1f77b4;" x="498.109091" xlink:href="#m617b897cd8" y="80.204531"/>
     <use style="fill:#1f77b4;stroke:#1f77b4;" x="264.845421" xlink:href="#m617b897cd8" y="248.032787"/>
     <use style="fill:#1f77b4;stroke:#1f77b4;" x="298.484081" xlink:href="#m617b897cd8" y="222.83094"/>
     <use style="fill:#1f77b4;stroke:#1f77b4;" x="114.044651" xlink:href="#m617b897cd8" y="344.077606"/>
     <use style="fill:#1f77b4;stroke:#1f77b4;" x="141.498512" xlink:href="#m617b897cd8" y="329.80747"/>
     <use style="fill:#1f77b4;stroke:#1f77b4;" x="256.645497" xlink:href="#m617b897cd8" y="254.750102"/>
     <use style="fill:#1f77b4;stroke:#1f77b4;" x="135.93019" xlink:href="#m617b897cd8" y="337.770057"/>
     <use style="fill:#1f77b4;stroke:#1f77b4;" x="229.390772" xlink:href="#m617b897cd8" y="266.479753"/>
     <use style="fill:#1f77b4;stroke:#1f77b4;" x="420.891021" xlink:href="#m617b897cd8" y="139.605273"/>
     <use style="fill:#1f77b4;stroke:#1f77b4;" x="375.198611" xlink:href="#m617b897cd8" y="175.722781"/>
     <use style="fill:#1f77b4;stroke:#1f77b4;" x="392.644281" xlink:href="#m617b897cd8" y="163.492652"/>
     <use style="fill:#1f77b4;stroke:#1f77b4;" x="257.870191" xlink:href="#m617b897cd8" y="254.106367"/>
     <use style="fill:#1f77b4;stroke:#1f77b4;" x="185.351892" xlink:href="#m617b897cd8" y="303.13456"/>
     <use style="fill:#1f77b4;stroke:#1f77b4;" x="457.668876" xlink:href="#m617b897cd8" y="110.76158"/>
     <use style="fill:#1f77b4;stroke:#1f77b4;" x="367.616667" xlink:href="#m617b897cd8" y="178.482459"/>
     <use style="fill:#1f77b4;stroke:#1f77b4;" x="407.450881" xlink:href="#m617b897cd8" y="152.54427"/>
     <use style="fill:#1f77b4;stroke:#1f77b4;" x="177.822936" xlink:href="#m617b897cd8" y="305.637185"/>
     <use style="fill:#1f77b4;stroke:#1f77b4;" x="250.048304" xlink:href="#m617b897cd8" y="263.186457"/>
     <use style="fill:#1f77b4;stroke:#1f77b4;" x="271.705752" xlink:href="#m617b897cd8" y="239.676978"/>
     <use style="fill:#1f77b4;stroke:#1f77b4;" x="491.801849" xlink:href="#m617b897cd8" y="72.273335"/>
     <use style="fill:#1f77b4;stroke:#1f77b4;" x="238.958201" xlink:href="#m617b897cd8" y="265.281631"/>
     <use style="fill:#1f77b4;stroke:#1f77b4;" x="496.142952" xlink:href="#m617b897cd8" y="79.912224"/>
     <use style="fill:#1f77b4;stroke:#1f77b4;" x="345.579958" xlink:href="#m617b897cd8" y="195.055394"/>
     <use style="fill:#1f77b4;stroke:#1f77b4;" x="419.780105" xlink:href="#m617b897cd8" y="142.284095"/>
     <use style="fill:#1f77b4;stroke:#1f77b4;" x="334.180636" xlink:href="#m617b897cd8" y="200.6704"/>
     <use style="fill:#1f77b4;stroke:#1f77b4;" x="369.45195" xlink:href="#m617b897cd8" y="185.298248"/>
     <use style="fill:#1f77b4;stroke:#1f77b4;" x="225.33758" xlink:href="#m617b897cd8" y="277.954867"/>
     <use style="fill:#1f77b4;stroke:#1f77b4;" x="108.630735" xlink:href="#m617b897cd8" y="351.308206"/>
     <use style="fill:#1f77b4;stroke:#1f77b4;" x="367.076476" xlink:href="#m617b897cd8" y="180.810783"/>
     <use style="fill:#1f77b4;stroke:#1f77b4;" x="166.186296" xlink:href="#m617b897cd8" y="317.031843"/>
     <use style="fill:#1f77b4;stroke:#1f77b4;" x="175.559354" xlink:href="#m617b897cd8" y="307.778709"/>
     <use style="fill:#1f77b4;stroke:#1f77b4;" x="283.950814" xlink:href="#m617b897cd8" y="232.86713"/>
     <use style="fill:#1f77b4;stroke:#1f77b4;" x="235.10333" xlink:href="#m617b897cd8" y="272.109207"/>
     <use style="fill:#1f77b4;stroke:#1f77b4;" x="375.751597" xlink:href="#m617b897cd8" y="175.348562"/>
     <use style="fill:#1f77b4;stroke:#1f77b4;" x="285.533258" xlink:href="#m617b897cd8" y="232.490833"/>
     <use style="fill:#1f77b4;stroke:#1f77b4;" x="283.074132" xlink:href="#m617b897cd8" y="239.089377"/>
     <use style="fill:#1f77b4;stroke:#1f77b4;" x="363.884419" xlink:href="#m617b897cd8" y="183.354492"/>
     <use style="fill:#1f77b4;stroke:#1f77b4;" x="284.426164" xlink:href="#m617b897cd8" y="233.333793"/>
     <use style="fill:#1f77b4;stroke:#1f77b4;" x="408.010545" xlink:href="#m617b897cd8" y="152.120021"/>
     <use style="fill:#1f77b4;stroke:#1f77b4;" x="150.06559" xlink:href="#m617b897cd8" y="327.551822"/>
     <use style="fill:#1f77b4;stroke:#1f77b4;" x="473.045232" xlink:href="#m617b897cd8" y="91.386991"/>
     <use style="fill:#1f77b4;stroke:#1f77b4;" x="423.370895" xlink:href="#m617b897cd8" y="140.208361"/>
     <use style="fill:#1f77b4;stroke:#1f77b4;" x="360.246374" xlink:href="#m617b897cd8" y="185.707921"/>
     <use style="fill:#1f77b4;stroke:#1f77b4;" x="344.320294" xlink:href="#m617b897cd8" y="193.971688"/>
     <use style="fill:#1f77b4;stroke:#1f77b4;" x="135.801119" xlink:href="#m617b897cd8" y="333.148099"/>
     <use style="fill:#1f77b4;stroke:#1f77b4;" x="323.092063" xlink:href="#m617b897cd8" y="208.464589"/>
     <use style="fill:#1f77b4;stroke:#1f77b4;" x="197.105802" xlink:href="#m617b897cd8" y="300.511999"/>
     <use style="fill:#1f77b4;stroke:#1f77b4;" x="211.855843" xlink:href="#m617b897cd8" y="288.805959"/>
     <use style="fill:#1f77b4;stroke:#1f77b4;" x="277.509811" xlink:href="#m617b897cd8" y="237.815719"/>
     <use style="fill:#1f77b4;stroke:#1f77b4;" x="416.174531" xlink:href="#m617b897cd8" y="141.620921"/>
     <use style="fill:#1f77b4;stroke:#1f77b4;" x="312.766241" xlink:href="#m617b897cd8" y="212.896376"/>
     <use style="fill:#1f77b4;stroke:#1f77b4;" x="274.231758" xlink:href="#m617b897cd8" y="240.509772"/>
     <use style="fill:#1f77b4;stroke:#1f77b4;" x="427.612595" xlink:href="#m617b897cd8" y="136.821947"/>
     <use style="fill:#1f77b4;stroke:#1f77b4;" x="227.581639" xlink:href="#m617b897cd8" y="276.26534"/>
     <use style="fill:#1f77b4;stroke:#1f77b4;" x="139.545933" xlink:href="#m617b897cd8" y="327.204348"/>
     <use style="fill:#1f77b4;stroke:#1f77b4;" x="403.622492" xlink:href="#m617b897cd8" y="160.805012"/>
     <use style="fill:#1f77b4;stroke:#1f77b4;" x="372.485676" xlink:href="#m617b897cd8" y="175.080377"/>
     <use style="fill:#1f77b4;stroke:#1f77b4;" x="438.014524" xlink:href="#m617b897cd8" y="127.992843"/>
     <use style="fill:#1f77b4;stroke:#1f77b4;" x="359.911412" xlink:href="#m617b897cd8" y="185.188933"/>
     <use style="fill:#1f77b4;stroke:#1f77b4;" x="270.724416" xlink:href="#m617b897cd8" y="242.253555"/>
     <use style="fill:#1f77b4;stroke:#1f77b4;" x="111.484465" xlink:href="#m617b897cd8" y="346.884398"/>
     <use style="fill:#1f77b4;stroke:#1f77b4;" x="354.769019" xlink:href="#m617b897cd8" y="188.752473"/>
     <use style="fill:#1f77b4;stroke:#1f77b4;" x="220.896131" xlink:href="#m617b897cd8" y="282.222427"/>
     <use style="fill:#1f77b4;stroke:#1f77b4;" x="485.167596" xlink:href="#m617b897cd8" y="86.611374"/>
     <use style="fill:#1f77b4;stroke:#1f77b4;" x="494.494342" xlink:href="#m617b897cd8" y="77.709065"/>
     <use style="fill:#1f77b4;stroke:#1f77b4;" x="470.228715" xlink:href="#m617b897cd8" y="98.958724"/>
     <use style="fill:#1f77b4;stroke:#1f77b4;" x="349.849594" xlink:href="#m617b897cd8" y="200.210806"/>
     <use style="fill:#1f77b4;stroke:#1f77b4;" x="150.979638" xlink:href="#m617b897cd8" y="330.020705"/>
     <use style="fill:#1f77b4;stroke:#1f77b4;" x="120.817761" xlink:href="#m617b897cd8" y="342.721561"/>
     <use style="fill:#1f77b4;stroke:#1f77b4;" x="180.442764" xlink:href="#m617b897cd8" y="308.140539"/>
     <use style="fill:#1f77b4;stroke:#1f77b4;" x="190.488473" xlink:href="#m617b897cd8" y="301.275068"/>
     <use style="fill:#1f77b4;stroke:#1f77b4;" x="226.239292" xlink:href="#m617b897cd8" y="277.293843"/>
     <use style="fill:#1f77b4;stroke:#1f77b4;" x="398.154465" xlink:href="#m617b897cd8" y="159.018815"/>
     <use style="fill:#1f77b4;stroke:#1f77b4;" x="238.896826" xlink:href="#m617b897cd8" y="268.267299"/>
     <use style="fill:#1f77b4;stroke:#1f77b4;" x="206.440143" xlink:href="#m617b897cd8" y="292.2416"/>
     <use style="fill:#1f77b4;stroke:#1f77b4;" x="493.436389" xlink:href="#m617b897cd8" y="77.456185"/>
     <use style="fill:#1f77b4;stroke:#1f77b4;" x="300.424069" xlink:href="#m617b897cd8" y="231.566616"/>
     <use style="fill:#1f77b4;stroke:#1f77b4;" x="337.853089" xlink:href="#m617b897cd8" y="198.879831"/>
     <use style="fill:#1f77b4;stroke:#1f77b4;" x="415.66095" xlink:href="#m617b897cd8" y="146.26558"/>
     <use style="fill:#1f77b4;stroke:#1f77b4;" x="217.460333" xlink:href="#m617b897cd8" y="284.863572"/>
     <use style="fill:#1f77b4;stroke:#1f77b4;" x="378.703201" xlink:href="#m617b897cd8" y="181.343581"/>
     <use style="fill:#1f77b4;stroke:#1f77b4;" x="394.262969" xlink:href="#m617b897cd8" y="159.063124"/>
     <use style="fill:#1f77b4;stroke:#1f77b4;" x="399.331345" xlink:href="#m617b897cd8" y="158.563375"/>
     <use style="fill:#1f77b4;stroke:#1f77b4;" x="402.701104" xlink:href="#m617b897cd8" y="153.731461"/>
     <use style="fill:#1f77b4;stroke:#1f77b4;" x="297.889805" xlink:href="#m617b897cd8" y="223.673207"/>
     <use style="fill:#1f77b4;stroke:#1f77b4;" x="346.020288" xlink:href="#m617b897cd8" y="193.372317"/>
     <use style="fill:#1f77b4;stroke:#1f77b4;" x="150.547057" xlink:href="#m617b897cd8" y="324.66574"/>
     <use style="fill:#1f77b4;stroke:#1f77b4;" x="122.813619" xlink:href="#m617b897cd8" y="343.244685"/>
     <use style="fill:#1f77b4;stroke:#1f77b4;" x="97.425834" xlink:href="#m617b897cd8" y="352.2748"/>
     <use style="fill:#1f77b4;stroke:#1f77b4;" x="400.014013" xlink:href="#m617b897cd8" y="164.82483"/>
     <use style="fill:#1f77b4;stroke:#1f77b4;" x="187.793533" xlink:href="#m617b897cd8" y="304.985927"/>
     <use style="fill:#1f77b4;stroke:#1f77b4;" x="92.290909" xlink:href="#m617b897cd8" y="356.937277"/>
     <use style="fill:#1f77b4;stroke:#1f77b4;" x="426.081281" xlink:href="#m617b897cd8" y="135.412156"/>
     <use style="fill:#1f77b4;stroke:#1f77b4;" x="418.653181" xlink:href="#m617b897cd8" y="149.200671"/>
     <use style="fill:#1f77b4;stroke:#1f77b4;" x="366.51151" xlink:href="#m617b897cd8" y="192.276914"/>
     <use style="fill:#1f77b4;stroke:#1f77b4;" x="237.322921" xlink:href="#m617b897cd8" y="269.398939"/>
     <use style="fill:#1f77b4;stroke:#1f77b4;" x="256.373948" xlink:href="#m617b897cd8" y="258.551236"/>
     <use style="fill:#1f77b4;stroke:#1f77b4;" x="411.03535" xlink:href="#m617b897cd8" y="147.264896"/>
     <use style="fill:#1f77b4;stroke:#1f77b4;" x="323.749192" xlink:href="#m617b897cd8" y="218.000447"/>
     <use style="fill:#1f77b4;stroke:#1f77b4;" x="176.741382" xlink:href="#m617b897cd8" y="312.115757"/>
     <use style="fill:#1f77b4;stroke:#1f77b4;" x="394.982901" xlink:href="#m617b897cd8" y="158.465611"/>
     <use style="fill:#1f77b4;stroke:#1f77b4;" x="104.015126" xlink:href="#m617b897cd8" y="349.127457"/>
     <use style="fill:#1f77b4;stroke:#1f77b4;" x="122.482429" xlink:href="#m617b897cd8" y="344.706218"/>
     <use style="fill:#1f77b4;stroke:#1f77b4;" x="319.578093" xlink:href="#m617b897cd8" y="210.457645"/>
     <use style="fill:#1f77b4;stroke:#1f77b4;" x="158.234241" xlink:href="#m617b897cd8" y="320.177692"/>
     <use style="fill:#1f77b4;stroke:#1f77b4;" x="359.440701" xlink:href="#m617b897cd8" y="184.043719"/>
     <use style="fill:#1f77b4;stroke:#1f77b4;" x="248.326339" xlink:href="#m617b897cd8" y="259.42187"/>
     <use style="fill:#1f77b4;stroke:#1f77b4;" x="238.532909" xlink:href="#m617b897cd8" y="269.570709"/>
    </g>
   </g>
   <g id="patch_3">
    <path d="M 72 384.48 
L 72 51.84 
" style="fill:none;stroke:#000000;stroke-linecap:square;stroke-linejoin:miter;stroke-width:0.8;"/>
   </g>
   <g id="patch_4">
    <path d="M 518.4 384.48 
L 518.4 51.84 
" style="fill:none;stroke:#000000;stroke-linecap:square;stroke-linejoin:miter;stroke-width:0.8;"/>
   </g>
   <g id="patch_5">
    <path d="M 72 384.48 
L 518.4 384.48 
" style="fill:none;stroke:#000000;stroke-linecap:square;stroke-linejoin:miter;stroke-width:0.8;"/>
   </g>
   <g id="patch_6">
    <path d="M 72 51.84 
L 518.4 51.84 
" style="fill:none;stroke:#000000;stroke-linecap:square;stroke-linejoin:miter;stroke-width:0.8;"/>
   </g>
  </g>
  <g id="axes_2">
   <g id="patch_7">
    <path d="M 374.4 345.6 
L 489.6 345.6 
L 489.6 259.2 
L 374.4 259.2 
z
" style="fill:#ffffff;"/>
   </g>
   <g id="patch_8">
    <path clip-path="url(#pb5b6df0665)" d="M 379.636364 345.6 
L 384.872727 345.6 
L 384.872727 343.49011 
L 379.636364 343.49011 
z
" style="fill:#1f77b4;"/>
   </g>
   <g id="patch_9">
    <path clip-path="url(#pb5b6df0665)" d="M 384.872727 345.6 
L 390.109091 345.6 
L 390.109091 345.6 
L 384.872727 345.6 
z
" style="fill:#1f77b4;"/>
   </g>
   <g id="patch_10">
    <path clip-path="url(#pb5b6df0665)" d="M 390.109091 345.6 
L 395.345455 345.6 
L 395.345455 341.38022 
L 390.109091 341.38022 
z
" style="fill:#1f77b4;"/>
   </g>
   <g id="patch_11">
    <path clip-path="url(#pb5b6df0665)" d="M 395.345455 345.6 
L 400.581818 345.6 
L 400.581818 337.16044 
L 395.345455 337.16044 
z
" style="fill:#1f77b4;"/>
   </g>
   <g id="patch_12">
    <path clip-path="url(#pb5b6df0665)" d="M 400.581818 345.6 
L 405.818182 345.6 
L 405.818182 343.49011 
L 400.581818 343.49011 
z
" style="fill:#1f77b4;"/>
   </g>
   <g id="patch_13">
    <path clip-path="url(#pb5b6df0665)" d="M 405.818182 345.6 
L 411.054545 345.6 
L 411.054545 339.27033 
L 405.818182 339.27033 
z
" style="fill:#1f77b4;"/>
   </g>
   <g id="patch_14">
    <path clip-path="url(#pb5b6df0665)" d="M 411.054545 345.6 
L 416.290909 345.6 
L 416.290909 337.16044 
L 411.054545 337.16044 
z
" style="fill:#1f77b4;"/>
   </g>
   <g id="patch_15">
    <path clip-path="url(#pb5b6df0665)" d="M 416.290909 345.6 
L 421.527273 345.6 
L 421.527273 326.610989 
L 416.290909 326.610989 
z
" style="fill:#1f77b4;"/>
   </g>
   <g id="patch_16">
    <path clip-path="url(#pb5b6df0665)" d="M 421.527273 345.6 
L 426.763636 345.6 
L 426.763636 326.610989 
L 421.527273 326.610989 
z
" style="fill:#1f77b4;"/>
   </g>
   <g id="patch_17">
    <path clip-path="url(#pb5b6df0665)" d="M 426.763636 345.6 
L 432 345.6 
L 432 318.171429 
L 426.763636 318.171429 
z
" style="fill:#1f77b4;"/>
   </g>
   <g id="patch_18">
    <path clip-path="url(#pb5b6df0665)" d="M 432 345.6 
L 437.236364 345.6 
L 437.236364 280.193407 
L 432 280.193407 
z
" style="fill:#1f77b4;"/>
   </g>
   <g id="patch_19">
    <path clip-path="url(#pb5b6df0665)" d="M 437.236364 345.6 
L 442.472727 345.6 
L 442.472727 297.072527 
L 437.236364 297.072527 
z
" style="fill:#1f77b4;"/>
   </g>
   <g id="patch_20">
    <path clip-path="url(#pb5b6df0665)" d="M 442.472727 345.6 
L 447.709091 345.6 
L 447.709091 263.314286 
L 442.472727 263.314286 
z
" style="fill:#1f77b4;"/>
   </g>
   <g id="patch_21">
    <path clip-path="url(#pb5b6df0665)" d="M 447.709091 345.6 
L 452.945455 345.6 
L 452.945455 292.852747 
L 447.709091 292.852747 
z
" style="fill:#1f77b4;"/>
   </g>
   <g id="patch_22">
    <path clip-path="url(#pb5b6df0665)" d="M 452.945455 345.6 
L 458.181818 345.6 
L 458.181818 305.512088 
L 452.945455 305.512088 
z
" style="fill:#1f77b4;"/>
   </g>
   <g id="patch_23">
    <path clip-path="url(#pb5b6df0665)" d="M 458.181818 345.6 
L 463.418182 345.6 
L 463.418182 341.38022 
L 458.181818 341.38022 
z
" style="fill:#1f77b4;"/>
   </g>
   <g id="patch_24">
    <path clip-path="url(#pb5b6df0665)" d="M 463.418182 345.6 
L 468.654545 345.6 
L 468.654545 339.27033 
L 463.418182 339.27033 
z
" style="fill:#1f77b4;"/>
   </g>
   <g id="patch_25">
    <path clip-path="url(#pb5b6df0665)" d="M 468.654545 345.6 
L 473.890909 345.6 
L 473.890909 330.830769 
L 468.654545 330.830769 
z
" style="fill:#1f77b4;"/>
   </g>
   <g id="patch_26">
    <path clip-path="url(#pb5b6df0665)" d="M 473.890909 345.6 
L 479.127273 345.6 
L 479.127273 339.27033 
L 473.890909 339.27033 
z
" style="fill:#1f77b4;"/>
   </g>
   <g id="patch_27">
    <path clip-path="url(#pb5b6df0665)" d="M 479.127273 345.6 
L 484.363636 345.6 
L 484.363636 341.38022 
L 479.127273 341.38022 
z
" style="fill:#1f77b4;"/>
   </g>
   <g id="matplotlib.axis_3">
    <g id="xtick_5">
     <g id="line2d_29">
      <g>
       <use style="stroke:#000000;stroke-width:0.8;" x="389.730487" xlink:href="#mfea7ea7ec6" y="345.6"/>
      </g>
     </g>
     <g id="text_16">
      <!-- 0.1 -->
      <defs>
       <path d="M 10.59375 35.5 
L 73.1875 35.5 
L 73.1875 27.203125 
L 10.59375 27.203125 
z
" id="DejaVuSans-2212"/>
      </defs>
      <g transform="translate(375.160799 361.718125)scale(0.12 -0.12)">
       <use xlink:href="#DejaVuSans-2212"/>
       <use x="83.789062" xlink:href="#DejaVuSans-30"/>
       <use x="147.412109" xlink:href="#DejaVuSans-2e"/>
       <use x="179.199219" xlink:href="#DejaVuSans-31"/>
      </g>
     </g>
    </g>
    <g id="xtick_6">
     <g id="line2d_30">
      <g>
       <use style="stroke:#000000;stroke-width:0.8;" x="432" xlink:href="#mfea7ea7ec6" y="345.6"/>
      </g>
     </g>
     <g id="text_17">
      <!-- 0.0 -->
      <g transform="translate(422.458125 361.718125)scale(0.12 -0.12)">
       <use xlink:href="#DejaVuSans-30"/>
       <use x="63.623047" xlink:href="#DejaVuSans-2e"/>
       <use x="95.410156" xlink:href="#DejaVuSans-30"/>
      </g>
     </g>
    </g>
    <g id="xtick_7">
     <g id="line2d_31">
      <g>
       <use style="stroke:#000000;stroke-width:0.8;" x="474.269513" xlink:href="#mfea7ea7ec6" y="345.6"/>
      </g>
     </g>
     <g id="text_18">
      <!-- 0.1 -->
      <g transform="translate(464.727638 361.718125)scale(0.12 -0.12)">
       <use xlink:href="#DejaVuSans-30"/>
       <use x="63.623047" xlink:href="#DejaVuSans-2e"/>
       <use x="95.410156" xlink:href="#DejaVuSans-31"/>
      </g>
     </g>
    </g>
   </g>
   <g id="matplotlib.axis_4">
    <g id="ytick_10">
     <g id="line2d_32">
      <g>
       <use style="stroke:#000000;stroke-width:0.8;" x="374.4" xlink:href="#m721cb96bc5" y="345.6"/>
      </g>
     </g>
     <g id="text_19">
      <!-- 0 -->
      <g transform="translate(359.765 350.159063)scale(0.12 -0.12)">
       <use xlink:href="#DejaVuSans-30"/>
      </g>
     </g>
    </g>
    <g id="ytick_11">
     <g id="line2d_33">
      <g>
       <use style="stroke:#000000;stroke-width:0.8;" x="374.4" xlink:href="#m721cb96bc5" y="303.402198"/>
      </g>
     </g>
     <g id="text_20">
      <!-- 20 -->
      <g transform="translate(352.13 307.96126)scale(0.12 -0.12)">
       <use xlink:href="#DejaVuSans-32"/>
       <use x="63.623047" xlink:href="#DejaVuSans-30"/>
      </g>
     </g>
    </g>
    <g id="ytick_12">
     <g id="line2d_34">
      <g>
       <use style="stroke:#000000;stroke-width:0.8;" x="374.4" xlink:href="#m721cb96bc5" y="261.204396"/>
      </g>
     </g>
     <g id="text_21">
      <!-- 40 -->
      <defs>
       <path d="M 37.796875 64.3125 
L 12.890625 25.390625 
L 37.796875 25.390625 
z
M 35.203125 72.90625 
L 47.609375 72.90625 
L 47.609375 25.390625 
L 58.015625 25.390625 
L 58.015625 17.1875 
L 47.609375 17.1875 
L 47.609375 0 
L 37.796875 0 
L 37.796875 17.1875 
L 4.890625 17.1875 
L 4.890625 26.703125 
z
" id="DejaVuSans-34"/>
      </defs>
      <g transform="translate(352.13 265.763458)scale(0.12 -0.12)">
       <use xlink:href="#DejaVuSans-34"/>
       <use x="63.623047" xlink:href="#DejaVuSans-30"/>
      </g>
     </g>
    </g>
   </g>
   <g id="patch_28">
    <path d="M 374.4 345.6 
L 374.4 259.2 
" style="fill:none;stroke:#000000;stroke-linecap:square;stroke-linejoin:miter;stroke-width:0.8;"/>
   </g>
   <g id="patch_29">
    <path d="M 489.6 345.6 
L 489.6 259.2 
" style="fill:none;stroke:#000000;stroke-linecap:square;stroke-linejoin:miter;stroke-width:0.8;"/>
   </g>
   <g id="patch_30">
    <path d="M 374.4 345.6 
L 489.6 345.6 
" style="fill:none;stroke:#000000;stroke-linecap:square;stroke-linejoin:miter;stroke-width:0.8;"/>
   </g>
   <g id="patch_31">
    <path d="M 374.4 259.2 
L 489.6 259.2 
" style="fill:none;stroke:#000000;stroke-linecap:square;stroke-linejoin:miter;stroke-width:0.8;"/>
   </g>
   <g id="text_22">
    <!-- Error -->
    <defs>
     <path d="M 30.609375 48.390625 
Q 23.390625 48.390625 19.1875 42.75 
Q 14.984375 37.109375 14.984375 27.296875 
Q 14.984375 17.484375 19.15625 11.84375 
Q 23.34375 6.203125 30.609375 6.203125 
Q 37.796875 6.203125 41.984375 11.859375 
Q 46.1875 17.53125 46.1875 27.296875 
Q 46.1875 37.015625 41.984375 42.703125 
Q 37.796875 48.390625 30.609375 48.390625 
z
M 30.609375 56 
Q 42.328125 56 49.015625 48.375 
Q 55.71875 40.765625 55.71875 27.296875 
Q 55.71875 13.875 49.015625 6.21875 
Q 42.328125 -1.421875 30.609375 -1.421875 
Q 18.84375 -1.421875 12.171875 6.21875 
Q 5.515625 13.875 5.515625 27.296875 
Q 5.515625 40.765625 12.171875 48.375 
Q 18.84375 56 30.609375 56 
z
" id="DejaVuSans-6f"/>
    </defs>
    <g transform="translate(409.710938 253.2)scale(0.18 -0.18)">
     <use xlink:href="#DejaVuSans-45"/>
     <use x="63.183594" xlink:href="#DejaVuSans-72"/>
     <use x="104.28125" xlink:href="#DejaVuSans-72"/>
     <use x="145.363281" xlink:href="#DejaVuSans-6f"/>
     <use x="206.544922" xlink:href="#DejaVuSans-72"/>
    </g>
   </g>
  </g>
  <g id="axes_3">
   <g id="patch_32">
    <path d="M 109.44 172.8 
L 224.64 172.8 
L 224.64 86.4 
L 109.44 86.4 
z
" style="fill:#ffffff;"/>
   </g>
   <g id="patch_33">
    <path clip-path="url(#peee94de67b)" d="M 114.676364 172.8 
L 119.912727 172.8 
L 119.912727 171.514286 
L 114.676364 171.514286 
z
" style="fill:#1f77b4;"/>
   </g>
   <g id="patch_34">
    <path clip-path="url(#peee94de67b)" d="M 119.912727 172.8 
L 125.149091 172.8 
L 125.149091 172.8 
L 119.912727 172.8 
z
" style="fill:#1f77b4;"/>
   </g>
   <g id="patch_35">
    <path clip-path="url(#peee94de67b)" d="M 125.149091 172.8 
L 130.385455 172.8 
L 130.385455 168.942857 
L 125.149091 168.942857 
z
" style="fill:#1f77b4;"/>
   </g>
   <g id="patch_36">
    <path clip-path="url(#peee94de67b)" d="M 130.385455 172.8 
L 135.621818 172.8 
L 135.621818 171.514286 
L 130.385455 171.514286 
z
" style="fill:#1f77b4;"/>
   </g>
   <g id="patch_37">
    <path clip-path="url(#peee94de67b)" d="M 135.621818 172.8 
L 140.858182 172.8 
L 140.858182 171.514286 
L 135.621818 171.514286 
z
" style="fill:#1f77b4;"/>
   </g>
   <g id="patch_38">
    <path clip-path="url(#peee94de67b)" d="M 140.858182 172.8 
L 146.094545 172.8 
L 146.094545 168.942857 
L 140.858182 168.942857 
z
" style="fill:#1f77b4;"/>
   </g>
   <g id="patch_39">
    <path clip-path="url(#peee94de67b)" d="M 146.094545 172.8 
L 151.330909 172.8 
L 151.330909 170.228571 
L 146.094545 170.228571 
z
" style="fill:#1f77b4;"/>
   </g>
   <g id="patch_40">
    <path clip-path="url(#peee94de67b)" d="M 151.330909 172.8 
L 156.567273 172.8 
L 156.567273 162.514286 
L 151.330909 162.514286 
z
" style="fill:#1f77b4;"/>
   </g>
   <g id="patch_41">
    <path clip-path="url(#peee94de67b)" d="M 156.567273 172.8 
L 161.803636 172.8 
L 161.803636 162.514286 
L 156.567273 162.514286 
z
" style="fill:#1f77b4;"/>
   </g>
   <g id="patch_42">
    <path clip-path="url(#peee94de67b)" d="M 161.803636 172.8 
L 167.04 172.8 
L 167.04 148.371429 
L 161.803636 148.371429 
z
" style="fill:#1f77b4;"/>
   </g>
   <g id="patch_43">
    <path clip-path="url(#peee94de67b)" d="M 167.04 172.8 
L 172.276364 172.8 
L 172.276364 120.085714 
L 167.04 120.085714 
z
" style="fill:#1f77b4;"/>
   </g>
   <g id="patch_44">
    <path clip-path="url(#peee94de67b)" d="M 172.276364 172.8 
L 177.512727 172.8 
L 177.512727 90.514286 
L 172.276364 90.514286 
z
" style="fill:#1f77b4;"/>
   </g>
   <g id="patch_45">
    <path clip-path="url(#peee94de67b)" d="M 177.512727 172.8 
L 182.749091 172.8 
L 182.749091 131.657143 
L 177.512727 131.657143 
z
" style="fill:#1f77b4;"/>
   </g>
   <g id="patch_46">
    <path clip-path="url(#peee94de67b)" d="M 182.749091 172.8 
L 187.985455 172.8 
L 187.985455 163.8 
L 182.749091 163.8 
z
" style="fill:#1f77b4;"/>
   </g>
   <g id="patch_47">
    <path clip-path="url(#peee94de67b)" d="M 187.985455 172.8 
L 193.221818 172.8 
L 193.221818 161.228571 
L 187.985455 161.228571 
z
" style="fill:#1f77b4;"/>
   </g>
   <g id="patch_48">
    <path clip-path="url(#peee94de67b)" d="M 193.221818 172.8 
L 198.458182 172.8 
L 198.458182 171.514286 
L 193.221818 171.514286 
z
" style="fill:#1f77b4;"/>
   </g>
   <g id="patch_49">
    <path clip-path="url(#peee94de67b)" d="M 198.458182 172.8 
L 203.694545 172.8 
L 203.694545 172.8 
L 198.458182 172.8 
z
" style="fill:#1f77b4;"/>
   </g>
   <g id="patch_50">
    <path clip-path="url(#peee94de67b)" d="M 203.694545 172.8 
L 208.930909 172.8 
L 208.930909 172.8 
L 203.694545 172.8 
z
" style="fill:#1f77b4;"/>
   </g>
   <g id="patch_51">
    <path clip-path="url(#peee94de67b)" d="M 208.930909 172.8 
L 214.167273 172.8 
L 214.167273 172.8 
L 208.930909 172.8 
z
" style="fill:#1f77b4;"/>
   </g>
   <g id="patch_52">
    <path clip-path="url(#peee94de67b)" d="M 214.167273 172.8 
L 219.403636 172.8 
L 219.403636 172.8 
L 214.167273 172.8 
z
" style="fill:#1f77b4;"/>
   </g>
   <g id="matplotlib.axis_5">
    <g id="xtick_8">
     <g id="line2d_35">
      <g>
       <use style="stroke:#000000;stroke-width:0.8;" x="109.07915" xlink:href="#mfea7ea7ec6" y="172.8"/>
      </g>
     </g>
     <g id="text_23">
      <!-- 10 -->
      <g transform="translate(96.416337 188.918125)scale(0.12 -0.12)">
       <use xlink:href="#DejaVuSans-2212"/>
       <use x="83.789062" xlink:href="#DejaVuSans-31"/>
       <use x="147.412109" xlink:href="#DejaVuSans-30"/>
      </g>
     </g>
    </g>
    <g id="xtick_9">
     <g id="line2d_36">
      <g>
       <use style="stroke:#000000;stroke-width:0.8;" x="138.059575" xlink:href="#mfea7ea7ec6" y="172.8"/>
      </g>
     </g>
     <g id="text_24">
      <!-- 5 -->
      <g transform="translate(129.214262 188.918125)scale(0.12 -0.12)">
       <use xlink:href="#DejaVuSans-2212"/>
       <use x="83.789062" xlink:href="#DejaVuSans-35"/>
      </g>
     </g>
    </g>
    <g id="xtick_10">
     <g id="line2d_37">
      <g>
       <use style="stroke:#000000;stroke-width:0.8;" x="167.04" xlink:href="#mfea7ea7ec6" y="172.8"/>
      </g>
     </g>
     <g id="text_25">
      <!-- 0 -->
      <g transform="translate(163.2225 188.918125)scale(0.12 -0.12)">
       <use xlink:href="#DejaVuSans-30"/>
      </g>
     </g>
    </g>
    <g id="xtick_11">
     <g id="line2d_38">
      <g>
       <use style="stroke:#000000;stroke-width:0.8;" x="196.020425" xlink:href="#mfea7ea7ec6" y="172.8"/>
      </g>
     </g>
     <g id="text_26">
      <!-- 5 -->
      <g transform="translate(192.202925 188.918125)scale(0.12 -0.12)">
       <use xlink:href="#DejaVuSans-35"/>
      </g>
     </g>
    </g>
    <g id="xtick_12">
     <g id="line2d_39">
      <g>
       <use style="stroke:#000000;stroke-width:0.8;" x="225.00085" xlink:href="#mfea7ea7ec6" y="172.8"/>
      </g>
     </g>
     <g id="text_27">
      <!-- 10 -->
      <g transform="translate(217.36585 188.918125)scale(0.12 -0.12)">
       <use xlink:href="#DejaVuSans-31"/>
       <use x="63.623047" xlink:href="#DejaVuSans-30"/>
      </g>
     </g>
    </g>
   </g>
   <g id="matplotlib.axis_6">
    <g id="ytick_13">
     <g id="line2d_40">
      <g>
       <use style="stroke:#000000;stroke-width:0.8;" x="109.44" xlink:href="#m721cb96bc5" y="172.8"/>
      </g>
     </g>
     <g id="text_28">
      <!-- 0 -->
      <g transform="translate(94.805 177.359063)scale(0.12 -0.12)">
       <use xlink:href="#DejaVuSans-30"/>
      </g>
     </g>
    </g>
    <g id="ytick_14">
     <g id="line2d_41">
      <g>
       <use style="stroke:#000000;stroke-width:0.8;" x="109.44" xlink:href="#m721cb96bc5" y="140.657143"/>
      </g>
     </g>
     <g id="text_29">
      <!-- 25 -->
      <g transform="translate(87.17 145.216205)scale(0.12 -0.12)">
       <use xlink:href="#DejaVuSans-32"/>
       <use x="63.623047" xlink:href="#DejaVuSans-35"/>
      </g>
     </g>
    </g>
    <g id="ytick_15">
     <g id="line2d_42">
      <g>
       <use style="stroke:#000000;stroke-width:0.8;" x="109.44" xlink:href="#m721cb96bc5" y="108.514286"/>
      </g>
     </g>
     <g id="text_30">
      <!-- 50 -->
      <g transform="translate(87.17 113.073348)scale(0.12 -0.12)">
       <use xlink:href="#DejaVuSans-35"/>
       <use x="63.623047" xlink:href="#DejaVuSans-30"/>
      </g>
     </g>
    </g>
   </g>
   <g id="patch_53">
    <path d="M 109.44 172.8 
L 109.44 86.4 
" style="fill:none;stroke:#000000;stroke-linecap:square;stroke-linejoin:miter;stroke-width:0.8;"/>
   </g>
   <g id="patch_54">
    <path d="M 224.64 172.8 
L 224.64 86.4 
" style="fill:none;stroke:#000000;stroke-linecap:square;stroke-linejoin:miter;stroke-width:0.8;"/>
   </g>
   <g id="patch_55">
    <path d="M 109.44 172.8 
L 224.64 172.8 
" style="fill:none;stroke:#000000;stroke-linecap:square;stroke-linejoin:miter;stroke-width:0.8;"/>
   </g>
   <g id="patch_56">
    <path d="M 109.44 86.4 
L 224.64 86.4 
" style="fill:none;stroke:#000000;stroke-linecap:square;stroke-linejoin:miter;stroke-width:0.8;"/>
   </g>
   <g id="text_31">
    <!-- Rel.Error (%) -->
    <defs>
     <path d="M 44.390625 34.1875 
Q 47.5625 33.109375 50.5625 29.59375 
Q 53.5625 26.078125 56.59375 19.921875 
L 66.609375 0 
L 56 0 
L 46.6875 18.703125 
Q 43.0625 26.03125 39.671875 28.421875 
Q 36.28125 30.8125 30.421875 30.8125 
L 19.671875 30.8125 
L 19.671875 0 
L 9.8125 0 
L 9.8125 72.90625 
L 32.078125 72.90625 
Q 44.578125 72.90625 50.734375 67.671875 
Q 56.890625 62.453125 56.890625 51.90625 
Q 56.890625 45.015625 53.6875 40.46875 
Q 50.484375 35.9375 44.390625 34.1875 
z
M 19.671875 64.796875 
L 19.671875 38.921875 
L 32.078125 38.921875 
Q 39.203125 38.921875 42.84375 42.21875 
Q 46.484375 45.515625 46.484375 51.90625 
Q 46.484375 58.296875 42.84375 61.546875 
Q 39.203125 64.796875 32.078125 64.796875 
z
" id="DejaVuSans-52"/>
     <path d="M 9.421875 75.984375 
L 18.40625 75.984375 
L 18.40625 0 
L 9.421875 0 
z
" id="DejaVuSans-6c"/>
     <path d="M 31 75.875 
Q 24.46875 64.65625 21.28125 53.65625 
Q 18.109375 42.671875 18.109375 31.390625 
Q 18.109375 20.125 21.3125 9.0625 
Q 24.515625 -2 31 -13.1875 
L 23.1875 -13.1875 
Q 15.875 -1.703125 12.234375 9.375 
Q 8.59375 20.453125 8.59375 31.390625 
Q 8.59375 42.28125 12.203125 53.3125 
Q 15.828125 64.359375 23.1875 75.875 
z
" id="DejaVuSans-28"/>
     <path d="M 72.703125 32.078125 
Q 68.453125 32.078125 66.03125 28.46875 
Q 63.625 24.859375 63.625 18.40625 
Q 63.625 12.0625 66.03125 8.421875 
Q 68.453125 4.78125 72.703125 4.78125 
Q 76.859375 4.78125 79.265625 8.421875 
Q 81.6875 12.0625 81.6875 18.40625 
Q 81.6875 24.8125 79.265625 28.4375 
Q 76.859375 32.078125 72.703125 32.078125 
z
M 72.703125 38.28125 
Q 80.421875 38.28125 84.953125 32.90625 
Q 89.5 27.546875 89.5 18.40625 
Q 89.5 9.28125 84.9375 3.921875 
Q 80.375 -1.421875 72.703125 -1.421875 
Q 64.890625 -1.421875 60.34375 3.921875 
Q 55.8125 9.28125 55.8125 18.40625 
Q 55.8125 27.59375 60.375 32.9375 
Q 64.9375 38.28125 72.703125 38.28125 
z
M 22.3125 68.015625 
Q 18.109375 68.015625 15.6875 64.375 
Q 13.28125 60.75 13.28125 54.390625 
Q 13.28125 47.953125 15.671875 44.328125 
Q 18.0625 40.71875 22.3125 40.71875 
Q 26.5625 40.71875 28.96875 44.328125 
Q 31.390625 47.953125 31.390625 54.390625 
Q 31.390625 60.6875 28.953125 64.34375 
Q 26.515625 68.015625 22.3125 68.015625 
z
M 66.40625 74.21875 
L 74.21875 74.21875 
L 28.609375 -1.421875 
L 20.796875 -1.421875 
z
M 22.3125 74.21875 
Q 30.03125 74.21875 34.609375 68.875 
Q 39.203125 63.53125 39.203125 54.390625 
Q 39.203125 45.171875 34.640625 39.84375 
Q 30.078125 34.515625 22.3125 34.515625 
Q 14.546875 34.515625 10.03125 39.859375 
Q 5.515625 45.21875 5.515625 54.390625 
Q 5.515625 63.484375 10.046875 68.84375 
Q 14.59375 74.21875 22.3125 74.21875 
z
" id="DejaVuSans-25"/>
     <path d="M 8.015625 75.875 
L 15.828125 75.875 
Q 23.140625 64.359375 26.78125 53.3125 
Q 30.421875 42.28125 30.421875 31.390625 
Q 30.421875 20.453125 26.78125 9.375 
Q 23.140625 -1.703125 15.828125 -13.1875 
L 8.015625 -13.1875 
Q 14.5 -2 17.703125 9.0625 
Q 20.90625 20.125 20.90625 31.390625 
Q 20.90625 42.671875 17.703125 53.65625 
Q 14.5 64.65625 8.015625 75.875 
z
" id="DejaVuSans-29"/>
    </defs>
    <g transform="translate(109.17 80.4)scale(0.18 -0.18)">
     <use xlink:href="#DejaVuSans-52"/>
     <use x="69.419922" xlink:href="#DejaVuSans-65"/>
     <use x="130.943359" xlink:href="#DejaVuSans-6c"/>
     <use x="158.726562" xlink:href="#DejaVuSans-2e"/>
     <use x="190.513672" xlink:href="#DejaVuSans-45"/>
     <use x="253.697266" xlink:href="#DejaVuSans-72"/>
     <use x="294.794922" xlink:href="#DejaVuSans-72"/>
     <use x="335.876953" xlink:href="#DejaVuSans-6f"/>
     <use x="397.058594" xlink:href="#DejaVuSans-72"/>
     <use x="438.171875" xlink:href="#DejaVuSans-20"/>
     <use x="469.958984" xlink:href="#DejaVuSans-28"/>
     <use x="508.972656" xlink:href="#DejaVuSans-25"/>
     <use x="603.992188" xlink:href="#DejaVuSans-29"/>
    </g>
   </g>
  </g>
 </g>
 <defs>
  <clipPath id="pba83222dd9">
   <rect height="332.64" width="446.4" x="72" y="51.84"/>
  </clipPath>
  <clipPath id="pb5b6df0665">
   <rect height="86.4" width="115.2" x="374.4" y="259.2"/>
  </clipPath>
  <clipPath id="peee94de67b">
   <rect height="86.4" width="115.2" x="109.44" y="86.4"/>
  </clipPath>
 </defs>
</svg>
