<?xml version="1.0" encoding="utf-8" standalone="no"?>
<!DOCTYPE svg PUBLIC "-//W3C//DTD SVG 1.1//EN"
  "http://www.w3.org/Graphics/SVG/1.1/DTD/svg11.dtd">
<!-- Created with matplotlib (http://matplotlib.org/) -->
<svg height="432pt" version="1.1" viewBox="0 0 576 432" width="576pt" xmlns="http://www.w3.org/2000/svg" xmlns:xlink="http://www.w3.org/1999/xlink">
 <defs>
  <style type="text/css">
*{stroke-linecap:butt;stroke-linejoin:round;}
  </style>
 </defs>
 <g id="figure_1">
  <g id="patch_1">
   <path d="M 0 432 
L 576 432 
L 576 0 
L 0 0 
z
" style="fill:#ffffff;"/>
  </g>
  <g id="axes_1">
   <g id="patch_2">
    <path d="M 72 384.48 
L 518.4 384.48 
L 518.4 51.84 
L 72 51.84 
z
" style="fill:#ffffff;"/>
   </g>
   <g id="matplotlib.axis_1">
    <g id="xtick_1">
     <g id="line2d_1">
      <path clip-path="url(#p5a2e836450)" d="M 81.957686 384.48 
L 81.957686 51.84 
" style="fill:none;stroke:#b0b0b0;stroke-linecap:square;stroke-width:0.8;"/>
     </g>
     <g id="line2d_2">
      <defs>
       <path d="M 0 0 
L 0 3.5 
" id="m4b22e2bceb" style="stroke:#000000;stroke-width:0.8;"/>
      </defs>
      <g>
       <use style="stroke:#000000;stroke-width:0.8;" x="81.957686" xlink:href="#m4b22e2bceb" y="384.48"/>
      </g>
     </g>
     <g id="text_1">
      <!-- 0 -->
      <defs>
       <path d="M 31.78125 66.40625 
Q 24.171875 66.40625 20.328125 58.90625 
Q 16.5 51.421875 16.5 36.375 
Q 16.5 21.390625 20.328125 13.890625 
Q 24.171875 6.390625 31.78125 6.390625 
Q 39.453125 6.390625 43.28125 13.890625 
Q 47.125 21.390625 47.125 36.375 
Q 47.125 51.421875 43.28125 58.90625 
Q 39.453125 66.40625 31.78125 66.40625 
z
M 31.78125 74.21875 
Q 44.046875 74.21875 50.515625 64.515625 
Q 56.984375 54.828125 56.984375 36.375 
Q 56.984375 17.96875 50.515625 8.265625 
Q 44.046875 -1.421875 31.78125 -1.421875 
Q 19.53125 -1.421875 13.0625 8.265625 
Q 6.59375 17.96875 6.59375 36.375 
Q 6.59375 54.828125 13.0625 64.515625 
Q 19.53125 74.21875 31.78125 74.21875 
z
" id="DejaVuSans-30"/>
      </defs>
      <g transform="translate(76.231436 405.157188)scale(0.18 -0.18)">
       <use xlink:href="#DejaVuSans-30"/>
      </g>
     </g>
    </g>
    <g id="xtick_2">
     <g id="line2d_3">
      <path clip-path="url(#p5a2e836450)" d="M 165.577662 384.48 
L 165.577662 51.84 
" style="fill:none;stroke:#b0b0b0;stroke-linecap:square;stroke-width:0.8;"/>
     </g>
     <g id="line2d_4">
      <g>
       <use style="stroke:#000000;stroke-width:0.8;" x="165.577662" xlink:href="#m4b22e2bceb" y="384.48"/>
      </g>
     </g>
     <g id="text_2">
      <!-- 2 -->
      <defs>
       <path d="M 19.1875 8.296875 
L 53.609375 8.296875 
L 53.609375 0 
L 7.328125 0 
L 7.328125 8.296875 
Q 12.9375 14.109375 22.625 23.890625 
Q 32.328125 33.6875 34.8125 36.53125 
Q 39.546875 41.84375 41.421875 45.53125 
Q 43.3125 49.21875 43.3125 52.78125 
Q 43.3125 58.59375 39.234375 62.25 
Q 35.15625 65.921875 28.609375 65.921875 
Q 23.96875 65.921875 18.8125 64.3125 
Q 13.671875 62.703125 7.8125 59.421875 
L 7.8125 69.390625 
Q 13.765625 71.78125 18.9375 73 
Q 24.125 74.21875 28.421875 74.21875 
Q 39.75 74.21875 46.484375 68.546875 
Q 53.21875 62.890625 53.21875 53.421875 
Q 53.21875 48.921875 51.53125 44.890625 
Q 49.859375 40.875 45.40625 35.40625 
Q 44.1875 33.984375 37.640625 27.21875 
Q 31.109375 20.453125 19.1875 8.296875 
z
" id="DejaVuSans-32"/>
      </defs>
      <g transform="translate(159.851412 405.157188)scale(0.18 -0.18)">
       <use xlink:href="#DejaVuSans-32"/>
      </g>
     </g>
    </g>
    <g id="xtick_3">
     <g id="line2d_5">
      <path clip-path="url(#p5a2e836450)" d="M 249.197639 384.48 
L 249.197639 51.84 
" style="fill:none;stroke:#b0b0b0;stroke-linecap:square;stroke-width:0.8;"/>
     </g>
     <g id="line2d_6">
      <g>
       <use style="stroke:#000000;stroke-width:0.8;" x="249.197639" xlink:href="#m4b22e2bceb" y="384.48"/>
      </g>
     </g>
     <g id="text_3">
      <!-- 4 -->
      <defs>
       <path d="M 37.796875 64.3125 
L 12.890625 25.390625 
L 37.796875 25.390625 
z
M 35.203125 72.90625 
L 47.609375 72.90625 
L 47.609375 25.390625 
L 58.015625 25.390625 
L 58.015625 17.1875 
L 47.609375 17.1875 
L 47.609375 0 
L 37.796875 0 
L 37.796875 17.1875 
L 4.890625 17.1875 
L 4.890625 26.703125 
z
" id="DejaVuSans-34"/>
      </defs>
      <g transform="translate(243.471389 405.157188)scale(0.18 -0.18)">
       <use xlink:href="#DejaVuSans-34"/>
      </g>
     </g>
    </g>
    <g id="xtick_4">
     <g id="line2d_7">
      <path clip-path="url(#p5a2e836450)" d="M 332.817616 384.48 
L 332.817616 51.84 
" style="fill:none;stroke:#b0b0b0;stroke-linecap:square;stroke-width:0.8;"/>
     </g>
     <g id="line2d_8">
      <g>
       <use style="stroke:#000000;stroke-width:0.8;" x="332.817616" xlink:href="#m4b22e2bceb" y="384.48"/>
      </g>
     </g>
     <g id="text_4">
      <!-- 6 -->
      <defs>
       <path d="M 33.015625 40.375 
Q 26.375 40.375 22.484375 35.828125 
Q 18.609375 31.296875 18.609375 23.390625 
Q 18.609375 15.53125 22.484375 10.953125 
Q 26.375 6.390625 33.015625 6.390625 
Q 39.65625 6.390625 43.53125 10.953125 
Q 47.40625 15.53125 47.40625 23.390625 
Q 47.40625 31.296875 43.53125 35.828125 
Q 39.65625 40.375 33.015625 40.375 
z
M 52.59375 71.296875 
L 52.59375 62.3125 
Q 48.875 64.0625 45.09375 64.984375 
Q 41.3125 65.921875 37.59375 65.921875 
Q 27.828125 65.921875 22.671875 59.328125 
Q 17.53125 52.734375 16.796875 39.40625 
Q 19.671875 43.65625 24.015625 45.921875 
Q 28.375 48.1875 33.59375 48.1875 
Q 44.578125 48.1875 50.953125 41.515625 
Q 57.328125 34.859375 57.328125 23.390625 
Q 57.328125 12.15625 50.6875 5.359375 
Q 44.046875 -1.421875 33.015625 -1.421875 
Q 20.359375 -1.421875 13.671875 8.265625 
Q 6.984375 17.96875 6.984375 36.375 
Q 6.984375 53.65625 15.1875 63.9375 
Q 23.390625 74.21875 37.203125 74.21875 
Q 40.921875 74.21875 44.703125 73.484375 
Q 48.484375 72.75 52.59375 71.296875 
z
" id="DejaVuSans-36"/>
      </defs>
      <g transform="translate(327.091366 405.157188)scale(0.18 -0.18)">
       <use xlink:href="#DejaVuSans-36"/>
      </g>
     </g>
    </g>
    <g id="xtick_5">
     <g id="line2d_9">
      <path clip-path="url(#p5a2e836450)" d="M 416.437593 384.48 
L 416.437593 51.84 
" style="fill:none;stroke:#b0b0b0;stroke-linecap:square;stroke-width:0.8;"/>
     </g>
     <g id="line2d_10">
      <g>
       <use style="stroke:#000000;stroke-width:0.8;" x="416.437593" xlink:href="#m4b22e2bceb" y="384.48"/>
      </g>
     </g>
     <g id="text_5">
      <!-- 8 -->
      <defs>
       <path d="M 31.78125 34.625 
Q 24.75 34.625 20.71875 30.859375 
Q 16.703125 27.09375 16.703125 20.515625 
Q 16.703125 13.921875 20.71875 10.15625 
Q 24.75 6.390625 31.78125 6.390625 
Q 38.8125 6.390625 42.859375 10.171875 
Q 46.921875 13.96875 46.921875 20.515625 
Q 46.921875 27.09375 42.890625 30.859375 
Q 38.875 34.625 31.78125 34.625 
z
M 21.921875 38.8125 
Q 15.578125 40.375 12.03125 44.71875 
Q 8.5 49.078125 8.5 55.328125 
Q 8.5 64.0625 14.71875 69.140625 
Q 20.953125 74.21875 31.78125 74.21875 
Q 42.671875 74.21875 48.875 69.140625 
Q 55.078125 64.0625 55.078125 55.328125 
Q 55.078125 49.078125 51.53125 44.71875 
Q 48 40.375 41.703125 38.8125 
Q 48.828125 37.15625 52.796875 32.3125 
Q 56.78125 27.484375 56.78125 20.515625 
Q 56.78125 9.90625 50.3125 4.234375 
Q 43.84375 -1.421875 31.78125 -1.421875 
Q 19.734375 -1.421875 13.25 4.234375 
Q 6.78125 9.90625 6.78125 20.515625 
Q 6.78125 27.484375 10.78125 32.3125 
Q 14.796875 37.15625 21.921875 38.8125 
z
M 18.3125 54.390625 
Q 18.3125 48.734375 21.84375 45.5625 
Q 25.390625 42.390625 31.78125 42.390625 
Q 38.140625 42.390625 41.71875 45.5625 
Q 45.3125 48.734375 45.3125 54.390625 
Q 45.3125 60.0625 41.71875 63.234375 
Q 38.140625 66.40625 31.78125 66.40625 
Q 25.390625 66.40625 21.84375 63.234375 
Q 18.3125 60.0625 18.3125 54.390625 
z
" id="DejaVuSans-38"/>
      </defs>
      <g transform="translate(410.711343 405.157188)scale(0.18 -0.18)">
       <use xlink:href="#DejaVuSans-38"/>
      </g>
     </g>
    </g>
    <g id="xtick_6">
     <g id="line2d_11">
      <path clip-path="url(#p5a2e836450)" d="M 500.05757 384.48 
L 500.05757 51.84 
" style="fill:none;stroke:#b0b0b0;stroke-linecap:square;stroke-width:0.8;"/>
     </g>
     <g id="line2d_12">
      <g>
       <use style="stroke:#000000;stroke-width:0.8;" x="500.05757" xlink:href="#m4b22e2bceb" y="384.48"/>
      </g>
     </g>
     <g id="text_6">
      <!-- 10 -->
      <defs>
       <path d="M 12.40625 8.296875 
L 28.515625 8.296875 
L 28.515625 63.921875 
L 10.984375 60.40625 
L 10.984375 69.390625 
L 28.421875 72.90625 
L 38.28125 72.90625 
L 38.28125 8.296875 
L 54.390625 8.296875 
L 54.390625 0 
L 12.40625 0 
z
" id="DejaVuSans-31"/>
      </defs>
      <g transform="translate(488.60507 405.157188)scale(0.18 -0.18)">
       <use xlink:href="#DejaVuSans-31"/>
       <use x="63.623047" xlink:href="#DejaVuSans-30"/>
      </g>
     </g>
    </g>
    <g id="text_7">
     <!-- True Energy -->
     <defs>
      <path d="M -0.296875 72.90625 
L 61.375 72.90625 
L 61.375 64.59375 
L 35.5 64.59375 
L 35.5 0 
L 25.59375 0 
L 25.59375 64.59375 
L -0.296875 64.59375 
z
" id="DejaVuSans-54"/>
      <path d="M 41.109375 46.296875 
Q 39.59375 47.171875 37.8125 47.578125 
Q 36.03125 48 33.890625 48 
Q 26.265625 48 22.1875 43.046875 
Q 18.109375 38.09375 18.109375 28.8125 
L 18.109375 0 
L 9.078125 0 
L 9.078125 54.6875 
L 18.109375 54.6875 
L 18.109375 46.1875 
Q 20.953125 51.171875 25.484375 53.578125 
Q 30.03125 56 36.53125 56 
Q 37.453125 56 38.578125 55.875 
Q 39.703125 55.765625 41.0625 55.515625 
z
" id="DejaVuSans-72"/>
      <path d="M 8.5 21.578125 
L 8.5 54.6875 
L 17.484375 54.6875 
L 17.484375 21.921875 
Q 17.484375 14.15625 20.5 10.265625 
Q 23.53125 6.390625 29.59375 6.390625 
Q 36.859375 6.390625 41.078125 11.03125 
Q 45.3125 15.671875 45.3125 23.6875 
L 45.3125 54.6875 
L 54.296875 54.6875 
L 54.296875 0 
L 45.3125 0 
L 45.3125 8.40625 
Q 42.046875 3.421875 37.71875 1 
Q 33.40625 -1.421875 27.6875 -1.421875 
Q 18.265625 -1.421875 13.375 4.4375 
Q 8.5 10.296875 8.5 21.578125 
z
M 31.109375 56 
z
" id="DejaVuSans-75"/>
      <path d="M 56.203125 29.59375 
L 56.203125 25.203125 
L 14.890625 25.203125 
Q 15.484375 15.921875 20.484375 11.0625 
Q 25.484375 6.203125 34.421875 6.203125 
Q 39.59375 6.203125 44.453125 7.46875 
Q 49.3125 8.734375 54.109375 11.28125 
L 54.109375 2.78125 
Q 49.265625 0.734375 44.1875 -0.34375 
Q 39.109375 -1.421875 33.890625 -1.421875 
Q 20.796875 -1.421875 13.15625 6.1875 
Q 5.515625 13.8125 5.515625 26.8125 
Q 5.515625 40.234375 12.765625 48.109375 
Q 20.015625 56 32.328125 56 
Q 43.359375 56 49.78125 48.890625 
Q 56.203125 41.796875 56.203125 29.59375 
z
M 47.21875 32.234375 
Q 47.125 39.59375 43.09375 43.984375 
Q 39.0625 48.390625 32.421875 48.390625 
Q 24.90625 48.390625 20.390625 44.140625 
Q 15.875 39.890625 15.1875 32.171875 
z
" id="DejaVuSans-65"/>
      <path id="DejaVuSans-20"/>
      <path d="M 9.8125 72.90625 
L 55.90625 72.90625 
L 55.90625 64.59375 
L 19.671875 64.59375 
L 19.671875 43.015625 
L 54.390625 43.015625 
L 54.390625 34.71875 
L 19.671875 34.71875 
L 19.671875 8.296875 
L 56.78125 8.296875 
L 56.78125 0 
L 9.8125 0 
z
" id="DejaVuSans-45"/>
      <path d="M 54.890625 33.015625 
L 54.890625 0 
L 45.90625 0 
L 45.90625 32.71875 
Q 45.90625 40.484375 42.875 44.328125 
Q 39.84375 48.1875 33.796875 48.1875 
Q 26.515625 48.1875 22.3125 43.546875 
Q 18.109375 38.921875 18.109375 30.90625 
L 18.109375 0 
L 9.078125 0 
L 9.078125 54.6875 
L 18.109375 54.6875 
L 18.109375 46.1875 
Q 21.34375 51.125 25.703125 53.5625 
Q 30.078125 56 35.796875 56 
Q 45.21875 56 50.046875 50.171875 
Q 54.890625 44.34375 54.890625 33.015625 
z
" id="DejaVuSans-6e"/>
      <path d="M 45.40625 27.984375 
Q 45.40625 37.75 41.375 43.109375 
Q 37.359375 48.484375 30.078125 48.484375 
Q 22.859375 48.484375 18.828125 43.109375 
Q 14.796875 37.75 14.796875 27.984375 
Q 14.796875 18.265625 18.828125 12.890625 
Q 22.859375 7.515625 30.078125 7.515625 
Q 37.359375 7.515625 41.375 12.890625 
Q 45.40625 18.265625 45.40625 27.984375 
z
M 54.390625 6.78125 
Q 54.390625 -7.171875 48.1875 -13.984375 
Q 42 -20.796875 29.203125 -20.796875 
Q 24.46875 -20.796875 20.265625 -20.09375 
Q 16.0625 -19.390625 12.109375 -17.921875 
L 12.109375 -9.1875 
Q 16.0625 -11.328125 19.921875 -12.34375 
Q 23.78125 -13.375 27.78125 -13.375 
Q 36.625 -13.375 41.015625 -8.765625 
Q 45.40625 -4.15625 45.40625 5.171875 
L 45.40625 9.625 
Q 42.625 4.78125 38.28125 2.390625 
Q 33.9375 0 27.875 0 
Q 17.828125 0 11.671875 7.65625 
Q 5.515625 15.328125 5.515625 27.984375 
Q 5.515625 40.671875 11.671875 48.328125 
Q 17.828125 56 27.875 56 
Q 33.9375 56 38.28125 53.609375 
Q 42.625 51.21875 45.40625 46.390625 
L 45.40625 54.6875 
L 54.390625 54.6875 
z
" id="DejaVuSans-67"/>
      <path d="M 32.171875 -5.078125 
Q 28.375 -14.84375 24.75 -17.8125 
Q 21.140625 -20.796875 15.09375 -20.796875 
L 7.90625 -20.796875 
L 7.90625 -13.28125 
L 13.1875 -13.28125 
Q 16.890625 -13.28125 18.9375 -11.515625 
Q 21 -9.765625 23.484375 -3.21875 
L 25.09375 0.875 
L 2.984375 54.6875 
L 12.5 54.6875 
L 29.59375 11.921875 
L 46.6875 54.6875 
L 56.203125 54.6875 
z
" id="DejaVuSans-79"/>
     </defs>
     <g transform="translate(234.148438 428.0975)scale(0.2 -0.2)">
      <use xlink:href="#DejaVuSans-54"/>
      <use x="60.865234" xlink:href="#DejaVuSans-72"/>
      <use x="101.978516" xlink:href="#DejaVuSans-75"/>
      <use x="165.357422" xlink:href="#DejaVuSans-65"/>
      <use x="226.880859" xlink:href="#DejaVuSans-20"/>
      <use x="258.667969" xlink:href="#DejaVuSans-45"/>
      <use x="321.851562" xlink:href="#DejaVuSans-6e"/>
      <use x="385.230469" xlink:href="#DejaVuSans-65"/>
      <use x="446.753906" xlink:href="#DejaVuSans-72"/>
      <use x="487.851562" xlink:href="#DejaVuSans-67"/>
      <use x="551.328125" xlink:href="#DejaVuSans-79"/>
     </g>
    </g>
   </g>
   <g id="matplotlib.axis_2">
    <g id="ytick_1">
     <g id="line2d_13">
      <path clip-path="url(#p5a2e836450)" d="M 72 377.059918 
L 518.4 377.059918 
" style="fill:none;stroke:#b0b0b0;stroke-linecap:square;stroke-width:0.8;"/>
     </g>
     <g id="line2d_14">
      <defs>
       <path d="M 0 0 
L -3.5 0 
" id="me864fa229a" style="stroke:#000000;stroke-width:0.8;"/>
      </defs>
      <g>
       <use style="stroke:#000000;stroke-width:0.8;" x="72" xlink:href="#me864fa229a" y="377.059918"/>
      </g>
     </g>
     <g id="text_8">
      <!-- 0 -->
      <g transform="translate(53.5475 383.898512)scale(0.18 -0.18)">
       <use xlink:href="#DejaVuSans-30"/>
      </g>
     </g>
    </g>
    <g id="ytick_2">
     <g id="line2d_15">
      <path clip-path="url(#p5a2e836450)" d="M 72 314.749548 
L 518.4 314.749548 
" style="fill:none;stroke:#b0b0b0;stroke-linecap:square;stroke-width:0.8;"/>
     </g>
     <g id="line2d_16">
      <g>
       <use style="stroke:#000000;stroke-width:0.8;" x="72" xlink:href="#me864fa229a" y="314.749548"/>
      </g>
     </g>
     <g id="text_9">
      <!-- 2 -->
      <g transform="translate(53.5475 321.588142)scale(0.18 -0.18)">
       <use xlink:href="#DejaVuSans-32"/>
      </g>
     </g>
    </g>
    <g id="ytick_3">
     <g id="line2d_17">
      <path clip-path="url(#p5a2e836450)" d="M 72 252.439178 
L 518.4 252.439178 
" style="fill:none;stroke:#b0b0b0;stroke-linecap:square;stroke-width:0.8;"/>
     </g>
     <g id="line2d_18">
      <g>
       <use style="stroke:#000000;stroke-width:0.8;" x="72" xlink:href="#me864fa229a" y="252.439178"/>
      </g>
     </g>
     <g id="text_10">
      <!-- 4 -->
      <g transform="translate(53.5475 259.277772)scale(0.18 -0.18)">
       <use xlink:href="#DejaVuSans-34"/>
      </g>
     </g>
    </g>
    <g id="ytick_4">
     <g id="line2d_19">
      <path clip-path="url(#p5a2e836450)" d="M 72 190.128808 
L 518.4 190.128808 
" style="fill:none;stroke:#b0b0b0;stroke-linecap:square;stroke-width:0.8;"/>
     </g>
     <g id="line2d_20">
      <g>
       <use style="stroke:#000000;stroke-width:0.8;" x="72" xlink:href="#me864fa229a" y="190.128808"/>
      </g>
     </g>
     <g id="text_11">
      <!-- 6 -->
      <g transform="translate(53.5475 196.967402)scale(0.18 -0.18)">
       <use xlink:href="#DejaVuSans-36"/>
      </g>
     </g>
    </g>
    <g id="ytick_5">
     <g id="line2d_21">
      <path clip-path="url(#p5a2e836450)" d="M 72 127.818439 
L 518.4 127.818439 
" style="fill:none;stroke:#b0b0b0;stroke-linecap:square;stroke-width:0.8;"/>
     </g>
     <g id="line2d_22">
      <g>
       <use style="stroke:#000000;stroke-width:0.8;" x="72" xlink:href="#me864fa229a" y="127.818439"/>
      </g>
     </g>
     <g id="text_12">
      <!-- 8 -->
      <g transform="translate(53.5475 134.657032)scale(0.18 -0.18)">
       <use xlink:href="#DejaVuSans-38"/>
      </g>
     </g>
    </g>
    <g id="ytick_6">
     <g id="line2d_23">
      <path clip-path="url(#p5a2e836450)" d="M 72 65.508069 
L 518.4 65.508069 
" style="fill:none;stroke:#b0b0b0;stroke-linecap:square;stroke-width:0.8;"/>
     </g>
     <g id="line2d_24">
      <g>
       <use style="stroke:#000000;stroke-width:0.8;" x="72" xlink:href="#me864fa229a" y="65.508069"/>
      </g>
     </g>
     <g id="text_13">
      <!-- 10 -->
      <g transform="translate(42.095 72.346662)scale(0.18 -0.18)">
       <use xlink:href="#DejaVuSans-31"/>
       <use x="63.623047" xlink:href="#DejaVuSans-30"/>
      </g>
     </g>
    </g>
    <g id="text_14">
     <!-- Predicted Energy -->
     <defs>
      <path d="M 19.671875 64.796875 
L 19.671875 37.40625 
L 32.078125 37.40625 
Q 38.96875 37.40625 42.71875 40.96875 
Q 46.484375 44.53125 46.484375 51.125 
Q 46.484375 57.671875 42.71875 61.234375 
Q 38.96875 64.796875 32.078125 64.796875 
z
M 9.8125 72.90625 
L 32.078125 72.90625 
Q 44.34375 72.90625 50.609375 67.359375 
Q 56.890625 61.8125 56.890625 51.125 
Q 56.890625 40.328125 50.609375 34.8125 
Q 44.34375 29.296875 32.078125 29.296875 
L 19.671875 29.296875 
L 19.671875 0 
L 9.8125 0 
z
" id="DejaVuSans-50"/>
      <path d="M 45.40625 46.390625 
L 45.40625 75.984375 
L 54.390625 75.984375 
L 54.390625 0 
L 45.40625 0 
L 45.40625 8.203125 
Q 42.578125 3.328125 38.25 0.953125 
Q 33.9375 -1.421875 27.875 -1.421875 
Q 17.96875 -1.421875 11.734375 6.484375 
Q 5.515625 14.40625 5.515625 27.296875 
Q 5.515625 40.1875 11.734375 48.09375 
Q 17.96875 56 27.875 56 
Q 33.9375 56 38.25 53.625 
Q 42.578125 51.265625 45.40625 46.390625 
z
M 14.796875 27.296875 
Q 14.796875 17.390625 18.875 11.75 
Q 22.953125 6.109375 30.078125 6.109375 
Q 37.203125 6.109375 41.296875 11.75 
Q 45.40625 17.390625 45.40625 27.296875 
Q 45.40625 37.203125 41.296875 42.84375 
Q 37.203125 48.484375 30.078125 48.484375 
Q 22.953125 48.484375 18.875 42.84375 
Q 14.796875 37.203125 14.796875 27.296875 
z
" id="DejaVuSans-64"/>
      <path d="M 9.421875 54.6875 
L 18.40625 54.6875 
L 18.40625 0 
L 9.421875 0 
z
M 9.421875 75.984375 
L 18.40625 75.984375 
L 18.40625 64.59375 
L 9.421875 64.59375 
z
" id="DejaVuSans-69"/>
      <path d="M 48.78125 52.59375 
L 48.78125 44.1875 
Q 44.96875 46.296875 41.140625 47.34375 
Q 37.3125 48.390625 33.40625 48.390625 
Q 24.65625 48.390625 19.8125 42.84375 
Q 14.984375 37.3125 14.984375 27.296875 
Q 14.984375 17.28125 19.8125 11.734375 
Q 24.65625 6.203125 33.40625 6.203125 
Q 37.3125 6.203125 41.140625 7.25 
Q 44.96875 8.296875 48.78125 10.40625 
L 48.78125 2.09375 
Q 45.015625 0.34375 40.984375 -0.53125 
Q 36.96875 -1.421875 32.421875 -1.421875 
Q 20.0625 -1.421875 12.78125 6.34375 
Q 5.515625 14.109375 5.515625 27.296875 
Q 5.515625 40.671875 12.859375 48.328125 
Q 20.21875 56 33.015625 56 
Q 37.15625 56 41.109375 55.140625 
Q 45.0625 54.296875 48.78125 52.59375 
z
" id="DejaVuSans-63"/>
      <path d="M 18.3125 70.21875 
L 18.3125 54.6875 
L 36.8125 54.6875 
L 36.8125 47.703125 
L 18.3125 47.703125 
L 18.3125 18.015625 
Q 18.3125 11.328125 20.140625 9.421875 
Q 21.96875 7.515625 27.59375 7.515625 
L 36.8125 7.515625 
L 36.8125 0 
L 27.59375 0 
Q 17.1875 0 13.234375 3.875 
Q 9.28125 7.765625 9.28125 18.015625 
L 9.28125 47.703125 
L 2.6875 47.703125 
L 2.6875 54.6875 
L 9.28125 54.6875 
L 9.28125 70.21875 
z
" id="DejaVuSans-74"/>
     </defs>
     <g transform="translate(33.935625 303.86)rotate(-90)scale(0.2 -0.2)">
      <use xlink:href="#DejaVuSans-50"/>
      <use x="60.287109" xlink:href="#DejaVuSans-72"/>
      <use x="101.369141" xlink:href="#DejaVuSans-65"/>
      <use x="162.892578" xlink:href="#DejaVuSans-64"/>
      <use x="226.369141" xlink:href="#DejaVuSans-69"/>
      <use x="254.152344" xlink:href="#DejaVuSans-63"/>
      <use x="309.132812" xlink:href="#DejaVuSans-74"/>
      <use x="348.341797" xlink:href="#DejaVuSans-65"/>
      <use x="409.865234" xlink:href="#DejaVuSans-64"/>
      <use x="473.341797" xlink:href="#DejaVuSans-20"/>
      <use x="505.128906" xlink:href="#DejaVuSans-45"/>
      <use x="568.3125" xlink:href="#DejaVuSans-6e"/>
      <use x="631.691406" xlink:href="#DejaVuSans-65"/>
      <use x="693.214844" xlink:href="#DejaVuSans-72"/>
      <use x="734.3125" xlink:href="#DejaVuSans-67"/>
      <use x="797.789062" xlink:href="#DejaVuSans-79"/>
     </g>
    </g>
   </g>
   <g id="line2d_25">
    <path clip-path="url(#p5a2e836450)" d="M 118.133917 350.102791 
L 492.309228 71.281834 
L 363.918066 166.953957 
L 363.918066 166.953957 
L 185.027478 300.256299 
L 185.027478 300.256299 
L 185.027478 300.256299 
L 486.704105 75.458554 
L 295.186729 218.169889 
L 295.186729 218.169889 
L 137.891294 335.380359 
L 137.891294 335.380359 
L 137.891294 335.380359 
L 472.262143 86.220145 
L 253.547896 249.197536 
L 253.547896 249.197536 
L 120.640919 348.23467 
L 120.640919 348.23467 
L 120.640919 348.23467 
L 434.196719 114.585026 
L 205.854859 284.736541 
L 205.854859 284.736541 
L 103.755095 360.817333 
L 103.755095 360.817333 
L 103.755095 360.817333 
L 405.624524 135.875919 
L 299.132851 215.229392 
L 299.132851 215.229392 
L 103.281447 361.170276 
L 112.832927 354.052884 
L 112.832927 354.052884 
L 379.96805 154.99413 
L 193.861445 293.673568 
L 193.861445 293.673568 
L 111.459507 355.076303 
L 111.459507 355.076303 
L 111.459507 355.076303 
L 491.258771 72.064594 
L 332.036622 190.710775 
L 332.036622 190.710775 
L 98.152073 364.992488 
L 98.152073 364.992488 
L 98.152073 364.992488 
L 483.499782 77.846291 
L 181.636947 302.782791 
L 181.636947 302.782791 
L 92.290909 369.36 
L 92.290909 369.36 
L 92.290909 369.36 
L 498.109091 66.96 
L 147.333959 328.34405 
" style="fill:none;stroke:#ff0000;stroke-dasharray:11.1,4.8;stroke-dashoffset:0;stroke-width:3;"/>
   </g>
   <g id="line2d_26">
    <defs>
     <path d="M 0 0.5 
C 0.132602 0.5 0.25979 0.447317 0.353553 0.353553 
C 0.447317 0.25979 0.5 0.132602 0.5 0 
C 0.5 -0.132602 0.447317 -0.25979 0.353553 -0.353553 
C 0.25979 -0.447317 0.132602 -0.5 0 -0.5 
C -0.132602 -0.5 -0.25979 -0.447317 -0.353553 -0.353553 
C -0.447317 -0.25979 -0.5 -0.132602 -0.5 0 
C -0.5 0.132602 -0.447317 0.25979 -0.353553 0.353553 
C -0.25979 0.447317 -0.132602 0.5 0 0.5 
z
" id="m0945f1e52a" style="stroke:#1f77b4;"/>
    </defs>
    <g clip-path="url(#p5a2e836450)">
     <use style="fill:#1f77b4;stroke:#1f77b4;" x="118.133917" xlink:href="#m0945f1e52a" y="350.161312"/>
     <use style="fill:#1f77b4;stroke:#1f77b4;" x="236.402198" xlink:href="#m0945f1e52a" y="260.820824"/>
     <use style="fill:#1f77b4;stroke:#1f77b4;" x="430.975569" xlink:href="#m0945f1e52a" y="113.508296"/>
     <use style="fill:#1f77b4;stroke:#1f77b4;" x="492.309228" xlink:href="#m0945f1e52a" y="70.998352"/>
     <use style="fill:#1f77b4;stroke:#1f77b4;" x="309.420612" xlink:href="#m0945f1e52a" y="206.472121"/>
     <use style="fill:#1f77b4;stroke:#1f77b4;" x="439.784417" xlink:href="#m0945f1e52a" y="106.876749"/>
     <use style="fill:#1f77b4;stroke:#1f77b4;" x="363.918066" xlink:href="#m0945f1e52a" y="165.671755"/>
     <use style="fill:#1f77b4;stroke:#1f77b4;" x="185.027478" xlink:href="#m0945f1e52a" y="299.694529"/>
     <use style="fill:#1f77b4;stroke:#1f77b4;" x="469.188206" xlink:href="#m0945f1e52a" y="86.247896"/>
     <use style="fill:#1f77b4;stroke:#1f77b4;" x="332.223467" xlink:href="#m0945f1e52a" y="189.36707"/>
     <use style="fill:#1f77b4;stroke:#1f77b4;" x="192.758774" xlink:href="#m0945f1e52a" y="294.450282"/>
     <use style="fill:#1f77b4;stroke:#1f77b4;" x="372.154794" xlink:href="#m0945f1e52a" y="159.483227"/>
     <use style="fill:#1f77b4;stroke:#1f77b4;" x="486.704105" xlink:href="#m0945f1e52a" y="74.560928"/>
     <use style="fill:#1f77b4;stroke:#1f77b4;" x="277.144245" xlink:href="#m0945f1e52a" y="231.360041"/>
     <use style="fill:#1f77b4;stroke:#1f77b4;" x="345.446667" xlink:href="#m0945f1e52a" y="179.163231"/>
     <use style="fill:#1f77b4;stroke:#1f77b4;" x="295.186729" xlink:href="#m0945f1e52a" y="217.457918"/>
     <use style="fill:#1f77b4;stroke:#1f77b4;" x="137.891294" xlink:href="#m0945f1e52a" y="334.73222"/>
     <use style="fill:#1f77b4;stroke:#1f77b4;" x="472.262143" xlink:href="#m0945f1e52a" y="84.221574"/>
     <use style="fill:#1f77b4;stroke:#1f77b4;" x="369.050493" xlink:href="#m0945f1e52a" y="161.845813"/>
     <use style="fill:#1f77b4;stroke:#1f77b4;" x="253.547896" xlink:href="#m0945f1e52a" y="247.927931"/>
     <use style="fill:#1f77b4;stroke:#1f77b4;" x="120.640919" xlink:href="#m0945f1e52a" y="348.130608"/>
     <use style="fill:#1f77b4;stroke:#1f77b4;" x="386.701961" xlink:href="#m0945f1e52a" y="148.164583"/>
     <use style="fill:#1f77b4;stroke:#1f77b4;" x="434.196719" xlink:href="#m0945f1e52a" y="111.146289"/>
     <use style="fill:#1f77b4;stroke:#1f77b4;" x="176.669336" xlink:href="#m0945f1e52a" y="305.537203"/>
     <use style="fill:#1f77b4;stroke:#1f77b4;" x="353.831983" xlink:href="#m0945f1e52a" y="172.942495"/>
     <use style="fill:#1f77b4;stroke:#1f77b4;" x="393.796723" xlink:href="#m0945f1e52a" y="142.728479"/>
     <use style="fill:#1f77b4;stroke:#1f77b4;" x="205.854859" xlink:href="#m0945f1e52a" y="285.395818"/>
     <use style="fill:#1f77b4;stroke:#1f77b4;" x="103.755095" xlink:href="#m0945f1e52a" y="360.712684"/>
     <use style="fill:#1f77b4;stroke:#1f77b4;" x="210.890105" xlink:href="#m0945f1e52a" y="281.38772"/>
     <use style="fill:#1f77b4;stroke:#1f77b4;" x="321.300507" xlink:href="#m0945f1e52a" y="197.50455"/>
     <use style="fill:#1f77b4;stroke:#1f77b4;" x="145.924529" xlink:href="#m0945f1e52a" y="328.838612"/>
     <use style="fill:#1f77b4;stroke:#1f77b4;" x="405.624524" xlink:href="#m0945f1e52a" y="133.131565"/>
     <use style="fill:#1f77b4;stroke:#1f77b4;" x="145.627435" xlink:href="#m0945f1e52a" y="329.052968"/>
     <use style="fill:#1f77b4;stroke:#1f77b4;" x="231.184323" xlink:href="#m0945f1e52a" y="264.923836"/>
     <use style="fill:#1f77b4;stroke:#1f77b4;" x="256.851283" xlink:href="#m0945f1e52a" y="245.533152"/>
     <use style="fill:#1f77b4;stroke:#1f77b4;" x="192.951003" xlink:href="#m0945f1e52a" y="294.314276"/>
     <use style="fill:#1f77b4;stroke:#1f77b4;" x="149.457197" xlink:href="#m0945f1e52a" y="326.029753"/>
     <use style="fill:#1f77b4;stroke:#1f77b4;" x="299.132851" xlink:href="#m0945f1e52a" y="214.360556"/>
     <use style="fill:#1f77b4;stroke:#1f77b4;" x="103.281447" xlink:href="#m0945f1e52a" y="361.060357"/>
     <use style="fill:#1f77b4;stroke:#1f77b4;" x="198.422361" xlink:href="#m0945f1e52a" y="290.486261"/>
     <use style="fill:#1f77b4;stroke:#1f77b4;" x="203.266984" xlink:href="#m0945f1e52a" y="287.166016"/>
     <use style="fill:#1f77b4;stroke:#1f77b4;" x="112.832927" xlink:href="#m0945f1e52a" y="354.189243"/>
     <use style="fill:#1f77b4;stroke:#1f77b4;" x="379.96805" xlink:href="#m0945f1e52a" y="153.434256"/>
     <use style="fill:#1f77b4;stroke:#1f77b4;" x="128.499695" xlink:href="#m0945f1e52a" y="341.900869"/>
     <use style="fill:#1f77b4;stroke:#1f77b4;" x="193.861445" xlink:href="#m0945f1e52a" y="293.671429"/>
     <use style="fill:#1f77b4;stroke:#1f77b4;" x="111.459507" xlink:href="#m0945f1e52a" y="355.159314"/>
     <use style="fill:#1f77b4;stroke:#1f77b4;" x="234.112515" xlink:href="#m0945f1e52a" y="262.60304"/>
     <use style="fill:#1f77b4;stroke:#1f77b4;" x="491.258771" xlink:href="#m0945f1e52a" y="71.715895"/>
     <use style="fill:#1f77b4;stroke:#1f77b4;" x="227.275283" xlink:href="#m0945f1e52a" y="268.083199"/>
     <use style="fill:#1f77b4;stroke:#1f77b4;" x="410.65649" xlink:href="#m0945f1e52a" y="129.26162"/>
     <use style="fill:#1f77b4;stroke:#1f77b4;" x="399.705679" xlink:href="#m0945f1e52a" y="137.933231"/>
     <use style="fill:#1f77b4;stroke:#1f77b4;" x="143.170867" xlink:href="#m0945f1e52a" y="330.835697"/>
     <use style="fill:#1f77b4;stroke:#1f77b4;" x="231.884924" xlink:href="#m0945f1e52a" y="264.362653"/>
     <use style="fill:#1f77b4;stroke:#1f77b4;" x="332.036622" xlink:href="#m0945f1e52a" y="189.514411"/>
     <use style="fill:#1f77b4;stroke:#1f77b4;" x="98.152073" xlink:href="#m0945f1e52a" y="364.85257"/>
     <use style="fill:#1f77b4;stroke:#1f77b4;" x="368.550843" xlink:href="#m0945f1e52a" y="162.228131"/>
     <use style="fill:#1f77b4;stroke:#1f77b4;" x="324.870626" xlink:href="#m0945f1e52a" y="194.84939"/>
     <use style="fill:#1f77b4;stroke:#1f77b4;" x="193.08374" xlink:href="#m0945f1e52a" y="294.220379"/>
     <use style="fill:#1f77b4;stroke:#1f77b4;" x="317.238015" xlink:href="#m0945f1e52a" y="200.562692"/>
     <use style="fill:#1f77b4;stroke:#1f77b4;" x="277.827451" xlink:href="#m0945f1e52a" y="230.829461"/>
     <use style="fill:#1f77b4;stroke:#1f77b4;" x="339.855021" xlink:href="#m0945f1e52a" y="183.421644"/>
     <use style="fill:#1f77b4;stroke:#1f77b4;" x="260.114359" xlink:href="#m0945f1e52a" y="243.193623"/>
     <use style="fill:#1f77b4;stroke:#1f77b4;" x="399.616782" xlink:href="#m0945f1e52a" y="138.102574"/>
     <use style="fill:#1f77b4;stroke:#1f77b4;" x="483.499782" xlink:href="#m0945f1e52a" y="76.758301"/>
     <use style="fill:#1f77b4;stroke:#1f77b4;" x="259.273116" xlink:href="#m0945f1e52a" y="243.7941"/>
     <use style="fill:#1f77b4;stroke:#1f77b4;" x="197.466264" xlink:href="#m0945f1e52a" y="291.149163"/>
     <use style="fill:#1f77b4;stroke:#1f77b4;" x="342.549267" xlink:href="#m0945f1e52a" y="181.356043"/>
     <use style="fill:#1f77b4;stroke:#1f77b4;" x="331.209793" xlink:href="#m0945f1e52a" y="190.167493"/>
     <use style="fill:#1f77b4;stroke:#1f77b4;" x="111.238461" xlink:href="#m0945f1e52a" y="355.316"/>
     <use style="fill:#1f77b4;stroke:#1f77b4;" x="275.882819" xlink:href="#m0945f1e52a" y="232.226827"/>
     <use style="fill:#1f77b4;stroke:#1f77b4;" x="285.047913" xlink:href="#m0945f1e52a" y="225.299794"/>
     <use style="fill:#1f77b4;stroke:#1f77b4;" x="181.636947" xlink:href="#m0945f1e52a" y="302.040521"/>
     <use style="fill:#1f77b4;stroke:#1f77b4;" x="92.290909" xlink:href="#m0945f1e52a" y="369.248326"/>
     <use style="fill:#1f77b4;stroke:#1f77b4;" x="449.947794" xlink:href="#m0945f1e52a" y="99.517319"/>
     <use style="fill:#1f77b4;stroke:#1f77b4;" x="332.062619" xlink:href="#m0945f1e52a" y="189.49391"/>
     <use style="fill:#1f77b4;stroke:#1f77b4;" x="360.63922" xlink:href="#m0945f1e52a" y="168.007259"/>
     <use style="fill:#1f77b4;stroke:#1f77b4;" x="488.379134" xlink:href="#m0945f1e52a" y="73.446999"/>
     <use style="fill:#1f77b4;stroke:#1f77b4;" x="441.179298" xlink:href="#m0945f1e52a" y="105.934763"/>
     <use style="fill:#1f77b4;stroke:#1f77b4;" x="264.761491" xlink:href="#m0945f1e52a" y="239.90355"/>
     <use style="fill:#1f77b4;stroke:#1f77b4;" x="332.863789" xlink:href="#m0945f1e52a" y="188.86274"/>
     <use style="fill:#1f77b4;stroke:#1f77b4;" x="381.588872" xlink:href="#m0945f1e52a" y="152.218608"/>
     <use style="fill:#1f77b4;stroke:#1f77b4;" x="345.576035" xlink:href="#m0945f1e52a" y="179.066043"/>
     <use style="fill:#1f77b4;stroke:#1f77b4;" x="474.791215" xlink:href="#m0945f1e52a" y="82.440227"/>
     <use style="fill:#1f77b4;stroke:#1f77b4;" x="431.626498" xlink:href="#m0945f1e52a" y="113.062707"/>
     <use style="fill:#1f77b4;stroke:#1f77b4;" x="301.862365" xlink:href="#m0945f1e52a" y="212.241697"/>
     <use style="fill:#1f77b4;stroke:#1f77b4;" x="473.359531" xlink:href="#m0945f1e52a" y="83.444073"/>
     <use style="fill:#1f77b4;stroke:#1f77b4;" x="307.575664" xlink:href="#m0945f1e52a" y="207.867333"/>
     <use style="fill:#1f77b4;stroke:#1f77b4;" x="491.40347" xlink:href="#m0945f1e52a" y="71.539347"/>
     <use style="fill:#1f77b4;stroke:#1f77b4;" x="336.866691" xlink:href="#m0945f1e52a" y="185.732948"/>
     <use style="fill:#1f77b4;stroke:#1f77b4;" x="292.407673" xlink:href="#m0945f1e52a" y="219.662957"/>
     <use style="fill:#1f77b4;stroke:#1f77b4;" x="244.616159" xlink:href="#m0945f1e52a" y="254.544133"/>
     <use style="fill:#1f77b4;stroke:#1f77b4;" x="451.648661" xlink:href="#m0945f1e52a" y="98.404906"/>
     <use style="fill:#1f77b4;stroke:#1f77b4;" x="139.786233" xlink:href="#m0945f1e52a" y="333.323133"/>
     <use style="fill:#1f77b4;stroke:#1f77b4;" x="229.795662" xlink:href="#m0945f1e52a" y="266.040595"/>
     <use style="fill:#1f77b4;stroke:#1f77b4;" x="193.731798" xlink:href="#m0945f1e52a" y="293.762808"/>
     <use style="fill:#1f77b4;stroke:#1f77b4;" x="459.639951" xlink:href="#m0945f1e52a" y="92.814196"/>
     <use style="fill:#1f77b4;stroke:#1f77b4;" x="236.315265" xlink:href="#m0945f1e52a" y="260.888195"/>
     <use style="fill:#1f77b4;stroke:#1f77b4;" x="275.203342" xlink:href="#m0945f1e52a" y="232.687881"/>
     <use style="fill:#1f77b4;stroke:#1f77b4;" x="190.797536" xlink:href="#m0945f1e52a" y="295.77567"/>
     <use style="fill:#1f77b4;stroke:#1f77b4;" x="342.763964" xlink:href="#m0945f1e52a" y="181.192182"/>
     <use style="fill:#1f77b4;stroke:#1f77b4;" x="145.307324" xlink:href="#m0945f1e52a" y="329.284186"/>
     <use style="fill:#1f77b4;stroke:#1f77b4;" x="498.109091" xlink:href="#m0945f1e52a" y="67.418128"/>
     <use style="fill:#1f77b4;stroke:#1f77b4;" x="269.143466" xlink:href="#m0945f1e52a" y="236.846299"/>
     <use style="fill:#1f77b4;stroke:#1f77b4;" x="471.025957" xlink:href="#m0945f1e52a" y="85.054606"/>
     <use style="fill:#1f77b4;stroke:#1f77b4;" x="466.061755" xlink:href="#m0945f1e52a" y="88.338306"/>
     <use style="fill:#1f77b4;stroke:#1f77b4;" x="150.293332" xlink:href="#m0945f1e52a" y="325.364362"/>
     <use style="fill:#1f77b4;stroke:#1f77b4;" x="112.977629" xlink:href="#m0945f1e52a" y="354.087368"/>
     <use style="fill:#1f77b4;stroke:#1f77b4;" x="422.782681" xlink:href="#m0945f1e52a" y="119.805852"/>
     <use style="fill:#1f77b4;stroke:#1f77b4;" x="287.074145" xlink:href="#m0945f1e52a" y="223.772989"/>
     <use style="fill:#1f77b4;stroke:#1f77b4;" x="142.969428" xlink:href="#m0945f1e52a" y="330.982726"/>
     <use style="fill:#1f77b4;stroke:#1f77b4;" x="280.351638" xlink:href="#m0945f1e52a" y="228.880375"/>
     <use style="fill:#1f77b4;stroke:#1f77b4;" x="475.694501" xlink:href="#m0945f1e52a" y="81.768441"/>
     <use style="fill:#1f77b4;stroke:#1f77b4;" x="444.837975" xlink:href="#m0945f1e52a" y="103.359989"/>
     <use style="fill:#1f77b4;stroke:#1f77b4;" x="123.235684" xlink:href="#m0945f1e52a" y="346.049809"/>
     <use style="fill:#1f77b4;stroke:#1f77b4;" x="383.865667" xlink:href="#m0945f1e52a" y="150.376158"/>
     <use style="fill:#1f77b4;stroke:#1f77b4;" x="310.640171" xlink:href="#m0945f1e52a" y="205.554454"/>
     <use style="fill:#1f77b4;stroke:#1f77b4;" x="495.044444" xlink:href="#m0945f1e52a" y="69.203546"/>
     <use style="fill:#1f77b4;stroke:#1f77b4;" x="387.186798" xlink:href="#m0945f1e52a" y="147.781611"/>
     <use style="fill:#1f77b4;stroke:#1f77b4;" x="282.300457" xlink:href="#m0945f1e52a" y="227.387367"/>
     <use style="fill:#1f77b4;stroke:#1f77b4;" x="243.859028" xlink:href="#m0945f1e52a" y="255.115173"/>
     <use style="fill:#1f77b4;stroke:#1f77b4;" x="234.91209" xlink:href="#m0945f1e52a" y="261.978912"/>
     <use style="fill:#1f77b4;stroke:#1f77b4;" x="241.041834" xlink:href="#m0945f1e52a" y="257.254556"/>
     <use style="fill:#1f77b4;stroke:#1f77b4;" x="303.369927" xlink:href="#m0945f1e52a" y="211.079456"/>
     <use style="fill:#1f77b4;stroke:#1f77b4;" x="347.113343" xlink:href="#m0945f1e52a" y="177.914291"/>
     <use style="fill:#1f77b4;stroke:#1f77b4;" x="225.86837" xlink:href="#m0945f1e52a" y="269.232225"/>
     <use style="fill:#1f77b4;stroke:#1f77b4;" x="148.752964" xlink:href="#m0945f1e52a" y="326.591969"/>
     <use style="fill:#1f77b4;stroke:#1f77b4;" x="464.901966" xlink:href="#m0945f1e52a" y="89.063247"/>
     <use style="fill:#1f77b4;stroke:#1f77b4;" x="168.182254" xlink:href="#m0945f1e52a" y="311.679626"/>
     <use style="fill:#1f77b4;stroke:#1f77b4;" x="462.610219" xlink:href="#m0945f1e52a" y="90.644187"/>
     <use style="fill:#1f77b4;stroke:#1f77b4;" x="212.166394" xlink:href="#m0945f1e52a" y="280.384513"/>
     <use style="fill:#1f77b4;stroke:#1f77b4;" x="155.319891" xlink:href="#m0945f1e52a" y="321.414009"/>
     <use style="fill:#1f77b4;stroke:#1f77b4;" x="257.530841" xlink:href="#m0945f1e52a" y="245.043634"/>
     <use style="fill:#1f77b4;stroke:#1f77b4;" x="323.256403" xlink:href="#m0945f1e52a" y="196.046201"/>
     <use style="fill:#1f77b4;stroke:#1f77b4;" x="394.387065" xlink:href="#m0945f1e52a" y="142.256179"/>
     <use style="fill:#1f77b4;stroke:#1f77b4;" x="167.088225" xlink:href="#m0945f1e52a" y="312.487307"/>
     <use style="fill:#1f77b4;stroke:#1f77b4;" x="496.089877" xlink:href="#m0945f1e52a" y="68.505494"/>
     <use style="fill:#1f77b4;stroke:#1f77b4;" x="119.35296" xlink:href="#m0945f1e52a" y="349.171475"/>
     <use style="fill:#1f77b4;stroke:#1f77b4;" x="163.015705" xlink:href="#m0945f1e52a" y="315.526581"/>
     <use style="fill:#1f77b4;stroke:#1f77b4;" x="446.025795" xlink:href="#m0945f1e52a" y="102.433572"/>
     <use style="fill:#1f77b4;stroke:#1f77b4;" x="228.292147" xlink:href="#m0945f1e52a" y="267.256651"/>
     <use style="fill:#1f77b4;stroke:#1f77b4;" x="171.157097" xlink:href="#m0945f1e52a" y="309.501974"/>
     <use style="fill:#1f77b4;stroke:#1f77b4;" x="477.231888" xlink:href="#m0945f1e52a" y="80.830584"/>
     <use style="fill:#1f77b4;stroke:#1f77b4;" x="194.036229" xlink:href="#m0945f1e52a" y="293.548273"/>
     <use style="fill:#1f77b4;stroke:#1f77b4;" x="490.994731" xlink:href="#m0945f1e52a" y="71.7525"/>
     <use style="fill:#1f77b4;stroke:#1f77b4;" x="368.375222" xlink:href="#m0945f1e52a" y="162.362622"/>
     <use style="fill:#1f77b4;stroke:#1f77b4;" x="252.737315" xlink:href="#m0945f1e52a" y="248.519332"/>
     <use style="fill:#1f77b4;stroke:#1f77b4;" x="155.196538" xlink:href="#m0945f1e52a" y="321.509964"/>
     <use style="fill:#1f77b4;stroke:#1f77b4;" x="275.616447" xlink:href="#m0945f1e52a" y="232.407445"/>
     <use style="fill:#1f77b4;stroke:#1f77b4;" x="337.500454" xlink:href="#m0945f1e52a" y="185.240963"/>
     <use style="fill:#1f77b4;stroke:#1f77b4;" x="419.446897" xlink:href="#m0945f1e52a" y="122.25548"/>
     <use style="fill:#1f77b4;stroke:#1f77b4;" x="97.436185" xlink:href="#m0945f1e52a" y="365.386857"/>
     <use style="fill:#1f77b4;stroke:#1f77b4;" x="311.977894" xlink:href="#m0945f1e52a" y="204.551945"/>
     <use style="fill:#1f77b4;stroke:#1f77b4;" x="484.674843" xlink:href="#m0945f1e52a" y="75.954416"/>
     <use style="fill:#1f77b4;stroke:#1f77b4;" x="479.13882" xlink:href="#m0945f1e52a" y="79.577634"/>
     <use style="fill:#1f77b4;stroke:#1f77b4;" x="338.415403" xlink:href="#m0945f1e52a" y="184.532453"/>
     <use style="fill:#1f77b4;stroke:#1f77b4;" x="422.778375" xlink:href="#m0945f1e52a" y="119.797503"/>
     <use style="fill:#1f77b4;stroke:#1f77b4;" x="225.606443" xlink:href="#m0945f1e52a" y="269.446842"/>
     <use style="fill:#1f77b4;stroke:#1f77b4;" x="252.060649" xlink:href="#m0945f1e52a" y="249.014362"/>
     <use style="fill:#1f77b4;stroke:#1f77b4;" x="339.031861" xlink:href="#m0945f1e52a" y="184.056127"/>
     <use style="fill:#1f77b4;stroke:#1f77b4;" x="368.044016" xlink:href="#m0945f1e52a" y="162.642746"/>
     <use style="fill:#1f77b4;stroke:#1f77b4;" x="492.253884" xlink:href="#m0945f1e52a" y="70.988102"/>
     <use style="fill:#1f77b4;stroke:#1f77b4;" x="135.099812" xlink:href="#m0945f1e52a" y="336.832346"/>
     <use style="fill:#1f77b4;stroke:#1f77b4;" x="200.61618" xlink:href="#m0945f1e52a" y="288.97481"/>
     <use style="fill:#1f77b4;stroke:#1f77b4;" x="337.975203" xlink:href="#m0945f1e52a" y="184.87307"/>
     <use style="fill:#1f77b4;stroke:#1f77b4;" x="303.531274" xlink:href="#m0945f1e52a" y="210.955424"/>
     <use style="fill:#1f77b4;stroke:#1f77b4;" x="406.771872" xlink:href="#m0945f1e52a" y="132.191451"/>
     <use style="fill:#1f77b4;stroke:#1f77b4;" x="231.261777" xlink:href="#m0945f1e52a" y="264.861716"/>
     <use style="fill:#1f77b4;stroke:#1f77b4;" x="225.36228" xlink:href="#m0945f1e52a" y="269.647122"/>
     <use style="fill:#1f77b4;stroke:#1f77b4;" x="401.831454" xlink:href="#m0945f1e52a" y="136.199497"/>
     <use style="fill:#1f77b4;stroke:#1f77b4;" x="477.066814" xlink:href="#m0945f1e52a" y="81.03316"/>
     <use style="fill:#1f77b4;stroke:#1f77b4;" x="351.84678" xlink:href="#m0945f1e52a" y="174.400978"/>
     <use style="fill:#1f77b4;stroke:#1f77b4;" x="444.781236" xlink:href="#m0945f1e52a" y="103.35158"/>
     <use style="fill:#1f77b4;stroke:#1f77b4;" x="151.730683" xlink:href="#m0945f1e52a" y="324.226107"/>
     <use style="fill:#1f77b4;stroke:#1f77b4;" x="345.771992" xlink:href="#m0945f1e52a" y="178.918925"/>
     <use style="fill:#1f77b4;stroke:#1f77b4;" x="481.280484" xlink:href="#m0945f1e52a" y="78.247075"/>
     <use style="fill:#1f77b4;stroke:#1f77b4;" x="394.414856" xlink:href="#m0945f1e52a" y="142.265404"/>
     <use style="fill:#1f77b4;stroke:#1f77b4;" x="99.250437" xlink:href="#m0945f1e52a" y="364.036161"/>
     <use style="fill:#1f77b4;stroke:#1f77b4;" x="358.303573" xlink:href="#m0945f1e52a" y="169.68922"/>
     <use style="fill:#1f77b4;stroke:#1f77b4;" x="344.336679" xlink:href="#m0945f1e52a" y="179.998611"/>
     <use style="fill:#1f77b4;stroke:#1f77b4;" x="97.415102" xlink:href="#m0945f1e52a" y="365.402611"/>
     <use style="fill:#1f77b4;stroke:#1f77b4;" x="482.2748" xlink:href="#m0945f1e52a" y="77.553124"/>
     <use style="fill:#1f77b4;stroke:#1f77b4;" x="111.245194" xlink:href="#m0945f1e52a" y="355.311231"/>
     <use style="fill:#1f77b4;stroke:#1f77b4;" x="109.659984" xlink:href="#m0945f1e52a" y="356.439347"/>
     <use style="fill:#1f77b4;stroke:#1f77b4;" x="194.48202" xlink:href="#m0945f1e52a" y="293.234582"/>
     <use style="fill:#1f77b4;stroke:#1f77b4;" x="133.460005" xlink:href="#m0945f1e52a" y="338.078002"/>
     <use style="fill:#1f77b4;stroke:#1f77b4;" x="174.098287" xlink:href="#m0945f1e52a" y="307.375196"/>
     <use style="fill:#1f77b4;stroke:#1f77b4;" x="191.721695" xlink:href="#m0945f1e52a" y="295.156482"/>
     <use style="fill:#1f77b4;stroke:#1f77b4;" x="318.49675" xlink:href="#m0945f1e52a" y="199.610886"/>
     <use style="fill:#1f77b4;stroke:#1f77b4;" x="110.70373" xlink:href="#m0945f1e52a" y="355.695651"/>
     <use style="fill:#1f77b4;stroke:#1f77b4;" x="281.779475" xlink:href="#m0945f1e52a" y="227.785477"/>
     <use style="fill:#1f77b4;stroke:#1f77b4;" x="458.811627" xlink:href="#m0945f1e52a" y="93.347435"/>
     <use style="fill:#1f77b4;stroke:#1f77b4;" x="148.66445" xlink:href="#m0945f1e52a" y="326.662765"/>
     <use style="fill:#1f77b4;stroke:#1f77b4;" x="218.249605" xlink:href="#m0945f1e52a" y="275.566825"/>
     <use style="fill:#1f77b4;stroke:#1f77b4;" x="337.726894" xlink:href="#m0945f1e52a" y="185.065425"/>
     <use style="fill:#1f77b4;stroke:#1f77b4;" x="239.761418" xlink:href="#m0945f1e52a" y="258.23412"/>
     <use style="fill:#1f77b4;stroke:#1f77b4;" x="98.235292" xlink:href="#m0945f1e52a" y="364.790576"/>
     <use style="fill:#1f77b4;stroke:#1f77b4;" x="104.877667" xlink:href="#m0945f1e52a" y="359.891558"/>
     <use style="fill:#1f77b4;stroke:#1f77b4;" x="311.209201" xlink:href="#m0945f1e52a" y="205.127435"/>
     <use style="fill:#1f77b4;stroke:#1f77b4;" x="330.803067" xlink:href="#m0945f1e52a" y="190.489333"/>
     <use style="fill:#1f77b4;stroke:#1f77b4;" x="147.333959" xlink:href="#m0945f1e52a" y="327.730053"/>
    </g>
   </g>
   <g id="patch_3">
    <path d="M 72 384.48 
L 72 51.84 
" style="fill:none;stroke:#000000;stroke-linecap:square;stroke-linejoin:miter;stroke-width:0.8;"/>
   </g>
   <g id="patch_4">
    <path d="M 518.4 384.48 
L 518.4 51.84 
" style="fill:none;stroke:#000000;stroke-linecap:square;stroke-linejoin:miter;stroke-width:0.8;"/>
   </g>
   <g id="patch_5">
    <path d="M 72 384.48 
L 518.4 384.48 
" style="fill:none;stroke:#000000;stroke-linecap:square;stroke-linejoin:miter;stroke-width:0.8;"/>
   </g>
   <g id="patch_6">
    <path d="M 72 51.84 
L 518.4 51.84 
" style="fill:none;stroke:#000000;stroke-linecap:square;stroke-linejoin:miter;stroke-width:0.8;"/>
   </g>
  </g>
  <g id="axes_2">
   <g id="patch_7">
    <path d="M 374.4 345.6 
L 489.6 345.6 
L 489.6 259.2 
L 374.4 259.2 
z
" style="fill:#ffffff;"/>
   </g>
   <g id="patch_8">
    <path clip-path="url(#pd2abd4aba4)" d="M 379.636364 345.6 
L 384.872727 345.6 
L 384.872727 325.448397 
L 379.636364 325.448397 
z
" style="fill:#1f77b4;"/>
   </g>
   <g id="patch_9">
    <path clip-path="url(#pd2abd4aba4)" d="M 384.872727 345.6 
L 390.109091 345.6 
L 390.109091 340.562099 
L 384.872727 340.562099 
z
" style="fill:#1f77b4;"/>
   </g>
   <g id="patch_10">
    <path clip-path="url(#pd2abd4aba4)" d="M 390.109091 345.6 
L 395.345455 345.6 
L 395.345455 333.844898 
L 390.109091 333.844898 
z
" style="fill:#1f77b4;"/>
   </g>
   <g id="patch_11">
    <path clip-path="url(#pd2abd4aba4)" d="M 395.345455 345.6 
L 400.581818 345.6 
L 400.581818 340.562099 
L 395.345455 340.562099 
z
" style="fill:#1f77b4;"/>
   </g>
   <g id="patch_12">
    <path clip-path="url(#pd2abd4aba4)" d="M 400.581818 345.6 
L 405.818182 345.6 
L 405.818182 328.806997 
L 400.581818 328.806997 
z
" style="fill:#1f77b4;"/>
   </g>
   <g id="patch_13">
    <path clip-path="url(#pd2abd4aba4)" d="M 405.818182 345.6 
L 411.054545 345.6 
L 411.054545 313.693294 
L 405.818182 313.693294 
z
" style="fill:#1f77b4;"/>
   </g>
   <g id="patch_14">
    <path clip-path="url(#pd2abd4aba4)" d="M 411.054545 345.6 
L 416.290909 345.6 
L 416.290909 263.314286 
L 411.054545 263.314286 
z
" style="fill:#1f77b4;"/>
   </g>
   <g id="patch_15">
    <path clip-path="url(#pd2abd4aba4)" d="M 416.290909 345.6 
L 421.527273 345.6 
L 421.527273 306.976093 
L 416.290909 306.976093 
z
" style="fill:#1f77b4;"/>
   </g>
   <g id="patch_16">
    <path clip-path="url(#pd2abd4aba4)" d="M 421.527273 345.6 
L 426.763636 345.6 
L 426.763636 301.938192 
L 421.527273 301.938192 
z
" style="fill:#1f77b4;"/>
   </g>
   <g id="patch_17">
    <path clip-path="url(#pd2abd4aba4)" d="M 426.763636 345.6 
L 432 345.6 
L 432 298.579592 
L 426.763636 298.579592 
z
" style="fill:#1f77b4;"/>
   </g>
   <g id="patch_18">
    <path clip-path="url(#pd2abd4aba4)" d="M 432 345.6 
L 437.236364 345.6 
L 437.236364 318.731195 
L 432 318.731195 
z
" style="fill:#1f77b4;"/>
   </g>
   <g id="patch_19">
    <path clip-path="url(#pd2abd4aba4)" d="M 437.236364 345.6 
L 442.472727 345.6 
L 442.472727 338.882799 
L 437.236364 338.882799 
z
" style="fill:#1f77b4;"/>
   </g>
   <g id="patch_20">
    <path clip-path="url(#pd2abd4aba4)" d="M 442.472727 345.6 
L 447.709091 345.6 
L 447.709091 345.6 
L 442.472727 345.6 
z
" style="fill:#1f77b4;"/>
   </g>
   <g id="patch_21">
    <path clip-path="url(#pd2abd4aba4)" d="M 447.709091 345.6 
L 452.945455 345.6 
L 452.945455 345.6 
L 447.709091 345.6 
z
" style="fill:#1f77b4;"/>
   </g>
   <g id="patch_22">
    <path clip-path="url(#pd2abd4aba4)" d="M 452.945455 345.6 
L 458.181818 345.6 
L 458.181818 345.6 
L 452.945455 345.6 
z
" style="fill:#1f77b4;"/>
   </g>
   <g id="patch_23">
    <path clip-path="url(#pd2abd4aba4)" d="M 458.181818 345.6 
L 463.418182 345.6 
L 463.418182 345.6 
L 458.181818 345.6 
z
" style="fill:#1f77b4;"/>
   </g>
   <g id="patch_24">
    <path clip-path="url(#pd2abd4aba4)" d="M 463.418182 345.6 
L 468.654545 345.6 
L 468.654545 345.6 
L 463.418182 345.6 
z
" style="fill:#1f77b4;"/>
   </g>
   <g id="patch_25">
    <path clip-path="url(#pd2abd4aba4)" d="M 468.654545 345.6 
L 473.890909 345.6 
L 473.890909 345.6 
L 468.654545 345.6 
z
" style="fill:#1f77b4;"/>
   </g>
   <g id="patch_26">
    <path clip-path="url(#pd2abd4aba4)" d="M 473.890909 345.6 
L 479.127273 345.6 
L 479.127273 345.6 
L 473.890909 345.6 
z
" style="fill:#1f77b4;"/>
   </g>
   <g id="patch_27">
    <path clip-path="url(#pd2abd4aba4)" d="M 479.127273 345.6 
L 484.363636 345.6 
L 484.363636 345.6 
L 479.127273 345.6 
z
" style="fill:#1f77b4;"/>
   </g>
   <g id="matplotlib.axis_3">
    <g id="xtick_7">
     <g id="line2d_27">
      <g>
       <use style="stroke:#000000;stroke-width:0.8;" x="385.974323" xlink:href="#m4b22e2bceb" y="345.6"/>
      </g>
     </g>
     <g id="text_15">
      <!-- −0.1 -->
      <defs>
       <path d="M 10.59375 35.5 
L 73.1875 35.5 
L 73.1875 27.203125 
L 10.59375 27.203125 
z
" id="DejaVuSans-2212"/>
       <path d="M 10.6875 12.40625 
L 21 12.40625 
L 21 0 
L 10.6875 0 
z
" id="DejaVuSans-2e"/>
      </defs>
      <g transform="translate(371.404635 361.718125)scale(0.12 -0.12)">
       <use xlink:href="#DejaVuSans-2212"/>
       <use x="83.789062" xlink:href="#DejaVuSans-30"/>
       <use x="147.412109" xlink:href="#DejaVuSans-2e"/>
       <use x="179.199219" xlink:href="#DejaVuSans-31"/>
      </g>
     </g>
    </g>
    <g id="xtick_8">
     <g id="line2d_28">
      <g>
       <use style="stroke:#000000;stroke-width:0.8;" x="432" xlink:href="#m4b22e2bceb" y="345.6"/>
      </g>
     </g>
     <g id="text_16">
      <!-- 0.0 -->
      <g transform="translate(422.458125 361.718125)scale(0.12 -0.12)">
       <use xlink:href="#DejaVuSans-30"/>
       <use x="63.623047" xlink:href="#DejaVuSans-2e"/>
       <use x="95.410156" xlink:href="#DejaVuSans-30"/>
      </g>
     </g>
    </g>
    <g id="xtick_9">
     <g id="line2d_29">
      <g>
       <use style="stroke:#000000;stroke-width:0.8;" x="478.025677" xlink:href="#m4b22e2bceb" y="345.6"/>
      </g>
     </g>
     <g id="text_17">
      <!-- 0.1 -->
      <g transform="translate(468.483802 361.718125)scale(0.12 -0.12)">
       <use xlink:href="#DejaVuSans-30"/>
       <use x="63.623047" xlink:href="#DejaVuSans-2e"/>
       <use x="95.410156" xlink:href="#DejaVuSans-31"/>
      </g>
     </g>
    </g>
   </g>
   <g id="matplotlib.axis_4">
    <g id="ytick_7">
     <g id="line2d_30">
      <g>
       <use style="stroke:#000000;stroke-width:0.8;" x="374.4" xlink:href="#me864fa229a" y="345.6"/>
      </g>
     </g>
     <g id="text_18">
      <!-- 0 -->
      <g transform="translate(359.765 350.159063)scale(0.12 -0.12)">
       <use xlink:href="#DejaVuSans-30"/>
      </g>
     </g>
    </g>
    <g id="ytick_8">
     <g id="line2d_31">
      <g>
       <use style="stroke:#000000;stroke-width:0.8;" x="374.4" xlink:href="#me864fa229a" y="312.013994"/>
      </g>
     </g>
     <g id="text_19">
      <!-- 20 -->
      <g transform="translate(352.13 316.573057)scale(0.12 -0.12)">
       <use xlink:href="#DejaVuSans-32"/>
       <use x="63.623047" xlink:href="#DejaVuSans-30"/>
      </g>
     </g>
    </g>
    <g id="ytick_9">
     <g id="line2d_32">
      <g>
       <use style="stroke:#000000;stroke-width:0.8;" x="374.4" xlink:href="#me864fa229a" y="278.427988"/>
      </g>
     </g>
     <g id="text_20">
      <!-- 40 -->
      <g transform="translate(352.13 282.987051)scale(0.12 -0.12)">
       <use xlink:href="#DejaVuSans-34"/>
       <use x="63.623047" xlink:href="#DejaVuSans-30"/>
      </g>
     </g>
    </g>
   </g>
   <g id="patch_28">
    <path d="M 374.4 345.6 
L 374.4 259.2 
" style="fill:none;stroke:#000000;stroke-linecap:square;stroke-linejoin:miter;stroke-width:0.8;"/>
   </g>
   <g id="patch_29">
    <path d="M 489.6 345.6 
L 489.6 259.2 
" style="fill:none;stroke:#000000;stroke-linecap:square;stroke-linejoin:miter;stroke-width:0.8;"/>
   </g>
   <g id="patch_30">
    <path d="M 374.4 345.6 
L 489.6 345.6 
" style="fill:none;stroke:#000000;stroke-linecap:square;stroke-linejoin:miter;stroke-width:0.8;"/>
   </g>
   <g id="patch_31">
    <path d="M 374.4 259.2 
L 489.6 259.2 
" style="fill:none;stroke:#000000;stroke-linecap:square;stroke-linejoin:miter;stroke-width:0.8;"/>
   </g>
   <g id="text_21">
    <!-- Error -->
    <defs>
     <path d="M 30.609375 48.390625 
Q 23.390625 48.390625 19.1875 42.75 
Q 14.984375 37.109375 14.984375 27.296875 
Q 14.984375 17.484375 19.15625 11.84375 
Q 23.34375 6.203125 30.609375 6.203125 
Q 37.796875 6.203125 41.984375 11.859375 
Q 46.1875 17.53125 46.1875 27.296875 
Q 46.1875 37.015625 41.984375 42.703125 
Q 37.796875 48.390625 30.609375 48.390625 
z
M 30.609375 56 
Q 42.328125 56 49.015625 48.375 
Q 55.71875 40.765625 55.71875 27.296875 
Q 55.71875 13.875 49.015625 6.21875 
Q 42.328125 -1.421875 30.609375 -1.421875 
Q 18.84375 -1.421875 12.171875 6.21875 
Q 5.515625 13.875 5.515625 27.296875 
Q 5.515625 40.765625 12.171875 48.375 
Q 18.84375 56 30.609375 56 
z
" id="DejaVuSans-6f"/>
    </defs>
    <g transform="translate(409.710938 253.2)scale(0.18 -0.18)">
     <use xlink:href="#DejaVuSans-45"/>
     <use x="63.183594" xlink:href="#DejaVuSans-72"/>
     <use x="104.28125" xlink:href="#DejaVuSans-72"/>
     <use x="145.363281" xlink:href="#DejaVuSans-6f"/>
     <use x="206.544922" xlink:href="#DejaVuSans-72"/>
    </g>
   </g>
  </g>
  <g id="axes_3">
   <g id="patch_32">
    <path d="M 109.44 172.8 
L 224.64 172.8 
L 224.64 86.4 
L 109.44 86.4 
z
" style="fill:#ffffff;"/>
   </g>
   <g id="patch_33">
    <path clip-path="url(#pa32c7683b3)" d="M 114.676364 172.8 
L 119.912727 172.8 
L 119.912727 163.855901 
L 114.676364 163.855901 
z
" style="fill:#1f77b4;"/>
   </g>
   <g id="patch_34">
    <path clip-path="url(#pa32c7683b3)" d="M 119.912727 172.8 
L 125.149091 172.8 
L 125.149091 162.067081 
L 119.912727 162.067081 
z
" style="fill:#1f77b4;"/>
   </g>
   <g id="patch_35">
    <path clip-path="url(#pa32c7683b3)" d="M 125.149091 172.8 
L 130.385455 172.8 
L 130.385455 147.756522 
L 125.149091 147.756522 
z
" style="fill:#1f77b4;"/>
   </g>
   <g id="patch_36">
    <path clip-path="url(#pa32c7683b3)" d="M 130.385455 172.8 
L 135.621818 172.8 
L 135.621818 137.023602 
L 130.385455 137.023602 
z
" style="fill:#1f77b4;"/>
   </g>
   <g id="patch_37">
    <path clip-path="url(#pa32c7683b3)" d="M 135.621818 172.8 
L 140.858182 172.8 
L 140.858182 138.812422 
L 135.621818 138.812422 
z
" style="fill:#1f77b4;"/>
   </g>
   <g id="patch_38">
    <path clip-path="url(#pa32c7683b3)" d="M 140.858182 172.8 
L 146.094545 172.8 
L 146.094545 120.924224 
L 140.858182 120.924224 
z
" style="fill:#1f77b4;"/>
   </g>
   <g id="patch_39">
    <path clip-path="url(#pa32c7683b3)" d="M 146.094545 172.8 
L 151.330909 172.8 
L 151.330909 90.514286 
L 146.094545 90.514286 
z
" style="fill:#1f77b4;"/>
   </g>
   <g id="patch_40">
    <path clip-path="url(#pa32c7683b3)" d="M 151.330909 172.8 
L 156.567273 172.8 
L 156.567273 153.122981 
L 151.330909 153.122981 
z
" style="fill:#1f77b4;"/>
   </g>
   <g id="patch_41">
    <path clip-path="url(#pa32c7683b3)" d="M 156.567273 172.8 
L 161.803636 172.8 
L 161.803636 144.178882 
L 156.567273 144.178882 
z
" style="fill:#1f77b4;"/>
   </g>
   <g id="patch_42">
    <path clip-path="url(#pa32c7683b3)" d="M 161.803636 172.8 
L 167.04 172.8 
L 167.04 147.756522 
L 161.803636 147.756522 
z
" style="fill:#1f77b4;"/>
   </g>
   <g id="patch_43">
    <path clip-path="url(#pa32c7683b3)" d="M 167.04 172.8 
L 172.276364 172.8 
L 172.276364 162.067081 
L 167.04 162.067081 
z
" style="fill:#1f77b4;"/>
   </g>
   <g id="patch_44">
    <path clip-path="url(#pa32c7683b3)" d="M 172.276364 172.8 
L 177.512727 172.8 
L 177.512727 160.278261 
L 172.276364 160.278261 
z
" style="fill:#1f77b4;"/>
   </g>
   <g id="patch_45">
    <path clip-path="url(#pa32c7683b3)" d="M 177.512727 172.8 
L 182.749091 172.8 
L 182.749091 165.64472 
L 177.512727 165.64472 
z
" style="fill:#1f77b4;"/>
   </g>
   <g id="patch_46">
    <path clip-path="url(#pa32c7683b3)" d="M 182.749091 172.8 
L 187.985455 172.8 
L 187.985455 167.43354 
L 182.749091 167.43354 
z
" style="fill:#1f77b4;"/>
   </g>
   <g id="patch_47">
    <path clip-path="url(#pa32c7683b3)" d="M 187.985455 172.8 
L 193.221818 172.8 
L 193.221818 172.8 
L 187.985455 172.8 
z
" style="fill:#1f77b4;"/>
   </g>
   <g id="patch_48">
    <path clip-path="url(#pa32c7683b3)" d="M 193.221818 172.8 
L 198.458182 172.8 
L 198.458182 172.8 
L 193.221818 172.8 
z
" style="fill:#1f77b4;"/>
   </g>
   <g id="patch_49">
    <path clip-path="url(#pa32c7683b3)" d="M 198.458182 172.8 
L 203.694545 172.8 
L 203.694545 172.8 
L 198.458182 172.8 
z
" style="fill:#1f77b4;"/>
   </g>
   <g id="patch_50">
    <path clip-path="url(#pa32c7683b3)" d="M 203.694545 172.8 
L 208.930909 172.8 
L 208.930909 172.8 
L 203.694545 172.8 
z
" style="fill:#1f77b4;"/>
   </g>
   <g id="patch_51">
    <path clip-path="url(#pa32c7683b3)" d="M 208.930909 172.8 
L 214.167273 172.8 
L 214.167273 172.8 
L 208.930909 172.8 
z
" style="fill:#1f77b4;"/>
   </g>
   <g id="patch_52">
    <path clip-path="url(#pa32c7683b3)" d="M 214.167273 172.8 
L 219.403636 172.8 
L 219.403636 172.8 
L 214.167273 172.8 
z
" style="fill:#1f77b4;"/>
   </g>
   <g id="matplotlib.axis_5">
    <g id="xtick_10">
     <g id="line2d_33">
      <g>
       <use style="stroke:#000000;stroke-width:0.8;" x="111.161471" xlink:href="#m4b22e2bceb" y="172.8"/>
      </g>
     </g>
     <g id="text_22">
      <!-- −2 -->
      <g transform="translate(102.316158 188.918125)scale(0.12 -0.12)">
       <use xlink:href="#DejaVuSans-2212"/>
       <use x="83.789062" xlink:href="#DejaVuSans-32"/>
      </g>
     </g>
    </g>
    <g id="xtick_11">
     <g id="line2d_34">
      <g>
       <use style="stroke:#000000;stroke-width:0.8;" x="167.04" xlink:href="#m4b22e2bceb" y="172.8"/>
      </g>
     </g>
     <g id="text_23">
      <!-- 0 -->
      <g transform="translate(163.2225 188.918125)scale(0.12 -0.12)">
       <use xlink:href="#DejaVuSans-30"/>
      </g>
     </g>
    </g>
    <g id="xtick_12">
     <g id="line2d_35">
      <g>
       <use style="stroke:#000000;stroke-width:0.8;" x="222.918529" xlink:href="#m4b22e2bceb" y="172.8"/>
      </g>
     </g>
     <g id="text_24">
      <!-- 2 -->
      <g transform="translate(219.101029 188.918125)scale(0.12 -0.12)">
       <use xlink:href="#DejaVuSans-32"/>
      </g>
     </g>
    </g>
   </g>
   <g id="matplotlib.axis_6">
    <g id="ytick_10">
     <g id="line2d_36">
      <g>
       <use style="stroke:#000000;stroke-width:0.8;" x="109.44" xlink:href="#me864fa229a" y="172.8"/>
      </g>
     </g>
     <g id="text_25">
      <!-- 0 -->
      <g transform="translate(94.805 177.359063)scale(0.12 -0.12)">
       <use xlink:href="#DejaVuSans-30"/>
      </g>
     </g>
    </g>
    <g id="ytick_11">
     <g id="line2d_37">
      <g>
       <use style="stroke:#000000;stroke-width:0.8;" x="109.44" xlink:href="#me864fa229a" y="137.023602"/>
      </g>
     </g>
     <g id="text_26">
      <!-- 20 -->
      <g transform="translate(87.17 141.582665)scale(0.12 -0.12)">
       <use xlink:href="#DejaVuSans-32"/>
       <use x="63.623047" xlink:href="#DejaVuSans-30"/>
      </g>
     </g>
    </g>
    <g id="ytick_12">
     <g id="line2d_38">
      <g>
       <use style="stroke:#000000;stroke-width:0.8;" x="109.44" xlink:href="#me864fa229a" y="101.247205"/>
      </g>
     </g>
     <g id="text_27">
      <!-- 40 -->
      <g transform="translate(87.17 105.806267)scale(0.12 -0.12)">
       <use xlink:href="#DejaVuSans-34"/>
       <use x="63.623047" xlink:href="#DejaVuSans-30"/>
      </g>
     </g>
    </g>
   </g>
   <g id="patch_53">
    <path d="M 109.44 172.8 
L 109.44 86.4 
" style="fill:none;stroke:#000000;stroke-linecap:square;stroke-linejoin:miter;stroke-width:0.8;"/>
   </g>
   <g id="patch_54">
    <path d="M 224.64 172.8 
L 224.64 86.4 
" style="fill:none;stroke:#000000;stroke-linecap:square;stroke-linejoin:miter;stroke-width:0.8;"/>
   </g>
   <g id="patch_55">
    <path d="M 109.44 172.8 
L 224.64 172.8 
" style="fill:none;stroke:#000000;stroke-linecap:square;stroke-linejoin:miter;stroke-width:0.8;"/>
   </g>
   <g id="patch_56">
    <path d="M 109.44 86.4 
L 224.64 86.4 
" style="fill:none;stroke:#000000;stroke-linecap:square;stroke-linejoin:miter;stroke-width:0.8;"/>
   </g>
   <g id="text_28">
    <!-- Rel.Error (%) -->
    <defs>
     <path d="M 44.390625 34.1875 
Q 47.5625 33.109375 50.5625 29.59375 
Q 53.5625 26.078125 56.59375 19.921875 
L 66.609375 0 
L 56 0 
L 46.6875 18.703125 
Q 43.0625 26.03125 39.671875 28.421875 
Q 36.28125 30.8125 30.421875 30.8125 
L 19.671875 30.8125 
L 19.671875 0 
L 9.8125 0 
L 9.8125 72.90625 
L 32.078125 72.90625 
Q 44.578125 72.90625 50.734375 67.671875 
Q 56.890625 62.453125 56.890625 51.90625 
Q 56.890625 45.015625 53.6875 40.46875 
Q 50.484375 35.9375 44.390625 34.1875 
z
M 19.671875 64.796875 
L 19.671875 38.921875 
L 32.078125 38.921875 
Q 39.203125 38.921875 42.84375 42.21875 
Q 46.484375 45.515625 46.484375 51.90625 
Q 46.484375 58.296875 42.84375 61.546875 
Q 39.203125 64.796875 32.078125 64.796875 
z
" id="DejaVuSans-52"/>
     <path d="M 9.421875 75.984375 
L 18.40625 75.984375 
L 18.40625 0 
L 9.421875 0 
z
" id="DejaVuSans-6c"/>
     <path d="M 31 75.875 
Q 24.46875 64.65625 21.28125 53.65625 
Q 18.109375 42.671875 18.109375 31.390625 
Q 18.109375 20.125 21.3125 9.0625 
Q 24.515625 -2 31 -13.1875 
L 23.1875 -13.1875 
Q 15.875 -1.703125 12.234375 9.375 
Q 8.59375 20.453125 8.59375 31.390625 
Q 8.59375 42.28125 12.203125 53.3125 
Q 15.828125 64.359375 23.1875 75.875 
z
" id="DejaVuSans-28"/>
     <path d="M 72.703125 32.078125 
Q 68.453125 32.078125 66.03125 28.46875 
Q 63.625 24.859375 63.625 18.40625 
Q 63.625 12.0625 66.03125 8.421875 
Q 68.453125 4.78125 72.703125 4.78125 
Q 76.859375 4.78125 79.265625 8.421875 
Q 81.6875 12.0625 81.6875 18.40625 
Q 81.6875 24.8125 79.265625 28.4375 
Q 76.859375 32.078125 72.703125 32.078125 
z
M 72.703125 38.28125 
Q 80.421875 38.28125 84.953125 32.90625 
Q 89.5 27.546875 89.5 18.40625 
Q 89.5 9.28125 84.9375 3.921875 
Q 80.375 -1.421875 72.703125 -1.421875 
Q 64.890625 -1.421875 60.34375 3.921875 
Q 55.8125 9.28125 55.8125 18.40625 
Q 55.8125 27.59375 60.375 32.9375 
Q 64.9375 38.28125 72.703125 38.28125 
z
M 22.3125 68.015625 
Q 18.109375 68.015625 15.6875 64.375 
Q 13.28125 60.75 13.28125 54.390625 
Q 13.28125 47.953125 15.671875 44.328125 
Q 18.0625 40.71875 22.3125 40.71875 
Q 26.5625 40.71875 28.96875 44.328125 
Q 31.390625 47.953125 31.390625 54.390625 
Q 31.390625 60.6875 28.953125 64.34375 
Q 26.515625 68.015625 22.3125 68.015625 
z
M 66.40625 74.21875 
L 74.21875 74.21875 
L 28.609375 -1.421875 
L 20.796875 -1.421875 
z
M 22.3125 74.21875 
Q 30.03125 74.21875 34.609375 68.875 
Q 39.203125 63.53125 39.203125 54.390625 
Q 39.203125 45.171875 34.640625 39.84375 
Q 30.078125 34.515625 22.3125 34.515625 
Q 14.546875 34.515625 10.03125 39.859375 
Q 5.515625 45.21875 5.515625 54.390625 
Q 5.515625 63.484375 10.046875 68.84375 
Q 14.59375 74.21875 22.3125 74.21875 
z
" id="DejaVuSans-25"/>
     <path d="M 8.015625 75.875 
L 15.828125 75.875 
Q 23.140625 64.359375 26.78125 53.3125 
Q 30.421875 42.28125 30.421875 31.390625 
Q 30.421875 20.453125 26.78125 9.375 
Q 23.140625 -1.703125 15.828125 -13.1875 
L 8.015625 -13.1875 
Q 14.5 -2 17.703125 9.0625 
Q 20.90625 20.125 20.90625 31.390625 
Q 20.90625 42.671875 17.703125 53.65625 
Q 14.5 64.65625 8.015625 75.875 
z
" id="DejaVuSans-29"/>
    </defs>
    <g transform="translate(109.17 80.4)scale(0.18 -0.18)">
     <use xlink:href="#DejaVuSans-52"/>
     <use x="69.419922" xlink:href="#DejaVuSans-65"/>
     <use x="130.943359" xlink:href="#DejaVuSans-6c"/>
     <use x="158.726562" xlink:href="#DejaVuSans-2e"/>
     <use x="190.513672" xlink:href="#DejaVuSans-45"/>
     <use x="253.697266" xlink:href="#DejaVuSans-72"/>
     <use x="294.794922" xlink:href="#DejaVuSans-72"/>
     <use x="335.876953" xlink:href="#DejaVuSans-6f"/>
     <use x="397.058594" xlink:href="#DejaVuSans-72"/>
     <use x="438.171875" xlink:href="#DejaVuSans-20"/>
     <use x="469.958984" xlink:href="#DejaVuSans-28"/>
     <use x="508.972656" xlink:href="#DejaVuSans-25"/>
     <use x="603.992188" xlink:href="#DejaVuSans-29"/>
    </g>
   </g>
  </g>
 </g>
 <defs>
  <clipPath id="p5a2e836450">
   <rect height="332.64" width="446.4" x="72" y="51.84"/>
  </clipPath>
  <clipPath id="pd2abd4aba4">
   <rect height="86.4" width="115.2" x="374.4" y="259.2"/>
  </clipPath>
  <clipPath id="pa32c7683b3">
   <rect height="86.4" width="115.2" x="109.44" y="86.4"/>
  </clipPath>
 </defs>
</svg>
