<?xml version="1.0" encoding="utf-8" standalone="no"?>
<!DOCTYPE svg PUBLIC "-//W3C//DTD SVG 1.1//EN"
  "http://www.w3.org/Graphics/SVG/1.1/DTD/svg11.dtd">
<!-- Created with matplotlib (http://matplotlib.org/) -->
<svg height="432pt" version="1.1" viewBox="0 0 576 432" width="576pt" xmlns="http://www.w3.org/2000/svg" xmlns:xlink="http://www.w3.org/1999/xlink">
 <defs>
  <style type="text/css">
*{stroke-linecap:butt;stroke-linejoin:round;}
  </style>
 </defs>
 <g id="figure_1">
  <g id="patch_1">
   <path d="M 0 432 
L 576 432 
L 576 0 
L 0 0 
z
" style="fill:#ffffff;"/>
  </g>
  <g id="axes_1">
   <g id="patch_2">
    <path d="M 72 384.48 
L 518.4 384.48 
L 518.4 51.84 
L 72 51.84 
z
" style="fill:#ffffff;"/>
   </g>
   <g id="matplotlib.axis_1">
    <g id="xtick_1">
     <g id="line2d_1">
      <defs>
       <path d="M 0 0 
L 0 3.5 
" id="m56954e2de5" style="stroke:#000000;stroke-width:0.8;"/>
      </defs>
      <g>
       <use style="stroke:#000000;stroke-width:0.8;" x="92.290909" xlink:href="#m56954e2de5" y="384.48"/>
      </g>
     </g>
     <g id="text_1">
      <!-- −10.0 -->
      <defs>
       <path d="M 10.59375 35.5 
L 73.1875 35.5 
L 73.1875 27.203125 
L 10.59375 27.203125 
z
" id="DejaVuSans-2212"/>
       <path d="M 12.40625 8.296875 
L 28.515625 8.296875 
L 28.515625 63.921875 
L 10.984375 60.40625 
L 10.984375 69.390625 
L 28.421875 72.90625 
L 38.28125 72.90625 
L 38.28125 8.296875 
L 54.390625 8.296875 
L 54.390625 0 
L 12.40625 0 
z
" id="DejaVuSans-31"/>
       <path d="M 31.78125 66.40625 
Q 24.171875 66.40625 20.328125 58.90625 
Q 16.5 51.421875 16.5 36.375 
Q 16.5 21.390625 20.328125 13.890625 
Q 24.171875 6.390625 31.78125 6.390625 
Q 39.453125 6.390625 43.28125 13.890625 
Q 47.125 21.390625 47.125 36.375 
Q 47.125 51.421875 43.28125 58.90625 
Q 39.453125 66.40625 31.78125 66.40625 
z
M 31.78125 74.21875 
Q 44.046875 74.21875 50.515625 64.515625 
Q 56.984375 54.828125 56.984375 36.375 
Q 56.984375 17.96875 50.515625 8.265625 
Q 44.046875 -1.421875 31.78125 -1.421875 
Q 19.53125 -1.421875 13.0625 8.265625 
Q 6.59375 17.96875 6.59375 36.375 
Q 6.59375 54.828125 13.0625 64.515625 
Q 19.53125 74.21875 31.78125 74.21875 
z
" id="DejaVuSans-30"/>
       <path d="M 10.6875 12.40625 
L 21 12.40625 
L 21 0 
L 10.6875 0 
z
" id="DejaVuSans-2e"/>
      </defs>
      <g transform="translate(76.968253 399.078438)scale(0.1 -0.1)">
       <use xlink:href="#DejaVuSans-2212"/>
       <use x="83.789062" xlink:href="#DejaVuSans-31"/>
       <use x="147.412109" xlink:href="#DejaVuSans-30"/>
       <use x="211.035156" xlink:href="#DejaVuSans-2e"/>
       <use x="242.822266" xlink:href="#DejaVuSans-30"/>
      </g>
     </g>
    </g>
    <g id="xtick_2">
     <g id="line2d_2">
      <g>
       <use style="stroke:#000000;stroke-width:0.8;" x="143.417609" xlink:href="#m56954e2de5" y="384.48"/>
      </g>
     </g>
     <g id="text_2">
      <!-- −7.5 -->
      <defs>
       <path d="M 8.203125 72.90625 
L 55.078125 72.90625 
L 55.078125 68.703125 
L 28.609375 0 
L 18.3125 0 
L 43.21875 64.59375 
L 8.203125 64.59375 
z
" id="DejaVuSans-37"/>
       <path d="M 10.796875 72.90625 
L 49.515625 72.90625 
L 49.515625 64.59375 
L 19.828125 64.59375 
L 19.828125 46.734375 
Q 21.96875 47.46875 24.109375 47.828125 
Q 26.265625 48.1875 28.421875 48.1875 
Q 40.625 48.1875 47.75 41.5 
Q 54.890625 34.8125 54.890625 23.390625 
Q 54.890625 11.625 47.5625 5.09375 
Q 40.234375 -1.421875 26.90625 -1.421875 
Q 22.3125 -1.421875 17.546875 -0.640625 
Q 12.796875 0.140625 7.71875 1.703125 
L 7.71875 11.625 
Q 12.109375 9.234375 16.796875 8.0625 
Q 21.484375 6.890625 26.703125 6.890625 
Q 35.15625 6.890625 40.078125 11.328125 
Q 45.015625 15.765625 45.015625 23.390625 
Q 45.015625 31 40.078125 35.4375 
Q 35.15625 39.890625 26.703125 39.890625 
Q 22.75 39.890625 18.8125 39.015625 
Q 14.890625 38.140625 10.796875 36.28125 
z
" id="DejaVuSans-35"/>
      </defs>
      <g transform="translate(131.276203 399.078438)scale(0.1 -0.1)">
       <use xlink:href="#DejaVuSans-2212"/>
       <use x="83.789062" xlink:href="#DejaVuSans-37"/>
       <use x="147.412109" xlink:href="#DejaVuSans-2e"/>
       <use x="179.199219" xlink:href="#DejaVuSans-35"/>
      </g>
     </g>
    </g>
    <g id="xtick_3">
     <g id="line2d_3">
      <g>
       <use style="stroke:#000000;stroke-width:0.8;" x="194.544309" xlink:href="#m56954e2de5" y="384.48"/>
      </g>
     </g>
     <g id="text_3">
      <!-- −5.0 -->
      <g transform="translate(182.402903 399.078438)scale(0.1 -0.1)">
       <use xlink:href="#DejaVuSans-2212"/>
       <use x="83.789062" xlink:href="#DejaVuSans-35"/>
       <use x="147.412109" xlink:href="#DejaVuSans-2e"/>
       <use x="179.199219" xlink:href="#DejaVuSans-30"/>
      </g>
     </g>
    </g>
    <g id="xtick_4">
     <g id="line2d_4">
      <g>
       <use style="stroke:#000000;stroke-width:0.8;" x="245.671009" xlink:href="#m56954e2de5" y="384.48"/>
      </g>
     </g>
     <g id="text_4">
      <!-- −2.5 -->
      <defs>
       <path d="M 19.1875 8.296875 
L 53.609375 8.296875 
L 53.609375 0 
L 7.328125 0 
L 7.328125 8.296875 
Q 12.9375 14.109375 22.625 23.890625 
Q 32.328125 33.6875 34.8125 36.53125 
Q 39.546875 41.84375 41.421875 45.53125 
Q 43.3125 49.21875 43.3125 52.78125 
Q 43.3125 58.59375 39.234375 62.25 
Q 35.15625 65.921875 28.609375 65.921875 
Q 23.96875 65.921875 18.8125 64.3125 
Q 13.671875 62.703125 7.8125 59.421875 
L 7.8125 69.390625 
Q 13.765625 71.78125 18.9375 73 
Q 24.125 74.21875 28.421875 74.21875 
Q 39.75 74.21875 46.484375 68.546875 
Q 53.21875 62.890625 53.21875 53.421875 
Q 53.21875 48.921875 51.53125 44.890625 
Q 49.859375 40.875 45.40625 35.40625 
Q 44.1875 33.984375 37.640625 27.21875 
Q 31.109375 20.453125 19.1875 8.296875 
z
" id="DejaVuSans-32"/>
      </defs>
      <g transform="translate(233.529603 399.078438)scale(0.1 -0.1)">
       <use xlink:href="#DejaVuSans-2212"/>
       <use x="83.789062" xlink:href="#DejaVuSans-32"/>
       <use x="147.412109" xlink:href="#DejaVuSans-2e"/>
       <use x="179.199219" xlink:href="#DejaVuSans-35"/>
      </g>
     </g>
    </g>
    <g id="xtick_5">
     <g id="line2d_5">
      <g>
       <use style="stroke:#000000;stroke-width:0.8;" x="296.797709" xlink:href="#m56954e2de5" y="384.48"/>
      </g>
     </g>
     <g id="text_5">
      <!-- 0.0 -->
      <g transform="translate(288.846147 399.078438)scale(0.1 -0.1)">
       <use xlink:href="#DejaVuSans-30"/>
       <use x="63.623047" xlink:href="#DejaVuSans-2e"/>
       <use x="95.410156" xlink:href="#DejaVuSans-30"/>
      </g>
     </g>
    </g>
    <g id="xtick_6">
     <g id="line2d_6">
      <g>
       <use style="stroke:#000000;stroke-width:0.8;" x="347.924409" xlink:href="#m56954e2de5" y="384.48"/>
      </g>
     </g>
     <g id="text_6">
      <!-- 2.5 -->
      <g transform="translate(339.972847 399.078438)scale(0.1 -0.1)">
       <use xlink:href="#DejaVuSans-32"/>
       <use x="63.623047" xlink:href="#DejaVuSans-2e"/>
       <use x="95.410156" xlink:href="#DejaVuSans-35"/>
      </g>
     </g>
    </g>
    <g id="xtick_7">
     <g id="line2d_7">
      <g>
       <use style="stroke:#000000;stroke-width:0.8;" x="399.05111" xlink:href="#m56954e2de5" y="384.48"/>
      </g>
     </g>
     <g id="text_7">
      <!-- 5.0 -->
      <g transform="translate(391.099547 399.078438)scale(0.1 -0.1)">
       <use xlink:href="#DejaVuSans-35"/>
       <use x="63.623047" xlink:href="#DejaVuSans-2e"/>
       <use x="95.410156" xlink:href="#DejaVuSans-30"/>
      </g>
     </g>
    </g>
    <g id="xtick_8">
     <g id="line2d_8">
      <g>
       <use style="stroke:#000000;stroke-width:0.8;" x="450.17781" xlink:href="#m56954e2de5" y="384.48"/>
      </g>
     </g>
     <g id="text_8">
      <!-- 7.5 -->
      <g transform="translate(442.226247 399.078438)scale(0.1 -0.1)">
       <use xlink:href="#DejaVuSans-37"/>
       <use x="63.623047" xlink:href="#DejaVuSans-2e"/>
       <use x="95.410156" xlink:href="#DejaVuSans-35"/>
      </g>
     </g>
    </g>
    <g id="xtick_9">
     <g id="line2d_9">
      <g>
       <use style="stroke:#000000;stroke-width:0.8;" x="501.30451" xlink:href="#m56954e2de5" y="384.48"/>
      </g>
     </g>
     <g id="text_9">
      <!-- 10.0 -->
      <g transform="translate(490.171697 399.078438)scale(0.1 -0.1)">
       <use xlink:href="#DejaVuSans-31"/>
       <use x="63.623047" xlink:href="#DejaVuSans-30"/>
       <use x="127.246094" xlink:href="#DejaVuSans-2e"/>
       <use x="159.033203" xlink:href="#DejaVuSans-30"/>
      </g>
     </g>
    </g>
    <g id="text_10">
     <!-- $z$ -->
     <defs>
      <path d="M 11.625 54.6875 
L 54.296875 54.6875 
L 52.6875 46.484375 
L 11.53125 7.171875 
L 45.515625 7.171875 
L 44.09375 0 
L -0.296875 0 
L 1.3125 8.203125 
L 42.484375 47.515625 
L 10.203125 47.515625 
z
" id="DejaVuSans-Oblique-7a"/>
     </defs>
     <g transform="translate(289.9 420.355)scale(0.2 -0.2)">
      <use transform="translate(0 0.3125)" xlink:href="#DejaVuSans-Oblique-7a"/>
     </g>
    </g>
   </g>
   <g id="matplotlib.axis_2">
    <g id="ytick_1">
     <g id="line2d_10">
      <defs>
       <path d="M 0 0 
L -3.5 0 
" id="m639bc880fe" style="stroke:#000000;stroke-width:0.8;"/>
      </defs>
      <g>
       <use style="stroke:#000000;stroke-width:0.8;" x="72" xlink:href="#m639bc880fe" y="369.36"/>
      </g>
     </g>
     <g id="text_11">
      <!-- 0.00 -->
      <g transform="translate(42.734375 373.159219)scale(0.1 -0.1)">
       <use xlink:href="#DejaVuSans-30"/>
       <use x="63.623047" xlink:href="#DejaVuSans-2e"/>
       <use x="95.410156" xlink:href="#DejaVuSans-30"/>
       <use x="159.033203" xlink:href="#DejaVuSans-30"/>
      </g>
     </g>
    </g>
    <g id="ytick_2">
     <g id="line2d_11">
      <g>
       <use style="stroke:#000000;stroke-width:0.8;" x="72" xlink:href="#m639bc880fe" y="331.45978"/>
      </g>
     </g>
     <g id="text_12">
      <!-- 0.05 -->
      <g transform="translate(42.734375 335.258999)scale(0.1 -0.1)">
       <use xlink:href="#DejaVuSans-30"/>
       <use x="63.623047" xlink:href="#DejaVuSans-2e"/>
       <use x="95.410156" xlink:href="#DejaVuSans-30"/>
       <use x="159.033203" xlink:href="#DejaVuSans-35"/>
      </g>
     </g>
    </g>
    <g id="ytick_3">
     <g id="line2d_12">
      <g>
       <use style="stroke:#000000;stroke-width:0.8;" x="72" xlink:href="#m639bc880fe" y="293.559561"/>
      </g>
     </g>
     <g id="text_13">
      <!-- 0.10 -->
      <g transform="translate(42.734375 297.35878)scale(0.1 -0.1)">
       <use xlink:href="#DejaVuSans-30"/>
       <use x="63.623047" xlink:href="#DejaVuSans-2e"/>
       <use x="95.410156" xlink:href="#DejaVuSans-31"/>
       <use x="159.033203" xlink:href="#DejaVuSans-30"/>
      </g>
     </g>
    </g>
    <g id="ytick_4">
     <g id="line2d_13">
      <g>
       <use style="stroke:#000000;stroke-width:0.8;" x="72" xlink:href="#m639bc880fe" y="255.659341"/>
      </g>
     </g>
     <g id="text_14">
      <!-- 0.15 -->
      <g transform="translate(42.734375 259.45856)scale(0.1 -0.1)">
       <use xlink:href="#DejaVuSans-30"/>
       <use x="63.623047" xlink:href="#DejaVuSans-2e"/>
       <use x="95.410156" xlink:href="#DejaVuSans-31"/>
       <use x="159.033203" xlink:href="#DejaVuSans-35"/>
      </g>
     </g>
    </g>
    <g id="ytick_5">
     <g id="line2d_14">
      <g>
       <use style="stroke:#000000;stroke-width:0.8;" x="72" xlink:href="#m639bc880fe" y="217.759122"/>
      </g>
     </g>
     <g id="text_15">
      <!-- 0.20 -->
      <g transform="translate(42.734375 221.55834)scale(0.1 -0.1)">
       <use xlink:href="#DejaVuSans-30"/>
       <use x="63.623047" xlink:href="#DejaVuSans-2e"/>
       <use x="95.410156" xlink:href="#DejaVuSans-32"/>
       <use x="159.033203" xlink:href="#DejaVuSans-30"/>
      </g>
     </g>
    </g>
    <g id="ytick_6">
     <g id="line2d_15">
      <g>
       <use style="stroke:#000000;stroke-width:0.8;" x="72" xlink:href="#m639bc880fe" y="179.858902"/>
      </g>
     </g>
     <g id="text_16">
      <!-- 0.25 -->
      <g transform="translate(42.734375 183.658121)scale(0.1 -0.1)">
       <use xlink:href="#DejaVuSans-30"/>
       <use x="63.623047" xlink:href="#DejaVuSans-2e"/>
       <use x="95.410156" xlink:href="#DejaVuSans-32"/>
       <use x="159.033203" xlink:href="#DejaVuSans-35"/>
      </g>
     </g>
    </g>
    <g id="ytick_7">
     <g id="line2d_16">
      <g>
       <use style="stroke:#000000;stroke-width:0.8;" x="72" xlink:href="#m639bc880fe" y="141.958682"/>
      </g>
     </g>
     <g id="text_17">
      <!-- 0.30 -->
      <defs>
       <path d="M 40.578125 39.3125 
Q 47.65625 37.796875 51.625 33 
Q 55.609375 28.21875 55.609375 21.1875 
Q 55.609375 10.40625 48.1875 4.484375 
Q 40.765625 -1.421875 27.09375 -1.421875 
Q 22.515625 -1.421875 17.65625 -0.515625 
Q 12.796875 0.390625 7.625 2.203125 
L 7.625 11.71875 
Q 11.71875 9.328125 16.59375 8.109375 
Q 21.484375 6.890625 26.8125 6.890625 
Q 36.078125 6.890625 40.9375 10.546875 
Q 45.796875 14.203125 45.796875 21.1875 
Q 45.796875 27.640625 41.28125 31.265625 
Q 36.765625 34.90625 28.71875 34.90625 
L 20.21875 34.90625 
L 20.21875 43.015625 
L 29.109375 43.015625 
Q 36.375 43.015625 40.234375 45.921875 
Q 44.09375 48.828125 44.09375 54.296875 
Q 44.09375 59.90625 40.109375 62.90625 
Q 36.140625 65.921875 28.71875 65.921875 
Q 24.65625 65.921875 20.015625 65.03125 
Q 15.375 64.15625 9.8125 62.3125 
L 9.8125 71.09375 
Q 15.4375 72.65625 20.34375 73.4375 
Q 25.25 74.21875 29.59375 74.21875 
Q 40.828125 74.21875 47.359375 69.109375 
Q 53.90625 64.015625 53.90625 55.328125 
Q 53.90625 49.265625 50.4375 45.09375 
Q 46.96875 40.921875 40.578125 39.3125 
z
" id="DejaVuSans-33"/>
      </defs>
      <g transform="translate(42.734375 145.757901)scale(0.1 -0.1)">
       <use xlink:href="#DejaVuSans-30"/>
       <use x="63.623047" xlink:href="#DejaVuSans-2e"/>
       <use x="95.410156" xlink:href="#DejaVuSans-33"/>
       <use x="159.033203" xlink:href="#DejaVuSans-30"/>
      </g>
     </g>
    </g>
    <g id="ytick_8">
     <g id="line2d_17">
      <g>
       <use style="stroke:#000000;stroke-width:0.8;" x="72" xlink:href="#m639bc880fe" y="104.058463"/>
      </g>
     </g>
     <g id="text_18">
      <!-- 0.35 -->
      <g transform="translate(42.734375 107.857682)scale(0.1 -0.1)">
       <use xlink:href="#DejaVuSans-30"/>
       <use x="63.623047" xlink:href="#DejaVuSans-2e"/>
       <use x="95.410156" xlink:href="#DejaVuSans-33"/>
       <use x="159.033203" xlink:href="#DejaVuSans-35"/>
      </g>
     </g>
    </g>
    <g id="ytick_9">
     <g id="line2d_18">
      <g>
       <use style="stroke:#000000;stroke-width:0.8;" x="72" xlink:href="#m639bc880fe" y="66.158243"/>
      </g>
     </g>
     <g id="text_19">
      <!-- 0.40 -->
      <defs>
       <path d="M 37.796875 64.3125 
L 12.890625 25.390625 
L 37.796875 25.390625 
z
M 35.203125 72.90625 
L 47.609375 72.90625 
L 47.609375 25.390625 
L 58.015625 25.390625 
L 58.015625 17.1875 
L 47.609375 17.1875 
L 47.609375 0 
L 37.796875 0 
L 37.796875 17.1875 
L 4.890625 17.1875 
L 4.890625 26.703125 
z
" id="DejaVuSans-34"/>
      </defs>
      <g transform="translate(42.734375 69.957462)scale(0.1 -0.1)">
       <use xlink:href="#DejaVuSans-30"/>
       <use x="63.623047" xlink:href="#DejaVuSans-2e"/>
       <use x="95.410156" xlink:href="#DejaVuSans-34"/>
       <use x="159.033203" xlink:href="#DejaVuSans-30"/>
      </g>
     </g>
    </g>
    <g id="text_20">
     <!-- $|\psi|^2$ -->
     <defs>
      <path d="M 21 76.421875 
L 21 -23.578125 
L 12.703125 -23.578125 
L 12.703125 76.421875 
z
" id="DejaVuSans-7c"/>
      <path d="M 24.859375 -1.21875 
Q 13.921875 0.59375 9.625 5.328125 
Q 4.34375 11.140625 6.640625 23 
L 12.796875 54.6875 
L 21.875 54.6875 
L 15.765625 23.34375 
Q 14.0625 14.40625 17.484375 10.6875 
Q 20.515625 7.46875 26.421875 6.78125 
L 35.6875 54.6875 
L 44.625 54.6875 
L 35.359375 6.84375 
Q 41.890625 7.515625 45.75 10.75 
Q 50.734375 14.84375 52.390625 23.390625 
L 58.453125 54.6875 
L 67.53125 54.6875 
L 61.375 23.046875 
Q 58.984375 10.75 51.5625 5.375 
Q 44.875 0.53125 33.796875 -1.171875 
L 29.984375 -20.796875 
L 21.046875 -20.796875 
z
" id="DejaVuSans-Oblique-3c8"/>
     </defs>
     <g transform="translate(33.934375 236.36)rotate(-90)scale(0.2 -0.2)">
      <use transform="translate(0 0.765625)" xlink:href="#DejaVuSans-7c"/>
      <use transform="translate(33.691406 0.765625)" xlink:href="#DejaVuSans-Oblique-3c8"/>
      <use transform="translate(99.658203 0.765625)" xlink:href="#DejaVuSans-7c"/>
      <use transform="translate(134.306641 39.046875)scale(0.7)" xlink:href="#DejaVuSans-32"/>
     </g>
    </g>
   </g>
   <g id="line2d_19">
    <path clip-path="url(#p1c8cb5565c)" d="M 92.290909 369.36 
L 213.716822 369.28115 
L 220.107659 369.092731 
L 223.303078 368.885631 
L 226.498497 368.53836 
L 229.693916 367.971186 
L 232.889334 367.069115 
L 236.084753 365.672265 
L 239.280172 363.566871 
L 242.475591 360.47896 
L 245.671009 356.073471 
L 248.866428 349.962026 
L 252.061847 341.722528 
L 255.257266 330.932922 
L 258.452684 317.219701 
L 261.648103 300.319046 
L 264.843522 280.145148 
L 268.038941 256.856862 
L 271.234359 230.911191 
L 280.820616 146.493071 
L 284.016034 120.612545 
L 287.211453 98.422718 
L 290.406872 81.370932 
L 293.602291 70.628967 
L 296.797709 66.96 
L 299.993128 70.628967 
L 303.188547 81.370932 
L 306.383966 98.422718 
L 309.579384 120.612545 
L 312.774803 146.493071 
L 322.361059 230.911191 
L 325.556478 256.856862 
L 328.751897 280.145148 
L 331.947316 300.319046 
L 335.142734 317.219701 
L 338.338153 330.932922 
L 341.533572 341.722528 
L 344.728991 349.962026 
L 347.924409 356.073471 
L 351.119828 360.47896 
L 354.315247 363.566871 
L 357.510666 365.672265 
L 360.706084 367.069115 
L 363.901503 367.971186 
L 367.096922 368.53836 
L 370.292341 368.885631 
L 376.683178 369.213047 
L 386.269435 369.338902 
L 424.61446 369.359999 
L 498.109091 369.36 
L 498.109091 369.36 
" style="fill:none;stroke:#1f77b4;stroke-linecap:square;stroke-width:1.5;"/>
   </g>
   <g id="line2d_20">
    <path clip-path="url(#p1c8cb5565c)" d="M 92.290909 369.36 
L 213.716822 369.271676 
L 220.107659 369.063128 
L 223.303078 368.835424 
L 226.498497 368.45558 
L 229.693916 367.83858 
L 232.889334 366.862871 
L 236.084753 365.361094 
L 239.280172 363.111932 
L 242.475591 359.835283 
L 245.671009 355.193609 
L 248.866428 348.80255 
L 252.061847 340.253651 
L 255.257266 329.150818 
L 258.452684 315.160136 
L 261.648103 298.069772 
L 264.843522 277.853564 
L 268.038941 254.729025 
L 271.234359 229.19891 
L 280.820616 147.537723 
L 284.016034 122.872646 
L 287.211453 101.847854 
L 290.406872 85.76485 
L 293.602291 75.664881 
L 296.797709 72.220693 
L 299.993128 75.664881 
L 303.188547 85.76485 
L 306.383966 101.847854 
L 309.579384 122.872646 
L 312.774803 147.537723 
L 319.165641 202.065749 
L 322.361059 229.19891 
L 325.556478 254.729025 
L 328.751897 277.853564 
L 331.947316 298.069772 
L 335.142734 315.160136 
L 338.338153 329.150818 
L 341.533572 340.253651 
L 344.728991 348.80255 
L 347.924409 355.193609 
L 351.119828 359.835283 
L 354.315247 363.111932 
L 357.510666 365.361094 
L 360.706084 366.862871 
L 363.901503 367.83858 
L 367.096922 368.45558 
L 370.292341 368.835424 
L 376.683178 369.19607 
L 386.269435 369.336181 
L 421.419041 369.359997 
L 498.109091 369.36 
L 498.109091 369.36 
" style="fill:none;stroke:#ff7f0e;stroke-linecap:square;stroke-width:1.5;"/>
   </g>
   <g id="line2d_21">
    <path clip-path="url(#p1c8cb5565c)" d="M 92.290909 369.36 
L 207.325984 369.298172 
L 213.716822 369.145179 
L 216.912241 368.974747 
L 220.107659 368.686746 
L 223.303078 368.213608 
L 226.498497 367.458194 
L 229.693916 366.286472 
L 232.889334 364.521519 
L 236.084753 361.940865 
L 239.280172 358.279611 
L 242.475591 353.241701 
L 245.671009 346.520936 
L 248.866428 337.83175 
L 252.061847 326.947471 
L 255.257266 313.741355 
L 258.452684 298.223798 
L 261.648103 280.568618 
L 264.843522 261.122596 
L 271.234359 219.030843 
L 274.429778 197.763932 
L 277.625197 177.370451 
L 280.820616 158.616173 
L 284.016034 142.211578 
L 287.211453 128.775654 
L 290.406872 118.809873 
L 293.602291 112.681422 
L 296.797709 110.613642 
L 299.993128 112.681422 
L 303.188547 118.809873 
L 306.383966 128.775654 
L 309.579384 142.211578 
L 312.774803 158.616173 
L 315.970222 177.370451 
L 319.165641 197.763932 
L 328.751897 261.122596 
L 331.947316 280.568618 
L 335.142734 298.223798 
L 338.338153 313.741355 
L 341.533572 326.947471 
L 344.728991 337.83175 
L 347.924409 346.520936 
L 351.119828 353.241701 
L 354.315247 358.279611 
L 357.510666 361.940865 
L 360.706084 364.521519 
L 363.901503 366.286472 
L 367.096922 367.458194 
L 370.292341 368.213608 
L 373.487759 368.686746 
L 376.683178 368.974747 
L 383.074016 369.243262 
L 395.855691 369.35212 
L 485.327416 369.36 
L 498.109091 369.36 
L 498.109091 369.36 
" style="fill:none;stroke:#2ca02c;stroke-linecap:square;stroke-width:1.5;"/>
   </g>
   <g id="line2d_22">
    <path clip-path="url(#p1c8cb5565c)" d="M 92.290909 369.36 
L 184.958053 369.251735 
L 191.34889 368.987502 
L 194.544309 368.701524 
L 197.739728 368.233495 
L 200.935147 367.495782 
L 204.130565 366.377007 
L 207.325984 364.74606 
L 210.521403 362.462258 
L 213.716822 359.391794 
L 216.912241 355.428451 
L 220.107659 350.514365 
L 223.303078 344.655413 
L 226.498497 337.926553 
L 229.693916 330.465172 
L 232.889334 322.454098 
L 245.671009 288.918294 
L 248.866428 281.00466 
L 252.061847 273.506863 
L 255.257266 266.484441 
L 258.452684 259.97385 
L 261.648103 253.994593 
L 264.843522 248.554601 
L 268.038941 243.654518 
L 271.234359 239.290851 
L 274.429778 235.458137 
L 277.625197 232.15033 
L 280.820616 229.361632 
L 284.016034 227.086934 
L 287.211453 225.322025 
L 290.406872 224.063655 
L 293.602291 223.309536 
L 296.797709 223.058313 
L 299.993128 223.309536 
L 303.188547 224.063655 
L 306.383966 225.322025 
L 309.579384 227.086934 
L 312.774803 229.361632 
L 315.970222 232.15033 
L 319.165641 235.458137 
L 322.361059 239.290851 
L 325.556478 243.654518 
L 328.751897 248.554601 
L 331.947316 253.994593 
L 335.142734 259.97385 
L 338.338153 266.484441 
L 341.533572 273.506863 
L 344.728991 281.00466 
L 347.924409 288.918294 
L 354.315247 305.60493 
L 360.706084 322.454098 
L 363.901503 330.465172 
L 367.096922 337.926553 
L 370.292341 344.655413 
L 373.487759 350.514365 
L 376.683178 355.428451 
L 379.878597 359.391794 
L 383.074016 362.462258 
L 386.269435 364.74606 
L 389.464853 366.377007 
L 392.660272 367.495782 
L 395.855691 368.233495 
L 399.05111 368.701524 
L 402.246528 368.987502 
L 408.637366 369.251735 
L 421.419041 369.353696 
L 498.109091 369.36 
L 498.109091 369.36 
" style="fill:none;stroke:#d62728;stroke-linecap:square;stroke-width:1.5;"/>
   </g>
   <g id="line2d_23">
    <path clip-path="url(#p1c8cb5565c)" d="M 92.290909 369.36 
L 168.980959 369.262961 
L 175.371797 369.015958 
L 178.567215 368.745907 
L 181.762634 368.303242 
L 184.958053 367.607906 
L 188.153472 366.562552 
L 191.34889 365.059985 
L 194.544309 362.996369 
L 197.739728 360.288587 
L 200.935147 356.891775 
L 204.130565 352.811863 
L 207.325984 348.108749 
L 210.521403 342.888726 
L 213.716822 337.288482 
L 229.693916 308.280661 
L 232.889334 302.937789 
L 236.084753 297.859391 
L 239.280172 293.059022 
L 242.475591 288.541427 
L 245.671009 284.306058 
L 248.866428 280.349566 
L 252.061847 276.66744 
L 255.257266 273.254977 
L 258.452684 270.107809 
L 261.648103 267.222136 
L 264.843522 264.594781 
L 268.038941 262.223164 
L 271.234359 260.10523 
L 274.429778 258.239358 
L 277.625197 256.624291 
L 280.820616 255.259058 
L 284.016034 254.142921 
L 287.211453 253.275329 
L 290.406872 252.655885 
L 293.602291 252.284321 
L 296.797709 252.160484 
L 299.993128 252.284321 
L 303.188547 252.655885 
L 306.383966 253.275329 
L 309.579384 254.142921 
L 312.774803 255.259058 
L 315.970222 256.624291 
L 319.165641 258.239358 
L 322.361059 260.10523 
L 325.556478 262.223164 
L 328.751897 264.594781 
L 331.947316 267.222136 
L 335.142734 270.107809 
L 338.338153 273.254977 
L 341.533572 276.66744 
L 344.728991 280.349566 
L 347.924409 284.306058 
L 351.119828 288.541427 
L 354.315247 293.059022 
L 357.510666 297.859391 
L 360.706084 302.937789 
L 363.901503 308.280661 
L 370.292341 319.633932 
L 379.878597 337.288482 
L 383.074016 342.888726 
L 386.269435 348.108749 
L 389.464853 352.811863 
L 392.660272 356.891775 
L 395.855691 360.288587 
L 399.05111 362.996369 
L 402.246528 365.059985 
L 405.441947 366.562552 
L 408.637366 367.607906 
L 411.832785 368.303242 
L 415.028203 368.745907 
L 418.223622 369.015958 
L 424.61446 369.262961 
L 437.396135 369.354869 
L 498.109091 369.36 
L 498.109091 369.36 
" style="fill:none;stroke:#9467bd;stroke-linecap:square;stroke-width:1.5;"/>
   </g>
   <g id="patch_3">
    <path d="M 72 384.48 
L 72 51.84 
" style="fill:none;stroke:#000000;stroke-linecap:square;stroke-linejoin:miter;stroke-width:0.8;"/>
   </g>
   <g id="patch_4">
    <path d="M 518.4 384.48 
L 518.4 51.84 
" style="fill:none;stroke:#000000;stroke-linecap:square;stroke-linejoin:miter;stroke-width:0.8;"/>
   </g>
   <g id="patch_5">
    <path d="M 72 384.48 
L 518.4 384.48 
" style="fill:none;stroke:#000000;stroke-linecap:square;stroke-linejoin:miter;stroke-width:0.8;"/>
   </g>
   <g id="patch_6">
    <path d="M 72 51.84 
L 518.4 51.84 
" style="fill:none;stroke:#000000;stroke-linecap:square;stroke-linejoin:miter;stroke-width:0.8;"/>
   </g>
   <g id="legend_1">
    <g id="patch_7">
     <path d="M 442.4125 133.230625 
L 511.4 133.230625 
Q 513.4 133.230625 513.4 131.230625 
L 513.4 58.84 
Q 513.4 56.84 511.4 56.84 
L 442.4125 56.84 
Q 440.4125 56.84 440.4125 58.84 
L 440.4125 131.230625 
Q 440.4125 133.230625 442.4125 133.230625 
z
" style="fill:#ffffff;opacity:0.8;stroke:#cccccc;stroke-linejoin:miter;"/>
    </g>
    <g id="line2d_24">
     <path d="M 444.4125 64.938437 
L 464.4125 64.938437 
" style="fill:none;stroke:#1f77b4;stroke-linecap:square;stroke-width:1.5;"/>
    </g>
    <g id="line2d_25"/>
    <g id="text_21">
     <!-- g = 0 -->
     <defs>
      <path d="M 45.40625 27.984375 
Q 45.40625 37.75 41.375 43.109375 
Q 37.359375 48.484375 30.078125 48.484375 
Q 22.859375 48.484375 18.828125 43.109375 
Q 14.796875 37.75 14.796875 27.984375 
Q 14.796875 18.265625 18.828125 12.890625 
Q 22.859375 7.515625 30.078125 7.515625 
Q 37.359375 7.515625 41.375 12.890625 
Q 45.40625 18.265625 45.40625 27.984375 
z
M 54.390625 6.78125 
Q 54.390625 -7.171875 48.1875 -13.984375 
Q 42 -20.796875 29.203125 -20.796875 
Q 24.46875 -20.796875 20.265625 -20.09375 
Q 16.0625 -19.390625 12.109375 -17.921875 
L 12.109375 -9.1875 
Q 16.0625 -11.328125 19.921875 -12.34375 
Q 23.78125 -13.375 27.78125 -13.375 
Q 36.625 -13.375 41.015625 -8.765625 
Q 45.40625 -4.15625 45.40625 5.171875 
L 45.40625 9.625 
Q 42.625 4.78125 38.28125 2.390625 
Q 33.9375 0 27.875 0 
Q 17.828125 0 11.671875 7.65625 
Q 5.515625 15.328125 5.515625 27.984375 
Q 5.515625 40.671875 11.671875 48.328125 
Q 17.828125 56 27.875 56 
Q 33.9375 56 38.28125 53.609375 
Q 42.625 51.21875 45.40625 46.390625 
L 45.40625 54.6875 
L 54.390625 54.6875 
z
" id="DejaVuSans-67"/>
      <path id="DejaVuSans-20"/>
      <path d="M 10.59375 45.40625 
L 73.1875 45.40625 
L 73.1875 37.203125 
L 10.59375 37.203125 
z
M 10.59375 25.484375 
L 73.1875 25.484375 
L 73.1875 17.1875 
L 10.59375 17.1875 
z
" id="DejaVuSans-3d"/>
     </defs>
     <g transform="translate(472.4125 68.438437)scale(0.1 -0.1)">
      <use xlink:href="#DejaVuSans-67"/>
      <use x="63.476562" xlink:href="#DejaVuSans-20"/>
      <use x="95.263672" xlink:href="#DejaVuSans-3d"/>
      <use x="179.052734" xlink:href="#DejaVuSans-20"/>
      <use x="210.839844" xlink:href="#DejaVuSans-30"/>
     </g>
    </g>
    <g id="line2d_26">
     <path d="M 444.4125 79.616562 
L 464.4125 79.616562 
" style="fill:none;stroke:#ff7f0e;stroke-linecap:square;stroke-width:1.5;"/>
    </g>
    <g id="line2d_27"/>
    <g id="text_22">
     <!-- g = 0.1 -->
     <g transform="translate(472.4125 83.116562)scale(0.1 -0.1)">
      <use xlink:href="#DejaVuSans-67"/>
      <use x="63.476562" xlink:href="#DejaVuSans-20"/>
      <use x="95.263672" xlink:href="#DejaVuSans-3d"/>
      <use x="179.052734" xlink:href="#DejaVuSans-20"/>
      <use x="210.839844" xlink:href="#DejaVuSans-30"/>
      <use x="274.462891" xlink:href="#DejaVuSans-2e"/>
      <use x="306.25" xlink:href="#DejaVuSans-31"/>
     </g>
    </g>
    <g id="line2d_28">
     <path d="M 444.4125 94.294687 
L 464.4125 94.294687 
" style="fill:none;stroke:#2ca02c;stroke-linecap:square;stroke-width:1.5;"/>
    </g>
    <g id="line2d_29"/>
    <g id="text_23">
     <!-- g = 1 -->
     <g transform="translate(472.4125 97.794687)scale(0.1 -0.1)">
      <use xlink:href="#DejaVuSans-67"/>
      <use x="63.476562" xlink:href="#DejaVuSans-20"/>
      <use x="95.263672" xlink:href="#DejaVuSans-3d"/>
      <use x="179.052734" xlink:href="#DejaVuSans-20"/>
      <use x="210.839844" xlink:href="#DejaVuSans-31"/>
     </g>
    </g>
    <g id="line2d_30">
     <path d="M 444.4125 108.972812 
L 464.4125 108.972812 
" style="fill:none;stroke:#d62728;stroke-linecap:square;stroke-width:1.5;"/>
    </g>
    <g id="line2d_31"/>
    <g id="text_24">
     <!-- g = 10 -->
     <g transform="translate(472.4125 112.472812)scale(0.1 -0.1)">
      <use xlink:href="#DejaVuSans-67"/>
      <use x="63.476562" xlink:href="#DejaVuSans-20"/>
      <use x="95.263672" xlink:href="#DejaVuSans-3d"/>
      <use x="179.052734" xlink:href="#DejaVuSans-20"/>
      <use x="210.839844" xlink:href="#DejaVuSans-31"/>
      <use x="274.462891" xlink:href="#DejaVuSans-30"/>
     </g>
    </g>
    <g id="line2d_32">
     <path d="M 444.4125 123.650937 
L 464.4125 123.650937 
" style="fill:none;stroke:#9467bd;stroke-linecap:square;stroke-width:1.5;"/>
    </g>
    <g id="line2d_33"/>
    <g id="text_25">
     <!-- g = 20 -->
     <g transform="translate(472.4125 127.150937)scale(0.1 -0.1)">
      <use xlink:href="#DejaVuSans-67"/>
      <use x="63.476562" xlink:href="#DejaVuSans-20"/>
      <use x="95.263672" xlink:href="#DejaVuSans-3d"/>
      <use x="179.052734" xlink:href="#DejaVuSans-20"/>
      <use x="210.839844" xlink:href="#DejaVuSans-32"/>
      <use x="274.462891" xlink:href="#DejaVuSans-30"/>
     </g>
    </g>
   </g>
  </g>
 </g>
 <defs>
  <clipPath id="p1c8cb5565c">
   <rect height="332.64" width="446.4" x="72" y="51.84"/>
  </clipPath>
 </defs>
</svg>
