<?xml version="1.0" encoding="utf-8" standalone="no"?>
<!DOCTYPE svg PUBLIC "-//W3C//DTD SVG 1.1//EN"
  "http://www.w3.org/Graphics/SVG/1.1/DTD/svg11.dtd">
<!-- Created with matplotlib (http://matplotlib.org/) -->
<svg height="685pt" version="1.1" viewBox="0 0 1382 685" width="1382pt" xmlns="http://www.w3.org/2000/svg" xmlns:xlink="http://www.w3.org/1999/xlink">
 <defs>
  <style type="text/css">
*{stroke-linecap:butt;stroke-linejoin:round;}
  </style>
 </defs>
 <g id="figure_1">
  <g id="patch_1">
   <path d="M 0 685.44 
L 1382.4 685.44 
L 1382.4 0 
L 0 0 
z
" style="fill:#ffffff;"/>
  </g>
  <g id="axes_1">
   <g id="patch_2">
    <path d="M 172.8 610.0416 
L 1244.16 610.0416 
L 1244.16 82.2528 
L 172.8 82.2528 
z
" style="fill:#ffffff;"/>
   </g>
   <g id="matplotlib.axis_1">
    <g id="xtick_1">
     <g id="line2d_1">
      <path clip-path="url(#pf7518fabb7)" d="M 196.698445 610.0416 
L 196.698445 82.2528 
" style="fill:none;stroke:#b0b0b0;stroke-linecap:square;stroke-width:0.8;"/>
     </g>
     <g id="line2d_2">
      <defs>
       <path d="M 0 0 
L 0 3.5 
" id="m1aea41582b" style="stroke:#000000;stroke-width:0.8;"/>
      </defs>
      <g>
       <use style="stroke:#000000;stroke-width:0.8;" x="196.698445" xlink:href="#m1aea41582b" y="610.0416"/>
      </g>
     </g>
     <g id="text_1">
      <!-- 0 -->
      <defs>
       <path d="M 31.78125 66.40625 
Q 24.171875 66.40625 20.328125 58.90625 
Q 16.5 51.421875 16.5 36.375 
Q 16.5 21.390625 20.328125 13.890625 
Q 24.171875 6.390625 31.78125 6.390625 
Q 39.453125 6.390625 43.28125 13.890625 
Q 47.125 21.390625 47.125 36.375 
Q 47.125 51.421875 43.28125 58.90625 
Q 39.453125 66.40625 31.78125 66.40625 
z
M 31.78125 74.21875 
Q 44.046875 74.21875 50.515625 64.515625 
Q 56.984375 54.828125 56.984375 36.375 
Q 56.984375 17.96875 50.515625 8.265625 
Q 44.046875 -1.421875 31.78125 -1.421875 
Q 19.53125 -1.421875 13.0625 8.265625 
Q 6.59375 17.96875 6.59375 36.375 
Q 6.59375 54.828125 13.0625 64.515625 
Q 19.53125 74.21875 31.78125 74.21875 
z
" id="DejaVuSans-30"/>
      </defs>
      <g transform="translate(193.517195 624.640037)scale(0.1 -0.1)">
       <use xlink:href="#DejaVuSans-30"/>
      </g>
     </g>
    </g>
    <g id="xtick_2">
     <g id="line2d_3">
      <path clip-path="url(#pf7518fabb7)" d="M 397.38639 610.0416 
L 397.38639 82.2528 
" style="fill:none;stroke:#b0b0b0;stroke-linecap:square;stroke-width:0.8;"/>
     </g>
     <g id="line2d_4">
      <g>
       <use style="stroke:#000000;stroke-width:0.8;" x="397.38639" xlink:href="#m1aea41582b" y="610.0416"/>
      </g>
     </g>
     <g id="text_2">
      <!-- 2 -->
      <defs>
       <path d="M 19.1875 8.296875 
L 53.609375 8.296875 
L 53.609375 0 
L 7.328125 0 
L 7.328125 8.296875 
Q 12.9375 14.109375 22.625 23.890625 
Q 32.328125 33.6875 34.8125 36.53125 
Q 39.546875 41.84375 41.421875 45.53125 
Q 43.3125 49.21875 43.3125 52.78125 
Q 43.3125 58.59375 39.234375 62.25 
Q 35.15625 65.921875 28.609375 65.921875 
Q 23.96875 65.921875 18.8125 64.3125 
Q 13.671875 62.703125 7.8125 59.421875 
L 7.8125 69.390625 
Q 13.765625 71.78125 18.9375 73 
Q 24.125 74.21875 28.421875 74.21875 
Q 39.75 74.21875 46.484375 68.546875 
Q 53.21875 62.890625 53.21875 53.421875 
Q 53.21875 48.921875 51.53125 44.890625 
Q 49.859375 40.875 45.40625 35.40625 
Q 44.1875 33.984375 37.640625 27.21875 
Q 31.109375 20.453125 19.1875 8.296875 
z
" id="DejaVuSans-32"/>
      </defs>
      <g transform="translate(394.20514 624.640037)scale(0.1 -0.1)">
       <use xlink:href="#DejaVuSans-32"/>
      </g>
     </g>
    </g>
    <g id="xtick_3">
     <g id="line2d_5">
      <path clip-path="url(#pf7518fabb7)" d="M 598.074335 610.0416 
L 598.074335 82.2528 
" style="fill:none;stroke:#b0b0b0;stroke-linecap:square;stroke-width:0.8;"/>
     </g>
     <g id="line2d_6">
      <g>
       <use style="stroke:#000000;stroke-width:0.8;" x="598.074335" xlink:href="#m1aea41582b" y="610.0416"/>
      </g>
     </g>
     <g id="text_3">
      <!-- 4 -->
      <defs>
       <path d="M 37.796875 64.3125 
L 12.890625 25.390625 
L 37.796875 25.390625 
z
M 35.203125 72.90625 
L 47.609375 72.90625 
L 47.609375 25.390625 
L 58.015625 25.390625 
L 58.015625 17.1875 
L 47.609375 17.1875 
L 47.609375 0 
L 37.796875 0 
L 37.796875 17.1875 
L 4.890625 17.1875 
L 4.890625 26.703125 
z
" id="DejaVuSans-34"/>
      </defs>
      <g transform="translate(594.893085 624.640037)scale(0.1 -0.1)">
       <use xlink:href="#DejaVuSans-34"/>
      </g>
     </g>
    </g>
    <g id="xtick_4">
     <g id="line2d_7">
      <path clip-path="url(#pf7518fabb7)" d="M 798.762279 610.0416 
L 798.762279 82.2528 
" style="fill:none;stroke:#b0b0b0;stroke-linecap:square;stroke-width:0.8;"/>
     </g>
     <g id="line2d_8">
      <g>
       <use style="stroke:#000000;stroke-width:0.8;" x="798.762279" xlink:href="#m1aea41582b" y="610.0416"/>
      </g>
     </g>
     <g id="text_4">
      <!-- 6 -->
      <defs>
       <path d="M 33.015625 40.375 
Q 26.375 40.375 22.484375 35.828125 
Q 18.609375 31.296875 18.609375 23.390625 
Q 18.609375 15.53125 22.484375 10.953125 
Q 26.375 6.390625 33.015625 6.390625 
Q 39.65625 6.390625 43.53125 10.953125 
Q 47.40625 15.53125 47.40625 23.390625 
Q 47.40625 31.296875 43.53125 35.828125 
Q 39.65625 40.375 33.015625 40.375 
z
M 52.59375 71.296875 
L 52.59375 62.3125 
Q 48.875 64.0625 45.09375 64.984375 
Q 41.3125 65.921875 37.59375 65.921875 
Q 27.828125 65.921875 22.671875 59.328125 
Q 17.53125 52.734375 16.796875 39.40625 
Q 19.671875 43.65625 24.015625 45.921875 
Q 28.375 48.1875 33.59375 48.1875 
Q 44.578125 48.1875 50.953125 41.515625 
Q 57.328125 34.859375 57.328125 23.390625 
Q 57.328125 12.15625 50.6875 5.359375 
Q 44.046875 -1.421875 33.015625 -1.421875 
Q 20.359375 -1.421875 13.671875 8.265625 
Q 6.984375 17.96875 6.984375 36.375 
Q 6.984375 53.65625 15.1875 63.9375 
Q 23.390625 74.21875 37.203125 74.21875 
Q 40.921875 74.21875 44.703125 73.484375 
Q 48.484375 72.75 52.59375 71.296875 
z
" id="DejaVuSans-36"/>
      </defs>
      <g transform="translate(795.581029 624.640037)scale(0.1 -0.1)">
       <use xlink:href="#DejaVuSans-36"/>
      </g>
     </g>
    </g>
    <g id="xtick_5">
     <g id="line2d_9">
      <path clip-path="url(#pf7518fabb7)" d="M 999.450224 610.0416 
L 999.450224 82.2528 
" style="fill:none;stroke:#b0b0b0;stroke-linecap:square;stroke-width:0.8;"/>
     </g>
     <g id="line2d_10">
      <g>
       <use style="stroke:#000000;stroke-width:0.8;" x="999.450224" xlink:href="#m1aea41582b" y="610.0416"/>
      </g>
     </g>
     <g id="text_5">
      <!-- 8 -->
      <defs>
       <path d="M 31.78125 34.625 
Q 24.75 34.625 20.71875 30.859375 
Q 16.703125 27.09375 16.703125 20.515625 
Q 16.703125 13.921875 20.71875 10.15625 
Q 24.75 6.390625 31.78125 6.390625 
Q 38.8125 6.390625 42.859375 10.171875 
Q 46.921875 13.96875 46.921875 20.515625 
Q 46.921875 27.09375 42.890625 30.859375 
Q 38.875 34.625 31.78125 34.625 
z
M 21.921875 38.8125 
Q 15.578125 40.375 12.03125 44.71875 
Q 8.5 49.078125 8.5 55.328125 
Q 8.5 64.0625 14.71875 69.140625 
Q 20.953125 74.21875 31.78125 74.21875 
Q 42.671875 74.21875 48.875 69.140625 
Q 55.078125 64.0625 55.078125 55.328125 
Q 55.078125 49.078125 51.53125 44.71875 
Q 48 40.375 41.703125 38.8125 
Q 48.828125 37.15625 52.796875 32.3125 
Q 56.78125 27.484375 56.78125 20.515625 
Q 56.78125 9.90625 50.3125 4.234375 
Q 43.84375 -1.421875 31.78125 -1.421875 
Q 19.734375 -1.421875 13.25 4.234375 
Q 6.78125 9.90625 6.78125 20.515625 
Q 6.78125 27.484375 10.78125 32.3125 
Q 14.796875 37.15625 21.921875 38.8125 
z
M 18.3125 54.390625 
Q 18.3125 48.734375 21.84375 45.5625 
Q 25.390625 42.390625 31.78125 42.390625 
Q 38.140625 42.390625 41.71875 45.5625 
Q 45.3125 48.734375 45.3125 54.390625 
Q 45.3125 60.0625 41.71875 63.234375 
Q 38.140625 66.40625 31.78125 66.40625 
Q 25.390625 66.40625 21.84375 63.234375 
Q 18.3125 60.0625 18.3125 54.390625 
z
" id="DejaVuSans-38"/>
      </defs>
      <g transform="translate(996.268974 624.640037)scale(0.1 -0.1)">
       <use xlink:href="#DejaVuSans-38"/>
      </g>
     </g>
    </g>
    <g id="xtick_6">
     <g id="line2d_11">
      <path clip-path="url(#pf7518fabb7)" d="M 1200.138169 610.0416 
L 1200.138169 82.2528 
" style="fill:none;stroke:#b0b0b0;stroke-linecap:square;stroke-width:0.8;"/>
     </g>
     <g id="line2d_12">
      <g>
       <use style="stroke:#000000;stroke-width:0.8;" x="1200.138169" xlink:href="#m1aea41582b" y="610.0416"/>
      </g>
     </g>
     <g id="text_6">
      <!-- 10 -->
      <defs>
       <path d="M 12.40625 8.296875 
L 28.515625 8.296875 
L 28.515625 63.921875 
L 10.984375 60.40625 
L 10.984375 69.390625 
L 28.421875 72.90625 
L 38.28125 72.90625 
L 38.28125 8.296875 
L 54.390625 8.296875 
L 54.390625 0 
L 12.40625 0 
z
" id="DejaVuSans-31"/>
      </defs>
      <g transform="translate(1193.775669 624.640037)scale(0.1 -0.1)">
       <use xlink:href="#DejaVuSans-31"/>
       <use x="63.623047" xlink:href="#DejaVuSans-30"/>
      </g>
     </g>
    </g>
    <g id="text_7">
     <!-- Real -->
     <defs>
      <path d="M 44.390625 34.1875 
Q 47.5625 33.109375 50.5625 29.59375 
Q 53.5625 26.078125 56.59375 19.921875 
L 66.609375 0 
L 56 0 
L 46.6875 18.703125 
Q 43.0625 26.03125 39.671875 28.421875 
Q 36.28125 30.8125 30.421875 30.8125 
L 19.671875 30.8125 
L 19.671875 0 
L 9.8125 0 
L 9.8125 72.90625 
L 32.078125 72.90625 
Q 44.578125 72.90625 50.734375 67.671875 
Q 56.890625 62.453125 56.890625 51.90625 
Q 56.890625 45.015625 53.6875 40.46875 
Q 50.484375 35.9375 44.390625 34.1875 
z
M 19.671875 64.796875 
L 19.671875 38.921875 
L 32.078125 38.921875 
Q 39.203125 38.921875 42.84375 42.21875 
Q 46.484375 45.515625 46.484375 51.90625 
Q 46.484375 58.296875 42.84375 61.546875 
Q 39.203125 64.796875 32.078125 64.796875 
z
" id="DejaVuSans-52"/>
      <path d="M 56.203125 29.59375 
L 56.203125 25.203125 
L 14.890625 25.203125 
Q 15.484375 15.921875 20.484375 11.0625 
Q 25.484375 6.203125 34.421875 6.203125 
Q 39.59375 6.203125 44.453125 7.46875 
Q 49.3125 8.734375 54.109375 11.28125 
L 54.109375 2.78125 
Q 49.265625 0.734375 44.1875 -0.34375 
Q 39.109375 -1.421875 33.890625 -1.421875 
Q 20.796875 -1.421875 13.15625 6.1875 
Q 5.515625 13.8125 5.515625 26.8125 
Q 5.515625 40.234375 12.765625 48.109375 
Q 20.015625 56 32.328125 56 
Q 43.359375 56 49.78125 48.890625 
Q 56.203125 41.796875 56.203125 29.59375 
z
M 47.21875 32.234375 
Q 47.125 39.59375 43.09375 43.984375 
Q 39.0625 48.390625 32.421875 48.390625 
Q 24.90625 48.390625 20.390625 44.140625 
Q 15.875 39.890625 15.1875 32.171875 
z
" id="DejaVuSans-65"/>
      <path d="M 34.28125 27.484375 
Q 23.390625 27.484375 19.1875 25 
Q 14.984375 22.515625 14.984375 16.5 
Q 14.984375 11.71875 18.140625 8.90625 
Q 21.296875 6.109375 26.703125 6.109375 
Q 34.1875 6.109375 38.703125 11.40625 
Q 43.21875 16.703125 43.21875 25.484375 
L 43.21875 27.484375 
z
M 52.203125 31.203125 
L 52.203125 0 
L 43.21875 0 
L 43.21875 8.296875 
Q 40.140625 3.328125 35.546875 0.953125 
Q 30.953125 -1.421875 24.3125 -1.421875 
Q 15.921875 -1.421875 10.953125 3.296875 
Q 6 8.015625 6 15.921875 
Q 6 25.140625 12.171875 29.828125 
Q 18.359375 34.515625 30.609375 34.515625 
L 43.21875 34.515625 
L 43.21875 35.40625 
Q 43.21875 41.609375 39.140625 45 
Q 35.0625 48.390625 27.6875 48.390625 
Q 23 48.390625 18.546875 47.265625 
Q 14.109375 46.140625 10.015625 43.890625 
L 10.015625 52.203125 
Q 14.9375 54.109375 19.578125 55.046875 
Q 24.21875 56 28.609375 56 
Q 40.484375 56 46.34375 49.84375 
Q 52.203125 43.703125 52.203125 31.203125 
z
" id="DejaVuSans-61"/>
      <path d="M 9.421875 75.984375 
L 18.40625 75.984375 
L 18.40625 0 
L 9.421875 0 
z
" id="DejaVuSans-6c"/>
     </defs>
     <g transform="translate(697.479219 638.318162)scale(0.1 -0.1)">
      <use xlink:href="#DejaVuSans-52"/>
      <use x="69.419922" xlink:href="#DejaVuSans-65"/>
      <use x="130.943359" xlink:href="#DejaVuSans-61"/>
      <use x="192.222656" xlink:href="#DejaVuSans-6c"/>
     </g>
    </g>
   </g>
   <g id="matplotlib.axis_2">
    <g id="ytick_1">
     <g id="line2d_13">
      <path clip-path="url(#pf7518fabb7)" d="M 172.8 596.366557 
L 1244.16 596.366557 
" style="fill:none;stroke:#b0b0b0;stroke-linecap:square;stroke-width:0.8;"/>
     </g>
     <g id="line2d_14">
      <defs>
       <path d="M 0 0 
L -3.5 0 
" id="m122f8f311c" style="stroke:#000000;stroke-width:0.8;"/>
      </defs>
      <g>
       <use style="stroke:#000000;stroke-width:0.8;" x="172.8" xlink:href="#m122f8f311c" y="596.366557"/>
      </g>
     </g>
     <g id="text_8">
      <!-- 0 -->
      <g transform="translate(159.4375 600.165775)scale(0.1 -0.1)">
       <use xlink:href="#DejaVuSans-30"/>
      </g>
     </g>
    </g>
    <g id="ytick_2">
     <g id="line2d_15">
      <path clip-path="url(#pf7518fabb7)" d="M 172.8 497.922752 
L 1244.16 497.922752 
" style="fill:none;stroke:#b0b0b0;stroke-linecap:square;stroke-width:0.8;"/>
     </g>
     <g id="line2d_16">
      <g>
       <use style="stroke:#000000;stroke-width:0.8;" x="172.8" xlink:href="#m122f8f311c" y="497.922752"/>
      </g>
     </g>
     <g id="text_9">
      <!-- 2 -->
      <g transform="translate(159.4375 501.721971)scale(0.1 -0.1)">
       <use xlink:href="#DejaVuSans-32"/>
      </g>
     </g>
    </g>
    <g id="ytick_3">
     <g id="line2d_17">
      <path clip-path="url(#pf7518fabb7)" d="M 172.8 399.478948 
L 1244.16 399.478948 
" style="fill:none;stroke:#b0b0b0;stroke-linecap:square;stroke-width:0.8;"/>
     </g>
     <g id="line2d_18">
      <g>
       <use style="stroke:#000000;stroke-width:0.8;" x="172.8" xlink:href="#m122f8f311c" y="399.478948"/>
      </g>
     </g>
     <g id="text_10">
      <!-- 4 -->
      <g transform="translate(159.4375 403.278167)scale(0.1 -0.1)">
       <use xlink:href="#DejaVuSans-34"/>
      </g>
     </g>
    </g>
    <g id="ytick_4">
     <g id="line2d_19">
      <path clip-path="url(#pf7518fabb7)" d="M 172.8 301.035144 
L 1244.16 301.035144 
" style="fill:none;stroke:#b0b0b0;stroke-linecap:square;stroke-width:0.8;"/>
     </g>
     <g id="line2d_20">
      <g>
       <use style="stroke:#000000;stroke-width:0.8;" x="172.8" xlink:href="#m122f8f311c" y="301.035144"/>
      </g>
     </g>
     <g id="text_11">
      <!-- 6 -->
      <g transform="translate(159.4375 304.834363)scale(0.1 -0.1)">
       <use xlink:href="#DejaVuSans-36"/>
      </g>
     </g>
    </g>
    <g id="ytick_5">
     <g id="line2d_21">
      <path clip-path="url(#pf7518fabb7)" d="M 172.8 202.59134 
L 1244.16 202.59134 
" style="fill:none;stroke:#b0b0b0;stroke-linecap:square;stroke-width:0.8;"/>
     </g>
     <g id="line2d_22">
      <g>
       <use style="stroke:#000000;stroke-width:0.8;" x="172.8" xlink:href="#m122f8f311c" y="202.59134"/>
      </g>
     </g>
     <g id="text_12">
      <!-- 8 -->
      <g transform="translate(159.4375 206.390559)scale(0.1 -0.1)">
       <use xlink:href="#DejaVuSans-38"/>
      </g>
     </g>
    </g>
    <g id="ytick_6">
     <g id="line2d_23">
      <path clip-path="url(#pf7518fabb7)" d="M 172.8 104.147536 
L 1244.16 104.147536 
" style="fill:none;stroke:#b0b0b0;stroke-linecap:square;stroke-width:0.8;"/>
     </g>
     <g id="line2d_24">
      <g>
       <use style="stroke:#000000;stroke-width:0.8;" x="172.8" xlink:href="#m122f8f311c" y="104.147536"/>
      </g>
     </g>
     <g id="text_13">
      <!-- 10 -->
      <g transform="translate(153.075 107.946755)scale(0.1 -0.1)">
       <use xlink:href="#DejaVuSans-31"/>
       <use x="63.623047" xlink:href="#DejaVuSans-30"/>
      </g>
     </g>
    </g>
    <g id="text_14">
     <!-- Predicted -->
     <defs>
      <path d="M 19.671875 64.796875 
L 19.671875 37.40625 
L 32.078125 37.40625 
Q 38.96875 37.40625 42.71875 40.96875 
Q 46.484375 44.53125 46.484375 51.125 
Q 46.484375 57.671875 42.71875 61.234375 
Q 38.96875 64.796875 32.078125 64.796875 
z
M 9.8125 72.90625 
L 32.078125 72.90625 
Q 44.34375 72.90625 50.609375 67.359375 
Q 56.890625 61.8125 56.890625 51.125 
Q 56.890625 40.328125 50.609375 34.8125 
Q 44.34375 29.296875 32.078125 29.296875 
L 19.671875 29.296875 
L 19.671875 0 
L 9.8125 0 
z
" id="DejaVuSans-50"/>
      <path d="M 41.109375 46.296875 
Q 39.59375 47.171875 37.8125 47.578125 
Q 36.03125 48 33.890625 48 
Q 26.265625 48 22.1875 43.046875 
Q 18.109375 38.09375 18.109375 28.8125 
L 18.109375 0 
L 9.078125 0 
L 9.078125 54.6875 
L 18.109375 54.6875 
L 18.109375 46.1875 
Q 20.953125 51.171875 25.484375 53.578125 
Q 30.03125 56 36.53125 56 
Q 37.453125 56 38.578125 55.875 
Q 39.703125 55.765625 41.0625 55.515625 
z
" id="DejaVuSans-72"/>
      <path d="M 45.40625 46.390625 
L 45.40625 75.984375 
L 54.390625 75.984375 
L 54.390625 0 
L 45.40625 0 
L 45.40625 8.203125 
Q 42.578125 3.328125 38.25 0.953125 
Q 33.9375 -1.421875 27.875 -1.421875 
Q 17.96875 -1.421875 11.734375 6.484375 
Q 5.515625 14.40625 5.515625 27.296875 
Q 5.515625 40.1875 11.734375 48.09375 
Q 17.96875 56 27.875 56 
Q 33.9375 56 38.25 53.625 
Q 42.578125 51.265625 45.40625 46.390625 
z
M 14.796875 27.296875 
Q 14.796875 17.390625 18.875 11.75 
Q 22.953125 6.109375 30.078125 6.109375 
Q 37.203125 6.109375 41.296875 11.75 
Q 45.40625 17.390625 45.40625 27.296875 
Q 45.40625 37.203125 41.296875 42.84375 
Q 37.203125 48.484375 30.078125 48.484375 
Q 22.953125 48.484375 18.875 42.84375 
Q 14.796875 37.203125 14.796875 27.296875 
z
" id="DejaVuSans-64"/>
      <path d="M 9.421875 54.6875 
L 18.40625 54.6875 
L 18.40625 0 
L 9.421875 0 
z
M 9.421875 75.984375 
L 18.40625 75.984375 
L 18.40625 64.59375 
L 9.421875 64.59375 
z
" id="DejaVuSans-69"/>
      <path d="M 48.78125 52.59375 
L 48.78125 44.1875 
Q 44.96875 46.296875 41.140625 47.34375 
Q 37.3125 48.390625 33.40625 48.390625 
Q 24.65625 48.390625 19.8125 42.84375 
Q 14.984375 37.3125 14.984375 27.296875 
Q 14.984375 17.28125 19.8125 11.734375 
Q 24.65625 6.203125 33.40625 6.203125 
Q 37.3125 6.203125 41.140625 7.25 
Q 44.96875 8.296875 48.78125 10.40625 
L 48.78125 2.09375 
Q 45.015625 0.34375 40.984375 -0.53125 
Q 36.96875 -1.421875 32.421875 -1.421875 
Q 20.0625 -1.421875 12.78125 6.34375 
Q 5.515625 14.109375 5.515625 27.296875 
Q 5.515625 40.671875 12.859375 48.328125 
Q 20.21875 56 33.015625 56 
Q 37.15625 56 41.109375 55.140625 
Q 45.0625 54.296875 48.78125 52.59375 
z
" id="DejaVuSans-63"/>
      <path d="M 18.3125 70.21875 
L 18.3125 54.6875 
L 36.8125 54.6875 
L 36.8125 47.703125 
L 18.3125 47.703125 
L 18.3125 18.015625 
Q 18.3125 11.328125 20.140625 9.421875 
Q 21.96875 7.515625 27.59375 7.515625 
L 36.8125 7.515625 
L 36.8125 0 
L 27.59375 0 
Q 17.1875 0 13.234375 3.875 
Q 9.28125 7.765625 9.28125 18.015625 
L 9.28125 47.703125 
L 2.6875 47.703125 
L 2.6875 54.6875 
L 9.28125 54.6875 
L 9.28125 70.21875 
z
" id="DejaVuSans-74"/>
     </defs>
     <g transform="translate(146.995312 369.815169)rotate(-90)scale(0.1 -0.1)">
      <use xlink:href="#DejaVuSans-50"/>
      <use x="60.287109" xlink:href="#DejaVuSans-72"/>
      <use x="101.369141" xlink:href="#DejaVuSans-65"/>
      <use x="162.892578" xlink:href="#DejaVuSans-64"/>
      <use x="226.369141" xlink:href="#DejaVuSans-69"/>
      <use x="254.152344" xlink:href="#DejaVuSans-63"/>
      <use x="309.132812" xlink:href="#DejaVuSans-74"/>
      <use x="348.341797" xlink:href="#DejaVuSans-65"/>
      <use x="409.865234" xlink:href="#DejaVuSans-64"/>
     </g>
    </g>
   </g>
   <g id="line2d_25">
    <path clip-path="url(#pf7518fabb7)" d="M 283.521401 553.777142 
L 1181.542147 113.269475 
L 873.403358 264.421327 
L 873.403358 264.421327 
L 444.065946 475.024949 
L 444.065946 475.024949 
L 444.065946 475.024949 
L 1168.089852 119.868253 
L 708.448149 345.337091 
L 708.448149 345.337091 
L 330.939105 530.517254 
L 330.939105 530.517254 
L 330.939105 530.517254 
L 1133.429144 136.870429 
L 608.51495 394.357496 
L 608.51495 394.357496 
L 289.538206 550.825708 
L 289.538206 550.825708 
L 289.538206 550.825708 
L 1042.072125 181.683946 
L 494.051661 450.50537 
L 494.051661 450.50537 
L 249.012228 570.704987 
L 249.012228 570.704987 
L 249.012228 570.704987 
L 973.498857 215.321309 
L 717.918843 340.691415 
L 717.918843 340.691415 
L 247.875473 571.262601 
L 270.799024 560.017872 
L 270.799024 560.017872 
L 911.92332 245.526064 
L 465.267469 464.62493 
L 465.267469 464.62493 
L 267.502817 561.634766 
L 267.502817 561.634766 
L 267.502817 561.634766 
L 1179.021049 114.506153 
L 796.887892 301.954591 
L 796.887892 301.954591 
L 235.564975 577.301291 
L 235.564975 577.301291 
L 235.564975 577.301291 
L 1160.399477 123.640626 
L 435.928673 479.01654 
L 435.928673 479.01654 
L 221.498182 584.201499 
L 221.498182 584.201499 
L 221.498182 584.201499 
L 1195.461818 106.441435 
L 353.601502 519.400629 
" style="fill:none;stroke:#ff0000;stroke-dasharray:5.55,2.4;stroke-dashoffset:0;stroke-width:1.5;"/>
   </g>
   <g id="line2d_26">
    <defs>
     <path d="M 0 1.5 
C 0.397805 1.5 0.77937 1.341951 1.06066 1.06066 
C 1.341951 0.77937 1.5 0.397805 1.5 0 
C 1.5 -0.397805 1.341951 -0.77937 1.06066 -1.06066 
C 0.77937 -1.341951 0.397805 -1.5 0 -1.5 
C -0.397805 -1.5 -0.77937 -1.341951 -1.06066 -1.06066 
C -1.341951 -0.77937 -1.5 -0.397805 -1.5 0 
C -1.5 0.397805 -1.341951 0.77937 -1.06066 1.06066 
C -0.77937 1.341951 -0.397805 1.5 0 1.5 
z
" id="me507fa8e74" style="stroke:#1f77b4;"/>
    </defs>
    <g clip-path="url(#pf7518fabb7)">
     <use style="fill:#1f77b4;stroke:#1f77b4;" x="283.521401" xlink:href="#me507fa8e74" y="553.252845"/>
     <use style="fill:#1f77b4;stroke:#1f77b4;" x="567.365276" xlink:href="#me507fa8e74" y="413.197673"/>
     <use style="fill:#1f77b4;stroke:#1f77b4;" x="1034.341366" xlink:href="#me507fa8e74" y="183.607803"/>
     <use style="fill:#1f77b4;stroke:#1f77b4;" x="1181.542147" xlink:href="#me507fa8e74" y="112.276659"/>
     <use style="fill:#1f77b4;stroke:#1f77b4;" x="742.60947" xlink:href="#me507fa8e74" y="328.200473"/>
     <use style="fill:#1f77b4;stroke:#1f77b4;" x="1055.482601" xlink:href="#me507fa8e74" y="172.849666"/>
     <use style="fill:#1f77b4;stroke:#1f77b4;" x="873.403358" xlink:href="#me507fa8e74" y="262.728893"/>
     <use style="fill:#1f77b4;stroke:#1f77b4;" x="444.065946" xlink:href="#me507fa8e74" y="476.48825"/>
     <use style="fill:#1f77b4;stroke:#1f77b4;" x="1126.051693" xlink:href="#me507fa8e74" y="138.052561"/>
     <use style="fill:#1f77b4;stroke:#1f77b4;" x="797.336321" xlink:href="#me507fa8e74" y="301.743964"/>
     <use style="fill:#1f77b4;stroke:#1f77b4;" x="462.621058" xlink:href="#me507fa8e74" y="466.146051"/>
     <use style="fill:#1f77b4;stroke:#1f77b4;" x="893.171506" xlink:href="#me507fa8e74" y="253.021239"/>
     <use style="fill:#1f77b4;stroke:#1f77b4;" x="1168.089852" xlink:href="#me507fa8e74" y="118.287445"/>
     <use style="fill:#1f77b4;stroke:#1f77b4;" x="665.146189" xlink:href="#me507fa8e74" y="366.214302"/>
     <use style="fill:#1f77b4;stroke:#1f77b4;" x="829.072001" xlink:href="#me507fa8e74" y="285.197849"/>
     <use style="fill:#1f77b4;stroke:#1f77b4;" x="708.448149" xlink:href="#me507fa8e74" y="345.857322"/>
     <use style="fill:#1f77b4;stroke:#1f77b4;" x="330.939105" xlink:href="#me507fa8e74" y="529.205622"/>
     <use style="fill:#1f77b4;stroke:#1f77b4;" x="1133.429144" xlink:href="#me507fa8e74" y="134.624224"/>
     <use style="fill:#1f77b4;stroke:#1f77b4;" x="885.721183" xlink:href="#me507fa8e74" y="256.656355"/>
     <use style="fill:#1f77b4;stroke:#1f77b4;" x="608.51495" xlink:href="#me507fa8e74" y="392.737938"/>
     <use style="fill:#1f77b4;stroke:#1f77b4;" x="289.538206" xlink:href="#me507fa8e74" y="550.072383"/>
     <use style="fill:#1f77b4;stroke:#1f77b4;" x="928.084706" xlink:href="#me507fa8e74" y="236.44487"/>
     <use style="fill:#1f77b4;stroke:#1f77b4;" x="1042.072125" xlink:href="#me507fa8e74" y="179.846367"/>
     <use style="fill:#1f77b4;stroke:#1f77b4;" x="424.006405" xlink:href="#me507fa8e74" y="485.447067"/>
     <use style="fill:#1f77b4;stroke:#1f77b4;" x="849.196758" xlink:href="#me507fa8e74" y="274.822098"/>
     <use style="fill:#1f77b4;stroke:#1f77b4;" x="945.112136" xlink:href="#me507fa8e74" y="227.661569"/>
     <use style="fill:#1f77b4;stroke:#1f77b4;" x="494.051661" xlink:href="#me507fa8e74" y="449.438175"/>
     <use style="fill:#1f77b4;stroke:#1f77b4;" x="249.012228" xlink:href="#me507fa8e74" y="572.138145"/>
     <use style="fill:#1f77b4;stroke:#1f77b4;" x="506.136252" xlink:href="#me507fa8e74" y="443.270956"/>
     <use style="fill:#1f77b4;stroke:#1f77b4;" x="771.121217" xlink:href="#me507fa8e74" y="314.148721"/>
     <use style="fill:#1f77b4;stroke:#1f77b4;" x="350.218871" xlink:href="#me507fa8e74" y="520.070082"/>
     <use style="fill:#1f77b4;stroke:#1f77b4;" x="973.498857" xlink:href="#me507fa8e74" y="213.270851"/>
     <use style="fill:#1f77b4;stroke:#1f77b4;" x="349.505844" xlink:href="#me507fa8e74" y="520.402323"/>
     <use style="fill:#1f77b4;stroke:#1f77b4;" x="554.842375" xlink:href="#me507fa8e74" y="419.545043"/>
     <use style="fill:#1f77b4;stroke:#1f77b4;" x="616.44308" xlink:href="#me507fa8e74" y="388.886374"/>
     <use style="fill:#1f77b4;stroke:#1f77b4;" x="463.082406" xlink:href="#me507fa8e74" y="465.893552"/>
     <use style="fill:#1f77b4;stroke:#1f77b4;" x="358.697274" xlink:href="#me507fa8e74" y="516.155593"/>
     <use style="fill:#1f77b4;stroke:#1f77b4;" x="717.918843" xlink:href="#me507fa8e74" y="340.868855"/>
     <use style="fill:#1f77b4;stroke:#1f77b4;" x="247.875473" xlink:href="#me507fa8e74" y="572.722131"/>
     <use style="fill:#1f77b4;stroke:#1f77b4;" x="476.213667" xlink:href="#me507fa8e74" y="458.797275"/>
     <use style="fill:#1f77b4;stroke:#1f77b4;" x="487.840762" xlink:href="#me507fa8e74" y="452.661682"/>
     <use style="fill:#1f77b4;stroke:#1f77b4;" x="270.799024" xlink:href="#me507fa8e74" y="560.097209"/>
     <use style="fill:#1f77b4;stroke:#1f77b4;" x="911.92332" xlink:href="#me507fa8e74" y="244.031934"/>
     <use style="fill:#1f77b4;stroke:#1f77b4;" x="308.399269" xlink:href="#me507fa8e74" y="540.339439"/>
     <use style="fill:#1f77b4;stroke:#1f77b4;" x="465.267469" xlink:href="#me507fa8e74" y="464.700482"/>
     <use style="fill:#1f77b4;stroke:#1f77b4;" x="267.502817" xlink:href="#me507fa8e74" y="561.900074"/>
     <use style="fill:#1f77b4;stroke:#1f77b4;" x="561.870035" xlink:href="#me507fa8e74" y="416.007906"/>
     <use style="fill:#1f77b4;stroke:#1f77b4;" x="1179.021049" xlink:href="#me507fa8e74" y="113.489115"/>
     <use style="fill:#1f77b4;stroke:#1f77b4;" x="545.460679" xlink:href="#me507fa8e74" y="424.11533"/>
     <use style="fill:#1f77b4;stroke:#1f77b4;" x="985.575577" xlink:href="#me507fa8e74" y="207.516084"/>
     <use style="fill:#1f77b4;stroke:#1f77b4;" x="959.29363" xlink:href="#me507fa8e74" y="220.438279"/>
     <use style="fill:#1f77b4;stroke:#1f77b4;" x="343.610082" xlink:href="#me507fa8e74" y="523.165785"/>
     <use style="fill:#1f77b4;stroke:#1f77b4;" x="556.523816" xlink:href="#me507fa8e74" y="418.694718"/>
     <use style="fill:#1f77b4;stroke:#1f77b4;" x="796.887892" xlink:href="#me507fa8e74" y="301.95215"/>
     <use style="fill:#1f77b4;stroke:#1f77b4;" x="235.564975" xlink:href="#me507fa8e74" y="579.134418"/>
     <use style="fill:#1f77b4;stroke:#1f77b4;" x="884.522023" xlink:href="#me507fa8e74" y="257.244909"/>
     <use style="fill:#1f77b4;stroke:#1f77b4;" x="779.689502" xlink:href="#me507fa8e74" y="310.041442"/>
     <use style="fill:#1f77b4;stroke:#1f77b4;" x="463.400976" xlink:href="#me507fa8e74" y="465.719316"/>
     <use style="fill:#1f77b4;stroke:#1f77b4;" x="761.371236" xlink:href="#me507fa8e74" y="318.886449"/>
     <use style="fill:#1f77b4;stroke:#1f77b4;" x="666.785883" xlink:href="#me507fa8e74" y="365.481777"/>
     <use style="fill:#1f77b4;stroke:#1f77b4;" x="815.652051" xlink:href="#me507fa8e74" y="292.281486"/>
     <use style="fill:#1f77b4;stroke:#1f77b4;" x="624.274462" xlink:href="#me507fa8e74" y="385.11724"/>
     <use style="fill:#1f77b4;stroke:#1f77b4;" x="959.080277" xlink:href="#me507fa8e74" y="220.695332"/>
     <use style="fill:#1f77b4;stroke:#1f77b4;" x="1160.399477" xlink:href="#me507fa8e74" y="122.003629"/>
     <use style="fill:#1f77b4;stroke:#1f77b4;" x="622.255479" xlink:href="#me507fa8e74" y="386.084286"/>
     <use style="fill:#1f77b4;stroke:#1f77b4;" x="473.919033" xlink:href="#me507fa8e74" y="460.024764"/>
     <use style="fill:#1f77b4;stroke:#1f77b4;" x="822.118242" xlink:href="#me507fa8e74" y="288.851576"/>
     <use style="fill:#1f77b4;stroke:#1f77b4;" x="794.903503" xlink:href="#me507fa8e74" y="302.875211"/>
     <use style="fill:#1f77b4;stroke:#1f77b4;" x="266.972305" xlink:href="#me507fa8e74" y="562.191379"/>
     <use style="fill:#1f77b4;stroke:#1f77b4;" x="662.118767" xlink:href="#me507fa8e74" y="367.571831"/>
     <use style="fill:#1f77b4;stroke:#1f77b4;" x="684.114992" xlink:href="#me507fa8e74" y="357.856409"/>
     <use style="fill:#1f77b4;stroke:#1f77b4;" x="435.928673" xlink:href="#me507fa8e74" y="480.088089"/>
     <use style="fill:#1f77b4;stroke:#1f77b4;" x="221.498182" xlink:href="#me507fa8e74" y="586.0512"/>
     <use style="fill:#1f77b4;stroke:#1f77b4;" x="1079.874706" xlink:href="#me507fa8e74" y="160.557193"/>
     <use style="fill:#1f77b4;stroke:#1f77b4;" x="796.950286" xlink:href="#me507fa8e74" y="301.923187"/>
     <use style="fill:#1f77b4;stroke:#1f77b4;" x="865.534128" xlink:href="#me507fa8e74" y="266.609302"/>
     <use style="fill:#1f77b4;stroke:#1f77b4;" x="1172.109923" xlink:href="#me507fa8e74" y="116.404005"/>
     <use style="fill:#1f77b4;stroke:#1f77b4;" x="1058.830315" xlink:href="#me507fa8e74" y="171.28449"/>
     <use style="fill:#1f77b4;stroke:#1f77b4;" x="635.427578" xlink:href="#me507fa8e74" y="379.833041"/>
     <use style="fill:#1f77b4;stroke:#1f77b4;" x="798.873095" xlink:href="#me507fa8e74" y="301.031436"/>
     <use style="fill:#1f77b4;stroke:#1f77b4;" x="915.813293" xlink:href="#me507fa8e74" y="242.288122"/>
     <use style="fill:#1f77b4;stroke:#1f77b4;" x="829.382485" xlink:href="#me507fa8e74" y="285.035595"/>
     <use style="fill:#1f77b4;stroke:#1f77b4;" x="1139.498916" xlink:href="#me507fa8e74" y="131.60395"/>
     <use style="fill:#1f77b4;stroke:#1f77b4;" x="1035.903595" xlink:href="#me507fa8e74" y="182.899735"/>
     <use style="fill:#1f77b4;stroke:#1f77b4;" x="724.469676" xlink:href="#me507fa8e74" y="337.460913"/>
     <use style="fill:#1f77b4;stroke:#1f77b4;" x="1136.062875" xlink:href="#me507fa8e74" y="133.304459"/>
     <use style="fill:#1f77b4;stroke:#1f77b4;" x="738.181593" xlink:href="#me507fa8e74" y="330.437384"/>
     <use style="fill:#1f77b4;stroke:#1f77b4;" x="1179.368328" xlink:href="#me507fa8e74" y="113.187374"/>
     <use style="fill:#1f77b4;stroke:#1f77b4;" x="808.480059" xlink:href="#me507fa8e74" y="296.122793"/>
     <use style="fill:#1f77b4;stroke:#1f77b4;" x="701.778414" xlink:href="#me507fa8e74" y="349.414772"/>
     <use style="fill:#1f77b4;stroke:#1f77b4;" x="587.078782" xlink:href="#me507fa8e74" y="403.310949"/>
     <use style="fill:#1f77b4;stroke:#1f77b4;" x="1083.956788" xlink:href="#me507fa8e74" y="158.668213"/>
     <use style="fill:#1f77b4;stroke:#1f77b4;" x="335.48696" xlink:href="#me507fa8e74" y="527.020083"/>
     <use style="fill:#1f77b4;stroke:#1f77b4;" x="551.509589" xlink:href="#me507fa8e74" y="421.237736"/>
     <use style="fill:#1f77b4;stroke:#1f77b4;" x="464.956315" xlink:href="#me507fa8e74" y="464.870047"/>
     <use style="fill:#1f77b4;stroke:#1f77b4;" x="1103.135882" xlink:href="#me507fa8e74" y="149.183556"/>
     <use style="fill:#1f77b4;stroke:#1f77b4;" x="567.156636" xlink:href="#me507fa8e74" y="413.304149"/>
     <use style="fill:#1f77b4;stroke:#1f77b4;" x="660.48802" xlink:href="#me507fa8e74" y="368.305858"/>
     <use style="fill:#1f77b4;stroke:#1f77b4;" x="457.914085" xlink:href="#me507fa8e74" y="468.735165"/>
     <use style="fill:#1f77b4;stroke:#1f77b4;" x="822.633514" xlink:href="#me507fa8e74" y="288.57962"/>
     <use style="fill:#1f77b4;stroke:#1f77b4;" x="348.737577" xlink:href="#me507fa8e74" y="520.760787"/>
     <use style="fill:#1f77b4;stroke:#1f77b4;" x="1195.461818" xlink:href="#me507fa8e74" y="106.2432"/>
     <use style="fill:#1f77b4;stroke:#1f77b4;" x="645.944318" xlink:href="#me507fa8e74" y="374.938269"/>
     <use style="fill:#1f77b4;stroke:#1f77b4;" x="1130.462298" xlink:href="#me507fa8e74" y="136.034257"/>
     <use style="fill:#1f77b4;stroke:#1f77b4;" x="1118.548212" xlink:href="#me507fa8e74" y="141.591493"/>
     <use style="fill:#1f77b4;stroke:#1f77b4;" x="360.703996" xlink:href="#me507fa8e74" y="515.238693"/>
     <use style="fill:#1f77b4;stroke:#1f77b4;" x="271.146309" xlink:href="#me507fa8e74" y="559.907964"/>
     <use style="fill:#1f77b4;stroke:#1f77b4;" x="1014.678435" xlink:href="#me507fa8e74" y="193.458417"/>
     <use style="fill:#1f77b4;stroke:#1f77b4;" x="688.977949" xlink:href="#me507fa8e74" y="355.760628"/>
     <use style="fill:#1f77b4;stroke:#1f77b4;" x="343.126628" xlink:href="#me507fa8e74" y="523.393422"/>
     <use style="fill:#1f77b4;stroke:#1f77b4;" x="672.843932" xlink:href="#me507fa8e74" y="362.79202"/>
     <use style="fill:#1f77b4;stroke:#1f77b4;" x="1141.666802" xlink:href="#me507fa8e74" y="130.465145"/>
     <use style="fill:#1f77b4;stroke:#1f77b4;" x="1067.61114" xlink:href="#me507fa8e74" y="166.999138"/>
     <use style="fill:#1f77b4;stroke:#1f77b4;" x="295.765643" xlink:href="#me507fa8e74" y="546.813569"/>
     <use style="fill:#1f77b4;stroke:#1f77b4;" x="921.2776" xlink:href="#me507fa8e74" y="239.640541"/>
     <use style="fill:#1f77b4;stroke:#1f77b4;" x="745.536411" xlink:href="#me507fa8e74" y="326.730072"/>
     <use style="fill:#1f77b4;stroke:#1f77b4;" x="1188.106664" xlink:href="#me507fa8e74" y="109.245964"/>
     <use style="fill:#1f77b4;stroke:#1f77b4;" x="929.248315" xlink:href="#me507fa8e74" y="235.882838"/>
     <use style="fill:#1f77b4;stroke:#1f77b4;" x="677.521096" xlink:href="#me507fa8e74" y="360.733158"/>
     <use style="fill:#1f77b4;stroke:#1f77b4;" x="585.261668" xlink:href="#me507fa8e74" y="404.208544"/>
     <use style="fill:#1f77b4;stroke:#1f77b4;" x="563.789016" xlink:href="#me507fa8e74" y="415.027189"/>
     <use style="fill:#1f77b4;stroke:#1f77b4;" x="578.500401" xlink:href="#me507fa8e74" y="407.573252"/>
     <use style="fill:#1f77b4;stroke:#1f77b4;" x="728.087826" xlink:href="#me507fa8e74" y="335.593269"/>
     <use style="fill:#1f77b4;stroke:#1f77b4;" x="833.072024" xlink:href="#me507fa8e74" y="283.112348"/>
     <use style="fill:#1f77b4;stroke:#1f77b4;" x="542.084088" xlink:href="#me507fa8e74" y="425.707544"/>
     <use style="fill:#1f77b4;stroke:#1f77b4;" x="357.007113" xlink:href="#me507fa8e74" y="516.93067"/>
     <use style="fill:#1f77b4;stroke:#1f77b4;" x="1115.764718" xlink:href="#me507fa8e74" y="142.816765"/>
     <use style="fill:#1f77b4;stroke:#1f77b4;" x="403.637409" xlink:href="#me507fa8e74" y="495.946602"/>
     <use style="fill:#1f77b4;stroke:#1f77b4;" x="1110.264525" xlink:href="#me507fa8e74" y="145.495303"/>
     <use style="fill:#1f77b4;stroke:#1f77b4;" x="509.199345" xlink:href="#me507fa8e74" y="441.729438"/>
     <use style="fill:#1f77b4;stroke:#1f77b4;" x="372.767738" xlink:href="#me507fa8e74" y="509.80276"/>
     <use style="fill:#1f77b4;stroke:#1f77b4;" x="618.074018" xlink:href="#me507fa8e74" y="388.097332"/>
     <use style="fill:#1f77b4;stroke:#1f77b4;" x="775.815367" xlink:href="#me507fa8e74" y="311.892141"/>
     <use style="fill:#1f77b4;stroke:#1f77b4;" x="946.528955" xlink:href="#me507fa8e74" y="226.89933"/>
     <use style="fill:#1f77b4;stroke:#1f77b4;" x="401.011741" xlink:href="#me507fa8e74" y="497.51585"/>
     <use style="fill:#1f77b4;stroke:#1f77b4;" x="1190.615704" xlink:href="#me507fa8e74" y="108.066743"/>
     <use style="fill:#1f77b4;stroke:#1f77b4;" x="286.447105" xlink:href="#me507fa8e74" y="551.704139"/>
     <use style="fill:#1f77b4;stroke:#1f77b4;" x="391.237693" xlink:href="#me507fa8e74" y="501.730672"/>
     <use style="fill:#1f77b4;stroke:#1f77b4;" x="1070.461908" xlink:href="#me507fa8e74" y="165.456682"/>
     <use style="fill:#1f77b4;stroke:#1f77b4;" x="547.901152" xlink:href="#me507fa8e74" y="422.97047"/>
     <use style="fill:#1f77b4;stroke:#1f77b4;" x="410.777033" xlink:href="#me507fa8e74" y="491.929323"/>
     <use style="fill:#1f77b4;stroke:#1f77b4;" x="1145.356532" xlink:href="#me507fa8e74" y="128.88462"/>
     <use style="fill:#1f77b4;stroke:#1f77b4;" x="465.68695" xlink:href="#me507fa8e74" y="464.472029"/>
     <use style="fill:#1f77b4;stroke:#1f77b4;" x="1178.387354" xlink:href="#me507fa8e74" y="113.543333"/>
     <use style="fill:#1f77b4;stroke:#1f77b4;" x="884.100532" xlink:href="#me507fa8e74" y="257.451969"/>
     <use style="fill:#1f77b4;stroke:#1f77b4;" x="606.569556" xlink:href="#me507fa8e74" y="393.683272"/>
     <use style="fill:#1f77b4;stroke:#1f77b4;" x="372.471692" xlink:href="#me507fa8e74" y="509.934625"/>
     <use style="fill:#1f77b4;stroke:#1f77b4;" x="661.479473" xlink:href="#me507fa8e74" y="367.859325"/>
     <use style="fill:#1f77b4;stroke:#1f77b4;" x="810.00109" xlink:href="#me507fa8e74" y="295.304882"/>
     <use style="fill:#1f77b4;stroke:#1f77b4;" x="1006.672552" xlink:href="#me507fa8e74" y="197.138127"/>
     <use style="fill:#1f77b4;stroke:#1f77b4;" x="233.846843" xlink:href="#me507fa8e74" y="580.042376"/>
     <use style="fill:#1f77b4;stroke:#1f77b4;" x="748.746947" xlink:href="#me507fa8e74" y="325.12455"/>
     <use style="fill:#1f77b4;stroke:#1f77b4;" x="1163.219622" xlink:href="#me507fa8e74" y="120.644198"/>
     <use style="fill:#1f77b4;stroke:#1f77b4;" x="1149.933168" xlink:href="#me507fa8e74" y="126.76633"/>
     <use style="fill:#1f77b4;stroke:#1f77b4;" x="812.196966" xlink:href="#me507fa8e74" y="294.127186"/>
     <use style="fill:#1f77b4;stroke:#1f77b4;" x="1014.6681" xlink:href="#me507fa8e74" y="193.445039"/>
     <use style="fill:#1f77b4;stroke:#1f77b4;" x="541.455464" xlink:href="#me507fa8e74" y="426.005037"/>
     <use style="fill:#1f77b4;stroke:#1f77b4;" x="604.945556" xlink:href="#me507fa8e74" y="394.474756"/>
     <use style="fill:#1f77b4;stroke:#1f77b4;" x="813.676466" xlink:href="#me507fa8e74" y="293.335702"/>
     <use style="fill:#1f77b4;stroke:#1f77b4;" x="883.305638" xlink:href="#me507fa8e74" y="257.884583"/>
     <use style="fill:#1f77b4;stroke:#1f77b4;" x="1181.409321" xlink:href="#me507fa8e74" y="112.255254"/>
     <use style="fill:#1f77b4;stroke:#1f77b4;" x="324.239548" xlink:href="#me507fa8e74" y="532.461948"/>
     <use style="fill:#1f77b4;stroke:#1f77b4;" x="481.478831" xlink:href="#me507fa8e74" y="456.002333"/>
     <use style="fill:#1f77b4;stroke:#1f77b4;" x="811.140488" xlink:href="#me507fa8e74" y="294.693373"/>
     <use style="fill:#1f77b4;stroke:#1f77b4;" x="728.475058" xlink:href="#me507fa8e74" y="335.394001"/>
     <use style="fill:#1f77b4;stroke:#1f77b4;" x="976.252494" xlink:href="#me507fa8e74" y="211.868421"/>
     <use style="fill:#1f77b4;stroke:#1f77b4;" x="555.028264" xlink:href="#me507fa8e74" y="419.450925"/>
     <use style="fill:#1f77b4;stroke:#1f77b4;" x="540.869473" xlink:href="#me507fa8e74" y="426.282674"/>
     <use style="fill:#1f77b4;stroke:#1f77b4;" x="964.39549" xlink:href="#me507fa8e74" y="217.848179"/>
     <use style="fill:#1f77b4;stroke:#1f77b4;" x="1144.960353" xlink:href="#me507fa8e74" y="129.230955"/>
     <use style="fill:#1f77b4;stroke:#1f77b4;" x="844.432272" xlink:href="#me507fa8e74" y="277.252432"/>
     <use style="fill:#1f77b4;stroke:#1f77b4;" x="1067.474966" xlink:href="#me507fa8e74" y="166.98515"/>
     <use style="fill:#1f77b4;stroke:#1f77b4;" x="364.153638" xlink:href="#me507fa8e74" y="513.670994"/>
     <use style="fill:#1f77b4;stroke:#1f77b4;" x="829.85278" xlink:href="#me507fa8e74" y="284.789902"/>
     <use style="fill:#1f77b4;stroke:#1f77b4;" x="1155.073163" xlink:href="#me507fa8e74" y="124.520688"/>
     <use style="fill:#1f77b4;stroke:#1f77b4;" x="946.595655" xlink:href="#me507fa8e74" y="226.916323"/>
     <use style="fill:#1f77b4;stroke:#1f77b4;" x="238.20105" xlink:href="#me507fa8e74" y="577.747624"/>
     <use style="fill:#1f77b4;stroke:#1f77b4;" x="859.928574" xlink:href="#me507fa8e74" y="269.406344"/>
     <use style="fill:#1f77b4;stroke:#1f77b4;" x="826.408031" xlink:href="#me507fa8e74" y="286.593401"/>
     <use style="fill:#1f77b4;stroke:#1f77b4;" x="233.796244" xlink:href="#me507fa8e74" y="580.069127"/>
     <use style="fill:#1f77b4;stroke:#1f77b4;" x="1157.459521" xlink:href="#me507fa8e74" y="123.346348"/>
     <use style="fill:#1f77b4;stroke:#1f77b4;" x="266.988466" xlink:href="#me507fa8e74" y="562.182487"/>
     <use style="fill:#1f77b4;stroke:#1f77b4;" x="263.183961" xlink:href="#me507fa8e74" y="564.280973"/>
     <use style="fill:#1f77b4;stroke:#1f77b4;" x="466.756849" xlink:href="#me507fa8e74" y="463.890105"/>
     <use style="fill:#1f77b4;stroke:#1f77b4;" x="320.304012" xlink:href="#me507fa8e74" y="534.39551"/>
     <use style="fill:#1f77b4;stroke:#1f77b4;" x="417.83589" xlink:href="#me507fa8e74" y="488.384946"/>
     <use style="fill:#1f77b4;stroke:#1f77b4;" x="460.132067" xlink:href="#me507fa8e74" y="467.512253"/>
     <use style="fill:#1f77b4;stroke:#1f77b4;" x="764.392199" xlink:href="#me507fa8e74" y="317.411119"/>
     <use style="fill:#1f77b4;stroke:#1f77b4;" x="265.688951" xlink:href="#me507fa8e74" y="562.897408"/>
     <use style="fill:#1f77b4;stroke:#1f77b4;" x="676.270739" xlink:href="#me507fa8e74" y="361.282071"/>
     <use style="fill:#1f77b4;stroke:#1f77b4;" x="1101.147904" xlink:href="#me507fa8e74" y="150.086902"/>
     <use style="fill:#1f77b4;stroke:#1f77b4;" x="356.794681" xlink:href="#me507fa8e74" y="517.028262"/>
     <use style="fill:#1f77b4;stroke:#1f77b4;" x="523.799052" xlink:href="#me507fa8e74" y="434.498779"/>
     <use style="fill:#1f77b4;stroke:#1f77b4;" x="810.544545" xlink:href="#me507fa8e74" y="295.013092"/>
     <use style="fill:#1f77b4;stroke:#1f77b4;" x="575.427404" xlink:href="#me507fa8e74" y="409.114887"/>
     <use style="fill:#1f77b4;stroke:#1f77b4;" x="235.7647" xlink:href="#me507fa8e74" y="579.029073"/>
     <use style="fill:#1f77b4;stroke:#1f77b4;" x="251.706402" xlink:href="#me507fa8e74" y="570.713301"/>
     <use style="fill:#1f77b4;stroke:#1f77b4;" x="746.902082" xlink:href="#me507fa8e74" y="326.046132"/>
     <use style="fill:#1f77b4;stroke:#1f77b4;" x="793.927361" xlink:href="#me507fa8e74" y="303.330146"/>
     <use style="fill:#1f77b4;stroke:#1f77b4;" x="353.601502" xlink:href="#me507fa8e74" y="518.500376"/>
    </g>
   </g>
   <g id="patch_3">
    <path d="M 172.8 610.0416 
L 172.8 82.2528 
" style="fill:none;stroke:#000000;stroke-linecap:square;stroke-linejoin:miter;stroke-width:0.8;"/>
   </g>
   <g id="patch_4">
    <path d="M 1244.16 610.0416 
L 1244.16 82.2528 
" style="fill:none;stroke:#000000;stroke-linecap:square;stroke-linejoin:miter;stroke-width:0.8;"/>
   </g>
   <g id="patch_5">
    <path d="M 172.8 610.0416 
L 1244.16 610.0416 
" style="fill:none;stroke:#000000;stroke-linecap:square;stroke-linejoin:miter;stroke-width:0.8;"/>
   </g>
   <g id="patch_6">
    <path d="M 172.8 82.2528 
L 1244.16 82.2528 
" style="fill:none;stroke:#000000;stroke-linecap:square;stroke-linejoin:miter;stroke-width:0.8;"/>
   </g>
   <g id="legend_1">
    <g id="patch_7">
     <path d="M 179.8 119.60905 
L 259.45625 119.60905 
Q 261.45625 119.60905 261.45625 117.60905 
L 261.45625 89.2528 
Q 261.45625 87.2528 259.45625 87.2528 
L 179.8 87.2528 
Q 177.8 87.2528 177.8 89.2528 
L 177.8 117.60905 
Q 177.8 119.60905 179.8 119.60905 
z
" style="fill:#ffffff;opacity:0.8;stroke:#cccccc;stroke-linejoin:miter;"/>
    </g>
    <g id="line2d_27">
     <path d="M 181.8 95.351237 
L 201.8 95.351237 
" style="fill:none;stroke:#ff0000;stroke-dasharray:5.55,2.4;stroke-dashoffset:0;stroke-width:1.5;"/>
    </g>
    <g id="line2d_28"/>
    <g id="text_15">
     <!-- real data -->
     <defs>
      <path id="DejaVuSans-20"/>
     </defs>
     <g transform="translate(209.8 98.851237)scale(0.1 -0.1)">
      <use xlink:href="#DejaVuSans-72"/>
      <use x="41.082031" xlink:href="#DejaVuSans-65"/>
      <use x="102.605469" xlink:href="#DejaVuSans-61"/>
      <use x="163.884766" xlink:href="#DejaVuSans-6c"/>
      <use x="191.667969" xlink:href="#DejaVuSans-20"/>
      <use x="223.455078" xlink:href="#DejaVuSans-64"/>
      <use x="286.931641" xlink:href="#DejaVuSans-61"/>
      <use x="348.210938" xlink:href="#DejaVuSans-74"/>
      <use x="387.419922" xlink:href="#DejaVuSans-61"/>
     </g>
    </g>
    <g id="line2d_29"/>
    <g id="line2d_30">
     <g>
      <use style="fill:#1f77b4;stroke:#1f77b4;" x="191.8" xlink:href="#me507fa8e74" y="110.029362"/>
     </g>
    </g>
    <g id="text_16">
     <!-- predicted -->
     <defs>
      <path d="M 18.109375 8.203125 
L 18.109375 -20.796875 
L 9.078125 -20.796875 
L 9.078125 54.6875 
L 18.109375 54.6875 
L 18.109375 46.390625 
Q 20.953125 51.265625 25.265625 53.625 
Q 29.59375 56 35.59375 56 
Q 45.5625 56 51.78125 48.09375 
Q 58.015625 40.1875 58.015625 27.296875 
Q 58.015625 14.40625 51.78125 6.484375 
Q 45.5625 -1.421875 35.59375 -1.421875 
Q 29.59375 -1.421875 25.265625 0.953125 
Q 20.953125 3.328125 18.109375 8.203125 
z
M 48.6875 27.296875 
Q 48.6875 37.203125 44.609375 42.84375 
Q 40.53125 48.484375 33.40625 48.484375 
Q 26.265625 48.484375 22.1875 42.84375 
Q 18.109375 37.203125 18.109375 27.296875 
Q 18.109375 17.390625 22.1875 11.75 
Q 26.265625 6.109375 33.40625 6.109375 
Q 40.53125 6.109375 44.609375 11.75 
Q 48.6875 17.390625 48.6875 27.296875 
z
" id="DejaVuSans-70"/>
     </defs>
     <g transform="translate(209.8 113.529362)scale(0.1 -0.1)">
      <use xlink:href="#DejaVuSans-70"/>
      <use x="63.476562" xlink:href="#DejaVuSans-72"/>
      <use x="104.558594" xlink:href="#DejaVuSans-65"/>
      <use x="166.082031" xlink:href="#DejaVuSans-64"/>
      <use x="229.558594" xlink:href="#DejaVuSans-69"/>
      <use x="257.341797" xlink:href="#DejaVuSans-63"/>
      <use x="312.322266" xlink:href="#DejaVuSans-74"/>
      <use x="351.53125" xlink:href="#DejaVuSans-65"/>
      <use x="413.054688" xlink:href="#DejaVuSans-64"/>
     </g>
    </g>
   </g>
  </g>
 </g>
 <defs>
  <clipPath id="pf7518fabb7">
   <rect height="527.7888" width="1071.36" x="172.8" y="82.2528"/>
  </clipPath>
 </defs>
</svg>
