<?xml version="1.0" encoding="utf-8" standalone="no"?>
<!DOCTYPE svg PUBLIC "-//W3C//DTD SVG 1.1//EN"
  "http://www.w3.org/Graphics/SVG/1.1/DTD/svg11.dtd">
<!-- Created with matplotlib (http://matplotlib.org/) -->
<svg height="432pt" version="1.1" viewBox="0 0 576 432" width="576pt" xmlns="http://www.w3.org/2000/svg" xmlns:xlink="http://www.w3.org/1999/xlink">
 <defs>
  <style type="text/css">
*{stroke-linecap:butt;stroke-linejoin:round;}
  </style>
 </defs>
 <g id="figure_1">
  <g id="patch_1">
   <path d="M 0 432 
L 576 432 
L 576 0 
L 0 0 
z
" style="fill:#ffffff;"/>
  </g>
  <g id="axes_1">
   <g id="patch_2">
    <path d="M 72 384.48 
L 518.4 384.48 
L 518.4 51.84 
L 72 51.84 
z
" style="fill:#ffffff;"/>
   </g>
   <g id="matplotlib.axis_1">
    <g id="xtick_1">
     <g id="line2d_1">
      <path clip-path="url(#p949b0b4435)" d="M 92.817923 384.48 
L 92.817923 51.84 
" style="fill:none;stroke:#b0b0b0;stroke-linecap:square;stroke-width:0.8;"/>
     </g>
     <g id="line2d_2">
      <defs>
       <path d="M 0 0 
L 0 3.5 
" id="mfe8eb892d4" style="stroke:#000000;stroke-width:0.8;"/>
      </defs>
      <g>
       <use style="stroke:#000000;stroke-width:0.8;" x="92.817923" xlink:href="#mfe8eb892d4" y="384.48"/>
      </g>
     </g>
     <g id="text_1">
      <!-- 1.25 -->
      <defs>
       <path d="M 12.40625 8.296875 
L 28.515625 8.296875 
L 28.515625 63.921875 
L 10.984375 60.40625 
L 10.984375 69.390625 
L 28.421875 72.90625 
L 38.28125 72.90625 
L 38.28125 8.296875 
L 54.390625 8.296875 
L 54.390625 0 
L 12.40625 0 
z
" id="DejaVuSans-31"/>
       <path d="M 10.6875 12.40625 
L 21 12.40625 
L 21 0 
L 10.6875 0 
z
" id="DejaVuSans-2e"/>
       <path d="M 19.1875 8.296875 
L 53.609375 8.296875 
L 53.609375 0 
L 7.328125 0 
L 7.328125 8.296875 
Q 12.9375 14.109375 22.625 23.890625 
Q 32.328125 33.6875 34.8125 36.53125 
Q 39.546875 41.84375 41.421875 45.53125 
Q 43.3125 49.21875 43.3125 52.78125 
Q 43.3125 58.59375 39.234375 62.25 
Q 35.15625 65.921875 28.609375 65.921875 
Q 23.96875 65.921875 18.8125 64.3125 
Q 13.671875 62.703125 7.8125 59.421875 
L 7.8125 69.390625 
Q 13.765625 71.78125 18.9375 73 
Q 24.125 74.21875 28.421875 74.21875 
Q 39.75 74.21875 46.484375 68.546875 
Q 53.21875 62.890625 53.21875 53.421875 
Q 53.21875 48.921875 51.53125 44.890625 
Q 49.859375 40.875 45.40625 35.40625 
Q 44.1875 33.984375 37.640625 27.21875 
Q 31.109375 20.453125 19.1875 8.296875 
z
" id="DejaVuSans-32"/>
       <path d="M 10.796875 72.90625 
L 49.515625 72.90625 
L 49.515625 64.59375 
L 19.828125 64.59375 
L 19.828125 46.734375 
Q 21.96875 47.46875 24.109375 47.828125 
Q 26.265625 48.1875 28.421875 48.1875 
Q 40.625 48.1875 47.75 41.5 
Q 54.890625 34.8125 54.890625 23.390625 
Q 54.890625 11.625 47.5625 5.09375 
Q 40.234375 -1.421875 26.90625 -1.421875 
Q 22.3125 -1.421875 17.546875 -0.640625 
Q 12.796875 0.140625 7.71875 1.703125 
L 7.71875 11.625 
Q 12.109375 9.234375 16.796875 8.0625 
Q 21.484375 6.890625 26.703125 6.890625 
Q 35.15625 6.890625 40.078125 11.328125 
Q 45.015625 15.765625 45.015625 23.390625 
Q 45.015625 31 40.078125 35.4375 
Q 35.15625 39.890625 26.703125 39.890625 
Q 22.75 39.890625 18.8125 39.015625 
Q 14.890625 38.140625 10.796875 36.28125 
z
" id="DejaVuSans-35"/>
      </defs>
      <g transform="translate(81.68511 399.078438)scale(0.1 -0.1)">
       <use xlink:href="#DejaVuSans-31"/>
       <use x="63.623047" xlink:href="#DejaVuSans-2e"/>
       <use x="95.410156" xlink:href="#DejaVuSans-32"/>
       <use x="159.033203" xlink:href="#DejaVuSans-35"/>
      </g>
     </g>
    </g>
    <g id="xtick_2">
     <g id="line2d_3">
      <path clip-path="url(#p949b0b4435)" d="M 146.269979 384.48 
L 146.269979 51.84 
" style="fill:none;stroke:#b0b0b0;stroke-linecap:square;stroke-width:0.8;"/>
     </g>
     <g id="line2d_4">
      <g>
       <use style="stroke:#000000;stroke-width:0.8;" x="146.269979" xlink:href="#mfe8eb892d4" y="384.48"/>
      </g>
     </g>
     <g id="text_2">
      <!-- 1.50 -->
      <defs>
       <path d="M 31.78125 66.40625 
Q 24.171875 66.40625 20.328125 58.90625 
Q 16.5 51.421875 16.5 36.375 
Q 16.5 21.390625 20.328125 13.890625 
Q 24.171875 6.390625 31.78125 6.390625 
Q 39.453125 6.390625 43.28125 13.890625 
Q 47.125 21.390625 47.125 36.375 
Q 47.125 51.421875 43.28125 58.90625 
Q 39.453125 66.40625 31.78125 66.40625 
z
M 31.78125 74.21875 
Q 44.046875 74.21875 50.515625 64.515625 
Q 56.984375 54.828125 56.984375 36.375 
Q 56.984375 17.96875 50.515625 8.265625 
Q 44.046875 -1.421875 31.78125 -1.421875 
Q 19.53125 -1.421875 13.0625 8.265625 
Q 6.59375 17.96875 6.59375 36.375 
Q 6.59375 54.828125 13.0625 64.515625 
Q 19.53125 74.21875 31.78125 74.21875 
z
" id="DejaVuSans-30"/>
      </defs>
      <g transform="translate(135.137167 399.078438)scale(0.1 -0.1)">
       <use xlink:href="#DejaVuSans-31"/>
       <use x="63.623047" xlink:href="#DejaVuSans-2e"/>
       <use x="95.410156" xlink:href="#DejaVuSans-35"/>
       <use x="159.033203" xlink:href="#DejaVuSans-30"/>
      </g>
     </g>
    </g>
    <g id="xtick_3">
     <g id="line2d_5">
      <path clip-path="url(#p949b0b4435)" d="M 199.722036 384.48 
L 199.722036 51.84 
" style="fill:none;stroke:#b0b0b0;stroke-linecap:square;stroke-width:0.8;"/>
     </g>
     <g id="line2d_6">
      <g>
       <use style="stroke:#000000;stroke-width:0.8;" x="199.722036" xlink:href="#mfe8eb892d4" y="384.48"/>
      </g>
     </g>
     <g id="text_3">
      <!-- 1.75 -->
      <defs>
       <path d="M 8.203125 72.90625 
L 55.078125 72.90625 
L 55.078125 68.703125 
L 28.609375 0 
L 18.3125 0 
L 43.21875 64.59375 
L 8.203125 64.59375 
z
" id="DejaVuSans-37"/>
      </defs>
      <g transform="translate(188.589223 399.078438)scale(0.1 -0.1)">
       <use xlink:href="#DejaVuSans-31"/>
       <use x="63.623047" xlink:href="#DejaVuSans-2e"/>
       <use x="95.410156" xlink:href="#DejaVuSans-37"/>
       <use x="159.033203" xlink:href="#DejaVuSans-35"/>
      </g>
     </g>
    </g>
    <g id="xtick_4">
     <g id="line2d_7">
      <path clip-path="url(#p949b0b4435)" d="M 253.174092 384.48 
L 253.174092 51.84 
" style="fill:none;stroke:#b0b0b0;stroke-linecap:square;stroke-width:0.8;"/>
     </g>
     <g id="line2d_8">
      <g>
       <use style="stroke:#000000;stroke-width:0.8;" x="253.174092" xlink:href="#mfe8eb892d4" y="384.48"/>
      </g>
     </g>
     <g id="text_4">
      <!-- 2.00 -->
      <g transform="translate(242.041279 399.078438)scale(0.1 -0.1)">
       <use xlink:href="#DejaVuSans-32"/>
       <use x="63.623047" xlink:href="#DejaVuSans-2e"/>
       <use x="95.410156" xlink:href="#DejaVuSans-30"/>
       <use x="159.033203" xlink:href="#DejaVuSans-30"/>
      </g>
     </g>
    </g>
    <g id="xtick_5">
     <g id="line2d_9">
      <path clip-path="url(#p949b0b4435)" d="M 306.626148 384.48 
L 306.626148 51.84 
" style="fill:none;stroke:#b0b0b0;stroke-linecap:square;stroke-width:0.8;"/>
     </g>
     <g id="line2d_10">
      <g>
       <use style="stroke:#000000;stroke-width:0.8;" x="306.626148" xlink:href="#mfe8eb892d4" y="384.48"/>
      </g>
     </g>
     <g id="text_5">
      <!-- 2.25 -->
      <g transform="translate(295.493336 399.078438)scale(0.1 -0.1)">
       <use xlink:href="#DejaVuSans-32"/>
       <use x="63.623047" xlink:href="#DejaVuSans-2e"/>
       <use x="95.410156" xlink:href="#DejaVuSans-32"/>
       <use x="159.033203" xlink:href="#DejaVuSans-35"/>
      </g>
     </g>
    </g>
    <g id="xtick_6">
     <g id="line2d_11">
      <path clip-path="url(#p949b0b4435)" d="M 360.078205 384.48 
L 360.078205 51.84 
" style="fill:none;stroke:#b0b0b0;stroke-linecap:square;stroke-width:0.8;"/>
     </g>
     <g id="line2d_12">
      <g>
       <use style="stroke:#000000;stroke-width:0.8;" x="360.078205" xlink:href="#mfe8eb892d4" y="384.48"/>
      </g>
     </g>
     <g id="text_6">
      <!-- 2.50 -->
      <g transform="translate(348.945392 399.078438)scale(0.1 -0.1)">
       <use xlink:href="#DejaVuSans-32"/>
       <use x="63.623047" xlink:href="#DejaVuSans-2e"/>
       <use x="95.410156" xlink:href="#DejaVuSans-35"/>
       <use x="159.033203" xlink:href="#DejaVuSans-30"/>
      </g>
     </g>
    </g>
    <g id="xtick_7">
     <g id="line2d_13">
      <path clip-path="url(#p949b0b4435)" d="M 413.530261 384.48 
L 413.530261 51.84 
" style="fill:none;stroke:#b0b0b0;stroke-linecap:square;stroke-width:0.8;"/>
     </g>
     <g id="line2d_14">
      <g>
       <use style="stroke:#000000;stroke-width:0.8;" x="413.530261" xlink:href="#mfe8eb892d4" y="384.48"/>
      </g>
     </g>
     <g id="text_7">
      <!-- 2.75 -->
      <g transform="translate(402.397448 399.078438)scale(0.1 -0.1)">
       <use xlink:href="#DejaVuSans-32"/>
       <use x="63.623047" xlink:href="#DejaVuSans-2e"/>
       <use x="95.410156" xlink:href="#DejaVuSans-37"/>
       <use x="159.033203" xlink:href="#DejaVuSans-35"/>
      </g>
     </g>
    </g>
    <g id="xtick_8">
     <g id="line2d_15">
      <path clip-path="url(#p949b0b4435)" d="M 466.982317 384.48 
L 466.982317 51.84 
" style="fill:none;stroke:#b0b0b0;stroke-linecap:square;stroke-width:0.8;"/>
     </g>
     <g id="line2d_16">
      <g>
       <use style="stroke:#000000;stroke-width:0.8;" x="466.982317" xlink:href="#mfe8eb892d4" y="384.48"/>
      </g>
     </g>
     <g id="text_8">
      <!-- 3.00 -->
      <defs>
       <path d="M 40.578125 39.3125 
Q 47.65625 37.796875 51.625 33 
Q 55.609375 28.21875 55.609375 21.1875 
Q 55.609375 10.40625 48.1875 4.484375 
Q 40.765625 -1.421875 27.09375 -1.421875 
Q 22.515625 -1.421875 17.65625 -0.515625 
Q 12.796875 0.390625 7.625 2.203125 
L 7.625 11.71875 
Q 11.71875 9.328125 16.59375 8.109375 
Q 21.484375 6.890625 26.8125 6.890625 
Q 36.078125 6.890625 40.9375 10.546875 
Q 45.796875 14.203125 45.796875 21.1875 
Q 45.796875 27.640625 41.28125 31.265625 
Q 36.765625 34.90625 28.71875 34.90625 
L 20.21875 34.90625 
L 20.21875 43.015625 
L 29.109375 43.015625 
Q 36.375 43.015625 40.234375 45.921875 
Q 44.09375 48.828125 44.09375 54.296875 
Q 44.09375 59.90625 40.109375 62.90625 
Q 36.140625 65.921875 28.71875 65.921875 
Q 24.65625 65.921875 20.015625 65.03125 
Q 15.375 64.15625 9.8125 62.3125 
L 9.8125 71.09375 
Q 15.4375 72.65625 20.34375 73.4375 
Q 25.25 74.21875 29.59375 74.21875 
Q 40.828125 74.21875 47.359375 69.109375 
Q 53.90625 64.015625 53.90625 55.328125 
Q 53.90625 49.265625 50.4375 45.09375 
Q 46.96875 40.921875 40.578125 39.3125 
z
" id="DejaVuSans-33"/>
      </defs>
      <g transform="translate(455.849505 399.078438)scale(0.1 -0.1)">
       <use xlink:href="#DejaVuSans-33"/>
       <use x="63.623047" xlink:href="#DejaVuSans-2e"/>
       <use x="95.410156" xlink:href="#DejaVuSans-30"/>
       <use x="159.033203" xlink:href="#DejaVuSans-30"/>
      </g>
     </g>
    </g>
    <g id="text_9">
     <!-- Real -->
     <defs>
      <path d="M 44.390625 34.1875 
Q 47.5625 33.109375 50.5625 29.59375 
Q 53.5625 26.078125 56.59375 19.921875 
L 66.609375 0 
L 56 0 
L 46.6875 18.703125 
Q 43.0625 26.03125 39.671875 28.421875 
Q 36.28125 30.8125 30.421875 30.8125 
L 19.671875 30.8125 
L 19.671875 0 
L 9.8125 0 
L 9.8125 72.90625 
L 32.078125 72.90625 
Q 44.578125 72.90625 50.734375 67.671875 
Q 56.890625 62.453125 56.890625 51.90625 
Q 56.890625 45.015625 53.6875 40.46875 
Q 50.484375 35.9375 44.390625 34.1875 
z
M 19.671875 64.796875 
L 19.671875 38.921875 
L 32.078125 38.921875 
Q 39.203125 38.921875 42.84375 42.21875 
Q 46.484375 45.515625 46.484375 51.90625 
Q 46.484375 58.296875 42.84375 61.546875 
Q 39.203125 64.796875 32.078125 64.796875 
z
" id="DejaVuSans-52"/>
      <path d="M 56.203125 29.59375 
L 56.203125 25.203125 
L 14.890625 25.203125 
Q 15.484375 15.921875 20.484375 11.0625 
Q 25.484375 6.203125 34.421875 6.203125 
Q 39.59375 6.203125 44.453125 7.46875 
Q 49.3125 8.734375 54.109375 11.28125 
L 54.109375 2.78125 
Q 49.265625 0.734375 44.1875 -0.34375 
Q 39.109375 -1.421875 33.890625 -1.421875 
Q 20.796875 -1.421875 13.15625 6.1875 
Q 5.515625 13.8125 5.515625 26.8125 
Q 5.515625 40.234375 12.765625 48.109375 
Q 20.015625 56 32.328125 56 
Q 43.359375 56 49.78125 48.890625 
Q 56.203125 41.796875 56.203125 29.59375 
z
M 47.21875 32.234375 
Q 47.125 39.59375 43.09375 43.984375 
Q 39.0625 48.390625 32.421875 48.390625 
Q 24.90625 48.390625 20.390625 44.140625 
Q 15.875 39.890625 15.1875 32.171875 
z
" id="DejaVuSans-65"/>
      <path d="M 34.28125 27.484375 
Q 23.390625 27.484375 19.1875 25 
Q 14.984375 22.515625 14.984375 16.5 
Q 14.984375 11.71875 18.140625 8.90625 
Q 21.296875 6.109375 26.703125 6.109375 
Q 34.1875 6.109375 38.703125 11.40625 
Q 43.21875 16.703125 43.21875 25.484375 
L 43.21875 27.484375 
z
M 52.203125 31.203125 
L 52.203125 0 
L 43.21875 0 
L 43.21875 8.296875 
Q 40.140625 3.328125 35.546875 0.953125 
Q 30.953125 -1.421875 24.3125 -1.421875 
Q 15.921875 -1.421875 10.953125 3.296875 
Q 6 8.015625 6 15.921875 
Q 6 25.140625 12.171875 29.828125 
Q 18.359375 34.515625 30.609375 34.515625 
L 43.21875 34.515625 
L 43.21875 35.40625 
Q 43.21875 41.609375 39.140625 45 
Q 35.0625 48.390625 27.6875 48.390625 
Q 23 48.390625 18.546875 47.265625 
Q 14.109375 46.140625 10.015625 43.890625 
L 10.015625 52.203125 
Q 14.9375 54.109375 19.578125 55.046875 
Q 24.21875 56 28.609375 56 
Q 40.484375 56 46.34375 49.84375 
Q 52.203125 43.703125 52.203125 31.203125 
z
" id="DejaVuSans-61"/>
      <path d="M 9.421875 75.984375 
L 18.40625 75.984375 
L 18.40625 0 
L 9.421875 0 
z
" id="DejaVuSans-6c"/>
     </defs>
     <g transform="translate(284.199219 412.756563)scale(0.1 -0.1)">
      <use xlink:href="#DejaVuSans-52"/>
      <use x="69.419922" xlink:href="#DejaVuSans-65"/>
      <use x="130.943359" xlink:href="#DejaVuSans-61"/>
      <use x="192.222656" xlink:href="#DejaVuSans-6c"/>
     </g>
    </g>
   </g>
   <g id="matplotlib.axis_2">
    <g id="ytick_1">
     <g id="line2d_17">
      <path clip-path="url(#p949b0b4435)" d="M 72 334.368166 
L 518.4 334.368166 
" style="fill:none;stroke:#b0b0b0;stroke-linecap:square;stroke-width:0.8;"/>
     </g>
     <g id="line2d_18">
      <defs>
       <path d="M 0 0 
L -3.5 0 
" id="me521a6b804" style="stroke:#000000;stroke-width:0.8;"/>
      </defs>
      <g>
       <use style="stroke:#000000;stroke-width:0.8;" x="72" xlink:href="#me521a6b804" y="334.368166"/>
      </g>
     </g>
     <g id="text_10">
      <!-- 1.5 -->
      <g transform="translate(49.096875 338.167385)scale(0.1 -0.1)">
       <use xlink:href="#DejaVuSans-31"/>
       <use x="63.623047" xlink:href="#DejaVuSans-2e"/>
       <use x="95.410156" xlink:href="#DejaVuSans-35"/>
      </g>
     </g>
    </g>
    <g id="ytick_2">
     <g id="line2d_19">
      <path clip-path="url(#p949b0b4435)" d="M 72 265.067771 
L 518.4 265.067771 
" style="fill:none;stroke:#b0b0b0;stroke-linecap:square;stroke-width:0.8;"/>
     </g>
     <g id="line2d_20">
      <g>
       <use style="stroke:#000000;stroke-width:0.8;" x="72" xlink:href="#me521a6b804" y="265.067771"/>
      </g>
     </g>
     <g id="text_11">
      <!-- 2.0 -->
      <g transform="translate(49.096875 268.86699)scale(0.1 -0.1)">
       <use xlink:href="#DejaVuSans-32"/>
       <use x="63.623047" xlink:href="#DejaVuSans-2e"/>
       <use x="95.410156" xlink:href="#DejaVuSans-30"/>
      </g>
     </g>
    </g>
    <g id="ytick_3">
     <g id="line2d_21">
      <path clip-path="url(#p949b0b4435)" d="M 72 195.767375 
L 518.4 195.767375 
" style="fill:none;stroke:#b0b0b0;stroke-linecap:square;stroke-width:0.8;"/>
     </g>
     <g id="line2d_22">
      <g>
       <use style="stroke:#000000;stroke-width:0.8;" x="72" xlink:href="#me521a6b804" y="195.767375"/>
      </g>
     </g>
     <g id="text_12">
      <!-- 2.5 -->
      <g transform="translate(49.096875 199.566594)scale(0.1 -0.1)">
       <use xlink:href="#DejaVuSans-32"/>
       <use x="63.623047" xlink:href="#DejaVuSans-2e"/>
       <use x="95.410156" xlink:href="#DejaVuSans-35"/>
      </g>
     </g>
    </g>
    <g id="ytick_4">
     <g id="line2d_23">
      <path clip-path="url(#p949b0b4435)" d="M 72 126.46698 
L 518.4 126.46698 
" style="fill:none;stroke:#b0b0b0;stroke-linecap:square;stroke-width:0.8;"/>
     </g>
     <g id="line2d_24">
      <g>
       <use style="stroke:#000000;stroke-width:0.8;" x="72" xlink:href="#me521a6b804" y="126.46698"/>
      </g>
     </g>
     <g id="text_13">
      <!-- 3.0 -->
      <g transform="translate(49.096875 130.266199)scale(0.1 -0.1)">
       <use xlink:href="#DejaVuSans-33"/>
       <use x="63.623047" xlink:href="#DejaVuSans-2e"/>
       <use x="95.410156" xlink:href="#DejaVuSans-30"/>
      </g>
     </g>
    </g>
    <g id="ytick_5">
     <g id="line2d_25">
      <path clip-path="url(#p949b0b4435)" d="M 72 57.166584 
L 518.4 57.166584 
" style="fill:none;stroke:#b0b0b0;stroke-linecap:square;stroke-width:0.8;"/>
     </g>
     <g id="line2d_26">
      <g>
       <use style="stroke:#000000;stroke-width:0.8;" x="72" xlink:href="#me521a6b804" y="57.166584"/>
      </g>
     </g>
     <g id="text_14">
      <!-- 3.5 -->
      <g transform="translate(49.096875 60.965803)scale(0.1 -0.1)">
       <use xlink:href="#DejaVuSans-33"/>
       <use x="63.623047" xlink:href="#DejaVuSans-2e"/>
       <use x="95.410156" xlink:href="#DejaVuSans-35"/>
      </g>
     </g>
    </g>
    <g id="text_15">
     <!-- Predicted -->
     <defs>
      <path d="M 19.671875 64.796875 
L 19.671875 37.40625 
L 32.078125 37.40625 
Q 38.96875 37.40625 42.71875 40.96875 
Q 46.484375 44.53125 46.484375 51.125 
Q 46.484375 57.671875 42.71875 61.234375 
Q 38.96875 64.796875 32.078125 64.796875 
z
M 9.8125 72.90625 
L 32.078125 72.90625 
Q 44.34375 72.90625 50.609375 67.359375 
Q 56.890625 61.8125 56.890625 51.125 
Q 56.890625 40.328125 50.609375 34.8125 
Q 44.34375 29.296875 32.078125 29.296875 
L 19.671875 29.296875 
L 19.671875 0 
L 9.8125 0 
z
" id="DejaVuSans-50"/>
      <path d="M 41.109375 46.296875 
Q 39.59375 47.171875 37.8125 47.578125 
Q 36.03125 48 33.890625 48 
Q 26.265625 48 22.1875 43.046875 
Q 18.109375 38.09375 18.109375 28.8125 
L 18.109375 0 
L 9.078125 0 
L 9.078125 54.6875 
L 18.109375 54.6875 
L 18.109375 46.1875 
Q 20.953125 51.171875 25.484375 53.578125 
Q 30.03125 56 36.53125 56 
Q 37.453125 56 38.578125 55.875 
Q 39.703125 55.765625 41.0625 55.515625 
z
" id="DejaVuSans-72"/>
      <path d="M 45.40625 46.390625 
L 45.40625 75.984375 
L 54.390625 75.984375 
L 54.390625 0 
L 45.40625 0 
L 45.40625 8.203125 
Q 42.578125 3.328125 38.25 0.953125 
Q 33.9375 -1.421875 27.875 -1.421875 
Q 17.96875 -1.421875 11.734375 6.484375 
Q 5.515625 14.40625 5.515625 27.296875 
Q 5.515625 40.1875 11.734375 48.09375 
Q 17.96875 56 27.875 56 
Q 33.9375 56 38.25 53.625 
Q 42.578125 51.265625 45.40625 46.390625 
z
M 14.796875 27.296875 
Q 14.796875 17.390625 18.875 11.75 
Q 22.953125 6.109375 30.078125 6.109375 
Q 37.203125 6.109375 41.296875 11.75 
Q 45.40625 17.390625 45.40625 27.296875 
Q 45.40625 37.203125 41.296875 42.84375 
Q 37.203125 48.484375 30.078125 48.484375 
Q 22.953125 48.484375 18.875 42.84375 
Q 14.796875 37.203125 14.796875 27.296875 
z
" id="DejaVuSans-64"/>
      <path d="M 9.421875 54.6875 
L 18.40625 54.6875 
L 18.40625 0 
L 9.421875 0 
z
M 9.421875 75.984375 
L 18.40625 75.984375 
L 18.40625 64.59375 
L 9.421875 64.59375 
z
" id="DejaVuSans-69"/>
      <path d="M 48.78125 52.59375 
L 48.78125 44.1875 
Q 44.96875 46.296875 41.140625 47.34375 
Q 37.3125 48.390625 33.40625 48.390625 
Q 24.65625 48.390625 19.8125 42.84375 
Q 14.984375 37.3125 14.984375 27.296875 
Q 14.984375 17.28125 19.8125 11.734375 
Q 24.65625 6.203125 33.40625 6.203125 
Q 37.3125 6.203125 41.140625 7.25 
Q 44.96875 8.296875 48.78125 10.40625 
L 48.78125 2.09375 
Q 45.015625 0.34375 40.984375 -0.53125 
Q 36.96875 -1.421875 32.421875 -1.421875 
Q 20.0625 -1.421875 12.78125 6.34375 
Q 5.515625 14.109375 5.515625 27.296875 
Q 5.515625 40.671875 12.859375 48.328125 
Q 20.21875 56 33.015625 56 
Q 37.15625 56 41.109375 55.140625 
Q 45.0625 54.296875 48.78125 52.59375 
z
" id="DejaVuSans-63"/>
      <path d="M 18.3125 70.21875 
L 18.3125 54.6875 
L 36.8125 54.6875 
L 36.8125 47.703125 
L 18.3125 47.703125 
L 18.3125 18.015625 
Q 18.3125 11.328125 20.140625 9.421875 
Q 21.96875 7.515625 27.59375 7.515625 
L 36.8125 7.515625 
L 36.8125 0 
L 27.59375 0 
Q 17.1875 0 13.234375 3.875 
Q 9.28125 7.765625 9.28125 18.015625 
L 9.28125 47.703125 
L 2.6875 47.703125 
L 2.6875 54.6875 
L 9.28125 54.6875 
L 9.28125 70.21875 
z
" id="DejaVuSans-74"/>
     </defs>
     <g transform="translate(43.017187 241.827969)rotate(-90)scale(0.1 -0.1)">
      <use xlink:href="#DejaVuSans-50"/>
      <use x="60.287109" xlink:href="#DejaVuSans-72"/>
      <use x="101.369141" xlink:href="#DejaVuSans-65"/>
      <use x="162.892578" xlink:href="#DejaVuSans-64"/>
      <use x="226.369141" xlink:href="#DejaVuSans-69"/>
      <use x="254.152344" xlink:href="#DejaVuSans-63"/>
      <use x="309.132812" xlink:href="#DejaVuSans-74"/>
      <use x="348.341797" xlink:href="#DejaVuSans-65"/>
      <use x="409.865234" xlink:href="#DejaVuSans-64"/>
     </g>
    </g>
   </g>
   <g id="line2d_27">
    <path clip-path="url(#p949b0b4435)" d="M 346.161695 204.788728 
L 386.20282 178.832142 
L 386.20282 178.832142 
L 386.20282 178.832142 
L 138.534394 339.382746 
L 262.859402 258.789286 
L 262.859402 258.789286 
L 478.267454 119.151411 
L 478.267454 119.151411 
L 478.267454 119.151411 
L 105.98677 360.481683 
L 446.09491 140.007203 
L 446.09491 140.007203 
L 481.556212 117.019479 
L 447.182735 139.302023 
L 447.182735 139.302023 
L 145.02571 335.174762 
L 241.284255 272.775336 
L 241.284255 272.775336 
L 487.769302 112.991855 
L 274.027804 251.54939 
L 274.027804 251.54939 
L 138.870222 339.165045 
L 138.870222 339.165045 
L 138.870222 339.165045 
L 400.77804 169.383782 
L 192.974719 304.091905 
L 192.974719 304.091905 
L 99.7316 364.536586 
L 99.7316 364.536586 
L 99.7316 364.536586 
L 498.109091 106.289106 
L 122.813619 349.573709 
L 122.813619 349.573709 
L 97.425834 366.031294 
L 97.425834 366.031294 
L 97.425834 366.031294 
L 400.014013 169.87906 
L 187.793533 307.450599 
L 187.793533 307.450599 
L 92.290909 369.36 
L 92.290909 369.36 
L 92.290909 369.36 
L 426.081281 152.981002 
L 238.532909 274.558891 
" style="fill:none;stroke:#ff0000;stroke-dasharray:5.55,2.4;stroke-dashoffset:0;stroke-width:1.5;"/>
   </g>
   <g id="line2d_28">
    <defs>
     <path d="M 0 1.5 
C 0.397805 1.5 0.77937 1.341951 1.06066 1.06066 
C 1.341951 0.77937 1.5 0.397805 1.5 0 
C 1.5 -0.397805 1.341951 -0.77937 1.06066 -1.06066 
C 0.77937 -1.341951 0.397805 -1.5 0 -1.5 
C -0.397805 -1.5 -0.77937 -1.341951 -1.06066 -1.06066 
C -1.341951 -0.77937 -1.5 -0.397805 -1.5 0 
C -1.5 0.397805 -1.341951 0.77937 -1.06066 1.06066 
C -0.77937 1.341951 -0.397805 1.5 0 1.5 
z
" id="me7f554d8dc" style="stroke:#1f77b4;"/>
    </defs>
    <g clip-path="url(#p949b0b4435)">
     <use style="fill:#1f77b4;stroke:#1f77b4;" x="346.161695" xlink:href="#me7f554d8dc" y="207.015961"/>
     <use style="fill:#1f77b4;stroke:#1f77b4;" x="386.20282" xlink:href="#me7f554d8dc" y="176.263124"/>
     <use style="fill:#1f77b4;stroke:#1f77b4;" x="138.534394" xlink:href="#me7f554d8dc" y="337.336467"/>
     <use style="fill:#1f77b4;stroke:#1f77b4;" x="262.859402" xlink:href="#me7f554d8dc" y="256.552272"/>
     <use style="fill:#1f77b4;stroke:#1f77b4;" x="424.650338" xlink:href="#me7f554d8dc" y="144.223283"/>
     <use style="fill:#1f77b4;stroke:#1f77b4;" x="343.433263" xlink:href="#me7f554d8dc" y="208.669698"/>
     <use style="fill:#1f77b4;stroke:#1f77b4;" x="435.96086" xlink:href="#me7f554d8dc" y="132.609088"/>
     <use style="fill:#1f77b4;stroke:#1f77b4;" x="443.199023" xlink:href="#me7f554d8dc" y="124.280789"/>
     <use style="fill:#1f77b4;stroke:#1f77b4;" x="478.267454" xlink:href="#me7f554d8dc" y="92.960536"/>
     <use style="fill:#1f77b4;stroke:#1f77b4;" x="192.160329" xlink:href="#me7f554d8dc" y="301.886018"/>
     <use style="fill:#1f77b4;stroke:#1f77b4;" x="194.076129" xlink:href="#me7f554d8dc" y="305.890841"/>
     <use style="fill:#1f77b4;stroke:#1f77b4;" x="146.075099" xlink:href="#me7f554d8dc" y="336.814587"/>
     <use style="fill:#1f77b4;stroke:#1f77b4;" x="336.650875" xlink:href="#me7f554d8dc" y="213.42613"/>
     <use style="fill:#1f77b4;stroke:#1f77b4;" x="229.95166" xlink:href="#me7f554d8dc" y="275.8033"/>
     <use style="fill:#1f77b4;stroke:#1f77b4;" x="444.170776" xlink:href="#me7f554d8dc" y="125.554343"/>
     <use style="fill:#1f77b4;stroke:#1f77b4;" x="361.017792" xlink:href="#me7f554d8dc" y="195.951998"/>
     <use style="fill:#1f77b4;stroke:#1f77b4;" x="470.203278" xlink:href="#me7f554d8dc" y="100.810542"/>
     <use style="fill:#1f77b4;stroke:#1f77b4;" x="236.483374" xlink:href="#me7f554d8dc" y="271.934721"/>
     <use style="fill:#1f77b4;stroke:#1f77b4;" x="401.596355" xlink:href="#me7f554d8dc" y="164.5261"/>
     <use style="fill:#1f77b4;stroke:#1f77b4;" x="168.727952" xlink:href="#me7f554d8dc" y="319.900271"/>
     <use style="fill:#1f77b4;stroke:#1f77b4;" x="265.672301" xlink:href="#me7f554d8dc" y="257.179334"/>
     <use style="fill:#1f77b4;stroke:#1f77b4;" x="289.869315" xlink:href="#me7f554d8dc" y="245.971096"/>
     <use style="fill:#1f77b4;stroke:#1f77b4;" x="382.431167" xlink:href="#me7f554d8dc" y="179.649873"/>
     <use style="fill:#1f77b4;stroke:#1f77b4;" x="310.015278" xlink:href="#me7f554d8dc" y="233.829668"/>
     <use style="fill:#1f77b4;stroke:#1f77b4;" x="348.291925" xlink:href="#me7f554d8dc" y="205.135535"/>
     <use style="fill:#1f77b4;stroke:#1f77b4;" x="139.021264" xlink:href="#me7f554d8dc" y="331.038122"/>
     <use style="fill:#1f77b4;stroke:#1f77b4;" x="165.047649" xlink:href="#me7f554d8dc" y="325.887893"/>
     <use style="fill:#1f77b4;stroke:#1f77b4;" x="453.994027" xlink:href="#me7f554d8dc" y="114.82354"/>
     <use style="fill:#1f77b4;stroke:#1f77b4;" x="366.980488" xlink:href="#me7f554d8dc" y="191.772664"/>
     <use style="fill:#1f77b4;stroke:#1f77b4;" x="367.17231" xlink:href="#me7f554d8dc" y="191.790409"/>
     <use style="fill:#1f77b4;stroke:#1f77b4;" x="341.269542" xlink:href="#me7f554d8dc" y="208.823688"/>
     <use style="fill:#1f77b4;stroke:#1f77b4;" x="275.797431" xlink:href="#me7f554d8dc" y="250.349394"/>
     <use style="fill:#1f77b4;stroke:#1f77b4;" x="105.98677" xlink:href="#me7f554d8dc" y="353.393976"/>
     <use style="fill:#1f77b4;stroke:#1f77b4;" x="110.127564" xlink:href="#me7f554d8dc" y="352.998146"/>
     <use style="fill:#1f77b4;stroke:#1f77b4;" x="387.193332" xlink:href="#me7f554d8dc" y="177.869078"/>
     <use style="fill:#1f77b4;stroke:#1f77b4;" x="268.464095" xlink:href="#me7f554d8dc" y="254.274744"/>
     <use style="fill:#1f77b4;stroke:#1f77b4;" x="381.910092" xlink:href="#me7f554d8dc" y="180.536735"/>
     <use style="fill:#1f77b4;stroke:#1f77b4;" x="144.765682" xlink:href="#me7f554d8dc" y="335.977359"/>
     <use style="fill:#1f77b4;stroke:#1f77b4;" x="326.826197" xlink:href="#me7f554d8dc" y="219.932724"/>
     <use style="fill:#1f77b4;stroke:#1f77b4;" x="226.17598" xlink:href="#me7f554d8dc" y="279.192759"/>
     <use style="fill:#1f77b4;stroke:#1f77b4;" x="124.515065" xlink:href="#me7f554d8dc" y="343.426826"/>
     <use style="fill:#1f77b4;stroke:#1f77b4;" x="175.299708" xlink:href="#me7f554d8dc" y="319.729825"/>
     <use style="fill:#1f77b4;stroke:#1f77b4;" x="277.7939" xlink:href="#me7f554d8dc" y="249.469604"/>
     <use style="fill:#1f77b4;stroke:#1f77b4;" x="311.795406" xlink:href="#me7f554d8dc" y="229.557775"/>
     <use style="fill:#1f77b4;stroke:#1f77b4;" x="472.774551" xlink:href="#me7f554d8dc" y="98.420099"/>
     <use style="fill:#1f77b4;stroke:#1f77b4;" x="154.408504" xlink:href="#me7f554d8dc" y="326.353464"/>
     <use style="fill:#1f77b4;stroke:#1f77b4;" x="354.219397" xlink:href="#me7f554d8dc" y="201.512547"/>
     <use style="fill:#1f77b4;stroke:#1f77b4;" x="222.590033" xlink:href="#me7f554d8dc" y="280.669275"/>
     <use style="fill:#1f77b4;stroke:#1f77b4;" x="161.710514" xlink:href="#me7f554d8dc" y="327.373861"/>
     <use style="fill:#1f77b4;stroke:#1f77b4;" x="235.342127" xlink:href="#me7f554d8dc" y="272.453528"/>
     <use style="fill:#1f77b4;stroke:#1f77b4;" x="284.178218" xlink:href="#me7f554d8dc" y="247.065514"/>
     <use style="fill:#1f77b4;stroke:#1f77b4;" x="353.826832" xlink:href="#me7f554d8dc" y="203.88194"/>
     <use style="fill:#1f77b4;stroke:#1f77b4;" x="259.845557" xlink:href="#me7f554d8dc" y="258.888983"/>
     <use style="fill:#1f77b4;stroke:#1f77b4;" x="446.09491" xlink:href="#me7f554d8dc" y="122.328192"/>
     <use style="fill:#1f77b4;stroke:#1f77b4;" x="481.556212" xlink:href="#me7f554d8dc" y="88.813388"/>
     <use style="fill:#1f77b4;stroke:#1f77b4;" x="447.182735" xlink:href="#me7f554d8dc" y="118.397754"/>
     <use style="fill:#1f77b4;stroke:#1f77b4;" x="145.02571" xlink:href="#me7f554d8dc" y="337.862808"/>
     <use style="fill:#1f77b4;stroke:#1f77b4;" x="271.057696" xlink:href="#me7f554d8dc" y="252.912761"/>
     <use style="fill:#1f77b4;stroke:#1f77b4;" x="323.272976" xlink:href="#me7f554d8dc" y="225.046438"/>
     <use style="fill:#1f77b4;stroke:#1f77b4;" x="244.780459" xlink:href="#me7f554d8dc" y="266.260663"/>
     <use style="fill:#1f77b4;stroke:#1f77b4;" x="198.732339" xlink:href="#me7f554d8dc" y="300.985046"/>
     <use style="fill:#1f77b4;stroke:#1f77b4;" x="446.505113" xlink:href="#me7f554d8dc" y="124.102544"/>
     <use style="fill:#1f77b4;stroke:#1f77b4;" x="305.440297" xlink:href="#me7f554d8dc" y="232.066948"/>
     <use style="fill:#1f77b4;stroke:#1f77b4;" x="241.284255" xlink:href="#me7f554d8dc" y="269.974458"/>
     <use style="fill:#1f77b4;stroke:#1f77b4;" x="487.769302" xlink:href="#me7f554d8dc" y="82.672503"/>
     <use style="fill:#1f77b4;stroke:#1f77b4;" x="349.781898" xlink:href="#me7f554d8dc" y="204.263907"/>
     <use style="fill:#1f77b4;stroke:#1f77b4;" x="274.027804" xlink:href="#me7f554d8dc" y="251.33549"/>
     <use style="fill:#1f77b4;stroke:#1f77b4;" x="138.870222" xlink:href="#me7f554d8dc" y="336.374791"/>
     <use style="fill:#1f77b4;stroke:#1f77b4;" x="397.621819" xlink:href="#me7f554d8dc" y="167.930364"/>
     <use style="fill:#1f77b4;stroke:#1f77b4;" x="319.119871" xlink:href="#me7f554d8dc" y="225.535141"/>
     <use style="fill:#1f77b4;stroke:#1f77b4;" x="400.77804" xlink:href="#me7f554d8dc" y="164.070773"/>
     <use style="fill:#1f77b4;stroke:#1f77b4;" x="255.784412" xlink:href="#me7f554d8dc" y="260.744857"/>
     <use style="fill:#1f77b4;stroke:#1f77b4;" x="211.81231" xlink:href="#me7f554d8dc" y="289.003919"/>
     <use style="fill:#1f77b4;stroke:#1f77b4;" x="173.883752" xlink:href="#me7f554d8dc" y="317.520436"/>
     <use style="fill:#1f77b4;stroke:#1f77b4;" x="280.065741" xlink:href="#me7f554d8dc" y="249.295523"/>
     <use style="fill:#1f77b4;stroke:#1f77b4;" x="192.974719" xlink:href="#me7f554d8dc" y="306.651802"/>
     <use style="fill:#1f77b4;stroke:#1f77b4;" x="99.7316" xlink:href="#me7f554d8dc" y="355.401212"/>
     <use style="fill:#1f77b4;stroke:#1f77b4;" x="292.524545" xlink:href="#me7f554d8dc" y="241.991222"/>
     <use style="fill:#1f77b4;stroke:#1f77b4;" x="484.446543" xlink:href="#me7f554d8dc" y="81.738783"/>
     <use style="fill:#1f77b4;stroke:#1f77b4;" x="386.126305" xlink:href="#me7f554d8dc" y="177.303843"/>
     <use style="fill:#1f77b4;stroke:#1f77b4;" x="396.42929" xlink:href="#me7f554d8dc" y="168.946861"/>
     <use style="fill:#1f77b4;stroke:#1f77b4;" x="275.808594" xlink:href="#me7f554d8dc" y="254.074392"/>
     <use style="fill:#1f77b4;stroke:#1f77b4;" x="232.313345" xlink:href="#me7f554d8dc" y="275.632391"/>
     <use style="fill:#1f77b4;stroke:#1f77b4;" x="349.461311" xlink:href="#me7f554d8dc" y="207.077491"/>
     <use style="fill:#1f77b4;stroke:#1f77b4;" x="252.736847" xlink:href="#me7f554d8dc" y="263.698816"/>
     <use style="fill:#1f77b4;stroke:#1f77b4;" x="395.751515" xlink:href="#me7f554d8dc" y="170.556516"/>
     <use style="fill:#1f77b4;stroke:#1f77b4;" x="307.620534" xlink:href="#me7f554d8dc" y="231.975876"/>
     <use style="fill:#1f77b4;stroke:#1f77b4;" x="377.391694" xlink:href="#me7f554d8dc" y="183.888457"/>
     <use style="fill:#1f77b4;stroke:#1f77b4;" x="497.240157" xlink:href="#me7f554d8dc" y="70.426553"/>
     <use style="fill:#1f77b4;stroke:#1f77b4;" x="280.284784" xlink:href="#me7f554d8dc" y="251.564459"/>
     <use style="fill:#1f77b4;stroke:#1f77b4;" x="280.884311" xlink:href="#me7f554d8dc" y="249.212844"/>
     <use style="fill:#1f77b4;stroke:#1f77b4;" x="379.612407" xlink:href="#me7f554d8dc" y="180.480162"/>
     <use style="fill:#1f77b4;stroke:#1f77b4;" x="498.109091" xlink:href="#me7f554d8dc" y="66.96"/>
     <use style="fill:#1f77b4;stroke:#1f77b4;" x="264.845421" xlink:href="#me7f554d8dc" y="256.341742"/>
     <use style="fill:#1f77b4;stroke:#1f77b4;" x="298.484081" xlink:href="#me7f554d8dc" y="236.323541"/>
     <use style="fill:#1f77b4;stroke:#1f77b4;" x="114.044651" xlink:href="#me7f554d8dc" y="351.719338"/>
     <use style="fill:#1f77b4;stroke:#1f77b4;" x="141.498512" xlink:href="#me7f554d8dc" y="336.851069"/>
     <use style="fill:#1f77b4;stroke:#1f77b4;" x="256.645497" xlink:href="#me7f554d8dc" y="260.207776"/>
     <use style="fill:#1f77b4;stroke:#1f77b4;" x="135.93019" xlink:href="#me7f554d8dc" y="337.283165"/>
     <use style="fill:#1f77b4;stroke:#1f77b4;" x="229.390772" xlink:href="#me7f554d8dc" y="272.258331"/>
     <use style="fill:#1f77b4;stroke:#1f77b4;" x="420.891021" xlink:href="#me7f554d8dc" y="145.897046"/>
     <use style="fill:#1f77b4;stroke:#1f77b4;" x="375.198611" xlink:href="#me7f554d8dc" y="185.789866"/>
     <use style="fill:#1f77b4;stroke:#1f77b4;" x="392.644281" xlink:href="#me7f554d8dc" y="171.904257"/>
     <use style="fill:#1f77b4;stroke:#1f77b4;" x="257.870191" xlink:href="#me7f554d8dc" y="259.801951"/>
     <use style="fill:#1f77b4;stroke:#1f77b4;" x="185.351892" xlink:href="#me7f554d8dc" y="306.528379"/>
     <use style="fill:#1f77b4;stroke:#1f77b4;" x="457.668876" xlink:href="#me7f554d8dc" y="113.024471"/>
     <use style="fill:#1f77b4;stroke:#1f77b4;" x="367.616667" xlink:href="#me7f554d8dc" y="193.416488"/>
     <use style="fill:#1f77b4;stroke:#1f77b4;" x="407.450881" xlink:href="#me7f554d8dc" y="159.591226"/>
     <use style="fill:#1f77b4;stroke:#1f77b4;" x="177.822936" xlink:href="#me7f554d8dc" y="311.801436"/>
     <use style="fill:#1f77b4;stroke:#1f77b4;" x="250.048304" xlink:href="#me7f554d8dc" y="265.472473"/>
     <use style="fill:#1f77b4;stroke:#1f77b4;" x="271.705752" xlink:href="#me7f554d8dc" y="251.481846"/>
     <use style="fill:#1f77b4;stroke:#1f77b4;" x="491.801849" xlink:href="#me7f554d8dc" y="77.858242"/>
     <use style="fill:#1f77b4;stroke:#1f77b4;" x="238.958201" xlink:href="#me7f554d8dc" y="272.604147"/>
     <use style="fill:#1f77b4;stroke:#1f77b4;" x="496.142952" xlink:href="#me7f554d8dc" y="70.003941"/>
     <use style="fill:#1f77b4;stroke:#1f77b4;" x="345.579958" xlink:href="#me7f554d8dc" y="207.25405"/>
     <use style="fill:#1f77b4;stroke:#1f77b4;" x="419.780105" xlink:href="#me7f554d8dc" y="148.617905"/>
     <use style="fill:#1f77b4;stroke:#1f77b4;" x="334.180636" xlink:href="#me7f554d8dc" y="213.659989"/>
     <use style="fill:#1f77b4;stroke:#1f77b4;" x="369.45195" xlink:href="#me7f554d8dc" y="189.607919"/>
     <use style="fill:#1f77b4;stroke:#1f77b4;" x="225.33758" xlink:href="#me7f554d8dc" y="277.619651"/>
     <use style="fill:#1f77b4;stroke:#1f77b4;" x="108.630735" xlink:href="#me7f554d8dc" y="355.858621"/>
     <use style="fill:#1f77b4;stroke:#1f77b4;" x="367.076476" xlink:href="#me7f554d8dc" y="191.614213"/>
     <use style="fill:#1f77b4;stroke:#1f77b4;" x="166.186296" xlink:href="#me7f554d8dc" y="318.845408"/>
     <use style="fill:#1f77b4;stroke:#1f77b4;" x="175.559354" xlink:href="#me7f554d8dc" y="313.121154"/>
     <use style="fill:#1f77b4;stroke:#1f77b4;" x="283.950814" xlink:href="#me7f554d8dc" y="244.622761"/>
     <use style="fill:#1f77b4;stroke:#1f77b4;" x="235.10333" xlink:href="#me7f554d8dc" y="271.879139"/>
     <use style="fill:#1f77b4;stroke:#1f77b4;" x="375.751597" xlink:href="#me7f554d8dc" y="185.354267"/>
     <use style="fill:#1f77b4;stroke:#1f77b4;" x="285.533258" xlink:href="#me7f554d8dc" y="244.897993"/>
     <use style="fill:#1f77b4;stroke:#1f77b4;" x="283.074132" xlink:href="#me7f554d8dc" y="247.576786"/>
     <use style="fill:#1f77b4;stroke:#1f77b4;" x="363.884419" xlink:href="#me7f554d8dc" y="194.241754"/>
     <use style="fill:#1f77b4;stroke:#1f77b4;" x="284.426164" xlink:href="#me7f554d8dc" y="245.523931"/>
     <use style="fill:#1f77b4;stroke:#1f77b4;" x="408.010545" xlink:href="#me7f554d8dc" y="159.114056"/>
     <use style="fill:#1f77b4;stroke:#1f77b4;" x="150.06559" xlink:href="#me7f554d8dc" y="333.478165"/>
     <use style="fill:#1f77b4;stroke:#1f77b4;" x="473.045232" xlink:href="#me7f554d8dc" y="97.784776"/>
     <use style="fill:#1f77b4;stroke:#1f77b4;" x="423.370895" xlink:href="#me7f554d8dc" y="145.717611"/>
     <use style="fill:#1f77b4;stroke:#1f77b4;" x="360.246374" xlink:href="#me7f554d8dc" y="196.991858"/>
     <use style="fill:#1f77b4;stroke:#1f77b4;" x="344.320294" xlink:href="#me7f554d8dc" y="210.678933"/>
     <use style="fill:#1f77b4;stroke:#1f77b4;" x="135.801119" xlink:href="#me7f554d8dc" y="340.308601"/>
     <use style="fill:#1f77b4;stroke:#1f77b4;" x="323.092063" xlink:href="#me7f554d8dc" y="222.383011"/>
     <use style="fill:#1f77b4;stroke:#1f77b4;" x="197.105802" xlink:href="#me7f554d8dc" y="302.672093"/>
     <use style="fill:#1f77b4;stroke:#1f77b4;" x="211.855843" xlink:href="#me7f554d8dc" y="287.445286"/>
     <use style="fill:#1f77b4;stroke:#1f77b4;" x="277.509811" xlink:href="#me7f554d8dc" y="249.31231"/>
     <use style="fill:#1f77b4;stroke:#1f77b4;" x="416.174531" xlink:href="#me7f554d8dc" y="150.995625"/>
     <use style="fill:#1f77b4;stroke:#1f77b4;" x="312.766241" xlink:href="#me7f554d8dc" y="227.5798"/>
     <use style="fill:#1f77b4;stroke:#1f77b4;" x="274.231758" xlink:href="#me7f554d8dc" y="251.433072"/>
     <use style="fill:#1f77b4;stroke:#1f77b4;" x="427.612595" xlink:href="#me7f554d8dc" y="141.909175"/>
     <use style="fill:#1f77b4;stroke:#1f77b4;" x="227.581639" xlink:href="#me7f554d8dc" y="276.043239"/>
     <use style="fill:#1f77b4;stroke:#1f77b4;" x="139.545933" xlink:href="#me7f554d8dc" y="334.36473"/>
     <use style="fill:#1f77b4;stroke:#1f77b4;" x="403.622492" xlink:href="#me7f554d8dc" y="161.61781"/>
     <use style="fill:#1f77b4;stroke:#1f77b4;" x="372.485676" xlink:href="#me7f554d8dc" y="189.318346"/>
     <use style="fill:#1f77b4;stroke:#1f77b4;" x="438.014524" xlink:href="#me7f554d8dc" y="132.173984"/>
     <use style="fill:#1f77b4;stroke:#1f77b4;" x="359.911412" xlink:href="#me7f554d8dc" y="197.003391"/>
     <use style="fill:#1f77b4;stroke:#1f77b4;" x="270.724416" xlink:href="#me7f554d8dc" y="252.332987"/>
     <use style="fill:#1f77b4;stroke:#1f77b4;" x="111.484465" xlink:href="#me7f554d8dc" y="353.608719"/>
     <use style="fill:#1f77b4;stroke:#1f77b4;" x="354.769019" xlink:href="#me7f554d8dc" y="199.993336"/>
     <use style="fill:#1f77b4;stroke:#1f77b4;" x="220.896131" xlink:href="#me7f554d8dc" y="283.454275"/>
     <use style="fill:#1f77b4;stroke:#1f77b4;" x="485.167596" xlink:href="#me7f554d8dc" y="85.440055"/>
     <use style="fill:#1f77b4;stroke:#1f77b4;" x="494.494342" xlink:href="#me7f554d8dc" y="75.428113"/>
     <use style="fill:#1f77b4;stroke:#1f77b4;" x="470.228715" xlink:href="#me7f554d8dc" y="99.733109"/>
     <use style="fill:#1f77b4;stroke:#1f77b4;" x="349.849594" xlink:href="#me7f554d8dc" y="204.213943"/>
     <use style="fill:#1f77b4;stroke:#1f77b4;" x="150.979638" xlink:href="#me7f554d8dc" y="332.733298"/>
     <use style="fill:#1f77b4;stroke:#1f77b4;" x="120.817761" xlink:href="#me7f554d8dc" y="349.162216"/>
     <use style="fill:#1f77b4;stroke:#1f77b4;" x="180.442764" xlink:href="#me7f554d8dc" y="309.692207"/>
     <use style="fill:#1f77b4;stroke:#1f77b4;" x="190.488473" xlink:href="#me7f554d8dc" y="303.930281"/>
     <use style="fill:#1f77b4;stroke:#1f77b4;" x="226.239292" xlink:href="#me7f554d8dc" y="277.249415"/>
     <use style="fill:#1f77b4;stroke:#1f77b4;" x="398.154465" xlink:href="#me7f554d8dc" y="166.704691"/>
     <use style="fill:#1f77b4;stroke:#1f77b4;" x="238.896826" xlink:href="#me7f554d8dc" y="269.101806"/>
     <use style="fill:#1f77b4;stroke:#1f77b4;" x="206.440143" xlink:href="#me7f554d8dc" y="292.035005"/>
     <use style="fill:#1f77b4;stroke:#1f77b4;" x="493.436389" xlink:href="#me7f554d8dc" y="73.844596"/>
     <use style="fill:#1f77b4;stroke:#1f77b4;" x="300.424069" xlink:href="#me7f554d8dc" y="237.070193"/>
     <use style="fill:#1f77b4;stroke:#1f77b4;" x="337.853089" xlink:href="#me7f554d8dc" y="211.121439"/>
     <use style="fill:#1f77b4;stroke:#1f77b4;" x="415.66095" xlink:href="#me7f554d8dc" y="152.327008"/>
     <use style="fill:#1f77b4;stroke:#1f77b4;" x="217.460333" xlink:href="#me7f554d8dc" y="288.887997"/>
     <use style="fill:#1f77b4;stroke:#1f77b4;" x="378.703201" xlink:href="#me7f554d8dc" y="181.669187"/>
     <use style="fill:#1f77b4;stroke:#1f77b4;" x="394.262969" xlink:href="#me7f554d8dc" y="171.94738"/>
     <use style="fill:#1f77b4;stroke:#1f77b4;" x="399.331345" xlink:href="#me7f554d8dc" y="166.158457"/>
     <use style="fill:#1f77b4;stroke:#1f77b4;" x="402.701104" xlink:href="#me7f554d8dc" y="162.988252"/>
     <use style="fill:#1f77b4;stroke:#1f77b4;" x="297.889805" xlink:href="#me7f554d8dc" y="237.695405"/>
     <use style="fill:#1f77b4;stroke:#1f77b4;" x="346.020288" xlink:href="#me7f554d8dc" y="205.506002"/>
     <use style="fill:#1f77b4;stroke:#1f77b4;" x="150.547057" xlink:href="#me7f554d8dc" y="329.696033"/>
     <use style="fill:#1f77b4;stroke:#1f77b4;" x="122.813619" xlink:href="#me7f554d8dc" y="349.026699"/>
     <use style="fill:#1f77b4;stroke:#1f77b4;" x="97.425834" xlink:href="#me7f554d8dc" y="359.672708"/>
     <use style="fill:#1f77b4;stroke:#1f77b4;" x="400.014013" xlink:href="#me7f554d8dc" y="164.226481"/>
     <use style="fill:#1f77b4;stroke:#1f77b4;" x="187.793533" xlink:href="#me7f554d8dc" y="310.144361"/>
     <use style="fill:#1f77b4;stroke:#1f77b4;" x="92.290909" xlink:href="#me7f554d8dc" y="363.062267"/>
     <use style="fill:#1f77b4;stroke:#1f77b4;" x="426.081281" xlink:href="#me7f554d8dc" y="141.229042"/>
     <use style="fill:#1f77b4;stroke:#1f77b4;" x="418.653181" xlink:href="#me7f554d8dc" y="148.335701"/>
     <use style="fill:#1f77b4;stroke:#1f77b4;" x="366.51151" xlink:href="#me7f554d8dc" y="191.558995"/>
     <use style="fill:#1f77b4;stroke:#1f77b4;" x="237.322921" xlink:href="#me7f554d8dc" y="271.45537"/>
     <use style="fill:#1f77b4;stroke:#1f77b4;" x="256.373948" xlink:href="#me7f554d8dc" y="262.517126"/>
     <use style="fill:#1f77b4;stroke:#1f77b4;" x="411.03535" xlink:href="#me7f554d8dc" y="155.361002"/>
     <use style="fill:#1f77b4;stroke:#1f77b4;" x="323.749192" xlink:href="#me7f554d8dc" y="222.047042"/>
     <use style="fill:#1f77b4;stroke:#1f77b4;" x="176.741382" xlink:href="#me7f554d8dc" y="317.734997"/>
     <use style="fill:#1f77b4;stroke:#1f77b4;" x="394.982901" xlink:href="#me7f554d8dc" y="171.284134"/>
     <use style="fill:#1f77b4;stroke:#1f77b4;" x="104.015126" xlink:href="#me7f554d8dc" y="356.621564"/>
     <use style="fill:#1f77b4;stroke:#1f77b4;" x="122.482429" xlink:href="#me7f554d8dc" y="349.74328"/>
     <use style="fill:#1f77b4;stroke:#1f77b4;" x="319.578093" xlink:href="#me7f554d8dc" y="224.602677"/>
     <use style="fill:#1f77b4;stroke:#1f77b4;" x="158.234241" xlink:href="#me7f554d8dc" y="325.721049"/>
     <use style="fill:#1f77b4;stroke:#1f77b4;" x="359.440701" xlink:href="#me7f554d8dc" y="199.658557"/>
     <use style="fill:#1f77b4;stroke:#1f77b4;" x="248.326339" xlink:href="#me7f554d8dc" y="268.45148"/>
     <use style="fill:#1f77b4;stroke:#1f77b4;" x="238.532909" xlink:href="#me7f554d8dc" y="269.225031"/>
    </g>
   </g>
   <g id="patch_3">
    <path d="M 72 384.48 
L 72 51.84 
" style="fill:none;stroke:#000000;stroke-linecap:square;stroke-linejoin:miter;stroke-width:0.8;"/>
   </g>
   <g id="patch_4">
    <path d="M 518.4 384.48 
L 518.4 51.84 
" style="fill:none;stroke:#000000;stroke-linecap:square;stroke-linejoin:miter;stroke-width:0.8;"/>
   </g>
   <g id="patch_5">
    <path d="M 72 384.48 
L 518.4 384.48 
" style="fill:none;stroke:#000000;stroke-linecap:square;stroke-linejoin:miter;stroke-width:0.8;"/>
   </g>
   <g id="patch_6">
    <path d="M 72 51.84 
L 518.4 51.84 
" style="fill:none;stroke:#000000;stroke-linecap:square;stroke-linejoin:miter;stroke-width:0.8;"/>
   </g>
   <g id="text_16">
    <g id="patch_7">
     <path d="M 82.092 152.634719 
L 200.018875 152.634719 
L 200.018875 98.436 
L 82.092 98.436 
z
" style="fill:#ffffff;opacity:0.5;stroke:#000000;stroke-linejoin:miter;"/>
    </g>
    <!-- MSE:5.1164E-3 -->
    <defs>
     <path d="M 9.8125 72.90625 
L 24.515625 72.90625 
L 43.109375 23.296875 
L 61.8125 72.90625 
L 76.515625 72.90625 
L 76.515625 0 
L 66.890625 0 
L 66.890625 64.015625 
L 48.09375 14.015625 
L 38.1875 14.015625 
L 19.390625 64.015625 
L 19.390625 0 
L 9.8125 0 
z
" id="DejaVuSans-4d"/>
     <path d="M 53.515625 70.515625 
L 53.515625 60.890625 
Q 47.90625 63.578125 42.921875 64.890625 
Q 37.9375 66.21875 33.296875 66.21875 
Q 25.25 66.21875 20.875 63.09375 
Q 16.5 59.96875 16.5 54.203125 
Q 16.5 49.359375 19.40625 46.890625 
Q 22.3125 44.4375 30.421875 42.921875 
L 36.375 41.703125 
Q 47.40625 39.59375 52.65625 34.296875 
Q 57.90625 29 57.90625 20.125 
Q 57.90625 9.515625 50.796875 4.046875 
Q 43.703125 -1.421875 29.984375 -1.421875 
Q 24.8125 -1.421875 18.96875 -0.25 
Q 13.140625 0.921875 6.890625 3.21875 
L 6.890625 13.375 
Q 12.890625 10.015625 18.65625 8.296875 
Q 24.421875 6.59375 29.984375 6.59375 
Q 38.421875 6.59375 43.015625 9.90625 
Q 47.609375 13.234375 47.609375 19.390625 
Q 47.609375 24.75 44.3125 27.78125 
Q 41.015625 30.8125 33.5 32.328125 
L 27.484375 33.5 
Q 16.453125 35.6875 11.515625 40.375 
Q 6.59375 45.0625 6.59375 53.421875 
Q 6.59375 63.09375 13.40625 68.65625 
Q 20.21875 74.21875 32.171875 74.21875 
Q 37.3125 74.21875 42.625 73.28125 
Q 47.953125 72.359375 53.515625 70.515625 
z
" id="DejaVuSans-53"/>
     <path d="M 9.8125 72.90625 
L 55.90625 72.90625 
L 55.90625 64.59375 
L 19.671875 64.59375 
L 19.671875 43.015625 
L 54.390625 43.015625 
L 54.390625 34.71875 
L 19.671875 34.71875 
L 19.671875 8.296875 
L 56.78125 8.296875 
L 56.78125 0 
L 9.8125 0 
z
" id="DejaVuSans-45"/>
     <path d="M 11.71875 12.40625 
L 22.015625 12.40625 
L 22.015625 0 
L 11.71875 0 
z
M 11.71875 51.703125 
L 22.015625 51.703125 
L 22.015625 39.3125 
L 11.71875 39.3125 
z
" id="DejaVuSans-3a"/>
     <path d="M 33.015625 40.375 
Q 26.375 40.375 22.484375 35.828125 
Q 18.609375 31.296875 18.609375 23.390625 
Q 18.609375 15.53125 22.484375 10.953125 
Q 26.375 6.390625 33.015625 6.390625 
Q 39.65625 6.390625 43.53125 10.953125 
Q 47.40625 15.53125 47.40625 23.390625 
Q 47.40625 31.296875 43.53125 35.828125 
Q 39.65625 40.375 33.015625 40.375 
z
M 52.59375 71.296875 
L 52.59375 62.3125 
Q 48.875 64.0625 45.09375 64.984375 
Q 41.3125 65.921875 37.59375 65.921875 
Q 27.828125 65.921875 22.671875 59.328125 
Q 17.53125 52.734375 16.796875 39.40625 
Q 19.671875 43.65625 24.015625 45.921875 
Q 28.375 48.1875 33.59375 48.1875 
Q 44.578125 48.1875 50.953125 41.515625 
Q 57.328125 34.859375 57.328125 23.390625 
Q 57.328125 12.15625 50.6875 5.359375 
Q 44.046875 -1.421875 33.015625 -1.421875 
Q 20.359375 -1.421875 13.671875 8.265625 
Q 6.984375 17.96875 6.984375 36.375 
Q 6.984375 53.65625 15.1875 63.9375 
Q 23.390625 74.21875 37.203125 74.21875 
Q 40.921875 74.21875 44.703125 73.484375 
Q 48.484375 72.75 52.59375 71.296875 
z
" id="DejaVuSans-36"/>
     <path d="M 37.796875 64.3125 
L 12.890625 25.390625 
L 37.796875 25.390625 
z
M 35.203125 72.90625 
L 47.609375 72.90625 
L 47.609375 25.390625 
L 58.015625 25.390625 
L 58.015625 17.1875 
L 47.609375 17.1875 
L 47.609375 0 
L 37.796875 0 
L 37.796875 17.1875 
L 4.890625 17.1875 
L 4.890625 26.703125 
z
" id="DejaVuSans-34"/>
     <path d="M 4.890625 31.390625 
L 31.203125 31.390625 
L 31.203125 23.390625 
L 4.890625 23.390625 
z
" id="DejaVuSans-2d"/>
    </defs>
    <g transform="translate(85.392 110.094281)scale(0.11 -0.11)">
     <use xlink:href="#DejaVuSans-4d"/>
     <use x="86.279297" xlink:href="#DejaVuSans-53"/>
     <use x="149.755859" xlink:href="#DejaVuSans-45"/>
     <use x="212.939453" xlink:href="#DejaVuSans-3a"/>
     <use x="246.630859" xlink:href="#DejaVuSans-35"/>
     <use x="310.253906" xlink:href="#DejaVuSans-2e"/>
     <use x="342.041016" xlink:href="#DejaVuSans-31"/>
     <use x="405.664062" xlink:href="#DejaVuSans-31"/>
     <use x="469.287109" xlink:href="#DejaVuSans-36"/>
     <use x="532.910156" xlink:href="#DejaVuSans-34"/>
     <use x="596.533203" xlink:href="#DejaVuSans-45"/>
     <use x="659.716797" xlink:href="#DejaVuSans-2d"/>
     <use x="695.800781" xlink:href="#DejaVuSans-33"/>
    </g>
    <!-- Training Length:800 -->
    <defs>
     <path d="M -0.296875 72.90625 
L 61.375 72.90625 
L 61.375 64.59375 
L 35.5 64.59375 
L 35.5 0 
L 25.59375 0 
L 25.59375 64.59375 
L -0.296875 64.59375 
z
" id="DejaVuSans-54"/>
     <path d="M 54.890625 33.015625 
L 54.890625 0 
L 45.90625 0 
L 45.90625 32.71875 
Q 45.90625 40.484375 42.875 44.328125 
Q 39.84375 48.1875 33.796875 48.1875 
Q 26.515625 48.1875 22.3125 43.546875 
Q 18.109375 38.921875 18.109375 30.90625 
L 18.109375 0 
L 9.078125 0 
L 9.078125 54.6875 
L 18.109375 54.6875 
L 18.109375 46.1875 
Q 21.34375 51.125 25.703125 53.5625 
Q 30.078125 56 35.796875 56 
Q 45.21875 56 50.046875 50.171875 
Q 54.890625 44.34375 54.890625 33.015625 
z
" id="DejaVuSans-6e"/>
     <path d="M 45.40625 27.984375 
Q 45.40625 37.75 41.375 43.109375 
Q 37.359375 48.484375 30.078125 48.484375 
Q 22.859375 48.484375 18.828125 43.109375 
Q 14.796875 37.75 14.796875 27.984375 
Q 14.796875 18.265625 18.828125 12.890625 
Q 22.859375 7.515625 30.078125 7.515625 
Q 37.359375 7.515625 41.375 12.890625 
Q 45.40625 18.265625 45.40625 27.984375 
z
M 54.390625 6.78125 
Q 54.390625 -7.171875 48.1875 -13.984375 
Q 42 -20.796875 29.203125 -20.796875 
Q 24.46875 -20.796875 20.265625 -20.09375 
Q 16.0625 -19.390625 12.109375 -17.921875 
L 12.109375 -9.1875 
Q 16.0625 -11.328125 19.921875 -12.34375 
Q 23.78125 -13.375 27.78125 -13.375 
Q 36.625 -13.375 41.015625 -8.765625 
Q 45.40625 -4.15625 45.40625 5.171875 
L 45.40625 9.625 
Q 42.625 4.78125 38.28125 2.390625 
Q 33.9375 0 27.875 0 
Q 17.828125 0 11.671875 7.65625 
Q 5.515625 15.328125 5.515625 27.984375 
Q 5.515625 40.671875 11.671875 48.328125 
Q 17.828125 56 27.875 56 
Q 33.9375 56 38.28125 53.609375 
Q 42.625 51.21875 45.40625 46.390625 
L 45.40625 54.6875 
L 54.390625 54.6875 
z
" id="DejaVuSans-67"/>
     <path id="DejaVuSans-20"/>
     <path d="M 9.8125 72.90625 
L 19.671875 72.90625 
L 19.671875 8.296875 
L 55.171875 8.296875 
L 55.171875 0 
L 9.8125 0 
z
" id="DejaVuSans-4c"/>
     <path d="M 54.890625 33.015625 
L 54.890625 0 
L 45.90625 0 
L 45.90625 32.71875 
Q 45.90625 40.484375 42.875 44.328125 
Q 39.84375 48.1875 33.796875 48.1875 
Q 26.515625 48.1875 22.3125 43.546875 
Q 18.109375 38.921875 18.109375 30.90625 
L 18.109375 0 
L 9.078125 0 
L 9.078125 75.984375 
L 18.109375 75.984375 
L 18.109375 46.1875 
Q 21.34375 51.125 25.703125 53.5625 
Q 30.078125 56 35.796875 56 
Q 45.21875 56 50.046875 50.171875 
Q 54.890625 44.34375 54.890625 33.015625 
z
" id="DejaVuSans-68"/>
     <path d="M 31.78125 34.625 
Q 24.75 34.625 20.71875 30.859375 
Q 16.703125 27.09375 16.703125 20.515625 
Q 16.703125 13.921875 20.71875 10.15625 
Q 24.75 6.390625 31.78125 6.390625 
Q 38.8125 6.390625 42.859375 10.171875 
Q 46.921875 13.96875 46.921875 20.515625 
Q 46.921875 27.09375 42.890625 30.859375 
Q 38.875 34.625 31.78125 34.625 
z
M 21.921875 38.8125 
Q 15.578125 40.375 12.03125 44.71875 
Q 8.5 49.078125 8.5 55.328125 
Q 8.5 64.0625 14.71875 69.140625 
Q 20.953125 74.21875 31.78125 74.21875 
Q 42.671875 74.21875 48.875 69.140625 
Q 55.078125 64.0625 55.078125 55.328125 
Q 55.078125 49.078125 51.53125 44.71875 
Q 48 40.375 41.703125 38.8125 
Q 48.828125 37.15625 52.796875 32.3125 
Q 56.78125 27.484375 56.78125 20.515625 
Q 56.78125 9.90625 50.3125 4.234375 
Q 43.84375 -1.421875 31.78125 -1.421875 
Q 19.734375 -1.421875 13.25 4.234375 
Q 6.78125 9.90625 6.78125 20.515625 
Q 6.78125 27.484375 10.78125 32.3125 
Q 14.796875 37.15625 21.921875 38.8125 
z
M 18.3125 54.390625 
Q 18.3125 48.734375 21.84375 45.5625 
Q 25.390625 42.390625 31.78125 42.390625 
Q 38.140625 42.390625 41.71875 45.5625 
Q 45.3125 48.734375 45.3125 54.390625 
Q 45.3125 60.0625 41.71875 63.234375 
Q 38.140625 66.40625 31.78125 66.40625 
Q 25.390625 66.40625 21.84375 63.234375 
Q 18.3125 60.0625 18.3125 54.390625 
z
" id="DejaVuSans-38"/>
    </defs>
    <g transform="translate(85.392 122.411875)scale(0.11 -0.11)">
     <use xlink:href="#DejaVuSans-54"/>
     <use x="60.865234" xlink:href="#DejaVuSans-72"/>
     <use x="101.978516" xlink:href="#DejaVuSans-61"/>
     <use x="163.257812" xlink:href="#DejaVuSans-69"/>
     <use x="191.041016" xlink:href="#DejaVuSans-6e"/>
     <use x="254.419922" xlink:href="#DejaVuSans-69"/>
     <use x="282.203125" xlink:href="#DejaVuSans-6e"/>
     <use x="345.582031" xlink:href="#DejaVuSans-67"/>
     <use x="409.058594" xlink:href="#DejaVuSans-20"/>
     <use x="440.845703" xlink:href="#DejaVuSans-4c"/>
     <use x="496.542969" xlink:href="#DejaVuSans-65"/>
     <use x="558.066406" xlink:href="#DejaVuSans-6e"/>
     <use x="621.445312" xlink:href="#DejaVuSans-67"/>
     <use x="684.921875" xlink:href="#DejaVuSans-74"/>
     <use x="724.130859" xlink:href="#DejaVuSans-68"/>
     <use x="787.509766" xlink:href="#DejaVuSans-3a"/>
     <use x="821.201172" xlink:href="#DejaVuSans-38"/>
     <use x="884.824219" xlink:href="#DejaVuSans-30"/>
     <use x="948.447266" xlink:href="#DejaVuSans-30"/>
    </g>
    <!-- Epoch:20 -->
    <defs>
     <path d="M 18.109375 8.203125 
L 18.109375 -20.796875 
L 9.078125 -20.796875 
L 9.078125 54.6875 
L 18.109375 54.6875 
L 18.109375 46.390625 
Q 20.953125 51.265625 25.265625 53.625 
Q 29.59375 56 35.59375 56 
Q 45.5625 56 51.78125 48.09375 
Q 58.015625 40.1875 58.015625 27.296875 
Q 58.015625 14.40625 51.78125 6.484375 
Q 45.5625 -1.421875 35.59375 -1.421875 
Q 29.59375 -1.421875 25.265625 0.953125 
Q 20.953125 3.328125 18.109375 8.203125 
z
M 48.6875 27.296875 
Q 48.6875 37.203125 44.609375 42.84375 
Q 40.53125 48.484375 33.40625 48.484375 
Q 26.265625 48.484375 22.1875 42.84375 
Q 18.109375 37.203125 18.109375 27.296875 
Q 18.109375 17.390625 22.1875 11.75 
Q 26.265625 6.109375 33.40625 6.109375 
Q 40.53125 6.109375 44.609375 11.75 
Q 48.6875 17.390625 48.6875 27.296875 
z
" id="DejaVuSans-70"/>
     <path d="M 30.609375 48.390625 
Q 23.390625 48.390625 19.1875 42.75 
Q 14.984375 37.109375 14.984375 27.296875 
Q 14.984375 17.484375 19.15625 11.84375 
Q 23.34375 6.203125 30.609375 6.203125 
Q 37.796875 6.203125 41.984375 11.859375 
Q 46.1875 17.53125 46.1875 27.296875 
Q 46.1875 37.015625 41.984375 42.703125 
Q 37.796875 48.390625 30.609375 48.390625 
z
M 30.609375 56 
Q 42.328125 56 49.015625 48.375 
Q 55.71875 40.765625 55.71875 27.296875 
Q 55.71875 13.875 49.015625 6.21875 
Q 42.328125 -1.421875 30.609375 -1.421875 
Q 18.84375 -1.421875 12.171875 6.21875 
Q 5.515625 13.875 5.515625 27.296875 
Q 5.515625 40.765625 12.171875 48.375 
Q 18.84375 56 30.609375 56 
z
" id="DejaVuSans-6f"/>
    </defs>
    <g transform="translate(85.392 134.729469)scale(0.11 -0.11)">
     <use xlink:href="#DejaVuSans-45"/>
     <use x="63.183594" xlink:href="#DejaVuSans-70"/>
     <use x="126.660156" xlink:href="#DejaVuSans-6f"/>
     <use x="187.841797" xlink:href="#DejaVuSans-63"/>
     <use x="242.822266" xlink:href="#DejaVuSans-68"/>
     <use x="306.201172" xlink:href="#DejaVuSans-3a"/>
     <use x="339.892578" xlink:href="#DejaVuSans-32"/>
     <use x="403.515625" xlink:href="#DejaVuSans-30"/>
    </g>
    <!-- Batch:10 -->
    <defs>
     <path d="M 19.671875 34.8125 
L 19.671875 8.109375 
L 35.5 8.109375 
Q 43.453125 8.109375 47.28125 11.40625 
Q 51.125 14.703125 51.125 21.484375 
Q 51.125 28.328125 47.28125 31.5625 
Q 43.453125 34.8125 35.5 34.8125 
z
M 19.671875 64.796875 
L 19.671875 42.828125 
L 34.28125 42.828125 
Q 41.5 42.828125 45.03125 45.53125 
Q 48.578125 48.25 48.578125 53.8125 
Q 48.578125 59.328125 45.03125 62.0625 
Q 41.5 64.796875 34.28125 64.796875 
z
M 9.8125 72.90625 
L 35.015625 72.90625 
Q 46.296875 72.90625 52.390625 68.21875 
Q 58.5 63.53125 58.5 54.890625 
Q 58.5 48.1875 55.375 44.234375 
Q 52.25 40.28125 46.1875 39.3125 
Q 53.46875 37.75 57.5 32.78125 
Q 61.53125 27.828125 61.53125 20.40625 
Q 61.53125 10.640625 54.890625 5.3125 
Q 48.25 0 35.984375 0 
L 9.8125 0 
z
" id="DejaVuSans-42"/>
    </defs>
    <g transform="translate(85.392 147.047062)scale(0.11 -0.11)">
     <use xlink:href="#DejaVuSans-42"/>
     <use x="68.603516" xlink:href="#DejaVuSans-61"/>
     <use x="129.882812" xlink:href="#DejaVuSans-74"/>
     <use x="169.091797" xlink:href="#DejaVuSans-63"/>
     <use x="224.072266" xlink:href="#DejaVuSans-68"/>
     <use x="287.451172" xlink:href="#DejaVuSans-3a"/>
     <use x="321.142578" xlink:href="#DejaVuSans-31"/>
     <use x="384.765625" xlink:href="#DejaVuSans-30"/>
    </g>
   </g>
   <g id="text_17">
    <!-- FNN[128, 40, 40, 20, 1] -->
    <defs>
     <path d="M 9.8125 72.90625 
L 51.703125 72.90625 
L 51.703125 64.59375 
L 19.671875 64.59375 
L 19.671875 43.109375 
L 48.578125 43.109375 
L 48.578125 34.8125 
L 19.671875 34.8125 
L 19.671875 0 
L 9.8125 0 
z
" id="DejaVuSans-46"/>
     <path d="M 9.8125 72.90625 
L 23.09375 72.90625 
L 55.421875 11.921875 
L 55.421875 72.90625 
L 64.984375 72.90625 
L 64.984375 0 
L 51.703125 0 
L 19.390625 60.984375 
L 19.390625 0 
L 9.8125 0 
z
" id="DejaVuSans-4e"/>
     <path d="M 8.59375 75.984375 
L 29.296875 75.984375 
L 29.296875 69 
L 17.578125 69 
L 17.578125 -6.203125 
L 29.296875 -6.203125 
L 29.296875 -13.1875 
L 8.59375 -13.1875 
z
" id="DejaVuSans-5b"/>
     <path d="M 11.71875 12.40625 
L 22.015625 12.40625 
L 22.015625 4 
L 14.015625 -11.625 
L 7.71875 -11.625 
L 11.71875 4 
z
" id="DejaVuSans-2c"/>
     <path d="M 30.421875 75.984375 
L 30.421875 -13.1875 
L 9.71875 -13.1875 
L 9.71875 -6.203125 
L 21.390625 -6.203125 
L 21.390625 69 
L 9.71875 69 
L 9.71875 75.984375 
z
" id="DejaVuSans-5d"/>
    </defs>
    <g transform="translate(224.659687 45.84)scale(0.12 -0.12)">
     <use xlink:href="#DejaVuSans-46"/>
     <use x="57.519531" xlink:href="#DejaVuSans-4e"/>
     <use x="132.324219" xlink:href="#DejaVuSans-4e"/>
     <use x="207.128906" xlink:href="#DejaVuSans-5b"/>
     <use x="246.142578" xlink:href="#DejaVuSans-31"/>
     <use x="309.765625" xlink:href="#DejaVuSans-32"/>
     <use x="373.388672" xlink:href="#DejaVuSans-38"/>
     <use x="437.011719" xlink:href="#DejaVuSans-2c"/>
     <use x="468.798828" xlink:href="#DejaVuSans-20"/>
     <use x="500.585938" xlink:href="#DejaVuSans-34"/>
     <use x="564.208984" xlink:href="#DejaVuSans-30"/>
     <use x="627.832031" xlink:href="#DejaVuSans-2c"/>
     <use x="659.619141" xlink:href="#DejaVuSans-20"/>
     <use x="691.40625" xlink:href="#DejaVuSans-34"/>
     <use x="755.029297" xlink:href="#DejaVuSans-30"/>
     <use x="818.652344" xlink:href="#DejaVuSans-2c"/>
     <use x="850.439453" xlink:href="#DejaVuSans-20"/>
     <use x="882.226562" xlink:href="#DejaVuSans-32"/>
     <use x="945.849609" xlink:href="#DejaVuSans-30"/>
     <use x="1009.472656" xlink:href="#DejaVuSans-2c"/>
     <use x="1041.259766" xlink:href="#DejaVuSans-20"/>
     <use x="1073.046875" xlink:href="#DejaVuSans-31"/>
     <use x="1136.669922" xlink:href="#DejaVuSans-5d"/>
    </g>
   </g>
   <g id="legend_1">
    <g id="patch_8">
     <path d="M 79 89.19625 
L 158.65625 89.19625 
Q 160.65625 89.19625 160.65625 87.19625 
L 160.65625 58.84 
Q 160.65625 56.84 158.65625 56.84 
L 79 56.84 
Q 77 56.84 77 58.84 
L 77 87.19625 
Q 77 89.19625 79 89.19625 
z
" style="fill:#ffffff;opacity:0.8;stroke:#cccccc;stroke-linejoin:miter;"/>
    </g>
    <g id="line2d_29">
     <path d="M 81 64.938437 
L 101 64.938437 
" style="fill:none;stroke:#ff0000;stroke-dasharray:5.55,2.4;stroke-dashoffset:0;stroke-width:1.5;"/>
    </g>
    <g id="line2d_30"/>
    <g id="text_18">
     <!-- real data -->
     <g transform="translate(109 68.438437)scale(0.1 -0.1)">
      <use xlink:href="#DejaVuSans-72"/>
      <use x="41.082031" xlink:href="#DejaVuSans-65"/>
      <use x="102.605469" xlink:href="#DejaVuSans-61"/>
      <use x="163.884766" xlink:href="#DejaVuSans-6c"/>
      <use x="191.667969" xlink:href="#DejaVuSans-20"/>
      <use x="223.455078" xlink:href="#DejaVuSans-64"/>
      <use x="286.931641" xlink:href="#DejaVuSans-61"/>
      <use x="348.210938" xlink:href="#DejaVuSans-74"/>
      <use x="387.419922" xlink:href="#DejaVuSans-61"/>
     </g>
    </g>
    <g id="line2d_31"/>
    <g id="line2d_32">
     <g>
      <use style="fill:#1f77b4;stroke:#1f77b4;" x="91" xlink:href="#me7f554d8dc" y="79.616562"/>
     </g>
    </g>
    <g id="text_19">
     <!-- predicted -->
     <g transform="translate(109 83.116562)scale(0.1 -0.1)">
      <use xlink:href="#DejaVuSans-70"/>
      <use x="63.476562" xlink:href="#DejaVuSans-72"/>
      <use x="104.558594" xlink:href="#DejaVuSans-65"/>
      <use x="166.082031" xlink:href="#DejaVuSans-64"/>
      <use x="229.558594" xlink:href="#DejaVuSans-69"/>
      <use x="257.341797" xlink:href="#DejaVuSans-63"/>
      <use x="312.322266" xlink:href="#DejaVuSans-74"/>
      <use x="351.53125" xlink:href="#DejaVuSans-65"/>
      <use x="413.054688" xlink:href="#DejaVuSans-64"/>
     </g>
    </g>
   </g>
  </g>
  <g id="axes_2">
   <g id="patch_9">
    <path d="M 374.4 345.6 
L 489.6 345.6 
L 489.6 259.2 
L 374.4 259.2 
z
" style="fill:#ffffff;"/>
   </g>
   <g id="patch_10">
    <path clip-path="url(#p1177809865)" d="M 379.636364 345.6 
L 384.872727 345.6 
L 384.872727 340.457143 
L 379.636364 340.457143 
z
" style="fill:#1f77b4;"/>
   </g>
   <g id="patch_11">
    <path clip-path="url(#p1177809865)" d="M 384.872727 345.6 
L 390.109091 345.6 
L 390.109091 341.742857 
L 384.872727 341.742857 
z
" style="fill:#1f77b4;"/>
   </g>
   <g id="patch_12">
    <path clip-path="url(#p1177809865)" d="M 390.109091 345.6 
L 395.345455 345.6 
L 395.345455 341.742857 
L 390.109091 341.742857 
z
" style="fill:#1f77b4;"/>
   </g>
   <g id="patch_13">
    <path clip-path="url(#p1177809865)" d="M 395.345455 345.6 
L 400.581818 345.6 
L 400.581818 340.457143 
L 395.345455 340.457143 
z
" style="fill:#1f77b4;"/>
   </g>
   <g id="patch_14">
    <path clip-path="url(#p1177809865)" d="M 400.581818 345.6 
L 405.818182 345.6 
L 405.818182 341.742857 
L 400.581818 341.742857 
z
" style="fill:#1f77b4;"/>
   </g>
   <g id="patch_15">
    <path clip-path="url(#p1177809865)" d="M 405.818182 345.6 
L 411.054545 345.6 
L 411.054545 341.742857 
L 405.818182 341.742857 
z
" style="fill:#1f77b4;"/>
   </g>
   <g id="patch_16">
    <path clip-path="url(#p1177809865)" d="M 411.054545 345.6 
L 416.290909 345.6 
L 416.290909 340.457143 
L 411.054545 340.457143 
z
" style="fill:#1f77b4;"/>
   </g>
   <g id="patch_17">
    <path clip-path="url(#p1177809865)" d="M 416.290909 345.6 
L 421.527273 345.6 
L 421.527273 331.457143 
L 416.290909 331.457143 
z
" style="fill:#1f77b4;"/>
   </g>
   <g id="patch_18">
    <path clip-path="url(#p1177809865)" d="M 421.527273 345.6 
L 426.763636 345.6 
L 426.763636 307.028571 
L 421.527273 307.028571 
z
" style="fill:#1f77b4;"/>
   </g>
   <g id="patch_19">
    <path clip-path="url(#p1177809865)" d="M 426.763636 345.6 
L 432 345.6 
L 432 264.6 
L 426.763636 264.6 
z
" style="fill:#1f77b4;"/>
   </g>
   <g id="patch_20">
    <path clip-path="url(#p1177809865)" d="M 432 345.6 
L 437.236364 345.6 
L 437.236364 263.314286 
L 432 263.314286 
z
" style="fill:#1f77b4;"/>
   </g>
   <g id="patch_21">
    <path clip-path="url(#p1177809865)" d="M 437.236364 345.6 
L 442.472727 345.6 
L 442.472727 335.314286 
L 437.236364 335.314286 
z
" style="fill:#1f77b4;"/>
   </g>
   <g id="patch_22">
    <path clip-path="url(#p1177809865)" d="M 442.472727 345.6 
L 447.709091 345.6 
L 447.709091 345.6 
L 442.472727 345.6 
z
" style="fill:#1f77b4;"/>
   </g>
   <g id="patch_23">
    <path clip-path="url(#p1177809865)" d="M 447.709091 345.6 
L 452.945455 345.6 
L 452.945455 345.6 
L 447.709091 345.6 
z
" style="fill:#1f77b4;"/>
   </g>
   <g id="patch_24">
    <path clip-path="url(#p1177809865)" d="M 452.945455 345.6 
L 458.181818 345.6 
L 458.181818 345.6 
L 452.945455 345.6 
z
" style="fill:#1f77b4;"/>
   </g>
   <g id="patch_25">
    <path clip-path="url(#p1177809865)" d="M 458.181818 345.6 
L 463.418182 345.6 
L 463.418182 345.6 
L 458.181818 345.6 
z
" style="fill:#1f77b4;"/>
   </g>
   <g id="patch_26">
    <path clip-path="url(#p1177809865)" d="M 463.418182 345.6 
L 468.654545 345.6 
L 468.654545 345.6 
L 463.418182 345.6 
z
" style="fill:#1f77b4;"/>
   </g>
   <g id="patch_27">
    <path clip-path="url(#p1177809865)" d="M 468.654545 345.6 
L 473.890909 345.6 
L 473.890909 345.6 
L 468.654545 345.6 
z
" style="fill:#1f77b4;"/>
   </g>
   <g id="patch_28">
    <path clip-path="url(#p1177809865)" d="M 473.890909 345.6 
L 479.127273 345.6 
L 479.127273 345.6 
L 473.890909 345.6 
z
" style="fill:#1f77b4;"/>
   </g>
   <g id="patch_29">
    <path clip-path="url(#p1177809865)" d="M 479.127273 345.6 
L 484.363636 345.6 
L 484.363636 345.6 
L 479.127273 345.6 
z
" style="fill:#1f77b4;"/>
   </g>
   <g id="matplotlib.axis_3">
    <g id="xtick_9">
     <g id="line2d_33">
      <g>
       <use style="stroke:#000000;stroke-width:0.8;" x="385.865965" xlink:href="#mfe8eb892d4" y="345.6"/>
      </g>
     </g>
     <g id="text_20">
      <!-- 0.25 -->
      <defs>
       <path d="M 10.59375 35.5 
L 73.1875 35.5 
L 73.1875 27.203125 
L 10.59375 27.203125 
z
" id="DejaVuSans-2212"/>
      </defs>
      <g transform="translate(370.543309 360.198438)scale(0.1 -0.1)">
       <use xlink:href="#DejaVuSans-2212"/>
       <use x="83.789062" xlink:href="#DejaVuSans-30"/>
       <use x="147.412109" xlink:href="#DejaVuSans-2e"/>
       <use x="179.199219" xlink:href="#DejaVuSans-32"/>
       <use x="242.822266" xlink:href="#DejaVuSans-35"/>
      </g>
     </g>
    </g>
    <g id="xtick_10">
     <g id="line2d_34">
      <g>
       <use style="stroke:#000000;stroke-width:0.8;" x="432" xlink:href="#mfe8eb892d4" y="345.6"/>
      </g>
     </g>
     <g id="text_21">
      <!-- 0.00 -->
      <g transform="translate(420.867188 360.198438)scale(0.1 -0.1)">
       <use xlink:href="#DejaVuSans-30"/>
       <use x="63.623047" xlink:href="#DejaVuSans-2e"/>
       <use x="95.410156" xlink:href="#DejaVuSans-30"/>
       <use x="159.033203" xlink:href="#DejaVuSans-30"/>
      </g>
     </g>
    </g>
    <g id="xtick_11">
     <g id="line2d_35">
      <g>
       <use style="stroke:#000000;stroke-width:0.8;" x="478.134035" xlink:href="#mfe8eb892d4" y="345.6"/>
      </g>
     </g>
     <g id="text_22">
      <!-- 0.25 -->
      <g transform="translate(467.001223 360.198438)scale(0.1 -0.1)">
       <use xlink:href="#DejaVuSans-30"/>
       <use x="63.623047" xlink:href="#DejaVuSans-2e"/>
       <use x="95.410156" xlink:href="#DejaVuSans-32"/>
       <use x="159.033203" xlink:href="#DejaVuSans-35"/>
      </g>
     </g>
    </g>
   </g>
   <g id="matplotlib.axis_4">
    <g id="ytick_6">
     <g id="line2d_36">
      <g>
       <use style="stroke:#000000;stroke-width:0.8;" x="374.4" xlink:href="#me521a6b804" y="345.6"/>
      </g>
     </g>
     <g id="text_23">
      <!-- 0 -->
      <g transform="translate(361.0375 349.399219)scale(0.1 -0.1)">
       <use xlink:href="#DejaVuSans-30"/>
      </g>
     </g>
    </g>
    <g id="ytick_7">
     <g id="line2d_37">
      <g>
       <use style="stroke:#000000;stroke-width:0.8;" x="374.4" xlink:href="#me521a6b804" y="319.885714"/>
      </g>
     </g>
     <g id="text_24">
      <!-- 20 -->
      <g transform="translate(354.675 323.684933)scale(0.1 -0.1)">
       <use xlink:href="#DejaVuSans-32"/>
       <use x="63.623047" xlink:href="#DejaVuSans-30"/>
      </g>
     </g>
    </g>
    <g id="ytick_8">
     <g id="line2d_38">
      <g>
       <use style="stroke:#000000;stroke-width:0.8;" x="374.4" xlink:href="#me521a6b804" y="294.171429"/>
      </g>
     </g>
     <g id="text_25">
      <!-- 40 -->
      <g transform="translate(354.675 297.970647)scale(0.1 -0.1)">
       <use xlink:href="#DejaVuSans-34"/>
       <use x="63.623047" xlink:href="#DejaVuSans-30"/>
      </g>
     </g>
    </g>
    <g id="ytick_9">
     <g id="line2d_39">
      <g>
       <use style="stroke:#000000;stroke-width:0.8;" x="374.4" xlink:href="#me521a6b804" y="268.457143"/>
      </g>
     </g>
     <g id="text_26">
      <!-- 60 -->
      <g transform="translate(354.675 272.256362)scale(0.1 -0.1)">
       <use xlink:href="#DejaVuSans-36"/>
       <use x="63.623047" xlink:href="#DejaVuSans-30"/>
      </g>
     </g>
    </g>
   </g>
   <g id="patch_30">
    <path d="M 374.4 345.6 
L 374.4 259.2 
" style="fill:none;stroke:#000000;stroke-linecap:square;stroke-linejoin:miter;stroke-width:0.8;"/>
   </g>
   <g id="patch_31">
    <path d="M 489.6 345.6 
L 489.6 259.2 
" style="fill:none;stroke:#000000;stroke-linecap:square;stroke-linejoin:miter;stroke-width:0.8;"/>
   </g>
   <g id="patch_32">
    <path d="M 374.4 345.6 
L 489.6 345.6 
" style="fill:none;stroke:#000000;stroke-linecap:square;stroke-linejoin:miter;stroke-width:0.8;"/>
   </g>
   <g id="patch_33">
    <path d="M 374.4 259.2 
L 489.6 259.2 
" style="fill:none;stroke:#000000;stroke-linecap:square;stroke-linejoin:miter;stroke-width:0.8;"/>
   </g>
   <g id="text_27">
    <!-- Error -->
    <g transform="translate(417.140625 253.2)scale(0.12 -0.12)">
     <use xlink:href="#DejaVuSans-45"/>
     <use x="63.183594" xlink:href="#DejaVuSans-72"/>
     <use x="104.28125" xlink:href="#DejaVuSans-72"/>
     <use x="145.363281" xlink:href="#DejaVuSans-6f"/>
     <use x="206.544922" xlink:href="#DejaVuSans-72"/>
    </g>
   </g>
  </g>
 </g>
 <defs>
  <clipPath id="p949b0b4435">
   <rect height="332.64" width="446.4" x="72" y="51.84"/>
  </clipPath>
  <clipPath id="p1177809865">
   <rect height="86.4" width="115.2" x="374.4" y="259.2"/>
  </clipPath>
 </defs>
</svg>
