<?xml version="1.0" encoding="utf-8" standalone="no"?>
<!DOCTYPE svg PUBLIC "-//W3C//DTD SVG 1.1//EN"
  "http://www.w3.org/Graphics/SVG/1.1/DTD/svg11.dtd">
<!-- Created with matplotlib (http://matplotlib.org/) -->
<svg height="345pt" version="1.1" viewBox="0 0 460 345" width="460pt" xmlns="http://www.w3.org/2000/svg" xmlns:xlink="http://www.w3.org/1999/xlink">
 <defs>
  <style type="text/css">
*{stroke-linecap:butt;stroke-linejoin:round;}
  </style>
 </defs>
 <g id="figure_1">
  <g id="patch_1">
   <path d="M 0 345.6 
L 460.8 345.6 
L 460.8 0 
L 0 0 
z
" style="fill:#ffffff;"/>
  </g>
  <g id="axes_1">
   <g id="patch_2">
    <path d="M 57.6 307.584 
L 414.72 307.584 
L 414.72 41.472 
L 57.6 41.472 
z
" style="fill:#ffffff;"/>
   </g>
   <g id="matplotlib.axis_1">
    <g id="xtick_1">
     <g id="line2d_1">
      <path clip-path="url(#pb58495c11c)" d="M 74.254338 307.584 
L 74.254338 41.472 
" style="fill:none;stroke:#b0b0b0;stroke-linecap:square;stroke-width:0.8;"/>
     </g>
     <g id="line2d_2">
      <defs>
       <path d="M 0 0 
L 0 3.5 
" id="m9248f3a41f" style="stroke:#000000;stroke-width:0.8;"/>
      </defs>
      <g>
       <use style="stroke:#000000;stroke-width:0.8;" x="74.254338" xlink:href="#m9248f3a41f" y="307.584"/>
      </g>
     </g>
     <g id="text_1">
      <!-- 1.25 -->
      <defs>
       <path d="M 12.40625 8.296875 
L 28.515625 8.296875 
L 28.515625 63.921875 
L 10.984375 60.40625 
L 10.984375 69.390625 
L 28.421875 72.90625 
L 38.28125 72.90625 
L 38.28125 8.296875 
L 54.390625 8.296875 
L 54.390625 0 
L 12.40625 0 
z
" id="DejaVuSans-31"/>
       <path d="M 10.6875 12.40625 
L 21 12.40625 
L 21 0 
L 10.6875 0 
z
" id="DejaVuSans-2e"/>
       <path d="M 19.1875 8.296875 
L 53.609375 8.296875 
L 53.609375 0 
L 7.328125 0 
L 7.328125 8.296875 
Q 12.9375 14.109375 22.625 23.890625 
Q 32.328125 33.6875 34.8125 36.53125 
Q 39.546875 41.84375 41.421875 45.53125 
Q 43.3125 49.21875 43.3125 52.78125 
Q 43.3125 58.59375 39.234375 62.25 
Q 35.15625 65.921875 28.609375 65.921875 
Q 23.96875 65.921875 18.8125 64.3125 
Q 13.671875 62.703125 7.8125 59.421875 
L 7.8125 69.390625 
Q 13.765625 71.78125 18.9375 73 
Q 24.125 74.21875 28.421875 74.21875 
Q 39.75 74.21875 46.484375 68.546875 
Q 53.21875 62.890625 53.21875 53.421875 
Q 53.21875 48.921875 51.53125 44.890625 
Q 49.859375 40.875 45.40625 35.40625 
Q 44.1875 33.984375 37.640625 27.21875 
Q 31.109375 20.453125 19.1875 8.296875 
z
" id="DejaVuSans-32"/>
       <path d="M 10.796875 72.90625 
L 49.515625 72.90625 
L 49.515625 64.59375 
L 19.828125 64.59375 
L 19.828125 46.734375 
Q 21.96875 47.46875 24.109375 47.828125 
Q 26.265625 48.1875 28.421875 48.1875 
Q 40.625 48.1875 47.75 41.5 
Q 54.890625 34.8125 54.890625 23.390625 
Q 54.890625 11.625 47.5625 5.09375 
Q 40.234375 -1.421875 26.90625 -1.421875 
Q 22.3125 -1.421875 17.546875 -0.640625 
Q 12.796875 0.140625 7.71875 1.703125 
L 7.71875 11.625 
Q 12.109375 9.234375 16.796875 8.0625 
Q 21.484375 6.890625 26.703125 6.890625 
Q 35.15625 6.890625 40.078125 11.328125 
Q 45.015625 15.765625 45.015625 23.390625 
Q 45.015625 31 40.078125 35.4375 
Q 35.15625 39.890625 26.703125 39.890625 
Q 22.75 39.890625 18.8125 39.015625 
Q 14.890625 38.140625 10.796875 36.28125 
z
" id="DejaVuSans-35"/>
      </defs>
      <g transform="translate(63.121526 322.182437)scale(0.1 -0.1)">
       <use xlink:href="#DejaVuSans-31"/>
       <use x="63.623047" xlink:href="#DejaVuSans-2e"/>
       <use x="95.410156" xlink:href="#DejaVuSans-32"/>
       <use x="159.033203" xlink:href="#DejaVuSans-35"/>
      </g>
     </g>
    </g>
    <g id="xtick_2">
     <g id="line2d_3">
      <path clip-path="url(#pb58495c11c)" d="M 117.015983 307.584 
L 117.015983 41.472 
" style="fill:none;stroke:#b0b0b0;stroke-linecap:square;stroke-width:0.8;"/>
     </g>
     <g id="line2d_4">
      <g>
       <use style="stroke:#000000;stroke-width:0.8;" x="117.015983" xlink:href="#m9248f3a41f" y="307.584"/>
      </g>
     </g>
     <g id="text_2">
      <!-- 1.50 -->
      <defs>
       <path d="M 31.78125 66.40625 
Q 24.171875 66.40625 20.328125 58.90625 
Q 16.5 51.421875 16.5 36.375 
Q 16.5 21.390625 20.328125 13.890625 
Q 24.171875 6.390625 31.78125 6.390625 
Q 39.453125 6.390625 43.28125 13.890625 
Q 47.125 21.390625 47.125 36.375 
Q 47.125 51.421875 43.28125 58.90625 
Q 39.453125 66.40625 31.78125 66.40625 
z
M 31.78125 74.21875 
Q 44.046875 74.21875 50.515625 64.515625 
Q 56.984375 54.828125 56.984375 36.375 
Q 56.984375 17.96875 50.515625 8.265625 
Q 44.046875 -1.421875 31.78125 -1.421875 
Q 19.53125 -1.421875 13.0625 8.265625 
Q 6.59375 17.96875 6.59375 36.375 
Q 6.59375 54.828125 13.0625 64.515625 
Q 19.53125 74.21875 31.78125 74.21875 
z
" id="DejaVuSans-30"/>
      </defs>
      <g transform="translate(105.883171 322.182437)scale(0.1 -0.1)">
       <use xlink:href="#DejaVuSans-31"/>
       <use x="63.623047" xlink:href="#DejaVuSans-2e"/>
       <use x="95.410156" xlink:href="#DejaVuSans-35"/>
       <use x="159.033203" xlink:href="#DejaVuSans-30"/>
      </g>
     </g>
    </g>
    <g id="xtick_3">
     <g id="line2d_5">
      <path clip-path="url(#pb58495c11c)" d="M 159.777629 307.584 
L 159.777629 41.472 
" style="fill:none;stroke:#b0b0b0;stroke-linecap:square;stroke-width:0.8;"/>
     </g>
     <g id="line2d_6">
      <g>
       <use style="stroke:#000000;stroke-width:0.8;" x="159.777629" xlink:href="#m9248f3a41f" y="307.584"/>
      </g>
     </g>
     <g id="text_3">
      <!-- 1.75 -->
      <defs>
       <path d="M 8.203125 72.90625 
L 55.078125 72.90625 
L 55.078125 68.703125 
L 28.609375 0 
L 18.3125 0 
L 43.21875 64.59375 
L 8.203125 64.59375 
z
" id="DejaVuSans-37"/>
      </defs>
      <g transform="translate(148.644816 322.182437)scale(0.1 -0.1)">
       <use xlink:href="#DejaVuSans-31"/>
       <use x="63.623047" xlink:href="#DejaVuSans-2e"/>
       <use x="95.410156" xlink:href="#DejaVuSans-37"/>
       <use x="159.033203" xlink:href="#DejaVuSans-35"/>
      </g>
     </g>
    </g>
    <g id="xtick_4">
     <g id="line2d_7">
      <path clip-path="url(#pb58495c11c)" d="M 202.539274 307.584 
L 202.539274 41.472 
" style="fill:none;stroke:#b0b0b0;stroke-linecap:square;stroke-width:0.8;"/>
     </g>
     <g id="line2d_8">
      <g>
       <use style="stroke:#000000;stroke-width:0.8;" x="202.539274" xlink:href="#m9248f3a41f" y="307.584"/>
      </g>
     </g>
     <g id="text_4">
      <!-- 2.00 -->
      <g transform="translate(191.406461 322.182437)scale(0.1 -0.1)">
       <use xlink:href="#DejaVuSans-32"/>
       <use x="63.623047" xlink:href="#DejaVuSans-2e"/>
       <use x="95.410156" xlink:href="#DejaVuSans-30"/>
       <use x="159.033203" xlink:href="#DejaVuSans-30"/>
      </g>
     </g>
    </g>
    <g id="xtick_5">
     <g id="line2d_9">
      <path clip-path="url(#pb58495c11c)" d="M 245.300919 307.584 
L 245.300919 41.472 
" style="fill:none;stroke:#b0b0b0;stroke-linecap:square;stroke-width:0.8;"/>
     </g>
     <g id="line2d_10">
      <g>
       <use style="stroke:#000000;stroke-width:0.8;" x="245.300919" xlink:href="#m9248f3a41f" y="307.584"/>
      </g>
     </g>
     <g id="text_5">
      <!-- 2.25 -->
      <g transform="translate(234.168106 322.182437)scale(0.1 -0.1)">
       <use xlink:href="#DejaVuSans-32"/>
       <use x="63.623047" xlink:href="#DejaVuSans-2e"/>
       <use x="95.410156" xlink:href="#DejaVuSans-32"/>
       <use x="159.033203" xlink:href="#DejaVuSans-35"/>
      </g>
     </g>
    </g>
    <g id="xtick_6">
     <g id="line2d_11">
      <path clip-path="url(#pb58495c11c)" d="M 288.062564 307.584 
L 288.062564 41.472 
" style="fill:none;stroke:#b0b0b0;stroke-linecap:square;stroke-width:0.8;"/>
     </g>
     <g id="line2d_12">
      <g>
       <use style="stroke:#000000;stroke-width:0.8;" x="288.062564" xlink:href="#m9248f3a41f" y="307.584"/>
      </g>
     </g>
     <g id="text_6">
      <!-- 2.50 -->
      <g transform="translate(276.929751 322.182437)scale(0.1 -0.1)">
       <use xlink:href="#DejaVuSans-32"/>
       <use x="63.623047" xlink:href="#DejaVuSans-2e"/>
       <use x="95.410156" xlink:href="#DejaVuSans-35"/>
       <use x="159.033203" xlink:href="#DejaVuSans-30"/>
      </g>
     </g>
    </g>
    <g id="xtick_7">
     <g id="line2d_13">
      <path clip-path="url(#pb58495c11c)" d="M 330.824209 307.584 
L 330.824209 41.472 
" style="fill:none;stroke:#b0b0b0;stroke-linecap:square;stroke-width:0.8;"/>
     </g>
     <g id="line2d_14">
      <g>
       <use style="stroke:#000000;stroke-width:0.8;" x="330.824209" xlink:href="#m9248f3a41f" y="307.584"/>
      </g>
     </g>
     <g id="text_7">
      <!-- 2.75 -->
      <g transform="translate(319.691396 322.182437)scale(0.1 -0.1)">
       <use xlink:href="#DejaVuSans-32"/>
       <use x="63.623047" xlink:href="#DejaVuSans-2e"/>
       <use x="95.410156" xlink:href="#DejaVuSans-37"/>
       <use x="159.033203" xlink:href="#DejaVuSans-35"/>
      </g>
     </g>
    </g>
    <g id="xtick_8">
     <g id="line2d_15">
      <path clip-path="url(#pb58495c11c)" d="M 373.585854 307.584 
L 373.585854 41.472 
" style="fill:none;stroke:#b0b0b0;stroke-linecap:square;stroke-width:0.8;"/>
     </g>
     <g id="line2d_16">
      <g>
       <use style="stroke:#000000;stroke-width:0.8;" x="373.585854" xlink:href="#m9248f3a41f" y="307.584"/>
      </g>
     </g>
     <g id="text_8">
      <!-- 3.00 -->
      <defs>
       <path d="M 40.578125 39.3125 
Q 47.65625 37.796875 51.625 33 
Q 55.609375 28.21875 55.609375 21.1875 
Q 55.609375 10.40625 48.1875 4.484375 
Q 40.765625 -1.421875 27.09375 -1.421875 
Q 22.515625 -1.421875 17.65625 -0.515625 
Q 12.796875 0.390625 7.625 2.203125 
L 7.625 11.71875 
Q 11.71875 9.328125 16.59375 8.109375 
Q 21.484375 6.890625 26.8125 6.890625 
Q 36.078125 6.890625 40.9375 10.546875 
Q 45.796875 14.203125 45.796875 21.1875 
Q 45.796875 27.640625 41.28125 31.265625 
Q 36.765625 34.90625 28.71875 34.90625 
L 20.21875 34.90625 
L 20.21875 43.015625 
L 29.109375 43.015625 
Q 36.375 43.015625 40.234375 45.921875 
Q 44.09375 48.828125 44.09375 54.296875 
Q 44.09375 59.90625 40.109375 62.90625 
Q 36.140625 65.921875 28.71875 65.921875 
Q 24.65625 65.921875 20.015625 65.03125 
Q 15.375 64.15625 9.8125 62.3125 
L 9.8125 71.09375 
Q 15.4375 72.65625 20.34375 73.4375 
Q 25.25 74.21875 29.59375 74.21875 
Q 40.828125 74.21875 47.359375 69.109375 
Q 53.90625 64.015625 53.90625 55.328125 
Q 53.90625 49.265625 50.4375 45.09375 
Q 46.96875 40.921875 40.578125 39.3125 
z
" id="DejaVuSans-33"/>
      </defs>
      <g transform="translate(362.453041 322.182437)scale(0.1 -0.1)">
       <use xlink:href="#DejaVuSans-33"/>
       <use x="63.623047" xlink:href="#DejaVuSans-2e"/>
       <use x="95.410156" xlink:href="#DejaVuSans-30"/>
       <use x="159.033203" xlink:href="#DejaVuSans-30"/>
      </g>
     </g>
    </g>
    <g id="text_9">
     <!-- Real -->
     <defs>
      <path d="M 44.390625 34.1875 
Q 47.5625 33.109375 50.5625 29.59375 
Q 53.5625 26.078125 56.59375 19.921875 
L 66.609375 0 
L 56 0 
L 46.6875 18.703125 
Q 43.0625 26.03125 39.671875 28.421875 
Q 36.28125 30.8125 30.421875 30.8125 
L 19.671875 30.8125 
L 19.671875 0 
L 9.8125 0 
L 9.8125 72.90625 
L 32.078125 72.90625 
Q 44.578125 72.90625 50.734375 67.671875 
Q 56.890625 62.453125 56.890625 51.90625 
Q 56.890625 45.015625 53.6875 40.46875 
Q 50.484375 35.9375 44.390625 34.1875 
z
M 19.671875 64.796875 
L 19.671875 38.921875 
L 32.078125 38.921875 
Q 39.203125 38.921875 42.84375 42.21875 
Q 46.484375 45.515625 46.484375 51.90625 
Q 46.484375 58.296875 42.84375 61.546875 
Q 39.203125 64.796875 32.078125 64.796875 
z
" id="DejaVuSans-52"/>
      <path d="M 56.203125 29.59375 
L 56.203125 25.203125 
L 14.890625 25.203125 
Q 15.484375 15.921875 20.484375 11.0625 
Q 25.484375 6.203125 34.421875 6.203125 
Q 39.59375 6.203125 44.453125 7.46875 
Q 49.3125 8.734375 54.109375 11.28125 
L 54.109375 2.78125 
Q 49.265625 0.734375 44.1875 -0.34375 
Q 39.109375 -1.421875 33.890625 -1.421875 
Q 20.796875 -1.421875 13.15625 6.1875 
Q 5.515625 13.8125 5.515625 26.8125 
Q 5.515625 40.234375 12.765625 48.109375 
Q 20.015625 56 32.328125 56 
Q 43.359375 56 49.78125 48.890625 
Q 56.203125 41.796875 56.203125 29.59375 
z
M 47.21875 32.234375 
Q 47.125 39.59375 43.09375 43.984375 
Q 39.0625 48.390625 32.421875 48.390625 
Q 24.90625 48.390625 20.390625 44.140625 
Q 15.875 39.890625 15.1875 32.171875 
z
" id="DejaVuSans-65"/>
      <path d="M 34.28125 27.484375 
Q 23.390625 27.484375 19.1875 25 
Q 14.984375 22.515625 14.984375 16.5 
Q 14.984375 11.71875 18.140625 8.90625 
Q 21.296875 6.109375 26.703125 6.109375 
Q 34.1875 6.109375 38.703125 11.40625 
Q 43.21875 16.703125 43.21875 25.484375 
L 43.21875 27.484375 
z
M 52.203125 31.203125 
L 52.203125 0 
L 43.21875 0 
L 43.21875 8.296875 
Q 40.140625 3.328125 35.546875 0.953125 
Q 30.953125 -1.421875 24.3125 -1.421875 
Q 15.921875 -1.421875 10.953125 3.296875 
Q 6 8.015625 6 15.921875 
Q 6 25.140625 12.171875 29.828125 
Q 18.359375 34.515625 30.609375 34.515625 
L 43.21875 34.515625 
L 43.21875 35.40625 
Q 43.21875 41.609375 39.140625 45 
Q 35.0625 48.390625 27.6875 48.390625 
Q 23 48.390625 18.546875 47.265625 
Q 14.109375 46.140625 10.015625 43.890625 
L 10.015625 52.203125 
Q 14.9375 54.109375 19.578125 55.046875 
Q 24.21875 56 28.609375 56 
Q 40.484375 56 46.34375 49.84375 
Q 52.203125 43.703125 52.203125 31.203125 
z
" id="DejaVuSans-61"/>
      <path d="M 9.421875 75.984375 
L 18.40625 75.984375 
L 18.40625 0 
L 9.421875 0 
z
" id="DejaVuSans-6c"/>
     </defs>
     <g transform="translate(225.159219 335.860562)scale(0.1 -0.1)">
      <use xlink:href="#DejaVuSans-52"/>
      <use x="69.419922" xlink:href="#DejaVuSans-65"/>
      <use x="130.943359" xlink:href="#DejaVuSans-61"/>
      <use x="192.222656" xlink:href="#DejaVuSans-6c"/>
     </g>
    </g>
   </g>
   <g id="matplotlib.axis_2">
    <g id="ytick_1">
     <g id="line2d_17">
      <path clip-path="url(#pb58495c11c)" d="M 57.6 265.715443 
L 414.72 265.715443 
" style="fill:none;stroke:#b0b0b0;stroke-linecap:square;stroke-width:0.8;"/>
     </g>
     <g id="line2d_18">
      <defs>
       <path d="M 0 0 
L -3.5 0 
" id="m008a6cc996" style="stroke:#000000;stroke-width:0.8;"/>
      </defs>
      <g>
       <use style="stroke:#000000;stroke-width:0.8;" x="57.6" xlink:href="#m008a6cc996" y="265.715443"/>
      </g>
     </g>
     <g id="text_10">
      <!-- 1.5 -->
      <g transform="translate(34.696875 269.514661)scale(0.1 -0.1)">
       <use xlink:href="#DejaVuSans-31"/>
       <use x="63.623047" xlink:href="#DejaVuSans-2e"/>
       <use x="95.410156" xlink:href="#DejaVuSans-35"/>
      </g>
     </g>
    </g>
    <g id="ytick_2">
     <g id="line2d_19">
      <path clip-path="url(#pb58495c11c)" d="M 57.6 206.751685 
L 414.72 206.751685 
" style="fill:none;stroke:#b0b0b0;stroke-linecap:square;stroke-width:0.8;"/>
     </g>
     <g id="line2d_20">
      <g>
       <use style="stroke:#000000;stroke-width:0.8;" x="57.6" xlink:href="#m008a6cc996" y="206.751685"/>
      </g>
     </g>
     <g id="text_11">
      <!-- 2.0 -->
      <g transform="translate(34.696875 210.550903)scale(0.1 -0.1)">
       <use xlink:href="#DejaVuSans-32"/>
       <use x="63.623047" xlink:href="#DejaVuSans-2e"/>
       <use x="95.410156" xlink:href="#DejaVuSans-30"/>
      </g>
     </g>
    </g>
    <g id="ytick_3">
     <g id="line2d_21">
      <path clip-path="url(#pb58495c11c)" d="M 57.6 147.787927 
L 414.72 147.787927 
" style="fill:none;stroke:#b0b0b0;stroke-linecap:square;stroke-width:0.8;"/>
     </g>
     <g id="line2d_22">
      <g>
       <use style="stroke:#000000;stroke-width:0.8;" x="57.6" xlink:href="#m008a6cc996" y="147.787927"/>
      </g>
     </g>
     <g id="text_12">
      <!-- 2.5 -->
      <g transform="translate(34.696875 151.587146)scale(0.1 -0.1)">
       <use xlink:href="#DejaVuSans-32"/>
       <use x="63.623047" xlink:href="#DejaVuSans-2e"/>
       <use x="95.410156" xlink:href="#DejaVuSans-35"/>
      </g>
     </g>
    </g>
    <g id="ytick_4">
     <g id="line2d_23">
      <path clip-path="url(#pb58495c11c)" d="M 57.6 88.824169 
L 414.72 88.824169 
" style="fill:none;stroke:#b0b0b0;stroke-linecap:square;stroke-width:0.8;"/>
     </g>
     <g id="line2d_24">
      <g>
       <use style="stroke:#000000;stroke-width:0.8;" x="57.6" xlink:href="#m008a6cc996" y="88.824169"/>
      </g>
     </g>
     <g id="text_13">
      <!-- 3.0 -->
      <g transform="translate(34.696875 92.623388)scale(0.1 -0.1)">
       <use xlink:href="#DejaVuSans-33"/>
       <use x="63.623047" xlink:href="#DejaVuSans-2e"/>
       <use x="95.410156" xlink:href="#DejaVuSans-30"/>
      </g>
     </g>
    </g>
    <g id="text_14">
     <!-- Predicted -->
     <defs>
      <path d="M 19.671875 64.796875 
L 19.671875 37.40625 
L 32.078125 37.40625 
Q 38.96875 37.40625 42.71875 40.96875 
Q 46.484375 44.53125 46.484375 51.125 
Q 46.484375 57.671875 42.71875 61.234375 
Q 38.96875 64.796875 32.078125 64.796875 
z
M 9.8125 72.90625 
L 32.078125 72.90625 
Q 44.34375 72.90625 50.609375 67.359375 
Q 56.890625 61.8125 56.890625 51.125 
Q 56.890625 40.328125 50.609375 34.8125 
Q 44.34375 29.296875 32.078125 29.296875 
L 19.671875 29.296875 
L 19.671875 0 
L 9.8125 0 
z
" id="DejaVuSans-50"/>
      <path d="M 41.109375 46.296875 
Q 39.59375 47.171875 37.8125 47.578125 
Q 36.03125 48 33.890625 48 
Q 26.265625 48 22.1875 43.046875 
Q 18.109375 38.09375 18.109375 28.8125 
L 18.109375 0 
L 9.078125 0 
L 9.078125 54.6875 
L 18.109375 54.6875 
L 18.109375 46.1875 
Q 20.953125 51.171875 25.484375 53.578125 
Q 30.03125 56 36.53125 56 
Q 37.453125 56 38.578125 55.875 
Q 39.703125 55.765625 41.0625 55.515625 
z
" id="DejaVuSans-72"/>
      <path d="M 45.40625 46.390625 
L 45.40625 75.984375 
L 54.390625 75.984375 
L 54.390625 0 
L 45.40625 0 
L 45.40625 8.203125 
Q 42.578125 3.328125 38.25 0.953125 
Q 33.9375 -1.421875 27.875 -1.421875 
Q 17.96875 -1.421875 11.734375 6.484375 
Q 5.515625 14.40625 5.515625 27.296875 
Q 5.515625 40.1875 11.734375 48.09375 
Q 17.96875 56 27.875 56 
Q 33.9375 56 38.25 53.625 
Q 42.578125 51.265625 45.40625 46.390625 
z
M 14.796875 27.296875 
Q 14.796875 17.390625 18.875 11.75 
Q 22.953125 6.109375 30.078125 6.109375 
Q 37.203125 6.109375 41.296875 11.75 
Q 45.40625 17.390625 45.40625 27.296875 
Q 45.40625 37.203125 41.296875 42.84375 
Q 37.203125 48.484375 30.078125 48.484375 
Q 22.953125 48.484375 18.875 42.84375 
Q 14.796875 37.203125 14.796875 27.296875 
z
" id="DejaVuSans-64"/>
      <path d="M 9.421875 54.6875 
L 18.40625 54.6875 
L 18.40625 0 
L 9.421875 0 
z
M 9.421875 75.984375 
L 18.40625 75.984375 
L 18.40625 64.59375 
L 9.421875 64.59375 
z
" id="DejaVuSans-69"/>
      <path d="M 48.78125 52.59375 
L 48.78125 44.1875 
Q 44.96875 46.296875 41.140625 47.34375 
Q 37.3125 48.390625 33.40625 48.390625 
Q 24.65625 48.390625 19.8125 42.84375 
Q 14.984375 37.3125 14.984375 27.296875 
Q 14.984375 17.28125 19.8125 11.734375 
Q 24.65625 6.203125 33.40625 6.203125 
Q 37.3125 6.203125 41.140625 7.25 
Q 44.96875 8.296875 48.78125 10.40625 
L 48.78125 2.09375 
Q 45.015625 0.34375 40.984375 -0.53125 
Q 36.96875 -1.421875 32.421875 -1.421875 
Q 20.0625 -1.421875 12.78125 6.34375 
Q 5.515625 14.109375 5.515625 27.296875 
Q 5.515625 40.671875 12.859375 48.328125 
Q 20.21875 56 33.015625 56 
Q 37.15625 56 41.109375 55.140625 
Q 45.0625 54.296875 48.78125 52.59375 
z
" id="DejaVuSans-63"/>
      <path d="M 18.3125 70.21875 
L 18.3125 54.6875 
L 36.8125 54.6875 
L 36.8125 47.703125 
L 18.3125 47.703125 
L 18.3125 18.015625 
Q 18.3125 11.328125 20.140625 9.421875 
Q 21.96875 7.515625 27.59375 7.515625 
L 36.8125 7.515625 
L 36.8125 0 
L 27.59375 0 
Q 17.1875 0 13.234375 3.875 
Q 9.28125 7.765625 9.28125 18.015625 
L 9.28125 47.703125 
L 2.6875 47.703125 
L 2.6875 54.6875 
L 9.28125 54.6875 
L 9.28125 70.21875 
z
" id="DejaVuSans-74"/>
     </defs>
     <g transform="translate(28.617187 198.195969)rotate(-90)scale(0.1 -0.1)">
      <use xlink:href="#DejaVuSans-50"/>
      <use x="60.287109" xlink:href="#DejaVuSans-72"/>
      <use x="101.369141" xlink:href="#DejaVuSans-65"/>
      <use x="162.892578" xlink:href="#DejaVuSans-64"/>
      <use x="226.369141" xlink:href="#DejaVuSans-69"/>
      <use x="254.152344" xlink:href="#DejaVuSans-63"/>
      <use x="309.132812" xlink:href="#DejaVuSans-74"/>
      <use x="348.341797" xlink:href="#DejaVuSans-65"/>
      <use x="409.865234" xlink:href="#DejaVuSans-64"/>
     </g>
    </g>
   </g>
   <g id="line2d_25">
    <path clip-path="url(#pb58495c11c)" d="M 276.929356 155.463681 
L 308.962256 133.378701 
L 308.962256 133.378701 
L 308.962256 133.378701 
L 110.827515 269.982062 
L 210.287522 201.40968 
L 210.287522 201.40968 
L 382.613963 82.599768 
L 382.613963 82.599768 
L 382.613963 82.599768 
L 84.789416 287.933946 
L 356.875928 100.344773 
L 356.875928 100.344773 
L 385.244969 80.785829 
L 357.746188 99.744776 
L 357.746188 99.744776 
L 116.020568 266.401729 
L 193.027404 213.309613 
L 193.027404 213.309613 
L 390.215441 77.358953 
L 219.222243 195.249665 
L 219.222243 195.249665 
L 111.096178 269.796834 
L 111.096178 269.796834 
L 111.096178 269.796834 
L 320.622432 125.33963 
L 154.379775 239.955096 
L 154.379775 239.955096 
L 79.78528 291.384032 
L 79.78528 291.384032 
L 79.78528 291.384032 
L 398.487273 71.655966 
L 98.250895 278.652973 
L 98.250895 278.652973 
L 77.940667 292.655794 
L 77.940667 292.655794 
L 77.940667 292.655794 
L 320.011211 125.761035 
L 150.234826 242.812818 
L 150.234826 242.812818 
L 73.832727 295.488 
L 73.832727 295.488 
L 73.832727 295.488 
L 340.865025 111.38344 
L 190.826327 214.827138 
" style="fill:none;stroke:#ff0000;stroke-dasharray:5.55,2.4;stroke-dashoffset:0;stroke-width:1.5;"/>
   </g>
   <g id="line2d_26">
    <defs>
     <path d="M 0 1.5 
C 0.397805 1.5 0.77937 1.341951 1.06066 1.06066 
C 1.341951 0.77937 1.5 0.397805 1.5 0 
C 1.5 -0.397805 1.341951 -0.77937 1.06066 -1.06066 
C 0.77937 -1.341951 0.397805 -1.5 0 -1.5 
C -0.397805 -1.5 -0.77937 -1.341951 -1.06066 -1.06066 
C -1.341951 -0.77937 -1.5 -0.397805 -1.5 0 
C -1.5 0.397805 -1.341951 0.77937 -1.06066 1.06066 
C -0.77937 1.341951 -0.397805 1.5 0 1.5 
z
" id="mead056e28e" style="stroke:#1f77b4;"/>
    </defs>
    <g clip-path="url(#pb58495c11c)">
     <use style="fill:#1f77b4;stroke:#1f77b4;" x="276.929356" xlink:href="#mead056e28e" y="166.031881"/>
     <use style="fill:#1f77b4;stroke:#1f77b4;" x="308.962256" xlink:href="#mead056e28e" y="141.162562"/>
     <use style="fill:#1f77b4;stroke:#1f77b4;" x="110.827515" xlink:href="#mead056e28e" y="259.313151"/>
     <use style="fill:#1f77b4;stroke:#1f77b4;" x="210.287522" xlink:href="#mead056e28e" y="209.681383"/>
     <use style="fill:#1f77b4;stroke:#1f77b4;" x="339.72027" xlink:href="#mead056e28e" y="114.498817"/>
     <use style="fill:#1f77b4;stroke:#1f77b4;" x="274.746611" xlink:href="#mead056e28e" y="167.829316"/>
     <use style="fill:#1f77b4;stroke:#1f77b4;" x="348.768688" xlink:href="#mead056e28e" y="107.026145"/>
     <use style="fill:#1f77b4;stroke:#1f77b4;" x="354.559219" xlink:href="#mead056e28e" y="100.417679"/>
     <use style="fill:#1f77b4;stroke:#1f77b4;" x="382.613963" xlink:href="#mead056e28e" y="72.184408"/>
     <use style="fill:#1f77b4;stroke:#1f77b4;" x="153.728263" xlink:href="#mead056e28e" y="238.862364"/>
     <use style="fill:#1f77b4;stroke:#1f77b4;" x="155.260903" xlink:href="#mead056e28e" y="239.893803"/>
     <use style="fill:#1f77b4;stroke:#1f77b4;" x="116.860079" xlink:href="#mead056e28e" y="256.807753"/>
     <use style="fill:#1f77b4;stroke:#1f77b4;" x="269.3207" xlink:href="#mead056e28e" y="171.635984"/>
     <use style="fill:#1f77b4;stroke:#1f77b4;" x="183.961328" xlink:href="#mead056e28e" y="221.837721"/>
     <use style="fill:#1f77b4;stroke:#1f77b4;" x="355.336621" xlink:href="#mead056e28e" y="101.622257"/>
     <use style="fill:#1f77b4;stroke:#1f77b4;" x="288.814233" xlink:href="#mead056e28e" y="157.292213"/>
     <use style="fill:#1f77b4;stroke:#1f77b4;" x="376.162622" xlink:href="#mead056e28e" y="78.743559"/>
     <use style="fill:#1f77b4;stroke:#1f77b4;" x="189.186699" xlink:href="#mead056e28e" y="222.061666"/>
     <use style="fill:#1f77b4;stroke:#1f77b4;" x="321.277084" xlink:href="#mead056e28e" y="131.456093"/>
     <use style="fill:#1f77b4;stroke:#1f77b4;" x="134.982362" xlink:href="#mead056e28e" y="249.750749"/>
     <use style="fill:#1f77b4;stroke:#1f77b4;" x="212.537841" xlink:href="#mead056e28e" y="208.86984"/>
     <use style="fill:#1f77b4;stroke:#1f77b4;" x="231.895452" xlink:href="#mead056e28e" y="197.617126"/>
     <use style="fill:#1f77b4;stroke:#1f77b4;" x="305.944934" xlink:href="#mead056e28e" y="143.662703"/>
     <use style="fill:#1f77b4;stroke:#1f77b4;" x="248.012222" xlink:href="#mead056e28e" y="188.285614"/>
     <use style="fill:#1f77b4;stroke:#1f77b4;" x="278.63354" xlink:href="#mead056e28e" y="164.971988"/>
     <use style="fill:#1f77b4;stroke:#1f77b4;" x="111.217011" xlink:href="#mead056e28e" y="257.669765"/>
     <use style="fill:#1f77b4;stroke:#1f77b4;" x="132.038119" xlink:href="#mead056e28e" y="250.624064"/>
     <use style="fill:#1f77b4;stroke:#1f77b4;" x="363.195221" xlink:href="#mead056e28e" y="93.30121"/>
     <use style="fill:#1f77b4;stroke:#1f77b4;" x="293.58439" xlink:href="#mead056e28e" y="154.005467"/>
     <use style="fill:#1f77b4;stroke:#1f77b4;" x="293.737848" xlink:href="#mead056e28e" y="154.017164"/>
     <use style="fill:#1f77b4;stroke:#1f77b4;" x="273.015634" xlink:href="#mead056e28e" y="170.244265"/>
     <use style="fill:#1f77b4;stroke:#1f77b4;" x="220.637944" xlink:href="#mead056e28e" y="202.208262"/>
     <use style="fill:#1f77b4;stroke:#1f77b4;" x="84.789416" xlink:href="#mead056e28e" y="266.829375"/>
     <use style="fill:#1f77b4;stroke:#1f77b4;" x="88.102051" xlink:href="#mead056e28e" y="267.012523"/>
     <use style="fill:#1f77b4;stroke:#1f77b4;" x="309.754665" xlink:href="#mead056e28e" y="142.992246"/>
     <use style="fill:#1f77b4;stroke:#1f77b4;" x="214.771276" xlink:href="#mead056e28e" y="206.468049"/>
     <use style="fill:#1f77b4;stroke:#1f77b4;" x="305.528074" xlink:href="#mead056e28e" y="144.897816"/>
     <use style="fill:#1f77b4;stroke:#1f77b4;" x="115.812545" xlink:href="#mead056e28e" y="257.049523"/>
     <use style="fill:#1f77b4;stroke:#1f77b4;" x="261.460957" xlink:href="#mead056e28e" y="177.309225"/>
     <use style="fill:#1f77b4;stroke:#1f77b4;" x="180.940784" xlink:href="#mead056e28e" y="225.876151"/>
     <use style="fill:#1f77b4;stroke:#1f77b4;" x="99.612052" xlink:href="#mead056e28e" y="261.609619"/>
     <use style="fill:#1f77b4;stroke:#1f77b4;" x="140.239767" xlink:href="#mead056e28e" y="247.039991"/>
     <use style="fill:#1f77b4;stroke:#1f77b4;" x="222.23512" xlink:href="#mead056e28e" y="202.042124"/>
     <use style="fill:#1f77b4;stroke:#1f77b4;" x="249.436325" xlink:href="#mead056e28e" y="185.493262"/>
     <use style="fill:#1f77b4;stroke:#1f77b4;" x="378.21964" xlink:href="#mead056e28e" y="80.129487"/>
     <use style="fill:#1f77b4;stroke:#1f77b4;" x="123.526803" xlink:href="#mead056e28e" y="252.648874"/>
     <use style="fill:#1f77b4;stroke:#1f77b4;" x="283.375518" xlink:href="#mead056e28e" y="161.326621"/>
     <use style="fill:#1f77b4;stroke:#1f77b4;" x="178.072026" xlink:href="#mead056e28e" y="227.192772"/>
     <use style="fill:#1f77b4;stroke:#1f77b4;" x="129.368411" xlink:href="#mead056e28e" y="251.732485"/>
     <use style="fill:#1f77b4;stroke:#1f77b4;" x="188.273701" xlink:href="#mead056e28e" y="220.116678"/>
     <use style="fill:#1f77b4;stroke:#1f77b4;" x="227.342574" xlink:href="#mead056e28e" y="198.469747"/>
     <use style="fill:#1f77b4;stroke:#1f77b4;" x="283.061465" xlink:href="#mead056e28e" y="164.956355"/>
     <use style="fill:#1f77b4;stroke:#1f77b4;" x="207.876445" xlink:href="#mead056e28e" y="210.935896"/>
     <use style="fill:#1f77b4;stroke:#1f77b4;" x="356.875928" xlink:href="#mead056e28e" y="97.744539"/>
     <use style="fill:#1f77b4;stroke:#1f77b4;" x="385.244969" xlink:href="#mead056e28e" y="68.718366"/>
     <use style="fill:#1f77b4;stroke:#1f77b4;" x="357.746188" xlink:href="#mead056e28e" y="101.04627"/>
     <use style="fill:#1f77b4;stroke:#1f77b4;" x="116.020568" xlink:href="#mead056e28e" y="257.142067"/>
     <use style="fill:#1f77b4;stroke:#1f77b4;" x="216.846157" xlink:href="#mead056e28e" y="205.154549"/>
     <use style="fill:#1f77b4;stroke:#1f77b4;" x="258.618381" xlink:href="#mead056e28e" y="181.064047"/>
     <use style="fill:#1f77b4;stroke:#1f77b4;" x="195.824367" xlink:href="#mead056e28e" y="217.802666"/>
     <use style="fill:#1f77b4;stroke:#1f77b4;" x="158.985872" xlink:href="#mead056e28e" y="237.874504"/>
     <use style="fill:#1f77b4;stroke:#1f77b4;" x="357.204091" xlink:href="#mead056e28e" y="98.004866"/>
     <use style="fill:#1f77b4;stroke:#1f77b4;" x="244.352238" xlink:href="#mead056e28e" y="189.00592"/>
     <use style="fill:#1f77b4;stroke:#1f77b4;" x="193.027404" xlink:href="#mead056e28e" y="217.510877"/>
     <use style="fill:#1f77b4;stroke:#1f77b4;" x="390.215441" xlink:href="#mead056e28e" y="63.722527"/>
     <use style="fill:#1f77b4;stroke:#1f77b4;" x="279.825518" xlink:href="#mead056e28e" y="164.331559"/>
     <use style="fill:#1f77b4;stroke:#1f77b4;" x="219.222243" xlink:href="#mead056e28e" y="203.633411"/>
     <use style="fill:#1f77b4;stroke:#1f77b4;" x="111.096178" xlink:href="#mead056e28e" y="258.028456"/>
     <use style="fill:#1f77b4;stroke:#1f77b4;" x="318.097455" xlink:href="#mead056e28e" y="135.491318"/>
     <use style="fill:#1f77b4;stroke:#1f77b4;" x="255.295897" xlink:href="#mead056e28e" y="181.019539"/>
     <use style="fill:#1f77b4;stroke:#1f77b4;" x="320.622432" xlink:href="#mead056e28e" y="131.322851"/>
     <use style="fill:#1f77b4;stroke:#1f77b4;" x="204.62753" xlink:href="#mead056e28e" y="212.714156"/>
     <use style="fill:#1f77b4;stroke:#1f77b4;" x="169.449848" xlink:href="#mead056e28e" y="232.054385"/>
     <use style="fill:#1f77b4;stroke:#1f77b4;" x="139.107002" xlink:href="#mead056e28e" y="247.325594"/>
     <use style="fill:#1f77b4;stroke:#1f77b4;" x="224.052593" xlink:href="#mead056e28e" y="202.675608"/>
     <use style="fill:#1f77b4;stroke:#1f77b4;" x="154.379775" xlink:href="#mead056e28e" y="240.290016"/>
     <use style="fill:#1f77b4;stroke:#1f77b4;" x="79.78528" xlink:href="#mead056e28e" y="267.758556"/>
     <use style="fill:#1f77b4;stroke:#1f77b4;" x="234.019636" xlink:href="#mead056e28e" y="194.391927"/>
     <use style="fill:#1f77b4;stroke:#1f77b4;" x="387.557234" xlink:href="#mead056e28e" y="66.916124"/>
     <use style="fill:#1f77b4;stroke:#1f77b4;" x="308.901044" xlink:href="#mead056e28e" y="142.000535"/>
     <use style="fill:#1f77b4;stroke:#1f77b4;" x="317.143432" xlink:href="#mead056e28e" y="135.089679"/>
     <use style="fill:#1f77b4;stroke:#1f77b4;" x="220.646875" xlink:href="#mead056e28e" y="204.15623"/>
     <use style="fill:#1f77b4;stroke:#1f77b4;" x="185.850676" xlink:href="#mead056e28e" y="223.366535"/>
     <use style="fill:#1f77b4;stroke:#1f77b4;" x="279.569049" xlink:href="#mead056e28e" y="167.433469"/>
     <use style="fill:#1f77b4;stroke:#1f77b4;" x="202.189477" xlink:href="#mead056e28e" y="212.53753"/>
     <use style="fill:#1f77b4;stroke:#1f77b4;" x="316.601212" xlink:href="#mead056e28e" y="139.579288"/>
     <use style="fill:#1f77b4;stroke:#1f77b4;" x="246.096427" xlink:href="#mead056e28e" y="187.242365"/>
     <use style="fill:#1f77b4;stroke:#1f77b4;" x="301.913356" xlink:href="#mead056e28e" y="147.485988"/>
     <use style="fill:#1f77b4;stroke:#1f77b4;" x="397.792125" xlink:href="#mead056e28e" y="62.221295"/>
     <use style="fill:#1f77b4;stroke:#1f77b4;" x="224.227827" xlink:href="#mead056e28e" y="202.146406"/>
     <use style="fill:#1f77b4;stroke:#1f77b4;" x="224.707449" xlink:href="#mead056e28e" y="202.455431"/>
     <use style="fill:#1f77b4;stroke:#1f77b4;" x="303.689925" xlink:href="#mead056e28e" y="146.922513"/>
     <use style="fill:#1f77b4;stroke:#1f77b4;" x="398.487273" xlink:href="#mead056e28e" y="53.568"/>
     <use style="fill:#1f77b4;stroke:#1f77b4;" x="211.876337" xlink:href="#mead056e28e" y="208.480657"/>
     <use style="fill:#1f77b4;stroke:#1f77b4;" x="238.787265" xlink:href="#mead056e28e" y="192.425261"/>
     <use style="fill:#1f77b4;stroke:#1f77b4;" x="91.23572" xlink:href="#mead056e28e" y="265.529792"/>
     <use style="fill:#1f77b4;stroke:#1f77b4;" x="113.19881" xlink:href="#mead056e28e" y="257.861713"/>
     <use style="fill:#1f77b4;stroke:#1f77b4;" x="205.316397" xlink:href="#mead056e28e" y="211.589905"/>
     <use style="fill:#1f77b4;stroke:#1f77b4;" x="108.744152" xlink:href="#mead056e28e" y="259.90179"/>
     <use style="fill:#1f77b4;stroke:#1f77b4;" x="183.512618" xlink:href="#mead056e28e" y="222.031891"/>
     <use style="fill:#1f77b4;stroke:#1f77b4;" x="336.712817" xlink:href="#mead056e28e" y="118.953787"/>
     <use style="fill:#1f77b4;stroke:#1f77b4;" x="300.158889" xlink:href="#mead056e28e" y="149.036535"/>
     <use style="fill:#1f77b4;stroke:#1f77b4;" x="314.115425" xlink:href="#mead056e28e" y="137.561451"/>
     <use style="fill:#1f77b4;stroke:#1f77b4;" x="206.296153" xlink:href="#mead056e28e" y="211.820682"/>
     <use style="fill:#1f77b4;stroke:#1f77b4;" x="148.281513" xlink:href="#mead056e28e" y="240.382433"/>
     <use style="fill:#1f77b4;stroke:#1f77b4;" x="366.135101" xlink:href="#mead056e28e" y="88.645294"/>
     <use style="fill:#1f77b4;stroke:#1f77b4;" x="294.093333" xlink:href="#mead056e28e" y="156.195487"/>
     <use style="fill:#1f77b4;stroke:#1f77b4;" x="325.960705" xlink:href="#mead056e28e" y="127.372453"/>
     <use style="fill:#1f77b4;stroke:#1f77b4;" x="142.258349" xlink:href="#mead056e28e" y="242.389924"/>
     <use style="fill:#1f77b4;stroke:#1f77b4;" x="200.038643" xlink:href="#mead056e28e" y="213.675924"/>
     <use style="fill:#1f77b4;stroke:#1f77b4;" x="217.364601" xlink:href="#mead056e28e" y="205.553264"/>
     <use style="fill:#1f77b4;stroke:#1f77b4;" x="393.441479" xlink:href="#mead056e28e" y="63.291591"/>
     <use style="fill:#1f77b4;stroke:#1f77b4;" x="191.166561" xlink:href="#mead056e28e" y="221.23837"/>
     <use style="fill:#1f77b4;stroke:#1f77b4;" x="396.914362" xlink:href="#mead056e28e" y="55.098247"/>
     <use style="fill:#1f77b4;stroke:#1f77b4;" x="276.463967" xlink:href="#mead056e28e" y="166.816067"/>
     <use style="fill:#1f77b4;stroke:#1f77b4;" x="335.824084" xlink:href="#mead056e28e" y="117.992075"/>
     <use style="fill:#1f77b4;stroke:#1f77b4;" x="267.344509" xlink:href="#mead056e28e" y="174.058609"/>
     <use style="fill:#1f77b4;stroke:#1f77b4;" x="295.56156" xlink:href="#mead056e28e" y="151.967921"/>
     <use style="fill:#1f77b4;stroke:#1f77b4;" x="180.270064" xlink:href="#mead056e28e" y="225.553743"/>
     <use style="fill:#1f77b4;stroke:#1f77b4;" x="86.904588" xlink:href="#mead056e28e" y="267.144303"/>
     <use style="fill:#1f77b4;stroke:#1f77b4;" x="293.661181" xlink:href="#mead056e28e" y="153.702263"/>
     <use style="fill:#1f77b4;stroke:#1f77b4;" x="132.949037" xlink:href="#mead056e28e" y="248.65692"/>
     <use style="fill:#1f77b4;stroke:#1f77b4;" x="140.447483" xlink:href="#mead056e28e" y="243.602993"/>
     <use style="fill:#1f77b4;stroke:#1f77b4;" x="227.160651" xlink:href="#mead056e28e" y="199.659677"/>
     <use style="fill:#1f77b4;stroke:#1f77b4;" x="188.082664" xlink:href="#mead056e28e" y="220.432338"/>
     <use style="fill:#1f77b4;stroke:#1f77b4;" x="300.601278" xlink:href="#mead056e28e" y="148.677999"/>
     <use style="fill:#1f77b4;stroke:#1f77b4;" x="228.426606" xlink:href="#mead056e28e" y="197.947406"/>
     <use style="fill:#1f77b4;stroke:#1f77b4;" x="226.459305" xlink:href="#mead056e28e" y="199.027233"/>
     <use style="fill:#1f77b4;stroke:#1f77b4;" x="291.107535" xlink:href="#mead056e28e" y="156.045629"/>
     <use style="fill:#1f77b4;stroke:#1f77b4;" x="227.540931" xlink:href="#mead056e28e" y="198.470703"/>
     <use style="fill:#1f77b4;stroke:#1f77b4;" x="326.408436" xlink:href="#mead056e28e" y="126.977591"/>
     <use style="fill:#1f77b4;stroke:#1f77b4;" x="120.052472" xlink:href="#mead056e28e" y="255.476356"/>
     <use style="fill:#1f77b4;stroke:#1f77b4;" x="378.436186" xlink:href="#mead056e28e" y="80.878219"/>
     <use style="fill:#1f77b4;stroke:#1f77b4;" x="338.696716" xlink:href="#mead056e28e" y="115.892139"/>
     <use style="fill:#1f77b4;stroke:#1f77b4;" x="288.197099" xlink:href="#mead056e28e" y="158.309594"/>
     <use style="fill:#1f77b4;stroke:#1f77b4;" x="275.456235" xlink:href="#mead056e28e" y="169.502252"/>
     <use style="fill:#1f77b4;stroke:#1f77b4;" x="108.640895" xlink:href="#mead056e28e" y="259.598755"/>
     <use style="fill:#1f77b4;stroke:#1f77b4;" x="258.47365" xlink:href="#mead056e28e" y="179.338224"/>
     <use style="fill:#1f77b4;stroke:#1f77b4;" x="157.684642" xlink:href="#mead056e28e" y="238.810068"/>
     <use style="fill:#1f77b4;stroke:#1f77b4;" x="169.484675" xlink:href="#mead056e28e" y="230.473922"/>
     <use style="fill:#1f77b4;stroke:#1f77b4;" x="222.007849" xlink:href="#mead056e28e" y="201.516409"/>
     <use style="fill:#1f77b4;stroke:#1f77b4;" x="332.939625" xlink:href="#mead056e28e" y="120.379077"/>
     <use style="fill:#1f77b4;stroke:#1f77b4;" x="250.212993" xlink:href="#mead056e28e" y="185.474312"/>
     <use style="fill:#1f77b4;stroke:#1f77b4;" x="219.385407" xlink:href="#mead056e28e" y="203.74745"/>
     <use style="fill:#1f77b4;stroke:#1f77b4;" x="342.090076" xlink:href="#mead056e28e" y="112.740604"/>
     <use style="fill:#1f77b4;stroke:#1f77b4;" x="182.065311" xlink:href="#mead056e28e" y="224.608901"/>
     <use style="fill:#1f77b4;stroke:#1f77b4;" x="111.636746" xlink:href="#mead056e28e" y="255.965028"/>
     <use style="fill:#1f77b4;stroke:#1f77b4;" x="322.897994" xlink:href="#mead056e28e" y="129.301275"/>
     <use style="fill:#1f77b4;stroke:#1f77b4;" x="297.988541" xlink:href="#mead056e28e" y="154.637433"/>
     <use style="fill:#1f77b4;stroke:#1f77b4;" x="350.411619" xlink:href="#mead056e28e" y="105.186874"/>
     <use style="fill:#1f77b4;stroke:#1f77b4;" x="287.929129" xlink:href="#mead056e28e" y="158.026887"/>
     <use style="fill:#1f77b4;stroke:#1f77b4;" x="216.579532" xlink:href="#mead056e28e" y="205.789327"/>
     <use style="fill:#1f77b4;stroke:#1f77b4;" x="89.187572" xlink:href="#mead056e28e" y="266.302873"/>
     <use style="fill:#1f77b4;stroke:#1f77b4;" x="283.815215" xlink:href="#mead056e28e" y="161.934717"/>
     <use style="fill:#1f77b4;stroke:#1f77b4;" x="176.716905" xlink:href="#mead056e28e" y="228.965943"/>
     <use style="fill:#1f77b4;stroke:#1f77b4;" x="388.134077" xlink:href="#mead056e28e" y="66.012584"/>
     <use style="fill:#1f77b4;stroke:#1f77b4;" x="395.595474" xlink:href="#mead056e28e" y="57.727779"/>
     <use style="fill:#1f77b4;stroke:#1f77b4;" x="376.182972" xlink:href="#mead056e28e" y="78.093177"/>
     <use style="fill:#1f77b4;stroke:#1f77b4;" x="279.879675" xlink:href="#mead056e28e" y="163.987811"/>
     <use style="fill:#1f77b4;stroke:#1f77b4;" x="120.783711" xlink:href="#mead056e28e" y="255.514496"/>
     <use style="fill:#1f77b4;stroke:#1f77b4;" x="96.654209" xlink:href="#mead056e28e" y="263.922281"/>
     <use style="fill:#1f77b4;stroke:#1f77b4;" x="144.354211" xlink:href="#mead056e28e" y="243.122376"/>
     <use style="fill:#1f77b4;stroke:#1f77b4;" x="152.390779" xlink:href="#mead056e28e" y="240.655722"/>
     <use style="fill:#1f77b4;stroke:#1f77b4;" x="180.991434" xlink:href="#mead056e28e" y="223.774668"/>
     <use style="fill:#1f77b4;stroke:#1f77b4;" x="318.523572" xlink:href="#mead056e28e" y="134.20658"/>
     <use style="fill:#1f77b4;stroke:#1f77b4;" x="191.117461" xlink:href="#mead056e28e" y="219.270271"/>
     <use style="fill:#1f77b4;stroke:#1f77b4;" x="165.152115" xlink:href="#mead056e28e" y="233.693554"/>
     <use style="fill:#1f77b4;stroke:#1f77b4;" x="394.749111" xlink:href="#mead056e28e" y="59.544867"/>
     <use style="fill:#1f77b4;stroke:#1f77b4;" x="240.339255" xlink:href="#mead056e28e" y="191.119436"/>
     <use style="fill:#1f77b4;stroke:#1f77b4;" x="270.282472" xlink:href="#mead056e28e" y="171.863387"/>
     <use style="fill:#1f77b4;stroke:#1f77b4;" x="332.52876" xlink:href="#mead056e28e" y="121.367246"/>
     <use style="fill:#1f77b4;stroke:#1f77b4;" x="173.968266" xlink:href="#mead056e28e" y="230.049453"/>
     <use style="fill:#1f77b4;stroke:#1f77b4;" x="302.962561" xlink:href="#mead056e28e" y="146.438382"/>
     <use style="fill:#1f77b4;stroke:#1f77b4;" x="315.410375" xlink:href="#mead056e28e" y="140.267767"/>
     <use style="fill:#1f77b4;stroke:#1f77b4;" x="319.465076" xlink:href="#mead056e28e" y="132.791243"/>
     <use style="fill:#1f77b4;stroke:#1f77b4;" x="322.160883" xlink:href="#mead056e28e" y="129.99892"/>
     <use style="fill:#1f77b4;stroke:#1f77b4;" x="238.311844" xlink:href="#mead056e28e" y="192.454867"/>
     <use style="fill:#1f77b4;stroke:#1f77b4;" x="276.81623" xlink:href="#mead056e28e" y="167.412016"/>
     <use style="fill:#1f77b4;stroke:#1f77b4;" x="120.437646" xlink:href="#mead056e28e" y="254.492981"/>
     <use style="fill:#1f77b4;stroke:#1f77b4;" x="98.250895" xlink:href="#mead056e28e" y="263.48568"/>
     <use style="fill:#1f77b4;stroke:#1f77b4;" x="77.940667" xlink:href="#mead056e28e" y="269.589196"/>
     <use style="fill:#1f77b4;stroke:#1f77b4;" x="320.011211" xlink:href="#mead056e28e" y="132.015941"/>
     <use style="fill:#1f77b4;stroke:#1f77b4;" x="150.234826" xlink:href="#mead056e28e" y="242.307571"/>
     <use style="fill:#1f77b4;stroke:#1f77b4;" x="73.832727" xlink:href="#mead056e28e" y="270.919819"/>
     <use style="fill:#1f77b4;stroke:#1f77b4;" x="340.865025" xlink:href="#mead056e28e" y="115.15381"/>
     <use style="fill:#1f77b4;stroke:#1f77b4;" x="334.922545" xlink:href="#mead056e28e" y="118.545569"/>
     <use style="fill:#1f77b4;stroke:#1f77b4;" x="293.209208" xlink:href="#mead056e28e" y="154.989222"/>
     <use style="fill:#1f77b4;stroke:#1f77b4;" x="189.858337" xlink:href="#mead056e28e" y="221.650215"/>
     <use style="fill:#1f77b4;stroke:#1f77b4;" x="205.099159" xlink:href="#mead056e28e" y="210.68586"/>
     <use style="fill:#1f77b4;stroke:#1f77b4;" x="328.82828" xlink:href="#mead056e28e" y="124.055371"/>
     <use style="fill:#1f77b4;stroke:#1f77b4;" x="258.999354" xlink:href="#mead056e28e" y="179.027035"/>
     <use style="fill:#1f77b4;stroke:#1f77b4;" x="141.393105" xlink:href="#mead056e28e" y="246.458634"/>
     <use style="fill:#1f77b4;stroke:#1f77b4;" x="315.986321" xlink:href="#mead056e28e" y="139.937487"/>
     <use style="fill:#1f77b4;stroke:#1f77b4;" x="83.212101" xlink:href="#mead056e28e" y="268.032632"/>
     <use style="fill:#1f77b4;stroke:#1f77b4;" x="97.985943" xlink:href="#mead056e28e" y="263.607353"/>
     <use style="fill:#1f77b4;stroke:#1f77b4;" x="255.662474" xlink:href="#mead056e28e" y="181.173109"/>
     <use style="fill:#1f77b4;stroke:#1f77b4;" x="126.587393" xlink:href="#mead056e28e" y="252.306279"/>
     <use style="fill:#1f77b4;stroke:#1f77b4;" x="287.552561" xlink:href="#mead056e28e" y="160.939969"/>
     <use style="fill:#1f77b4;stroke:#1f77b4;" x="198.661071" xlink:href="#mead056e28e" y="217.053849"/>
     <use style="fill:#1f77b4;stroke:#1f77b4;" x="190.826327" xlink:href="#mead056e28e" y="220.191804"/>
    </g>
   </g>
   <g id="patch_3">
    <path d="M 57.6 307.584 
L 57.6 41.472 
" style="fill:none;stroke:#000000;stroke-linecap:square;stroke-linejoin:miter;stroke-width:0.8;"/>
   </g>
   <g id="patch_4">
    <path d="M 414.72 307.584 
L 414.72 41.472 
" style="fill:none;stroke:#000000;stroke-linecap:square;stroke-linejoin:miter;stroke-width:0.8;"/>
   </g>
   <g id="patch_5">
    <path d="M 57.6 307.584 
L 414.72 307.584 
" style="fill:none;stroke:#000000;stroke-linecap:square;stroke-linejoin:miter;stroke-width:0.8;"/>
   </g>
   <g id="patch_6">
    <path d="M 57.6 41.472 
L 414.72 41.472 
" style="fill:none;stroke:#000000;stroke-linecap:square;stroke-linejoin:miter;stroke-width:0.8;"/>
   </g>
   <g id="legend_1">
    <g id="patch_7">
     <path d="M 64.6 78.82825 
L 144.25625 78.82825 
Q 146.25625 78.82825 146.25625 76.82825 
L 146.25625 48.472 
Q 146.25625 46.472 144.25625 46.472 
L 64.6 46.472 
Q 62.6 46.472 62.6 48.472 
L 62.6 76.82825 
Q 62.6 78.82825 64.6 78.82825 
z
" style="fill:#ffffff;opacity:0.8;stroke:#cccccc;stroke-linejoin:miter;"/>
    </g>
    <g id="line2d_27">
     <path d="M 66.6 54.570437 
L 86.6 54.570437 
" style="fill:none;stroke:#ff0000;stroke-dasharray:5.55,2.4;stroke-dashoffset:0;stroke-width:1.5;"/>
    </g>
    <g id="line2d_28"/>
    <g id="text_15">
     <!-- real data -->
     <defs>
      <path id="DejaVuSans-20"/>
     </defs>
     <g transform="translate(94.6 58.070437)scale(0.1 -0.1)">
      <use xlink:href="#DejaVuSans-72"/>
      <use x="41.082031" xlink:href="#DejaVuSans-65"/>
      <use x="102.605469" xlink:href="#DejaVuSans-61"/>
      <use x="163.884766" xlink:href="#DejaVuSans-6c"/>
      <use x="191.667969" xlink:href="#DejaVuSans-20"/>
      <use x="223.455078" xlink:href="#DejaVuSans-64"/>
      <use x="286.931641" xlink:href="#DejaVuSans-61"/>
      <use x="348.210938" xlink:href="#DejaVuSans-74"/>
      <use x="387.419922" xlink:href="#DejaVuSans-61"/>
     </g>
    </g>
    <g id="line2d_29"/>
    <g id="line2d_30">
     <g>
      <use style="fill:#1f77b4;stroke:#1f77b4;" x="76.6" xlink:href="#mead056e28e" y="69.248562"/>
     </g>
    </g>
    <g id="text_16">
     <!-- predicted -->
     <defs>
      <path d="M 18.109375 8.203125 
L 18.109375 -20.796875 
L 9.078125 -20.796875 
L 9.078125 54.6875 
L 18.109375 54.6875 
L 18.109375 46.390625 
Q 20.953125 51.265625 25.265625 53.625 
Q 29.59375 56 35.59375 56 
Q 45.5625 56 51.78125 48.09375 
Q 58.015625 40.1875 58.015625 27.296875 
Q 58.015625 14.40625 51.78125 6.484375 
Q 45.5625 -1.421875 35.59375 -1.421875 
Q 29.59375 -1.421875 25.265625 0.953125 
Q 20.953125 3.328125 18.109375 8.203125 
z
M 48.6875 27.296875 
Q 48.6875 37.203125 44.609375 42.84375 
Q 40.53125 48.484375 33.40625 48.484375 
Q 26.265625 48.484375 22.1875 42.84375 
Q 18.109375 37.203125 18.109375 27.296875 
Q 18.109375 17.390625 22.1875 11.75 
Q 26.265625 6.109375 33.40625 6.109375 
Q 40.53125 6.109375 44.609375 11.75 
Q 48.6875 17.390625 48.6875 27.296875 
z
" id="DejaVuSans-70"/>
     </defs>
     <g transform="translate(94.6 72.748562)scale(0.1 -0.1)">
      <use xlink:href="#DejaVuSans-70"/>
      <use x="63.476562" xlink:href="#DejaVuSans-72"/>
      <use x="104.558594" xlink:href="#DejaVuSans-65"/>
      <use x="166.082031" xlink:href="#DejaVuSans-64"/>
      <use x="229.558594" xlink:href="#DejaVuSans-69"/>
      <use x="257.341797" xlink:href="#DejaVuSans-63"/>
      <use x="312.322266" xlink:href="#DejaVuSans-74"/>
      <use x="351.53125" xlink:href="#DejaVuSans-65"/>
      <use x="413.054688" xlink:href="#DejaVuSans-64"/>
     </g>
    </g>
   </g>
  </g>
 </g>
 <defs>
  <clipPath id="pb58495c11c">
   <rect height="266.112" width="357.12" x="57.6" y="41.472"/>
  </clipPath>
 </defs>
</svg>
