<?xml version="1.0" encoding="utf-8" standalone="no"?>
<!DOCTYPE svg PUBLIC "-//W3C//DTD SVG 1.1//EN"
  "http://www.w3.org/Graphics/SVG/1.1/DTD/svg11.dtd">
<!-- Created with matplotlib (http://matplotlib.org/) -->
<svg height="345pt" version="1.1" viewBox="0 0 460 345" width="460pt" xmlns="http://www.w3.org/2000/svg" xmlns:xlink="http://www.w3.org/1999/xlink">
 <defs>
  <style type="text/css">
*{stroke-linecap:butt;stroke-linejoin:round;}
  </style>
 </defs>
 <g id="figure_1">
  <g id="patch_1">
   <path d="M 0 345.6 
L 460.8 345.6 
L 460.8 0 
L 0 0 
z
" style="fill:#ffffff;"/>
  </g>
  <g id="axes_1">
   <g id="patch_2">
    <path d="M 57.6 307.584 
L 414.72 307.584 
L 414.72 41.472 
L 57.6 41.472 
z
" style="fill:#ffffff;"/>
   </g>
   <g id="matplotlib.axis_1">
    <g id="xtick_1">
     <g id="line2d_1">
      <path clip-path="url(#p209b7b9240)" d="M 93.902958 307.584 
L 93.902958 41.472 
" style="fill:none;stroke:#b0b0b0;stroke-linecap:square;stroke-width:0.8;"/>
     </g>
     <g id="line2d_2">
      <defs>
       <path d="M 0 0 
L 0 3.5 
" id="m42fe3c81a0" style="stroke:#000000;stroke-width:0.8;"/>
      </defs>
      <g>
       <use style="stroke:#000000;stroke-width:0.8;" x="93.902958" xlink:href="#m42fe3c81a0" y="307.584"/>
      </g>
     </g>
     <g id="text_1">
      <!-- 0.3 -->
      <defs>
       <path d="M 31.78125 66.40625 
Q 24.171875 66.40625 20.328125 58.90625 
Q 16.5 51.421875 16.5 36.375 
Q 16.5 21.390625 20.328125 13.890625 
Q 24.171875 6.390625 31.78125 6.390625 
Q 39.453125 6.390625 43.28125 13.890625 
Q 47.125 21.390625 47.125 36.375 
Q 47.125 51.421875 43.28125 58.90625 
Q 39.453125 66.40625 31.78125 66.40625 
z
M 31.78125 74.21875 
Q 44.046875 74.21875 50.515625 64.515625 
Q 56.984375 54.828125 56.984375 36.375 
Q 56.984375 17.96875 50.515625 8.265625 
Q 44.046875 -1.421875 31.78125 -1.421875 
Q 19.53125 -1.421875 13.0625 8.265625 
Q 6.59375 17.96875 6.59375 36.375 
Q 6.59375 54.828125 13.0625 64.515625 
Q 19.53125 74.21875 31.78125 74.21875 
z
" id="DejaVuSans-30"/>
       <path d="M 10.6875 12.40625 
L 21 12.40625 
L 21 0 
L 10.6875 0 
z
" id="DejaVuSans-2e"/>
       <path d="M 40.578125 39.3125 
Q 47.65625 37.796875 51.625 33 
Q 55.609375 28.21875 55.609375 21.1875 
Q 55.609375 10.40625 48.1875 4.484375 
Q 40.765625 -1.421875 27.09375 -1.421875 
Q 22.515625 -1.421875 17.65625 -0.515625 
Q 12.796875 0.390625 7.625 2.203125 
L 7.625 11.71875 
Q 11.71875 9.328125 16.59375 8.109375 
Q 21.484375 6.890625 26.8125 6.890625 
Q 36.078125 6.890625 40.9375 10.546875 
Q 45.796875 14.203125 45.796875 21.1875 
Q 45.796875 27.640625 41.28125 31.265625 
Q 36.765625 34.90625 28.71875 34.90625 
L 20.21875 34.90625 
L 20.21875 43.015625 
L 29.109375 43.015625 
Q 36.375 43.015625 40.234375 45.921875 
Q 44.09375 48.828125 44.09375 54.296875 
Q 44.09375 59.90625 40.109375 62.90625 
Q 36.140625 65.921875 28.71875 65.921875 
Q 24.65625 65.921875 20.015625 65.03125 
Q 15.375 64.15625 9.8125 62.3125 
L 9.8125 71.09375 
Q 15.4375 72.65625 20.34375 73.4375 
Q 25.25 74.21875 29.59375 74.21875 
Q 40.828125 74.21875 47.359375 69.109375 
Q 53.90625 64.015625 53.90625 55.328125 
Q 53.90625 49.265625 50.4375 45.09375 
Q 46.96875 40.921875 40.578125 39.3125 
z
" id="DejaVuSans-33"/>
      </defs>
      <g transform="translate(85.951396 322.182437)scale(0.1 -0.1)">
       <use xlink:href="#DejaVuSans-30"/>
       <use x="63.623047" xlink:href="#DejaVuSans-2e"/>
       <use x="95.410156" xlink:href="#DejaVuSans-33"/>
      </g>
     </g>
    </g>
    <g id="xtick_2">
     <g id="line2d_3">
      <path clip-path="url(#p209b7b9240)" d="M 138.171792 307.584 
L 138.171792 41.472 
" style="fill:none;stroke:#b0b0b0;stroke-linecap:square;stroke-width:0.8;"/>
     </g>
     <g id="line2d_4">
      <g>
       <use style="stroke:#000000;stroke-width:0.8;" x="138.171792" xlink:href="#m42fe3c81a0" y="307.584"/>
      </g>
     </g>
     <g id="text_2">
      <!-- 0.4 -->
      <defs>
       <path d="M 37.796875 64.3125 
L 12.890625 25.390625 
L 37.796875 25.390625 
z
M 35.203125 72.90625 
L 47.609375 72.90625 
L 47.609375 25.390625 
L 58.015625 25.390625 
L 58.015625 17.1875 
L 47.609375 17.1875 
L 47.609375 0 
L 37.796875 0 
L 37.796875 17.1875 
L 4.890625 17.1875 
L 4.890625 26.703125 
z
" id="DejaVuSans-34"/>
      </defs>
      <g transform="translate(130.22023 322.182437)scale(0.1 -0.1)">
       <use xlink:href="#DejaVuSans-30"/>
       <use x="63.623047" xlink:href="#DejaVuSans-2e"/>
       <use x="95.410156" xlink:href="#DejaVuSans-34"/>
      </g>
     </g>
    </g>
    <g id="xtick_3">
     <g id="line2d_5">
      <path clip-path="url(#p209b7b9240)" d="M 182.440626 307.584 
L 182.440626 41.472 
" style="fill:none;stroke:#b0b0b0;stroke-linecap:square;stroke-width:0.8;"/>
     </g>
     <g id="line2d_6">
      <g>
       <use style="stroke:#000000;stroke-width:0.8;" x="182.440626" xlink:href="#m42fe3c81a0" y="307.584"/>
      </g>
     </g>
     <g id="text_3">
      <!-- 0.5 -->
      <defs>
       <path d="M 10.796875 72.90625 
L 49.515625 72.90625 
L 49.515625 64.59375 
L 19.828125 64.59375 
L 19.828125 46.734375 
Q 21.96875 47.46875 24.109375 47.828125 
Q 26.265625 48.1875 28.421875 48.1875 
Q 40.625 48.1875 47.75 41.5 
Q 54.890625 34.8125 54.890625 23.390625 
Q 54.890625 11.625 47.5625 5.09375 
Q 40.234375 -1.421875 26.90625 -1.421875 
Q 22.3125 -1.421875 17.546875 -0.640625 
Q 12.796875 0.140625 7.71875 1.703125 
L 7.71875 11.625 
Q 12.109375 9.234375 16.796875 8.0625 
Q 21.484375 6.890625 26.703125 6.890625 
Q 35.15625 6.890625 40.078125 11.328125 
Q 45.015625 15.765625 45.015625 23.390625 
Q 45.015625 31 40.078125 35.4375 
Q 35.15625 39.890625 26.703125 39.890625 
Q 22.75 39.890625 18.8125 39.015625 
Q 14.890625 38.140625 10.796875 36.28125 
z
" id="DejaVuSans-35"/>
      </defs>
      <g transform="translate(174.489063 322.182437)scale(0.1 -0.1)">
       <use xlink:href="#DejaVuSans-30"/>
       <use x="63.623047" xlink:href="#DejaVuSans-2e"/>
       <use x="95.410156" xlink:href="#DejaVuSans-35"/>
      </g>
     </g>
    </g>
    <g id="xtick_4">
     <g id="line2d_7">
      <path clip-path="url(#p209b7b9240)" d="M 226.709459 307.584 
L 226.709459 41.472 
" style="fill:none;stroke:#b0b0b0;stroke-linecap:square;stroke-width:0.8;"/>
     </g>
     <g id="line2d_8">
      <g>
       <use style="stroke:#000000;stroke-width:0.8;" x="226.709459" xlink:href="#m42fe3c81a0" y="307.584"/>
      </g>
     </g>
     <g id="text_4">
      <!-- 0.6 -->
      <defs>
       <path d="M 33.015625 40.375 
Q 26.375 40.375 22.484375 35.828125 
Q 18.609375 31.296875 18.609375 23.390625 
Q 18.609375 15.53125 22.484375 10.953125 
Q 26.375 6.390625 33.015625 6.390625 
Q 39.65625 6.390625 43.53125 10.953125 
Q 47.40625 15.53125 47.40625 23.390625 
Q 47.40625 31.296875 43.53125 35.828125 
Q 39.65625 40.375 33.015625 40.375 
z
M 52.59375 71.296875 
L 52.59375 62.3125 
Q 48.875 64.0625 45.09375 64.984375 
Q 41.3125 65.921875 37.59375 65.921875 
Q 27.828125 65.921875 22.671875 59.328125 
Q 17.53125 52.734375 16.796875 39.40625 
Q 19.671875 43.65625 24.015625 45.921875 
Q 28.375 48.1875 33.59375 48.1875 
Q 44.578125 48.1875 50.953125 41.515625 
Q 57.328125 34.859375 57.328125 23.390625 
Q 57.328125 12.15625 50.6875 5.359375 
Q 44.046875 -1.421875 33.015625 -1.421875 
Q 20.359375 -1.421875 13.671875 8.265625 
Q 6.984375 17.96875 6.984375 36.375 
Q 6.984375 53.65625 15.1875 63.9375 
Q 23.390625 74.21875 37.203125 74.21875 
Q 40.921875 74.21875 44.703125 73.484375 
Q 48.484375 72.75 52.59375 71.296875 
z
" id="DejaVuSans-36"/>
      </defs>
      <g transform="translate(218.757897 322.182437)scale(0.1 -0.1)">
       <use xlink:href="#DejaVuSans-30"/>
       <use x="63.623047" xlink:href="#DejaVuSans-2e"/>
       <use x="95.410156" xlink:href="#DejaVuSans-36"/>
      </g>
     </g>
    </g>
    <g id="xtick_5">
     <g id="line2d_9">
      <path clip-path="url(#p209b7b9240)" d="M 270.978293 307.584 
L 270.978293 41.472 
" style="fill:none;stroke:#b0b0b0;stroke-linecap:square;stroke-width:0.8;"/>
     </g>
     <g id="line2d_10">
      <g>
       <use style="stroke:#000000;stroke-width:0.8;" x="270.978293" xlink:href="#m42fe3c81a0" y="307.584"/>
      </g>
     </g>
     <g id="text_5">
      <!-- 0.7 -->
      <defs>
       <path d="M 8.203125 72.90625 
L 55.078125 72.90625 
L 55.078125 68.703125 
L 28.609375 0 
L 18.3125 0 
L 43.21875 64.59375 
L 8.203125 64.59375 
z
" id="DejaVuSans-37"/>
      </defs>
      <g transform="translate(263.02673 322.182437)scale(0.1 -0.1)">
       <use xlink:href="#DejaVuSans-30"/>
       <use x="63.623047" xlink:href="#DejaVuSans-2e"/>
       <use x="95.410156" xlink:href="#DejaVuSans-37"/>
      </g>
     </g>
    </g>
    <g id="xtick_6">
     <g id="line2d_11">
      <path clip-path="url(#p209b7b9240)" d="M 315.247126 307.584 
L 315.247126 41.472 
" style="fill:none;stroke:#b0b0b0;stroke-linecap:square;stroke-width:0.8;"/>
     </g>
     <g id="line2d_12">
      <g>
       <use style="stroke:#000000;stroke-width:0.8;" x="315.247126" xlink:href="#m42fe3c81a0" y="307.584"/>
      </g>
     </g>
     <g id="text_6">
      <!-- 0.8 -->
      <defs>
       <path d="M 31.78125 34.625 
Q 24.75 34.625 20.71875 30.859375 
Q 16.703125 27.09375 16.703125 20.515625 
Q 16.703125 13.921875 20.71875 10.15625 
Q 24.75 6.390625 31.78125 6.390625 
Q 38.8125 6.390625 42.859375 10.171875 
Q 46.921875 13.96875 46.921875 20.515625 
Q 46.921875 27.09375 42.890625 30.859375 
Q 38.875 34.625 31.78125 34.625 
z
M 21.921875 38.8125 
Q 15.578125 40.375 12.03125 44.71875 
Q 8.5 49.078125 8.5 55.328125 
Q 8.5 64.0625 14.71875 69.140625 
Q 20.953125 74.21875 31.78125 74.21875 
Q 42.671875 74.21875 48.875 69.140625 
Q 55.078125 64.0625 55.078125 55.328125 
Q 55.078125 49.078125 51.53125 44.71875 
Q 48 40.375 41.703125 38.8125 
Q 48.828125 37.15625 52.796875 32.3125 
Q 56.78125 27.484375 56.78125 20.515625 
Q 56.78125 9.90625 50.3125 4.234375 
Q 43.84375 -1.421875 31.78125 -1.421875 
Q 19.734375 -1.421875 13.25 4.234375 
Q 6.78125 9.90625 6.78125 20.515625 
Q 6.78125 27.484375 10.78125 32.3125 
Q 14.796875 37.15625 21.921875 38.8125 
z
M 18.3125 54.390625 
Q 18.3125 48.734375 21.84375 45.5625 
Q 25.390625 42.390625 31.78125 42.390625 
Q 38.140625 42.390625 41.71875 45.5625 
Q 45.3125 48.734375 45.3125 54.390625 
Q 45.3125 60.0625 41.71875 63.234375 
Q 38.140625 66.40625 31.78125 66.40625 
Q 25.390625 66.40625 21.84375 63.234375 
Q 18.3125 60.0625 18.3125 54.390625 
z
" id="DejaVuSans-38"/>
      </defs>
      <g transform="translate(307.295564 322.182437)scale(0.1 -0.1)">
       <use xlink:href="#DejaVuSans-30"/>
       <use x="63.623047" xlink:href="#DejaVuSans-2e"/>
       <use x="95.410156" xlink:href="#DejaVuSans-38"/>
      </g>
     </g>
    </g>
    <g id="xtick_7">
     <g id="line2d_13">
      <path clip-path="url(#p209b7b9240)" d="M 359.51596 307.584 
L 359.51596 41.472 
" style="fill:none;stroke:#b0b0b0;stroke-linecap:square;stroke-width:0.8;"/>
     </g>
     <g id="line2d_14">
      <g>
       <use style="stroke:#000000;stroke-width:0.8;" x="359.51596" xlink:href="#m42fe3c81a0" y="307.584"/>
      </g>
     </g>
     <g id="text_7">
      <!-- 0.9 -->
      <defs>
       <path d="M 10.984375 1.515625 
L 10.984375 10.5 
Q 14.703125 8.734375 18.5 7.8125 
Q 22.3125 6.890625 25.984375 6.890625 
Q 35.75 6.890625 40.890625 13.453125 
Q 46.046875 20.015625 46.78125 33.40625 
Q 43.953125 29.203125 39.59375 26.953125 
Q 35.25 24.703125 29.984375 24.703125 
Q 19.046875 24.703125 12.671875 31.3125 
Q 6.296875 37.9375 6.296875 49.421875 
Q 6.296875 60.640625 12.9375 67.421875 
Q 19.578125 74.21875 30.609375 74.21875 
Q 43.265625 74.21875 49.921875 64.515625 
Q 56.59375 54.828125 56.59375 36.375 
Q 56.59375 19.140625 48.40625 8.859375 
Q 40.234375 -1.421875 26.421875 -1.421875 
Q 22.703125 -1.421875 18.890625 -0.6875 
Q 15.09375 0.046875 10.984375 1.515625 
z
M 30.609375 32.421875 
Q 37.25 32.421875 41.125 36.953125 
Q 45.015625 41.5 45.015625 49.421875 
Q 45.015625 57.28125 41.125 61.84375 
Q 37.25 66.40625 30.609375 66.40625 
Q 23.96875 66.40625 20.09375 61.84375 
Q 16.21875 57.28125 16.21875 49.421875 
Q 16.21875 41.5 20.09375 36.953125 
Q 23.96875 32.421875 30.609375 32.421875 
z
" id="DejaVuSans-39"/>
      </defs>
      <g transform="translate(351.564398 322.182437)scale(0.1 -0.1)">
       <use xlink:href="#DejaVuSans-30"/>
       <use x="63.623047" xlink:href="#DejaVuSans-2e"/>
       <use x="95.410156" xlink:href="#DejaVuSans-39"/>
      </g>
     </g>
    </g>
    <g id="xtick_8">
     <g id="line2d_15">
      <path clip-path="url(#p209b7b9240)" d="M 403.784794 307.584 
L 403.784794 41.472 
" style="fill:none;stroke:#b0b0b0;stroke-linecap:square;stroke-width:0.8;"/>
     </g>
     <g id="line2d_16">
      <g>
       <use style="stroke:#000000;stroke-width:0.8;" x="403.784794" xlink:href="#m42fe3c81a0" y="307.584"/>
      </g>
     </g>
     <g id="text_8">
      <!-- 1.0 -->
      <defs>
       <path d="M 12.40625 8.296875 
L 28.515625 8.296875 
L 28.515625 63.921875 
L 10.984375 60.40625 
L 10.984375 69.390625 
L 28.421875 72.90625 
L 38.28125 72.90625 
L 38.28125 8.296875 
L 54.390625 8.296875 
L 54.390625 0 
L 12.40625 0 
z
" id="DejaVuSans-31"/>
      </defs>
      <g transform="translate(395.833231 322.182437)scale(0.1 -0.1)">
       <use xlink:href="#DejaVuSans-31"/>
       <use x="63.623047" xlink:href="#DejaVuSans-2e"/>
       <use x="95.410156" xlink:href="#DejaVuSans-30"/>
      </g>
     </g>
    </g>
    <g id="text_9">
     <!-- Real -->
     <defs>
      <path d="M 44.390625 34.1875 
Q 47.5625 33.109375 50.5625 29.59375 
Q 53.5625 26.078125 56.59375 19.921875 
L 66.609375 0 
L 56 0 
L 46.6875 18.703125 
Q 43.0625 26.03125 39.671875 28.421875 
Q 36.28125 30.8125 30.421875 30.8125 
L 19.671875 30.8125 
L 19.671875 0 
L 9.8125 0 
L 9.8125 72.90625 
L 32.078125 72.90625 
Q 44.578125 72.90625 50.734375 67.671875 
Q 56.890625 62.453125 56.890625 51.90625 
Q 56.890625 45.015625 53.6875 40.46875 
Q 50.484375 35.9375 44.390625 34.1875 
z
M 19.671875 64.796875 
L 19.671875 38.921875 
L 32.078125 38.921875 
Q 39.203125 38.921875 42.84375 42.21875 
Q 46.484375 45.515625 46.484375 51.90625 
Q 46.484375 58.296875 42.84375 61.546875 
Q 39.203125 64.796875 32.078125 64.796875 
z
" id="DejaVuSans-52"/>
      <path d="M 56.203125 29.59375 
L 56.203125 25.203125 
L 14.890625 25.203125 
Q 15.484375 15.921875 20.484375 11.0625 
Q 25.484375 6.203125 34.421875 6.203125 
Q 39.59375 6.203125 44.453125 7.46875 
Q 49.3125 8.734375 54.109375 11.28125 
L 54.109375 2.78125 
Q 49.265625 0.734375 44.1875 -0.34375 
Q 39.109375 -1.421875 33.890625 -1.421875 
Q 20.796875 -1.421875 13.15625 6.1875 
Q 5.515625 13.8125 5.515625 26.8125 
Q 5.515625 40.234375 12.765625 48.109375 
Q 20.015625 56 32.328125 56 
Q 43.359375 56 49.78125 48.890625 
Q 56.203125 41.796875 56.203125 29.59375 
z
M 47.21875 32.234375 
Q 47.125 39.59375 43.09375 43.984375 
Q 39.0625 48.390625 32.421875 48.390625 
Q 24.90625 48.390625 20.390625 44.140625 
Q 15.875 39.890625 15.1875 32.171875 
z
" id="DejaVuSans-65"/>
      <path d="M 34.28125 27.484375 
Q 23.390625 27.484375 19.1875 25 
Q 14.984375 22.515625 14.984375 16.5 
Q 14.984375 11.71875 18.140625 8.90625 
Q 21.296875 6.109375 26.703125 6.109375 
Q 34.1875 6.109375 38.703125 11.40625 
Q 43.21875 16.703125 43.21875 25.484375 
L 43.21875 27.484375 
z
M 52.203125 31.203125 
L 52.203125 0 
L 43.21875 0 
L 43.21875 8.296875 
Q 40.140625 3.328125 35.546875 0.953125 
Q 30.953125 -1.421875 24.3125 -1.421875 
Q 15.921875 -1.421875 10.953125 3.296875 
Q 6 8.015625 6 15.921875 
Q 6 25.140625 12.171875 29.828125 
Q 18.359375 34.515625 30.609375 34.515625 
L 43.21875 34.515625 
L 43.21875 35.40625 
Q 43.21875 41.609375 39.140625 45 
Q 35.0625 48.390625 27.6875 48.390625 
Q 23 48.390625 18.546875 47.265625 
Q 14.109375 46.140625 10.015625 43.890625 
L 10.015625 52.203125 
Q 14.9375 54.109375 19.578125 55.046875 
Q 24.21875 56 28.609375 56 
Q 40.484375 56 46.34375 49.84375 
Q 52.203125 43.703125 52.203125 31.203125 
z
" id="DejaVuSans-61"/>
      <path d="M 9.421875 75.984375 
L 18.40625 75.984375 
L 18.40625 0 
L 9.421875 0 
z
" id="DejaVuSans-6c"/>
     </defs>
     <g transform="translate(225.159219 335.860562)scale(0.1 -0.1)">
      <use xlink:href="#DejaVuSans-52"/>
      <use x="69.419922" xlink:href="#DejaVuSans-65"/>
      <use x="130.943359" xlink:href="#DejaVuSans-61"/>
      <use x="192.222656" xlink:href="#DejaVuSans-6c"/>
     </g>
    </g>
   </g>
   <g id="matplotlib.axis_2">
    <g id="ytick_1">
     <g id="line2d_17">
      <path clip-path="url(#p209b7b9240)" d="M 57.6 255.596979 
L 414.72 255.596979 
" style="fill:none;stroke:#b0b0b0;stroke-linecap:square;stroke-width:0.8;"/>
     </g>
     <g id="line2d_18">
      <defs>
       <path d="M 0 0 
L -3.5 0 
" id="m09073a4925" style="stroke:#000000;stroke-width:0.8;"/>
      </defs>
      <g>
       <use style="stroke:#000000;stroke-width:0.8;" x="57.6" xlink:href="#m09073a4925" y="255.596979"/>
      </g>
     </g>
     <g id="text_10">
      <!-- 0.4 -->
      <g transform="translate(34.696875 259.396198)scale(0.1 -0.1)">
       <use xlink:href="#DejaVuSans-30"/>
       <use x="63.623047" xlink:href="#DejaVuSans-2e"/>
       <use x="95.410156" xlink:href="#DejaVuSans-34"/>
      </g>
     </g>
    </g>
    <g id="ytick_2">
     <g id="line2d_19">
      <path clip-path="url(#p209b7b9240)" d="M 57.6 200.702524 
L 414.72 200.702524 
" style="fill:none;stroke:#b0b0b0;stroke-linecap:square;stroke-width:0.8;"/>
     </g>
     <g id="line2d_20">
      <g>
       <use style="stroke:#000000;stroke-width:0.8;" x="57.6" xlink:href="#m09073a4925" y="200.702524"/>
      </g>
     </g>
     <g id="text_11">
      <!-- 0.6 -->
      <g transform="translate(34.696875 204.501743)scale(0.1 -0.1)">
       <use xlink:href="#DejaVuSans-30"/>
       <use x="63.623047" xlink:href="#DejaVuSans-2e"/>
       <use x="95.410156" xlink:href="#DejaVuSans-36"/>
      </g>
     </g>
    </g>
    <g id="ytick_3">
     <g id="line2d_21">
      <path clip-path="url(#p209b7b9240)" d="M 57.6 145.808069 
L 414.72 145.808069 
" style="fill:none;stroke:#b0b0b0;stroke-linecap:square;stroke-width:0.8;"/>
     </g>
     <g id="line2d_22">
      <g>
       <use style="stroke:#000000;stroke-width:0.8;" x="57.6" xlink:href="#m09073a4925" y="145.808069"/>
      </g>
     </g>
     <g id="text_12">
      <!-- 0.8 -->
      <g transform="translate(34.696875 149.607288)scale(0.1 -0.1)">
       <use xlink:href="#DejaVuSans-30"/>
       <use x="63.623047" xlink:href="#DejaVuSans-2e"/>
       <use x="95.410156" xlink:href="#DejaVuSans-38"/>
      </g>
     </g>
    </g>
    <g id="ytick_4">
     <g id="line2d_23">
      <path clip-path="url(#p209b7b9240)" d="M 57.6 90.913614 
L 414.72 90.913614 
" style="fill:none;stroke:#b0b0b0;stroke-linecap:square;stroke-width:0.8;"/>
     </g>
     <g id="line2d_24">
      <g>
       <use style="stroke:#000000;stroke-width:0.8;" x="57.6" xlink:href="#m09073a4925" y="90.913614"/>
      </g>
     </g>
     <g id="text_13">
      <!-- 1.0 -->
      <g transform="translate(34.696875 94.712833)scale(0.1 -0.1)">
       <use xlink:href="#DejaVuSans-31"/>
       <use x="63.623047" xlink:href="#DejaVuSans-2e"/>
       <use x="95.410156" xlink:href="#DejaVuSans-30"/>
      </g>
     </g>
    </g>
    <g id="text_14">
     <!-- Predicted -->
     <defs>
      <path d="M 19.671875 64.796875 
L 19.671875 37.40625 
L 32.078125 37.40625 
Q 38.96875 37.40625 42.71875 40.96875 
Q 46.484375 44.53125 46.484375 51.125 
Q 46.484375 57.671875 42.71875 61.234375 
Q 38.96875 64.796875 32.078125 64.796875 
z
M 9.8125 72.90625 
L 32.078125 72.90625 
Q 44.34375 72.90625 50.609375 67.359375 
Q 56.890625 61.8125 56.890625 51.125 
Q 56.890625 40.328125 50.609375 34.8125 
Q 44.34375 29.296875 32.078125 29.296875 
L 19.671875 29.296875 
L 19.671875 0 
L 9.8125 0 
z
" id="DejaVuSans-50"/>
      <path d="M 41.109375 46.296875 
Q 39.59375 47.171875 37.8125 47.578125 
Q 36.03125 48 33.890625 48 
Q 26.265625 48 22.1875 43.046875 
Q 18.109375 38.09375 18.109375 28.8125 
L 18.109375 0 
L 9.078125 0 
L 9.078125 54.6875 
L 18.109375 54.6875 
L 18.109375 46.1875 
Q 20.953125 51.171875 25.484375 53.578125 
Q 30.03125 56 36.53125 56 
Q 37.453125 56 38.578125 55.875 
Q 39.703125 55.765625 41.0625 55.515625 
z
" id="DejaVuSans-72"/>
      <path d="M 45.40625 46.390625 
L 45.40625 75.984375 
L 54.390625 75.984375 
L 54.390625 0 
L 45.40625 0 
L 45.40625 8.203125 
Q 42.578125 3.328125 38.25 0.953125 
Q 33.9375 -1.421875 27.875 -1.421875 
Q 17.96875 -1.421875 11.734375 6.484375 
Q 5.515625 14.40625 5.515625 27.296875 
Q 5.515625 40.1875 11.734375 48.09375 
Q 17.96875 56 27.875 56 
Q 33.9375 56 38.25 53.625 
Q 42.578125 51.265625 45.40625 46.390625 
z
M 14.796875 27.296875 
Q 14.796875 17.390625 18.875 11.75 
Q 22.953125 6.109375 30.078125 6.109375 
Q 37.203125 6.109375 41.296875 11.75 
Q 45.40625 17.390625 45.40625 27.296875 
Q 45.40625 37.203125 41.296875 42.84375 
Q 37.203125 48.484375 30.078125 48.484375 
Q 22.953125 48.484375 18.875 42.84375 
Q 14.796875 37.203125 14.796875 27.296875 
z
" id="DejaVuSans-64"/>
      <path d="M 9.421875 54.6875 
L 18.40625 54.6875 
L 18.40625 0 
L 9.421875 0 
z
M 9.421875 75.984375 
L 18.40625 75.984375 
L 18.40625 64.59375 
L 9.421875 64.59375 
z
" id="DejaVuSans-69"/>
      <path d="M 48.78125 52.59375 
L 48.78125 44.1875 
Q 44.96875 46.296875 41.140625 47.34375 
Q 37.3125 48.390625 33.40625 48.390625 
Q 24.65625 48.390625 19.8125 42.84375 
Q 14.984375 37.3125 14.984375 27.296875 
Q 14.984375 17.28125 19.8125 11.734375 
Q 24.65625 6.203125 33.40625 6.203125 
Q 37.3125 6.203125 41.140625 7.25 
Q 44.96875 8.296875 48.78125 10.40625 
L 48.78125 2.09375 
Q 45.015625 0.34375 40.984375 -0.53125 
Q 36.96875 -1.421875 32.421875 -1.421875 
Q 20.0625 -1.421875 12.78125 6.34375 
Q 5.515625 14.109375 5.515625 27.296875 
Q 5.515625 40.671875 12.859375 48.328125 
Q 20.21875 56 33.015625 56 
Q 37.15625 56 41.109375 55.140625 
Q 45.0625 54.296875 48.78125 52.59375 
z
" id="DejaVuSans-63"/>
      <path d="M 18.3125 70.21875 
L 18.3125 54.6875 
L 36.8125 54.6875 
L 36.8125 47.703125 
L 18.3125 47.703125 
L 18.3125 18.015625 
Q 18.3125 11.328125 20.140625 9.421875 
Q 21.96875 7.515625 27.59375 7.515625 
L 36.8125 7.515625 
L 36.8125 0 
L 27.59375 0 
Q 17.1875 0 13.234375 3.875 
Q 9.28125 7.765625 9.28125 18.015625 
L 9.28125 47.703125 
L 2.6875 47.703125 
L 2.6875 54.6875 
L 9.28125 54.6875 
L 9.28125 70.21875 
z
" id="DejaVuSans-74"/>
     </defs>
     <g transform="translate(28.617187 198.195969)rotate(-90)scale(0.1 -0.1)">
      <use xlink:href="#DejaVuSans-50"/>
      <use x="60.287109" xlink:href="#DejaVuSans-72"/>
      <use x="101.369141" xlink:href="#DejaVuSans-65"/>
      <use x="162.892578" xlink:href="#DejaVuSans-64"/>
      <use x="226.369141" xlink:href="#DejaVuSans-69"/>
      <use x="254.152344" xlink:href="#DejaVuSans-63"/>
      <use x="309.132812" xlink:href="#DejaVuSans-74"/>
      <use x="348.341797" xlink:href="#DejaVuSans-65"/>
      <use x="409.865234" xlink:href="#DejaVuSans-64"/>
     </g>
    </g>
   </g>
   <g id="line2d_25">
    <path clip-path="url(#p209b7b9240)" d="M 268.495497 174.794661 
L 111.320548 272.245085 
L 111.320548 272.245085 
L 111.320548 272.245085 
L 395.110198 96.291971 
L 224.792348 201.891157 
L 224.792348 201.891157 
L 100.717564 278.819067 
L 100.717564 278.819067 
L 100.717564 278.819067 
L 313.239452 147.052852 
L 131.521924 259.71998 
L 131.521924 259.71998 
L 83.89693 289.248069 
L 83.89693 289.248069 
L 83.89693 289.248069 
L 396.314072 95.545554 
L 111.719917 271.997471 
L 111.719917 271.997471 
L 75.647008 294.363123 
L 75.647008 294.363123 
L 75.647008 294.363123 
L 394.576113 96.62311 
L 360.100538 117.998396 
L 360.100538 117.998396 
L 73.832727 295.488 
L 344.561472 127.63281 
L 344.561472 127.63281 
L 375.569653 108.407352 
L 375.569653 108.407352 
L 375.569653 108.407352 
L 90.813592 284.959653 
L 145.66571 250.950657 
L 145.66571 250.950657 
L 390.726487 99.009926 
L 365.135541 114.876631 
L 365.135541 114.876631 
L 82.15719 290.32673 
L 316.418946 145.081526 
L 316.418946 145.081526 
L 378.096139 106.840899 
L 332.980692 134.813038 
L 332.980692 134.813038 
L 133.344636 258.589876 
L 326.063607 139.101716 
L 326.063607 139.101716 
L 353.024476 122.385642 
L 353.024476 122.385642 
L 353.024476 122.385642 
L 254.15173 183.687975 
L 254.15173 183.687975 
L 254.15173 183.687975 
L 398.487273 94.198143 
L 369.821929 111.971012 
L 369.821929 111.971012 
L 82.208854 290.294697 
L 271.59446 172.873265 
L 271.59446 172.873265 
L 375.7723 108.281709 
L 349.717668 124.435904 
L 349.717668 124.435904 
L 267.347324 175.506542 
L 267.347324 175.506542 
" style="fill:none;stroke:#ff0000;stroke-dasharray:5.55,2.4;stroke-dashoffset:0;stroke-width:1.5;"/>
   </g>
   <g id="line2d_26">
    <defs>
     <path d="M 0 1.5 
C 0.397805 1.5 0.77937 1.341951 1.06066 1.06066 
C 1.341951 0.77937 1.5 0.397805 1.5 0 
C 1.5 -0.397805 1.341951 -0.77937 1.06066 -1.06066 
C 0.77937 -1.341951 0.397805 -1.5 0 -1.5 
C -0.397805 -1.5 -0.77937 -1.341951 -1.06066 -1.06066 
C -1.341951 -0.77937 -1.5 -0.397805 -1.5 0 
C -1.5 0.397805 -1.341951 0.77937 -1.06066 1.06066 
C -0.77937 1.341951 -0.397805 1.5 0 1.5 
z
" id="m2b915ced5a" style="stroke:#1f77b4;"/>
    </defs>
    <g clip-path="url(#p209b7b9240)">
     <use style="fill:#1f77b4;stroke:#1f77b4;" x="268.495497" xlink:href="#m2b915ced5a" y="179.742542"/>
     <use style="fill:#1f77b4;stroke:#1f77b4;" x="241.048329" xlink:href="#m2b915ced5a" y="199.982031"/>
     <use style="fill:#1f77b4;stroke:#1f77b4;" x="111.320548" xlink:href="#m2b915ced5a" y="261.148544"/>
     <use style="fill:#1f77b4;stroke:#1f77b4;" x="281.639374" xlink:href="#m2b915ced5a" y="169.659656"/>
     <use style="fill:#1f77b4;stroke:#1f77b4;" x="395.110198" xlink:href="#m2b915ced5a" y="71.57794"/>
     <use style="fill:#1f77b4;stroke:#1f77b4;" x="291.717192" xlink:href="#m2b915ced5a" y="159.453221"/>
     <use style="fill:#1f77b4;stroke:#1f77b4;" x="149.87105" xlink:href="#m2b915ced5a" y="247.650603"/>
     <use style="fill:#1f77b4;stroke:#1f77b4;" x="123.815547" xlink:href="#m2b915ced5a" y="258.161241"/>
     <use style="fill:#1f77b4;stroke:#1f77b4;" x="170.720961" xlink:href="#m2b915ced5a" y="238.09564"/>
     <use style="fill:#1f77b4;stroke:#1f77b4;" x="336.473259" xlink:href="#m2b915ced5a" y="126.112132"/>
     <use style="fill:#1f77b4;stroke:#1f77b4;" x="155.223309" xlink:href="#m2b915ced5a" y="245.168712"/>
     <use style="fill:#1f77b4;stroke:#1f77b4;" x="286.391095" xlink:href="#m2b915ced5a" y="167.38142"/>
     <use style="fill:#1f77b4;stroke:#1f77b4;" x="194.640903" xlink:href="#m2b915ced5a" y="225.825904"/>
     <use style="fill:#1f77b4;stroke:#1f77b4;" x="388.325388" xlink:href="#m2b915ced5a" y="69.808854"/>
     <use style="fill:#1f77b4;stroke:#1f77b4;" x="226.50181" xlink:href="#m2b915ced5a" y="208.512811"/>
     <use style="fill:#1f77b4;stroke:#1f77b4;" x="224.792348" xlink:href="#m2b915ced5a" y="211.069148"/>
     <use style="fill:#1f77b4;stroke:#1f77b4;" x="100.717564" xlink:href="#m2b915ced5a" y="267.096649"/>
     <use style="fill:#1f77b4;stroke:#1f77b4;" x="313.239452" xlink:href="#m2b915ced5a" y="145.627928"/>
     <use style="fill:#1f77b4;stroke:#1f77b4;" x="128.920382" xlink:href="#m2b915ced5a" y="255.553166"/>
     <use style="fill:#1f77b4;stroke:#1f77b4;" x="290.492526" xlink:href="#m2b915ced5a" y="163.552927"/>
     <use style="fill:#1f77b4;stroke:#1f77b4;" x="106.667077" xlink:href="#m2b915ced5a" y="263.705969"/>
     <use style="fill:#1f77b4;stroke:#1f77b4;" x="311.961881" xlink:href="#m2b915ced5a" y="151.458798"/>
     <use style="fill:#1f77b4;stroke:#1f77b4;" x="208.49341" xlink:href="#m2b915ced5a" y="216.690367"/>
     <use style="fill:#1f77b4;stroke:#1f77b4;" x="131.521924" xlink:href="#m2b915ced5a" y="255.308382"/>
     <use style="fill:#1f77b4;stroke:#1f77b4;" x="83.89693" xlink:href="#m2b915ced5a" y="271.42266"/>
     <use style="fill:#1f77b4;stroke:#1f77b4;" x="172.811889" xlink:href="#m2b915ced5a" y="237.087834"/>
     <use style="fill:#1f77b4;stroke:#1f77b4;" x="168.675127" xlink:href="#m2b915ced5a" y="239.083553"/>
     <use style="fill:#1f77b4;stroke:#1f77b4;" x="281.162759" xlink:href="#m2b915ced5a" y="170.311824"/>
     <use style="fill:#1f77b4;stroke:#1f77b4;" x="172.340353" xlink:href="#m2b915ced5a" y="237.132619"/>
     <use style="fill:#1f77b4;stroke:#1f77b4;" x="350.253072" xlink:href="#m2b915ced5a" y="114.022059"/>
     <use style="fill:#1f77b4;stroke:#1f77b4;" x="241.55331" xlink:href="#m2b915ced5a" y="198.001053"/>
     <use style="fill:#1f77b4;stroke:#1f77b4;" x="256.308096" xlink:href="#m2b915ced5a" y="188.184178"/>
     <use style="fill:#1f77b4;stroke:#1f77b4;" x="109.122861" xlink:href="#m2b915ced5a" y="264.414194"/>
     <use style="fill:#1f77b4;stroke:#1f77b4;" x="300.783254" xlink:href="#m2b915ced5a" y="156.888165"/>
     <use style="fill:#1f77b4;stroke:#1f77b4;" x="332.286231" xlink:href="#m2b915ced5a" y="129.815734"/>
     <use style="fill:#1f77b4;stroke:#1f77b4;" x="139.585031" xlink:href="#m2b915ced5a" y="253.574675"/>
     <use style="fill:#1f77b4;stroke:#1f77b4;" x="182.989935" xlink:href="#m2b915ced5a" y="231.982433"/>
     <use style="fill:#1f77b4;stroke:#1f77b4;" x="353.792818" xlink:href="#m2b915ced5a" y="110.748623"/>
     <use style="fill:#1f77b4;stroke:#1f77b4;" x="107.803111" xlink:href="#m2b915ced5a" y="265.124865"/>
     <use style="fill:#1f77b4;stroke:#1f77b4;" x="332.981984" xlink:href="#m2b915ced5a" y="129.143378"/>
     <use style="fill:#1f77b4;stroke:#1f77b4;" x="294.10428" xlink:href="#m2b915ced5a" y="160.849794"/>
     <use style="fill:#1f77b4;stroke:#1f77b4;" x="97.871685" xlink:href="#m2b915ced5a" y="267.235503"/>
     <use style="fill:#1f77b4;stroke:#1f77b4;" x="211.465482" xlink:href="#m2b915ced5a" y="215.222629"/>
     <use style="fill:#1f77b4;stroke:#1f77b4;" x="236.541236" xlink:href="#m2b915ced5a" y="201.18968"/>
     <use style="fill:#1f77b4;stroke:#1f77b4;" x="371.663322" xlink:href="#m2b915ced5a" y="89.427455"/>
     <use style="fill:#1f77b4;stroke:#1f77b4;" x="127.681375" xlink:href="#m2b915ced5a" y="256.746492"/>
     <use style="fill:#1f77b4;stroke:#1f77b4;" x="128.674488" xlink:href="#m2b915ced5a" y="255.647047"/>
     <use style="fill:#1f77b4;stroke:#1f77b4;" x="267.196447" xlink:href="#m2b915ced5a" y="180.643707"/>
     <use style="fill:#1f77b4;stroke:#1f77b4;" x="143.099855" xlink:href="#m2b915ced5a" y="249.544416"/>
     <use style="fill:#1f77b4;stroke:#1f77b4;" x="244.444982" xlink:href="#m2b915ced5a" y="196.046398"/>
     <use style="fill:#1f77b4;stroke:#1f77b4;" x="192.102305" xlink:href="#m2b915ced5a" y="224.396579"/>
     <use style="fill:#1f77b4;stroke:#1f77b4;" x="224.842007" xlink:href="#m2b915ced5a" y="208.467936"/>
     <use style="fill:#1f77b4;stroke:#1f77b4;" x="393.403349" xlink:href="#m2b915ced5a" y="73.294707"/>
     <use style="fill:#1f77b4;stroke:#1f77b4;" x="227.365987" xlink:href="#m2b915ced5a" y="209.490033"/>
     <use style="fill:#1f77b4;stroke:#1f77b4;" x="288.684485" xlink:href="#m2b915ced5a" y="164.910138"/>
     <use style="fill:#1f77b4;stroke:#1f77b4;" x="153.973325" xlink:href="#m2b915ced5a" y="244.950995"/>
     <use style="fill:#1f77b4;stroke:#1f77b4;" x="112.598092" xlink:href="#m2b915ced5a" y="261.664075"/>
     <use style="fill:#1f77b4;stroke:#1f77b4;" x="306.183048" xlink:href="#m2b915ced5a" y="155.544156"/>
     <use style="fill:#1f77b4;stroke:#1f77b4;" x="97.371876" xlink:href="#m2b915ced5a" y="268.010124"/>
     <use style="fill:#1f77b4;stroke:#1f77b4;" x="233.338442" xlink:href="#m2b915ced5a" y="200.992512"/>
     <use style="fill:#1f77b4;stroke:#1f77b4;" x="247.272668" xlink:href="#m2b915ced5a" y="194.178253"/>
     <use style="fill:#1f77b4;stroke:#1f77b4;" x="375.534612" xlink:href="#m2b915ced5a" y="90.558279"/>
     <use style="fill:#1f77b4;stroke:#1f77b4;" x="131.485234" xlink:href="#m2b915ced5a" y="255.083811"/>
     <use style="fill:#1f77b4;stroke:#1f77b4;" x="199.986262" xlink:href="#m2b915ced5a" y="222.939476"/>
     <use style="fill:#1f77b4;stroke:#1f77b4;" x="394.987238" xlink:href="#m2b915ced5a" y="73.265226"/>
     <use style="fill:#1f77b4;stroke:#1f77b4;" x="230.550626" xlink:href="#m2b915ced5a" y="204.904342"/>
     <use style="fill:#1f77b4;stroke:#1f77b4;" x="333.854315" xlink:href="#m2b915ced5a" y="126.912389"/>
     <use style="fill:#1f77b4;stroke:#1f77b4;" x="286.73438" xlink:href="#m2b915ced5a" y="161.351091"/>
     <use style="fill:#1f77b4;stroke:#1f77b4;" x="145.640537" xlink:href="#m2b915ced5a" y="249.510461"/>
     <use style="fill:#1f77b4;stroke:#1f77b4;" x="396.314072" xlink:href="#m2b915ced5a" y="53.568"/>
     <use style="fill:#1f77b4;stroke:#1f77b4;" x="294.42672" xlink:href="#m2b915ced5a" y="160.438508"/>
     <use style="fill:#1f77b4;stroke:#1f77b4;" x="287.342426" xlink:href="#m2b915ced5a" y="170.400756"/>
     <use style="fill:#1f77b4;stroke:#1f77b4;" x="188.260199" xlink:href="#m2b915ced5a" y="229.229713"/>
     <use style="fill:#1f77b4;stroke:#1f77b4;" x="296.402525" xlink:href="#m2b915ced5a" y="159.082802"/>
     <use style="fill:#1f77b4;stroke:#1f77b4;" x="281.506229" xlink:href="#m2b915ced5a" y="170.282213"/>
     <use style="fill:#1f77b4;stroke:#1f77b4;" x="348.25249" xlink:href="#m2b915ced5a" y="103.624247"/>
     <use style="fill:#1f77b4;stroke:#1f77b4;" x="321.343576" xlink:href="#m2b915ced5a" y="136.12382"/>
     <use style="fill:#1f77b4;stroke:#1f77b4;" x="227.90804" xlink:href="#m2b915ced5a" y="206.336186"/>
     <use style="fill:#1f77b4;stroke:#1f77b4;" x="229.105133" xlink:href="#m2b915ced5a" y="208.572394"/>
     <use style="fill:#1f77b4;stroke:#1f77b4;" x="223.250096" xlink:href="#m2b915ced5a" y="208.784564"/>
     <use style="fill:#1f77b4;stroke:#1f77b4;" x="393.581272" xlink:href="#m2b915ced5a" y="68.612067"/>
     <use style="fill:#1f77b4;stroke:#1f77b4;" x="314.089513" xlink:href="#m2b915ced5a" y="142.302957"/>
     <use style="fill:#1f77b4;stroke:#1f77b4;" x="345.046135" xlink:href="#m2b915ced5a" y="117.914421"/>
     <use style="fill:#1f77b4;stroke:#1f77b4;" x="361.418559" xlink:href="#m2b915ced5a" y="100.604911"/>
     <use style="fill:#1f77b4;stroke:#1f77b4;" x="138.984848" xlink:href="#m2b915ced5a" y="251.775045"/>
     <use style="fill:#1f77b4;stroke:#1f77b4;" x="271.913365" xlink:href="#m2b915ced5a" y="175.511205"/>
     <use style="fill:#1f77b4;stroke:#1f77b4;" x="109.893644" xlink:href="#m2b915ced5a" y="264.425711"/>
     <use style="fill:#1f77b4;stroke:#1f77b4;" x="170.405737" xlink:href="#m2b915ced5a" y="238.255026"/>
     <use style="fill:#1f77b4;stroke:#1f77b4;" x="257.159555" xlink:href="#m2b915ced5a" y="187.492975"/>
     <use style="fill:#1f77b4;stroke:#1f77b4;" x="199.796967" xlink:href="#m2b915ced5a" y="225.648924"/>
     <use style="fill:#1f77b4;stroke:#1f77b4;" x="356.411524" xlink:href="#m2b915ced5a" y="107.278573"/>
     <use style="fill:#1f77b4;stroke:#1f77b4;" x="266.71656" xlink:href="#m2b915ced5a" y="183.148265"/>
     <use style="fill:#1f77b4;stroke:#1f77b4;" x="162.428254" xlink:href="#m2b915ced5a" y="241.907561"/>
     <use style="fill:#1f77b4;stroke:#1f77b4;" x="324.812185" xlink:href="#m2b915ced5a" y="139.415154"/>
     <use style="fill:#1f77b4;stroke:#1f77b4;" x="88.465411" xlink:href="#m2b915ced5a" y="270.741486"/>
     <use style="fill:#1f77b4;stroke:#1f77b4;" x="189.730152" xlink:href="#m2b915ced5a" y="227.330779"/>
     <use style="fill:#1f77b4;stroke:#1f77b4;" x="299.20269" xlink:href="#m2b915ced5a" y="156.824263"/>
     <use style="fill:#1f77b4;stroke:#1f77b4;" x="315.7947" xlink:href="#m2b915ced5a" y="143.547744"/>
     <use style="fill:#1f77b4;stroke:#1f77b4;" x="111.719917" xlink:href="#m2b915ced5a" y="262.377658"/>
     <use style="fill:#1f77b4;stroke:#1f77b4;" x="75.647008" xlink:href="#m2b915ced5a" y="273.693927"/>
     <use style="fill:#1f77b4;stroke:#1f77b4;" x="374.711782" xlink:href="#m2b915ced5a" y="91.498118"/>
     <use style="fill:#1f77b4;stroke:#1f77b4;" x="199.440779" xlink:href="#m2b915ced5a" y="223.220243"/>
     <use style="fill:#1f77b4;stroke:#1f77b4;" x="186.682062" xlink:href="#m2b915ced5a" y="230.859928"/>
     <use style="fill:#1f77b4;stroke:#1f77b4;" x="133.473427" xlink:href="#m2b915ced5a" y="254.386163"/>
     <use style="fill:#1f77b4;stroke:#1f77b4;" x="173.938531" xlink:href="#m2b915ced5a" y="236.535527"/>
     <use style="fill:#1f77b4;stroke:#1f77b4;" x="389.50591" xlink:href="#m2b915ced5a" y="72.577198"/>
     <use style="fill:#1f77b4;stroke:#1f77b4;" x="284.718785" xlink:href="#m2b915ced5a" y="167.875061"/>
     <use style="fill:#1f77b4;stroke:#1f77b4;" x="290.192144" xlink:href="#m2b915ced5a" y="163.828525"/>
     <use style="fill:#1f77b4;stroke:#1f77b4;" x="125.470376" xlink:href="#m2b915ced5a" y="256.928708"/>
     <use style="fill:#1f77b4;stroke:#1f77b4;" x="394.576113" xlink:href="#m2b915ced5a" y="69.111664"/>
     <use style="fill:#1f77b4;stroke:#1f77b4;" x="157.015623" xlink:href="#m2b915ced5a" y="244.436479"/>
     <use style="fill:#1f77b4;stroke:#1f77b4;" x="389.335455" xlink:href="#m2b915ced5a" y="79.781671"/>
     <use style="fill:#1f77b4;stroke:#1f77b4;" x="329.101433" xlink:href="#m2b915ced5a" y="132.567587"/>
     <use style="fill:#1f77b4;stroke:#1f77b4;" x="87.597157" xlink:href="#m2b915ced5a" y="270.841567"/>
     <use style="fill:#1f77b4;stroke:#1f77b4;" x="239.500563" xlink:href="#m2b915ced5a" y="201.645514"/>
     <use style="fill:#1f77b4;stroke:#1f77b4;" x="360.100538" xlink:href="#m2b915ced5a" y="102.318013"/>
     <use style="fill:#1f77b4;stroke:#1f77b4;" x="73.832727" xlink:href="#m2b915ced5a" y="274.15907"/>
     <use style="fill:#1f77b4;stroke:#1f77b4;" x="84.965614" xlink:href="#m2b915ced5a" y="271.128012"/>
     <use style="fill:#1f77b4;stroke:#1f77b4;" x="285.805319" xlink:href="#m2b915ced5a" y="171.477609"/>
     <use style="fill:#1f77b4;stroke:#1f77b4;" x="80.515436" xlink:href="#m2b915ced5a" y="272.316029"/>
     <use style="fill:#1f77b4;stroke:#1f77b4;" x="344.561472" xlink:href="#m2b915ced5a" y="119.205866"/>
     <use style="fill:#1f77b4;stroke:#1f77b4;" x="375.569653" xlink:href="#m2b915ced5a" y="90.477068"/>
     <use style="fill:#1f77b4;stroke:#1f77b4;" x="90.813592" xlink:href="#m2b915ced5a" y="269.417159"/>
     <use style="fill:#1f77b4;stroke:#1f77b4;" x="236.218347" xlink:href="#m2b915ced5a" y="203.492734"/>
     <use style="fill:#1f77b4;stroke:#1f77b4;" x="190.400443" xlink:href="#m2b915ced5a" y="228.009254"/>
     <use style="fill:#1f77b4;stroke:#1f77b4;" x="179.800691" xlink:href="#m2b915ced5a" y="234.555293"/>
     <use style="fill:#1f77b4;stroke:#1f77b4;" x="187.073687" xlink:href="#m2b915ced5a" y="229.773006"/>
     <use style="fill:#1f77b4;stroke:#1f77b4;" x="234.042692" xlink:href="#m2b915ced5a" y="202.708248"/>
     <use style="fill:#1f77b4;stroke:#1f77b4;" x="266.587821" xlink:href="#m2b915ced5a" y="179.064297"/>
     <use style="fill:#1f77b4;stroke:#1f77b4;" x="145.66571" xlink:href="#m2b915ced5a" y="248.773238"/>
     <use style="fill:#1f77b4;stroke:#1f77b4;" x="389.176583" xlink:href="#m2b915ced5a" y="76.12224"/>
     <use style="fill:#1f77b4;stroke:#1f77b4;" x="273.801277" xlink:href="#m2b915ced5a" y="179.875646"/>
     <use style="fill:#1f77b4;stroke:#1f77b4;" x="287.056953" xlink:href="#m2b915ced5a" y="166.200208"/>
     <use style="fill:#1f77b4;stroke:#1f77b4;" x="211.684594" xlink:href="#m2b915ced5a" y="216.218304"/>
     <use style="fill:#1f77b4;stroke:#1f77b4;" x="390.726487" xlink:href="#m2b915ced5a" y="74.669455"/>
     <use style="fill:#1f77b4;stroke:#1f77b4;" x="365.135541" xlink:href="#m2b915ced5a" y="97.637894"/>
     <use style="fill:#1f77b4;stroke:#1f77b4;" x="82.15719" xlink:href="#m2b915ced5a" y="271.922436"/>
     <use style="fill:#1f77b4;stroke:#1f77b4;" x="192.985243" xlink:href="#m2b915ced5a" y="224.145456"/>
     <use style="fill:#1f77b4;stroke:#1f77b4;" x="328.407764" xlink:href="#m2b915ced5a" y="132.499563"/>
     <use style="fill:#1f77b4;stroke:#1f77b4;" x="106.033199" xlink:href="#m2b915ced5a" y="264.522586"/>
     <use style="fill:#1f77b4;stroke:#1f77b4;" x="214.89211" xlink:href="#m2b915ced5a" y="213.043713"/>
     <use style="fill:#1f77b4;stroke:#1f77b4;" x="203.27737" xlink:href="#m2b915ced5a" y="220.029472"/>
     <use style="fill:#1f77b4;stroke:#1f77b4;" x="217.251809" xlink:href="#m2b915ced5a" y="213.075026"/>
     <use style="fill:#1f77b4;stroke:#1f77b4;" x="313.985181" xlink:href="#m2b915ced5a" y="145.022385"/>
     <use style="fill:#1f77b4;stroke:#1f77b4;" x="277.685073" xlink:href="#m2b915ced5a" y="171.44291"/>
     <use style="fill:#1f77b4;stroke:#1f77b4;" x="303.94251" xlink:href="#m2b915ced5a" y="155.413163"/>
     <use style="fill:#1f77b4;stroke:#1f77b4;" x="328.165459" xlink:href="#m2b915ced5a" y="136.683751"/>
     <use style="fill:#1f77b4;stroke:#1f77b4;" x="316.418946" xlink:href="#m2b915ced5a" y="141.143897"/>
     <use style="fill:#1f77b4;stroke:#1f77b4;" x="378.096139" xlink:href="#m2b915ced5a" y="94.802834"/>
     <use style="fill:#1f77b4;stroke:#1f77b4;" x="332.980692" xlink:href="#m2b915ced5a" y="128.554163"/>
     <use style="fill:#1f77b4;stroke:#1f77b4;" x="158.347933" xlink:href="#m2b915ced5a" y="243.537097"/>
     <use style="fill:#1f77b4;stroke:#1f77b4;" x="159.253444" xlink:href="#m2b915ced5a" y="243.113059"/>
     <use style="fill:#1f77b4;stroke:#1f77b4;" x="270.132317" xlink:href="#m2b915ced5a" y="177.808026"/>
     <use style="fill:#1f77b4;stroke:#1f77b4;" x="133.344636" xlink:href="#m2b915ced5a" y="255.743243"/>
     <use style="fill:#1f77b4;stroke:#1f77b4;" x="174.971699" xlink:href="#m2b915ced5a" y="236.947034"/>
     <use style="fill:#1f77b4;stroke:#1f77b4;" x="315.577092" xlink:href="#m2b915ced5a" y="142.329984"/>
     <use style="fill:#1f77b4;stroke:#1f77b4;" x="285.955325" xlink:href="#m2b915ced5a" y="167.023304"/>
     <use style="fill:#1f77b4;stroke:#1f77b4;" x="330.75675" xlink:href="#m2b915ced5a" y="130.894762"/>
     <use style="fill:#1f77b4;stroke:#1f77b4;" x="277.728294" xlink:href="#m2b915ced5a" y="174.094182"/>
     <use style="fill:#1f77b4;stroke:#1f77b4;" x="326.063607" xlink:href="#m2b915ced5a" y="137.364549"/>
     <use style="fill:#1f77b4;stroke:#1f77b4;" x="348.249007" xlink:href="#m2b915ced5a" y="121.690334"/>
     <use style="fill:#1f77b4;stroke:#1f77b4;" x="353.024476" xlink:href="#m2b915ced5a" y="111.645108"/>
     <use style="fill:#1f77b4;stroke:#1f77b4;" x="308.612249" xlink:href="#m2b915ced5a" y="151.661856"/>
     <use style="fill:#1f77b4;stroke:#1f77b4;" x="254.15173" xlink:href="#m2b915ced5a" y="189.217611"/>
     <use style="fill:#1f77b4;stroke:#1f77b4;" x="398.487273" xlink:href="#m2b915ced5a" y="76.056506"/>
     <use style="fill:#1f77b4;stroke:#1f77b4;" x="327.518784" xlink:href="#m2b915ced5a" y="133.818753"/>
     <use style="fill:#1f77b4;stroke:#1f77b4;" x="324.393303" xlink:href="#m2b915ced5a" y="136.417577"/>
     <use style="fill:#1f77b4;stroke:#1f77b4;" x="363.57664" xlink:href="#m2b915ced5a" y="101.755923"/>
     <use style="fill:#1f77b4;stroke:#1f77b4;" x="369.821929" xlink:href="#m2b915ced5a" y="95.912554"/>
     <use style="fill:#1f77b4;stroke:#1f77b4;" x="194.049639" xlink:href="#m2b915ced5a" y="226.788255"/>
     <use style="fill:#1f77b4;stroke:#1f77b4;" x="141.067742" xlink:href="#m2b915ced5a" y="251.29949"/>
     <use style="fill:#1f77b4;stroke:#1f77b4;" x="234.049368" xlink:href="#m2b915ced5a" y="202.772722"/>
     <use style="fill:#1f77b4;stroke:#1f77b4;" x="131.558654" xlink:href="#m2b915ced5a" y="254.55871"/>
     <use style="fill:#1f77b4;stroke:#1f77b4;" x="273.709083" xlink:href="#m2b915ced5a" y="173.595388"/>
     <use style="fill:#1f77b4;stroke:#1f77b4;" x="130.606835" xlink:href="#m2b915ced5a" y="254.737588"/>
     <use style="fill:#1f77b4;stroke:#1f77b4;" x="82.208854" xlink:href="#m2b915ced5a" y="271.758249"/>
     <use style="fill:#1f77b4;stroke:#1f77b4;" x="177.334287" xlink:href="#m2b915ced5a" y="236.489425"/>
     <use style="fill:#1f77b4;stroke:#1f77b4;" x="158.216714" xlink:href="#m2b915ced5a" y="243.884089"/>
     <use style="fill:#1f77b4;stroke:#1f77b4;" x="226.203143" xlink:href="#m2b915ced5a" y="209.054583"/>
     <use style="fill:#1f77b4;stroke:#1f77b4;" x="131.390771" xlink:href="#m2b915ced5a" y="255.097038"/>
     <use style="fill:#1f77b4;stroke:#1f77b4;" x="105.240067" xlink:href="#m2b915ced5a" y="265.226991"/>
     <use style="fill:#1f77b4;stroke:#1f77b4;" x="95.771944" xlink:href="#m2b915ced5a" y="267.903245"/>
     <use style="fill:#1f77b4;stroke:#1f77b4;" x="106.501107" xlink:href="#m2b915ced5a" y="265.080808"/>
     <use style="fill:#1f77b4;stroke:#1f77b4;" x="335.397332" xlink:href="#m2b915ced5a" y="127.025959"/>
     <use style="fill:#1f77b4;stroke:#1f77b4;" x="206.042653" xlink:href="#m2b915ced5a" y="218.218685"/>
     <use style="fill:#1f77b4;stroke:#1f77b4;" x="214.441854" xlink:href="#m2b915ced5a" y="214.714689"/>
     <use style="fill:#1f77b4;stroke:#1f77b4;" x="134.93429" xlink:href="#m2b915ced5a" y="254.363185"/>
     <use style="fill:#1f77b4;stroke:#1f77b4;" x="297.315543" xlink:href="#m2b915ced5a" y="158.375665"/>
     <use style="fill:#1f77b4;stroke:#1f77b4;" x="311.154382" xlink:href="#m2b915ced5a" y="147.342274"/>
     <use style="fill:#1f77b4;stroke:#1f77b4;" x="149.537632" xlink:href="#m2b915ced5a" y="246.868808"/>
     <use style="fill:#1f77b4;stroke:#1f77b4;" x="357.847835" xlink:href="#m2b915ced5a" y="105.926925"/>
     <use style="fill:#1f77b4;stroke:#1f77b4;" x="209.811748" xlink:href="#m2b915ced5a" y="215.791411"/>
     <use style="fill:#1f77b4;stroke:#1f77b4;" x="353.169257" xlink:href="#m2b915ced5a" y="105.60709"/>
     <use style="fill:#1f77b4;stroke:#1f77b4;" x="138.812097" xlink:href="#m2b915ced5a" y="251.651332"/>
     <use style="fill:#1f77b4;stroke:#1f77b4;" x="271.59446" xlink:href="#m2b915ced5a" y="177.800173"/>
     <use style="fill:#1f77b4;stroke:#1f77b4;" x="375.7723" xlink:href="#m2b915ced5a" y="87.473176"/>
     <use style="fill:#1f77b4;stroke:#1f77b4;" x="349.717668" xlink:href="#m2b915ced5a" y="114.596911"/>
     <use style="fill:#1f77b4;stroke:#1f77b4;" x="269.183757" xlink:href="#m2b915ced5a" y="179.233735"/>
     <use style="fill:#1f77b4;stroke:#1f77b4;" x="311.807574" xlink:href="#m2b915ced5a" y="146.793761"/>
     <use style="fill:#1f77b4;stroke:#1f77b4;" x="267.347324" xlink:href="#m2b915ced5a" y="180.539364"/>
    </g>
   </g>
   <g id="patch_3">
    <path d="M 57.6 307.584 
L 57.6 41.472 
" style="fill:none;stroke:#000000;stroke-linecap:square;stroke-linejoin:miter;stroke-width:0.8;"/>
   </g>
   <g id="patch_4">
    <path d="M 414.72 307.584 
L 414.72 41.472 
" style="fill:none;stroke:#000000;stroke-linecap:square;stroke-linejoin:miter;stroke-width:0.8;"/>
   </g>
   <g id="patch_5">
    <path d="M 57.6 307.584 
L 414.72 307.584 
" style="fill:none;stroke:#000000;stroke-linecap:square;stroke-linejoin:miter;stroke-width:0.8;"/>
   </g>
   <g id="patch_6">
    <path d="M 57.6 41.472 
L 414.72 41.472 
" style="fill:none;stroke:#000000;stroke-linecap:square;stroke-linejoin:miter;stroke-width:0.8;"/>
   </g>
   <g id="legend_1">
    <g id="patch_7">
     <path d="M 64.6 64.150125 
L 141.470313 64.150125 
Q 143.470313 64.150125 143.470313 62.150125 
L 143.470313 48.472 
Q 143.470313 46.472 141.470313 46.472 
L 64.6 46.472 
Q 62.6 46.472 62.6 48.472 
L 62.6 62.150125 
Q 62.6 64.150125 64.6 64.150125 
z
" style="fill:#ffffff;opacity:0.8;stroke:#cccccc;stroke-linejoin:miter;"/>
    </g>
    <g id="line2d_27">
     <path d="M 66.6 54.570438 
L 86.6 54.570438 
" style="fill:none;stroke:#ff0000;stroke-dasharray:5.55,2.4;stroke-dashoffset:0;stroke-width:1.5;"/>
    </g>
    <g id="line2d_28"/>
    <g id="text_15">
     <!-- real data -->
     <defs>
      <path id="DejaVuSans-20"/>
     </defs>
     <g transform="translate(94.6 58.070438)scale(0.1 -0.1)">
      <use xlink:href="#DejaVuSans-72"/>
      <use x="41.082031" xlink:href="#DejaVuSans-65"/>
      <use x="102.605469" xlink:href="#DejaVuSans-61"/>
      <use x="163.884766" xlink:href="#DejaVuSans-6c"/>
      <use x="191.667969" xlink:href="#DejaVuSans-20"/>
      <use x="223.455078" xlink:href="#DejaVuSans-64"/>
      <use x="286.931641" xlink:href="#DejaVuSans-61"/>
      <use x="348.210938" xlink:href="#DejaVuSans-74"/>
      <use x="387.419922" xlink:href="#DejaVuSans-61"/>
     </g>
    </g>
   </g>
  </g>
  <g id="text_16">
   <!-- [128, 30, 30, 10, 1] -->
   <defs>
    <path d="M 8.59375 75.984375 
L 29.296875 75.984375 
L 29.296875 69 
L 17.578125 69 
L 17.578125 -6.203125 
L 29.296875 -6.203125 
L 29.296875 -13.1875 
L 8.59375 -13.1875 
z
" id="DejaVuSans-5b"/>
    <path d="M 19.1875 8.296875 
L 53.609375 8.296875 
L 53.609375 0 
L 7.328125 0 
L 7.328125 8.296875 
Q 12.9375 14.109375 22.625 23.890625 
Q 32.328125 33.6875 34.8125 36.53125 
Q 39.546875 41.84375 41.421875 45.53125 
Q 43.3125 49.21875 43.3125 52.78125 
Q 43.3125 58.59375 39.234375 62.25 
Q 35.15625 65.921875 28.609375 65.921875 
Q 23.96875 65.921875 18.8125 64.3125 
Q 13.671875 62.703125 7.8125 59.421875 
L 7.8125 69.390625 
Q 13.765625 71.78125 18.9375 73 
Q 24.125 74.21875 28.421875 74.21875 
Q 39.75 74.21875 46.484375 68.546875 
Q 53.21875 62.890625 53.21875 53.421875 
Q 53.21875 48.921875 51.53125 44.890625 
Q 49.859375 40.875 45.40625 35.40625 
Q 44.1875 33.984375 37.640625 27.21875 
Q 31.109375 20.453125 19.1875 8.296875 
z
" id="DejaVuSans-32"/>
    <path d="M 11.71875 12.40625 
L 22.015625 12.40625 
L 22.015625 4 
L 14.015625 -11.625 
L 7.71875 -11.625 
L 11.71875 4 
z
" id="DejaVuSans-2c"/>
    <path d="M 30.421875 75.984375 
L 30.421875 -13.1875 
L 9.71875 -13.1875 
L 9.71875 -6.203125 
L 21.390625 -6.203125 
L 21.390625 69 
L 9.71875 69 
L 9.71875 75.984375 
z
" id="DejaVuSans-5d"/>
   </defs>
   <g transform="translate(276.48 219.934687)scale(0.1 -0.1)">
    <use xlink:href="#DejaVuSans-5b"/>
    <use x="39.013672" xlink:href="#DejaVuSans-31"/>
    <use x="102.636719" xlink:href="#DejaVuSans-32"/>
    <use x="166.259766" xlink:href="#DejaVuSans-38"/>
    <use x="229.882812" xlink:href="#DejaVuSans-2c"/>
    <use x="261.669922" xlink:href="#DejaVuSans-20"/>
    <use x="293.457031" xlink:href="#DejaVuSans-33"/>
    <use x="357.080078" xlink:href="#DejaVuSans-30"/>
    <use x="420.703125" xlink:href="#DejaVuSans-2c"/>
    <use x="452.490234" xlink:href="#DejaVuSans-20"/>
    <use x="484.277344" xlink:href="#DejaVuSans-33"/>
    <use x="547.900391" xlink:href="#DejaVuSans-30"/>
    <use x="611.523438" xlink:href="#DejaVuSans-2c"/>
    <use x="643.310547" xlink:href="#DejaVuSans-20"/>
    <use x="675.097656" xlink:href="#DejaVuSans-31"/>
    <use x="738.720703" xlink:href="#DejaVuSans-30"/>
    <use x="802.34375" xlink:href="#DejaVuSans-2c"/>
    <use x="834.130859" xlink:href="#DejaVuSans-20"/>
    <use x="865.917969" xlink:href="#DejaVuSans-31"/>
    <use x="929.541016" xlink:href="#DejaVuSans-5d"/>
   </g>
   <!-- lr=0.001 -->
   <defs>
    <path d="M 10.59375 45.40625 
L 73.1875 45.40625 
L 73.1875 37.203125 
L 10.59375 37.203125 
z
M 10.59375 25.484375 
L 73.1875 25.484375 
L 73.1875 17.1875 
L 10.59375 17.1875 
z
" id="DejaVuSans-3d"/>
   </defs>
   <g transform="translate(276.48 231.1325)scale(0.1 -0.1)">
    <use xlink:href="#DejaVuSans-6c"/>
    <use x="27.783203" xlink:href="#DejaVuSans-72"/>
    <use x="68.896484" xlink:href="#DejaVuSans-3d"/>
    <use x="152.685547" xlink:href="#DejaVuSans-30"/>
    <use x="216.308594" xlink:href="#DejaVuSans-2e"/>
    <use x="248.095703" xlink:href="#DejaVuSans-30"/>
    <use x="311.71875" xlink:href="#DejaVuSans-30"/>
    <use x="375.341797" xlink:href="#DejaVuSans-31"/>
   </g>
   <!-- epoch=20 -->
   <defs>
    <path d="M 18.109375 8.203125 
L 18.109375 -20.796875 
L 9.078125 -20.796875 
L 9.078125 54.6875 
L 18.109375 54.6875 
L 18.109375 46.390625 
Q 20.953125 51.265625 25.265625 53.625 
Q 29.59375 56 35.59375 56 
Q 45.5625 56 51.78125 48.09375 
Q 58.015625 40.1875 58.015625 27.296875 
Q 58.015625 14.40625 51.78125 6.484375 
Q 45.5625 -1.421875 35.59375 -1.421875 
Q 29.59375 -1.421875 25.265625 0.953125 
Q 20.953125 3.328125 18.109375 8.203125 
z
M 48.6875 27.296875 
Q 48.6875 37.203125 44.609375 42.84375 
Q 40.53125 48.484375 33.40625 48.484375 
Q 26.265625 48.484375 22.1875 42.84375 
Q 18.109375 37.203125 18.109375 27.296875 
Q 18.109375 17.390625 22.1875 11.75 
Q 26.265625 6.109375 33.40625 6.109375 
Q 40.53125 6.109375 44.609375 11.75 
Q 48.6875 17.390625 48.6875 27.296875 
z
" id="DejaVuSans-70"/>
    <path d="M 30.609375 48.390625 
Q 23.390625 48.390625 19.1875 42.75 
Q 14.984375 37.109375 14.984375 27.296875 
Q 14.984375 17.484375 19.15625 11.84375 
Q 23.34375 6.203125 30.609375 6.203125 
Q 37.796875 6.203125 41.984375 11.859375 
Q 46.1875 17.53125 46.1875 27.296875 
Q 46.1875 37.015625 41.984375 42.703125 
Q 37.796875 48.390625 30.609375 48.390625 
z
M 30.609375 56 
Q 42.328125 56 49.015625 48.375 
Q 55.71875 40.765625 55.71875 27.296875 
Q 55.71875 13.875 49.015625 6.21875 
Q 42.328125 -1.421875 30.609375 -1.421875 
Q 18.84375 -1.421875 12.171875 6.21875 
Q 5.515625 13.875 5.515625 27.296875 
Q 5.515625 40.765625 12.171875 48.375 
Q 18.84375 56 30.609375 56 
z
" id="DejaVuSans-6f"/>
    <path d="M 54.890625 33.015625 
L 54.890625 0 
L 45.90625 0 
L 45.90625 32.71875 
Q 45.90625 40.484375 42.875 44.328125 
Q 39.84375 48.1875 33.796875 48.1875 
Q 26.515625 48.1875 22.3125 43.546875 
Q 18.109375 38.921875 18.109375 30.90625 
L 18.109375 0 
L 9.078125 0 
L 9.078125 75.984375 
L 18.109375 75.984375 
L 18.109375 46.1875 
Q 21.34375 51.125 25.703125 53.5625 
Q 30.078125 56 35.796875 56 
Q 45.21875 56 50.046875 50.171875 
Q 54.890625 44.34375 54.890625 33.015625 
z
" id="DejaVuSans-68"/>
   </defs>
   <g transform="translate(276.48 242.330312)scale(0.1 -0.1)">
    <use xlink:href="#DejaVuSans-65"/>
    <use x="61.523438" xlink:href="#DejaVuSans-70"/>
    <use x="125" xlink:href="#DejaVuSans-6f"/>
    <use x="186.181641" xlink:href="#DejaVuSans-63"/>
    <use x="241.162109" xlink:href="#DejaVuSans-68"/>
    <use x="304.541016" xlink:href="#DejaVuSans-3d"/>
    <use x="388.330078" xlink:href="#DejaVuSans-32"/>
    <use x="451.953125" xlink:href="#DejaVuSans-30"/>
   </g>
   <!-- train_len=800 -->
   <defs>
    <path d="M 54.890625 33.015625 
L 54.890625 0 
L 45.90625 0 
L 45.90625 32.71875 
Q 45.90625 40.484375 42.875 44.328125 
Q 39.84375 48.1875 33.796875 48.1875 
Q 26.515625 48.1875 22.3125 43.546875 
Q 18.109375 38.921875 18.109375 30.90625 
L 18.109375 0 
L 9.078125 0 
L 9.078125 54.6875 
L 18.109375 54.6875 
L 18.109375 46.1875 
Q 21.34375 51.125 25.703125 53.5625 
Q 30.078125 56 35.796875 56 
Q 45.21875 56 50.046875 50.171875 
Q 54.890625 44.34375 54.890625 33.015625 
z
" id="DejaVuSans-6e"/>
    <path d="M 50.984375 -16.609375 
L 50.984375 -23.578125 
L -0.984375 -23.578125 
L -0.984375 -16.609375 
z
" id="DejaVuSans-5f"/>
   </defs>
   <g transform="translate(276.48 253.528125)scale(0.1 -0.1)">
    <use xlink:href="#DejaVuSans-74"/>
    <use x="39.208984" xlink:href="#DejaVuSans-72"/>
    <use x="80.322266" xlink:href="#DejaVuSans-61"/>
    <use x="141.601562" xlink:href="#DejaVuSans-69"/>
    <use x="169.384766" xlink:href="#DejaVuSans-6e"/>
    <use x="232.763672" xlink:href="#DejaVuSans-5f"/>
    <use x="282.763672" xlink:href="#DejaVuSans-6c"/>
    <use x="310.546875" xlink:href="#DejaVuSans-65"/>
    <use x="372.070312" xlink:href="#DejaVuSans-6e"/>
    <use x="435.449219" xlink:href="#DejaVuSans-3d"/>
    <use x="519.238281" xlink:href="#DejaVuSans-38"/>
    <use x="582.861328" xlink:href="#DejaVuSans-30"/>
    <use x="646.484375" xlink:href="#DejaVuSans-30"/>
   </g>
   <!-- test_len=200 -->
   <defs>
    <path d="M 44.28125 53.078125 
L 44.28125 44.578125 
Q 40.484375 46.53125 36.375 47.5 
Q 32.28125 48.484375 27.875 48.484375 
Q 21.1875 48.484375 17.84375 46.4375 
Q 14.5 44.390625 14.5 40.28125 
Q 14.5 37.15625 16.890625 35.375 
Q 19.28125 33.59375 26.515625 31.984375 
L 29.59375 31.296875 
Q 39.15625 29.25 43.1875 25.515625 
Q 47.21875 21.78125 47.21875 15.09375 
Q 47.21875 7.46875 41.1875 3.015625 
Q 35.15625 -1.421875 24.609375 -1.421875 
Q 20.21875 -1.421875 15.453125 -0.5625 
Q 10.6875 0.296875 5.421875 2 
L 5.421875 11.28125 
Q 10.40625 8.6875 15.234375 7.390625 
Q 20.0625 6.109375 24.8125 6.109375 
Q 31.15625 6.109375 34.5625 8.28125 
Q 37.984375 10.453125 37.984375 14.40625 
Q 37.984375 18.0625 35.515625 20.015625 
Q 33.0625 21.96875 24.703125 23.78125 
L 21.578125 24.515625 
Q 13.234375 26.265625 9.515625 29.90625 
Q 5.8125 33.546875 5.8125 39.890625 
Q 5.8125 47.609375 11.28125 51.796875 
Q 16.75 56 26.8125 56 
Q 31.78125 56 36.171875 55.265625 
Q 40.578125 54.546875 44.28125 53.078125 
z
" id="DejaVuSans-73"/>
   </defs>
   <g transform="translate(276.48 265.004062)scale(0.1 -0.1)">
    <use xlink:href="#DejaVuSans-74"/>
    <use x="39.208984" xlink:href="#DejaVuSans-65"/>
    <use x="100.732422" xlink:href="#DejaVuSans-73"/>
    <use x="152.832031" xlink:href="#DejaVuSans-74"/>
    <use x="192.041016" xlink:href="#DejaVuSans-5f"/>
    <use x="242.041016" xlink:href="#DejaVuSans-6c"/>
    <use x="269.824219" xlink:href="#DejaVuSans-65"/>
    <use x="331.347656" xlink:href="#DejaVuSans-6e"/>
    <use x="394.726562" xlink:href="#DejaVuSans-3d"/>
    <use x="478.515625" xlink:href="#DejaVuSans-32"/>
    <use x="542.138672" xlink:href="#DejaVuSans-30"/>
    <use x="605.761719" xlink:href="#DejaVuSans-30"/>
   </g>
   <!-- error=[ 0.00145012] -->
   <g transform="translate(276.48 276.48)scale(0.1 -0.1)">
    <use xlink:href="#DejaVuSans-65"/>
    <use x="61.523438" xlink:href="#DejaVuSans-72"/>
    <use x="102.621094" xlink:href="#DejaVuSans-72"/>
    <use x="143.703125" xlink:href="#DejaVuSans-6f"/>
    <use x="204.884766" xlink:href="#DejaVuSans-72"/>
    <use x="245.998047" xlink:href="#DejaVuSans-3d"/>
    <use x="329.787109" xlink:href="#DejaVuSans-5b"/>
    <use x="368.800781" xlink:href="#DejaVuSans-20"/>
    <use x="400.587891" xlink:href="#DejaVuSans-30"/>
    <use x="464.210938" xlink:href="#DejaVuSans-2e"/>
    <use x="495.998047" xlink:href="#DejaVuSans-30"/>
    <use x="559.621094" xlink:href="#DejaVuSans-30"/>
    <use x="623.244141" xlink:href="#DejaVuSans-31"/>
    <use x="686.867188" xlink:href="#DejaVuSans-34"/>
    <use x="750.490234" xlink:href="#DejaVuSans-35"/>
    <use x="814.113281" xlink:href="#DejaVuSans-30"/>
    <use x="877.736328" xlink:href="#DejaVuSans-31"/>
    <use x="941.359375" xlink:href="#DejaVuSans-32"/>
    <use x="1004.982422" xlink:href="#DejaVuSans-5d"/>
   </g>
  </g>
 </g>
 <defs>
  <clipPath id="p209b7b9240">
   <rect height="266.112" width="357.12" x="57.6" y="41.472"/>
  </clipPath>
 </defs>
</svg>
