<?xml version="1.0" encoding="utf-8" standalone="no"?>
<!DOCTYPE svg PUBLIC "-//W3C//DTD SVG 1.1//EN"
  "http://www.w3.org/Graphics/SVG/1.1/DTD/svg11.dtd">
<!-- Created with matplotlib (http://matplotlib.org/) -->
<svg height="432pt" version="1.1" viewBox="0 0 576 432" width="576pt" xmlns="http://www.w3.org/2000/svg" xmlns:xlink="http://www.w3.org/1999/xlink">
 <defs>
  <style type="text/css">
*{stroke-linecap:butt;stroke-linejoin:round;}
  </style>
 </defs>
 <g id="figure_1">
  <g id="patch_1">
   <path d="M 0 432 
L 576 432 
L 576 0 
L 0 0 
z
" style="fill:#ffffff;"/>
  </g>
  <g id="axes_1">
   <g id="patch_2">
    <path d="M 72 384.48 
L 518.4 384.48 
L 518.4 51.84 
L 72 51.84 
z
" style="fill:#ffffff;"/>
   </g>
   <g id="matplotlib.axis_1">
    <g id="xtick_1">
     <g id="line2d_1">
      <path clip-path="url(#p4758d3b1f2)" d="M 117.378698 384.48 
L 117.378698 51.84 
" style="fill:none;stroke:#b0b0b0;stroke-linecap:square;stroke-width:0.8;"/>
     </g>
     <g id="line2d_2">
      <defs>
       <path d="M 0 0 
L 0 3.5 
" id="m31ded60deb" style="stroke:#000000;stroke-width:0.8;"/>
      </defs>
      <g>
       <use style="stroke:#000000;stroke-width:0.8;" x="117.378698" xlink:href="#m31ded60deb" y="384.48"/>
      </g>
     </g>
     <g id="text_1">
      <!-- 0.3 -->
      <defs>
       <path d="M 31.78125 66.40625 
Q 24.171875 66.40625 20.328125 58.90625 
Q 16.5 51.421875 16.5 36.375 
Q 16.5 21.390625 20.328125 13.890625 
Q 24.171875 6.390625 31.78125 6.390625 
Q 39.453125 6.390625 43.28125 13.890625 
Q 47.125 21.390625 47.125 36.375 
Q 47.125 51.421875 43.28125 58.90625 
Q 39.453125 66.40625 31.78125 66.40625 
z
M 31.78125 74.21875 
Q 44.046875 74.21875 50.515625 64.515625 
Q 56.984375 54.828125 56.984375 36.375 
Q 56.984375 17.96875 50.515625 8.265625 
Q 44.046875 -1.421875 31.78125 -1.421875 
Q 19.53125 -1.421875 13.0625 8.265625 
Q 6.59375 17.96875 6.59375 36.375 
Q 6.59375 54.828125 13.0625 64.515625 
Q 19.53125 74.21875 31.78125 74.21875 
z
" id="DejaVuSans-30"/>
       <path d="M 10.6875 12.40625 
L 21 12.40625 
L 21 0 
L 10.6875 0 
z
" id="DejaVuSans-2e"/>
       <path d="M 40.578125 39.3125 
Q 47.65625 37.796875 51.625 33 
Q 55.609375 28.21875 55.609375 21.1875 
Q 55.609375 10.40625 48.1875 4.484375 
Q 40.765625 -1.421875 27.09375 -1.421875 
Q 22.515625 -1.421875 17.65625 -0.515625 
Q 12.796875 0.390625 7.625 2.203125 
L 7.625 11.71875 
Q 11.71875 9.328125 16.59375 8.109375 
Q 21.484375 6.890625 26.8125 6.890625 
Q 36.078125 6.890625 40.9375 10.546875 
Q 45.796875 14.203125 45.796875 21.1875 
Q 45.796875 27.640625 41.28125 31.265625 
Q 36.765625 34.90625 28.71875 34.90625 
L 20.21875 34.90625 
L 20.21875 43.015625 
L 29.109375 43.015625 
Q 36.375 43.015625 40.234375 45.921875 
Q 44.09375 48.828125 44.09375 54.296875 
Q 44.09375 59.90625 40.109375 62.90625 
Q 36.140625 65.921875 28.71875 65.921875 
Q 24.65625 65.921875 20.015625 65.03125 
Q 15.375 64.15625 9.8125 62.3125 
L 9.8125 71.09375 
Q 15.4375 72.65625 20.34375 73.4375 
Q 25.25 74.21875 29.59375 74.21875 
Q 40.828125 74.21875 47.359375 69.109375 
Q 53.90625 64.015625 53.90625 55.328125 
Q 53.90625 49.265625 50.4375 45.09375 
Q 46.96875 40.921875 40.578125 39.3125 
z
" id="DejaVuSans-33"/>
      </defs>
      <g transform="translate(109.427136 399.078438)scale(0.1 -0.1)">
       <use xlink:href="#DejaVuSans-30"/>
       <use x="63.623047" xlink:href="#DejaVuSans-2e"/>
       <use x="95.410156" xlink:href="#DejaVuSans-33"/>
      </g>
     </g>
    </g>
    <g id="xtick_2">
     <g id="line2d_3">
      <path clip-path="url(#p4758d3b1f2)" d="M 172.71474 384.48 
L 172.71474 51.84 
" style="fill:none;stroke:#b0b0b0;stroke-linecap:square;stroke-width:0.8;"/>
     </g>
     <g id="line2d_4">
      <g>
       <use style="stroke:#000000;stroke-width:0.8;" x="172.71474" xlink:href="#m31ded60deb" y="384.48"/>
      </g>
     </g>
     <g id="text_2">
      <!-- 0.4 -->
      <defs>
       <path d="M 37.796875 64.3125 
L 12.890625 25.390625 
L 37.796875 25.390625 
z
M 35.203125 72.90625 
L 47.609375 72.90625 
L 47.609375 25.390625 
L 58.015625 25.390625 
L 58.015625 17.1875 
L 47.609375 17.1875 
L 47.609375 0 
L 37.796875 0 
L 37.796875 17.1875 
L 4.890625 17.1875 
L 4.890625 26.703125 
z
" id="DejaVuSans-34"/>
      </defs>
      <g transform="translate(164.763178 399.078438)scale(0.1 -0.1)">
       <use xlink:href="#DejaVuSans-30"/>
       <use x="63.623047" xlink:href="#DejaVuSans-2e"/>
       <use x="95.410156" xlink:href="#DejaVuSans-34"/>
      </g>
     </g>
    </g>
    <g id="xtick_3">
     <g id="line2d_5">
      <path clip-path="url(#p4758d3b1f2)" d="M 228.050782 384.48 
L 228.050782 51.84 
" style="fill:none;stroke:#b0b0b0;stroke-linecap:square;stroke-width:0.8;"/>
     </g>
     <g id="line2d_6">
      <g>
       <use style="stroke:#000000;stroke-width:0.8;" x="228.050782" xlink:href="#m31ded60deb" y="384.48"/>
      </g>
     </g>
     <g id="text_3">
      <!-- 0.5 -->
      <defs>
       <path d="M 10.796875 72.90625 
L 49.515625 72.90625 
L 49.515625 64.59375 
L 19.828125 64.59375 
L 19.828125 46.734375 
Q 21.96875 47.46875 24.109375 47.828125 
Q 26.265625 48.1875 28.421875 48.1875 
Q 40.625 48.1875 47.75 41.5 
Q 54.890625 34.8125 54.890625 23.390625 
Q 54.890625 11.625 47.5625 5.09375 
Q 40.234375 -1.421875 26.90625 -1.421875 
Q 22.3125 -1.421875 17.546875 -0.640625 
Q 12.796875 0.140625 7.71875 1.703125 
L 7.71875 11.625 
Q 12.109375 9.234375 16.796875 8.0625 
Q 21.484375 6.890625 26.703125 6.890625 
Q 35.15625 6.890625 40.078125 11.328125 
Q 45.015625 15.765625 45.015625 23.390625 
Q 45.015625 31 40.078125 35.4375 
Q 35.15625 39.890625 26.703125 39.890625 
Q 22.75 39.890625 18.8125 39.015625 
Q 14.890625 38.140625 10.796875 36.28125 
z
" id="DejaVuSans-35"/>
      </defs>
      <g transform="translate(220.09922 399.078438)scale(0.1 -0.1)">
       <use xlink:href="#DejaVuSans-30"/>
       <use x="63.623047" xlink:href="#DejaVuSans-2e"/>
       <use x="95.410156" xlink:href="#DejaVuSans-35"/>
      </g>
     </g>
    </g>
    <g id="xtick_4">
     <g id="line2d_7">
      <path clip-path="url(#p4758d3b1f2)" d="M 283.386824 384.48 
L 283.386824 51.84 
" style="fill:none;stroke:#b0b0b0;stroke-linecap:square;stroke-width:0.8;"/>
     </g>
     <g id="line2d_8">
      <g>
       <use style="stroke:#000000;stroke-width:0.8;" x="283.386824" xlink:href="#m31ded60deb" y="384.48"/>
      </g>
     </g>
     <g id="text_4">
      <!-- 0.6 -->
      <defs>
       <path d="M 33.015625 40.375 
Q 26.375 40.375 22.484375 35.828125 
Q 18.609375 31.296875 18.609375 23.390625 
Q 18.609375 15.53125 22.484375 10.953125 
Q 26.375 6.390625 33.015625 6.390625 
Q 39.65625 6.390625 43.53125 10.953125 
Q 47.40625 15.53125 47.40625 23.390625 
Q 47.40625 31.296875 43.53125 35.828125 
Q 39.65625 40.375 33.015625 40.375 
z
M 52.59375 71.296875 
L 52.59375 62.3125 
Q 48.875 64.0625 45.09375 64.984375 
Q 41.3125 65.921875 37.59375 65.921875 
Q 27.828125 65.921875 22.671875 59.328125 
Q 17.53125 52.734375 16.796875 39.40625 
Q 19.671875 43.65625 24.015625 45.921875 
Q 28.375 48.1875 33.59375 48.1875 
Q 44.578125 48.1875 50.953125 41.515625 
Q 57.328125 34.859375 57.328125 23.390625 
Q 57.328125 12.15625 50.6875 5.359375 
Q 44.046875 -1.421875 33.015625 -1.421875 
Q 20.359375 -1.421875 13.671875 8.265625 
Q 6.984375 17.96875 6.984375 36.375 
Q 6.984375 53.65625 15.1875 63.9375 
Q 23.390625 74.21875 37.203125 74.21875 
Q 40.921875 74.21875 44.703125 73.484375 
Q 48.484375 72.75 52.59375 71.296875 
z
" id="DejaVuSans-36"/>
      </defs>
      <g transform="translate(275.435262 399.078438)scale(0.1 -0.1)">
       <use xlink:href="#DejaVuSans-30"/>
       <use x="63.623047" xlink:href="#DejaVuSans-2e"/>
       <use x="95.410156" xlink:href="#DejaVuSans-36"/>
      </g>
     </g>
    </g>
    <g id="xtick_5">
     <g id="line2d_9">
      <path clip-path="url(#p4758d3b1f2)" d="M 338.722866 384.48 
L 338.722866 51.84 
" style="fill:none;stroke:#b0b0b0;stroke-linecap:square;stroke-width:0.8;"/>
     </g>
     <g id="line2d_10">
      <g>
       <use style="stroke:#000000;stroke-width:0.8;" x="338.722866" xlink:href="#m31ded60deb" y="384.48"/>
      </g>
     </g>
     <g id="text_5">
      <!-- 0.7 -->
      <defs>
       <path d="M 8.203125 72.90625 
L 55.078125 72.90625 
L 55.078125 68.703125 
L 28.609375 0 
L 18.3125 0 
L 43.21875 64.59375 
L 8.203125 64.59375 
z
" id="DejaVuSans-37"/>
      </defs>
      <g transform="translate(330.771304 399.078438)scale(0.1 -0.1)">
       <use xlink:href="#DejaVuSans-30"/>
       <use x="63.623047" xlink:href="#DejaVuSans-2e"/>
       <use x="95.410156" xlink:href="#DejaVuSans-37"/>
      </g>
     </g>
    </g>
    <g id="xtick_6">
     <g id="line2d_11">
      <path clip-path="url(#p4758d3b1f2)" d="M 394.058908 384.48 
L 394.058908 51.84 
" style="fill:none;stroke:#b0b0b0;stroke-linecap:square;stroke-width:0.8;"/>
     </g>
     <g id="line2d_12">
      <g>
       <use style="stroke:#000000;stroke-width:0.8;" x="394.058908" xlink:href="#m31ded60deb" y="384.48"/>
      </g>
     </g>
     <g id="text_6">
      <!-- 0.8 -->
      <defs>
       <path d="M 31.78125 34.625 
Q 24.75 34.625 20.71875 30.859375 
Q 16.703125 27.09375 16.703125 20.515625 
Q 16.703125 13.921875 20.71875 10.15625 
Q 24.75 6.390625 31.78125 6.390625 
Q 38.8125 6.390625 42.859375 10.171875 
Q 46.921875 13.96875 46.921875 20.515625 
Q 46.921875 27.09375 42.890625 30.859375 
Q 38.875 34.625 31.78125 34.625 
z
M 21.921875 38.8125 
Q 15.578125 40.375 12.03125 44.71875 
Q 8.5 49.078125 8.5 55.328125 
Q 8.5 64.0625 14.71875 69.140625 
Q 20.953125 74.21875 31.78125 74.21875 
Q 42.671875 74.21875 48.875 69.140625 
Q 55.078125 64.0625 55.078125 55.328125 
Q 55.078125 49.078125 51.53125 44.71875 
Q 48 40.375 41.703125 38.8125 
Q 48.828125 37.15625 52.796875 32.3125 
Q 56.78125 27.484375 56.78125 20.515625 
Q 56.78125 9.90625 50.3125 4.234375 
Q 43.84375 -1.421875 31.78125 -1.421875 
Q 19.734375 -1.421875 13.25 4.234375 
Q 6.78125 9.90625 6.78125 20.515625 
Q 6.78125 27.484375 10.78125 32.3125 
Q 14.796875 37.15625 21.921875 38.8125 
z
M 18.3125 54.390625 
Q 18.3125 48.734375 21.84375 45.5625 
Q 25.390625 42.390625 31.78125 42.390625 
Q 38.140625 42.390625 41.71875 45.5625 
Q 45.3125 48.734375 45.3125 54.390625 
Q 45.3125 60.0625 41.71875 63.234375 
Q 38.140625 66.40625 31.78125 66.40625 
Q 25.390625 66.40625 21.84375 63.234375 
Q 18.3125 60.0625 18.3125 54.390625 
z
" id="DejaVuSans-38"/>
      </defs>
      <g transform="translate(386.107346 399.078438)scale(0.1 -0.1)">
       <use xlink:href="#DejaVuSans-30"/>
       <use x="63.623047" xlink:href="#DejaVuSans-2e"/>
       <use x="95.410156" xlink:href="#DejaVuSans-38"/>
      </g>
     </g>
    </g>
    <g id="xtick_7">
     <g id="line2d_13">
      <path clip-path="url(#p4758d3b1f2)" d="M 449.39495 384.48 
L 449.39495 51.84 
" style="fill:none;stroke:#b0b0b0;stroke-linecap:square;stroke-width:0.8;"/>
     </g>
     <g id="line2d_14">
      <g>
       <use style="stroke:#000000;stroke-width:0.8;" x="449.39495" xlink:href="#m31ded60deb" y="384.48"/>
      </g>
     </g>
     <g id="text_7">
      <!-- 0.9 -->
      <defs>
       <path d="M 10.984375 1.515625 
L 10.984375 10.5 
Q 14.703125 8.734375 18.5 7.8125 
Q 22.3125 6.890625 25.984375 6.890625 
Q 35.75 6.890625 40.890625 13.453125 
Q 46.046875 20.015625 46.78125 33.40625 
Q 43.953125 29.203125 39.59375 26.953125 
Q 35.25 24.703125 29.984375 24.703125 
Q 19.046875 24.703125 12.671875 31.3125 
Q 6.296875 37.9375 6.296875 49.421875 
Q 6.296875 60.640625 12.9375 67.421875 
Q 19.578125 74.21875 30.609375 74.21875 
Q 43.265625 74.21875 49.921875 64.515625 
Q 56.59375 54.828125 56.59375 36.375 
Q 56.59375 19.140625 48.40625 8.859375 
Q 40.234375 -1.421875 26.421875 -1.421875 
Q 22.703125 -1.421875 18.890625 -0.6875 
Q 15.09375 0.046875 10.984375 1.515625 
z
M 30.609375 32.421875 
Q 37.25 32.421875 41.125 36.953125 
Q 45.015625 41.5 45.015625 49.421875 
Q 45.015625 57.28125 41.125 61.84375 
Q 37.25 66.40625 30.609375 66.40625 
Q 23.96875 66.40625 20.09375 61.84375 
Q 16.21875 57.28125 16.21875 49.421875 
Q 16.21875 41.5 20.09375 36.953125 
Q 23.96875 32.421875 30.609375 32.421875 
z
" id="DejaVuSans-39"/>
      </defs>
      <g transform="translate(441.443388 399.078438)scale(0.1 -0.1)">
       <use xlink:href="#DejaVuSans-30"/>
       <use x="63.623047" xlink:href="#DejaVuSans-2e"/>
       <use x="95.410156" xlink:href="#DejaVuSans-39"/>
      </g>
     </g>
    </g>
    <g id="xtick_8">
     <g id="line2d_15">
      <path clip-path="url(#p4758d3b1f2)" d="M 504.730992 384.48 
L 504.730992 51.84 
" style="fill:none;stroke:#b0b0b0;stroke-linecap:square;stroke-width:0.8;"/>
     </g>
     <g id="line2d_16">
      <g>
       <use style="stroke:#000000;stroke-width:0.8;" x="504.730992" xlink:href="#m31ded60deb" y="384.48"/>
      </g>
     </g>
     <g id="text_8">
      <!-- 1.0 -->
      <defs>
       <path d="M 12.40625 8.296875 
L 28.515625 8.296875 
L 28.515625 63.921875 
L 10.984375 60.40625 
L 10.984375 69.390625 
L 28.421875 72.90625 
L 38.28125 72.90625 
L 38.28125 8.296875 
L 54.390625 8.296875 
L 54.390625 0 
L 12.40625 0 
z
" id="DejaVuSans-31"/>
      </defs>
      <g transform="translate(496.779429 399.078438)scale(0.1 -0.1)">
       <use xlink:href="#DejaVuSans-31"/>
       <use x="63.623047" xlink:href="#DejaVuSans-2e"/>
       <use x="95.410156" xlink:href="#DejaVuSans-30"/>
      </g>
     </g>
    </g>
    <g id="text_9">
     <!-- Real $\mu$ -->
     <defs>
      <path d="M 44.390625 34.1875 
Q 47.5625 33.109375 50.5625 29.59375 
Q 53.5625 26.078125 56.59375 19.921875 
L 66.609375 0 
L 56 0 
L 46.6875 18.703125 
Q 43.0625 26.03125 39.671875 28.421875 
Q 36.28125 30.8125 30.421875 30.8125 
L 19.671875 30.8125 
L 19.671875 0 
L 9.8125 0 
L 9.8125 72.90625 
L 32.078125 72.90625 
Q 44.578125 72.90625 50.734375 67.671875 
Q 56.890625 62.453125 56.890625 51.90625 
Q 56.890625 45.015625 53.6875 40.46875 
Q 50.484375 35.9375 44.390625 34.1875 
z
M 19.671875 64.796875 
L 19.671875 38.921875 
L 32.078125 38.921875 
Q 39.203125 38.921875 42.84375 42.21875 
Q 46.484375 45.515625 46.484375 51.90625 
Q 46.484375 58.296875 42.84375 61.546875 
Q 39.203125 64.796875 32.078125 64.796875 
z
" id="DejaVuSans-52"/>
      <path d="M 56.203125 29.59375 
L 56.203125 25.203125 
L 14.890625 25.203125 
Q 15.484375 15.921875 20.484375 11.0625 
Q 25.484375 6.203125 34.421875 6.203125 
Q 39.59375 6.203125 44.453125 7.46875 
Q 49.3125 8.734375 54.109375 11.28125 
L 54.109375 2.78125 
Q 49.265625 0.734375 44.1875 -0.34375 
Q 39.109375 -1.421875 33.890625 -1.421875 
Q 20.796875 -1.421875 13.15625 6.1875 
Q 5.515625 13.8125 5.515625 26.8125 
Q 5.515625 40.234375 12.765625 48.109375 
Q 20.015625 56 32.328125 56 
Q 43.359375 56 49.78125 48.890625 
Q 56.203125 41.796875 56.203125 29.59375 
z
M 47.21875 32.234375 
Q 47.125 39.59375 43.09375 43.984375 
Q 39.0625 48.390625 32.421875 48.390625 
Q 24.90625 48.390625 20.390625 44.140625 
Q 15.875 39.890625 15.1875 32.171875 
z
" id="DejaVuSans-65"/>
      <path d="M 34.28125 27.484375 
Q 23.390625 27.484375 19.1875 25 
Q 14.984375 22.515625 14.984375 16.5 
Q 14.984375 11.71875 18.140625 8.90625 
Q 21.296875 6.109375 26.703125 6.109375 
Q 34.1875 6.109375 38.703125 11.40625 
Q 43.21875 16.703125 43.21875 25.484375 
L 43.21875 27.484375 
z
M 52.203125 31.203125 
L 52.203125 0 
L 43.21875 0 
L 43.21875 8.296875 
Q 40.140625 3.328125 35.546875 0.953125 
Q 30.953125 -1.421875 24.3125 -1.421875 
Q 15.921875 -1.421875 10.953125 3.296875 
Q 6 8.015625 6 15.921875 
Q 6 25.140625 12.171875 29.828125 
Q 18.359375 34.515625 30.609375 34.515625 
L 43.21875 34.515625 
L 43.21875 35.40625 
Q 43.21875 41.609375 39.140625 45 
Q 35.0625 48.390625 27.6875 48.390625 
Q 23 48.390625 18.546875 47.265625 
Q 14.109375 46.140625 10.015625 43.890625 
L 10.015625 52.203125 
Q 14.9375 54.109375 19.578125 55.046875 
Q 24.21875 56 28.609375 56 
Q 40.484375 56 46.34375 49.84375 
Q 52.203125 43.703125 52.203125 31.203125 
z
" id="DejaVuSans-61"/>
      <path d="M 9.421875 75.984375 
L 18.40625 75.984375 
L 18.40625 0 
L 9.421875 0 
z
" id="DejaVuSans-6c"/>
      <path id="DejaVuSans-20"/>
      <path d="M -1.3125 -20.796875 
L 13.375 54.6875 
L 22.40625 54.6875 
L 15.765625 20.65625 
Q 15.578125 19.625 15.421875 18.359375 
Q 15.28125 17.09375 15.28125 15.828125 
Q 15.28125 11.28125 18.140625 8.828125 
Q 21 6.390625 26.3125 6.390625 
Q 33.546875 6.390625 37.984375 10.484375 
Q 42.4375 14.59375 44 22.796875 
L 50.203125 54.6875 
L 59.1875 54.6875 
L 51.03125 12.640625 
Q 50.828125 11.71875 50.75 11.03125 
Q 50.6875 10.359375 50.6875 9.8125 
Q 50.6875 8.296875 51.296875 7.59375 
Q 51.90625 6.890625 53.21875 6.890625 
Q 53.71875 6.890625 54.5625 7.125 
Q 55.421875 7.375 56.984375 8.015625 
L 55.609375 0.78125 
Q 53.46875 -0.296875 51.515625 -0.859375 
Q 49.5625 -1.421875 47.703125 -1.421875 
Q 44.484375 -1.421875 42.65625 0.625 
Q 40.828125 2.6875 40.828125 6.296875 
Q 38.09375 2.390625 34.296875 0.484375 
Q 30.515625 -1.421875 25.390625 -1.421875 
Q 20.84375 -1.421875 17.453125 0.671875 
Q 14.0625 2.78125 12.984375 6.203125 
L 7.71875 -20.796875 
z
" id="DejaVuSans-Oblique-3bc"/>
     </defs>
     <g transform="translate(279.4 412.758125)scale(0.1 -0.1)">
      <use transform="translate(0 0.015625)" xlink:href="#DejaVuSans-52"/>
      <use transform="translate(69.482422 0.015625)" xlink:href="#DejaVuSans-65"/>
      <use transform="translate(131.005859 0.015625)" xlink:href="#DejaVuSans-61"/>
      <use transform="translate(192.285156 0.015625)" xlink:href="#DejaVuSans-6c"/>
      <use transform="translate(220.068359 0.015625)" xlink:href="#DejaVuSans-20"/>
      <use transform="translate(251.855469 0.015625)" xlink:href="#DejaVuSans-Oblique-3bc"/>
     </g>
    </g>
   </g>
   <g id="matplotlib.axis_2">
    <g id="ytick_1">
     <g id="line2d_17">
      <path clip-path="url(#p4758d3b1f2)" d="M 72 318.819861 
L 518.4 318.819861 
" style="fill:none;stroke:#b0b0b0;stroke-linecap:square;stroke-width:0.8;"/>
     </g>
     <g id="line2d_18">
      <defs>
       <path d="M 0 0 
L -3.5 0 
" id="m281d4acf8a" style="stroke:#000000;stroke-width:0.8;"/>
      </defs>
      <g>
       <use style="stroke:#000000;stroke-width:0.8;" x="72" xlink:href="#m281d4acf8a" y="318.819861"/>
      </g>
     </g>
     <g id="text_10">
      <!-- 0.4 -->
      <g transform="translate(49.096875 322.619079)scale(0.1 -0.1)">
       <use xlink:href="#DejaVuSans-30"/>
       <use x="63.623047" xlink:href="#DejaVuSans-2e"/>
       <use x="95.410156" xlink:href="#DejaVuSans-34"/>
      </g>
     </g>
    </g>
    <g id="ytick_2">
     <g id="line2d_19">
      <path clip-path="url(#p4758d3b1f2)" d="M 72 249.27104 
L 518.4 249.27104 
" style="fill:none;stroke:#b0b0b0;stroke-linecap:square;stroke-width:0.8;"/>
     </g>
     <g id="line2d_20">
      <g>
       <use style="stroke:#000000;stroke-width:0.8;" x="72" xlink:href="#m281d4acf8a" y="249.27104"/>
      </g>
     </g>
     <g id="text_11">
      <!-- 0.6 -->
      <g transform="translate(49.096875 253.070259)scale(0.1 -0.1)">
       <use xlink:href="#DejaVuSans-30"/>
       <use x="63.623047" xlink:href="#DejaVuSans-2e"/>
       <use x="95.410156" xlink:href="#DejaVuSans-36"/>
      </g>
     </g>
    </g>
    <g id="ytick_3">
     <g id="line2d_21">
      <path clip-path="url(#p4758d3b1f2)" d="M 72 179.72222 
L 518.4 179.72222 
" style="fill:none;stroke:#b0b0b0;stroke-linecap:square;stroke-width:0.8;"/>
     </g>
     <g id="line2d_22">
      <g>
       <use style="stroke:#000000;stroke-width:0.8;" x="72" xlink:href="#m281d4acf8a" y="179.72222"/>
      </g>
     </g>
     <g id="text_12">
      <!-- 0.8 -->
      <g transform="translate(49.096875 183.521439)scale(0.1 -0.1)">
       <use xlink:href="#DejaVuSans-30"/>
       <use x="63.623047" xlink:href="#DejaVuSans-2e"/>
       <use x="95.410156" xlink:href="#DejaVuSans-38"/>
      </g>
     </g>
    </g>
    <g id="ytick_4">
     <g id="line2d_23">
      <path clip-path="url(#p4758d3b1f2)" d="M 72 110.1734 
L 518.4 110.1734 
" style="fill:none;stroke:#b0b0b0;stroke-linecap:square;stroke-width:0.8;"/>
     </g>
     <g id="line2d_24">
      <g>
       <use style="stroke:#000000;stroke-width:0.8;" x="72" xlink:href="#m281d4acf8a" y="110.1734"/>
      </g>
     </g>
     <g id="text_13">
      <!-- 1.0 -->
      <g transform="translate(49.096875 113.972619)scale(0.1 -0.1)">
       <use xlink:href="#DejaVuSans-31"/>
       <use x="63.623047" xlink:href="#DejaVuSans-2e"/>
       <use x="95.410156" xlink:href="#DejaVuSans-30"/>
      </g>
     </g>
    </g>
    <g id="text_14">
     <!-- Predicted -->
     <defs>
      <path d="M 19.671875 64.796875 
L 19.671875 37.40625 
L 32.078125 37.40625 
Q 38.96875 37.40625 42.71875 40.96875 
Q 46.484375 44.53125 46.484375 51.125 
Q 46.484375 57.671875 42.71875 61.234375 
Q 38.96875 64.796875 32.078125 64.796875 
z
M 9.8125 72.90625 
L 32.078125 72.90625 
Q 44.34375 72.90625 50.609375 67.359375 
Q 56.890625 61.8125 56.890625 51.125 
Q 56.890625 40.328125 50.609375 34.8125 
Q 44.34375 29.296875 32.078125 29.296875 
L 19.671875 29.296875 
L 19.671875 0 
L 9.8125 0 
z
" id="DejaVuSans-50"/>
      <path d="M 41.109375 46.296875 
Q 39.59375 47.171875 37.8125 47.578125 
Q 36.03125 48 33.890625 48 
Q 26.265625 48 22.1875 43.046875 
Q 18.109375 38.09375 18.109375 28.8125 
L 18.109375 0 
L 9.078125 0 
L 9.078125 54.6875 
L 18.109375 54.6875 
L 18.109375 46.1875 
Q 20.953125 51.171875 25.484375 53.578125 
Q 30.03125 56 36.53125 56 
Q 37.453125 56 38.578125 55.875 
Q 39.703125 55.765625 41.0625 55.515625 
z
" id="DejaVuSans-72"/>
      <path d="M 45.40625 46.390625 
L 45.40625 75.984375 
L 54.390625 75.984375 
L 54.390625 0 
L 45.40625 0 
L 45.40625 8.203125 
Q 42.578125 3.328125 38.25 0.953125 
Q 33.9375 -1.421875 27.875 -1.421875 
Q 17.96875 -1.421875 11.734375 6.484375 
Q 5.515625 14.40625 5.515625 27.296875 
Q 5.515625 40.1875 11.734375 48.09375 
Q 17.96875 56 27.875 56 
Q 33.9375 56 38.25 53.625 
Q 42.578125 51.265625 45.40625 46.390625 
z
M 14.796875 27.296875 
Q 14.796875 17.390625 18.875 11.75 
Q 22.953125 6.109375 30.078125 6.109375 
Q 37.203125 6.109375 41.296875 11.75 
Q 45.40625 17.390625 45.40625 27.296875 
Q 45.40625 37.203125 41.296875 42.84375 
Q 37.203125 48.484375 30.078125 48.484375 
Q 22.953125 48.484375 18.875 42.84375 
Q 14.796875 37.203125 14.796875 27.296875 
z
" id="DejaVuSans-64"/>
      <path d="M 9.421875 54.6875 
L 18.40625 54.6875 
L 18.40625 0 
L 9.421875 0 
z
M 9.421875 75.984375 
L 18.40625 75.984375 
L 18.40625 64.59375 
L 9.421875 64.59375 
z
" id="DejaVuSans-69"/>
      <path d="M 48.78125 52.59375 
L 48.78125 44.1875 
Q 44.96875 46.296875 41.140625 47.34375 
Q 37.3125 48.390625 33.40625 48.390625 
Q 24.65625 48.390625 19.8125 42.84375 
Q 14.984375 37.3125 14.984375 27.296875 
Q 14.984375 17.28125 19.8125 11.734375 
Q 24.65625 6.203125 33.40625 6.203125 
Q 37.3125 6.203125 41.140625 7.25 
Q 44.96875 8.296875 48.78125 10.40625 
L 48.78125 2.09375 
Q 45.015625 0.34375 40.984375 -0.53125 
Q 36.96875 -1.421875 32.421875 -1.421875 
Q 20.0625 -1.421875 12.78125 6.34375 
Q 5.515625 14.109375 5.515625 27.296875 
Q 5.515625 40.671875 12.859375 48.328125 
Q 20.21875 56 33.015625 56 
Q 37.15625 56 41.109375 55.140625 
Q 45.0625 54.296875 48.78125 52.59375 
z
" id="DejaVuSans-63"/>
      <path d="M 18.3125 70.21875 
L 18.3125 54.6875 
L 36.8125 54.6875 
L 36.8125 47.703125 
L 18.3125 47.703125 
L 18.3125 18.015625 
Q 18.3125 11.328125 20.140625 9.421875 
Q 21.96875 7.515625 27.59375 7.515625 
L 36.8125 7.515625 
L 36.8125 0 
L 27.59375 0 
Q 17.1875 0 13.234375 3.875 
Q 9.28125 7.765625 9.28125 18.015625 
L 9.28125 47.703125 
L 2.6875 47.703125 
L 2.6875 54.6875 
L 9.28125 54.6875 
L 9.28125 70.21875 
z
" id="DejaVuSans-74"/>
     </defs>
     <g transform="translate(43.017187 241.827969)rotate(-90)scale(0.1 -0.1)">
      <use xlink:href="#DejaVuSans-50"/>
      <use x="60.287109" xlink:href="#DejaVuSans-72"/>
      <use x="101.369141" xlink:href="#DejaVuSans-65"/>
      <use x="162.892578" xlink:href="#DejaVuSans-64"/>
      <use x="226.369141" xlink:href="#DejaVuSans-69"/>
      <use x="254.152344" xlink:href="#DejaVuSans-63"/>
      <use x="309.132812" xlink:href="#DejaVuSans-74"/>
      <use x="348.341797" xlink:href="#DejaVuSans-65"/>
      <use x="409.865234" xlink:href="#DejaVuSans-64"/>
     </g>
    </g>
   </g>
   <g id="line2d_25">
    <path clip-path="url(#p4758d3b1f2)" d="M 335.619371 216.446936 
L 139.150685 339.912266 
L 139.150685 339.912266 
L 139.150685 339.912266 
L 493.887748 116.987538 
L 280.990435 250.776985 
L 280.990435 250.776985 
L 125.896955 348.241207 
L 125.896955 348.241207 
L 125.896955 348.241207 
L 391.549315 181.299305 
L 164.402405 324.043518 
L 164.402405 324.043518 
L 104.871162 361.454287 
L 104.871162 361.454287 
L 104.871162 361.454287 
L 495.39259 116.041861 
L 139.649897 339.59855 
L 139.649897 339.59855 
L 94.55876 367.934831 
L 94.55876 367.934831 
L 94.55876 367.934831 
L 493.220142 117.407077 
L 450.125672 144.488608 
L 450.125672 144.488608 
L 92.290909 369.36 
L 430.70184 156.69498 
L 430.70184 156.69498 
L 469.462066 132.337184 
L 469.462066 132.337184 
L 469.462066 132.337184 
L 113.51699 356.021055 
L 182.082137 312.933178 
L 182.082137 312.933178 
L 488.408109 120.431066 
L 456.419427 140.533472 
L 456.419427 140.533472 
L 102.696487 362.820901 
L 395.523683 178.801723 
L 395.523683 178.801723 
L 472.620174 130.352558 
L 416.225864 165.792008 
L 416.225864 165.792008 
L 166.680795 322.611727 
L 407.579509 171.225571 
L 407.579509 171.225571 
L 441.280595 150.047053 
L 441.280595 150.047053 
L 441.280595 150.047053 
L 317.689662 227.714367 
L 317.689662 227.714367 
L 317.689662 227.714367 
L 498.109091 114.334751 
L 462.277412 136.852182 
L 462.277412 136.852182 
L 102.761068 362.780317 
L 339.493075 214.012614 
L 339.493075 214.012614 
L 469.715375 132.178 
L 437.147085 152.644643 
L 437.147085 152.644643 
L 334.184155 217.348858 
L 334.184155 217.348858 
" style="fill:none;stroke:#ff0000;stroke-dasharray:5.55,2.4;stroke-dashoffset:0;stroke-width:1.5;"/>
   </g>
   <g id="line2d_26">
    <defs>
     <path d="M 0 1.5 
C 0.397805 1.5 0.77937 1.341951 1.06066 1.06066 
C 1.341951 0.77937 1.5 0.397805 1.5 0 
C 1.5 -0.397805 1.341951 -0.77937 1.06066 -1.06066 
C 0.77937 -1.341951 0.397805 -1.5 0 -1.5 
C -0.397805 -1.5 -0.77937 -1.341951 -1.06066 -1.06066 
C -1.341951 -0.77937 -1.5 -0.397805 -1.5 0 
C -1.5 0.397805 -1.341951 0.77937 -1.06066 1.06066 
C -0.77937 1.341951 -0.397805 1.5 0 1.5 
z
" id="m14b44818da" style="stroke:#1f77b4;"/>
    </defs>
    <g clip-path="url(#p4758d3b1f2)">
     <use style="fill:#1f77b4;stroke:#1f77b4;" x="335.619371" xlink:href="#m14b44818da" y="226.37332"/>
     <use style="fill:#1f77b4;stroke:#1f77b4;" x="301.310411" xlink:href="#m14b44818da" y="240.512748"/>
     <use style="fill:#1f77b4;stroke:#1f77b4;" x="139.150685" xlink:href="#m14b44818da" y="330.453984"/>
     <use style="fill:#1f77b4;stroke:#1f77b4;" x="352.049218" xlink:href="#m14b44818da" y="206.186679"/>
     <use style="fill:#1f77b4;stroke:#1f77b4;" x="493.887748" xlink:href="#m14b44818da" y="89.609898"/>
     <use style="fill:#1f77b4;stroke:#1f77b4;" x="364.64649" xlink:href="#m14b44818da" y="190.871627"/>
     <use style="fill:#1f77b4;stroke:#1f77b4;" x="187.338812" xlink:href="#m14b44818da" y="312.541259"/>
     <use style="fill:#1f77b4;stroke:#1f77b4;" x="154.769434" xlink:href="#m14b44818da" y="321.911947"/>
     <use style="fill:#1f77b4;stroke:#1f77b4;" x="213.401201" xlink:href="#m14b44818da" y="290.758917"/>
     <use style="fill:#1f77b4;stroke:#1f77b4;" x="420.591574" xlink:href="#m14b44818da" y="140.000473"/>
     <use style="fill:#1f77b4;stroke:#1f77b4;" x="194.029136" xlink:href="#m14b44818da" y="305.009712"/>
     <use style="fill:#1f77b4;stroke:#1f77b4;" x="357.988868" xlink:href="#m14b44818da" y="205.778893"/>
     <use style="fill:#1f77b4;stroke:#1f77b4;" x="243.301129" xlink:href="#m14b44818da" y="285.014653"/>
     <use style="fill:#1f77b4;stroke:#1f77b4;" x="485.406735" xlink:href="#m14b44818da" y="73.389566"/>
     <use style="fill:#1f77b4;stroke:#1f77b4;" x="283.127262" xlink:href="#m14b44818da" y="260.038255"/>
     <use style="fill:#1f77b4;stroke:#1f77b4;" x="280.990435" xlink:href="#m14b44818da" y="277.359303"/>
     <use style="fill:#1f77b4;stroke:#1f77b4;" x="125.896955" xlink:href="#m14b44818da" y="348.673265"/>
     <use style="fill:#1f77b4;stroke:#1f77b4;" x="391.549315" xlink:href="#m14b44818da" y="167.257066"/>
     <use style="fill:#1f77b4;stroke:#1f77b4;" x="161.150477" xlink:href="#m14b44818da" y="316.699128"/>
     <use style="fill:#1f77b4;stroke:#1f77b4;" x="363.115657" xlink:href="#m14b44818da" y="191.210537"/>
     <use style="fill:#1f77b4;stroke:#1f77b4;" x="133.333846" xlink:href="#m14b44818da" y="328.402037"/>
     <use style="fill:#1f77b4;stroke:#1f77b4;" x="389.952352" xlink:href="#m14b44818da" y="196.48759"/>
     <use style="fill:#1f77b4;stroke:#1f77b4;" x="260.616763" xlink:href="#m14b44818da" y="264.516545"/>
     <use style="fill:#1f77b4;stroke:#1f77b4;" x="164.402405" xlink:href="#m14b44818da" y="313.735786"/>
     <use style="fill:#1f77b4;stroke:#1f77b4;" x="104.871162" xlink:href="#m14b44818da" y="339.977598"/>
     <use style="fill:#1f77b4;stroke:#1f77b4;" x="216.014861" xlink:href="#m14b44818da" y="288.672386"/>
     <use style="fill:#1f77b4;stroke:#1f77b4;" x="210.843909" xlink:href="#m14b44818da" y="291.668653"/>
     <use style="fill:#1f77b4;stroke:#1f77b4;" x="351.453448" xlink:href="#m14b44818da" y="206.102506"/>
     <use style="fill:#1f77b4;stroke:#1f77b4;" x="215.425441" xlink:href="#m14b44818da" y="294.470302"/>
     <use style="fill:#1f77b4;stroke:#1f77b4;" x="437.81634" xlink:href="#m14b44818da" y="143.254948"/>
     <use style="fill:#1f77b4;stroke:#1f77b4;" x="301.941637" xlink:href="#m14b44818da" y="247.818638"/>
     <use style="fill:#1f77b4;stroke:#1f77b4;" x="320.38512" xlink:href="#m14b44818da" y="225.2229"/>
     <use style="fill:#1f77b4;stroke:#1f77b4;" x="136.403576" xlink:href="#m14b44818da" y="339.529901"/>
     <use style="fill:#1f77b4;stroke:#1f77b4;" x="375.979068" xlink:href="#m14b44818da" y="193.029905"/>
     <use style="fill:#1f77b4;stroke:#1f77b4;" x="415.357789" xlink:href="#m14b44818da" y="163.608878"/>
     <use style="fill:#1f77b4;stroke:#1f77b4;" x="174.481288" xlink:href="#m14b44818da" y="330.683351"/>
     <use style="fill:#1f77b4;stroke:#1f77b4;" x="228.737419" xlink:href="#m14b44818da" y="288.631926"/>
     <use style="fill:#1f77b4;stroke:#1f77b4;" x="442.241022" xlink:href="#m14b44818da" y="119.406564"/>
     <use style="fill:#1f77b4;stroke:#1f77b4;" x="134.753889" xlink:href="#m14b44818da" y="345.788075"/>
     <use style="fill:#1f77b4;stroke:#1f77b4;" x="416.227481" xlink:href="#m14b44818da" y="145.839294"/>
     <use style="fill:#1f77b4;stroke:#1f77b4;" x="367.63035" xlink:href="#m14b44818da" y="200.871903"/>
     <use style="fill:#1f77b4;stroke:#1f77b4;" x="122.339606" xlink:href="#m14b44818da" y="334.391099"/>
     <use style="fill:#1f77b4;stroke:#1f77b4;" x="264.331852" xlink:href="#m14b44818da" y="265.549918"/>
     <use style="fill:#1f77b4;stroke:#1f77b4;" x="295.676544" xlink:href="#m14b44818da" y="253.899532"/>
     <use style="fill:#1f77b4;stroke:#1f77b4;" x="464.579153" xlink:href="#m14b44818da" y="98.29458"/>
     <use style="fill:#1f77b4;stroke:#1f77b4;" x="159.601718" xlink:href="#m14b44818da" y="323.909134"/>
     <use style="fill:#1f77b4;stroke:#1f77b4;" x="160.84311" xlink:href="#m14b44818da" y="316.784648"/>
     <use style="fill:#1f77b4;stroke:#1f77b4;" x="333.995559" xlink:href="#m14b44818da" y="219.234408"/>
     <use style="fill:#1f77b4;stroke:#1f77b4;" x="178.874819" xlink:href="#m14b44818da" y="309.878585"/>
     <use style="fill:#1f77b4;stroke:#1f77b4;" x="305.556228" xlink:href="#m14b44818da" y="238.877023"/>
     <use style="fill:#1f77b4;stroke:#1f77b4;" x="240.127882" xlink:href="#m14b44818da" y="280.854089"/>
     <use style="fill:#1f77b4;stroke:#1f77b4;" x="281.052509" xlink:href="#m14b44818da" y="261.954916"/>
     <use style="fill:#1f77b4;stroke:#1f77b4;" x="491.754186" xlink:href="#m14b44818da" y="88.210607"/>
     <use style="fill:#1f77b4;stroke:#1f77b4;" x="284.207484" xlink:href="#m14b44818da" y="263.891289"/>
     <use style="fill:#1f77b4;stroke:#1f77b4;" x="360.855606" xlink:href="#m14b44818da" y="192.005755"/>
     <use style="fill:#1f77b4;stroke:#1f77b4;" x="192.466656" xlink:href="#m14b44818da" y="302.805161"/>
     <use style="fill:#1f77b4;stroke:#1f77b4;" x="140.747616" xlink:href="#m14b44818da" y="327.348164"/>
     <use style="fill:#1f77b4;stroke:#1f77b4;" x="382.72881" xlink:href="#m14b44818da" y="206.880998"/>
     <use style="fill:#1f77b4;stroke:#1f77b4;" x="121.714845" xlink:href="#m14b44818da" y="349.194563"/>
     <use style="fill:#1f77b4;stroke:#1f77b4;" x="291.673053" xlink:href="#m14b44818da" y="245.521198"/>
     <use style="fill:#1f77b4;stroke:#1f77b4;" x="309.090835" xlink:href="#m14b44818da" y="236.505089"/>
     <use style="fill:#1f77b4;stroke:#1f77b4;" x="469.418265" xlink:href="#m14b44818da" y="110.189319"/>
     <use style="fill:#1f77b4;stroke:#1f77b4;" x="164.356543" xlink:href="#m14b44818da" y="318.039553"/>
     <use style="fill:#1f77b4;stroke:#1f77b4;" x="249.982828" xlink:href="#m14b44818da" y="269.789059"/>
     <use style="fill:#1f77b4;stroke:#1f77b4;" x="493.734048" xlink:href="#m14b44818da" y="84.253958"/>
     <use style="fill:#1f77b4;stroke:#1f77b4;" x="288.188283" xlink:href="#m14b44818da" y="250.964006"/>
     <use style="fill:#1f77b4;stroke:#1f77b4;" x="417.317894" xlink:href="#m14b44818da" y="150.209077"/>
     <use style="fill:#1f77b4;stroke:#1f77b4;" x="358.417975" xlink:href="#m14b44818da" y="196.248751"/>
     <use style="fill:#1f77b4;stroke:#1f77b4;" x="182.050671" xlink:href="#m14b44818da" y="311.932813"/>
     <use style="fill:#1f77b4;stroke:#1f77b4;" x="495.39259" xlink:href="#m14b44818da" y="66.96"/>
     <use style="fill:#1f77b4;stroke:#1f77b4;" x="368.0334" xlink:href="#m14b44818da" y="191.180047"/>
     <use style="fill:#1f77b4;stroke:#1f77b4;" x="359.178032" xlink:href="#m14b44818da" y="226.057023"/>
     <use style="fill:#1f77b4;stroke:#1f77b4;" x="235.325249" xlink:href="#m14b44818da" y="280.704936"/>
     <use style="fill:#1f77b4;stroke:#1f77b4;" x="370.503156" xlink:href="#m14b44818da" y="199.791582"/>
     <use style="fill:#1f77b4;stroke:#1f77b4;" x="351.882786" xlink:href="#m14b44818da" y="199.206579"/>
     <use style="fill:#1f77b4;stroke:#1f77b4;" x="435.315613" xlink:href="#m14b44818da" y="129.813051"/>
     <use style="fill:#1f77b4;stroke:#1f77b4;" x="401.67947" xlink:href="#m14b44818da" y="161.29326"/>
     <use style="fill:#1f77b4;stroke:#1f77b4;" x="284.88505" xlink:href="#m14b44818da" y="254.139055"/>
     <use style="fill:#1f77b4;stroke:#1f77b4;" x="286.381416" xlink:href="#m14b44818da" y="273.536986"/>
     <use style="fill:#1f77b4;stroke:#1f77b4;" x="279.062621" xlink:href="#m14b44818da" y="257.42259"/>
     <use style="fill:#1f77b4;stroke:#1f77b4;" x="491.976589" xlink:href="#m14b44818da" y="72.289244"/>
     <use style="fill:#1f77b4;stroke:#1f77b4;" x="392.611891" xlink:href="#m14b44818da" y="157.974716"/>
     <use style="fill:#1f77b4;stroke:#1f77b4;" x="431.307669" xlink:href="#m14b44818da" y="138.39874"/>
     <use style="fill:#1f77b4;stroke:#1f77b4;" x="451.773198" xlink:href="#m14b44818da" y="113.550518"/>
     <use style="fill:#1f77b4;stroke:#1f77b4;" x="173.73106" xlink:href="#m14b44818da" y="313.652981"/>
     <use style="fill:#1f77b4;stroke:#1f77b4;" x="339.891706" xlink:href="#m14b44818da" y="214.315375"/>
     <use style="fill:#1f77b4;stroke:#1f77b4;" x="137.367055" xlink:href="#m14b44818da" y="344.518277"/>
     <use style="fill:#1f77b4;stroke:#1f77b4;" x="213.007172" xlink:href="#m14b44818da" y="289.134404"/>
     <use style="fill:#1f77b4;stroke:#1f77b4;" x="321.449443" xlink:href="#m14b44818da" y="228.064408"/>
     <use style="fill:#1f77b4;stroke:#1f77b4;" x="249.746209" xlink:href="#m14b44818da" y="295.902777"/>
     <use style="fill:#1f77b4;stroke:#1f77b4;" x="445.514405" xlink:href="#m14b44818da" y="124.421957"/>
     <use style="fill:#1f77b4;stroke:#1f77b4;" x="333.3957" xlink:href="#m14b44818da" y="236.360932"/>
     <use style="fill:#1f77b4;stroke:#1f77b4;" x="203.035318" xlink:href="#m14b44818da" y="304.593656"/>
     <use style="fill:#1f77b4;stroke:#1f77b4;" x="406.015231" xlink:href="#m14b44818da" y="183.299766"/>
     <use style="fill:#1f77b4;stroke:#1f77b4;" x="110.581764" xlink:href="#m14b44818da" y="353.236091"/>
     <use style="fill:#1f77b4;stroke:#1f77b4;" x="237.162691" xlink:href="#m14b44818da" y="280.425368"/>
     <use style="fill:#1f77b4;stroke:#1f77b4;" x="374.003362" xlink:href="#m14b44818da" y="180.96854"/>
     <use style="fill:#1f77b4;stroke:#1f77b4;" x="394.743375" xlink:href="#m14b44818da" y="163.371075"/>
     <use style="fill:#1f77b4;stroke:#1f77b4;" x="139.649897" xlink:href="#m14b44818da" y="327.600517"/>
     <use style="fill:#1f77b4;stroke:#1f77b4;" x="94.55876" xlink:href="#m14b44818da" y="337.808935"/>
     <use style="fill:#1f77b4;stroke:#1f77b4;" x="468.389728" xlink:href="#m14b44818da" y="114.863377"/>
     <use style="fill:#1f77b4;stroke:#1f77b4;" x="249.300973" xlink:href="#m14b44818da" y="272.591931"/>
     <use style="fill:#1f77b4;stroke:#1f77b4;" x="233.352578" xlink:href="#m14b44818da" y="289.076741"/>
     <use style="fill:#1f77b4;stroke:#1f77b4;" x="166.841784" xlink:href="#m14b44818da" y="317.109246"/>
     <use style="fill:#1f77b4;stroke:#1f77b4;" x="217.423163" xlink:href="#m14b44818da" y="287.722543"/>
     <use style="fill:#1f77b4;stroke:#1f77b4;" x="486.882388" xlink:href="#m14b44818da" y="68.121136"/>
     <use style="fill:#1f77b4;stroke:#1f77b4;" x="355.898481" xlink:href="#m14b44818da" y="198.508592"/>
     <use style="fill:#1f77b4;stroke:#1f77b4;" x="362.74018" xlink:href="#m14b44818da" y="206.353036"/>
     <use style="fill:#1f77b4;stroke:#1f77b4;" x="156.83797" xlink:href="#m14b44818da" y="318.897482"/>
     <use style="fill:#1f77b4;stroke:#1f77b4;" x="493.220142" xlink:href="#m14b44818da" y="79.501426"/>
     <use style="fill:#1f77b4;stroke:#1f77b4;" x="196.269529" xlink:href="#m14b44818da" y="308.258477"/>
     <use style="fill:#1f77b4;stroke:#1f77b4;" x="486.669319" xlink:href="#m14b44818da" y="92.117636"/>
     <use style="fill:#1f77b4;stroke:#1f77b4;" x="411.376792" xlink:href="#m14b44818da" y="162.927887"/>
     <use style="fill:#1f77b4;stroke:#1f77b4;" x="109.496446" xlink:href="#m14b44818da" y="350.83546"/>
     <use style="fill:#1f77b4;stroke:#1f77b4;" x="299.375703" xlink:href="#m14b44818da" y="265.987116"/>
     <use style="fill:#1f77b4;stroke:#1f77b4;" x="450.125672" xlink:href="#m14b44818da" y="120.336758"/>
     <use style="fill:#1f77b4;stroke:#1f77b4;" x="92.290909" xlink:href="#m14b44818da" y="339.566288"/>
     <use style="fill:#1f77b4;stroke:#1f77b4;" x="106.207017" xlink:href="#m14b44818da" y="334.37034"/>
     <use style="fill:#1f77b4;stroke:#1f77b4;" x="357.256649" xlink:href="#m14b44818da" y="226.681222"/>
     <use style="fill:#1f77b4;stroke:#1f77b4;" x="100.644294" xlink:href="#m14b44818da" y="338.787206"/>
     <use style="fill:#1f77b4;stroke:#1f77b4;" x="430.70184" xlink:href="#m14b44818da" y="148.64428"/>
     <use style="fill:#1f77b4;stroke:#1f77b4;" x="469.462066" xlink:href="#m14b44818da" y="100.802028"/>
     <use style="fill:#1f77b4;stroke:#1f77b4;" x="113.51699" xlink:href="#m14b44818da" y="333.65545"/>
     <use style="fill:#1f77b4;stroke:#1f77b4;" x="295.272933" xlink:href="#m14b44818da" y="266.795849"/>
     <use style="fill:#1f77b4;stroke:#1f77b4;" x="238.000554" xlink:href="#m14b44818da" y="282.084454"/>
     <use style="fill:#1f77b4;stroke:#1f77b4;" x="224.750864" xlink:href="#m14b44818da" y="294.979848"/>
     <use style="fill:#1f77b4;stroke:#1f77b4;" x="233.842109" xlink:href="#m14b44818da" y="288.84894"/>
     <use style="fill:#1f77b4;stroke:#1f77b4;" x="292.553365" xlink:href="#m14b44818da" y="248.137215"/>
     <use style="fill:#1f77b4;stroke:#1f77b4;" x="333.234777" xlink:href="#m14b44818da" y="217.857171"/>
     <use style="fill:#1f77b4;stroke:#1f77b4;" x="182.082137" xlink:href="#m14b44818da" y="309.568496"/>
     <use style="fill:#1f77b4;stroke:#1f77b4;" x="486.470729" xlink:href="#m14b44818da" y="83.683214"/>
     <use style="fill:#1f77b4;stroke:#1f77b4;" x="342.251596" xlink:href="#m14b44818da" y="235.444936"/>
     <use style="fill:#1f77b4;stroke:#1f77b4;" x="358.821191" xlink:href="#m14b44818da" y="207.768597"/>
     <use style="fill:#1f77b4;stroke:#1f77b4;" x="264.605742" xlink:href="#m14b44818da" y="266.309258"/>
     <use style="fill:#1f77b4;stroke:#1f77b4;" x="488.408109" xlink:href="#m14b44818da" y="81.826019"/>
     <use style="fill:#1f77b4;stroke:#1f77b4;" x="456.419427" xlink:href="#m14b44818da" y="118.355324"/>
     <use style="fill:#1f77b4;stroke:#1f77b4;" x="102.696487" xlink:href="#m14b44818da" y="335.43495"/>
     <use style="fill:#1f77b4;stroke:#1f77b4;" x="241.231554" xlink:href="#m14b44818da" y="279.759156"/>
     <use style="fill:#1f77b4;stroke:#1f77b4;" x="410.509705" xlink:href="#m14b44818da" y="157.354477"/>
     <use style="fill:#1f77b4;stroke:#1f77b4;" x="132.541499" xlink:href="#m14b44818da" y="333.524879"/>
     <use style="fill:#1f77b4;stroke:#1f77b4;" x="268.615137" xlink:href="#m14b44818da" y="257.128783"/>
     <use style="fill:#1f77b4;stroke:#1f77b4;" x="254.096713" xlink:href="#m14b44818da" y="272.655335"/>
     <use style="fill:#1f77b4;stroke:#1f77b4;" x="271.564761" xlink:href="#m14b44818da" y="254.234193"/>
     <use style="fill:#1f77b4;stroke:#1f77b4;" x="392.481477" xlink:href="#m14b44818da" y="166.205224"/>
     <use style="fill:#1f77b4;stroke:#1f77b4;" x="347.106342" xlink:href="#m14b44818da" y="208.29258"/>
     <use style="fill:#1f77b4;stroke:#1f77b4;" x="379.928138" xlink:href="#m14b44818da" y="186.264434"/>
     <use style="fill:#1f77b4;stroke:#1f77b4;" x="410.206824" xlink:href="#m14b44818da" y="180.236312"/>
     <use style="fill:#1f77b4;stroke:#1f77b4;" x="395.523683" xlink:href="#m14b44818da" y="172.00369"/>
     <use style="fill:#1f77b4;stroke:#1f77b4;" x="472.620174" xlink:href="#m14b44818da" y="127.400368"/>
     <use style="fill:#1f77b4;stroke:#1f77b4;" x="416.225864" xlink:href="#m14b44818da" y="152.241003"/>
     <use style="fill:#1f77b4;stroke:#1f77b4;" x="197.934916" xlink:href="#m14b44818da" y="302.929078"/>
     <use style="fill:#1f77b4;stroke:#1f77b4;" x="199.066805" xlink:href="#m14b44818da" y="302.374481"/>
     <use style="fill:#1f77b4;stroke:#1f77b4;" x="337.665396" xlink:href="#m14b44818da" y="216.831239"/>
     <use style="fill:#1f77b4;stroke:#1f77b4;" x="166.680795" xlink:href="#m14b44818da" y="327.88052"/>
     <use style="fill:#1f77b4;stroke:#1f77b4;" x="218.714623" xlink:href="#m14b44818da" y="298.990907"/>
     <use style="fill:#1f77b4;stroke:#1f77b4;" x="394.471365" xlink:href="#m14b44818da" y="170.391241"/>
     <use style="fill:#1f77b4;stroke:#1f77b4;" x="357.444157" xlink:href="#m14b44818da" y="208.466875"/>
     <use style="fill:#1f77b4;stroke:#1f77b4;" x="413.445938" xlink:href="#m14b44818da" y="152.328513"/>
     <use style="fill:#1f77b4;stroke:#1f77b4;" x="347.160368" xlink:href="#m14b44818da" y="215.2818"/>
     <use style="fill:#1f77b4;stroke:#1f77b4;" x="407.579509" xlink:href="#m14b44818da" y="166.028587"/>
     <use style="fill:#1f77b4;stroke:#1f77b4;" x="435.311259" xlink:href="#m14b44818da" y="162.566301"/>
     <use style="fill:#1f77b4;stroke:#1f77b4;" x="441.280595" xlink:href="#m14b44818da" y="139.392089"/>
     <use style="fill:#1f77b4;stroke:#1f77b4;" x="385.765311" xlink:href="#m14b44818da" y="177.136917"/>
     <use style="fill:#1f77b4;stroke:#1f77b4;" x="317.689662" xlink:href="#m14b44818da" y="231.793722"/>
     <use style="fill:#1f77b4;stroke:#1f77b4;" x="498.109091" xlink:href="#m14b44818da" y="108.255516"/>
     <use style="fill:#1f77b4;stroke:#1f77b4;" x="409.39848" xlink:href="#m14b44818da" y="168.287144"/>
     <use style="fill:#1f77b4;stroke:#1f77b4;" x="405.491628" xlink:href="#m14b44818da" y="153.813987"/>
     <use style="fill:#1f77b4;stroke:#1f77b4;" x="454.4708" xlink:href="#m14b44818da" y="108.741526"/>
     <use style="fill:#1f77b4;stroke:#1f77b4;" x="462.277412" xlink:href="#m14b44818da" y="99.51997"/>
     <use style="fill:#1f77b4;stroke:#1f77b4;" x="242.562049" xlink:href="#m14b44818da" y="283.759644"/>
     <use style="fill:#1f77b4;stroke:#1f77b4;" x="176.334677" xlink:href="#m14b44818da" y="313.052131"/>
     <use style="fill:#1f77b4;stroke:#1f77b4;" x="292.56171" xlink:href="#m14b44818da" y="254.372588"/>
     <use style="fill:#1f77b4;stroke:#1f77b4;" x="164.448317" xlink:href="#m14b44818da" y="316.058948"/>
     <use style="fill:#1f77b4;stroke:#1f77b4;" x="342.136354" xlink:href="#m14b44818da" y="204.888496"/>
     <use style="fill:#1f77b4;stroke:#1f77b4;" x="163.258543" xlink:href="#m14b44818da" y="316.832445"/>
     <use style="fill:#1f77b4;stroke:#1f77b4;" x="102.761068" xlink:href="#m14b44818da" y="338.856497"/>
     <use style="fill:#1f77b4;stroke:#1f77b4;" x="221.667858" xlink:href="#m14b44818da" y="310.164734"/>
     <use style="fill:#1f77b4;stroke:#1f77b4;" x="197.770892" xlink:href="#m14b44818da" y="307.507335"/>
     <use style="fill:#1f77b4;stroke:#1f77b4;" x="282.753929" xlink:href="#m14b44818da" y="259.071395"/>
     <use style="fill:#1f77b4;stroke:#1f77b4;" x="164.238464" xlink:href="#m14b44818da" y="318.062913"/>
     <use style="fill:#1f77b4;stroke:#1f77b4;" x="131.550084" xlink:href="#m14b44818da" y="333.773688"/>
     <use style="fill:#1f77b4;stroke:#1f77b4;" x="119.71493" xlink:href="#m14b44818da" y="331.677675"/>
     <use style="fill:#1f77b4;stroke:#1f77b4;" x="133.126384" xlink:href="#m14b44818da" y="345.155098"/>
     <use style="fill:#1f77b4;stroke:#1f77b4;" x="419.246665" xlink:href="#m14b44818da" y="143.807783"/>
     <use style="fill:#1f77b4;stroke:#1f77b4;" x="257.553316" xlink:href="#m14b44818da" y="273.238224"/>
     <use style="fill:#1f77b4;stroke:#1f77b4;" x="268.052318" xlink:href="#m14b44818da" y="268.896547"/>
     <use style="fill:#1f77b4;stroke:#1f77b4;" x="168.667863" xlink:href="#m14b44818da" y="319.623109"/>
     <use style="fill:#1f77b4;stroke:#1f77b4;" x="371.644429" xlink:href="#m14b44818da" y="197.965312"/>
     <use style="fill:#1f77b4;stroke:#1f77b4;" x="388.942978" xlink:href="#m14b44818da" y="161.760098"/>
     <use style="fill:#1f77b4;stroke:#1f77b4;" x="186.922041" xlink:href="#m14b44818da" y="304.615979"/>
     <use style="fill:#1f77b4;stroke:#1f77b4;" x="447.309794" xlink:href="#m14b44818da" y="122.662221"/>
     <use style="fill:#1f77b4;stroke:#1f77b4;" x="262.264685" xlink:href="#m14b44818da" y="265.79139"/>
     <use style="fill:#1f77b4;stroke:#1f77b4;" x="441.461572" xlink:href="#m14b44818da" y="116.655116"/>
     <use style="fill:#1f77b4;stroke:#1f77b4;" x="173.515122" xlink:href="#m14b44818da" y="312.887257"/>
     <use style="fill:#1f77b4;stroke:#1f77b4;" x="339.493075" xlink:href="#m14b44818da" y="219.459215"/>
     <use style="fill:#1f77b4;stroke:#1f77b4;" x="469.715375" xlink:href="#m14b44818da" y="107.211323"/>
     <use style="fill:#1f77b4;stroke:#1f77b4;" x="437.147085" xlink:href="#m14b44818da" y="139.881374"/>
     <use style="fill:#1f77b4;stroke:#1f77b4;" x="336.479696" xlink:href="#m14b44818da" y="209.02058"/>
     <use style="fill:#1f77b4;stroke:#1f77b4;" x="389.759468" xlink:href="#m14b44818da" y="181.898402"/>
     <use style="fill:#1f77b4;stroke:#1f77b4;" x="334.184155" xlink:href="#m14b44818da" y="224.655764"/>
    </g>
   </g>
   <g id="patch_3">
    <path d="M 72 384.48 
L 72 51.84 
" style="fill:none;stroke:#000000;stroke-linecap:square;stroke-linejoin:miter;stroke-width:0.8;"/>
   </g>
   <g id="patch_4">
    <path d="M 518.4 384.48 
L 518.4 51.84 
" style="fill:none;stroke:#000000;stroke-linecap:square;stroke-linejoin:miter;stroke-width:0.8;"/>
   </g>
   <g id="patch_5">
    <path d="M 72 384.48 
L 518.4 384.48 
" style="fill:none;stroke:#000000;stroke-linecap:square;stroke-linejoin:miter;stroke-width:0.8;"/>
   </g>
   <g id="patch_6">
    <path d="M 72 51.84 
L 518.4 51.84 
" style="fill:none;stroke:#000000;stroke-linecap:square;stroke-linejoin:miter;stroke-width:0.8;"/>
   </g>
   <g id="text_15">
    <g id="patch_7">
     <path d="M 82.092 152.634719 
L 200.018875 152.634719 
L 200.018875 98.436 
L 82.092 98.436 
z
" style="fill:#ffffff;opacity:0.5;stroke:#000000;stroke-linejoin:miter;"/>
    </g>
    <!-- MSE:2.1873E-3 -->
    <defs>
     <path d="M 9.8125 72.90625 
L 24.515625 72.90625 
L 43.109375 23.296875 
L 61.8125 72.90625 
L 76.515625 72.90625 
L 76.515625 0 
L 66.890625 0 
L 66.890625 64.015625 
L 48.09375 14.015625 
L 38.1875 14.015625 
L 19.390625 64.015625 
L 19.390625 0 
L 9.8125 0 
z
" id="DejaVuSans-4d"/>
     <path d="M 53.515625 70.515625 
L 53.515625 60.890625 
Q 47.90625 63.578125 42.921875 64.890625 
Q 37.9375 66.21875 33.296875 66.21875 
Q 25.25 66.21875 20.875 63.09375 
Q 16.5 59.96875 16.5 54.203125 
Q 16.5 49.359375 19.40625 46.890625 
Q 22.3125 44.4375 30.421875 42.921875 
L 36.375 41.703125 
Q 47.40625 39.59375 52.65625 34.296875 
Q 57.90625 29 57.90625 20.125 
Q 57.90625 9.515625 50.796875 4.046875 
Q 43.703125 -1.421875 29.984375 -1.421875 
Q 24.8125 -1.421875 18.96875 -0.25 
Q 13.140625 0.921875 6.890625 3.21875 
L 6.890625 13.375 
Q 12.890625 10.015625 18.65625 8.296875 
Q 24.421875 6.59375 29.984375 6.59375 
Q 38.421875 6.59375 43.015625 9.90625 
Q 47.609375 13.234375 47.609375 19.390625 
Q 47.609375 24.75 44.3125 27.78125 
Q 41.015625 30.8125 33.5 32.328125 
L 27.484375 33.5 
Q 16.453125 35.6875 11.515625 40.375 
Q 6.59375 45.0625 6.59375 53.421875 
Q 6.59375 63.09375 13.40625 68.65625 
Q 20.21875 74.21875 32.171875 74.21875 
Q 37.3125 74.21875 42.625 73.28125 
Q 47.953125 72.359375 53.515625 70.515625 
z
" id="DejaVuSans-53"/>
     <path d="M 9.8125 72.90625 
L 55.90625 72.90625 
L 55.90625 64.59375 
L 19.671875 64.59375 
L 19.671875 43.015625 
L 54.390625 43.015625 
L 54.390625 34.71875 
L 19.671875 34.71875 
L 19.671875 8.296875 
L 56.78125 8.296875 
L 56.78125 0 
L 9.8125 0 
z
" id="DejaVuSans-45"/>
     <path d="M 11.71875 12.40625 
L 22.015625 12.40625 
L 22.015625 0 
L 11.71875 0 
z
M 11.71875 51.703125 
L 22.015625 51.703125 
L 22.015625 39.3125 
L 11.71875 39.3125 
z
" id="DejaVuSans-3a"/>
     <path d="M 19.1875 8.296875 
L 53.609375 8.296875 
L 53.609375 0 
L 7.328125 0 
L 7.328125 8.296875 
Q 12.9375 14.109375 22.625 23.890625 
Q 32.328125 33.6875 34.8125 36.53125 
Q 39.546875 41.84375 41.421875 45.53125 
Q 43.3125 49.21875 43.3125 52.78125 
Q 43.3125 58.59375 39.234375 62.25 
Q 35.15625 65.921875 28.609375 65.921875 
Q 23.96875 65.921875 18.8125 64.3125 
Q 13.671875 62.703125 7.8125 59.421875 
L 7.8125 69.390625 
Q 13.765625 71.78125 18.9375 73 
Q 24.125 74.21875 28.421875 74.21875 
Q 39.75 74.21875 46.484375 68.546875 
Q 53.21875 62.890625 53.21875 53.421875 
Q 53.21875 48.921875 51.53125 44.890625 
Q 49.859375 40.875 45.40625 35.40625 
Q 44.1875 33.984375 37.640625 27.21875 
Q 31.109375 20.453125 19.1875 8.296875 
z
" id="DejaVuSans-32"/>
     <path d="M 4.890625 31.390625 
L 31.203125 31.390625 
L 31.203125 23.390625 
L 4.890625 23.390625 
z
" id="DejaVuSans-2d"/>
    </defs>
    <g transform="translate(85.392 110.094281)scale(0.11 -0.11)">
     <use xlink:href="#DejaVuSans-4d"/>
     <use x="86.279297" xlink:href="#DejaVuSans-53"/>
     <use x="149.755859" xlink:href="#DejaVuSans-45"/>
     <use x="212.939453" xlink:href="#DejaVuSans-3a"/>
     <use x="246.630859" xlink:href="#DejaVuSans-32"/>
     <use x="310.253906" xlink:href="#DejaVuSans-2e"/>
     <use x="342.041016" xlink:href="#DejaVuSans-31"/>
     <use x="405.664062" xlink:href="#DejaVuSans-38"/>
     <use x="469.287109" xlink:href="#DejaVuSans-37"/>
     <use x="532.910156" xlink:href="#DejaVuSans-33"/>
     <use x="596.533203" xlink:href="#DejaVuSans-45"/>
     <use x="659.716797" xlink:href="#DejaVuSans-2d"/>
     <use x="695.800781" xlink:href="#DejaVuSans-33"/>
    </g>
    <!-- Training Length:800 -->
    <defs>
     <path d="M -0.296875 72.90625 
L 61.375 72.90625 
L 61.375 64.59375 
L 35.5 64.59375 
L 35.5 0 
L 25.59375 0 
L 25.59375 64.59375 
L -0.296875 64.59375 
z
" id="DejaVuSans-54"/>
     <path d="M 54.890625 33.015625 
L 54.890625 0 
L 45.90625 0 
L 45.90625 32.71875 
Q 45.90625 40.484375 42.875 44.328125 
Q 39.84375 48.1875 33.796875 48.1875 
Q 26.515625 48.1875 22.3125 43.546875 
Q 18.109375 38.921875 18.109375 30.90625 
L 18.109375 0 
L 9.078125 0 
L 9.078125 54.6875 
L 18.109375 54.6875 
L 18.109375 46.1875 
Q 21.34375 51.125 25.703125 53.5625 
Q 30.078125 56 35.796875 56 
Q 45.21875 56 50.046875 50.171875 
Q 54.890625 44.34375 54.890625 33.015625 
z
" id="DejaVuSans-6e"/>
     <path d="M 45.40625 27.984375 
Q 45.40625 37.75 41.375 43.109375 
Q 37.359375 48.484375 30.078125 48.484375 
Q 22.859375 48.484375 18.828125 43.109375 
Q 14.796875 37.75 14.796875 27.984375 
Q 14.796875 18.265625 18.828125 12.890625 
Q 22.859375 7.515625 30.078125 7.515625 
Q 37.359375 7.515625 41.375 12.890625 
Q 45.40625 18.265625 45.40625 27.984375 
z
M 54.390625 6.78125 
Q 54.390625 -7.171875 48.1875 -13.984375 
Q 42 -20.796875 29.203125 -20.796875 
Q 24.46875 -20.796875 20.265625 -20.09375 
Q 16.0625 -19.390625 12.109375 -17.921875 
L 12.109375 -9.1875 
Q 16.0625 -11.328125 19.921875 -12.34375 
Q 23.78125 -13.375 27.78125 -13.375 
Q 36.625 -13.375 41.015625 -8.765625 
Q 45.40625 -4.15625 45.40625 5.171875 
L 45.40625 9.625 
Q 42.625 4.78125 38.28125 2.390625 
Q 33.9375 0 27.875 0 
Q 17.828125 0 11.671875 7.65625 
Q 5.515625 15.328125 5.515625 27.984375 
Q 5.515625 40.671875 11.671875 48.328125 
Q 17.828125 56 27.875 56 
Q 33.9375 56 38.28125 53.609375 
Q 42.625 51.21875 45.40625 46.390625 
L 45.40625 54.6875 
L 54.390625 54.6875 
z
" id="DejaVuSans-67"/>
     <path d="M 9.8125 72.90625 
L 19.671875 72.90625 
L 19.671875 8.296875 
L 55.171875 8.296875 
L 55.171875 0 
L 9.8125 0 
z
" id="DejaVuSans-4c"/>
     <path d="M 54.890625 33.015625 
L 54.890625 0 
L 45.90625 0 
L 45.90625 32.71875 
Q 45.90625 40.484375 42.875 44.328125 
Q 39.84375 48.1875 33.796875 48.1875 
Q 26.515625 48.1875 22.3125 43.546875 
Q 18.109375 38.921875 18.109375 30.90625 
L 18.109375 0 
L 9.078125 0 
L 9.078125 75.984375 
L 18.109375 75.984375 
L 18.109375 46.1875 
Q 21.34375 51.125 25.703125 53.5625 
Q 30.078125 56 35.796875 56 
Q 45.21875 56 50.046875 50.171875 
Q 54.890625 44.34375 54.890625 33.015625 
z
" id="DejaVuSans-68"/>
    </defs>
    <g transform="translate(85.392 122.411875)scale(0.11 -0.11)">
     <use xlink:href="#DejaVuSans-54"/>
     <use x="60.865234" xlink:href="#DejaVuSans-72"/>
     <use x="101.978516" xlink:href="#DejaVuSans-61"/>
     <use x="163.257812" xlink:href="#DejaVuSans-69"/>
     <use x="191.041016" xlink:href="#DejaVuSans-6e"/>
     <use x="254.419922" xlink:href="#DejaVuSans-69"/>
     <use x="282.203125" xlink:href="#DejaVuSans-6e"/>
     <use x="345.582031" xlink:href="#DejaVuSans-67"/>
     <use x="409.058594" xlink:href="#DejaVuSans-20"/>
     <use x="440.845703" xlink:href="#DejaVuSans-4c"/>
     <use x="496.542969" xlink:href="#DejaVuSans-65"/>
     <use x="558.066406" xlink:href="#DejaVuSans-6e"/>
     <use x="621.445312" xlink:href="#DejaVuSans-67"/>
     <use x="684.921875" xlink:href="#DejaVuSans-74"/>
     <use x="724.130859" xlink:href="#DejaVuSans-68"/>
     <use x="787.509766" xlink:href="#DejaVuSans-3a"/>
     <use x="821.201172" xlink:href="#DejaVuSans-38"/>
     <use x="884.824219" xlink:href="#DejaVuSans-30"/>
     <use x="948.447266" xlink:href="#DejaVuSans-30"/>
    </g>
    <!-- Epoch:20 -->
    <defs>
     <path d="M 18.109375 8.203125 
L 18.109375 -20.796875 
L 9.078125 -20.796875 
L 9.078125 54.6875 
L 18.109375 54.6875 
L 18.109375 46.390625 
Q 20.953125 51.265625 25.265625 53.625 
Q 29.59375 56 35.59375 56 
Q 45.5625 56 51.78125 48.09375 
Q 58.015625 40.1875 58.015625 27.296875 
Q 58.015625 14.40625 51.78125 6.484375 
Q 45.5625 -1.421875 35.59375 -1.421875 
Q 29.59375 -1.421875 25.265625 0.953125 
Q 20.953125 3.328125 18.109375 8.203125 
z
M 48.6875 27.296875 
Q 48.6875 37.203125 44.609375 42.84375 
Q 40.53125 48.484375 33.40625 48.484375 
Q 26.265625 48.484375 22.1875 42.84375 
Q 18.109375 37.203125 18.109375 27.296875 
Q 18.109375 17.390625 22.1875 11.75 
Q 26.265625 6.109375 33.40625 6.109375 
Q 40.53125 6.109375 44.609375 11.75 
Q 48.6875 17.390625 48.6875 27.296875 
z
" id="DejaVuSans-70"/>
     <path d="M 30.609375 48.390625 
Q 23.390625 48.390625 19.1875 42.75 
Q 14.984375 37.109375 14.984375 27.296875 
Q 14.984375 17.484375 19.15625 11.84375 
Q 23.34375 6.203125 30.609375 6.203125 
Q 37.796875 6.203125 41.984375 11.859375 
Q 46.1875 17.53125 46.1875 27.296875 
Q 46.1875 37.015625 41.984375 42.703125 
Q 37.796875 48.390625 30.609375 48.390625 
z
M 30.609375 56 
Q 42.328125 56 49.015625 48.375 
Q 55.71875 40.765625 55.71875 27.296875 
Q 55.71875 13.875 49.015625 6.21875 
Q 42.328125 -1.421875 30.609375 -1.421875 
Q 18.84375 -1.421875 12.171875 6.21875 
Q 5.515625 13.875 5.515625 27.296875 
Q 5.515625 40.765625 12.171875 48.375 
Q 18.84375 56 30.609375 56 
z
" id="DejaVuSans-6f"/>
    </defs>
    <g transform="translate(85.392 134.729469)scale(0.11 -0.11)">
     <use xlink:href="#DejaVuSans-45"/>
     <use x="63.183594" xlink:href="#DejaVuSans-70"/>
     <use x="126.660156" xlink:href="#DejaVuSans-6f"/>
     <use x="187.841797" xlink:href="#DejaVuSans-63"/>
     <use x="242.822266" xlink:href="#DejaVuSans-68"/>
     <use x="306.201172" xlink:href="#DejaVuSans-3a"/>
     <use x="339.892578" xlink:href="#DejaVuSans-32"/>
     <use x="403.515625" xlink:href="#DejaVuSans-30"/>
    </g>
    <!-- Batch:10 -->
    <defs>
     <path d="M 19.671875 34.8125 
L 19.671875 8.109375 
L 35.5 8.109375 
Q 43.453125 8.109375 47.28125 11.40625 
Q 51.125 14.703125 51.125 21.484375 
Q 51.125 28.328125 47.28125 31.5625 
Q 43.453125 34.8125 35.5 34.8125 
z
M 19.671875 64.796875 
L 19.671875 42.828125 
L 34.28125 42.828125 
Q 41.5 42.828125 45.03125 45.53125 
Q 48.578125 48.25 48.578125 53.8125 
Q 48.578125 59.328125 45.03125 62.0625 
Q 41.5 64.796875 34.28125 64.796875 
z
M 9.8125 72.90625 
L 35.015625 72.90625 
Q 46.296875 72.90625 52.390625 68.21875 
Q 58.5 63.53125 58.5 54.890625 
Q 58.5 48.1875 55.375 44.234375 
Q 52.25 40.28125 46.1875 39.3125 
Q 53.46875 37.75 57.5 32.78125 
Q 61.53125 27.828125 61.53125 20.40625 
Q 61.53125 10.640625 54.890625 5.3125 
Q 48.25 0 35.984375 0 
L 9.8125 0 
z
" id="DejaVuSans-42"/>
    </defs>
    <g transform="translate(85.392 147.047062)scale(0.11 -0.11)">
     <use xlink:href="#DejaVuSans-42"/>
     <use x="68.603516" xlink:href="#DejaVuSans-61"/>
     <use x="129.882812" xlink:href="#DejaVuSans-74"/>
     <use x="169.091797" xlink:href="#DejaVuSans-63"/>
     <use x="224.072266" xlink:href="#DejaVuSans-68"/>
     <use x="287.451172" xlink:href="#DejaVuSans-3a"/>
     <use x="321.142578" xlink:href="#DejaVuSans-31"/>
     <use x="384.765625" xlink:href="#DejaVuSans-30"/>
    </g>
   </g>
   <g id="text_16">
    <!-- FNN[128, 40, 40, 1] -->
    <defs>
     <path d="M 9.8125 72.90625 
L 51.703125 72.90625 
L 51.703125 64.59375 
L 19.671875 64.59375 
L 19.671875 43.109375 
L 48.578125 43.109375 
L 48.578125 34.8125 
L 19.671875 34.8125 
L 19.671875 0 
L 9.8125 0 
z
" id="DejaVuSans-46"/>
     <path d="M 9.8125 72.90625 
L 23.09375 72.90625 
L 55.421875 11.921875 
L 55.421875 72.90625 
L 64.984375 72.90625 
L 64.984375 0 
L 51.703125 0 
L 19.390625 60.984375 
L 19.390625 0 
L 9.8125 0 
z
" id="DejaVuSans-4e"/>
     <path d="M 8.59375 75.984375 
L 29.296875 75.984375 
L 29.296875 69 
L 17.578125 69 
L 17.578125 -6.203125 
L 29.296875 -6.203125 
L 29.296875 -13.1875 
L 8.59375 -13.1875 
z
" id="DejaVuSans-5b"/>
     <path d="M 11.71875 12.40625 
L 22.015625 12.40625 
L 22.015625 4 
L 14.015625 -11.625 
L 7.71875 -11.625 
L 11.71875 4 
z
" id="DejaVuSans-2c"/>
     <path d="M 30.421875 75.984375 
L 30.421875 -13.1875 
L 9.71875 -13.1875 
L 9.71875 -6.203125 
L 21.390625 -6.203125 
L 21.390625 69 
L 9.71875 69 
L 9.71875 75.984375 
z
" id="DejaVuSans-5d"/>
    </defs>
    <g transform="translate(236.108437 45.84)scale(0.12 -0.12)">
     <use xlink:href="#DejaVuSans-46"/>
     <use x="57.519531" xlink:href="#DejaVuSans-4e"/>
     <use x="132.324219" xlink:href="#DejaVuSans-4e"/>
     <use x="207.128906" xlink:href="#DejaVuSans-5b"/>
     <use x="246.142578" xlink:href="#DejaVuSans-31"/>
     <use x="309.765625" xlink:href="#DejaVuSans-32"/>
     <use x="373.388672" xlink:href="#DejaVuSans-38"/>
     <use x="437.011719" xlink:href="#DejaVuSans-2c"/>
     <use x="468.798828" xlink:href="#DejaVuSans-20"/>
     <use x="500.585938" xlink:href="#DejaVuSans-34"/>
     <use x="564.208984" xlink:href="#DejaVuSans-30"/>
     <use x="627.832031" xlink:href="#DejaVuSans-2c"/>
     <use x="659.619141" xlink:href="#DejaVuSans-20"/>
     <use x="691.40625" xlink:href="#DejaVuSans-34"/>
     <use x="755.029297" xlink:href="#DejaVuSans-30"/>
     <use x="818.652344" xlink:href="#DejaVuSans-2c"/>
     <use x="850.439453" xlink:href="#DejaVuSans-20"/>
     <use x="882.226562" xlink:href="#DejaVuSans-31"/>
     <use x="945.849609" xlink:href="#DejaVuSans-5d"/>
    </g>
   </g>
   <g id="legend_1">
    <g id="patch_8">
     <path d="M 79 89.19625 
L 158.65625 89.19625 
Q 160.65625 89.19625 160.65625 87.19625 
L 160.65625 58.84 
Q 160.65625 56.84 158.65625 56.84 
L 79 56.84 
Q 77 56.84 77 58.84 
L 77 87.19625 
Q 77 89.19625 79 89.19625 
z
" style="fill:#ffffff;opacity:0.8;stroke:#cccccc;stroke-linejoin:miter;"/>
    </g>
    <g id="line2d_27">
     <path d="M 81 64.938437 
L 101 64.938437 
" style="fill:none;stroke:#ff0000;stroke-dasharray:5.55,2.4;stroke-dashoffset:0;stroke-width:1.5;"/>
    </g>
    <g id="line2d_28"/>
    <g id="text_17">
     <!-- real data -->
     <g transform="translate(109 68.438437)scale(0.1 -0.1)">
      <use xlink:href="#DejaVuSans-72"/>
      <use x="41.082031" xlink:href="#DejaVuSans-65"/>
      <use x="102.605469" xlink:href="#DejaVuSans-61"/>
      <use x="163.884766" xlink:href="#DejaVuSans-6c"/>
      <use x="191.667969" xlink:href="#DejaVuSans-20"/>
      <use x="223.455078" xlink:href="#DejaVuSans-64"/>
      <use x="286.931641" xlink:href="#DejaVuSans-61"/>
      <use x="348.210938" xlink:href="#DejaVuSans-74"/>
      <use x="387.419922" xlink:href="#DejaVuSans-61"/>
     </g>
    </g>
    <g id="line2d_29"/>
    <g id="line2d_30">
     <g>
      <use style="fill:#1f77b4;stroke:#1f77b4;" x="91" xlink:href="#m14b44818da" y="79.616562"/>
     </g>
    </g>
    <g id="text_18">
     <!-- predicted -->
     <g transform="translate(109 83.116562)scale(0.1 -0.1)">
      <use xlink:href="#DejaVuSans-70"/>
      <use x="63.476562" xlink:href="#DejaVuSans-72"/>
      <use x="104.558594" xlink:href="#DejaVuSans-65"/>
      <use x="166.082031" xlink:href="#DejaVuSans-64"/>
      <use x="229.558594" xlink:href="#DejaVuSans-69"/>
      <use x="257.341797" xlink:href="#DejaVuSans-63"/>
      <use x="312.322266" xlink:href="#DejaVuSans-74"/>
      <use x="351.53125" xlink:href="#DejaVuSans-65"/>
      <use x="413.054688" xlink:href="#DejaVuSans-64"/>
     </g>
    </g>
   </g>
  </g>
  <g id="axes_2">
   <g id="patch_9">
    <path d="M 374.4 345.6 
L 489.6 345.6 
L 489.6 259.2 
L 374.4 259.2 
z
" style="fill:#ffffff;"/>
   </g>
   <g id="patch_10">
    <path clip-path="url(#p2a28f7aa12)" d="M 379.636364 345.6 
L 384.872727 345.6 
L 384.872727 339.428571 
L 379.636364 339.428571 
z
" style="fill:#1f77b4;"/>
   </g>
   <g id="patch_11">
    <path clip-path="url(#p2a28f7aa12)" d="M 384.872727 345.6 
L 390.109091 345.6 
L 390.109091 343.542857 
L 384.872727 343.542857 
z
" style="fill:#1f77b4;"/>
   </g>
   <g id="patch_12">
    <path clip-path="url(#p2a28f7aa12)" d="M 390.109091 345.6 
L 395.345455 345.6 
L 395.345455 337.371429 
L 390.109091 337.371429 
z
" style="fill:#1f77b4;"/>
   </g>
   <g id="patch_13">
    <path clip-path="url(#p2a28f7aa12)" d="M 395.345455 345.6 
L 400.581818 345.6 
L 400.581818 337.371429 
L 395.345455 337.371429 
z
" style="fill:#1f77b4;"/>
   </g>
   <g id="patch_14">
    <path clip-path="url(#p2a28f7aa12)" d="M 400.581818 345.6 
L 405.818182 345.6 
L 405.818182 327.085714 
L 400.581818 327.085714 
z
" style="fill:#1f77b4;"/>
   </g>
   <g id="patch_15">
    <path clip-path="url(#p2a28f7aa12)" d="M 405.818182 345.6 
L 411.054545 345.6 
L 411.054545 316.8 
L 405.818182 316.8 
z
" style="fill:#1f77b4;"/>
   </g>
   <g id="patch_16">
    <path clip-path="url(#p2a28f7aa12)" d="M 411.054545 345.6 
L 416.290909 345.6 
L 416.290909 329.142857 
L 411.054545 329.142857 
z
" style="fill:#1f77b4;"/>
   </g>
   <g id="patch_17">
    <path clip-path="url(#p2a28f7aa12)" d="M 416.290909 345.6 
L 421.527273 345.6 
L 421.527273 314.742857 
L 416.290909 314.742857 
z
" style="fill:#1f77b4;"/>
   </g>
   <g id="patch_18">
    <path clip-path="url(#p2a28f7aa12)" d="M 421.527273 345.6 
L 426.763636 345.6 
L 426.763636 288 
L 421.527273 288 
z
" style="fill:#1f77b4;"/>
   </g>
   <g id="patch_19">
    <path clip-path="url(#p2a28f7aa12)" d="M 426.763636 345.6 
L 432 345.6 
L 432 275.657143 
L 426.763636 275.657143 
z
" style="fill:#1f77b4;"/>
   </g>
   <g id="patch_20">
    <path clip-path="url(#p2a28f7aa12)" d="M 432 345.6 
L 437.236364 345.6 
L 437.236364 263.314286 
L 432 263.314286 
z
" style="fill:#1f77b4;"/>
   </g>
   <g id="patch_21">
    <path clip-path="url(#p2a28f7aa12)" d="M 437.236364 345.6 
L 442.472727 345.6 
L 442.472727 302.4 
L 437.236364 302.4 
z
" style="fill:#1f77b4;"/>
   </g>
   <g id="patch_22">
    <path clip-path="url(#p2a28f7aa12)" d="M 442.472727 345.6 
L 447.709091 345.6 
L 447.709091 329.142857 
L 442.472727 329.142857 
z
" style="fill:#1f77b4;"/>
   </g>
   <g id="patch_23">
    <path clip-path="url(#p2a28f7aa12)" d="M 447.709091 345.6 
L 452.945455 345.6 
L 452.945455 341.485714 
L 447.709091 341.485714 
z
" style="fill:#1f77b4;"/>
   </g>
   <g id="patch_24">
    <path clip-path="url(#p2a28f7aa12)" d="M 452.945455 345.6 
L 458.181818 345.6 
L 458.181818 329.142857 
L 452.945455 329.142857 
z
" style="fill:#1f77b4;"/>
   </g>
   <g id="patch_25">
    <path clip-path="url(#p2a28f7aa12)" d="M 458.181818 345.6 
L 463.418182 345.6 
L 463.418182 343.542857 
L 458.181818 343.542857 
z
" style="fill:#1f77b4;"/>
   </g>
   <g id="patch_26">
    <path clip-path="url(#p2a28f7aa12)" d="M 463.418182 345.6 
L 468.654545 345.6 
L 468.654545 345.6 
L 463.418182 345.6 
z
" style="fill:#1f77b4;"/>
   </g>
   <g id="patch_27">
    <path clip-path="url(#p2a28f7aa12)" d="M 468.654545 345.6 
L 473.890909 345.6 
L 473.890909 345.6 
L 468.654545 345.6 
z
" style="fill:#1f77b4;"/>
   </g>
   <g id="patch_28">
    <path clip-path="url(#p2a28f7aa12)" d="M 473.890909 345.6 
L 479.127273 345.6 
L 479.127273 345.6 
L 473.890909 345.6 
z
" style="fill:#1f77b4;"/>
   </g>
   <g id="patch_29">
    <path clip-path="url(#p2a28f7aa12)" d="M 479.127273 345.6 
L 484.363636 345.6 
L 484.363636 345.6 
L 479.127273 345.6 
z
" style="fill:#1f77b4;"/>
   </g>
   <g id="matplotlib.axis_3">
    <g id="xtick_9">
     <g id="line2d_31">
      <g>
       <use style="stroke:#000000;stroke-width:0.8;" x="397.816443" xlink:href="#m31ded60deb" y="345.6"/>
      </g>
     </g>
     <g id="text_19">
      <!-- 0.1 -->
      <defs>
       <path d="M 10.59375 35.5 
L 73.1875 35.5 
L 73.1875 27.203125 
L 10.59375 27.203125 
z
" id="DejaVuSans-2212"/>
      </defs>
      <g transform="translate(385.675037 360.198438)scale(0.1 -0.1)">
       <use xlink:href="#DejaVuSans-2212"/>
       <use x="83.789062" xlink:href="#DejaVuSans-30"/>
       <use x="147.412109" xlink:href="#DejaVuSans-2e"/>
       <use x="179.199219" xlink:href="#DejaVuSans-31"/>
      </g>
     </g>
    </g>
    <g id="xtick_10">
     <g id="line2d_32">
      <g>
       <use style="stroke:#000000;stroke-width:0.8;" x="432" xlink:href="#m31ded60deb" y="345.6"/>
      </g>
     </g>
     <g id="text_20">
      <!-- 0.0 -->
      <g transform="translate(424.048437 360.198438)scale(0.1 -0.1)">
       <use xlink:href="#DejaVuSans-30"/>
       <use x="63.623047" xlink:href="#DejaVuSans-2e"/>
       <use x="95.410156" xlink:href="#DejaVuSans-30"/>
      </g>
     </g>
    </g>
    <g id="xtick_11">
     <g id="line2d_33">
      <g>
       <use style="stroke:#000000;stroke-width:0.8;" x="466.183557" xlink:href="#m31ded60deb" y="345.6"/>
      </g>
     </g>
     <g id="text_21">
      <!-- 0.1 -->
      <g transform="translate(458.231994 360.198438)scale(0.1 -0.1)">
       <use xlink:href="#DejaVuSans-30"/>
       <use x="63.623047" xlink:href="#DejaVuSans-2e"/>
       <use x="95.410156" xlink:href="#DejaVuSans-31"/>
      </g>
     </g>
    </g>
   </g>
   <g id="matplotlib.axis_4">
    <g id="ytick_5">
     <g id="line2d_34">
      <g>
       <use style="stroke:#000000;stroke-width:0.8;" x="374.4" xlink:href="#m281d4acf8a" y="345.6"/>
      </g>
     </g>
     <g id="text_22">
      <!-- 0 -->
      <g transform="translate(361.0375 349.399219)scale(0.1 -0.1)">
       <use xlink:href="#DejaVuSans-30"/>
      </g>
     </g>
    </g>
    <g id="ytick_6">
     <g id="line2d_35">
      <g>
       <use style="stroke:#000000;stroke-width:0.8;" x="374.4" xlink:href="#m281d4acf8a" y="304.457143"/>
      </g>
     </g>
     <g id="text_23">
      <!-- 20 -->
      <g transform="translate(354.675 308.256362)scale(0.1 -0.1)">
       <use xlink:href="#DejaVuSans-32"/>
       <use x="63.623047" xlink:href="#DejaVuSans-30"/>
      </g>
     </g>
    </g>
    <g id="ytick_7">
     <g id="line2d_36">
      <g>
       <use style="stroke:#000000;stroke-width:0.8;" x="374.4" xlink:href="#m281d4acf8a" y="263.314286"/>
      </g>
     </g>
     <g id="text_24">
      <!-- 40 -->
      <g transform="translate(354.675 267.113504)scale(0.1 -0.1)">
       <use xlink:href="#DejaVuSans-34"/>
       <use x="63.623047" xlink:href="#DejaVuSans-30"/>
      </g>
     </g>
    </g>
   </g>
   <g id="patch_30">
    <path d="M 374.4 345.6 
L 374.4 259.2 
" style="fill:none;stroke:#000000;stroke-linecap:square;stroke-linejoin:miter;stroke-width:0.8;"/>
   </g>
   <g id="patch_31">
    <path d="M 489.6 345.6 
L 489.6 259.2 
" style="fill:none;stroke:#000000;stroke-linecap:square;stroke-linejoin:miter;stroke-width:0.8;"/>
   </g>
   <g id="patch_32">
    <path d="M 374.4 345.6 
L 489.6 345.6 
" style="fill:none;stroke:#000000;stroke-linecap:square;stroke-linejoin:miter;stroke-width:0.8;"/>
   </g>
   <g id="patch_33">
    <path d="M 374.4 259.2 
L 489.6 259.2 
" style="fill:none;stroke:#000000;stroke-linecap:square;stroke-linejoin:miter;stroke-width:0.8;"/>
   </g>
   <g id="text_25">
    <!-- Error -->
    <g transform="translate(417.140625 253.2)scale(0.12 -0.12)">
     <use xlink:href="#DejaVuSans-45"/>
     <use x="63.183594" xlink:href="#DejaVuSans-72"/>
     <use x="104.28125" xlink:href="#DejaVuSans-72"/>
     <use x="145.363281" xlink:href="#DejaVuSans-6f"/>
     <use x="206.544922" xlink:href="#DejaVuSans-72"/>
    </g>
   </g>
  </g>
 </g>
 <defs>
  <clipPath id="p4758d3b1f2">
   <rect height="332.64" width="446.4" x="72" y="51.84"/>
  </clipPath>
  <clipPath id="p2a28f7aa12">
   <rect height="86.4" width="115.2" x="374.4" y="259.2"/>
  </clipPath>
 </defs>
</svg>
