<?xml version="1.0" encoding="utf-8" standalone="no"?>
<!DOCTYPE svg PUBLIC "-//W3C//DTD SVG 1.1//EN"
  "http://www.w3.org/Graphics/SVG/1.1/DTD/svg11.dtd">
<!-- Created with matplotlib (http://matplotlib.org/) -->
<svg height="345pt" version="1.1" viewBox="0 0 460 345" width="460pt" xmlns="http://www.w3.org/2000/svg" xmlns:xlink="http://www.w3.org/1999/xlink">
 <defs>
  <style type="text/css">
*{stroke-linecap:butt;stroke-linejoin:round;}
  </style>
 </defs>
 <g id="figure_1">
  <g id="patch_1">
   <path d="M 0 345.6 
L 460.8 345.6 
L 460.8 0 
L 0 0 
z
" style="fill:#ffffff;"/>
  </g>
  <g id="axes_1">
   <g id="patch_2">
    <path d="M 57.6 307.584 
L 414.72 307.584 
L 414.72 41.472 
L 57.6 41.472 
z
" style="fill:#ffffff;"/>
   </g>
   <g id="matplotlib.axis_1">
    <g id="xtick_1">
     <g id="line2d_1">
      <path clip-path="url(#p3c892083ae)" d="M 93.902958 307.584 
L 93.902958 41.472 
" style="fill:none;stroke:#b0b0b0;stroke-linecap:square;stroke-width:0.8;"/>
     </g>
     <g id="line2d_2">
      <defs>
       <path d="M 0 0 
L 0 3.5 
" id="m123fff5ef5" style="stroke:#000000;stroke-width:0.8;"/>
      </defs>
      <g>
       <use style="stroke:#000000;stroke-width:0.8;" x="93.902958" xlink:href="#m123fff5ef5" y="307.584"/>
      </g>
     </g>
     <g id="text_1">
      <!-- 0.3 -->
      <defs>
       <path d="M 31.78125 66.40625 
Q 24.171875 66.40625 20.328125 58.90625 
Q 16.5 51.421875 16.5 36.375 
Q 16.5 21.390625 20.328125 13.890625 
Q 24.171875 6.390625 31.78125 6.390625 
Q 39.453125 6.390625 43.28125 13.890625 
Q 47.125 21.390625 47.125 36.375 
Q 47.125 51.421875 43.28125 58.90625 
Q 39.453125 66.40625 31.78125 66.40625 
z
M 31.78125 74.21875 
Q 44.046875 74.21875 50.515625 64.515625 
Q 56.984375 54.828125 56.984375 36.375 
Q 56.984375 17.96875 50.515625 8.265625 
Q 44.046875 -1.421875 31.78125 -1.421875 
Q 19.53125 -1.421875 13.0625 8.265625 
Q 6.59375 17.96875 6.59375 36.375 
Q 6.59375 54.828125 13.0625 64.515625 
Q 19.53125 74.21875 31.78125 74.21875 
z
" id="DejaVuSans-30"/>
       <path d="M 10.6875 12.40625 
L 21 12.40625 
L 21 0 
L 10.6875 0 
z
" id="DejaVuSans-2e"/>
       <path d="M 40.578125 39.3125 
Q 47.65625 37.796875 51.625 33 
Q 55.609375 28.21875 55.609375 21.1875 
Q 55.609375 10.40625 48.1875 4.484375 
Q 40.765625 -1.421875 27.09375 -1.421875 
Q 22.515625 -1.421875 17.65625 -0.515625 
Q 12.796875 0.390625 7.625 2.203125 
L 7.625 11.71875 
Q 11.71875 9.328125 16.59375 8.109375 
Q 21.484375 6.890625 26.8125 6.890625 
Q 36.078125 6.890625 40.9375 10.546875 
Q 45.796875 14.203125 45.796875 21.1875 
Q 45.796875 27.640625 41.28125 31.265625 
Q 36.765625 34.90625 28.71875 34.90625 
L 20.21875 34.90625 
L 20.21875 43.015625 
L 29.109375 43.015625 
Q 36.375 43.015625 40.234375 45.921875 
Q 44.09375 48.828125 44.09375 54.296875 
Q 44.09375 59.90625 40.109375 62.90625 
Q 36.140625 65.921875 28.71875 65.921875 
Q 24.65625 65.921875 20.015625 65.03125 
Q 15.375 64.15625 9.8125 62.3125 
L 9.8125 71.09375 
Q 15.4375 72.65625 20.34375 73.4375 
Q 25.25 74.21875 29.59375 74.21875 
Q 40.828125 74.21875 47.359375 69.109375 
Q 53.90625 64.015625 53.90625 55.328125 
Q 53.90625 49.265625 50.4375 45.09375 
Q 46.96875 40.921875 40.578125 39.3125 
z
" id="DejaVuSans-33"/>
      </defs>
      <g transform="translate(85.951396 322.182437)scale(0.1 -0.1)">
       <use xlink:href="#DejaVuSans-30"/>
       <use x="63.623047" xlink:href="#DejaVuSans-2e"/>
       <use x="95.410156" xlink:href="#DejaVuSans-33"/>
      </g>
     </g>
    </g>
    <g id="xtick_2">
     <g id="line2d_3">
      <path clip-path="url(#p3c892083ae)" d="M 138.171792 307.584 
L 138.171792 41.472 
" style="fill:none;stroke:#b0b0b0;stroke-linecap:square;stroke-width:0.8;"/>
     </g>
     <g id="line2d_4">
      <g>
       <use style="stroke:#000000;stroke-width:0.8;" x="138.171792" xlink:href="#m123fff5ef5" y="307.584"/>
      </g>
     </g>
     <g id="text_2">
      <!-- 0.4 -->
      <defs>
       <path d="M 37.796875 64.3125 
L 12.890625 25.390625 
L 37.796875 25.390625 
z
M 35.203125 72.90625 
L 47.609375 72.90625 
L 47.609375 25.390625 
L 58.015625 25.390625 
L 58.015625 17.1875 
L 47.609375 17.1875 
L 47.609375 0 
L 37.796875 0 
L 37.796875 17.1875 
L 4.890625 17.1875 
L 4.890625 26.703125 
z
" id="DejaVuSans-34"/>
      </defs>
      <g transform="translate(130.22023 322.182437)scale(0.1 -0.1)">
       <use xlink:href="#DejaVuSans-30"/>
       <use x="63.623047" xlink:href="#DejaVuSans-2e"/>
       <use x="95.410156" xlink:href="#DejaVuSans-34"/>
      </g>
     </g>
    </g>
    <g id="xtick_3">
     <g id="line2d_5">
      <path clip-path="url(#p3c892083ae)" d="M 182.440626 307.584 
L 182.440626 41.472 
" style="fill:none;stroke:#b0b0b0;stroke-linecap:square;stroke-width:0.8;"/>
     </g>
     <g id="line2d_6">
      <g>
       <use style="stroke:#000000;stroke-width:0.8;" x="182.440626" xlink:href="#m123fff5ef5" y="307.584"/>
      </g>
     </g>
     <g id="text_3">
      <!-- 0.5 -->
      <defs>
       <path d="M 10.796875 72.90625 
L 49.515625 72.90625 
L 49.515625 64.59375 
L 19.828125 64.59375 
L 19.828125 46.734375 
Q 21.96875 47.46875 24.109375 47.828125 
Q 26.265625 48.1875 28.421875 48.1875 
Q 40.625 48.1875 47.75 41.5 
Q 54.890625 34.8125 54.890625 23.390625 
Q 54.890625 11.625 47.5625 5.09375 
Q 40.234375 -1.421875 26.90625 -1.421875 
Q 22.3125 -1.421875 17.546875 -0.640625 
Q 12.796875 0.140625 7.71875 1.703125 
L 7.71875 11.625 
Q 12.109375 9.234375 16.796875 8.0625 
Q 21.484375 6.890625 26.703125 6.890625 
Q 35.15625 6.890625 40.078125 11.328125 
Q 45.015625 15.765625 45.015625 23.390625 
Q 45.015625 31 40.078125 35.4375 
Q 35.15625 39.890625 26.703125 39.890625 
Q 22.75 39.890625 18.8125 39.015625 
Q 14.890625 38.140625 10.796875 36.28125 
z
" id="DejaVuSans-35"/>
      </defs>
      <g transform="translate(174.489063 322.182437)scale(0.1 -0.1)">
       <use xlink:href="#DejaVuSans-30"/>
       <use x="63.623047" xlink:href="#DejaVuSans-2e"/>
       <use x="95.410156" xlink:href="#DejaVuSans-35"/>
      </g>
     </g>
    </g>
    <g id="xtick_4">
     <g id="line2d_7">
      <path clip-path="url(#p3c892083ae)" d="M 226.709459 307.584 
L 226.709459 41.472 
" style="fill:none;stroke:#b0b0b0;stroke-linecap:square;stroke-width:0.8;"/>
     </g>
     <g id="line2d_8">
      <g>
       <use style="stroke:#000000;stroke-width:0.8;" x="226.709459" xlink:href="#m123fff5ef5" y="307.584"/>
      </g>
     </g>
     <g id="text_4">
      <!-- 0.6 -->
      <defs>
       <path d="M 33.015625 40.375 
Q 26.375 40.375 22.484375 35.828125 
Q 18.609375 31.296875 18.609375 23.390625 
Q 18.609375 15.53125 22.484375 10.953125 
Q 26.375 6.390625 33.015625 6.390625 
Q 39.65625 6.390625 43.53125 10.953125 
Q 47.40625 15.53125 47.40625 23.390625 
Q 47.40625 31.296875 43.53125 35.828125 
Q 39.65625 40.375 33.015625 40.375 
z
M 52.59375 71.296875 
L 52.59375 62.3125 
Q 48.875 64.0625 45.09375 64.984375 
Q 41.3125 65.921875 37.59375 65.921875 
Q 27.828125 65.921875 22.671875 59.328125 
Q 17.53125 52.734375 16.796875 39.40625 
Q 19.671875 43.65625 24.015625 45.921875 
Q 28.375 48.1875 33.59375 48.1875 
Q 44.578125 48.1875 50.953125 41.515625 
Q 57.328125 34.859375 57.328125 23.390625 
Q 57.328125 12.15625 50.6875 5.359375 
Q 44.046875 -1.421875 33.015625 -1.421875 
Q 20.359375 -1.421875 13.671875 8.265625 
Q 6.984375 17.96875 6.984375 36.375 
Q 6.984375 53.65625 15.1875 63.9375 
Q 23.390625 74.21875 37.203125 74.21875 
Q 40.921875 74.21875 44.703125 73.484375 
Q 48.484375 72.75 52.59375 71.296875 
z
" id="DejaVuSans-36"/>
      </defs>
      <g transform="translate(218.757897 322.182437)scale(0.1 -0.1)">
       <use xlink:href="#DejaVuSans-30"/>
       <use x="63.623047" xlink:href="#DejaVuSans-2e"/>
       <use x="95.410156" xlink:href="#DejaVuSans-36"/>
      </g>
     </g>
    </g>
    <g id="xtick_5">
     <g id="line2d_9">
      <path clip-path="url(#p3c892083ae)" d="M 270.978293 307.584 
L 270.978293 41.472 
" style="fill:none;stroke:#b0b0b0;stroke-linecap:square;stroke-width:0.8;"/>
     </g>
     <g id="line2d_10">
      <g>
       <use style="stroke:#000000;stroke-width:0.8;" x="270.978293" xlink:href="#m123fff5ef5" y="307.584"/>
      </g>
     </g>
     <g id="text_5">
      <!-- 0.7 -->
      <defs>
       <path d="M 8.203125 72.90625 
L 55.078125 72.90625 
L 55.078125 68.703125 
L 28.609375 0 
L 18.3125 0 
L 43.21875 64.59375 
L 8.203125 64.59375 
z
" id="DejaVuSans-37"/>
      </defs>
      <g transform="translate(263.02673 322.182437)scale(0.1 -0.1)">
       <use xlink:href="#DejaVuSans-30"/>
       <use x="63.623047" xlink:href="#DejaVuSans-2e"/>
       <use x="95.410156" xlink:href="#DejaVuSans-37"/>
      </g>
     </g>
    </g>
    <g id="xtick_6">
     <g id="line2d_11">
      <path clip-path="url(#p3c892083ae)" d="M 315.247126 307.584 
L 315.247126 41.472 
" style="fill:none;stroke:#b0b0b0;stroke-linecap:square;stroke-width:0.8;"/>
     </g>
     <g id="line2d_12">
      <g>
       <use style="stroke:#000000;stroke-width:0.8;" x="315.247126" xlink:href="#m123fff5ef5" y="307.584"/>
      </g>
     </g>
     <g id="text_6">
      <!-- 0.8 -->
      <defs>
       <path d="M 31.78125 34.625 
Q 24.75 34.625 20.71875 30.859375 
Q 16.703125 27.09375 16.703125 20.515625 
Q 16.703125 13.921875 20.71875 10.15625 
Q 24.75 6.390625 31.78125 6.390625 
Q 38.8125 6.390625 42.859375 10.171875 
Q 46.921875 13.96875 46.921875 20.515625 
Q 46.921875 27.09375 42.890625 30.859375 
Q 38.875 34.625 31.78125 34.625 
z
M 21.921875 38.8125 
Q 15.578125 40.375 12.03125 44.71875 
Q 8.5 49.078125 8.5 55.328125 
Q 8.5 64.0625 14.71875 69.140625 
Q 20.953125 74.21875 31.78125 74.21875 
Q 42.671875 74.21875 48.875 69.140625 
Q 55.078125 64.0625 55.078125 55.328125 
Q 55.078125 49.078125 51.53125 44.71875 
Q 48 40.375 41.703125 38.8125 
Q 48.828125 37.15625 52.796875 32.3125 
Q 56.78125 27.484375 56.78125 20.515625 
Q 56.78125 9.90625 50.3125 4.234375 
Q 43.84375 -1.421875 31.78125 -1.421875 
Q 19.734375 -1.421875 13.25 4.234375 
Q 6.78125 9.90625 6.78125 20.515625 
Q 6.78125 27.484375 10.78125 32.3125 
Q 14.796875 37.15625 21.921875 38.8125 
z
M 18.3125 54.390625 
Q 18.3125 48.734375 21.84375 45.5625 
Q 25.390625 42.390625 31.78125 42.390625 
Q 38.140625 42.390625 41.71875 45.5625 
Q 45.3125 48.734375 45.3125 54.390625 
Q 45.3125 60.0625 41.71875 63.234375 
Q 38.140625 66.40625 31.78125 66.40625 
Q 25.390625 66.40625 21.84375 63.234375 
Q 18.3125 60.0625 18.3125 54.390625 
z
" id="DejaVuSans-38"/>
      </defs>
      <g transform="translate(307.295564 322.182437)scale(0.1 -0.1)">
       <use xlink:href="#DejaVuSans-30"/>
       <use x="63.623047" xlink:href="#DejaVuSans-2e"/>
       <use x="95.410156" xlink:href="#DejaVuSans-38"/>
      </g>
     </g>
    </g>
    <g id="xtick_7">
     <g id="line2d_13">
      <path clip-path="url(#p3c892083ae)" d="M 359.51596 307.584 
L 359.51596 41.472 
" style="fill:none;stroke:#b0b0b0;stroke-linecap:square;stroke-width:0.8;"/>
     </g>
     <g id="line2d_14">
      <g>
       <use style="stroke:#000000;stroke-width:0.8;" x="359.51596" xlink:href="#m123fff5ef5" y="307.584"/>
      </g>
     </g>
     <g id="text_7">
      <!-- 0.9 -->
      <defs>
       <path d="M 10.984375 1.515625 
L 10.984375 10.5 
Q 14.703125 8.734375 18.5 7.8125 
Q 22.3125 6.890625 25.984375 6.890625 
Q 35.75 6.890625 40.890625 13.453125 
Q 46.046875 20.015625 46.78125 33.40625 
Q 43.953125 29.203125 39.59375 26.953125 
Q 35.25 24.703125 29.984375 24.703125 
Q 19.046875 24.703125 12.671875 31.3125 
Q 6.296875 37.9375 6.296875 49.421875 
Q 6.296875 60.640625 12.9375 67.421875 
Q 19.578125 74.21875 30.609375 74.21875 
Q 43.265625 74.21875 49.921875 64.515625 
Q 56.59375 54.828125 56.59375 36.375 
Q 56.59375 19.140625 48.40625 8.859375 
Q 40.234375 -1.421875 26.421875 -1.421875 
Q 22.703125 -1.421875 18.890625 -0.6875 
Q 15.09375 0.046875 10.984375 1.515625 
z
M 30.609375 32.421875 
Q 37.25 32.421875 41.125 36.953125 
Q 45.015625 41.5 45.015625 49.421875 
Q 45.015625 57.28125 41.125 61.84375 
Q 37.25 66.40625 30.609375 66.40625 
Q 23.96875 66.40625 20.09375 61.84375 
Q 16.21875 57.28125 16.21875 49.421875 
Q 16.21875 41.5 20.09375 36.953125 
Q 23.96875 32.421875 30.609375 32.421875 
z
" id="DejaVuSans-39"/>
      </defs>
      <g transform="translate(351.564398 322.182437)scale(0.1 -0.1)">
       <use xlink:href="#DejaVuSans-30"/>
       <use x="63.623047" xlink:href="#DejaVuSans-2e"/>
       <use x="95.410156" xlink:href="#DejaVuSans-39"/>
      </g>
     </g>
    </g>
    <g id="xtick_8">
     <g id="line2d_15">
      <path clip-path="url(#p3c892083ae)" d="M 403.784794 307.584 
L 403.784794 41.472 
" style="fill:none;stroke:#b0b0b0;stroke-linecap:square;stroke-width:0.8;"/>
     </g>
     <g id="line2d_16">
      <g>
       <use style="stroke:#000000;stroke-width:0.8;" x="403.784794" xlink:href="#m123fff5ef5" y="307.584"/>
      </g>
     </g>
     <g id="text_8">
      <!-- 1.0 -->
      <defs>
       <path d="M 12.40625 8.296875 
L 28.515625 8.296875 
L 28.515625 63.921875 
L 10.984375 60.40625 
L 10.984375 69.390625 
L 28.421875 72.90625 
L 38.28125 72.90625 
L 38.28125 8.296875 
L 54.390625 8.296875 
L 54.390625 0 
L 12.40625 0 
z
" id="DejaVuSans-31"/>
      </defs>
      <g transform="translate(395.833231 322.182437)scale(0.1 -0.1)">
       <use xlink:href="#DejaVuSans-31"/>
       <use x="63.623047" xlink:href="#DejaVuSans-2e"/>
       <use x="95.410156" xlink:href="#DejaVuSans-30"/>
      </g>
     </g>
    </g>
    <g id="text_9">
     <!-- Real -->
     <defs>
      <path d="M 44.390625 34.1875 
Q 47.5625 33.109375 50.5625 29.59375 
Q 53.5625 26.078125 56.59375 19.921875 
L 66.609375 0 
L 56 0 
L 46.6875 18.703125 
Q 43.0625 26.03125 39.671875 28.421875 
Q 36.28125 30.8125 30.421875 30.8125 
L 19.671875 30.8125 
L 19.671875 0 
L 9.8125 0 
L 9.8125 72.90625 
L 32.078125 72.90625 
Q 44.578125 72.90625 50.734375 67.671875 
Q 56.890625 62.453125 56.890625 51.90625 
Q 56.890625 45.015625 53.6875 40.46875 
Q 50.484375 35.9375 44.390625 34.1875 
z
M 19.671875 64.796875 
L 19.671875 38.921875 
L 32.078125 38.921875 
Q 39.203125 38.921875 42.84375 42.21875 
Q 46.484375 45.515625 46.484375 51.90625 
Q 46.484375 58.296875 42.84375 61.546875 
Q 39.203125 64.796875 32.078125 64.796875 
z
" id="DejaVuSans-52"/>
      <path d="M 56.203125 29.59375 
L 56.203125 25.203125 
L 14.890625 25.203125 
Q 15.484375 15.921875 20.484375 11.0625 
Q 25.484375 6.203125 34.421875 6.203125 
Q 39.59375 6.203125 44.453125 7.46875 
Q 49.3125 8.734375 54.109375 11.28125 
L 54.109375 2.78125 
Q 49.265625 0.734375 44.1875 -0.34375 
Q 39.109375 -1.421875 33.890625 -1.421875 
Q 20.796875 -1.421875 13.15625 6.1875 
Q 5.515625 13.8125 5.515625 26.8125 
Q 5.515625 40.234375 12.765625 48.109375 
Q 20.015625 56 32.328125 56 
Q 43.359375 56 49.78125 48.890625 
Q 56.203125 41.796875 56.203125 29.59375 
z
M 47.21875 32.234375 
Q 47.125 39.59375 43.09375 43.984375 
Q 39.0625 48.390625 32.421875 48.390625 
Q 24.90625 48.390625 20.390625 44.140625 
Q 15.875 39.890625 15.1875 32.171875 
z
" id="DejaVuSans-65"/>
      <path d="M 34.28125 27.484375 
Q 23.390625 27.484375 19.1875 25 
Q 14.984375 22.515625 14.984375 16.5 
Q 14.984375 11.71875 18.140625 8.90625 
Q 21.296875 6.109375 26.703125 6.109375 
Q 34.1875 6.109375 38.703125 11.40625 
Q 43.21875 16.703125 43.21875 25.484375 
L 43.21875 27.484375 
z
M 52.203125 31.203125 
L 52.203125 0 
L 43.21875 0 
L 43.21875 8.296875 
Q 40.140625 3.328125 35.546875 0.953125 
Q 30.953125 -1.421875 24.3125 -1.421875 
Q 15.921875 -1.421875 10.953125 3.296875 
Q 6 8.015625 6 15.921875 
Q 6 25.140625 12.171875 29.828125 
Q 18.359375 34.515625 30.609375 34.515625 
L 43.21875 34.515625 
L 43.21875 35.40625 
Q 43.21875 41.609375 39.140625 45 
Q 35.0625 48.390625 27.6875 48.390625 
Q 23 48.390625 18.546875 47.265625 
Q 14.109375 46.140625 10.015625 43.890625 
L 10.015625 52.203125 
Q 14.9375 54.109375 19.578125 55.046875 
Q 24.21875 56 28.609375 56 
Q 40.484375 56 46.34375 49.84375 
Q 52.203125 43.703125 52.203125 31.203125 
z
" id="DejaVuSans-61"/>
      <path d="M 9.421875 75.984375 
L 18.40625 75.984375 
L 18.40625 0 
L 9.421875 0 
z
" id="DejaVuSans-6c"/>
     </defs>
     <g transform="translate(225.159219 335.860562)scale(0.1 -0.1)">
      <use xlink:href="#DejaVuSans-52"/>
      <use x="69.419922" xlink:href="#DejaVuSans-65"/>
      <use x="130.943359" xlink:href="#DejaVuSans-61"/>
      <use x="192.222656" xlink:href="#DejaVuSans-6c"/>
     </g>
    </g>
   </g>
   <g id="matplotlib.axis_2">
    <g id="ytick_1">
     <g id="line2d_17">
      <path clip-path="url(#p3c892083ae)" d="M 57.6 280.532441 
L 414.72 280.532441 
" style="fill:none;stroke:#b0b0b0;stroke-linecap:square;stroke-width:0.8;"/>
     </g>
     <g id="line2d_18">
      <defs>
       <path d="M 0 0 
L -3.5 0 
" id="m7cc972e914" style="stroke:#000000;stroke-width:0.8;"/>
      </defs>
      <g>
       <use style="stroke:#000000;stroke-width:0.8;" x="57.6" xlink:href="#m7cc972e914" y="280.532441"/>
      </g>
     </g>
     <g id="text_10">
      <!-- 0.3 -->
      <g transform="translate(34.696875 284.331659)scale(0.1 -0.1)">
       <use xlink:href="#DejaVuSans-30"/>
       <use x="63.623047" xlink:href="#DejaVuSans-2e"/>
       <use x="95.410156" xlink:href="#DejaVuSans-33"/>
      </g>
     </g>
    </g>
    <g id="ytick_2">
     <g id="line2d_19">
      <path clip-path="url(#p3c892083ae)" d="M 57.6 247.545019 
L 414.72 247.545019 
" style="fill:none;stroke:#b0b0b0;stroke-linecap:square;stroke-width:0.8;"/>
     </g>
     <g id="line2d_20">
      <g>
       <use style="stroke:#000000;stroke-width:0.8;" x="57.6" xlink:href="#m7cc972e914" y="247.545019"/>
      </g>
     </g>
     <g id="text_11">
      <!-- 0.4 -->
      <g transform="translate(34.696875 251.344238)scale(0.1 -0.1)">
       <use xlink:href="#DejaVuSans-30"/>
       <use x="63.623047" xlink:href="#DejaVuSans-2e"/>
       <use x="95.410156" xlink:href="#DejaVuSans-34"/>
      </g>
     </g>
    </g>
    <g id="ytick_3">
     <g id="line2d_21">
      <path clip-path="url(#p3c892083ae)" d="M 57.6 214.557598 
L 414.72 214.557598 
" style="fill:none;stroke:#b0b0b0;stroke-linecap:square;stroke-width:0.8;"/>
     </g>
     <g id="line2d_22">
      <g>
       <use style="stroke:#000000;stroke-width:0.8;" x="57.6" xlink:href="#m7cc972e914" y="214.557598"/>
      </g>
     </g>
     <g id="text_12">
      <!-- 0.5 -->
      <g transform="translate(34.696875 218.356817)scale(0.1 -0.1)">
       <use xlink:href="#DejaVuSans-30"/>
       <use x="63.623047" xlink:href="#DejaVuSans-2e"/>
       <use x="95.410156" xlink:href="#DejaVuSans-35"/>
      </g>
     </g>
    </g>
    <g id="ytick_4">
     <g id="line2d_23">
      <path clip-path="url(#p3c892083ae)" d="M 57.6 181.570177 
L 414.72 181.570177 
" style="fill:none;stroke:#b0b0b0;stroke-linecap:square;stroke-width:0.8;"/>
     </g>
     <g id="line2d_24">
      <g>
       <use style="stroke:#000000;stroke-width:0.8;" x="57.6" xlink:href="#m7cc972e914" y="181.570177"/>
      </g>
     </g>
     <g id="text_13">
      <!-- 0.6 -->
      <g transform="translate(34.696875 185.369396)scale(0.1 -0.1)">
       <use xlink:href="#DejaVuSans-30"/>
       <use x="63.623047" xlink:href="#DejaVuSans-2e"/>
       <use x="95.410156" xlink:href="#DejaVuSans-36"/>
      </g>
     </g>
    </g>
    <g id="ytick_5">
     <g id="line2d_25">
      <path clip-path="url(#p3c892083ae)" d="M 57.6 148.582756 
L 414.72 148.582756 
" style="fill:none;stroke:#b0b0b0;stroke-linecap:square;stroke-width:0.8;"/>
     </g>
     <g id="line2d_26">
      <g>
       <use style="stroke:#000000;stroke-width:0.8;" x="57.6" xlink:href="#m7cc972e914" y="148.582756"/>
      </g>
     </g>
     <g id="text_14">
      <!-- 0.7 -->
      <g transform="translate(34.696875 152.381975)scale(0.1 -0.1)">
       <use xlink:href="#DejaVuSans-30"/>
       <use x="63.623047" xlink:href="#DejaVuSans-2e"/>
       <use x="95.410156" xlink:href="#DejaVuSans-37"/>
      </g>
     </g>
    </g>
    <g id="ytick_6">
     <g id="line2d_27">
      <path clip-path="url(#p3c892083ae)" d="M 57.6 115.595335 
L 414.72 115.595335 
" style="fill:none;stroke:#b0b0b0;stroke-linecap:square;stroke-width:0.8;"/>
     </g>
     <g id="line2d_28">
      <g>
       <use style="stroke:#000000;stroke-width:0.8;" x="57.6" xlink:href="#m7cc972e914" y="115.595335"/>
      </g>
     </g>
     <g id="text_15">
      <!-- 0.8 -->
      <g transform="translate(34.696875 119.394554)scale(0.1 -0.1)">
       <use xlink:href="#DejaVuSans-30"/>
       <use x="63.623047" xlink:href="#DejaVuSans-2e"/>
       <use x="95.410156" xlink:href="#DejaVuSans-38"/>
      </g>
     </g>
    </g>
    <g id="ytick_7">
     <g id="line2d_29">
      <path clip-path="url(#p3c892083ae)" d="M 57.6 82.607914 
L 414.72 82.607914 
" style="fill:none;stroke:#b0b0b0;stroke-linecap:square;stroke-width:0.8;"/>
     </g>
     <g id="line2d_30">
      <g>
       <use style="stroke:#000000;stroke-width:0.8;" x="57.6" xlink:href="#m7cc972e914" y="82.607914"/>
      </g>
     </g>
     <g id="text_16">
      <!-- 0.9 -->
      <g transform="translate(34.696875 86.407132)scale(0.1 -0.1)">
       <use xlink:href="#DejaVuSans-30"/>
       <use x="63.623047" xlink:href="#DejaVuSans-2e"/>
       <use x="95.410156" xlink:href="#DejaVuSans-39"/>
      </g>
     </g>
    </g>
    <g id="ytick_8">
     <g id="line2d_31">
      <path clip-path="url(#p3c892083ae)" d="M 57.6 49.620493 
L 414.72 49.620493 
" style="fill:none;stroke:#b0b0b0;stroke-linecap:square;stroke-width:0.8;"/>
     </g>
     <g id="line2d_32">
      <g>
       <use style="stroke:#000000;stroke-width:0.8;" x="57.6" xlink:href="#m7cc972e914" y="49.620493"/>
      </g>
     </g>
     <g id="text_17">
      <!-- 1.0 -->
      <g transform="translate(34.696875 53.419711)scale(0.1 -0.1)">
       <use xlink:href="#DejaVuSans-31"/>
       <use x="63.623047" xlink:href="#DejaVuSans-2e"/>
       <use x="95.410156" xlink:href="#DejaVuSans-30"/>
      </g>
     </g>
    </g>
    <g id="text_18">
     <!-- Predicted -->
     <defs>
      <path d="M 19.671875 64.796875 
L 19.671875 37.40625 
L 32.078125 37.40625 
Q 38.96875 37.40625 42.71875 40.96875 
Q 46.484375 44.53125 46.484375 51.125 
Q 46.484375 57.671875 42.71875 61.234375 
Q 38.96875 64.796875 32.078125 64.796875 
z
M 9.8125 72.90625 
L 32.078125 72.90625 
Q 44.34375 72.90625 50.609375 67.359375 
Q 56.890625 61.8125 56.890625 51.125 
Q 56.890625 40.328125 50.609375 34.8125 
Q 44.34375 29.296875 32.078125 29.296875 
L 19.671875 29.296875 
L 19.671875 0 
L 9.8125 0 
z
" id="DejaVuSans-50"/>
      <path d="M 41.109375 46.296875 
Q 39.59375 47.171875 37.8125 47.578125 
Q 36.03125 48 33.890625 48 
Q 26.265625 48 22.1875 43.046875 
Q 18.109375 38.09375 18.109375 28.8125 
L 18.109375 0 
L 9.078125 0 
L 9.078125 54.6875 
L 18.109375 54.6875 
L 18.109375 46.1875 
Q 20.953125 51.171875 25.484375 53.578125 
Q 30.03125 56 36.53125 56 
Q 37.453125 56 38.578125 55.875 
Q 39.703125 55.765625 41.0625 55.515625 
z
" id="DejaVuSans-72"/>
      <path d="M 45.40625 46.390625 
L 45.40625 75.984375 
L 54.390625 75.984375 
L 54.390625 0 
L 45.40625 0 
L 45.40625 8.203125 
Q 42.578125 3.328125 38.25 0.953125 
Q 33.9375 -1.421875 27.875 -1.421875 
Q 17.96875 -1.421875 11.734375 6.484375 
Q 5.515625 14.40625 5.515625 27.296875 
Q 5.515625 40.1875 11.734375 48.09375 
Q 17.96875 56 27.875 56 
Q 33.9375 56 38.25 53.625 
Q 42.578125 51.265625 45.40625 46.390625 
z
M 14.796875 27.296875 
Q 14.796875 17.390625 18.875 11.75 
Q 22.953125 6.109375 30.078125 6.109375 
Q 37.203125 6.109375 41.296875 11.75 
Q 45.40625 17.390625 45.40625 27.296875 
Q 45.40625 37.203125 41.296875 42.84375 
Q 37.203125 48.484375 30.078125 48.484375 
Q 22.953125 48.484375 18.875 42.84375 
Q 14.796875 37.203125 14.796875 27.296875 
z
" id="DejaVuSans-64"/>
      <path d="M 9.421875 54.6875 
L 18.40625 54.6875 
L 18.40625 0 
L 9.421875 0 
z
M 9.421875 75.984375 
L 18.40625 75.984375 
L 18.40625 64.59375 
L 9.421875 64.59375 
z
" id="DejaVuSans-69"/>
      <path d="M 48.78125 52.59375 
L 48.78125 44.1875 
Q 44.96875 46.296875 41.140625 47.34375 
Q 37.3125 48.390625 33.40625 48.390625 
Q 24.65625 48.390625 19.8125 42.84375 
Q 14.984375 37.3125 14.984375 27.296875 
Q 14.984375 17.28125 19.8125 11.734375 
Q 24.65625 6.203125 33.40625 6.203125 
Q 37.3125 6.203125 41.140625 7.25 
Q 44.96875 8.296875 48.78125 10.40625 
L 48.78125 2.09375 
Q 45.015625 0.34375 40.984375 -0.53125 
Q 36.96875 -1.421875 32.421875 -1.421875 
Q 20.0625 -1.421875 12.78125 6.34375 
Q 5.515625 14.109375 5.515625 27.296875 
Q 5.515625 40.671875 12.859375 48.328125 
Q 20.21875 56 33.015625 56 
Q 37.15625 56 41.109375 55.140625 
Q 45.0625 54.296875 48.78125 52.59375 
z
" id="DejaVuSans-63"/>
      <path d="M 18.3125 70.21875 
L 18.3125 54.6875 
L 36.8125 54.6875 
L 36.8125 47.703125 
L 18.3125 47.703125 
L 18.3125 18.015625 
Q 18.3125 11.328125 20.140625 9.421875 
Q 21.96875 7.515625 27.59375 7.515625 
L 36.8125 7.515625 
L 36.8125 0 
L 27.59375 0 
Q 17.1875 0 13.234375 3.875 
Q 9.28125 7.765625 9.28125 18.015625 
L 9.28125 47.703125 
L 2.6875 47.703125 
L 2.6875 54.6875 
L 9.28125 54.6875 
L 9.28125 70.21875 
z
" id="DejaVuSans-74"/>
     </defs>
     <g transform="translate(28.617187 198.195969)rotate(-90)scale(0.1 -0.1)">
      <use xlink:href="#DejaVuSans-50"/>
      <use x="60.287109" xlink:href="#DejaVuSans-72"/>
      <use x="101.369141" xlink:href="#DejaVuSans-65"/>
      <use x="162.892578" xlink:href="#DejaVuSans-64"/>
      <use x="226.369141" xlink:href="#DejaVuSans-69"/>
      <use x="254.152344" xlink:href="#DejaVuSans-63"/>
      <use x="309.132812" xlink:href="#DejaVuSans-74"/>
      <use x="348.341797" xlink:href="#DejaVuSans-65"/>
      <use x="409.865234" xlink:href="#DejaVuSans-64"/>
     </g>
    </g>
   </g>
   <g id="line2d_33">
    <path clip-path="url(#p3c892083ae)" d="M 268.495497 150.432839 
L 111.320548 267.553527 
L 111.320548 267.553527 
L 111.320548 267.553527 
L 395.110198 56.084465 
L 224.792348 182.998734 
L 224.792348 182.998734 
L 100.717564 275.45446 
L 100.717564 275.45446 
L 100.717564 275.45446 
L 313.239452 117.091376 
L 131.521924 252.500244 
L 131.521924 252.500244 
L 83.89693 287.988546 
L 83.89693 287.988546 
L 83.89693 287.988546 
L 396.314072 55.187385 
L 111.719917 267.255933 
L 111.719917 267.255933 
L 75.647008 294.136068 
L 75.647008 294.136068 
L 75.647008 294.136068 
L 394.576113 56.482444 
L 360.100538 82.172309 
L 360.100538 82.172309 
L 73.832727 295.488 
L 344.561472 93.751419 
L 344.561472 93.751419 
L 375.569653 70.645323 
L 375.569653 70.645323 
L 375.569653 70.645323 
L 90.813592 282.834517 
L 145.66571 241.960842 
L 145.66571 241.960842 
L 390.726487 59.351037 
L 365.135541 78.420419 
L 365.135541 78.420419 
L 82.15719 289.284933 
L 316.418946 114.72214 
L 316.418946 114.72214 
L 378.096139 68.762683 
L 332.980692 102.380969 
L 332.980692 102.380969 
L 133.344636 251.14203 
L 326.063607 107.535312 
L 326.063607 107.535312 
L 353.024476 87.445116 
L 353.024476 87.445116 
L 353.024476 87.445116 
L 254.15173 161.121259 
L 254.15173 161.121259 
L 254.15173 161.121259 
L 398.487273 53.568 
L 369.821929 74.928304 
L 369.821929 74.928304 
L 82.208854 289.246434 
L 271.59446 148.123612 
L 271.59446 148.123612 
L 375.7723 70.494319 
L 349.717668 89.909222 
L 349.717668 89.909222 
L 267.347324 151.288413 
L 267.347324 151.288413 
" style="fill:none;stroke:#ff0000;stroke-dasharray:5.55,2.4;stroke-dashoffset:0;stroke-width:1.5;"/>
   </g>
   <g id="line2d_34">
    <defs>
     <path d="M 0 1.5 
C 0.397805 1.5 0.77937 1.341951 1.06066 1.06066 
C 1.341951 0.77937 1.5 0.397805 1.5 0 
C 1.5 -0.397805 1.341951 -0.77937 1.06066 -1.06066 
C 0.77937 -1.341951 0.397805 -1.5 0 -1.5 
C -0.397805 -1.5 -0.77937 -1.341951 -1.06066 -1.06066 
C -1.341951 -0.77937 -1.5 -0.397805 -1.5 0 
C -1.5 0.397805 -1.341951 0.77937 -1.06066 1.06066 
C -0.77937 1.341951 -0.397805 1.5 0 1.5 
z
" id="m7c0709ad8a" style="stroke:#1f77b4;"/>
    </defs>
    <g clip-path="url(#p3c892083ae)">
     <use style="fill:#1f77b4;stroke:#1f77b4;" x="268.495497" xlink:href="#m7c0709ad8a" y="194.447937"/>
     <use style="fill:#1f77b4;stroke:#1f77b4;" x="241.048329" xlink:href="#m7c0709ad8a" y="239.181279"/>
     <use style="fill:#1f77b4;stroke:#1f77b4;" x="111.320548" xlink:href="#m7c0709ad8a" y="268.80886"/>
     <use style="fill:#1f77b4;stroke:#1f77b4;" x="281.639374" xlink:href="#m7c0709ad8a" y="160.468716"/>
     <use style="fill:#1f77b4;stroke:#1f77b4;" x="395.110198" xlink:href="#m7c0709ad8a" y="85.058755"/>
     <use style="fill:#1f77b4;stroke:#1f77b4;" x="291.717192" xlink:href="#m7c0709ad8a" y="160.249917"/>
     <use style="fill:#1f77b4;stroke:#1f77b4;" x="149.87105" xlink:href="#m7c0709ad8a" y="252.251067"/>
     <use style="fill:#1f77b4;stroke:#1f77b4;" x="123.815547" xlink:href="#m7c0709ad8a" y="253.377406"/>
     <use style="fill:#1f77b4;stroke:#1f77b4;" x="170.720961" xlink:href="#m7c0709ad8a" y="226.968875"/>
     <use style="fill:#1f77b4;stroke:#1f77b4;" x="336.473259" xlink:href="#m7c0709ad8a" y="96.40776"/>
     <use style="fill:#1f77b4;stroke:#1f77b4;" x="155.223309" xlink:href="#m7c0709ad8a" y="239.554435"/>
     <use style="fill:#1f77b4;stroke:#1f77b4;" x="286.391095" xlink:href="#m7c0709ad8a" y="194.473655"/>
     <use style="fill:#1f77b4;stroke:#1f77b4;" x="194.640903" xlink:href="#m7c0709ad8a" y="221.71453"/>
     <use style="fill:#1f77b4;stroke:#1f77b4;" x="388.325388" xlink:href="#m7c0709ad8a" y="89.603398"/>
     <use style="fill:#1f77b4;stroke:#1f77b4;" x="226.50181" xlink:href="#m7c0709ad8a" y="231.152759"/>
     <use style="fill:#1f77b4;stroke:#1f77b4;" x="224.792348" xlink:href="#m7c0709ad8a" y="242.870192"/>
     <use style="fill:#1f77b4;stroke:#1f77b4;" x="100.717564" xlink:href="#m7c0709ad8a" y="278.737303"/>
     <use style="fill:#1f77b4;stroke:#1f77b4;" x="313.239452" xlink:href="#m7c0709ad8a" y="118.91037"/>
     <use style="fill:#1f77b4;stroke:#1f77b4;" x="128.920382" xlink:href="#m7c0709ad8a" y="256.611909"/>
     <use style="fill:#1f77b4;stroke:#1f77b4;" x="290.492526" xlink:href="#m7c0709ad8a" y="142.24315"/>
     <use style="fill:#1f77b4;stroke:#1f77b4;" x="106.667077" xlink:href="#m7c0709ad8a" y="264.449305"/>
     <use style="fill:#1f77b4;stroke:#1f77b4;" x="311.961881" xlink:href="#m7c0709ad8a" y="209.272994"/>
     <use style="fill:#1f77b4;stroke:#1f77b4;" x="208.49341" xlink:href="#m7c0709ad8a" y="215.667235"/>
     <use style="fill:#1f77b4;stroke:#1f77b4;" x="131.521924" xlink:href="#m7c0709ad8a" y="247.71943"/>
     <use style="fill:#1f77b4;stroke:#1f77b4;" x="83.89693" xlink:href="#m7c0709ad8a" y="272.35887"/>
     <use style="fill:#1f77b4;stroke:#1f77b4;" x="172.811889" xlink:href="#m7c0709ad8a" y="226.694206"/>
     <use style="fill:#1f77b4;stroke:#1f77b4;" x="168.675127" xlink:href="#m7c0709ad8a" y="228.218436"/>
     <use style="fill:#1f77b4;stroke:#1f77b4;" x="281.162759" xlink:href="#m7c0709ad8a" y="155.798864"/>
     <use style="fill:#1f77b4;stroke:#1f77b4;" x="172.340353" xlink:href="#m7c0709ad8a" y="230.881108"/>
     <use style="fill:#1f77b4;stroke:#1f77b4;" x="350.253072" xlink:href="#m7c0709ad8a" y="87.746476"/>
     <use style="fill:#1f77b4;stroke:#1f77b4;" x="241.55331" xlink:href="#m7c0709ad8a" y="183.01702"/>
     <use style="fill:#1f77b4;stroke:#1f77b4;" x="256.308096" xlink:href="#m7c0709ad8a" y="168.283746"/>
     <use style="fill:#1f77b4;stroke:#1f77b4;" x="109.122861" xlink:href="#m7c0709ad8a" y="278.475689"/>
     <use style="fill:#1f77b4;stroke:#1f77b4;" x="300.783254" xlink:href="#m7c0709ad8a" y="189.731959"/>
     <use style="fill:#1f77b4;stroke:#1f77b4;" x="332.286231" xlink:href="#m7c0709ad8a" y="110.994946"/>
     <use style="fill:#1f77b4;stroke:#1f77b4;" x="139.585031" xlink:href="#m7c0709ad8a" y="271.735662"/>
     <use style="fill:#1f77b4;stroke:#1f77b4;" x="182.989935" xlink:href="#m7c0709ad8a" y="221.573868"/>
     <use style="fill:#1f77b4;stroke:#1f77b4;" x="353.792818" xlink:href="#m7c0709ad8a" y="78.475866"/>
     <use style="fill:#1f77b4;stroke:#1f77b4;" x="107.803111" xlink:href="#m7c0709ad8a" y="278.557218"/>
     <use style="fill:#1f77b4;stroke:#1f77b4;" x="332.981984" xlink:href="#m7c0709ad8a" y="102.749278"/>
     <use style="fill:#1f77b4;stroke:#1f77b4;" x="294.10428" xlink:href="#m7c0709ad8a" y="183.546282"/>
     <use style="fill:#1f77b4;stroke:#1f77b4;" x="97.871685" xlink:href="#m7c0709ad8a" y="266.614901"/>
     <use style="fill:#1f77b4;stroke:#1f77b4;" x="211.465482" xlink:href="#m7c0709ad8a" y="212.773623"/>
     <use style="fill:#1f77b4;stroke:#1f77b4;" x="236.541236" xlink:href="#m7c0709ad8a" y="192.160181"/>
     <use style="fill:#1f77b4;stroke:#1f77b4;" x="371.663322" xlink:href="#m7c0709ad8a" y="91.836376"/>
     <use style="fill:#1f77b4;stroke:#1f77b4;" x="127.681375" xlink:href="#m7c0709ad8a" y="265.017203"/>
     <use style="fill:#1f77b4;stroke:#1f77b4;" x="128.674488" xlink:href="#m7c0709ad8a" y="256.656562"/>
     <use style="fill:#1f77b4;stroke:#1f77b4;" x="267.196447" xlink:href="#m7c0709ad8a" y="162.458003"/>
     <use style="fill:#1f77b4;stroke:#1f77b4;" x="143.099855" xlink:href="#m7c0709ad8a" y="247.921093"/>
     <use style="fill:#1f77b4;stroke:#1f77b4;" x="244.444982" xlink:href="#m7c0709ad8a" y="181.148301"/>
     <use style="fill:#1f77b4;stroke:#1f77b4;" x="192.102305" xlink:href="#m7c0709ad8a" y="233.65259"/>
     <use style="fill:#1f77b4;stroke:#1f77b4;" x="224.842007" xlink:href="#m7c0709ad8a" y="224.631432"/>
     <use style="fill:#1f77b4;stroke:#1f77b4;" x="393.403349" xlink:href="#m7c0709ad8a" y="109.057213"/>
     <use style="fill:#1f77b4;stroke:#1f77b4;" x="227.365987" xlink:href="#m7c0709ad8a" y="244.537473"/>
     <use style="fill:#1f77b4;stroke:#1f77b4;" x="288.684485" xlink:href="#m7c0709ad8a" y="141.692337"/>
     <use style="fill:#1f77b4;stroke:#1f77b4;" x="153.973325" xlink:href="#m7c0709ad8a" y="245.934716"/>
     <use style="fill:#1f77b4;stroke:#1f77b4;" x="112.598092" xlink:href="#m7c0709ad8a" y="264.422889"/>
     <use style="fill:#1f77b4;stroke:#1f77b4;" x="306.183048" xlink:href="#m7c0709ad8a" y="207.081817"/>
     <use style="fill:#1f77b4;stroke:#1f77b4;" x="97.371876" xlink:href="#m7c0709ad8a" y="278.613638"/>
     <use style="fill:#1f77b4;stroke:#1f77b4;" x="233.338442" xlink:href="#m7c0709ad8a" y="201.045376"/>
     <use style="fill:#1f77b4;stroke:#1f77b4;" x="247.272668" xlink:href="#m7c0709ad8a" y="179.286424"/>
     <use style="fill:#1f77b4;stroke:#1f77b4;" x="375.534612" xlink:href="#m7c0709ad8a" y="60.063825"/>
     <use style="fill:#1f77b4;stroke:#1f77b4;" x="131.485234" xlink:href="#m7c0709ad8a" y="251.164326"/>
     <use style="fill:#1f77b4;stroke:#1f77b4;" x="199.986262" xlink:href="#m7c0709ad8a" y="209.42333"/>
     <use style="fill:#1f77b4;stroke:#1f77b4;" x="394.987238" xlink:href="#m7c0709ad8a" y="123.155049"/>
     <use style="fill:#1f77b4;stroke:#1f77b4;" x="230.550626" xlink:href="#m7c0709ad8a" y="191.897732"/>
     <use style="fill:#1f77b4;stroke:#1f77b4;" x="333.854315" xlink:href="#m7c0709ad8a" y="120.196306"/>
     <use style="fill:#1f77b4;stroke:#1f77b4;" x="286.73438" xlink:href="#m7c0709ad8a" y="174.899273"/>
     <use style="fill:#1f77b4;stroke:#1f77b4;" x="145.640537" xlink:href="#m7c0709ad8a" y="242.60153"/>
     <use style="fill:#1f77b4;stroke:#1f77b4;" x="396.314072" xlink:href="#m7c0709ad8a" y="114.499939"/>
     <use style="fill:#1f77b4;stroke:#1f77b4;" x="294.42672" xlink:href="#m7c0709ad8a" y="140.065265"/>
     <use style="fill:#1f77b4;stroke:#1f77b4;" x="287.342426" xlink:href="#m7c0709ad8a" y="219.324236"/>
     <use style="fill:#1f77b4;stroke:#1f77b4;" x="188.260199" xlink:href="#m7c0709ad8a" y="216.025202"/>
     <use style="fill:#1f77b4;stroke:#1f77b4;" x="296.402525" xlink:href="#m7c0709ad8a" y="177.456518"/>
     <use style="fill:#1f77b4;stroke:#1f77b4;" x="281.506229" xlink:href="#m7c0709ad8a" y="147.962442"/>
     <use style="fill:#1f77b4;stroke:#1f77b4;" x="348.25249" xlink:href="#m7c0709ad8a" y="148.058944"/>
     <use style="fill:#1f77b4;stroke:#1f77b4;" x="321.343576" xlink:href="#m7c0709ad8a" y="134.976494"/>
     <use style="fill:#1f77b4;stroke:#1f77b4;" x="227.90804" xlink:href="#m7c0709ad8a" y="198.143653"/>
     <use style="fill:#1f77b4;stroke:#1f77b4;" x="229.105133" xlink:href="#m7c0709ad8a" y="241.591864"/>
     <use style="fill:#1f77b4;stroke:#1f77b4;" x="223.250096" xlink:href="#m7c0709ad8a" y="203.923544"/>
     <use style="fill:#1f77b4;stroke:#1f77b4;" x="393.581272" xlink:href="#m7c0709ad8a" y="68.559515"/>
     <use style="fill:#1f77b4;stroke:#1f77b4;" x="314.089513" xlink:href="#m7c0709ad8a" y="147.268687"/>
     <use style="fill:#1f77b4;stroke:#1f77b4;" x="345.046135" xlink:href="#m7c0709ad8a" y="104.883631"/>
     <use style="fill:#1f77b4;stroke:#1f77b4;" x="361.418559" xlink:href="#m7c0709ad8a" y="98.070815"/>
     <use style="fill:#1f77b4;stroke:#1f77b4;" x="138.984848" xlink:href="#m7c0709ad8a" y="248.83581"/>
     <use style="fill:#1f77b4;stroke:#1f77b4;" x="271.913365" xlink:href="#m7c0709ad8a" y="174.730573"/>
     <use style="fill:#1f77b4;stroke:#1f77b4;" x="109.893644" xlink:href="#m7c0709ad8a" y="278.274783"/>
     <use style="fill:#1f77b4;stroke:#1f77b4;" x="170.405737" xlink:href="#m7c0709ad8a" y="227.532418"/>
     <use style="fill:#1f77b4;stroke:#1f77b4;" x="257.159555" xlink:href="#m7c0709ad8a" y="172.794846"/>
     <use style="fill:#1f77b4;stroke:#1f77b4;" x="199.796967" xlink:href="#m7c0709ad8a" y="254.107831"/>
     <use style="fill:#1f77b4;stroke:#1f77b4;" x="356.411524" xlink:href="#m7c0709ad8a" y="97.693618"/>
     <use style="fill:#1f77b4;stroke:#1f77b4;" x="266.71656" xlink:href="#m7c0709ad8a" y="218.015629"/>
     <use style="fill:#1f77b4;stroke:#1f77b4;" x="162.428254" xlink:href="#m7c0709ad8a" y="253.508749"/>
     <use style="fill:#1f77b4;stroke:#1f77b4;" x="324.812185" xlink:href="#m7c0709ad8a" y="189.211033"/>
     <use style="fill:#1f77b4;stroke:#1f77b4;" x="88.465411" xlink:href="#m7c0709ad8a" y="280.968049"/>
     <use style="fill:#1f77b4;stroke:#1f77b4;" x="189.730152" xlink:href="#m7c0709ad8a" y="229.192572"/>
     <use style="fill:#1f77b4;stroke:#1f77b4;" x="299.20269" xlink:href="#m7c0709ad8a" y="132.293884"/>
     <use style="fill:#1f77b4;stroke:#1f77b4;" x="315.7947" xlink:href="#m7c0709ad8a" y="116.758321"/>
     <use style="fill:#1f77b4;stroke:#1f77b4;" x="111.719917" xlink:href="#m7c0709ad8a" y="259.063519"/>
     <use style="fill:#1f77b4;stroke:#1f77b4;" x="75.647008" xlink:href="#m7c0709ad8a" y="268.663272"/>
     <use style="fill:#1f77b4;stroke:#1f77b4;" x="374.711782" xlink:href="#m7c0709ad8a" y="103.180191"/>
     <use style="fill:#1f77b4;stroke:#1f77b4;" x="199.440779" xlink:href="#m7c0709ad8a" y="209.033353"/>
     <use style="fill:#1f77b4;stroke:#1f77b4;" x="186.682062" xlink:href="#m7c0709ad8a" y="248.32503"/>
     <use style="fill:#1f77b4;stroke:#1f77b4;" x="133.473427" xlink:href="#m7c0709ad8a" y="249.714055"/>
     <use style="fill:#1f77b4;stroke:#1f77b4;" x="173.938531" xlink:href="#m7c0709ad8a" y="226.03541"/>
     <use style="fill:#1f77b4;stroke:#1f77b4;" x="389.50591" xlink:href="#m7c0709ad8a" y="59.702555"/>
     <use style="fill:#1f77b4;stroke:#1f77b4;" x="284.718785" xlink:href="#m7c0709ad8a" y="144.419029"/>
     <use style="fill:#1f77b4;stroke:#1f77b4;" x="290.192144" xlink:href="#m7c0709ad8a" y="177.616252"/>
     <use style="fill:#1f77b4;stroke:#1f77b4;" x="125.470376" xlink:href="#m7c0709ad8a" y="258.558736"/>
     <use style="fill:#1f77b4;stroke:#1f77b4;" x="394.576113" xlink:href="#m7c0709ad8a" y="62.722722"/>
     <use style="fill:#1f77b4;stroke:#1f77b4;" x="157.015623" xlink:href="#m7c0709ad8a" y="254.659361"/>
     <use style="fill:#1f77b4;stroke:#1f77b4;" x="389.335455" xlink:href="#m7c0709ad8a" y="134.839371"/>
     <use style="fill:#1f77b4;stroke:#1f77b4;" x="329.101433" xlink:href="#m7c0709ad8a" y="163.327182"/>
     <use style="fill:#1f77b4;stroke:#1f77b4;" x="87.597157" xlink:href="#m7c0709ad8a" y="280.086276"/>
     <use style="fill:#1f77b4;stroke:#1f77b4;" x="239.500563" xlink:href="#m7c0709ad8a" y="234.219919"/>
     <use style="fill:#1f77b4;stroke:#1f77b4;" x="360.100538" xlink:href="#m7c0709ad8a" y="98.058388"/>
     <use style="fill:#1f77b4;stroke:#1f77b4;" x="73.832727" xlink:href="#m7c0709ad8a" y="269.745353"/>
     <use style="fill:#1f77b4;stroke:#1f77b4;" x="84.965614" xlink:href="#m7c0709ad8a" y="265.668351"/>
     <use style="fill:#1f77b4;stroke:#1f77b4;" x="285.805319" xlink:href="#m7c0709ad8a" y="222.051124"/>
     <use style="fill:#1f77b4;stroke:#1f77b4;" x="80.515436" xlink:href="#m7c0709ad8a" y="268.552939"/>
     <use style="fill:#1f77b4;stroke:#1f77b4;" x="344.561472" xlink:href="#m7c0709ad8a" y="143.342847"/>
     <use style="fill:#1f77b4;stroke:#1f77b4;" x="375.569653" xlink:href="#m7c0709ad8a" y="59.005772"/>
     <use style="fill:#1f77b4;stroke:#1f77b4;" x="90.813592" xlink:href="#m7c0709ad8a" y="263.863632"/>
     <use style="fill:#1f77b4;stroke:#1f77b4;" x="236.218347" xlink:href="#m7c0709ad8a" y="234.246856"/>
     <use style="fill:#1f77b4;stroke:#1f77b4;" x="190.400443" xlink:href="#m7c0709ad8a" y="219.197671"/>
     <use style="fill:#1f77b4;stroke:#1f77b4;" x="179.800691" xlink:href="#m7c0709ad8a" y="252.765543"/>
     <use style="fill:#1f77b4;stroke:#1f77b4;" x="187.073687" xlink:href="#m7c0709ad8a" y="243.548493"/>
     <use style="fill:#1f77b4;stroke:#1f77b4;" x="234.042692" xlink:href="#m7c0709ad8a" y="189.638485"/>
     <use style="fill:#1f77b4;stroke:#1f77b4;" x="266.587821" xlink:href="#m7c0709ad8a" y="177.327771"/>
     <use style="fill:#1f77b4;stroke:#1f77b4;" x="145.66571" xlink:href="#m7c0709ad8a" y="246.383109"/>
     <use style="fill:#1f77b4;stroke:#1f77b4;" x="389.176583" xlink:href="#m7c0709ad8a" y="63.799887"/>
     <use style="fill:#1f77b4;stroke:#1f77b4;" x="273.801277" xlink:href="#m7c0709ad8a" y="227.547843"/>
     <use style="fill:#1f77b4;stroke:#1f77b4;" x="287.056953" xlink:href="#m7c0709ad8a" y="188.057343"/>
     <use style="fill:#1f77b4;stroke:#1f77b4;" x="211.684594" xlink:href="#m7c0709ad8a" y="205.502681"/>
     <use style="fill:#1f77b4;stroke:#1f77b4;" x="390.726487" xlink:href="#m7c0709ad8a" y="61.139299"/>
     <use style="fill:#1f77b4;stroke:#1f77b4;" x="365.135541" xlink:href="#m7c0709ad8a" y="95.807006"/>
     <use style="fill:#1f77b4;stroke:#1f77b4;" x="82.15719" xlink:href="#m7c0709ad8a" y="266.595613"/>
     <use style="fill:#1f77b4;stroke:#1f77b4;" x="192.985243" xlink:href="#m7c0709ad8a" y="232.586908"/>
     <use style="fill:#1f77b4;stroke:#1f77b4;" x="328.407764" xlink:href="#m7c0709ad8a" y="118.917605"/>
     <use style="fill:#1f77b4;stroke:#1f77b4;" x="106.033199" xlink:href="#m7c0709ad8a" y="272.362753"/>
     <use style="fill:#1f77b4;stroke:#1f77b4;" x="214.89211" xlink:href="#m7c0709ad8a" y="216.74615"/>
     <use style="fill:#1f77b4;stroke:#1f77b4;" x="203.27737" xlink:href="#m7c0709ad8a" y="220.906676"/>
     <use style="fill:#1f77b4;stroke:#1f77b4;" x="217.251809" xlink:href="#m7c0709ad8a" y="198.368114"/>
     <use style="fill:#1f77b4;stroke:#1f77b4;" x="313.985181" xlink:href="#m7c0709ad8a" y="118.279454"/>
     <use style="fill:#1f77b4;stroke:#1f77b4;" x="277.685073" xlink:href="#m7c0709ad8a" y="168.098529"/>
     <use style="fill:#1f77b4;stroke:#1f77b4;" x="303.94251" xlink:href="#m7c0709ad8a" y="195.638159"/>
     <use style="fill:#1f77b4;stroke:#1f77b4;" x="328.165459" xlink:href="#m7c0709ad8a" y="187.568073"/>
     <use style="fill:#1f77b4;stroke:#1f77b4;" x="316.418946" xlink:href="#m7c0709ad8a" y="138.06363"/>
     <use style="fill:#1f77b4;stroke:#1f77b4;" x="378.096139" xlink:href="#m7c0709ad8a" y="170.748578"/>
     <use style="fill:#1f77b4;stroke:#1f77b4;" x="332.980692" xlink:href="#m7c0709ad8a" y="115.157438"/>
     <use style="fill:#1f77b4;stroke:#1f77b4;" x="158.347933" xlink:href="#m7c0709ad8a" y="239.501299"/>
     <use style="fill:#1f77b4;stroke:#1f77b4;" x="159.253444" xlink:href="#m7c0709ad8a" y="239.095769"/>
     <use style="fill:#1f77b4;stroke:#1f77b4;" x="270.132317" xlink:href="#m7c0709ad8a" y="171.204659"/>
     <use style="fill:#1f77b4;stroke:#1f77b4;" x="133.344636" xlink:href="#m7c0709ad8a" y="273.216066"/>
     <use style="fill:#1f77b4;stroke:#1f77b4;" x="174.971699" xlink:href="#m7c0709ad8a" y="254.645381"/>
     <use style="fill:#1f77b4;stroke:#1f77b4;" x="315.577092" xlink:href="#m7c0709ad8a" y="136.287165"/>
     <use style="fill:#1f77b4;stroke:#1f77b4;" x="285.955325" xlink:href="#m7c0709ad8a" y="189.867981"/>
     <use style="fill:#1f77b4;stroke:#1f77b4;" x="330.75675" xlink:href="#m7c0709ad8a" y="107.558415"/>
     <use style="fill:#1f77b4;stroke:#1f77b4;" x="277.728294" xlink:href="#m7c0709ad8a" y="202.292106"/>
     <use style="fill:#1f77b4;stroke:#1f77b4;" x="326.063607" xlink:href="#m7c0709ad8a" y="180.564181"/>
     <use style="fill:#1f77b4;stroke:#1f77b4;" x="348.249007" xlink:href="#m7c0709ad8a" y="188.001267"/>
     <use style="fill:#1f77b4;stroke:#1f77b4;" x="353.024476" xlink:href="#m7c0709ad8a" y="134.891751"/>
     <use style="fill:#1f77b4;stroke:#1f77b4;" x="308.612249" xlink:href="#m7c0709ad8a" y="192.25271"/>
     <use style="fill:#1f77b4;stroke:#1f77b4;" x="254.15173" xlink:href="#m7c0709ad8a" y="181.188844"/>
     <use style="fill:#1f77b4;stroke:#1f77b4;" x="398.487273" xlink:href="#m7c0709ad8a" y="161.287168"/>
     <use style="fill:#1f77b4;stroke:#1f77b4;" x="327.518784" xlink:href="#m7c0709ad8a" y="110.127103"/>
     <use style="fill:#1f77b4;stroke:#1f77b4;" x="324.393303" xlink:href="#m7c0709ad8a" y="108.436207"/>
     <use style="fill:#1f77b4;stroke:#1f77b4;" x="363.57664" xlink:href="#m7c0709ad8a" y="67.614283"/>
     <use style="fill:#1f77b4;stroke:#1f77b4;" x="369.821929" xlink:href="#m7c0709ad8a" y="61.159197"/>
     <use style="fill:#1f77b4;stroke:#1f77b4;" x="194.049639" xlink:href="#m7c0709ad8a" y="243.681978"/>
     <use style="fill:#1f77b4;stroke:#1f77b4;" x="141.067742" xlink:href="#m7c0709ad8a" y="246.204283"/>
     <use style="fill:#1f77b4;stroke:#1f77b4;" x="234.049368" xlink:href="#m7c0709ad8a" y="220.545976"/>
     <use style="fill:#1f77b4;stroke:#1f77b4;" x="131.558654" xlink:href="#m7c0709ad8a" y="256.606955"/>
     <use style="fill:#1f77b4;stroke:#1f77b4;" x="273.709083" xlink:href="#m7c0709ad8a" y="167.777016"/>
     <use style="fill:#1f77b4;stroke:#1f77b4;" x="130.606835" xlink:href="#m7c0709ad8a" y="253.809411"/>
     <use style="fill:#1f77b4;stroke:#1f77b4;" x="82.208854" xlink:href="#m7c0709ad8a" y="268.525874"/>
     <use style="fill:#1f77b4;stroke:#1f77b4;" x="177.334287" xlink:href="#m7c0709ad8a" y="258.749546"/>
     <use style="fill:#1f77b4;stroke:#1f77b4;" x="158.216714" xlink:href="#m7c0709ad8a" y="254.333443"/>
     <use style="fill:#1f77b4;stroke:#1f77b4;" x="226.203143" xlink:href="#m7c0709ad8a" y="234.259321"/>
     <use style="fill:#1f77b4;stroke:#1f77b4;" x="131.390771" xlink:href="#m7c0709ad8a" y="251.284304"/>
     <use style="fill:#1f77b4;stroke:#1f77b4;" x="105.240067" xlink:href="#m7c0709ad8a" y="274.521251"/>
     <use style="fill:#1f77b4;stroke:#1f77b4;" x="95.771944" xlink:href="#m7c0709ad8a" y="261.717304"/>
     <use style="fill:#1f77b4;stroke:#1f77b4;" x="106.501107" xlink:href="#m7c0709ad8a" y="276.437936"/>
     <use style="fill:#1f77b4;stroke:#1f77b4;" x="335.397332" xlink:href="#m7c0709ad8a" y="96.706151"/>
     <use style="fill:#1f77b4;stroke:#1f77b4;" x="206.042653" xlink:href="#m7c0709ad8a" y="219.291754"/>
     <use style="fill:#1f77b4;stroke:#1f77b4;" x="214.441854" xlink:href="#m7c0709ad8a" y="202.094837"/>
     <use style="fill:#1f77b4;stroke:#1f77b4;" x="134.93429" xlink:href="#m7c0709ad8a" y="265.504714"/>
     <use style="fill:#1f77b4;stroke:#1f77b4;" x="297.315543" xlink:href="#m7c0709ad8a" y="180.534255"/>
     <use style="fill:#1f77b4;stroke:#1f77b4;" x="311.154382" xlink:href="#m7c0709ad8a" y="122.747377"/>
     <use style="fill:#1f77b4;stroke:#1f77b4;" x="149.537632" xlink:href="#m7c0709ad8a" y="246.688185"/>
     <use style="fill:#1f77b4;stroke:#1f77b4;" x="357.847835" xlink:href="#m7c0709ad8a" y="96.424945"/>
     <use style="fill:#1f77b4;stroke:#1f77b4;" x="209.811748" xlink:href="#m7c0709ad8a" y="214.577015"/>
     <use style="fill:#1f77b4;stroke:#1f77b4;" x="353.169257" xlink:href="#m7c0709ad8a" y="118.42692"/>
     <use style="fill:#1f77b4;stroke:#1f77b4;" x="138.812097" xlink:href="#m7c0709ad8a" y="254.181849"/>
     <use style="fill:#1f77b4;stroke:#1f77b4;" x="271.59446" xlink:href="#m7c0709ad8a" y="202.450621"/>
     <use style="fill:#1f77b4;stroke:#1f77b4;" x="375.7723" xlink:href="#m7c0709ad8a" y="83.911475"/>
     <use style="fill:#1f77b4;stroke:#1f77b4;" x="349.717668" xlink:href="#m7c0709ad8a" y="148.192252"/>
     <use style="fill:#1f77b4;stroke:#1f77b4;" x="269.183757" xlink:href="#m7c0709ad8a" y="158.84066"/>
     <use style="fill:#1f77b4;stroke:#1f77b4;" x="311.807574" xlink:href="#m7c0709ad8a" y="124.416605"/>
     <use style="fill:#1f77b4;stroke:#1f77b4;" x="267.347324" xlink:href="#m7c0709ad8a" y="203.452402"/>
    </g>
   </g>
   <g id="patch_3">
    <path d="M 57.6 307.584 
L 57.6 41.472 
" style="fill:none;stroke:#000000;stroke-linecap:square;stroke-linejoin:miter;stroke-width:0.8;"/>
   </g>
   <g id="patch_4">
    <path d="M 414.72 307.584 
L 414.72 41.472 
" style="fill:none;stroke:#000000;stroke-linecap:square;stroke-linejoin:miter;stroke-width:0.8;"/>
   </g>
   <g id="patch_5">
    <path d="M 57.6 307.584 
L 414.72 307.584 
" style="fill:none;stroke:#000000;stroke-linecap:square;stroke-linejoin:miter;stroke-width:0.8;"/>
   </g>
   <g id="patch_6">
    <path d="M 57.6 41.472 
L 414.72 41.472 
" style="fill:none;stroke:#000000;stroke-linecap:square;stroke-linejoin:miter;stroke-width:0.8;"/>
   </g>
   <g id="legend_1">
    <g id="patch_7">
     <path d="M 64.6 78.82825 
L 144.25625 78.82825 
Q 146.25625 78.82825 146.25625 76.82825 
L 146.25625 48.472 
Q 146.25625 46.472 144.25625 46.472 
L 64.6 46.472 
Q 62.6 46.472 62.6 48.472 
L 62.6 76.82825 
Q 62.6 78.82825 64.6 78.82825 
z
" style="fill:#ffffff;opacity:0.8;stroke:#cccccc;stroke-linejoin:miter;"/>
    </g>
    <g id="line2d_35">
     <path d="M 66.6 54.570437 
L 86.6 54.570437 
" style="fill:none;stroke:#ff0000;stroke-dasharray:5.55,2.4;stroke-dashoffset:0;stroke-width:1.5;"/>
    </g>
    <g id="line2d_36"/>
    <g id="text_19">
     <!-- real data -->
     <defs>
      <path id="DejaVuSans-20"/>
     </defs>
     <g transform="translate(94.6 58.070437)scale(0.1 -0.1)">
      <use xlink:href="#DejaVuSans-72"/>
      <use x="41.082031" xlink:href="#DejaVuSans-65"/>
      <use x="102.605469" xlink:href="#DejaVuSans-61"/>
      <use x="163.884766" xlink:href="#DejaVuSans-6c"/>
      <use x="191.667969" xlink:href="#DejaVuSans-20"/>
      <use x="223.455078" xlink:href="#DejaVuSans-64"/>
      <use x="286.931641" xlink:href="#DejaVuSans-61"/>
      <use x="348.210938" xlink:href="#DejaVuSans-74"/>
      <use x="387.419922" xlink:href="#DejaVuSans-61"/>
     </g>
    </g>
    <g id="line2d_37"/>
    <g id="line2d_38">
     <g>
      <use style="fill:#1f77b4;stroke:#1f77b4;" x="76.6" xlink:href="#m7c0709ad8a" y="69.248562"/>
     </g>
    </g>
    <g id="text_20">
     <!-- predicted -->
     <defs>
      <path d="M 18.109375 8.203125 
L 18.109375 -20.796875 
L 9.078125 -20.796875 
L 9.078125 54.6875 
L 18.109375 54.6875 
L 18.109375 46.390625 
Q 20.953125 51.265625 25.265625 53.625 
Q 29.59375 56 35.59375 56 
Q 45.5625 56 51.78125 48.09375 
Q 58.015625 40.1875 58.015625 27.296875 
Q 58.015625 14.40625 51.78125 6.484375 
Q 45.5625 -1.421875 35.59375 -1.421875 
Q 29.59375 -1.421875 25.265625 0.953125 
Q 20.953125 3.328125 18.109375 8.203125 
z
M 48.6875 27.296875 
Q 48.6875 37.203125 44.609375 42.84375 
Q 40.53125 48.484375 33.40625 48.484375 
Q 26.265625 48.484375 22.1875 42.84375 
Q 18.109375 37.203125 18.109375 27.296875 
Q 18.109375 17.390625 22.1875 11.75 
Q 26.265625 6.109375 33.40625 6.109375 
Q 40.53125 6.109375 44.609375 11.75 
Q 48.6875 17.390625 48.6875 27.296875 
z
" id="DejaVuSans-70"/>
     </defs>
     <g transform="translate(94.6 72.748562)scale(0.1 -0.1)">
      <use xlink:href="#DejaVuSans-70"/>
      <use x="63.476562" xlink:href="#DejaVuSans-72"/>
      <use x="104.558594" xlink:href="#DejaVuSans-65"/>
      <use x="166.082031" xlink:href="#DejaVuSans-64"/>
      <use x="229.558594" xlink:href="#DejaVuSans-69"/>
      <use x="257.341797" xlink:href="#DejaVuSans-63"/>
      <use x="312.322266" xlink:href="#DejaVuSans-74"/>
      <use x="351.53125" xlink:href="#DejaVuSans-65"/>
      <use x="413.054688" xlink:href="#DejaVuSans-64"/>
     </g>
    </g>
   </g>
  </g>
  <g id="axes_2">
   <g id="patch_8">
    <path d="M 299.52 276.48 
L 391.68 276.48 
L 391.68 207.36 
L 299.52 207.36 
z
" style="fill:#ffffff;"/>
   </g>
   <g id="patch_9">
    <path clip-path="url(#p4e4cf78f4e)" d="M 303.709091 276.48 
L 312.087273 276.48 
L 312.087273 266.939627 
L 303.709091 266.939627 
z
" style="fill:#1f77b4;"/>
   </g>
   <g id="patch_10">
    <path clip-path="url(#p4e4cf78f4e)" d="M 312.087273 276.48 
L 320.465455 276.48 
L 320.465455 251.675031 
L 312.087273 251.675031 
z
" style="fill:#1f77b4;"/>
   </g>
   <g id="patch_11">
    <path clip-path="url(#p4e4cf78f4e)" d="M 320.465455 276.48 
L 328.843636 276.48 
L 328.843636 210.651429 
L 320.465455 210.651429 
z
" style="fill:#1f77b4;"/>
   </g>
   <g id="patch_12">
    <path clip-path="url(#p4e4cf78f4e)" d="M 328.843636 276.48 
L 337.221818 276.48 
L 337.221818 241.180621 
L 328.843636 241.180621 
z
" style="fill:#1f77b4;"/>
   </g>
   <g id="patch_13">
    <path clip-path="url(#p4e4cf78f4e)" d="M 337.221818 276.48 
L 345.6 276.48 
L 345.6 265.031553 
L 337.221818 265.031553 
z
" style="fill:#1f77b4;"/>
   </g>
   <g id="patch_14">
    <path clip-path="url(#p4e4cf78f4e)" d="M 345.6 276.48 
L 353.978182 276.48 
L 353.978182 260.261366 
L 345.6 260.261366 
z
" style="fill:#1f77b4;"/>
   </g>
   <g id="patch_15">
    <path clip-path="url(#p4e4cf78f4e)" d="M 353.978182 276.48 
L 362.356364 276.48 
L 362.356364 263.123478 
L 353.978182 263.123478 
z
" style="fill:#1f77b4;"/>
   </g>
   <g id="patch_16">
    <path clip-path="url(#p4e4cf78f4e)" d="M 362.356364 276.48 
L 370.734545 276.48 
L 370.734545 270.755776 
L 362.356364 270.755776 
z
" style="fill:#1f77b4;"/>
   </g>
   <g id="patch_17">
    <path clip-path="url(#p4e4cf78f4e)" d="M 370.734545 276.48 
L 379.112727 276.48 
L 379.112727 270.755776 
L 370.734545 270.755776 
z
" style="fill:#1f77b4;"/>
   </g>
   <g id="patch_18">
    <path clip-path="url(#p4e4cf78f4e)" d="M 379.112727 276.48 
L 387.490909 276.48 
L 387.490909 273.617888 
L 379.112727 273.617888 
z
" style="fill:#1f77b4;"/>
   </g>
   <g id="matplotlib.axis_3">
    <g id="xtick_9">
     <g id="line2d_39">
      <g>
       <use style="stroke:#000000;stroke-width:0.8;" x="319.869262" xlink:href="#m123fff5ef5" y="276.48"/>
      </g>
     </g>
     <g id="text_21">
      <!-- 0.0 -->
      <g transform="translate(311.9177 291.078437)scale(0.1 -0.1)">
       <use xlink:href="#DejaVuSans-30"/>
       <use x="63.623047" xlink:href="#DejaVuSans-2e"/>
       <use x="95.410156" xlink:href="#DejaVuSans-30"/>
      </g>
     </g>
    </g>
    <g id="xtick_10">
     <g id="line2d_40">
      <g>
       <use style="stroke:#000000;stroke-width:0.8;" x="361.285545" xlink:href="#m123fff5ef5" y="276.48"/>
      </g>
     </g>
     <g id="text_22">
      <!-- 0.2 -->
      <defs>
       <path d="M 19.1875 8.296875 
L 53.609375 8.296875 
L 53.609375 0 
L 7.328125 0 
L 7.328125 8.296875 
Q 12.9375 14.109375 22.625 23.890625 
Q 32.328125 33.6875 34.8125 36.53125 
Q 39.546875 41.84375 41.421875 45.53125 
Q 43.3125 49.21875 43.3125 52.78125 
Q 43.3125 58.59375 39.234375 62.25 
Q 35.15625 65.921875 28.609375 65.921875 
Q 23.96875 65.921875 18.8125 64.3125 
Q 13.671875 62.703125 7.8125 59.421875 
L 7.8125 69.390625 
Q 13.765625 71.78125 18.9375 73 
Q 24.125 74.21875 28.421875 74.21875 
Q 39.75 74.21875 46.484375 68.546875 
Q 53.21875 62.890625 53.21875 53.421875 
Q 53.21875 48.921875 51.53125 44.890625 
Q 49.859375 40.875 45.40625 35.40625 
Q 44.1875 33.984375 37.640625 27.21875 
Q 31.109375 20.453125 19.1875 8.296875 
z
" id="DejaVuSans-32"/>
      </defs>
      <g transform="translate(353.333982 291.078437)scale(0.1 -0.1)">
       <use xlink:href="#DejaVuSans-30"/>
       <use x="63.623047" xlink:href="#DejaVuSans-2e"/>
       <use x="95.410156" xlink:href="#DejaVuSans-32"/>
      </g>
     </g>
    </g>
   </g>
   <g id="matplotlib.axis_4">
    <g id="ytick_9">
     <g id="line2d_41">
      <g>
       <use style="stroke:#000000;stroke-width:0.8;" x="299.52" xlink:href="#m7cc972e914" y="276.48"/>
      </g>
     </g>
     <g id="text_23">
      <!-- 0 -->
      <g transform="translate(286.1575 280.279219)scale(0.1 -0.1)">
       <use xlink:href="#DejaVuSans-30"/>
      </g>
     </g>
    </g>
    <g id="ytick_10">
     <g id="line2d_42">
      <g>
       <use style="stroke:#000000;stroke-width:0.8;" x="299.52" xlink:href="#m7cc972e914" y="252.629068"/>
      </g>
     </g>
     <g id="text_24">
      <!-- 25 -->
      <g transform="translate(279.795 256.428287)scale(0.1 -0.1)">
       <use xlink:href="#DejaVuSans-32"/>
       <use x="63.623047" xlink:href="#DejaVuSans-35"/>
      </g>
     </g>
    </g>
    <g id="ytick_11">
     <g id="line2d_43">
      <g>
       <use style="stroke:#000000;stroke-width:0.8;" x="299.52" xlink:href="#m7cc972e914" y="228.778137"/>
      </g>
     </g>
     <g id="text_25">
      <!-- 50 -->
      <g transform="translate(279.795 232.577355)scale(0.1 -0.1)">
       <use xlink:href="#DejaVuSans-35"/>
       <use x="63.623047" xlink:href="#DejaVuSans-30"/>
      </g>
     </g>
    </g>
   </g>
   <g id="patch_19">
    <path d="M 299.52 276.48 
L 299.52 207.36 
" style="fill:none;stroke:#000000;stroke-linecap:square;stroke-linejoin:miter;stroke-width:0.8;"/>
   </g>
   <g id="patch_20">
    <path d="M 391.68 276.48 
L 391.68 207.36 
" style="fill:none;stroke:#000000;stroke-linecap:square;stroke-linejoin:miter;stroke-width:0.8;"/>
   </g>
   <g id="patch_21">
    <path d="M 299.52 276.48 
L 391.68 276.48 
" style="fill:none;stroke:#000000;stroke-linecap:square;stroke-linejoin:miter;stroke-width:0.8;"/>
   </g>
   <g id="patch_22">
    <path d="M 299.52 207.36 
L 391.68 207.36 
" style="fill:none;stroke:#000000;stroke-linecap:square;stroke-linejoin:miter;stroke-width:0.8;"/>
   </g>
   <g id="text_26">
    <!-- Error -->
    <defs>
     <path d="M 9.8125 72.90625 
L 55.90625 72.90625 
L 55.90625 64.59375 
L 19.671875 64.59375 
L 19.671875 43.015625 
L 54.390625 43.015625 
L 54.390625 34.71875 
L 19.671875 34.71875 
L 19.671875 8.296875 
L 56.78125 8.296875 
L 56.78125 0 
L 9.8125 0 
z
" id="DejaVuSans-45"/>
     <path d="M 30.609375 48.390625 
Q 23.390625 48.390625 19.1875 42.75 
Q 14.984375 37.109375 14.984375 27.296875 
Q 14.984375 17.484375 19.15625 11.84375 
Q 23.34375 6.203125 30.609375 6.203125 
Q 37.796875 6.203125 41.984375 11.859375 
Q 46.1875 17.53125 46.1875 27.296875 
Q 46.1875 37.015625 41.984375 42.703125 
Q 37.796875 48.390625 30.609375 48.390625 
z
M 30.609375 56 
Q 42.328125 56 49.015625 48.375 
Q 55.71875 40.765625 55.71875 27.296875 
Q 55.71875 13.875 49.015625 6.21875 
Q 42.328125 -1.421875 30.609375 -1.421875 
Q 18.84375 -1.421875 12.171875 6.21875 
Q 5.515625 13.875 5.515625 27.296875 
Q 5.515625 40.765625 12.171875 48.375 
Q 18.84375 56 30.609375 56 
z
" id="DejaVuSans-6f"/>
    </defs>
    <g transform="translate(330.740625 201.36)scale(0.12 -0.12)">
     <use xlink:href="#DejaVuSans-45"/>
     <use x="63.183594" xlink:href="#DejaVuSans-72"/>
     <use x="104.28125" xlink:href="#DejaVuSans-72"/>
     <use x="145.363281" xlink:href="#DejaVuSans-6f"/>
     <use x="206.544922" xlink:href="#DejaVuSans-72"/>
    </g>
   </g>
  </g>
 </g>
 <defs>
  <clipPath id="p3c892083ae">
   <rect height="266.112" width="357.12" x="57.6" y="41.472"/>
  </clipPath>
  <clipPath id="p4e4cf78f4e">
   <rect height="69.12" width="92.16" x="299.52" y="207.36"/>
  </clipPath>
 </defs>
</svg>
