<?xml version="1.0" encoding="utf-8" standalone="no"?>
<!DOCTYPE svg PUBLIC "-//W3C//DTD SVG 1.1//EN"
  "http://www.w3.org/Graphics/SVG/1.1/DTD/svg11.dtd">
<!-- Created with matplotlib (http://matplotlib.org/) -->
<svg height="345pt" version="1.1" viewBox="0 0 460 345" width="460pt" xmlns="http://www.w3.org/2000/svg" xmlns:xlink="http://www.w3.org/1999/xlink">
 <defs>
  <style type="text/css">
*{stroke-linecap:butt;stroke-linejoin:round;}
  </style>
 </defs>
 <g id="figure_1">
  <g id="patch_1">
   <path d="M 0 345.6 
L 460.8 345.6 
L 460.8 0 
L 0 0 
z
" style="fill:#ffffff;"/>
  </g>
  <g id="axes_1">
   <g id="patch_2">
    <path d="M 57.6 307.584 
L 414.72 307.584 
L 414.72 41.472 
L 57.6 41.472 
z
" style="fill:#ffffff;"/>
   </g>
   <g id="matplotlib.axis_1">
    <g id="xtick_1">
     <g id="line2d_1">
      <path clip-path="url(#p4bfbcaae7c)" d="M 93.902958 307.584 
L 93.902958 41.472 
" style="fill:none;stroke:#b0b0b0;stroke-linecap:square;stroke-width:0.8;"/>
     </g>
     <g id="line2d_2">
      <defs>
       <path d="M 0 0 
L 0 3.5 
" id="m10db5bdd2f" style="stroke:#000000;stroke-width:0.8;"/>
      </defs>
      <g>
       <use style="stroke:#000000;stroke-width:0.8;" x="93.902958" xlink:href="#m10db5bdd2f" y="307.584"/>
      </g>
     </g>
     <g id="text_1">
      <!-- 0.3 -->
      <defs>
       <path d="M 31.78125 66.40625 
Q 24.171875 66.40625 20.328125 58.90625 
Q 16.5 51.421875 16.5 36.375 
Q 16.5 21.390625 20.328125 13.890625 
Q 24.171875 6.390625 31.78125 6.390625 
Q 39.453125 6.390625 43.28125 13.890625 
Q 47.125 21.390625 47.125 36.375 
Q 47.125 51.421875 43.28125 58.90625 
Q 39.453125 66.40625 31.78125 66.40625 
z
M 31.78125 74.21875 
Q 44.046875 74.21875 50.515625 64.515625 
Q 56.984375 54.828125 56.984375 36.375 
Q 56.984375 17.96875 50.515625 8.265625 
Q 44.046875 -1.421875 31.78125 -1.421875 
Q 19.53125 -1.421875 13.0625 8.265625 
Q 6.59375 17.96875 6.59375 36.375 
Q 6.59375 54.828125 13.0625 64.515625 
Q 19.53125 74.21875 31.78125 74.21875 
z
" id="DejaVuSans-30"/>
       <path d="M 10.6875 12.40625 
L 21 12.40625 
L 21 0 
L 10.6875 0 
z
" id="DejaVuSans-2e"/>
       <path d="M 40.578125 39.3125 
Q 47.65625 37.796875 51.625 33 
Q 55.609375 28.21875 55.609375 21.1875 
Q 55.609375 10.40625 48.1875 4.484375 
Q 40.765625 -1.421875 27.09375 -1.421875 
Q 22.515625 -1.421875 17.65625 -0.515625 
Q 12.796875 0.390625 7.625 2.203125 
L 7.625 11.71875 
Q 11.71875 9.328125 16.59375 8.109375 
Q 21.484375 6.890625 26.8125 6.890625 
Q 36.078125 6.890625 40.9375 10.546875 
Q 45.796875 14.203125 45.796875 21.1875 
Q 45.796875 27.640625 41.28125 31.265625 
Q 36.765625 34.90625 28.71875 34.90625 
L 20.21875 34.90625 
L 20.21875 43.015625 
L 29.109375 43.015625 
Q 36.375 43.015625 40.234375 45.921875 
Q 44.09375 48.828125 44.09375 54.296875 
Q 44.09375 59.90625 40.109375 62.90625 
Q 36.140625 65.921875 28.71875 65.921875 
Q 24.65625 65.921875 20.015625 65.03125 
Q 15.375 64.15625 9.8125 62.3125 
L 9.8125 71.09375 
Q 15.4375 72.65625 20.34375 73.4375 
Q 25.25 74.21875 29.59375 74.21875 
Q 40.828125 74.21875 47.359375 69.109375 
Q 53.90625 64.015625 53.90625 55.328125 
Q 53.90625 49.265625 50.4375 45.09375 
Q 46.96875 40.921875 40.578125 39.3125 
z
" id="DejaVuSans-33"/>
      </defs>
      <g transform="translate(85.951396 322.182437)scale(0.1 -0.1)">
       <use xlink:href="#DejaVuSans-30"/>
       <use x="63.623047" xlink:href="#DejaVuSans-2e"/>
       <use x="95.410156" xlink:href="#DejaVuSans-33"/>
      </g>
     </g>
    </g>
    <g id="xtick_2">
     <g id="line2d_3">
      <path clip-path="url(#p4bfbcaae7c)" d="M 138.171792 307.584 
L 138.171792 41.472 
" style="fill:none;stroke:#b0b0b0;stroke-linecap:square;stroke-width:0.8;"/>
     </g>
     <g id="line2d_4">
      <g>
       <use style="stroke:#000000;stroke-width:0.8;" x="138.171792" xlink:href="#m10db5bdd2f" y="307.584"/>
      </g>
     </g>
     <g id="text_2">
      <!-- 0.4 -->
      <defs>
       <path d="M 37.796875 64.3125 
L 12.890625 25.390625 
L 37.796875 25.390625 
z
M 35.203125 72.90625 
L 47.609375 72.90625 
L 47.609375 25.390625 
L 58.015625 25.390625 
L 58.015625 17.1875 
L 47.609375 17.1875 
L 47.609375 0 
L 37.796875 0 
L 37.796875 17.1875 
L 4.890625 17.1875 
L 4.890625 26.703125 
z
" id="DejaVuSans-34"/>
      </defs>
      <g transform="translate(130.22023 322.182437)scale(0.1 -0.1)">
       <use xlink:href="#DejaVuSans-30"/>
       <use x="63.623047" xlink:href="#DejaVuSans-2e"/>
       <use x="95.410156" xlink:href="#DejaVuSans-34"/>
      </g>
     </g>
    </g>
    <g id="xtick_3">
     <g id="line2d_5">
      <path clip-path="url(#p4bfbcaae7c)" d="M 182.440626 307.584 
L 182.440626 41.472 
" style="fill:none;stroke:#b0b0b0;stroke-linecap:square;stroke-width:0.8;"/>
     </g>
     <g id="line2d_6">
      <g>
       <use style="stroke:#000000;stroke-width:0.8;" x="182.440626" xlink:href="#m10db5bdd2f" y="307.584"/>
      </g>
     </g>
     <g id="text_3">
      <!-- 0.5 -->
      <defs>
       <path d="M 10.796875 72.90625 
L 49.515625 72.90625 
L 49.515625 64.59375 
L 19.828125 64.59375 
L 19.828125 46.734375 
Q 21.96875 47.46875 24.109375 47.828125 
Q 26.265625 48.1875 28.421875 48.1875 
Q 40.625 48.1875 47.75 41.5 
Q 54.890625 34.8125 54.890625 23.390625 
Q 54.890625 11.625 47.5625 5.09375 
Q 40.234375 -1.421875 26.90625 -1.421875 
Q 22.3125 -1.421875 17.546875 -0.640625 
Q 12.796875 0.140625 7.71875 1.703125 
L 7.71875 11.625 
Q 12.109375 9.234375 16.796875 8.0625 
Q 21.484375 6.890625 26.703125 6.890625 
Q 35.15625 6.890625 40.078125 11.328125 
Q 45.015625 15.765625 45.015625 23.390625 
Q 45.015625 31 40.078125 35.4375 
Q 35.15625 39.890625 26.703125 39.890625 
Q 22.75 39.890625 18.8125 39.015625 
Q 14.890625 38.140625 10.796875 36.28125 
z
" id="DejaVuSans-35"/>
      </defs>
      <g transform="translate(174.489063 322.182437)scale(0.1 -0.1)">
       <use xlink:href="#DejaVuSans-30"/>
       <use x="63.623047" xlink:href="#DejaVuSans-2e"/>
       <use x="95.410156" xlink:href="#DejaVuSans-35"/>
      </g>
     </g>
    </g>
    <g id="xtick_4">
     <g id="line2d_7">
      <path clip-path="url(#p4bfbcaae7c)" d="M 226.709459 307.584 
L 226.709459 41.472 
" style="fill:none;stroke:#b0b0b0;stroke-linecap:square;stroke-width:0.8;"/>
     </g>
     <g id="line2d_8">
      <g>
       <use style="stroke:#000000;stroke-width:0.8;" x="226.709459" xlink:href="#m10db5bdd2f" y="307.584"/>
      </g>
     </g>
     <g id="text_4">
      <!-- 0.6 -->
      <defs>
       <path d="M 33.015625 40.375 
Q 26.375 40.375 22.484375 35.828125 
Q 18.609375 31.296875 18.609375 23.390625 
Q 18.609375 15.53125 22.484375 10.953125 
Q 26.375 6.390625 33.015625 6.390625 
Q 39.65625 6.390625 43.53125 10.953125 
Q 47.40625 15.53125 47.40625 23.390625 
Q 47.40625 31.296875 43.53125 35.828125 
Q 39.65625 40.375 33.015625 40.375 
z
M 52.59375 71.296875 
L 52.59375 62.3125 
Q 48.875 64.0625 45.09375 64.984375 
Q 41.3125 65.921875 37.59375 65.921875 
Q 27.828125 65.921875 22.671875 59.328125 
Q 17.53125 52.734375 16.796875 39.40625 
Q 19.671875 43.65625 24.015625 45.921875 
Q 28.375 48.1875 33.59375 48.1875 
Q 44.578125 48.1875 50.953125 41.515625 
Q 57.328125 34.859375 57.328125 23.390625 
Q 57.328125 12.15625 50.6875 5.359375 
Q 44.046875 -1.421875 33.015625 -1.421875 
Q 20.359375 -1.421875 13.671875 8.265625 
Q 6.984375 17.96875 6.984375 36.375 
Q 6.984375 53.65625 15.1875 63.9375 
Q 23.390625 74.21875 37.203125 74.21875 
Q 40.921875 74.21875 44.703125 73.484375 
Q 48.484375 72.75 52.59375 71.296875 
z
" id="DejaVuSans-36"/>
      </defs>
      <g transform="translate(218.757897 322.182437)scale(0.1 -0.1)">
       <use xlink:href="#DejaVuSans-30"/>
       <use x="63.623047" xlink:href="#DejaVuSans-2e"/>
       <use x="95.410156" xlink:href="#DejaVuSans-36"/>
      </g>
     </g>
    </g>
    <g id="xtick_5">
     <g id="line2d_9">
      <path clip-path="url(#p4bfbcaae7c)" d="M 270.978293 307.584 
L 270.978293 41.472 
" style="fill:none;stroke:#b0b0b0;stroke-linecap:square;stroke-width:0.8;"/>
     </g>
     <g id="line2d_10">
      <g>
       <use style="stroke:#000000;stroke-width:0.8;" x="270.978293" xlink:href="#m10db5bdd2f" y="307.584"/>
      </g>
     </g>
     <g id="text_5">
      <!-- 0.7 -->
      <defs>
       <path d="M 8.203125 72.90625 
L 55.078125 72.90625 
L 55.078125 68.703125 
L 28.609375 0 
L 18.3125 0 
L 43.21875 64.59375 
L 8.203125 64.59375 
z
" id="DejaVuSans-37"/>
      </defs>
      <g transform="translate(263.02673 322.182437)scale(0.1 -0.1)">
       <use xlink:href="#DejaVuSans-30"/>
       <use x="63.623047" xlink:href="#DejaVuSans-2e"/>
       <use x="95.410156" xlink:href="#DejaVuSans-37"/>
      </g>
     </g>
    </g>
    <g id="xtick_6">
     <g id="line2d_11">
      <path clip-path="url(#p4bfbcaae7c)" d="M 315.247126 307.584 
L 315.247126 41.472 
" style="fill:none;stroke:#b0b0b0;stroke-linecap:square;stroke-width:0.8;"/>
     </g>
     <g id="line2d_12">
      <g>
       <use style="stroke:#000000;stroke-width:0.8;" x="315.247126" xlink:href="#m10db5bdd2f" y="307.584"/>
      </g>
     </g>
     <g id="text_6">
      <!-- 0.8 -->
      <defs>
       <path d="M 31.78125 34.625 
Q 24.75 34.625 20.71875 30.859375 
Q 16.703125 27.09375 16.703125 20.515625 
Q 16.703125 13.921875 20.71875 10.15625 
Q 24.75 6.390625 31.78125 6.390625 
Q 38.8125 6.390625 42.859375 10.171875 
Q 46.921875 13.96875 46.921875 20.515625 
Q 46.921875 27.09375 42.890625 30.859375 
Q 38.875 34.625 31.78125 34.625 
z
M 21.921875 38.8125 
Q 15.578125 40.375 12.03125 44.71875 
Q 8.5 49.078125 8.5 55.328125 
Q 8.5 64.0625 14.71875 69.140625 
Q 20.953125 74.21875 31.78125 74.21875 
Q 42.671875 74.21875 48.875 69.140625 
Q 55.078125 64.0625 55.078125 55.328125 
Q 55.078125 49.078125 51.53125 44.71875 
Q 48 40.375 41.703125 38.8125 
Q 48.828125 37.15625 52.796875 32.3125 
Q 56.78125 27.484375 56.78125 20.515625 
Q 56.78125 9.90625 50.3125 4.234375 
Q 43.84375 -1.421875 31.78125 -1.421875 
Q 19.734375 -1.421875 13.25 4.234375 
Q 6.78125 9.90625 6.78125 20.515625 
Q 6.78125 27.484375 10.78125 32.3125 
Q 14.796875 37.15625 21.921875 38.8125 
z
M 18.3125 54.390625 
Q 18.3125 48.734375 21.84375 45.5625 
Q 25.390625 42.390625 31.78125 42.390625 
Q 38.140625 42.390625 41.71875 45.5625 
Q 45.3125 48.734375 45.3125 54.390625 
Q 45.3125 60.0625 41.71875 63.234375 
Q 38.140625 66.40625 31.78125 66.40625 
Q 25.390625 66.40625 21.84375 63.234375 
Q 18.3125 60.0625 18.3125 54.390625 
z
" id="DejaVuSans-38"/>
      </defs>
      <g transform="translate(307.295564 322.182437)scale(0.1 -0.1)">
       <use xlink:href="#DejaVuSans-30"/>
       <use x="63.623047" xlink:href="#DejaVuSans-2e"/>
       <use x="95.410156" xlink:href="#DejaVuSans-38"/>
      </g>
     </g>
    </g>
    <g id="xtick_7">
     <g id="line2d_13">
      <path clip-path="url(#p4bfbcaae7c)" d="M 359.51596 307.584 
L 359.51596 41.472 
" style="fill:none;stroke:#b0b0b0;stroke-linecap:square;stroke-width:0.8;"/>
     </g>
     <g id="line2d_14">
      <g>
       <use style="stroke:#000000;stroke-width:0.8;" x="359.51596" xlink:href="#m10db5bdd2f" y="307.584"/>
      </g>
     </g>
     <g id="text_7">
      <!-- 0.9 -->
      <defs>
       <path d="M 10.984375 1.515625 
L 10.984375 10.5 
Q 14.703125 8.734375 18.5 7.8125 
Q 22.3125 6.890625 25.984375 6.890625 
Q 35.75 6.890625 40.890625 13.453125 
Q 46.046875 20.015625 46.78125 33.40625 
Q 43.953125 29.203125 39.59375 26.953125 
Q 35.25 24.703125 29.984375 24.703125 
Q 19.046875 24.703125 12.671875 31.3125 
Q 6.296875 37.9375 6.296875 49.421875 
Q 6.296875 60.640625 12.9375 67.421875 
Q 19.578125 74.21875 30.609375 74.21875 
Q 43.265625 74.21875 49.921875 64.515625 
Q 56.59375 54.828125 56.59375 36.375 
Q 56.59375 19.140625 48.40625 8.859375 
Q 40.234375 -1.421875 26.421875 -1.421875 
Q 22.703125 -1.421875 18.890625 -0.6875 
Q 15.09375 0.046875 10.984375 1.515625 
z
M 30.609375 32.421875 
Q 37.25 32.421875 41.125 36.953125 
Q 45.015625 41.5 45.015625 49.421875 
Q 45.015625 57.28125 41.125 61.84375 
Q 37.25 66.40625 30.609375 66.40625 
Q 23.96875 66.40625 20.09375 61.84375 
Q 16.21875 57.28125 16.21875 49.421875 
Q 16.21875 41.5 20.09375 36.953125 
Q 23.96875 32.421875 30.609375 32.421875 
z
" id="DejaVuSans-39"/>
      </defs>
      <g transform="translate(351.564398 322.182437)scale(0.1 -0.1)">
       <use xlink:href="#DejaVuSans-30"/>
       <use x="63.623047" xlink:href="#DejaVuSans-2e"/>
       <use x="95.410156" xlink:href="#DejaVuSans-39"/>
      </g>
     </g>
    </g>
    <g id="xtick_8">
     <g id="line2d_15">
      <path clip-path="url(#p4bfbcaae7c)" d="M 403.784794 307.584 
L 403.784794 41.472 
" style="fill:none;stroke:#b0b0b0;stroke-linecap:square;stroke-width:0.8;"/>
     </g>
     <g id="line2d_16">
      <g>
       <use style="stroke:#000000;stroke-width:0.8;" x="403.784794" xlink:href="#m10db5bdd2f" y="307.584"/>
      </g>
     </g>
     <g id="text_8">
      <!-- 1.0 -->
      <defs>
       <path d="M 12.40625 8.296875 
L 28.515625 8.296875 
L 28.515625 63.921875 
L 10.984375 60.40625 
L 10.984375 69.390625 
L 28.421875 72.90625 
L 38.28125 72.90625 
L 38.28125 8.296875 
L 54.390625 8.296875 
L 54.390625 0 
L 12.40625 0 
z
" id="DejaVuSans-31"/>
      </defs>
      <g transform="translate(395.833231 322.182437)scale(0.1 -0.1)">
       <use xlink:href="#DejaVuSans-31"/>
       <use x="63.623047" xlink:href="#DejaVuSans-2e"/>
       <use x="95.410156" xlink:href="#DejaVuSans-30"/>
      </g>
     </g>
    </g>
    <g id="text_9">
     <!-- Real -->
     <defs>
      <path d="M 44.390625 34.1875 
Q 47.5625 33.109375 50.5625 29.59375 
Q 53.5625 26.078125 56.59375 19.921875 
L 66.609375 0 
L 56 0 
L 46.6875 18.703125 
Q 43.0625 26.03125 39.671875 28.421875 
Q 36.28125 30.8125 30.421875 30.8125 
L 19.671875 30.8125 
L 19.671875 0 
L 9.8125 0 
L 9.8125 72.90625 
L 32.078125 72.90625 
Q 44.578125 72.90625 50.734375 67.671875 
Q 56.890625 62.453125 56.890625 51.90625 
Q 56.890625 45.015625 53.6875 40.46875 
Q 50.484375 35.9375 44.390625 34.1875 
z
M 19.671875 64.796875 
L 19.671875 38.921875 
L 32.078125 38.921875 
Q 39.203125 38.921875 42.84375 42.21875 
Q 46.484375 45.515625 46.484375 51.90625 
Q 46.484375 58.296875 42.84375 61.546875 
Q 39.203125 64.796875 32.078125 64.796875 
z
" id="DejaVuSans-52"/>
      <path d="M 56.203125 29.59375 
L 56.203125 25.203125 
L 14.890625 25.203125 
Q 15.484375 15.921875 20.484375 11.0625 
Q 25.484375 6.203125 34.421875 6.203125 
Q 39.59375 6.203125 44.453125 7.46875 
Q 49.3125 8.734375 54.109375 11.28125 
L 54.109375 2.78125 
Q 49.265625 0.734375 44.1875 -0.34375 
Q 39.109375 -1.421875 33.890625 -1.421875 
Q 20.796875 -1.421875 13.15625 6.1875 
Q 5.515625 13.8125 5.515625 26.8125 
Q 5.515625 40.234375 12.765625 48.109375 
Q 20.015625 56 32.328125 56 
Q 43.359375 56 49.78125 48.890625 
Q 56.203125 41.796875 56.203125 29.59375 
z
M 47.21875 32.234375 
Q 47.125 39.59375 43.09375 43.984375 
Q 39.0625 48.390625 32.421875 48.390625 
Q 24.90625 48.390625 20.390625 44.140625 
Q 15.875 39.890625 15.1875 32.171875 
z
" id="DejaVuSans-65"/>
      <path d="M 34.28125 27.484375 
Q 23.390625 27.484375 19.1875 25 
Q 14.984375 22.515625 14.984375 16.5 
Q 14.984375 11.71875 18.140625 8.90625 
Q 21.296875 6.109375 26.703125 6.109375 
Q 34.1875 6.109375 38.703125 11.40625 
Q 43.21875 16.703125 43.21875 25.484375 
L 43.21875 27.484375 
z
M 52.203125 31.203125 
L 52.203125 0 
L 43.21875 0 
L 43.21875 8.296875 
Q 40.140625 3.328125 35.546875 0.953125 
Q 30.953125 -1.421875 24.3125 -1.421875 
Q 15.921875 -1.421875 10.953125 3.296875 
Q 6 8.015625 6 15.921875 
Q 6 25.140625 12.171875 29.828125 
Q 18.359375 34.515625 30.609375 34.515625 
L 43.21875 34.515625 
L 43.21875 35.40625 
Q 43.21875 41.609375 39.140625 45 
Q 35.0625 48.390625 27.6875 48.390625 
Q 23 48.390625 18.546875 47.265625 
Q 14.109375 46.140625 10.015625 43.890625 
L 10.015625 52.203125 
Q 14.9375 54.109375 19.578125 55.046875 
Q 24.21875 56 28.609375 56 
Q 40.484375 56 46.34375 49.84375 
Q 52.203125 43.703125 52.203125 31.203125 
z
" id="DejaVuSans-61"/>
      <path d="M 9.421875 75.984375 
L 18.40625 75.984375 
L 18.40625 0 
L 9.421875 0 
z
" id="DejaVuSans-6c"/>
     </defs>
     <g transform="translate(225.159219 335.860562)scale(0.1 -0.1)">
      <use xlink:href="#DejaVuSans-52"/>
      <use x="69.419922" xlink:href="#DejaVuSans-65"/>
      <use x="130.943359" xlink:href="#DejaVuSans-61"/>
      <use x="192.222656" xlink:href="#DejaVuSans-6c"/>
     </g>
    </g>
   </g>
   <g id="matplotlib.axis_2">
    <g id="ytick_1">
     <g id="line2d_17">
      <path clip-path="url(#p4bfbcaae7c)" d="M 57.6 255.055888 
L 414.72 255.055888 
" style="fill:none;stroke:#b0b0b0;stroke-linecap:square;stroke-width:0.8;"/>
     </g>
     <g id="line2d_18">
      <defs>
       <path d="M 0 0 
L -3.5 0 
" id="m9c9aa1578e" style="stroke:#000000;stroke-width:0.8;"/>
      </defs>
      <g>
       <use style="stroke:#000000;stroke-width:0.8;" x="57.6" xlink:href="#m9c9aa1578e" y="255.055888"/>
      </g>
     </g>
     <g id="text_10">
      <!-- 0.4 -->
      <g transform="translate(34.696875 258.855107)scale(0.1 -0.1)">
       <use xlink:href="#DejaVuSans-30"/>
       <use x="63.623047" xlink:href="#DejaVuSans-2e"/>
       <use x="95.410156" xlink:href="#DejaVuSans-34"/>
      </g>
     </g>
    </g>
    <g id="ytick_2">
     <g id="line2d_19">
      <path clip-path="url(#p4bfbcaae7c)" d="M 57.6 199.416832 
L 414.72 199.416832 
" style="fill:none;stroke:#b0b0b0;stroke-linecap:square;stroke-width:0.8;"/>
     </g>
     <g id="line2d_20">
      <g>
       <use style="stroke:#000000;stroke-width:0.8;" x="57.6" xlink:href="#m9c9aa1578e" y="199.416832"/>
      </g>
     </g>
     <g id="text_11">
      <!-- 0.6 -->
      <g transform="translate(34.696875 203.216051)scale(0.1 -0.1)">
       <use xlink:href="#DejaVuSans-30"/>
       <use x="63.623047" xlink:href="#DejaVuSans-2e"/>
       <use x="95.410156" xlink:href="#DejaVuSans-36"/>
      </g>
     </g>
    </g>
    <g id="ytick_3">
     <g id="line2d_21">
      <path clip-path="url(#p4bfbcaae7c)" d="M 57.6 143.777776 
L 414.72 143.777776 
" style="fill:none;stroke:#b0b0b0;stroke-linecap:square;stroke-width:0.8;"/>
     </g>
     <g id="line2d_22">
      <g>
       <use style="stroke:#000000;stroke-width:0.8;" x="57.6" xlink:href="#m9c9aa1578e" y="143.777776"/>
      </g>
     </g>
     <g id="text_12">
      <!-- 0.8 -->
      <g transform="translate(34.696875 147.576995)scale(0.1 -0.1)">
       <use xlink:href="#DejaVuSans-30"/>
       <use x="63.623047" xlink:href="#DejaVuSans-2e"/>
       <use x="95.410156" xlink:href="#DejaVuSans-38"/>
      </g>
     </g>
    </g>
    <g id="ytick_4">
     <g id="line2d_23">
      <path clip-path="url(#p4bfbcaae7c)" d="M 57.6 88.13872 
L 414.72 88.13872 
" style="fill:none;stroke:#b0b0b0;stroke-linecap:square;stroke-width:0.8;"/>
     </g>
     <g id="line2d_24">
      <g>
       <use style="stroke:#000000;stroke-width:0.8;" x="57.6" xlink:href="#m9c9aa1578e" y="88.13872"/>
      </g>
     </g>
     <g id="text_13">
      <!-- 1.0 -->
      <g transform="translate(34.696875 91.937939)scale(0.1 -0.1)">
       <use xlink:href="#DejaVuSans-31"/>
       <use x="63.623047" xlink:href="#DejaVuSans-2e"/>
       <use x="95.410156" xlink:href="#DejaVuSans-30"/>
      </g>
     </g>
    </g>
    <g id="text_14">
     <!-- Predicted -->
     <defs>
      <path d="M 19.671875 64.796875 
L 19.671875 37.40625 
L 32.078125 37.40625 
Q 38.96875 37.40625 42.71875 40.96875 
Q 46.484375 44.53125 46.484375 51.125 
Q 46.484375 57.671875 42.71875 61.234375 
Q 38.96875 64.796875 32.078125 64.796875 
z
M 9.8125 72.90625 
L 32.078125 72.90625 
Q 44.34375 72.90625 50.609375 67.359375 
Q 56.890625 61.8125 56.890625 51.125 
Q 56.890625 40.328125 50.609375 34.8125 
Q 44.34375 29.296875 32.078125 29.296875 
L 19.671875 29.296875 
L 19.671875 0 
L 9.8125 0 
z
" id="DejaVuSans-50"/>
      <path d="M 41.109375 46.296875 
Q 39.59375 47.171875 37.8125 47.578125 
Q 36.03125 48 33.890625 48 
Q 26.265625 48 22.1875 43.046875 
Q 18.109375 38.09375 18.109375 28.8125 
L 18.109375 0 
L 9.078125 0 
L 9.078125 54.6875 
L 18.109375 54.6875 
L 18.109375 46.1875 
Q 20.953125 51.171875 25.484375 53.578125 
Q 30.03125 56 36.53125 56 
Q 37.453125 56 38.578125 55.875 
Q 39.703125 55.765625 41.0625 55.515625 
z
" id="DejaVuSans-72"/>
      <path d="M 45.40625 46.390625 
L 45.40625 75.984375 
L 54.390625 75.984375 
L 54.390625 0 
L 45.40625 0 
L 45.40625 8.203125 
Q 42.578125 3.328125 38.25 0.953125 
Q 33.9375 -1.421875 27.875 -1.421875 
Q 17.96875 -1.421875 11.734375 6.484375 
Q 5.515625 14.40625 5.515625 27.296875 
Q 5.515625 40.1875 11.734375 48.09375 
Q 17.96875 56 27.875 56 
Q 33.9375 56 38.25 53.625 
Q 42.578125 51.265625 45.40625 46.390625 
z
M 14.796875 27.296875 
Q 14.796875 17.390625 18.875 11.75 
Q 22.953125 6.109375 30.078125 6.109375 
Q 37.203125 6.109375 41.296875 11.75 
Q 45.40625 17.390625 45.40625 27.296875 
Q 45.40625 37.203125 41.296875 42.84375 
Q 37.203125 48.484375 30.078125 48.484375 
Q 22.953125 48.484375 18.875 42.84375 
Q 14.796875 37.203125 14.796875 27.296875 
z
" id="DejaVuSans-64"/>
      <path d="M 9.421875 54.6875 
L 18.40625 54.6875 
L 18.40625 0 
L 9.421875 0 
z
M 9.421875 75.984375 
L 18.40625 75.984375 
L 18.40625 64.59375 
L 9.421875 64.59375 
z
" id="DejaVuSans-69"/>
      <path d="M 48.78125 52.59375 
L 48.78125 44.1875 
Q 44.96875 46.296875 41.140625 47.34375 
Q 37.3125 48.390625 33.40625 48.390625 
Q 24.65625 48.390625 19.8125 42.84375 
Q 14.984375 37.3125 14.984375 27.296875 
Q 14.984375 17.28125 19.8125 11.734375 
Q 24.65625 6.203125 33.40625 6.203125 
Q 37.3125 6.203125 41.140625 7.25 
Q 44.96875 8.296875 48.78125 10.40625 
L 48.78125 2.09375 
Q 45.015625 0.34375 40.984375 -0.53125 
Q 36.96875 -1.421875 32.421875 -1.421875 
Q 20.0625 -1.421875 12.78125 6.34375 
Q 5.515625 14.109375 5.515625 27.296875 
Q 5.515625 40.671875 12.859375 48.328125 
Q 20.21875 56 33.015625 56 
Q 37.15625 56 41.109375 55.140625 
Q 45.0625 54.296875 48.78125 52.59375 
z
" id="DejaVuSans-63"/>
      <path d="M 18.3125 70.21875 
L 18.3125 54.6875 
L 36.8125 54.6875 
L 36.8125 47.703125 
L 18.3125 47.703125 
L 18.3125 18.015625 
Q 18.3125 11.328125 20.140625 9.421875 
Q 21.96875 7.515625 27.59375 7.515625 
L 36.8125 7.515625 
L 36.8125 0 
L 27.59375 0 
Q 17.1875 0 13.234375 3.875 
Q 9.28125 7.765625 9.28125 18.015625 
L 9.28125 47.703125 
L 2.6875 47.703125 
L 2.6875 54.6875 
L 9.28125 54.6875 
L 9.28125 70.21875 
z
" id="DejaVuSans-74"/>
     </defs>
     <g transform="translate(28.617187 198.195969)rotate(-90)scale(0.1 -0.1)">
      <use xlink:href="#DejaVuSans-50"/>
      <use x="60.287109" xlink:href="#DejaVuSans-72"/>
      <use x="101.369141" xlink:href="#DejaVuSans-65"/>
      <use x="162.892578" xlink:href="#DejaVuSans-64"/>
      <use x="226.369141" xlink:href="#DejaVuSans-69"/>
      <use x="254.152344" xlink:href="#DejaVuSans-63"/>
      <use x="309.132812" xlink:href="#DejaVuSans-74"/>
      <use x="348.341797" xlink:href="#DejaVuSans-65"/>
      <use x="409.865234" xlink:href="#DejaVuSans-64"/>
     </g>
    </g>
   </g>
   <g id="line2d_25">
    <path clip-path="url(#p4bfbcaae7c)" d="M 268.495497 173.157549 
L 111.320548 271.929813 
L 111.320548 271.929813 
L 111.320548 271.929813 
L 395.110198 93.59003 
L 224.792348 200.621588 
L 224.792348 200.621588 
L 100.717564 278.592966 
L 100.717564 278.592966 
L 100.717564 278.592966 
L 313.239452 145.039444 
L 131.521924 259.234815 
L 131.521924 259.234815 
L 83.89693 289.163429 
L 83.89693 289.163429 
L 83.89693 289.163429 
L 396.314072 92.833489 
L 111.719917 271.67884 
L 111.719917 271.67884 
L 75.647008 294.347865 
L 75.647008 294.347865 
L 75.647008 294.347865 
L 394.576113 93.925661 
L 360.100538 115.590887 
L 360.100538 115.590887 
L 73.832727 295.488 
L 344.561472 125.355984 
L 344.561472 125.355984 
L 375.569653 105.869747 
L 375.569653 105.869747 
L 375.569653 105.869747 
L 90.813592 284.816844 
L 145.66571 250.346543 
L 145.66571 250.346543 
L 390.726487 96.344853 
L 365.135541 112.426777 
L 365.135541 112.426777 
L 82.15719 290.256721 
L 316.418946 143.041378 
L 316.418946 143.041378 
L 378.096139 104.282047 
L 332.980692 132.633606 
L 332.980692 132.633606 
L 133.344636 258.089382 
L 326.063607 136.980457 
L 326.063607 136.980457 
L 353.024476 120.037642 
L 353.024476 120.037642 
L 353.024476 120.037642 
L 254.15173 182.171494 
L 254.15173 182.171494 
L 254.15173 182.171494 
L 398.487273 91.467801 
L 369.821929 109.481746 
L 369.821929 109.481746 
L 82.208854 290.224254 
L 271.59446 171.210091 
L 271.59446 171.210091 
L 375.7723 105.7424 
L 349.717668 122.115715 
L 349.717668 122.115715 
L 267.347324 173.879086 
L 267.347324 173.879086 
" style="fill:none;stroke:#ff0000;stroke-dasharray:5.55,2.4;stroke-dashoffset:0;stroke-width:1.5;"/>
   </g>
   <g id="line2d_26">
    <defs>
     <path d="M 0 1.5 
C 0.397805 1.5 0.77937 1.341951 1.06066 1.06066 
C 1.341951 0.77937 1.5 0.397805 1.5 0 
C 1.5 -0.397805 1.341951 -0.77937 1.06066 -1.06066 
C 0.77937 -1.341951 0.397805 -1.5 0 -1.5 
C -0.397805 -1.5 -0.77937 -1.341951 -1.06066 -1.06066 
C -1.341951 -0.77937 -1.5 -0.397805 -1.5 0 
C -1.5 0.397805 -1.341951 0.77937 -1.06066 1.06066 
C -0.77937 1.341951 -0.397805 1.5 0 1.5 
z
" id="m235b19c839" style="stroke:#1f77b4;"/>
    </defs>
    <g clip-path="url(#p4bfbcaae7c)">
     <use style="fill:#1f77b4;stroke:#1f77b4;" x="268.495497" xlink:href="#m235b19c839" y="181.098656"/>
     <use style="fill:#1f77b4;stroke:#1f77b4;" x="241.048329" xlink:href="#m235b19c839" y="192.410199"/>
     <use style="fill:#1f77b4;stroke:#1f77b4;" x="111.320548" xlink:href="#m235b19c839" y="264.363187"/>
     <use style="fill:#1f77b4;stroke:#1f77b4;" x="281.639374" xlink:href="#m235b19c839" y="164.949343"/>
     <use style="fill:#1f77b4;stroke:#1f77b4;" x="395.110198" xlink:href="#m235b19c839" y="71.687919"/>
     <use style="fill:#1f77b4;stroke:#1f77b4;" x="291.717192" xlink:href="#m235b19c839" y="152.697301"/>
     <use style="fill:#1f77b4;stroke:#1f77b4;" x="149.87105" xlink:href="#m235b19c839" y="250.033007"/>
     <use style="fill:#1f77b4;stroke:#1f77b4;" x="123.815547" xlink:href="#m235b19c839" y="257.529558"/>
     <use style="fill:#1f77b4;stroke:#1f77b4;" x="170.720961" xlink:href="#m235b19c839" y="232.607133"/>
     <use style="fill:#1f77b4;stroke:#1f77b4;" x="336.473259" xlink:href="#m235b19c839" y="112.000378"/>
     <use style="fill:#1f77b4;stroke:#1f77b4;" x="155.223309" xlink:href="#m235b19c839" y="244.00777"/>
     <use style="fill:#1f77b4;stroke:#1f77b4;" x="286.391095" xlink:href="#m235b19c839" y="164.623114"/>
     <use style="fill:#1f77b4;stroke:#1f77b4;" x="194.640903" xlink:href="#m235b19c839" y="228.011722"/>
     <use style="fill:#1f77b4;stroke:#1f77b4;" x="388.325388" xlink:href="#m235b19c839" y="58.711653"/>
     <use style="fill:#1f77b4;stroke:#1f77b4;" x="226.50181" xlink:href="#m235b19c839" y="208.030604"/>
     <use style="fill:#1f77b4;stroke:#1f77b4;" x="224.792348" xlink:href="#m235b19c839" y="221.887442"/>
     <use style="fill:#1f77b4;stroke:#1f77b4;" x="100.717564" xlink:href="#m235b19c839" y="278.938612"/>
     <use style="fill:#1f77b4;stroke:#1f77b4;" x="313.239452" xlink:href="#m235b19c839" y="133.805653"/>
     <use style="fill:#1f77b4;stroke:#1f77b4;" x="128.920382" xlink:href="#m235b19c839" y="253.359302"/>
     <use style="fill:#1f77b4;stroke:#1f77b4;" x="290.492526" xlink:href="#m235b19c839" y="152.968429"/>
     <use style="fill:#1f77b4;stroke:#1f77b4;" x="106.667077" xlink:href="#m235b19c839" y="262.721629"/>
     <use style="fill:#1f77b4;stroke:#1f77b4;" x="311.961881" xlink:href="#m235b19c839" y="157.190072"/>
     <use style="fill:#1f77b4;stroke:#1f77b4;" x="208.49341" xlink:href="#m235b19c839" y="211.613236"/>
     <use style="fill:#1f77b4;stroke:#1f77b4;" x="131.521924" xlink:href="#m235b19c839" y="250.988629"/>
     <use style="fill:#1f77b4;stroke:#1f77b4;" x="83.89693" xlink:href="#m235b19c839" y="271.982078"/>
     <use style="fill:#1f77b4;stroke:#1f77b4;" x="172.811889" xlink:href="#m235b19c839" y="230.937908"/>
     <use style="fill:#1f77b4;stroke:#1f77b4;" x="168.675127" xlink:href="#m235b19c839" y="233.334922"/>
     <use style="fill:#1f77b4;stroke:#1f77b4;" x="281.162759" xlink:href="#m235b19c839" y="164.882005"/>
     <use style="fill:#1f77b4;stroke:#1f77b4;" x="172.340353" xlink:href="#m235b19c839" y="235.576241"/>
     <use style="fill:#1f77b4;stroke:#1f77b4;" x="350.253072" xlink:href="#m235b19c839" y="114.603958"/>
     <use style="fill:#1f77b4;stroke:#1f77b4;" x="241.55331" xlink:href="#m235b19c839" y="198.254911"/>
     <use style="fill:#1f77b4;stroke:#1f77b4;" x="256.308096" xlink:href="#m235b19c839" y="180.17832"/>
     <use style="fill:#1f77b4;stroke:#1f77b4;" x="109.122861" xlink:href="#m235b19c839" y="271.623921"/>
     <use style="fill:#1f77b4;stroke:#1f77b4;" x="300.783254" xlink:href="#m235b19c839" y="154.423924"/>
     <use style="fill:#1f77b4;stroke:#1f77b4;" x="332.286231" xlink:href="#m235b19c839" y="130.887102"/>
     <use style="fill:#1f77b4;stroke:#1f77b4;" x="139.585031" xlink:href="#m235b19c839" y="264.546681"/>
     <use style="fill:#1f77b4;stroke:#1f77b4;" x="182.989935" xlink:href="#m235b19c839" y="230.905541"/>
     <use style="fill:#1f77b4;stroke:#1f77b4;" x="353.792818" xlink:href="#m235b19c839" y="95.525251"/>
     <use style="fill:#1f77b4;stroke:#1f77b4;" x="107.803111" xlink:href="#m235b19c839" y="276.63046"/>
     <use style="fill:#1f77b4;stroke:#1f77b4;" x="332.981984" xlink:href="#m235b19c839" y="116.671435"/>
     <use style="fill:#1f77b4;stroke:#1f77b4;" x="294.10428" xlink:href="#m235b19c839" y="160.697522"/>
     <use style="fill:#1f77b4;stroke:#1f77b4;" x="97.871685" xlink:href="#m235b19c839" y="267.512879"/>
     <use style="fill:#1f77b4;stroke:#1f77b4;" x="211.465482" xlink:href="#m235b19c839" y="212.439935"/>
     <use style="fill:#1f77b4;stroke:#1f77b4;" x="236.541236" xlink:href="#m235b19c839" y="203.119626"/>
     <use style="fill:#1f77b4;stroke:#1f77b4;" x="371.663322" xlink:href="#m235b19c839" y="78.635664"/>
     <use style="fill:#1f77b4;stroke:#1f77b4;" x="127.681375" xlink:href="#m235b19c839" y="259.127307"/>
     <use style="fill:#1f77b4;stroke:#1f77b4;" x="128.674488" xlink:href="#m235b19c839" y="253.427718"/>
     <use style="fill:#1f77b4;stroke:#1f77b4;" x="267.196447" xlink:href="#m235b19c839" y="175.387526"/>
     <use style="fill:#1f77b4;stroke:#1f77b4;" x="143.099855" xlink:href="#m235b19c839" y="247.902868"/>
     <use style="fill:#1f77b4;stroke:#1f77b4;" x="244.444982" xlink:href="#m235b19c839" y="191.101618"/>
     <use style="fill:#1f77b4;stroke:#1f77b4;" x="192.102305" xlink:href="#m235b19c839" y="224.683271"/>
     <use style="fill:#1f77b4;stroke:#1f77b4;" x="224.842007" xlink:href="#m235b19c839" y="209.563933"/>
     <use style="fill:#1f77b4;stroke:#1f77b4;" x="393.403349" xlink:href="#m235b19c839" y="70.568486"/>
     <use style="fill:#1f77b4;stroke:#1f77b4;" x="227.365987" xlink:href="#m235b19c839" y="211.113031"/>
     <use style="fill:#1f77b4;stroke:#1f77b4;" x="288.684485" xlink:href="#m235b19c839" y="153.604604"/>
     <use style="fill:#1f77b4;stroke:#1f77b4;" x="153.973325" xlink:href="#m235b19c839" y="242.244128"/>
     <use style="fill:#1f77b4;stroke:#1f77b4;" x="112.598092" xlink:href="#m235b19c839" y="261.878531"/>
     <use style="fill:#1f77b4;stroke:#1f77b4;" x="306.183048" xlink:href="#m235b19c839" y="165.504798"/>
     <use style="fill:#1f77b4;stroke:#1f77b4;" x="97.371876" xlink:href="#m235b19c839" y="279.355651"/>
     <use style="fill:#1f77b4;stroke:#1f77b4;" x="233.338442" xlink:href="#m235b19c839" y="196.416958"/>
     <use style="fill:#1f77b4;stroke:#1f77b4;" x="247.272668" xlink:href="#m235b19c839" y="189.204071"/>
     <use style="fill:#1f77b4;stroke:#1f77b4;" x="375.534612" xlink:href="#m235b19c839" y="88.151455"/>
     <use style="fill:#1f77b4;stroke:#1f77b4;" x="131.485234" xlink:href="#m235b19c839" y="254.431643"/>
     <use style="fill:#1f77b4;stroke:#1f77b4;" x="199.986262" xlink:href="#m235b19c839" y="215.831247"/>
     <use style="fill:#1f77b4;stroke:#1f77b4;" x="394.987238" xlink:href="#m235b19c839" y="67.403166"/>
     <use style="fill:#1f77b4;stroke:#1f77b4;" x="230.550626" xlink:href="#m235b19c839" y="200.771205"/>
     <use style="fill:#1f77b4;stroke:#1f77b4;" x="333.854315" xlink:href="#m235b19c839" y="120.167262"/>
     <use style="fill:#1f77b4;stroke:#1f77b4;" x="286.73438" xlink:href="#m235b19c839" y="156.999"/>
     <use style="fill:#1f77b4;stroke:#1f77b4;" x="145.640537" xlink:href="#m235b19c839" y="249.54625"/>
     <use style="fill:#1f77b4;stroke:#1f77b4;" x="396.314072" xlink:href="#m235b19c839" y="53.568"/>
     <use style="fill:#1f77b4;stroke:#1f77b4;" x="294.42672" xlink:href="#m235b19c839" y="152.944038"/>
     <use style="fill:#1f77b4;stroke:#1f77b4;" x="287.342426" xlink:href="#m235b19c839" y="180.845619"/>
     <use style="fill:#1f77b4;stroke:#1f77b4;" x="188.260199" xlink:href="#m235b19c839" y="224.563949"/>
     <use style="fill:#1f77b4;stroke:#1f77b4;" x="296.402525" xlink:href="#m235b19c839" y="159.833266"/>
     <use style="fill:#1f77b4;stroke:#1f77b4;" x="281.506229" xlink:href="#m235b19c839" y="159.365263"/>
     <use style="fill:#1f77b4;stroke:#1f77b4;" x="348.25249" xlink:href="#m235b19c839" y="103.850441"/>
     <use style="fill:#1f77b4;stroke:#1f77b4;" x="321.343576" xlink:href="#m235b19c839" y="129.034608"/>
     <use style="fill:#1f77b4;stroke:#1f77b4;" x="227.90804" xlink:href="#m235b19c839" y="203.311244"/>
     <use style="fill:#1f77b4;stroke:#1f77b4;" x="229.105133" xlink:href="#m235b19c839" y="218.829589"/>
     <use style="fill:#1f77b4;stroke:#1f77b4;" x="223.250096" xlink:href="#m235b19c839" y="205.938072"/>
     <use style="fill:#1f77b4;stroke:#1f77b4;" x="393.581272" xlink:href="#m235b19c839" y="57.831395"/>
     <use style="fill:#1f77b4;stroke:#1f77b4;" x="314.089513" xlink:href="#m235b19c839" y="126.379773"/>
     <use style="fill:#1f77b4;stroke:#1f77b4;" x="345.046135" xlink:href="#m235b19c839" y="110.718992"/>
     <use style="fill:#1f77b4;stroke:#1f77b4;" x="361.418559" xlink:href="#m235b19c839" y="90.840415"/>
     <use style="fill:#1f77b4;stroke:#1f77b4;" x="138.984848" xlink:href="#m235b19c839" y="250.922385"/>
     <use style="fill:#1f77b4;stroke:#1f77b4;" x="271.913365" xlink:href="#m235b19c839" y="171.4523"/>
     <use style="fill:#1f77b4;stroke:#1f77b4;" x="109.893644" xlink:href="#m235b19c839" y="275.614621"/>
     <use style="fill:#1f77b4;stroke:#1f77b4;" x="170.405737" xlink:href="#m235b19c839" y="231.307524"/>
     <use style="fill:#1f77b4;stroke:#1f77b4;" x="257.159555" xlink:href="#m235b19c839" y="182.451526"/>
     <use style="fill:#1f77b4;stroke:#1f77b4;" x="199.796967" xlink:href="#m235b19c839" y="236.722221"/>
     <use style="fill:#1f77b4;stroke:#1f77b4;" x="356.411524" xlink:href="#m235b19c839" y="99.537566"/>
     <use style="fill:#1f77b4;stroke:#1f77b4;" x="266.71656" xlink:href="#m235b19c839" y="189.088745"/>
     <use style="fill:#1f77b4;stroke:#1f77b4;" x="162.428254" xlink:href="#m235b19c839" y="243.674925"/>
     <use style="fill:#1f77b4;stroke:#1f77b4;" x="324.812185" xlink:href="#m235b19c839" y="146.639813"/>
     <use style="fill:#1f77b4;stroke:#1f77b4;" x="88.465411" xlink:href="#m235b19c839" y="282.588873"/>
     <use style="fill:#1f77b4;stroke:#1f77b4;" x="189.730152" xlink:href="#m235b19c839" y="224.340295"/>
     <use style="fill:#1f77b4;stroke:#1f77b4;" x="299.20269" xlink:href="#m235b19c839" y="144.774832"/>
     <use style="fill:#1f77b4;stroke:#1f77b4;" x="315.7947" xlink:href="#m235b19c839" y="130.69686"/>
     <use style="fill:#1f77b4;stroke:#1f77b4;" x="111.719917" xlink:href="#m235b19c839" y="262.080414"/>
     <use style="fill:#1f77b4;stroke:#1f77b4;" x="75.647008" xlink:href="#m235b19c839" y="270.247148"/>
     <use style="fill:#1f77b4;stroke:#1f77b4;" x="374.711782" xlink:href="#m235b19c839" y="91.890701"/>
     <use style="fill:#1f77b4;stroke:#1f77b4;" x="199.440779" xlink:href="#m235b19c839" y="218.073545"/>
     <use style="fill:#1f77b4;stroke:#1f77b4;" x="186.682062" xlink:href="#m235b19c839" y="231.261393"/>
     <use style="fill:#1f77b4;stroke:#1f77b4;" x="133.473427" xlink:href="#m235b19c839" y="253.687397"/>
     <use style="fill:#1f77b4;stroke:#1f77b4;" x="173.938531" xlink:href="#m235b19c839" y="230.178034"/>
     <use style="fill:#1f77b4;stroke:#1f77b4;" x="389.50591" xlink:href="#m235b19c839" y="54.496909"/>
     <use style="fill:#1f77b4;stroke:#1f77b4;" x="284.718785" xlink:href="#m235b19c839" y="158.806873"/>
     <use style="fill:#1f77b4;stroke:#1f77b4;" x="290.192144" xlink:href="#m235b19c839" y="165.082428"/>
     <use style="fill:#1f77b4;stroke:#1f77b4;" x="125.470376" xlink:href="#m235b19c839" y="255.117985"/>
     <use style="fill:#1f77b4;stroke:#1f77b4;" x="394.576113" xlink:href="#m235b19c839" y="63.601141"/>
     <use style="fill:#1f77b4;stroke:#1f77b4;" x="157.015623" xlink:href="#m235b19c839" y="246.606782"/>
     <use style="fill:#1f77b4;stroke:#1f77b4;" x="389.335455" xlink:href="#m235b19c839" y="73.694109"/>
     <use style="fill:#1f77b4;stroke:#1f77b4;" x="329.101433" xlink:href="#m235b19c839" y="130.342309"/>
     <use style="fill:#1f77b4;stroke:#1f77b4;" x="87.597157" xlink:href="#m235b19c839" y="280.668368"/>
     <use style="fill:#1f77b4;stroke:#1f77b4;" x="239.500563" xlink:href="#m235b19c839" y="212.789693"/>
     <use style="fill:#1f77b4;stroke:#1f77b4;" x="360.100538" xlink:href="#m235b19c839" y="96.269406"/>
     <use style="fill:#1f77b4;stroke:#1f77b4;" x="73.832727" xlink:href="#m235b19c839" y="271.65303"/>
     <use style="fill:#1f77b4;stroke:#1f77b4;" x="84.965614" xlink:href="#m235b19c839" y="267.496272"/>
     <use style="fill:#1f77b4;stroke:#1f77b4;" x="285.805319" xlink:href="#m235b19c839" y="181.344978"/>
     <use style="fill:#1f77b4;stroke:#1f77b4;" x="80.515436" xlink:href="#m235b19c839" y="271.029765"/>
     <use style="fill:#1f77b4;stroke:#1f77b4;" x="344.561472" xlink:href="#m235b19c839" y="118.915424"/>
     <use style="fill:#1f77b4;stroke:#1f77b4;" x="375.569653" xlink:href="#m235b19c839" y="80.641622"/>
     <use style="fill:#1f77b4;stroke:#1f77b4;" x="90.813592" xlink:href="#m235b19c839" y="266.92436"/>
     <use style="fill:#1f77b4;stroke:#1f77b4;" x="236.218347" xlink:href="#m235b19c839" y="213.436679"/>
     <use style="fill:#1f77b4;stroke:#1f77b4;" x="190.400443" xlink:href="#m235b19c839" y="225.667563"/>
     <use style="fill:#1f77b4;stroke:#1f77b4;" x="179.800691" xlink:href="#m235b19c839" y="235.983878"/>
     <use style="fill:#1f77b4;stroke:#1f77b4;" x="187.073687" xlink:href="#m235b19c839" y="231.079152"/>
     <use style="fill:#1f77b4;stroke:#1f77b4;" x="234.042692" xlink:href="#m235b19c839" y="198.509772"/>
     <use style="fill:#1f77b4;stroke:#1f77b4;" x="266.587821" xlink:href="#m235b19c839" y="174.285737"/>
     <use style="fill:#1f77b4;stroke:#1f77b4;" x="145.66571" xlink:href="#m235b19c839" y="247.654797"/>
     <use style="fill:#1f77b4;stroke:#1f77b4;" x="389.176583" xlink:href="#m235b19c839" y="66.946572"/>
     <use style="fill:#1f77b4;stroke:#1f77b4;" x="273.801277" xlink:href="#m235b19c839" y="188.355949"/>
     <use style="fill:#1f77b4;stroke:#1f77b4;" x="287.056953" xlink:href="#m235b19c839" y="166.214878"/>
     <use style="fill:#1f77b4;stroke:#1f77b4;" x="211.684594" xlink:href="#m235b19c839" y="213.047406"/>
     <use style="fill:#1f77b4;stroke:#1f77b4;" x="390.726487" xlink:href="#m235b19c839" y="65.460815"/>
     <use style="fill:#1f77b4;stroke:#1f77b4;" x="365.135541" xlink:href="#m235b19c839" y="94.684259"/>
     <use style="fill:#1f77b4;stroke:#1f77b4;" x="82.15719" xlink:href="#m235b19c839" y="268.34796"/>
     <use style="fill:#1f77b4;stroke:#1f77b4;" x="192.985243" xlink:href="#m235b19c839" y="223.807325"/>
     <use style="fill:#1f77b4;stroke:#1f77b4;" x="328.407764" xlink:href="#m235b19c839" y="125.883581"/>
     <use style="fill:#1f77b4;stroke:#1f77b4;" x="106.033199" xlink:href="#m235b19c839" y="266.819904"/>
     <use style="fill:#1f77b4;stroke:#1f77b4;" x="214.89211" xlink:href="#m235b19c839" y="205.703026"/>
     <use style="fill:#1f77b4;stroke:#1f77b4;" x="203.27737" xlink:href="#m235b19c839" y="218.124268"/>
     <use style="fill:#1f77b4;stroke:#1f77b4;" x="217.251809" xlink:href="#m235b19c839" y="203.387354"/>
     <use style="fill:#1f77b4;stroke:#1f77b4;" x="313.985181" xlink:href="#m235b19c839" y="132.964179"/>
     <use style="fill:#1f77b4;stroke:#1f77b4;" x="277.685073" xlink:href="#m235b19c839" y="166.634064"/>
     <use style="fill:#1f77b4;stroke:#1f77b4;" x="303.94251" xlink:href="#m235b19c839" y="149.011548"/>
     <use style="fill:#1f77b4;stroke:#1f77b4;" x="328.165459" xlink:href="#m235b19c839" y="144.18905"/>
     <use style="fill:#1f77b4;stroke:#1f77b4;" x="316.418946" xlink:href="#m235b19c839" y="137.602952"/>
     <use style="fill:#1f77b4;stroke:#1f77b4;" x="378.096139" xlink:href="#m235b19c839" y="101.920294"/>
     <use style="fill:#1f77b4;stroke:#1f77b4;" x="332.980692" xlink:href="#m235b19c839" y="121.792802"/>
     <use style="fill:#1f77b4;stroke:#1f77b4;" x="158.347933" xlink:href="#m235b19c839" y="242.343262"/>
     <use style="fill:#1f77b4;stroke:#1f77b4;" x="159.253444" xlink:href="#m235b19c839" y="241.899585"/>
     <use style="fill:#1f77b4;stroke:#1f77b4;" x="270.132317" xlink:href="#m235b19c839" y="173.464991"/>
     <use style="fill:#1f77b4;stroke:#1f77b4;" x="133.344636" xlink:href="#m235b19c839" y="262.304416"/>
     <use style="fill:#1f77b4;stroke:#1f77b4;" x="174.971699" xlink:href="#m235b19c839" y="239.192725"/>
     <use style="fill:#1f77b4;stroke:#1f77b4;" x="315.577092" xlink:href="#m235b19c839" y="136.312993"/>
     <use style="fill:#1f77b4;stroke:#1f77b4;" x="285.955325" xlink:href="#m235b19c839" y="166.7735"/>
     <use style="fill:#1f77b4;stroke:#1f77b4;" x="330.75675" xlink:href="#m235b19c839" y="121.86281"/>
     <use style="fill:#1f77b4;stroke:#1f77b4;" x="277.728294" xlink:href="#m235b19c839" y="172.22544"/>
     <use style="fill:#1f77b4;stroke:#1f77b4;" x="326.063607" xlink:href="#m235b19c839" y="132.82287"/>
     <use style="fill:#1f77b4;stroke:#1f77b4;" x="348.249007" xlink:href="#m235b19c839" y="130.053041"/>
     <use style="fill:#1f77b4;stroke:#1f77b4;" x="353.024476" xlink:href="#m235b19c839" y="111.513671"/>
     <use style="fill:#1f77b4;stroke:#1f77b4;" x="308.612249" xlink:href="#m235b19c839" y="141.709534"/>
     <use style="fill:#1f77b4;stroke:#1f77b4;" x="254.15173" xlink:href="#m235b19c839" y="185.434978"/>
     <use style="fill:#1f77b4;stroke:#1f77b4;" x="398.487273" xlink:href="#m235b19c839" y="86.604413"/>
     <use style="fill:#1f77b4;stroke:#1f77b4;" x="327.518784" xlink:href="#m235b19c839" y="134.629715"/>
     <use style="fill:#1f77b4;stroke:#1f77b4;" x="324.393303" xlink:href="#m235b19c839" y="123.05119"/>
     <use style="fill:#1f77b4;stroke:#1f77b4;" x="363.57664" xlink:href="#m235b19c839" y="86.993221"/>
     <use style="fill:#1f77b4;stroke:#1f77b4;" x="369.821929" xlink:href="#m235b19c839" y="79.615976"/>
     <use style="fill:#1f77b4;stroke:#1f77b4;" x="194.049639" xlink:href="#m235b19c839" y="227.007715"/>
     <use style="fill:#1f77b4;stroke:#1f77b4;" x="141.067742" xlink:href="#m235b19c839" y="250.441705"/>
     <use style="fill:#1f77b4;stroke:#1f77b4;" x="234.049368" xlink:href="#m235b19c839" y="203.498071"/>
     <use style="fill:#1f77b4;stroke:#1f77b4;" x="131.558654" xlink:href="#m235b19c839" y="252.847159"/>
     <use style="fill:#1f77b4;stroke:#1f77b4;" x="273.709083" xlink:href="#m235b19c839" y="163.910796"/>
     <use style="fill:#1f77b4;stroke:#1f77b4;" x="130.606835" xlink:href="#m235b19c839" y="253.465956"/>
     <use style="fill:#1f77b4;stroke:#1f77b4;" x="82.208854" xlink:href="#m235b19c839" y="271.085197"/>
     <use style="fill:#1f77b4;stroke:#1f77b4;" x="177.334287" xlink:href="#m235b19c839" y="248.131787"/>
     <use style="fill:#1f77b4;stroke:#1f77b4;" x="158.216714" xlink:href="#m235b19c839" y="246.005868"/>
     <use style="fill:#1f77b4;stroke:#1f77b4;" x="226.203143" xlink:href="#m235b19c839" y="207.257116"/>
     <use style="fill:#1f77b4;stroke:#1f77b4;" x="131.390771" xlink:href="#m235b19c839" y="254.45033"/>
     <use style="fill:#1f77b4;stroke:#1f77b4;" x="105.240067" xlink:href="#m235b19c839" y="267.018951"/>
     <use style="fill:#1f77b4;stroke:#1f77b4;" x="95.771944" xlink:href="#m235b19c839" y="265.34214"/>
     <use style="fill:#1f77b4;stroke:#1f77b4;" x="106.501107" xlink:href="#m235b19c839" y="276.124079"/>
     <use style="fill:#1f77b4;stroke:#1f77b4;" x="335.397332" xlink:href="#m235b19c839" y="115.046226"/>
     <use style="fill:#1f77b4;stroke:#1f77b4;" x="206.042653" xlink:href="#m235b19c839" y="218.59058"/>
     <use style="fill:#1f77b4;stroke:#1f77b4;" x="214.441854" xlink:href="#m235b19c839" y="215.117238"/>
     <use style="fill:#1f77b4;stroke:#1f77b4;" x="134.93429" xlink:href="#m235b19c839" y="255.698487"/>
     <use style="fill:#1f77b4;stroke:#1f77b4;" x="297.315543" xlink:href="#m235b19c839" y="158.37225"/>
     <use style="fill:#1f77b4;stroke:#1f77b4;" x="311.154382" xlink:href="#m235b19c839" y="129.408078"/>
     <use style="fill:#1f77b4;stroke:#1f77b4;" x="149.537632" xlink:href="#m235b19c839" y="243.692783"/>
     <use style="fill:#1f77b4;stroke:#1f77b4;" x="357.847835" xlink:href="#m235b19c839" y="98.129777"/>
     <use style="fill:#1f77b4;stroke:#1f77b4;" x="209.811748" xlink:href="#m235b19c839" y="212.633112"/>
     <use style="fill:#1f77b4;stroke:#1f77b4;" x="353.169257" xlink:href="#m235b19c839" y="93.324093"/>
     <use style="fill:#1f77b4;stroke:#1f77b4;" x="138.812097" xlink:href="#m235b19c839" y="250.309806"/>
     <use style="fill:#1f77b4;stroke:#1f77b4;" x="271.59446" xlink:href="#m235b19c839" y="175.567372"/>
     <use style="fill:#1f77b4;stroke:#1f77b4;" x="375.7723" xlink:href="#m235b19c839" y="85.769058"/>
     <use style="fill:#1f77b4;stroke:#1f77b4;" x="349.717668" xlink:href="#m235b19c839" y="111.905099"/>
     <use style="fill:#1f77b4;stroke:#1f77b4;" x="269.183757" xlink:href="#m235b19c839" y="167.216464"/>
     <use style="fill:#1f77b4;stroke:#1f77b4;" x="311.807574" xlink:href="#m235b19c839" y="145.518722"/>
     <use style="fill:#1f77b4;stroke:#1f77b4;" x="267.347324" xlink:href="#m235b19c839" y="179.724611"/>
    </g>
   </g>
   <g id="patch_3">
    <path d="M 57.6 307.584 
L 57.6 41.472 
" style="fill:none;stroke:#000000;stroke-linecap:square;stroke-linejoin:miter;stroke-width:0.8;"/>
   </g>
   <g id="patch_4">
    <path d="M 414.72 307.584 
L 414.72 41.472 
" style="fill:none;stroke:#000000;stroke-linecap:square;stroke-linejoin:miter;stroke-width:0.8;"/>
   </g>
   <g id="patch_5">
    <path d="M 57.6 307.584 
L 414.72 307.584 
" style="fill:none;stroke:#000000;stroke-linecap:square;stroke-linejoin:miter;stroke-width:0.8;"/>
   </g>
   <g id="patch_6">
    <path d="M 57.6 41.472 
L 414.72 41.472 
" style="fill:none;stroke:#000000;stroke-linecap:square;stroke-linejoin:miter;stroke-width:0.8;"/>
   </g>
   <g id="legend_1">
    <g id="patch_7">
     <path d="M 64.6 78.82825 
L 144.25625 78.82825 
Q 146.25625 78.82825 146.25625 76.82825 
L 146.25625 48.472 
Q 146.25625 46.472 144.25625 46.472 
L 64.6 46.472 
Q 62.6 46.472 62.6 48.472 
L 62.6 76.82825 
Q 62.6 78.82825 64.6 78.82825 
z
" style="fill:#ffffff;opacity:0.8;stroke:#cccccc;stroke-linejoin:miter;"/>
    </g>
    <g id="line2d_27">
     <path d="M 66.6 54.570437 
L 86.6 54.570437 
" style="fill:none;stroke:#ff0000;stroke-dasharray:5.55,2.4;stroke-dashoffset:0;stroke-width:1.5;"/>
    </g>
    <g id="line2d_28"/>
    <g id="text_15">
     <!-- real data -->
     <defs>
      <path id="DejaVuSans-20"/>
     </defs>
     <g transform="translate(94.6 58.070437)scale(0.1 -0.1)">
      <use xlink:href="#DejaVuSans-72"/>
      <use x="41.082031" xlink:href="#DejaVuSans-65"/>
      <use x="102.605469" xlink:href="#DejaVuSans-61"/>
      <use x="163.884766" xlink:href="#DejaVuSans-6c"/>
      <use x="191.667969" xlink:href="#DejaVuSans-20"/>
      <use x="223.455078" xlink:href="#DejaVuSans-64"/>
      <use x="286.931641" xlink:href="#DejaVuSans-61"/>
      <use x="348.210938" xlink:href="#DejaVuSans-74"/>
      <use x="387.419922" xlink:href="#DejaVuSans-61"/>
     </g>
    </g>
    <g id="line2d_29"/>
    <g id="line2d_30">
     <g>
      <use style="fill:#1f77b4;stroke:#1f77b4;" x="76.6" xlink:href="#m235b19c839" y="69.248562"/>
     </g>
    </g>
    <g id="text_16">
     <!-- predicted -->
     <defs>
      <path d="M 18.109375 8.203125 
L 18.109375 -20.796875 
L 9.078125 -20.796875 
L 9.078125 54.6875 
L 18.109375 54.6875 
L 18.109375 46.390625 
Q 20.953125 51.265625 25.265625 53.625 
Q 29.59375 56 35.59375 56 
Q 45.5625 56 51.78125 48.09375 
Q 58.015625 40.1875 58.015625 27.296875 
Q 58.015625 14.40625 51.78125 6.484375 
Q 45.5625 -1.421875 35.59375 -1.421875 
Q 29.59375 -1.421875 25.265625 0.953125 
Q 20.953125 3.328125 18.109375 8.203125 
z
M 48.6875 27.296875 
Q 48.6875 37.203125 44.609375 42.84375 
Q 40.53125 48.484375 33.40625 48.484375 
Q 26.265625 48.484375 22.1875 42.84375 
Q 18.109375 37.203125 18.109375 27.296875 
Q 18.109375 17.390625 22.1875 11.75 
Q 26.265625 6.109375 33.40625 6.109375 
Q 40.53125 6.109375 44.609375 11.75 
Q 48.6875 17.390625 48.6875 27.296875 
z
" id="DejaVuSans-70"/>
     </defs>
     <g transform="translate(94.6 72.748562)scale(0.1 -0.1)">
      <use xlink:href="#DejaVuSans-70"/>
      <use x="63.476562" xlink:href="#DejaVuSans-72"/>
      <use x="104.558594" xlink:href="#DejaVuSans-65"/>
      <use x="166.082031" xlink:href="#DejaVuSans-64"/>
      <use x="229.558594" xlink:href="#DejaVuSans-69"/>
      <use x="257.341797" xlink:href="#DejaVuSans-63"/>
      <use x="312.322266" xlink:href="#DejaVuSans-74"/>
      <use x="351.53125" xlink:href="#DejaVuSans-65"/>
      <use x="413.054688" xlink:href="#DejaVuSans-64"/>
     </g>
    </g>
   </g>
  </g>
 </g>
 <defs>
  <clipPath id="p4bfbcaae7c">
   <rect height="266.112" width="357.12" x="57.6" y="41.472"/>
  </clipPath>
 </defs>
</svg>
